/* XPM */
static const char *xpm_filesave[] = {
"16 16 8 1",
" 	c None",
"!	c black",
"#	c #A4A100",
"$	c #81818C",
"%	c #191800",
"&	c #2A2A12",
"'	c #313018",
"(	c #212008",
"                ",
" !!!!!!!!!!!!!! ",
" !#!        !$! ",
" !#!        !!! ",
" !#!        !#! ",
" !#!        !#! ",
" !#!        !#! ",
" !#!        !#! ",
" !#!!!!!!!!!!#! ",
" !############! ",
" !##%%%%%%&'(#! ",
" !##!!!!!!   #! ",
" !##!!!!!!   #! ",
" !##!!!!!!   #! ",
" !!!!!!!!!!!!!! ",
"                "};
