/* XPM */
static const char * xpm_testdata[] = {
"16 16 7 1",
" 	c None",
".	c #000000",
"+	c #A4A100",
"@	c #81818C",
"#	c #0CFF00",
"$	c #191800",
"%	c #2A2A12",
"                ",
" .............. ",
" .+.        .@. ",
" .+.        ... ",
" .+.        .+. ",
" .+.        .+. ",
" .+.        .+. ",
" .+.        .+# ",
" .+..........## ",
" .++++++++++##. ",
" .++$$$$$$%##+. ",
" .++..##..## +. ",
" .++...##### +. ",
" .++...####  +. ",
" .......##..... ",
"                "};
