/* XPM */ 
static const char * xpm_aggregate[] = {
"32 32 4 1",
" 	c None",
"!	c black",
"#	c #0000FF",
"$	c #FFFF48",
"                                ",
"                                ",
"                                ",
"                                ",
"                                ",
"                ##              ",
"                ##              ",
"                ##              ",
"                ##              ",
"        #################       ",
"        #################       ",
"        ##$$$$$$$$$$$$$##       ",
"        ##$$$$$$$$$$$$$##       ",
"        ##$$$$$$$$$$$$$##       ",
"        ##$$$$$$$$$$$$$##       ",
"        ##$$$$$$$$$$$$$##       ",
"        ##$$$$$$$$$$$$$##       ",
"        ##$$$$$$$$$$$$$##       ",
"        ##$$$$$$$$$$$$$##       ",
"        ##$$$$$$$$$$$$$##       ",
"        #################       ",
"        #################       ",
"                                ",
"                                ",
"                                ",
"                                ",
"                                ",
"                                ",
"                                ",
"                                ",
"                                ",
"                                "};
