/* XPM */ 
static const char * xpm_autolog[] = {
"32 32 9 1",
" 	c None",
"!	c black",
"#	c #929292",
"$	c white",
"%	c #B4CDFF",
"&	c #F8F8F8",
"'	c #48FFFF",
"(	c #B8B8B8",
")	c #090909",
"         #$#     ##$#           ",
"         #$$#    #$$##          ",
"        #$$$#    #$$$#          ",
"        #$%$#    #$%$#          ",
"        #$%$######$%$#          ",
"        #$%$#&&&&#$%$#          ",
"        #$%$&&&&&&$%$#         '",
"        #$%$&&&&&&&%$#       '' ",
"        #$%$&(&&$(&%$#       '' ",
"        #$&&&&&&&&&$$#      ''  ",
"         #&&&&&(&&&$##     '''  ",
"         #&&&&&&&&&&#    ''''   ",
"          #&&(&(&(&#''  '''''   ",
"           #&(&(&(#'''''''''    ",
"           # (((((##'''''''     ",
"         ##&&&&&&&&#''''''      ",
"         #&&&&&&&&&&#'''''''''  ",
"         #&&&&&&&&&&#'''''''''''",
"     )))))!)))))))))))))''''''  ",
"     )))))))))))))))))))''''    ",
"     )))))))))))))))))))''      ",
"        )))))))))))))'''''      ",
"        )))))))))))))'''''      ",
"        )))))))))))))''''''     ",
"        )))))))))))))'''''''    ",
"        )))))))))))))   ''''    ",
"        )))))))))))))     '''   ",
"        )))))))))))))       '   ",
"        )))))))))))))           ",
"        )))))))))))))           ",
"        )))))))))))))           ",
"        )))))))))))))           "};
