/* XPM */
static const char* xpm_circle[]={
"16 16 3 1",
"# c #000000",
"a c #838079",
". c None",
"................",
"................",
"......####......",
"....##.aaa##....",
"...#.aa....a#...",
"...#a.......#a..",
"..#.a........#..",
"..#a.........#a.",
"..#a.........#a.",
"..#a.........#a.",
"...#........#.a.",
"...#a.......#a..",
"....##....##.a..",
".....a####.aa...",
".......aaaa.....",
"................"};
