/* XPM */ 
static const char * xpm_loglink[] = {
"32 32 7 1",
" 	c None",
"!	c black",
"#	c #FFFF48",
"$	c #0000FF",
"%	c #FFB624",
"&	c #FF48C2",
"'	c #9B3200",
"            ########            ",
"            ########            ",
"            ########            ",
"            ########            ",
"            ########            ",
"            ########            ",
"            ########            ",
"            ########            ",
"            ########            ",
"      $$$$$$########$$$$$       ",
"      $$$$$$$$$$$$$$$$$$$       ",
"      $$$$$$$$$$$$$$$$$$$       ",
"      $$$$$$$$$$$$$$$$$$$       ",
"%%%%%%%$$$           $$&&&&&&&&&",
"%%%%%%%$$$           $$&&&&&&&&&",
"%%%%%%%$$$           $$&&&&&&&&&",
"%%%%%%%$$$           $$&&&&&&&&&",
"%%%%%%%$$$           $$&&&&&&&&&",
"%%%%%%%$$$           $$&&&&&&&&&",
"%%%%%%%$$$           $$&&&&&&&&&",
"      $$$$$$$$$$$$$$$$$$$       ",
"      $$$$$$$$$$$$$$$$$$$       ",
"      $$$$$$''''''''$$$$$       ",
"      $$$$$$''''''''$$$$$       ",
"            ''''''''            ",
"            ''''''''            ",
"            ''''''''            ",
"            ''''''''            ",
"            ''''''''            ",
"            ''''''''            ",
"            ''''''''            ",
"            ''''''''            "};
