/* XPM */ 
static const char * xpm_objectTypeDestructionRoute[] = {
"32 32 5 1",
" 	c None",
"!	c black",
"#	c #929292",
"$	c #F0FBFF",
"%	c white",
"             ###$###            ",
"             #######            ",
"            ####$####           ",
"            #########           ",
"            ####%####           ",
"           ###########          ",
"           #####$#####          ",
"           ###########          ",
"          ######$######         ",
"          #############         ",
"          ######$#####          ",
"          ############          ",
"         #######$#####          ",
"         ############           ",
"         #######$##             ",
"        ########$#              ",
"        ##########              ",
"        ########$#              ",
"       #########$               ",
"       #########$               ",
"       #########                ",
"      ##########$               ",
"      ##########$##             ",
"      ##########$##     ####    ",
"     ###############    ####    ",
"     ###########$###########    ",
"     ###########$############   ",
"     ###########$############   ",
"    #########################   ",
"    ############$#############  ",
"    ############$#############  ",
"   #############$#############  "};
