/* XPM */ 
static const char * xpm_objectTypePosteControle[] = {
"32 32 5 1",
" 	c None",
"!	c black",
"#	c #6C6C6C",
"$	c #FFFBF0",
"%	c #B8B8B8",
"                                ",
"                                ",
"                                ",
"                                ",
"              ####              ",
"              ####              ",
"             #####              ",
"             ###$##             ",
"             ######             ",
"             ###$##             ",
"            #######             ",
"            ####$###            ",
"            ########            ",
"            ####$###            ",
"           #########            ",
"           #####$##!!!!         ",
"           #####$!!!#! !!!!!!   ",
"           ###!!!!#!#! !%%%%!   ",
"          ##!!!!$!#!#  !%%%%!   ",
"         !!!!!#!#!#### !%%%%!   ",
"      !!!!!!#!##$##### !%%%%!   ",
"      !!!!#!########## !%%%%!   ",
"      !!!#######$##### !%%%%!   ",
"      !! #######$##### !%%%%!   ",
"      !! ##############!%%%%!   ",
"      !! #######$######!%%%%!   ",
"      !!########$######!%%%%!   ",
"      !!########$######!!!!!!   ",
"        ################        ",
"        ########$#######        ",
"       #########$#######        ",
"       #########$#######        "};
