/* XPM */
static const char * xpm_recplay[] = {
"32 32 62 1",
" 	c None",
".	c #000000",
"+	c #FFFFFF",
"@	c #F4F4F4",
"#	c #DFDFDF",
"$	c #BEBEBE",
"%	c #C2C2C2",
"&	c #BBBBBB",
"*	c #A1A1A1",
"=	c #A5A5A5",
"-	c #C9C9C9",
";	c #C6C6C6",
">	c #CACACA",
",	c #BCBCBC",
"'	c #AAAAAA",
")	c #D3D3D3",
"!	c #E6E6E6",
"~	c #D2D2D2",
"{	c #F6F6F6",
"]	c #E5E5E5",
"^	c #E4E4E4",
"/	c #DEDEDE",
"(	c #DCDCDC",
"_	c #CCCCCC",
":	c #FDFDFD",
"<	c #F5F5F5",
"[	c #D7D7D7",
"}	c #09BC00",
"|	c #D0D0D0",
"1	c #B8B8B8",
"2	c #B0B0B0",
"3	c #F9F9F9",
"4	c #F0F0F0",
"5	c #010101",
"6	c #CDCDCD",
"7	c #0A0A0A",
"8	c #C1C1C1",
"9	c #B6B6B6",
"0	c #EBEBEB",
"a	c #050505",
"b	c #F2F2F2",
"c	c #ECECEC",
"d	c #C4C4C4",
"e	c #ACACAC",
"f	c #B2B2B2",
"g	c #F7F7F7",
"h	c #C3C3C3",
"i	c #E2E2E2",
"j	c #DBDBDB",
"k	c #EDEDED",
"l	c #9A9A9A",
"m	c #BFBFBF",
"n	c #EEEEEE",
"o	c #E8E8E8",
"p	c #E7E7E7",
"q	c #ABABAB",
"r	c #A4A4A4",
"s	c #9D9D9D",
"t	c #C7C7C7",
"u	c #D6D6D6",
"v	c #DADADA",
"w	c #CBCBCB",
"                                ",
"                                ",
"                                ",
"     ....................       ",
"     .++++++@@++++++++++.       ",
"     .+#$%&*=-;>,')!~~++.       ",
"     .+{]!{^!!/((_/!!!++.       ",
"     .:{+<..+<<<<+++++++.       ",
"     .{#![.}.|,>12>!<~++.       ",
"     .++!+.}}.+34]4![~++.       ",
"     .:{+{5}}}.+34++++++.       ",
"     .{6$&7}}}}.8>9>;!++.       ",
"     .++++.}}}}}.++<!!++.       ",
"     .++++.}}}}}}.++++++.       ",
"     .{#8>.}}}}}}}.0>~++.       ",
"     .:{34.}}}}}}}}a4~++.       ",
"     .+bc+.}}}}}}}}.++++.       ",
"     .+def.}}}}}}}.b([++.       ",
"     .++g4.}}}}}}.+b(<++.       ",
"     .++++.}}}}}.+++<<++.       ",
"     .3$=8.}}}}.!>h;[[++.       ",
"     .3i@+.}}}.+!0i<++++.       ",
"     .+(j/.}}.++!6k+++++.       ",
"     .+,l;.}.!m[$2h[,[++.       ",
"     .++++..no+<33<pp<++.       ",
"     .+j=e22qr$stu;&u!++.       ",
"     .+0i+++++vw(!!!!!++.       ",
"     .++++++++++++++++++.       ",
"     ....................       ",
"                                ",
"                                ",
"                                "};
