/* XPM */
static const char * xpm_recstop[] = {
"32 32 67 1",
" 	c None",
".	c #000000",
"+	c #FFFFFF",
"@	c #F7F7F7",
"#	c #ECECEC",
"$	c #FBFBFB",
"%	c #EAEAEA",
"&	c #F9F9F9",
"*	c #D7D7D7",
"=	c #CACACA",
"-	c #BEBEBE",
";	c #B5B5B5",
">	c #DEDEDE",
",	c #CBCBCB",
"'	c #D9D9D9",
")	c #B9B9B9",
"!	c #C1C1C1",
"~	c #D2D2D2",
"{	c #C2C2C2",
"]	c #F3F3F3",
"^	c #EBEBEB",
"/	c #E1E1E1",
"(	c #E6E6E6",
"_	c #DDDDDD",
":	c #F0F0F0",
"<	c #D1D1D1",
"[	c #C5C5C5",
"}	c #BFBFBF",
"|	c #BABABA",
"1	c #BDBDBD",
"2	c #B8B8B8",
"3	c #B7B7B7",
"4	c #B3B3B3",
"5	c #AEAEAE",
"6	c #B2B2B2",
"7	c #D3D3D3",
"8	c #DFDFDF",
"9	c #F4F4F4",
"0	c #F5F5F5",
"a	c #E5E5E5",
"b	c #E9E9E9",
"c	c #DCDCDC",
"d	c #DADADA",
"e	c #FDFDFD",
"f	c #F8F8F8",
"g	c #D5D5D5",
"h	c #5C5C5C",
"i	c #EFEFEF",
"j	c #CFCFCF",
"k	c #EEEEEE",
"l	c #B4B4B4",
"m	c #E2E2E2",
"n	c #C0C0C0",
"o	c #E8E8E8",
"p	c #BCBCBC",
"q	c #E7E7E7",
"r	c #E0E0E0",
"s	c #CDCDCD",
"t	c #F1F1F1",
"u	c #B0B0B0",
"v	c #AFAFAF",
"w	c #C7C7C7",
"x	c #BBBBBB",
"y	c #C3C3C3",
"z	c #CCCCCC",
"A	c #C6C6C6",
"B	c #DBDBDB",
"                                ",
"                                ",
"                                ",
"     ....................       ",
"     .++++++++++++++++++.       ",
"     .+++++@####++@#$%&+.       ",
"     .+*=-;;->,'-)!~!{%+.       ",
"     .+$@]##^/(_:(/><*++.       ",
"     .+#,[}{|1*#[23456/+.       ",
"     .+#7'~('89+0abbc(++.       ",
"     .+$b^@@+d)/ef]!{g#+.       ",
"     .+*.............}#+.       ",
"     .++.hhhhhhhhhhh.+++.       ",
"     .+a.hhhhhhhhhhh.~i+.       ",
"     .+}.hhhhhhhhhhh.4j+.       ",
"     .++.hhhhhhhhhhh.kb+.       ",
"     .${.hhhhhhhhhhh.}l+.       ",
"     .$[.hhhhhhhhhhh.%m+.       ",
"     .+:.hhhhhhhhhhh.ii+.       ",
"     .+/.hhhhhhhhhhh.n)+.       ",
"     .++.hhhhhhhhhhh.a#+.       ",
"     .+o.hhhhhhhhhhh.;p+.       ",
"     .+f.hhhhhhhhhhh.@@+.       ",
"     .+#.............|[+.       ",
"     .+#/q'(#++@$]r>rs++.       ",
"     .+t1uvps1wx}y6vu-d+.       ",
"     .+rqzApsB]b(c=cm#++.       ",
"     .++++++++++++++++++.       ",
"     ....................       ",
"                                ",
"                                ",
"                                "};
