/* XPM */
static const char* xpm_visioncones[]={
"16 16 4 1",
"a c #838079",
". c None",
"b c #ff0000",
"# c #ffffff",
"................",
".....######.....",
"...##.aaaaa##...",
"..#.aa......a#..",
".#.a..........#.",
"#.a............#",
".#............#.",
"..#..........#.a",
"...#........#.a.",
"....#......#.a..",
".....#....#.a...",
"......#..#.a....",
".......##.a.....",
"......bbbb......",
"......b##b......",
"......bbbb......"};
