/* XPM */
static const char* xpm_weather[]={
"16 16 3 1",
"# c #000000",
". c None",
"a c #dfdfdf",
"................",
"........####....",
"......##aaaa##..",
"......#aaaaaa#..",
"..####aaaaaaa#..",
"..#aaaaaaaaaa#..",
".#aaaaaaaaaaaa#.",
".#aaaaaaaaaaaa#.",
".#aaaaaaaaaaaa#.",
".#aaaaaaaaaaaa#.",
"..############..",
"................",
"...#...#...#....",
"................",
"..#...#...#.....",
"................"};
