/* XPM */
static const char * xpm_application[] = {
"32 32 548 2",
"  	c None",
". 	c #6F916D",
"+ 	c #7EA17D",
"@ 	c #86A885",
"# 	c #91B290",
"$ 	c #9BBB9A",
"% 	c #9AB699",
"& 	c #9DB79C",
"* 	c #9AB39A",
"= 	c #A1B8A0",
"- 	c #475F3E",
"; 	c #688A61",
"> 	c #7CA378",
", 	c #89AF86",
"' 	c #91B791",
") 	c #98BB97",
"! 	c #9FC09E",
"~ 	c #A5C4A5",
"{ 	c #ABC8AB",
"] 	c #B1CCB0",
"^ 	c #B5CFB5",
"/ 	c #BBD2BA",
"( 	c #BCD2BC",
"_ 	c #ACBEAB",
": 	c #26331A",
"< 	c #334427",
"[ 	c #435A39",
"} 	c #5A7751",
"| 	c #73976D",
"1 	c #81A67E",
"2 	c #8EB28C",
"3 	c #97BA96",
"4 	c #9EBE9D",
"5 	c #A5C3A4",
"6 	c #ABC7AA",
"7 	c #B6CFB6",
"8 	c #BFD5BE",
"9 	c #C2D7C2",
"0 	c #C6DAC6",
"a 	c #B4C5B3",
"b 	c #181F0E",
"c 	c #1E2811",
"d 	c #222F16",
"e 	c #2B391F",
"f 	c #394C2D",
"g 	c #4D6542",
"h 	c #64845C",
"i 	c #769770",
"j 	c #84A580",
"k 	c #90B18E",
"l 	c #99BA98",
"m 	c #A1BEA0",
"n 	c #A7C2A6",
"o 	c #ADC7AC",
"p 	c #B2CAB2",
"q 	c #B7CDB7",
"r 	c #BCD1BC",
"s 	c #C1D6C1",
"t 	c #C6D9C5",
"u 	c #C8DBC8",
"v 	c #C6D7C5",
"w 	c #141A09",
"x 	c #19210C",
"y 	c #1B240F",
"z 	c #1E2812",
"A 	c #243018",
"B 	c #2E3D22",
"C 	c #3F5333",
"D 	c #56704B",
"E 	c #6C8B64",
"F 	c #7C9C77",
"G 	c #8AAA87",
"H 	c #97B695",
"I 	c #A0BE9F",
"J 	c #B6CCB6",
"K 	c #BBCFBA",
"L 	c #BED2BE",
"M 	c #C1D4C1",
"N 	c #C6D8C5",
"O 	c #CBDCCA",
"P 	c #CBDBCA",
"Q 	c #181F0B",
"R 	c #19200C",
"S 	c #1B230E",
"T 	c #1F2813",
"U 	c #344427",
"V 	c #485E3C",
"W 	c #607C55",
"X 	c #72906B",
"Y 	c #82A17D",
"Z 	c #90AE8D",
"` 	c #9CBA9B",
" .	c #A5C2A4",
"..	c #ACC6AB",
"+.	c #B1C9B0",
"@.	c #B6CCB5",
"#.	c #BACFB9",
"$.	c #BED1BD",
"%.	c #C0D3C0",
"&.	c #C3D4C2",
"*.	c #CADBC9",
"=.	c #1C240E",
"-.	c #212B14",
";.	c #2B381E",
">.	c #3B4C2D",
",.	c #516945",
"'.	c #67825C",
").	c #789471",
"!.	c #89A584",
"~.	c #96B293",
"{.	c #A1BC9F",
"].	c #AAC5A9",
"^.	c #AFC9AF",
"/.	c #B4CCB4",
"(.	c #B8CEB8",
"_.	c #BCD0BC",
":.	c #C1D3C1",
"<.	c #C3D5C3",
"[.	c #C5D6C5",
"}.	c #BCCCBB",
"|.	c #151B0A",
"1.	c #181F0C",
"2.	c #19200D",
"3.	c #1C250F",
"4.	c #242E16",
"5.	c #303E22",
"6.	c #435634",
"7.	c #5A724D",
"8.	c #6D8763",
"9.	c #7E9877",
"0.	c #8DA888",
"a.	c #99B496",
"b.	c #A4BEA2",
"c.	c #ACC6AC",
"d.	c #B1CAB1",
"e.	c #B5CCB5",
"f.	c #B9CFB8",
"g.	c #BBD1BB",
"h.	c #BED2BD",
"i.	c #C0D4C0",
"j.	c #C2D5C2",
"k.	c #C4D6C3",
"l.	c #CADDCA",
"m.	c #171E0A",
"n.	c #1E2711",
"o.	c #273218",
"p.	c #364527",
"q.	c #4C603C",
"r.	c #607753",
"s.	c #728B68",
"t.	c #829B7A",
"u.	c #90A98A",
"v.	c #9CB698",
"w.	c #A5BFA3",
"x.	c #ADC6AC",
"y.	c #B2CAB1",
"z.	c #BAD0BA",
"A.	c #BDD2BC",
"B.	c #BFD3BE",
"C.	c #C2D6C2",
"D.	c #B3C4B2",
"E.	c #191F0C",
"F.	c #1B210E",
"G.	c #202912",
"H.	c #2B371C",
"I.	c #3D4D2C",
"J.	c #526742",
"K.	c #657C58",
"L.	c #758E6C",
"M.	c #849E7D",
"N.	c #91AB8C",
"O.	c #9CB598",
"P.	c #A4BFA3",
"Q.	c #ABC5AA",
"R.	c #B0C9AF",
"S.	c #B3CAB2",
"T.	c #B9CEB8",
"U.	c #BBD0BA",
"V.	c #BDD1BC",
"W.	c #C1D5C0",
"X.	c #161C0A",
"Y.	c #1A210D",
"Z.	c #1C240F",
"`.	c #242C15",
" +	c #303C1F",
".+	c #425330",
"++	c #566B46",
"@+	c #687E5A",
"#+	c #778F6D",
"$+	c #869F7E",
"%+	c #91AC8D",
"&+	c #9AB497",
"*+	c #A4BFA2",
"=+	c #A4BDA3",
"-+	c #97AC96",
";+	c #8EA28E",
">+	c #8DA38C",
",+	c #8AA088",
"'+	c #879F86",
")+	c #88A087",
"!+	c #99B098",
"~+	c #8E9B8D",
"{+	c #1A200D",
"]+	c #1B210D",
"^+	c #1E250E",
"/+	c #262F16",
"(+	c #344121",
"_+	c #465834",
":+	c #586C47",
"<+	c #687E5B",
"[+	c #72886C",
"}+	c #6D8469",
"|+	c #637C60",
"1+	c #5D775A",
"2+	c #5B7658",
"3+	c #4E664C",
"4+	c #3E513D",
"5+	c #394738",
"6+	c #354033",
"7+	c #30382F",
"8+	c #364235",
"9+	c #3B4539",
"0+	c #161D0A",
"a+	c #1B220D",
"b+	c #202710",
"c+	c #293318",
"d+	c #384625",
"e+	c #425230",
"f+	c #485A3D",
"g+	c #4A6045",
"h+	c #4D6649",
"i+	c #384B36",
"j+	c #283227",
"k+	c #303430",
"l+	c #383838",
"m+	c #434343",
"n+	c #4A4A4A",
"o+	c #4B4B4B",
"p+	c #4C4C4C",
"q+	c #171D0B",
"r+	c #1A210C",
"s+	c #1D240E",
"t+	c #1F2611",
"u+	c #303E26",
"v+	c #3E5138",
"w+	c #31402D",
"x+	c #1C251A",
"y+	c #555555",
"z+	c #171E0B",
"A+	c #1A210E",
"B+	c #181E0D",
"C+	c #27311E",
"D+	c #313F2A",
"E+	c #222C1D",
"F+	c #11160F",
"G+	c #606060",
"H+	c #161C0B",
"I+	c #1A200E",
"J+	c #191F0F",
"K+	c #202916",
"L+	c #26301C",
"M+	c #28321F",
"N+	c #161C11",
"O+	c #0A0D08",
"P+	c #66676A",
"Q+	c #68696A",
"R+	c #66666A",
"S+	c #65666A",
"T+	c #64656A",
"U+	c #151B0B",
"V+	c #171C0D",
"W+	c #1D2212",
"X+	c #2A301E",
"Y+	c #2F3623",
"Z+	c #333B26",
"`+	c #333C26",
" @	c #303923",
".@	c #28311D",
"+@	c #191F13",
"@@	c #0D1009",
"#@	c #7B7F93",
"$@	c #828598",
"%@	c #84889B",
"&@	c #888B9E",
"*@	c #8A8EA1",
"=@	c #8D92A4",
"-@	c #9095A7",
";@	c #7A7E8D",
">@	c #949BAD",
",@	c #969DB0",
"'@	c #979FB2",
")@	c #97A0B4",
"!@	c #97A1B6",
"~@	c #96A1B8",
"{@	c #94A1B9",
"]@	c #090B05",
"^@	c #0E100A",
"/@	c #1C2214",
"(@	c #222817",
"_@	c #222819",
":@	c #2A2E23",
"<@	c #373A34",
"[@	c #4C4D4B",
"}@	c #666565",
"|@	c #7D8195",
"1@	c #878B9E",
"2@	c #8A8EA0",
"3@	c #8D91A4",
"4@	c #9DA1B1",
"5@	c #9DA2B1",
"6@	c #8E919E",
"7@	c #A0A6B5",
"8@	c #A5ACBB",
"9@	c #969FB4",
"0@	c #95A0B5",
"a@	c #94A0B7",
"b@	c #92A0B8",
"c@	c #8F9FB8",
"d@	c #777777",
"e@	c #787877",
"f@	c #7D7D7D",
"g@	c #898989",
"h@	c #8C8C8C",
"i@	c #8B8B8B",
"j@	c #7F8397",
"k@	c #878B9D",
"l@	c #898EA0",
"m@	c #8C91A3",
"n@	c #8F94A6",
"o@	c #8E94A4",
"p@	c #545C74",
"q@	c #404659",
"r@	c #56617B",
"s@	c #69738C",
"t@	c #A2ACBF",
"u@	c #929FB6",
"v@	c #909EB7",
"w@	c #8D9DB7",
"x@	c #8A9CB7",
"y@	c #969696",
"z@	c #818599",
"A@	c #898DA0",
"B@	c #8B90A3",
"C@	c #8E93A6",
"D@	c #9BA1B2",
"E@	c #6D7489",
"F@	c #555D77",
"G@	c #41475B",
"H@	c #55617D",
"I@	c #54627F",
"J@	c #9CA6BA",
"K@	c #8F9DB6",
"L@	c #8C9CB6",
"M@	c #889AB6",
"N@	c #8498B6",
"O@	c #A0A0A0",
"P@	c #A1A1A1",
"Q@	c #82879A",
"R@	c #8B90A2",
"S@	c #8D92A6",
"T@	c #8F95A8",
"U@	c #A0A5B5",
"V@	c #535C76",
"W@	c #545E79",
"X@	c #535A6E",
"Y@	c #52607E",
"Z@	c #50607F",
"`@	c #828EA6",
" #	c #8A9BB6",
".#	c #8699B5",
"+#	c #8296B5",
"@#	c #7D93B4",
"##	c #ABABAB",
"$#	c #83889C",
"%#	c #8C92A5",
"&#	c #8E95A8",
"*#	c #8F97AB",
"=#	c #888FA2",
"-#	c #525D78",
";#	c #525E7A",
">#	c #9EA3B2",
",#	c #556483",
"'#	c #4C5E7F",
")#	c #526486",
"!#	c #9BAAC1",
"~#	c #8094B4",
"{#	c #7B92B3",
"]#	c #768EB2",
"^#	c #B5B5B5",
"/#	c #B6B6B6",
"(#	c #848A9E",
"_#	c #8D94A7",
":#	c #8F96AA",
"<#	c #A1A8B9",
"[#	c #5F6A83",
"}#	c #505D7A",
"|#	c #515F7D",
"1#	c #959AAA",
"2#	c #7A87A1",
"3#	c #475A7F",
"4#	c #43587E",
"5#	c #8898B3",
"6#	c #7990B2",
"7#	c #748DB0",
"8#	c #6E89AF",
"9#	c #C0C0C0",
"0#	c #747A90",
"a#	c #787F95",
"b#	c #777F96",
"c#	c #848999",
"d#	c #323A4F",
"e#	c #414A62",
"f#	c #697184",
"g#	c #84899B",
"h#	c #828A9E",
"i#	c #34405D",
"j#	c #303D5B",
"k#	c #5E6981",
"l#	c #6A7895",
"m#	c #607090",
"n#	c #5A6B8D",
"o#	c #C9C9C9",
"p#	c #838BA1",
"q#	c #8D96AB",
"r#	c #8F99AE",
"s#	c #7D879D",
"t#	c #4C5A79",
"u#	c #4A5A7B",
"v#	c #5A6A89",
"w#	c #697187",
"x#	c #677897",
"y#	c #3A517A",
"z#	c #364E79",
"A#	c #344D79",
"B#	c #879CBB",
"C#	c #6482AB",
"D#	c #5D7DA9",
"E#	c #53668A",
"F#	c #D2D2D2",
"G#	c #D3D3D3",
"H#	c #D4D4D4",
"I#	c #8890A5",
"J#	c #8C96AC",
"K#	c #A1AABC",
"L#	c #505E7C",
"M#	c #485879",
"N#	c #45577A",
"O#	c #41567B",
"P#	c #33405D",
"Q#	c #395079",
"R#	c #344D78",
"S#	c #2F4976",
"T#	c #2A4474",
"U#	c #6E83A6",
"V#	c #5C7BA8",
"W#	c #5577A5",
"X#	c #4F6388",
"Y#	c #DADADA",
"Z#	c #DBDBDB",
"`#	c #8A93A8",
" $	c #8A96AD",
".$	c #465778",
"+$	c #435679",
"@$	c #405479",
"#$	c #3C5179",
"$$	c #2F3C5B",
"%$	c #334B76",
"&$	c #2E4774",
"*$	c #294272",
"=$	c #243E70",
"-$	c #465C87",
";$	c #6281AC",
">$	c #4D71A1",
",$	c #4B6086",
"'$	c #E3E3E3",
")$	c #8892A8",
"!$	c #8D9AB2",
"~$	c #6B7994",
"{$	c #425478",
"]$	c #3E5278",
"^$	c #7989A5",
"/$	c #97A8C2",
"($	c #8D98AF",
"_$	c #8EA3C0",
":$	c #879AB6",
"<$	c #233D6E",
"[$	c #1E396C",
"}$	c #1A3569",
"|$	c #6F88AE",
"1$	c #466B9E",
"2$	c #485D84",
"3$	c #EAEAEA",
"4$	c #8590A8",
"5$	c #9EAABE",
"6$	c #717F9A",
"7$	c #6E7C99",
"8$	c #6B7B99",
"9$	c #8B9CB7",
"0$	c #6E87AC",
"a$	c #627292",
"b$	c #6280A9",
"c$	c #7B94B7",
"d$	c #576B91",
"e$	c #53678E",
"f$	c #50648B",
"g$	c #7387A9",
"h$	c #40669A",
"i$	c #455B83",
"j$	c #F1F1F1",
"k$	c #818EA7",
"l$	c #7E90AD",
"m$	c #7A8EAD",
"n$	c #768CAD",
"o$	c #7189AC",
"p$	c #6C86AB",
"q$	c #6682A9",
"r$	c #5D6E8F",
"s$	c #5A7AA6",
"t$	c #5476A4",
"u$	c #4E72A2",
"v$	c #496D9F",
"w$	c #43699C",
"x$	c #3E659A",
"y$	c #3A6297",
"z$	c #425982",
"A$	c #F7F7F7",
"B$	c #7C8AA6",
"C$	c #798DAC",
"D$	c #748AAC",
"E$	c #7087AB",
"F$	c #6A84AA",
"G$	c #6481A9",
"H$	c #5F7DA7",
"I$	c #56688B",
"J$	c #5374A3",
"K$	c #4D70A1",
"L$	c #476C9E",
"M$	c #42689B",
"N$	c #3D6499",
"O$	c #396197",
"P$	c #365E95",
"Q$	c #425881",
"R$	c #FCFCFC",
"S$	c #E0E1E5",
"T$	c #DADBE0",
"U$	c #D6D7DD",
"V$	c #D0D1D8",
"W$	c #C2C4CD",
"                      . + @ # $ % & * =                         ",
"                  - ; > , ' ) ! ~ { ] ^ / ( _                   ",
"              : < [ } | 1 2 3 4 5 6 ] 7 / 8 9 0 a               ",
"          b c d e f g h i j k l m n o p q r s t u v             ",
"        w x y z A B C D E F G H I n o p J K L M N O P           ",
"        Q Q R S T : U V W X Y Z `  ...+.@.#.$.%.&.v O *.        ",
"      Q Q Q Q R =.-.;.>.,.'.).!.~.{.].^./.(._.L :.<.[.*.}.      ",
"    |.Q Q 1.1.1.2.3.4.5.6.7.8.9.0.a.b.c.d.e.f.g.h.i.j.k.l.      ",
"    m.Q 1.1.1.1.1.2.n.o.p.q.r.s.t.u.v.w.x.y.e.(.z.A.B.i.C.D.    ",
"    Q E.E.E.E.E.E.E.F.G.H.I.J.K.L.M.N.O.P.Q.R.S.@.T.U.V.L W.    ",
"  X.Q R R R R R R R Y.Z.`. +.+++@+#+$+%+&+*+=+-+;+>+,+'+)+!+~+  ",
"  |.E.2.2.2.2.2.2.2.{+]+^+/+(+_+:+<+#+[+}+|+1+2+3+4+5+6+7+8+9+  ",
"  0+2.2.2.2.2.2.2.2.2.R a+b+c+d+e+f+g+h+i+j+k+l+m+n+o+p+o+o+    ",
"  q+Y.Y.Y.Y.Y.Y.Y.Y.Y.Q r+s+t+u+v+w+x+      y+y+y+y+y+y+y+y+y+  ",
"  z+A+A+A+A+A+A+A+A+2.Q B+C+D+E+F+          G+G+G+G+G+G+G+G+G+  ",
"  H+A+A+A+A+A+A+I+J+K+L+M+N+O+              P+Q+P+P+P+R+S+S+T+  ",
"  U+V+W+X+Y+Z+`+ @.@+@@@        #@$@%@&@*@=@-@;@>@,@'@)@!@~@{@  ",
"  ]@^@/@(@_@:@<@[@}@            |@%@1@2@3@4@5@6@7@8@9@0@a@b@c@  ",
"    d@e@f@g@h@h@i@i@            j@k@l@m@n@o@p@q@r@s@t@u@v@w@x@  ",
"    y@y@y@y@y@y@y@y@y@          z@A@B@C@D@E@F@G@H@I@J@K@L@M@N@  ",
"    O@O@O@O@O@O@O@O@P@          Q@R@S@T@U@V@W@X@Y@Z@`@ #.#+#@#  ",
"    ##################          $#%#&#*#=#-#;#>#,#'#)#!#~#{#]#  ",
"    ^#/#/#/#/#/#/#/#/#          (#_#:#<#[#}#|#1#2#3#4#5#6#7#8#  ",
"      9#9#9#9#9#9#9#9#9#        0#a#b#c#d#e#f#g#h#i#j#k#l#m#n#  ",
"      o#o#o#o#o#o#o#o#o#o#      p#q#r#s#t#u#v#w#x#y#z#A#B#C#D#E#",
"        F#F#F#F#F#F#F#F#F#F#G#H#I#J#K#L#M#N#O#P#Q#R#S#T#U#V#W#X#",
"        Y#Z#Z#Z#Z#Z#Z#Z#Z#Z#Z#Z#`# $J#.$+$@$#$$$%$&$*$=$-$;$>$,$",
"          '$'$'$'$'$'$'$'$'$'$'$)$!$~${$]$^$/$($_$:$<$[$}$|$1$2$",
"            3$3$3$3$3$3$3$3$3$3$4$5$6$7$8$9$0$a$b$c$d$e$f$g$h$i$",
"              j$j$j$j$j$j$j$j$j$k$l$m$n$o$p$q$r$s$t$u$v$w$x$y$z$",
"                  A$A$A$A$A$A$A$B$C$D$E$F$G$H$I$J$K$L$M$N$O$P$Q$",
"                        R$R$R$R$S$T$U$V$W$                      "};
