/* XPM */
const char* checked_box_xpm[]={
"12 12 4 1",
"b c #000000",
"a c #808080",
"c c #dfdfdf",
"  c #ffffff",
"aaaaaaaaaaaa",
"abbbbbbbbbbc",
"ab         c",
"ab       b c",
"ab      bb c",
"ab b   bbb c",
"ab bb bbb  c",
"ab bbbbb   c",
"ab  bbb    c",
"ab   b     c",
"ab         c",
"accccccccccc"
};
