<?xml version="1.0" encoding="utf-8"?>
<!-- Generator: Adobe Illustrator 13.0.0, SVG Export Plug-In . SVG Version: 6.00 Build 14948)  -->
<!DOCTYPE svg PUBLIC "-//W3C//DTD SVG 1.1//EN" "http://www.w3.org/Graphics/SVG/1.1/DTD/svg11.dtd">
<svg version="1.1" xmlns="http://www.w3.org/2000/svg" xmlns:xlink="http://www.w3.org/1999/xlink" x="0px" y="0px"
	 width="703.74px" height="687.214px" viewBox="0 0 703.74 687.214" enable-background="new 0 0 703.74 687.214"
	 xml:space="preserve">
<symbol  id="BU_1" viewBox="-54 -49 108 98">
	<polygon fill="#F27F7C" points="54,25 -14,-47 -54,-49 -39,49 45,43 	"/>
</symbol>
<symbol  id="BU_2" viewBox="-43.5 -37 87 74">
	<polygon fill="#F27F7C" points="43.5,-37 -41.5,-31 -34.5,12 -43.5,36 18.5,37 	"/>
</symbol>
<symbol  id="BU_3" viewBox="-73 -66.699 146 133.398">
	<polygon fill="#F27F7C" points="57,-47.301 41,-59.301 10.601,-66.699 -69,-51.301 -73,-37.545 -57,-0.301 2,33.699 73,66.699 	"/>
</symbol>
<symbol  id="Carrefour" viewBox="-14 -15 28 30">
	<path fill="#CC1111" stroke="#CC1111" stroke-width="2" d="M4.5,0c0-2.485-2.015-4.5-4.5-4.5S-4.5-2.485-4.5,0S-2.485,4.5,0,4.5
		S4.5,2.485,4.5,0z"/>
	<line fill="none" stroke="#CC1111" stroke-width="2" x1="-14" y1="2" x2="-2" y2="2"/>
	<line fill="none" stroke="#CC1111" stroke-width="2" x1="-2" y1="3" x2="-2" y2="15"/>
	<line fill="none" stroke="#CC1111" stroke-width="2" x1="2" y1="15" x2="2" y2="3"/>
	<line fill="none" stroke="#CC1111" stroke-width="2" x1="2" y1="2" x2="14" y2="2"/>
	<line fill="none" stroke="#CC1111" stroke-width="2" x1="14" y1="-2" x2="2" y2="-2"/>
	<line fill="none" stroke="#CC1111" stroke-width="2" x1="2" y1="-3" x2="2" y2="-15"/>
	<line fill="none" stroke="#CC1111" stroke-width="2" x1="-2" y1="-15" x2="-2" y2="-3"/>
	<line fill="none" stroke="#CC1111" stroke-width="2" x1="-2" y1="-2" x2="-14" y2="-2"/>
</symbol>
<symbol  id="Deleted_Symbol" viewBox="-50.478 -231.709 100.956 463.418">
	<line stroke="#000000" stroke-width="2" x1="-49.5" y1="-231.5" x2="49.5" y2="231.5"/>
</symbol>
<symbol  id="Direction_Dangereuse" viewBox="-51.5 -71.862 103 143.726">
	<g>
		<polygon fill="#FFFFFF" stroke="#000000" points="51,-71.362 -51,-71.362 -51,-29.362 51,-29.362 		"/>
		<text transform="matrix(1 0 0 -1 -36.8467 -45.1523)" enable-background="new    "><tspan x="0" y="0" font-family="'MyriadPro-Bold'" font-size="17">Direction </tspan><tspan x="-7.999" y="20.4" font-family="'MyriadPro-Bold'" font-size="17">dangereuse</tspan></text>
	</g>
	<g>
		<g>
			<line fill="none" stroke="#000000" stroke-width="6" x1="0" y1="-24.355" x2="0" y2="64.645"/>
			<polygon points="10.172,53.055 0,63.232 -10.178,53.055 -10.178,61.688 0,71.863 10.172,61.688 			"/>
		</g>
	</g>
</symbol>
<symbol  id="LDM" viewBox="-225.25 -21.5 450.5 43">
	<line fill="none" stroke="#000000" stroke-width="2" x1="-99.75" y1="-2" x2="225.25" y2="-2"/>
	
		<use xlink:href="#Label_LDM"  width="125" height="43" x="-62.5" y="-21.5" transform="matrix(1 0 0 1 -162.75 0)" overflow="visible"/>
</symbol>
<symbol  id="LFM" viewBox="-151.258 -21.5 302.515 43">
	<line fill="none" stroke="#000000" stroke-width="2" x1="-45.758" y1="-2" x2="151.242" y2="1"/>
	
		<use xlink:href="#Label_LFM"  width="105" height="43" x="-52.5" y="-21.5" transform="matrix(1 0 0 1 -98.7578 0)" overflow="visible"/>
</symbol>
<symbol  id="Label_Bloc_Urbain" viewBox="-31.5 -20.5 63 41">
	<polygon fill="#FFFFFF" stroke="#CC1111" points="31,-20 -31,-20 -31,20 31,20 	"/>
	<text transform="matrix(1 0 0 -1 -16.209 5.2109)" enable-background="new    "><tspan x="0" y="0" fill="#CC1111" font-family="'MyriadPro-Bold'" font-size="17">Bloc</tspan><tspan x="-9.699" y="20.4" fill="#CC1111" font-family="'MyriadPro-Bold'" font-size="17">Urbain</tspan></text>
</symbol>
<symbol  id="Label_Itinéraire_1" viewBox="-57.117 -12.021 114.234 24.041">
	<polygon fill="#FFFFFF" stroke="#CC1111" points="56.617,-11.521 -56.617,-11.521 -56.617,11.521 56.617,11.521 	"/>
	<text transform="matrix(1 0 0 -1 -34.6045 -4.9902)" fill="#CC1111" font-family="'MyriadPro-Bold'" font-size="17">Itinéraire</text>
</symbol>
<symbol  id="Label_LC" viewBox="-56.5 -21.5 113 43">
	<polygon fill="#FFFFFF" stroke="#000000" points="56,-21 -56,-21 -56,21 56,21 	"/>
	<text transform="matrix(1 0 0 -1 -32.3848 5.2109)" enable-background="new    "><tspan x="0" y="0" font-family="'MyriadPro-Bold'" font-size="17">Ligne de</tspan><tspan x="-17.909" y="20.4" font-family="'MyriadPro-Bold'" font-size="17">Coordination</tspan></text>
</symbol>
<symbol  id="Label_LCA" viewBox="-56.5 -31.5 113 63">
	<polygon fill="#FFFFFF" stroke="#000000" points="56,-31 -56,-31 -56,31 56,31 	"/>
	<text transform="matrix(1 0 0 -1 -32.3848 15.4102)" enable-background="new    "><tspan x="0" y="0" font-family="'MyriadPro-Bold'" font-size="17">Ligne de</tspan><tspan x="-16.481" y="20.4" font-family="'MyriadPro-Bold'" font-size="17">Changement</tspan><tspan x="-6.664" y="40.8" font-family="'MyriadPro-Bold'" font-size="17">d’Attitude</tspan></text>
</symbol>
<symbol  id="Label_LD_2" viewBox="-56.5 -21.5 113 43">
	<polygon fill="#FFFFFF" stroke="#000000" points="56,-21 -56,-21 -56,21 56,21 	"/>
	<text transform="matrix(1 0 0 -1 -23.9185 5.2109)" enable-background="new    "><tspan x="0" y="0" font-family="'MyriadPro-Bold'" font-size="17">Limite</tspan><tspan x="0.782" y="20.4" font-family="'MyriadPro-Bold'" font-size="17">droite</tspan></text>
</symbol>
<symbol  id="Label_LDM" viewBox="-62.5 -21.5 125 43">
	<polygon fill="#FFFFFF" stroke="#000000" points="62,-21 -62,-21 -62,21 62,21 	"/>
	<text transform="matrix(1 0 0 -1 -57.6631 5.4102)" enable-background="new    "><tspan x="0" y="0" font-family="'MyriadPro-Bold'" font-size="17">Ligne de Début</tspan><tspan x="17.28" y="20.4" font-family="'MyriadPro-Bold'" font-size="17">de Mission</tspan></text>
</symbol>
<symbol  id="Label_LFM" viewBox="-52.5 -21.5 105 43">
	<polygon fill="#FFFFFF" stroke="#000000" points="52,-21 -52,-21 -52,21 52,21 	"/>
	<text transform="matrix(1 0 0 -1 -45.8906 5.4102)" enable-background="new    "><tspan x="0" y="0" font-family="'MyriadPro-Bold'" font-size="17">Ligne de Fin</tspan><tspan x="5.508" y="20.4" font-family="'MyriadPro-Bold'" font-size="17">de Mission</tspan></text>
</symbol>
<symbol  id="Label_LG_1" viewBox="-56.5 -21.5 113 43">
	<polygon fill="#FFFFFF" stroke="#000000" points="56,-21 -56,-21 -56,21 56,21 	"/>
	<text transform="matrix(1 0 0 -1 -23.9185 5.2109)" enable-background="new    "><tspan x="0" y="0" font-family="'MyriadPro-Bold'" font-size="17">Limite</tspan><tspan x="-3.8" y="20.4" font-family="'MyriadPro-Bold'" font-size="17">gauche</tspan></text>
</symbol>
<symbol  id="Label_Objets_1" viewBox="-27.617 -12.021 55.234 24.041">
	<polygon fill="#FFFFFF" stroke="#CC1111" points="27.117,-11.521 -27.117,-11.521 -27.117,11.521 27.117,11.521 	"/>
	<text transform="matrix(1 0 0 -1 -24.9473 -4.9902)" fill="#CC1111" font-family="'MyriadPro-Bold'" font-size="17">Objets</text>
</symbol>
<symbol  id="Label_Point" viewBox="-27.617 -12.021 55.234 24.041">
	<polygon fill="#FFFFFF" stroke="#CC1111" points="27.117,-11.521 -27.117,-11.521 -27.117,11.521 27.117,11.521 	"/>
	<text transform="matrix(1 0 0 -1 -20.272 -4.9902)" fill="#CC1111" font-family="'MyriadPro-Bold'" font-size="17">Point</text>
</symbol>
<symbol  id="Label_Point_d_x27_exfiltration_1" viewBox="-56.5 -21.5 113 43">
	<polygon fill="#FFFFFF" stroke="#000000" points="56,-21 -56,-21 -56,21 56,21 	"/>
	<text transform="matrix(1 0 0 -1 -21.9893 5.2109)" enable-background="new    "><tspan x="0" y="0" font-family="'MyriadPro-Bold'" font-size="17">Point </tspan><tspan x="-27.692" y="20.4" font-family="'MyriadPro-Bold'" font-size="17">d’exfiltration</tspan></text>
</symbol>
<symbol  id="Label_Point_d_x27_infiltration_1" viewBox="-56.5 -21.5 113 43">
	<polygon fill="#FFFFFF" stroke="#000000" points="56,-21 -56,-21 -56,21 56,21 	"/>
	<text transform="matrix(1 0 0 -1 -21.9893 5.2109)" enable-background="new    "><tspan x="0" y="0" font-family="'MyriadPro-Bold'" font-size="17">Point </tspan><tspan x="-26.103" y="20.4" font-family="'MyriadPro-Bold'" font-size="17">d’infiltration</tspan></text>
</symbol>
<symbol  id="Label_Point_de_regroupement_1" viewBox="-77.5 -21.5 155 43">
	<polygon fill="#FFFFFF" stroke="#000000" points="77,-21 -77,-21 -77,21 77,21 	"/>
	<text transform="matrix(1 0 0 -1 -21.9893 5.2109)" enable-background="new    "><tspan x="0" y="0" font-family="'MyriadPro-Bold'" font-size="17">Point </tspan><tspan x="-44.531" y="20.4" font-family="'MyriadPro-Bold'" font-size="17">de regroupement</tspan></text>
</symbol>
<symbol  id="Label_Zone" viewBox="-27.617 -12.021 55.234 24.041">
	<polygon fill="#FFFFFF" stroke="#CC1111" points="27.117,-11.521 -27.117,-11.521 -27.117,11.521 27.117,11.521 	"/>
	<text transform="matrix(1 0 0 -1 -19.2778 -4.9902)" fill="#CC1111" font-family="'MyriadPro-Bold'" font-size="17">Zone</text>
</symbol>
<symbol  id="Limites_DG_1" viewBox="-161.078 -232.511 322.155 465.021">
	<polyline fill="none" stroke="#000000" stroke-width="2" points="65.066,232.198 160.066,-56.802 148.066,-231.802 	"/>
	
		<use xlink:href="#Deleted_Symbol"  width="100.956" height="463.418" x="-50.478" y="-231.709" transform="matrix(1 0 0 1 -110.6001 -0.8018)" overflow="visible"/>
</symbol>
<symbol  id="Limites_DG_2" viewBox="-240.167 -230.536 480.334 461.072">
	<polyline fill="none" stroke="#000000" stroke-width="2" points="239.17,-230.464 227.171,-63.797 143.837,224.869 
		-206.163,229.536 	"/>
	<polyline fill="none" stroke="#000000" stroke-width="2" points="-239.481,101.524 -138.815,6.857 -34.814,-25.809 
		-80.148,-216.476 	"/>
</symbol>
<symbol  id="Objets_1" viewBox="-12.473 -12.972 24.946 25.944">
	<path fill="#CC1111" stroke="#CC1111" stroke-width="2" d="M3.274-3.087C1.569-4.896-1.278-4.979-3.087-3.274
		s-1.893,4.553-0.188,6.361s4.553,1.893,6.361,0.188S4.979-1.278,3.274-3.087z"/>
	<line stroke="#CC1111" stroke-width="2" x1="-8.815" y1="11.059" x2="-0.083" y2="2.827"/>
	<line stroke="#CC1111" stroke-width="2" x1="0.603" y1="3.555" x2="8.833" y2="12.286"/>
	<line stroke="#CC1111" stroke-width="2" x1="11.745" y1="9.543" x2="3.513" y2="0.811"/>
	<line stroke="#CC1111" stroke-width="2" x1="2.827" y1="0.083" x2="11.559" y2="-8.148"/>
	<line stroke="#CC1111" stroke-width="2" x1="8.814" y1="-11.059" x2="0.083" y2="-2.827"/>
	<line stroke="#CC1111" stroke-width="2" x1="-0.603" y1="-3.555" x2="-8.834" y2="-12.286"/>
	<line stroke="#CC1111" stroke-width="2" x1="-11.745" y1="-9.543" x2="-3.514" y2="-0.811"/>
	<line stroke="#CC1111" stroke-width="2" x1="-2.827" y1="-0.083" x2="-11.559" y2="8.148"/>
	<line fill="#CC1111" stroke="#CC1111" stroke-width="2" x1="-0.268" y1="-1.442" x2="-9.732" y2="-11.475"/>
	<line stroke="#CC1111" stroke-width="2" x1="9.745" y1="10.543" x2="1.513" y2="1.811"/>
	<line fill="#CC1111" stroke="#CC1111" stroke-width="2" x1="9.73" y1="-8.979" x2="1.087" y2="-0.831"/>
	<line stroke="#CC1111" stroke-width="2" x1="-1.186" y1="0.941" x2="-9.917" y2="9.173"/>
	<line fill="#CC1111" stroke="#CC1111" stroke-width="2" x1="-1.268" y1="-0.442" x2="-10.732" y2="-10.475"/>
	<line fill="#CC1111" stroke="#CC1111" stroke-width="2" x1="11.167" y1="10.039" x2="1.559" y2="-0.133"/>
	<line stroke="#CC1111" stroke-width="2" x1="9.987" y1="11.222" x2="1.801" y2="2.539"/>
	<line stroke="#CC1111" stroke-width="2" x1="10.39" y1="-9.398" x2="1.576" y2="-1.091"/>
	<line fill="#CC1111" stroke="#CC1111" stroke-width="2" x1="9.645" y1="-10.142" x2="0.966" y2="-1.96"/>
	<line fill="#CC1111" stroke="#CC1111" stroke-width="2" x1="-0.81" y1="1.508" x2="-9.803" y2="9.984"/>
	<line fill="#CC1111" stroke="#CC1111" stroke-width="2" x1="-1.81" y1="0.508" x2="-10.783" y2="8.966"/>
</symbol>
<symbol  id="Point" viewBox="-5.5 -5.5 11 11">
	<path fill="#CC1111" stroke="#CC1111" stroke-width="2" d="M4.5,0c0-2.485-2.015-4.5-4.5-4.5S-4.5-2.485-4.5,0S-2.485,4.5,0,4.5
		S4.5,2.485,4.5,0z"/>
</symbol>
<symbol  id="Point_Option" viewBox="-5.5 -5.5 11 11">
	<path stroke="#000000" stroke-width="2" d="M4.5,0c0-2.485-2.015-4.5-4.5-4.5S-4.5-2.485-4.5,0S-2.485,4.5,0,4.5S4.5,2.485,4.5,0z"
		/>
</symbol>
<symbol  id="Pont" viewBox="-14.992 -27.131 29.984 54.263">
	<polyline fill="none" stroke="#CC1111" stroke-width="2" points="-14.271,23.238 -5.26,13.887 -2.307,-13.432 -7.605,-26.762 	"/>
	<polyline fill="none" stroke="#CC1111" stroke-width="2" points="10.449,26.6 3.542,15.602 6.244,-11.74 14.158,-23.705 	"/>
</symbol>
<symbol  id="Pont_Option" viewBox="-14.992 -27.132 29.984 54.263">
	<polyline fill="none" stroke="#000000" stroke-width="2" points="-14.271,23.237 -5.26,13.886 -2.307,-13.432 -7.604,-26.763 	"/>
	<polyline fill="none" stroke="#000000" stroke-width="2" points="10.449,26.6 3.542,15.601 6.244,-11.741 14.158,-23.706 	"/>
</symbol>
<symbol  id="RENS_URP_1" viewBox="-181 -144 362 288">
	<polygon fill="#5292EF" stroke="#000000" stroke-width="2" points="-180,97 180,97 180,-143 -180,-143 	"/>
	<path fill="#5292EF" stroke="#000000" stroke-width="2" d="M0,143c11.046,0,20-8.954,20-20s-8.954-20-20-20s-20,8.954-20,20
		S-11.046,143,0,143z"/>
	<g>
		<line fill="#5292EF" stroke="#000000" stroke-width="2" x1="-68.167" y1="-14" x2="68.166" y2="-14"/>
		<line fill="none" stroke="#000000" stroke-width="2" x1="68.168" y1="-14.376" x2="32.76" y2="15.791"/>
		<line fill="none" stroke="#000000" stroke-width="2" x1="66.652" y1="-14.501" x2="31.243" y2="-44.667"/>
	</g>
	<path fill="#5292EF" stroke="#000000" stroke-width="2" d="M-78.833-60.484c7.18,0,13-5.82,13-13s-5.82-13-13-13s-13,5.82-13,13
		S-86.013-60.484-78.833-60.484z"/>
	<path fill="#5292EF" stroke="#000000" stroke-width="2" d="M1.167-60.484c7.18,0,13-5.82,13-13s-5.82-13-13-13s-13,5.82-13,13
		S-6.013-60.484,1.167-60.484z"/>
	<path display="none" fill="#5292EF" stroke="#000000" stroke-width="2" d="M94.167-80.484c0-7.18-5.82-13-13-13"/>
	<path fill="#5292EF" stroke="#000000" stroke-width="2" d="M81.167-60.484c7.18,0,13-5.82,13-13s-5.82-13-13-13s-13,5.82-13,13
		S73.987-60.484,81.167-60.484z"/>
</symbol>
<symbol  id="Riviere" viewBox="-58.99 -199.138 117.981 398.278">
	<path fill="none" stroke="#5292EF" stroke-width="2" d="M-58-198.994c32.666,224,105.333,318.666,116,398"/>
	<path fill="none" stroke="#5292EF" stroke-width="2" d="M-2.667,25.672c3.333,25.334-0.16,30.036-2,52.667
		c-0.532,6.543-0.564,24.589,0.667,38c1.588,17.312,18.878,44.725,26.666,48c14.611,6.145,32.031,8.367,33.334,24"/>
</symbol>
<symbol  id="Scake_250" viewBox="-62.519 -9.783 125.037 19.566">
	<polygon fill="#B50000" stroke="#000000" stroke-width="2" points="30.356,-2.328 -61.519,-2.328 -61.519,2.547 30.356,2.547 	"/>
	<text transform="matrix(1 0 0 -1 32.5488 -5.2832)" font-family="'MyriadPro-Bold'" font-size="18">250</text>
</symbol>
<symbol  id="ZURB" viewBox="-252.5 -215.5 505 431">
	<polygon fill="#DDDDDD" points="-39.5,22.5 -55.5,10.5 -85.899,3.101 -165.5,18.5 -169.5,32.256 -153.5,69.5 -94.5,103.5 
		-23.5,136.5 	"/>
	<polygon fill="#DDDDDD" points="-230.5,-154.5 -205.5,-54.5 -179.5,10.5 -66.5,-22.5 -78.5,-95.5 -111.5,-203.5 	"/>
	<polygon fill="#DDDDDD" points="-34.5,17.5 -24.5,-16.5 -41.5,-123.5 -71.5,-129.5 -43.5,5.5 	"/>
	<polygon fill="#DDDDDD" points="159.5,-82.5 163.5,-204.5 160.5,-215.5 88.5,-215.5 81.5,-199.5 -26.5,-118.5 -11.5,-14.5 
		-19.5,16.5 20.5,15.5 96.5,94.5 95.5,119.5 102.5,119.5 	"/>
	<polygon fill="#DDDDDD" points="223.5,43.5 172.5,-75.5 112.5,124.5 121.5,122.5 	"/>
	<polygon fill="#DDDDDD" points="251.5,57.5 231.5,55.5 138.5,128.5 252.5,161.5 	"/>
	<polygon fill="#DDDDDD" points="252,214.5 252.5,176.5 203.5,162.5 239.5,213.5 	"/>
	<polygon fill="#DDDDDD" points="222.5,213.5 179.5,157.5 133.5,140.5 110.5,140.5 86.5,214.5 	"/>
	<polygon fill="#DDDDDD" points="72.5,141.5 -12.5,147.5 -5.5,190.5 -14.5,214.5 47.5,215.5 	"/>
	<polygon fill="#DDDDDD" points="81.5,106.5 13.5,34.5 -26.5,32.5 -11.5,130.5 72.5,124.5 	"/>
	<polygon fill="#DDDDDD" points="-33.5,213.5 -22.5,190.5 -25.5,145.5 -151.5,80.5 -112.5,214.5 	"/>
	<polygon fill="#DDDDDD" points="-158.5,143.5 -180.5,111.5 -183.5,112.5 -176.5,154.5 -161.5,179.5 	"/>
	<polygon fill="#DDDDDD" points="-163.5,214.5 -187.5,157.5 -192.5,109.5 -207.5,104.5 -213.5,93.5 -252.5,104.5 -227.5,174.5 
		-247.5,213.5 	"/>
</symbol>
<symbol  id="Zone" viewBox="-90.098 -99.183 180.196 198.366">
	<polygon fill="none" stroke="#CC1111" stroke-width="3" points="88.386,6.322 -9.614,-97.678 -88.281,-97.01 -50.947,94.99 
		57.053,97.656 	"/>
</symbol>
<symbol  id="Zone_Option" viewBox="-90.098 -99.183 180.196 198.366">
	<polygon fill="none" stroke="#000000" stroke-width="3" points="88.386,6.322 -9.614,-97.678 -88.281,-97.011 -50.948,94.989 
		57.052,97.656 	"/>
</symbol>
<symbol  id="ZurbWithScale" viewBox="-255.402 -218.811 509.469 435.334">
	
		<use xlink:href="#ZURB"  width="505" height="431" x="-252.5" y="-215.5" transform="matrix(1 0 0 1 1.5664 1.0225)" overflow="visible"/>
	
		<use xlink:href="#Scake_250"  width="125.037" height="19.566" x="-62.519" y="-9.783" transform="matrix(1 0 0 1 -192.8838 -209.0283)" overflow="visible"/>
</symbol>
<g id="Zurb">
	
		<use xlink:href="#ZurbWithScale"  width="509.469" height="435.334" id="XMLID_3_" x="-255.402" y="-218.811" transform="matrix(1 0 0 -1 374.8569 235.7144)" overflow="visible"/>
	
		<use xlink:href="#Riviere"  width="117.981" height="398.278" x="-58.99" y="-199.138" transform="matrix(1 0 0 -1 193.6914 209.5532)" overflow="visible"/>
	
		<use xlink:href="#Pont_Option"  width="29.984" height="54.263" x="-14.992" y="-27.132" transform="matrix(0.53 -0.848 -0.848 -0.53 179.6294 196.1187)" overflow="visible"/>
</g>
<g id="Tactique">
	
		<use xlink:href="#Limites_DG_2"  width="480.334" height="461.072" x="-240.167" y="-230.536" transform="matrix(1 0 0 -1 334.3569 244.2144)" overflow="visible"/>
	
		<use xlink:href="#Limites_DG_1"  width="322.155" height="465.021" id="XMLID_5_" x="-161.078" y="-232.511" transform="matrix(1 0 0 -1 406.2905 238.4116)" display="none" overflow="visible"/>
	
		<use xlink:href="#BU_1"  width="108" height="98" x="-54" y="-49" transform="matrix(1 0 0 -1 404.0229 153.8809)" display="none" overflow="visible"/>
	
		<use xlink:href="#BU_2"  width="87" height="74" x="-43.5" y="-37" transform="matrix(1 0 0 -1 405.689 56.8809)" display="none" overflow="visible"/>
	
		<use xlink:href="#BU_3"  width="146" height="133.398" x="-73" y="-66.699" transform="matrix(1 0 0 -1 278.6895 165.5479)" display="none" overflow="visible"/>
	
		<use xlink:href="#Zone_Option"  width="180.196" height="198.366" id="XMLID_1_" x="-90.098" y="-99.183" transform="matrix(1 0 0 -1 405.6899 112.5479)" display="none" overflow="visible"/>
	
		<use xlink:href="#Pont"  width="29.984" height="54.263" x="-14.992" y="-27.131" transform="matrix(0.5239 -0.8518 -0.8518 -0.5239 201.0244 148.5488)" display="none" overflow="visible"/>
	
		<use xlink:href="#Zone"  width="180.196" height="198.366" x="-90.098" y="-99.183" transform="matrix(1 0 0 -1 395.3569 121.2144)" overflow="visible"/>
	
		<use xlink:href="#Direction_Dangereuse"  width="103" height="143.726" id="XMLID_4_" x="-51.5" y="-71.862" transform="matrix(1 0 0 -1 652.2397 342.3315)" overflow="visible"/>
	
		<use xlink:href="#Label_Zone"  width="55.234" height="24.041" x="-27.617" y="-12.021" transform="matrix(1 0 0 -1 405.2397 124.5933)" overflow="visible"/>
	
		<use xlink:href="#LDM"  width="450.5" height="43" x="-225.25" y="-21.5" transform="matrix(1 0 0 -1 348.1069 409.2144)" display="none" overflow="visible"/>
	
		<use xlink:href="#LFM"  width="302.515" height="43" x="-151.258" y="-21.5" transform="matrix(0.6086 -0.7935 -0.7935 -0.6086 109.1157 121.2158)" display="none" overflow="visible"/>
	<g display="none">
	</g>
	
		<use xlink:href="#Objets_1"  width="24.946" height="25.944" x="-12.473" y="-12.972" transform="matrix(1 0 0 -1 348.3569 212.2144)" display="none" overflow="visible"/>
	
		<use xlink:href="#Objets_1"  width="24.946" height="25.944" x="-12.473" y="-12.972" transform="matrix(1 0 0 -1 361.3569 92.2144)" display="none" overflow="visible"/>
	
		<use xlink:href="#Objets_1"  width="24.946" height="25.944" x="-12.473" y="-12.972" transform="matrix(1 0 0 -1 463.3569 102.2144)" display="none" overflow="visible"/>
	
		<use xlink:href="#Label_Objets_1"  width="55.234" height="24.041" x="-27.617" y="-12.021" transform="matrix(1 0 0 -1 400.3569 142.2144)" display="none" overflow="visible"/>
	
		<use xlink:href="#Label_LG_1"  width="113" height="43" x="-56.5" y="-21.5" transform="matrix(1 0 0 -1 245.3569 489.2144)" overflow="visible"/>
	
		<use xlink:href="#Label_LD_2"  width="113" height="43" x="-56.5" y="-21.5" transform="matrix(1 0 0 -1 553.3569 491.2144)" overflow="visible"/>
	
		<use xlink:href="#Label_Bloc_Urbain"  width="63" height="41" x="-31.5" y="-20.5" transform="matrix(1 0 0 -1 472.3569 172.2144)" display="none" overflow="visible"/>
	
		<use xlink:href="#Carrefour"  width="28" height="30" x="-14" y="-15" transform="matrix(1 0 0 -1 350.3569 213.2144)" display="none" overflow="visible"/>
	
		<use xlink:href="#Carrefour"  width="28" height="30" x="-14" y="-15" transform="matrix(1 0 0 -1 357.3569 95.2144)" display="none" overflow="visible"/>
	
		<use xlink:href="#Carrefour"  width="28" height="30" x="-14" y="-15" transform="matrix(1 0 0 -1 342.3569 357.2144)" display="none" overflow="visible"/>
	<g id="Itinéraire" display="none">
		<line display="inline" fill="none" stroke="#CC1111" stroke-width="4" x1="342.357" y1="357.214" x2="360.357" y2="242.214"/>
		<line display="inline" fill="none" stroke="#CC1111" stroke-width="4" x1="360.357" y1="242.214" x2="349.357" y2="214.214"/>
		<g display="inline">
			<line fill="none" stroke="#CC1111" stroke-width="4" x1="354.357" y1="95.214" x2="287.357" y2="123.214"/>
			<line fill="none" stroke="#CC1111" stroke-width="4" x1="287.357" y1="123.214" x2="223.357" y2="157.214"/>
		</g>
	</g>
	
		<use xlink:href="#Label_Itinéraire_1"  width="114.234" height="24.041" x="-57.117" y="-12.021" transform="matrix(1 0 0 -1 438.3569 222.2144)" display="none" overflow="visible"/>
	<line display="none" fill="#231F20" stroke="#000000" stroke-width="2" x1="236.357" y1="293.214" x2="572.357" y2="293.214"/>
	<line display="none" fill="#231F20" stroke="#000000" stroke-width="2" x1="217.357" y1="218.94" x2="649.357" y2="219.489"/>
	
		<use xlink:href="#Label_LC"  width="113" height="43" x="-56.5" y="-21.5" transform="matrix(1 0 0 -1 180.3569 293.2144)" display="none" overflow="visible"/>
	
		<use xlink:href="#Label_LCA"  width="113" height="63" x="-56.5" y="-31.5" transform="matrix(1 0 0 -1 161.3569 218.2144)" display="none" overflow="visible"/>
	
		<use xlink:href="#Carrefour"  width="28" height="30" x="-14" y="-15" transform="matrix(1 0 0 -1 358.3569 94.2144)" display="none" overflow="visible"/>
	
		<use xlink:href="#Label_Point"  width="55.234" height="24.041" x="-27.617" y="-12.021" transform="matrix(1 0 0 -1 404.3569 75.2144)" display="none" overflow="visible"/>
	<line display="none" fill="none" stroke="#000000" stroke-width="2" x1="244.357" y1="65.214" x2="333.357" y2="13.214"/>
	
		<use xlink:href="#RENS_URP_1"  width="362" height="288" x="-181" y="-144" transform="matrix(0.1285 0 0 -0.1285 393.6108 545.7144)" overflow="visible"/>
	<g display="none">
	</g>
	
		<use xlink:href="#Point_Option"  width="11" height="11" x="-5.5" y="-5.5" transform="matrix(1 0 0 -1 343.3569 433.2144)" display="none" overflow="visible"/>
	
		<use xlink:href="#Label_Point_d_x27_infiltration_1"  width="113" height="43" x="-56.5" y="-21.5" transform="matrix(1 0 0 -1 412.3569 441.2144)" display="none" overflow="visible"/>
	
		<use xlink:href="#Point_Option"  width="11" height="11" x="-5.5" y="-5.5" transform="matrix(1 0 0 -1 224.3569 28.2144)" display="none" overflow="visible"/>
	
		<use xlink:href="#Label_Point_d_x27_exfiltration_1"  width="113" height="43" x="-56.5" y="-21.5" transform="matrix(1 0 0 -1 247.3569 57.2144)" display="none" overflow="visible"/>
	
		<use xlink:href="#Point"  width="11" height="11" x="-5.5" y="-5.5" transform="matrix(1 0 0 -1 346.3569 210.2144)" display="none" overflow="visible"/>
	
		<use xlink:href="#Label_Point"  width="55.234" height="24.041" x="-27.617" y="-12.021" transform="matrix(1 0 0 -1 362.3569 182.2144)" display="none" overflow="visible"/>
	
		<use xlink:href="#Point_Option"  width="11" height="11" x="-5.5" y="-5.5" transform="matrix(1 0 0 -1 142.3569 152.2144)" overflow="visible"/>
	
		<use xlink:href="#Label_Point_de_regroupement_1"  width="155" height="43" x="-77.5" y="-21.5" transform="matrix(1 0 0 -1 176.3569 115.2144)" overflow="visible"/>
</g>
</svg>
