<?xml version="1.0" encoding="UTF-8" standalone="no"?>
<!-- Created with Inkscape (http://www.inkscape.org/) -->

<svg
   xmlns:dc="http://purl.org/dc/elements/1.1/"
   xmlns:cc="http://creativecommons.org/ns#"
   xmlns:rdf="http://www.w3.org/1999/02/22-rdf-syntax-ns#"
   xmlns:svg="http://www.w3.org/2000/svg"
   xmlns="http://www.w3.org/2000/svg"
   xmlns:sodipodi="http://sodipodi.sourceforge.net/DTD/sodipodi-0.dtd"
   xmlns:inkscape="http://www.inkscape.org/namespaces/inkscape"
   version="1.1"
   width="100%"
   height="100%"
   id="svg2"
   inkscape:version="0.47 r22583"
   sodipodi:docname="housing.svg">
  <metadata
     id="metadata25">
    <rdf:RDF>
      <cc:Work
         rdf:about="">
        <dc:format>image/svg+xml</dc:format>
        <dc:type
           rdf:resource="http://purl.org/dc/dcmitype/StillImage" />
      </cc:Work>
    </rdf:RDF>
  </metadata>
  <sodipodi:namedview
     pagecolor="#ffffff"
     bordercolor="#666666"
     borderopacity="1"
     objecttolerance="10"
     gridtolerance="10"
     guidetolerance="10"
     inkscape:pageopacity="0"
     inkscape:pageshadow="2"
     inkscape:window-width="656"
     inkscape:window-height="489"
     id="namedview23"
     showgrid="false"
     inkscape:zoom="0.22425739"
     inkscape:cx="372.04724"
     inkscape:cy="526.18109"
     inkscape:window-x="0"
     inkscape:window-y="0"
     inkscape:window-maximized="0"
     inkscape:current-layer="svg2" />
  <defs
     id="defs83">
    <inkscape:perspective
       sodipodi:type="inkscape:persp3d"
       inkscape:vp_x="0 : 0.5 : 1"
       inkscape:vp_y="0 : 1000 : 0"
       inkscape:vp_z="1 : 0.5 : 1"
       inkscape:persp3d-origin="0.5 : 0.33333333 : 1"
       id="perspective27" />
    <clipPath
       id="clippath0">
      <path
         d="m 0,0 0,6098 5235,0 0,-6098 z"
         id="path9" />
    </clipPath>
  </defs>
  <path
     d="m 3.384518,660.68548 0,0 0,-561.98618 564.777792,0 0,561.98618 -564.777792,0 z"
     id="path15"
     style="fill:#ffffff;stroke:#303b43;stroke-width:4.58299731999999960;stroke-linecap:butt;stroke-linejoin:round;fill-opacity:1" />
  <path
     d="m 188.98712,97.6087 0,0 0,-94.99126 190.18807,0 0,94.99126 -190.18807,0 z"
     id="path19"
     style="fill:#303b43;fill-rule:nonzero;stroke:#303b43;stroke-width:0.10911898" />
  <path
     d="m 188.98712,97.6087 0,0 0,-94.99126 190.18807,0 0,94.99126 -190.18807,0 z"
     id="path23"
     style="fill:none;stroke:#303b43;stroke-width:4.58299732;stroke-linecap:butt;stroke-linejoin:round" />
  <path
     d="m 300.13032,375.7117 0,0 18.34191,5.67112 -5.78644,14.94122 -9.17095,9.16104 -11.46369,5.67112 -14.84821,2.29026 -18.3419,-3.38086 -13.75643,-9.16104 -9.17095,-16.03182 -4.58548,-21.812 3.4937,-21.70294 9.17095,-16.03182 14.84821,-10.25164 19.43368,-3.48992 16.04917,3.48992 12.66465,7.96138 5.67725,8.07044 5.78644,10.25164 -19.54287,4.58052 -7.96999,-12.5419 -13.75643,-4.58052 -10.37191,2.29026 -7.96999,5.67112 -4.58548,10.3607 -2.29274,14.83216 6.87822,26.28346 18.3419,8.07044 13.75643,-4.58052 9.17095,-16.03182 z"
     id="path27"
     style="fill:#303b43;fill-rule:nonzero;stroke:#303b43;stroke-width:0.10911898" />
  <path
     d="m 300.13032,375.7117 0,0 18.34191,5.67112 -5.78644,14.94122 -9.17095,9.16104 -11.46369,5.67112 -14.84821,2.29026 -18.3419,-3.38086 -13.75643,-9.16104 -9.17095,-16.03182 -4.58548,-21.812 3.4937,-21.70294 9.17095,-16.03182 14.84821,-10.25164 19.43368,-3.48992 16.04917,3.48992 12.66465,7.96138 5.67725,8.07044 5.78644,10.25164 -19.54287,4.58052 -7.96999,-12.5419 -13.75643,-4.58052 -10.37191,2.29026 -7.96999,5.67112 -4.58548,10.3607 -2.29274,14.83216 6.87822,26.28346 18.3419,8.07044 13.75643,-4.58052 9.17095,-16.03182 z"
     id="path31"
     style="fill:none;stroke:#303b43;stroke-width:4.58299732;stroke-linecap:butt;stroke-linejoin:round" />
  <path
     d="m 203.83533,375.7117 0,0 19.54286,5.67112 -6.87822,14.94122 -8.07917,9.16104 -12.55547,5.67112 -14.95738,2.29026 -18.23273,-3.38086 -13.75643,-9.16104 -9.17095,-16.03182 -3.4937,-20.61234 2.29274,-22.9026 9.17095,-16.03182 14.95739,-9.16104 19.43368,-4.58052 16.04917,3.48992 12.55547,9.16104 5.78643,6.87078 5.67726,10.25164 -19.43368,4.58052 -8.07918,-12.5419 -13.75642,-4.58052 -18.23273,7.96138 -6.87821,26.28346 2.29273,16.03182 4.58548,9.16104 7.96999,6.87078 10.26274,1.19966 13.75642,-4.58052 9.17096,-16.03182 z"
     id="path35"
     style="fill:#303b43;fill-rule:nonzero;stroke:#303b43;stroke-width:0.10911898" />
  <path
     d="m 203.83533,375.7117 0,0 19.54286,5.67112 -6.87822,14.94122 -8.07917,9.16104 -12.55547,5.67112 -14.95738,2.29026 -18.23273,-3.38086 -13.75643,-9.16104 -9.17095,-16.03182 -3.4937,-20.61234 2.29274,-22.9026 9.17095,-16.03182 14.95739,-9.16104 19.43368,-4.58052 16.04917,3.48992 12.55547,9.16104 5.78643,6.87078 5.67726,10.25164 -19.43368,4.58052 -8.07918,-12.5419 -13.75642,-4.58052 -18.23273,7.96138 -6.87821,26.28346 2.29273,16.03182 4.58548,9.16104 7.96999,6.87078 10.26274,1.19966 13.75642,-4.58052 9.17096,-16.03182 z"
     id="path39"
     style="fill:none;stroke:#303b43;stroke-width:4.58299732;stroke-linecap:butt;stroke-linejoin:round" />
  <path
     d="m 81.33761,345.93832 0,0 0,-33.15424 -12.664648,0 -36.683808,100.66238 21.8356,0 7.969994,-23.9932 19.542862,0 0,-16.03182 -13.756428,0 11.46369,-36.64416 2.292738,9.16104 z"
     id="path43"
     style="fill:#303b43;fill-rule:nonzero;stroke:#303b43;stroke-width:0.10911898" />
  <path
     d="m 81.33761,345.93832 0,0 0,-33.15424 -12.664648,0 -36.683808,100.66238 21.8356,0 7.969994,-23.9932 19.542862,0 0,-16.03182 -13.756428,0 11.46369,-36.64416 2.292738,9.16104 z"
     id="path47"
     style="fill:none;stroke:#303b43;stroke-width:4.58299732;stroke-linecap:butt;stroke-linejoin:round" />
  <path
     d="m 82.42939,373.42144 0,0 0,16.03182 16.049166,0 7.969994,23.9932 21.8356,0 -36.683808,-100.66238 -9.170952,0 0,33.15424 11.46369,27.48312 -11.46369,0 z"
     id="path51"
     style="fill:#303b43;fill-rule:nonzero;stroke:#303b43;stroke-width:0.10911898" />
  <path
     d="m 82.42939,373.42144 0,0 0,16.03182 16.049166,0 7.969994,23.9932 21.8356,0 -36.683808,-100.66238 -9.170952,0 0,33.15424 11.46369,27.48312 -11.46369,0 z"
     id="path55"
     style="fill:none;stroke:#303b43;stroke-width:4.58299732;stroke-linecap:butt;stroke-linejoin:round" />
  <path
     d="m 377.97424,327.61624 0,0 0,-17.12242 -1.09178,-1.19966 -20.63465,4.58052 -12.66464,9.16104 -9.06178,13.74156 -4.58547,26.28346 4.58547,21.812 9.06178,16.03182 14.95738,9.16104 19.43369,3.38086 0,-17.12242 -11.46369,-2.29026 -9.17096,-6.87078 -6.87821,-25.19286 1.20096,-14.83216 6.87821,-11.4513 9.17095,-6.87078 10.26274,-2.29026 0,1.0906 z"
     id="path59"
     style="fill:#303b43;fill-rule:nonzero;stroke:#303b43;stroke-width:0.10911898" />
  <path
     d="m 377.97424,327.61624 0,0 0,-17.12242 -1.09178,-1.19966 -20.63465,4.58052 -12.66464,9.16104 -9.06178,13.74156 -4.58547,26.28346 4.58547,21.812 9.06178,16.03182 14.95738,9.16104 19.43369,3.38086 0,-17.12242 -11.46369,-2.29026 -9.17096,-6.87078 -6.87821,-25.19286 1.20096,-14.83216 6.87821,-11.4513 9.17095,-6.87078 10.26274,-2.29026 0,1.0906 z"
     id="path63"
     style="fill:none;stroke:#303b43;stroke-width:4.58299732;stroke-linecap:butt;stroke-linejoin:round" />
  <path
     d="m 379.17519,396.32404 0,0 0,17.12242 18.34191,-4.58052 16.04916,-9.16104 10.26274,-16.03182 3.38451,-21.70294 -4.58547,-21.70294 -9.06178,-17.23148 -16.04916,-9.16104 -18.34191,-3.38086 0,17.12242 11.46369,1.19966 7.97,6.87078 6.87821,10.25164 1.20096,16.03182 -1.20096,16.03182 -6.87821,10.25164 -19.43369,8.07044 z"
     id="path67"
     style="fill:#303b43;fill-rule:nonzero;stroke:#303b43;stroke-width:0.10911898" />
  <path
     d="m 379.17519,396.32404 0,0 0,17.12242 18.34191,-4.58052 16.04916,-9.16104 10.26274,-16.03182 3.38451,-21.70294 -4.58547,-21.70294 -9.06178,-17.23148 -16.04916,-9.16104 -18.34191,-3.38086 0,17.12242 11.46369,1.19966 7.97,6.87078 6.87821,10.25164 1.20096,16.03182 -1.20096,16.03182 -6.87821,10.25164 -19.43369,8.07044 z"
     id="path71"
     style="fill:none;stroke:#303b43;stroke-width:4.58299732;stroke-linecap:butt;stroke-linejoin:round" />
  <path
     d="m 445.55542,412.35586 0,0 0,-101.86204 31.00655,0 19.43368,69.7984 19.43369,-69.7984 32.09833,0 0,101.86204 -20.63464,0 0,-80.1591 -21.72642,80.1591 -18.34191,0 -21.72642,-80.1591 0,80.1591 -19.54286,0 z"
     id="path75"
     style="fill:#303b43;fill-rule:nonzero;stroke:#303b43;stroke-width:0.10911898" />
  <path
     d="m 445.55542,412.35586 0,0 0,-101.86204 31.00655,0 19.43368,69.7984 19.43369,-69.7984 32.09833,0 0,101.86204 -20.63464,0 0,-80.1591 -21.72642,80.1591 -18.34191,0 -21.72642,-80.1591 0,80.1591 -19.54286,0 z"
     id="path79"
     style="fill:none;stroke:#303b43;stroke-width:4.58299732;stroke-linecap:butt;stroke-linejoin:round" />
</svg>
