<?xml version="1.0" encoding="UTF-8" standalone="no"?>
<!-- Created with Inkscape (http://www.inkscape.org/) -->

<svg
   xmlns:dc="http://purl.org/dc/elements/1.1/"
   xmlns:cc="http://creativecommons.org/ns#"
   xmlns:rdf="http://www.w3.org/1999/02/22-rdf-syntax-ns#"
   xmlns:svg="http://www.w3.org/2000/svg"
   xmlns="http://www.w3.org/2000/svg"
   xmlns:sodipodi="http://sodipodi.sourceforge.net/DTD/sodipodi-0.dtd"
   xmlns:inkscape="http://www.inkscape.org/namespaces/inkscape"
   version="1.1"
   width="100%"
   height="100%"
   id="svg2"
   inkscape:version="0.47 r22583"
   sodipodi:docname="military-barrack.svg">
  <metadata
     id="metadata19">
    <rdf:RDF>
      <cc:Work
         rdf:about="">
        <dc:format>image/svg+xml</dc:format>
        <dc:type
           rdf:resource="http://purl.org/dc/dcmitype/StillImage" />
      </cc:Work>
    </rdf:RDF>
  </metadata>
  <sodipodi:namedview
     pagecolor="#ffffff"
     bordercolor="#666666"
     borderopacity="1"
     objecttolerance="10"
     gridtolerance="10"
     guidetolerance="10"
     inkscape:pageopacity="0"
     inkscape:pageshadow="2"
     inkscape:window-width="656"
     inkscape:window-height="489"
     id="namedview17"
     showgrid="false"
     inkscape:zoom="0.22425739"
     inkscape:cx="372.04724"
     inkscape:cy="526.18109"
     inkscape:window-x="0"
     inkscape:window-y="0"
     inkscape:window-maximized="0"
     inkscape:current-layer="svg2" />
  <defs
     id="defs59">
    <inkscape:perspective
       sodipodi:type="inkscape:persp3d"
       inkscape:vp_x="0 : 0.5 : 1"
       inkscape:vp_y="0 : 1000 : 0"
       inkscape:vp_z="1 : 0.5 : 1"
       inkscape:persp3d-origin="0.5 : 0.33333333 : 1"
       id="perspective21" />
    <clipPath
       id="clippath0">
      <path
         d="m 0,0 0,6098 5235,0 0,-6098 z"
         id="path9" />
    </clipPath>
  </defs>
  <path
     d="m 3.384518,660.68548 0,0 0,-561.98618 564.777792,0 0,561.98618 -564.777792,0 z"
     id="path15"
     style="fill:#ffffff;stroke:#303b43;stroke-width:4.58299731999999960;stroke-linecap:butt;stroke-linejoin:round;fill-opacity:1" />
  <path
     d="m 188.98712,97.6087 0,0 0,-94.99126 190.18807,0 0,96.08186 -190.18807,-1.0906 z"
     id="path19"
     style="fill:#303b43;fill-rule:nonzero;stroke:#303b43;stroke-width:0.10911898" />
  <path
     d="m 188.98712,97.6087 0,0 0,-94.99126 190.18807,0 0,96.08186 -190.18807,-1.0906 z"
     id="path23"
     style="fill:none;stroke:#303b43;stroke-width:4.58299732;stroke-linecap:butt;stroke-linejoin:round" />
  <path
     d="M 481.14745,154.8652 89.307604,374.51204"
     id="path27"
     style="fill:none;stroke:#303b43;stroke-width:4.58299732;stroke-linecap:butt;stroke-linejoin:round" />
  <path
     d="M 90.399384,154.8652 483.44018,374.51204"
     id="path31"
     style="fill:none;stroke:#303b43;stroke-width:4.58299732;stroke-linecap:butt;stroke-linejoin:round" />
  <path
     d="m 120.20498,566.78482 0,0 0,-147.55818 44.76298,0 27.40368,101.86204 28.71381,-101.86204 44.6538,0 0,147.55818 -27.51285,0 -1.09178,-115.49454 -31.00656,115.49454 -27.51285,0 -29.69642,-115.49454 0,115.49454 -28.71381,0 z"
     id="path35"
     style="fill:#303b43;fill-rule:nonzero;stroke:#303b43;stroke-width:0.10911898" />
  <path
     d="m 120.20498,566.78482 0,0 0,-147.55818 44.76298,0 27.40368,101.86204 28.71381,-101.86204 44.6538,0 0,147.55818 -27.51285,0 -1.09178,-115.49454 -31.00656,115.49454 -27.51285,0 -29.69642,-115.49454 0,115.49454 -28.71381,0 z"
     id="path39"
     style="fill:none;stroke:#303b43;stroke-width:4.58299732;stroke-linecap:butt;stroke-linejoin:round" />
  <path
     d="m 293.25211,566.78482 0,0 0,-147.55818 29.80559,0 0,147.55818 -29.80559,0 z"
     id="path43"
     style="fill:#303b43;fill-rule:nonzero;stroke:#303b43;stroke-width:0.10911898" />
  <path
     d="m 293.25211,566.78482 0,0 0,-147.55818 29.80559,0 0,147.55818 -29.80559,0 z"
     id="path47"
     style="fill:none;stroke:#303b43;stroke-width:4.58299732;stroke-linecap:butt;stroke-linejoin:round" />
  <path
     d="m 351.66234,566.78482 0,0 0,-146.46758 29.80559,0 0,121.38378 73.25844,0 0,25.0838 -103.06403,0 z"
     id="path51"
     style="fill:#303b43;fill-rule:nonzero;stroke:#303b43;stroke-width:0.10911898" />
  <path
     d="m 351.66234,566.78482 0,0 0,-146.46758 29.80559,0 0,121.38378 73.25844,0 0,25.0838 -103.06403,0 z"
     id="path55"
     style="fill:none;stroke:#303b43;stroke-width:4.58299732;stroke-linecap:butt;stroke-linejoin:round" />
</svg>
