<?xml version="1.0" encoding="UTF-8" standalone="no"?>
<!-- Created with Inkscape (http://www.inkscape.org/) -->

<svg
   xmlns:dc="http://purl.org/dc/elements/1.1/"
   xmlns:cc="http://creativecommons.org/ns#"
   xmlns:rdf="http://www.w3.org/1999/02/22-rdf-syntax-ns#"
   xmlns:svg="http://www.w3.org/2000/svg"
   xmlns="http://www.w3.org/2000/svg"
   xmlns:sodipodi="http://sodipodi.sourceforge.net/DTD/sodipodi-0.dtd"
   xmlns:inkscape="http://www.inkscape.org/namespaces/inkscape"
   version="1.1"
   width="100%"
   height="100%"
   id="svg2"
   inkscape:version="0.47 r22583"
   sodipodi:docname="office.svg">
  <metadata
     id="metadata58">
    <rdf:RDF>
      <cc:Work
         rdf:about="">
        <dc:format>image/svg+xml</dc:format>
        <dc:type
           rdf:resource="http://purl.org/dc/dcmitype/StillImage" />
      </cc:Work>
    </rdf:RDF>
  </metadata>
  <sodipodi:namedview
     pagecolor="#ffffff"
     bordercolor="#666666"
     borderopacity="1"
     objecttolerance="10"
     gridtolerance="10"
     guidetolerance="10"
     inkscape:pageopacity="0"
     inkscape:pageshadow="2"
     inkscape:window-width="656"
     inkscape:window-height="489"
     id="namedview56"
     showgrid="false"
     inkscape:zoom="0.22425739"
     inkscape:cx="372.04724"
     inkscape:cy="526.18109"
     inkscape:window-x="0"
     inkscape:window-y="0"
     inkscape:window-maximized="0"
     inkscape:current-layer="svg2" />
  <defs
     id="defs523">
    <inkscape:perspective
       sodipodi:type="inkscape:persp3d"
       inkscape:vp_x="0 : 0.5 : 1"
       inkscape:vp_y="0 : 1000 : 0"
       inkscape:vp_z="1 : 0.5 : 1"
       inkscape:persp3d-origin="0.5 : 0.33333333 : 1"
       id="perspective60" />
    <clipPath
       id="clippath0">
      <path
         d="m 0,0 0,6098 5235,0 0,-6098 z"
         id="path9" />
    </clipPath>
  </defs>
  <path
     style="fill:#ffffff;stroke:#344b56;stroke-width:4.58299731999999960;stroke-linecap:butt;stroke-linejoin:round;fill-opacity:1"
     id="path15"
     d="m 3.384518,660.68548 0,0 0,-561.98618 564.777792,0 0,561.98618 -564.777792,0 z" />
  <g
     transform="scale(0.109178,0.10906)"
     id="g17"
     style="fill:#344b56;fill-rule:nonzero;stroke:#344b56;stroke-width:1">
    <path
       d="m 1731,895 0,0 0,-871 1742,0 0,871 -1742,0 z"
       id="path19" />
  </g>
  <g
     transform="scale(0.109178,0.10906)"
     id="g21"
     style="fill:none;stroke:#344b56;stroke-width:42;stroke-linecap:butt;stroke-linejoin:round">
    <path
       d="m 1731,895 0,0 0,-871 1742,0 0,871 -1742,0 z"
       id="path23" />
  </g>
  <g
     transform="scale(0.109178,0.10906)"
     id="g25"
     style="fill:#344b56;fill-rule:nonzero;stroke:#344b56;stroke-width:1">
    <path
       d="m 1511,2238 0,0 157,0 0,430 10,126 11,42 31,32 105,31 105,-21 42,-73 11,-137 0,-430 157,0 0,409 -10,200 -53,105 -94,63 -147,21 -168,-21 -105,-74 -42,-84 -10,-199 0,-420 z"
       id="path27" />
  </g>
  <g
     transform="scale(0.109178,0.10906)"
     id="g29"
     style="fill:none;stroke:#344b56;stroke-width:42;stroke-linecap:butt;stroke-linejoin:round">
    <path
       d="m 1511,2238 0,0 157,0 0,430 10,126 11,42 31,32 105,31 105,-21 42,-73 11,-137 0,-430 157,0 0,409 -10,200 -53,105 -94,63 -147,21 -168,-21 -105,-74 -42,-84 -10,-199 0,-420 z"
       id="path31" />
  </g>
  <g
     transform="scale(0.109178,0.10906)"
     id="g33"
     style="fill:#344b56;fill-rule:nonzero;stroke:#344b56;stroke-width:1">
    <path
       d="m 2969,3025 0,0 0,-787 157,0 0,787 -157,0 z"
       id="path35" />
  </g>
  <g
     transform="scale(0.109178,0.10906)"
     id="g37"
     style="fill:none;stroke:#344b56;stroke-width:42;stroke-linecap:butt;stroke-linejoin:round">
    <path
       d="m 2969,3025 0,0 0,-787 157,0 0,787 -157,0 z"
       id="path39" />
  </g>
  <g
     transform="scale(0.109178,0.10906)"
     id="g41"
     style="fill:#344b56;fill-rule:nonzero;stroke:#344b56;stroke-width:1">
    <path
       d="m 3273,3025 0,0 0,-787 168,0 0,651 399,0 0,136 -567,0 z"
       id="path43" />
  </g>
  <g
     transform="scale(0.109178,0.10906)"
     id="g45"
     style="fill:none;stroke:#344b56;stroke-width:42;stroke-linecap:butt;stroke-linejoin:round">
    <path
       d="m 3273,3025 0,0 0,-787 168,0 0,651 399,0 0,136 -567,0 z"
       id="path47" />
  </g>
  <g
     transform="scale(0.109178,0.10906)"
     id="g49"
     style="fill:#344b56;fill-rule:nonzero;stroke:#344b56;stroke-width:1">
    <path
       d="m 1049,4274 0,0 0,136 147,-21 126,-84 84,-125 21,-168 -32,-168 -73,-126 -126,-84 -147,-21 0,136 84,11 73,52 42,84 21,116 -21,126 -52,83 -63,42 -84,11 z"
       id="path51" />
  </g>
  <g
     transform="scale(0.109178,0.10906)"
     id="g53"
     style="fill:none;stroke:#344b56;stroke-width:42;stroke-linecap:butt;stroke-linejoin:round">
    <path
       d="m 1049,4274 0,0 0,136 147,-21 126,-84 84,-125 21,-168 -32,-168 -73,-126 -126,-84 -147,-21 0,136 84,11 73,52 42,84 21,116 -21,126 -52,83 -63,42 -84,11 z"
       id="path55" />
  </g>
  <g
     transform="scale(0.109178,0.10906)"
     id="g57"
     style="fill:#344b56;fill-rule:nonzero;stroke:#344b56;stroke-width:1">
    <path
       d="m 1049,3749 0,0 0,-136 -11,0 -84,0 -84,31 -94,74 -73,105 -32,189 0,10 21,168 74,126 125,73 147,21 11,0 0,-136 -11,0 -84,-11 -73,-52 -42,-84 -11,-115 0,0 11,-116 42,-84 73,-52 84,-11 11,0 z"
       id="path59" />
  </g>
  <g
     transform="scale(0.109178,0.10906)"
     id="g61"
     style="fill:none;stroke:#344b56;stroke-width:42;stroke-linecap:butt;stroke-linejoin:round">
    <path
       d="m 1049,3749 0,0 0,-136 -11,0 -84,0 -84,31 -94,74 -73,105 -32,189 0,10 21,168 74,126 125,73 147,21 11,0 0,-136 -11,0 -84,-11 -73,-52 -42,-84 -11,-115 0,0 11,-116 42,-84 73,-52 84,-11 11,0 z"
       id="path63" />
  </g>
  <g
     transform="scale(0.109178,0.10906)"
     id="g65"
     style="fill:#344b56;fill-rule:nonzero;stroke:#344b56;stroke-width:1">
    <path
       d="m 2465,3015 0,0 0,-641 -220,0 0,-125 609,0 0,125 -231,0 0,641 -158,0 z"
       id="path67" />
  </g>
  <g
     transform="scale(0.109178,0.10906)"
     id="g69"
     style="fill:none;stroke:#344b56;stroke-width:42;stroke-linecap:butt;stroke-linejoin:round">
    <path
       d="m 2465,3015 0,0 0,-641 -220,0 0,-125 609,0 0,125 -231,0 0,641 -158,0 z"
       id="path71" />
  </g>
  <g
     transform="scale(0.109178,0.10906)"
     id="g73"
     style="fill:#344b56;fill-rule:nonzero;stroke:#344b56;stroke-width:1">
    <path
       d="m 2990,4421 0,0 0,-808 168,0 0,808 -168,0 z"
       id="path75" />
  </g>
  <g
     transform="scale(0.109178,0.10906)"
     id="g77"
     style="fill:none;stroke:#344b56;stroke-width:42;stroke-linecap:butt;stroke-linejoin:round">
    <path
       d="m 2990,4421 0,0 0,-808 168,0 0,808 -168,0 z"
       id="path79" />
  </g>
  <g
     transform="scale(0.109178,0.10906)"
     id="g81"
     style="fill:#32444d;fill-rule:nonzero;stroke:#32444d;stroke-width:1">
    <path
       d="m 4092,4421 0,0 0,-798 598,0 0,137 -430,0 0,168 398,0 0,136 -398,0 0,220 440,0 0,137 -608,0 z"
       id="path83" />
  </g>
  <g
     transform="scale(0.109178,0.10906)"
     id="g85"
     style="fill:none;stroke:#32444d;stroke-width:42;stroke-linecap:butt;stroke-linejoin:round">
    <path
       d="m 4092,4421 0,0 0,-798 598,0 0,137 -430,0 0,168 398,0 0,136 -398,0 0,220 440,0 0,137 -608,0 z"
       id="path87" />
  </g>
  <g
     transform="scale(0.109178,0.10906)"
     id="g89"
     style="fill:#32444d;fill-rule:nonzero;stroke:#32444d;stroke-width:1">
    <path
       d="m 3830,4117 0,0 157,52 -53,115 -73,74 -94,52 -116,11 -147,-32 -115,-73 -74,-126 -31,-168 31,-178 63,-126 126,-84 147,-32 137,32 104,63 42,63 42,84 -157,31 -63,-94 -105,-42 -147,63 -52,210 10,126 42,83 63,53 84,10 105,-42 74,-125 z"
       id="path91" />
  </g>
  <g
     transform="scale(0.109178,0.10906)"
     id="g93"
     style="fill:none;stroke:#32444d;stroke-width:42;stroke-linecap:butt;stroke-linejoin:round">
    <path
       d="m 3830,4117 0,0 157,52 -53,115 -73,74 -94,52 -116,11 -147,-32 -115,-73 -74,-126 -31,-168 31,-178 63,-126 126,-84 147,-32 137,32 104,63 42,63 42,84 -157,31 -63,-94 -105,-42 -147,63 -52,210 10,126 42,83 63,53 84,10 105,-42 74,-125 z"
       id="path95" />
  </g>
  <g
     transform="scale(0.109178,0.10906)"
     id="g97"
     style="fill:#32444d;fill-rule:nonzero;stroke:#32444d;stroke-width:1">
    <path
       d="m 1584,4421 0,0 0,-819 556,0 0,137 -388,0 0,189 336,0 0,136 -336,0 0,357 -168,0 z"
       id="path99" />
  </g>
  <g
     transform="scale(0.109178,0.10906)"
     id="g101"
     style="fill:none;stroke:#32444d;stroke-width:42;stroke-linecap:butt;stroke-linejoin:round">
    <path
       d="m 1584,4421 0,0 0,-819 556,0 0,137 -388,0 0,189 336,0 0,136 -336,0 0,357 -168,0 z"
       id="path103" />
  </g>
  <g
     transform="scale(0.109178,0.10906)"
     id="g105"
     style="fill:#32444d;fill-rule:nonzero;stroke:#32444d;stroke-width:1">
    <path
       d="m 2298,4421 0,0 0,-819 545,0 0,137 -388,0 0,189 346,0 0,136 -346,0 0,357 -157,0 z"
       id="path107" />
  </g>
  <g
     transform="scale(0.109178,0.10906)"
     id="g109"
     style="fill:none;stroke:#32444d;stroke-width:42;stroke-linecap:butt;stroke-linejoin:round">
    <path
       d="m 2298,4421 0,0 0,-819 545,0 0,137 -388,0 0,189 346,0 0,136 -346,0 0,357 -157,0 z"
       id="path111" />
  </g>
</svg>
