<?xml version="1.0" encoding="UTF-8" standalone="no"?>
<svg
   xmlns:dc="http://purl.org/dc/elements/1.1/"
   xmlns:cc="http://creativecommons.org/ns#"
   xmlns:rdf="http://www.w3.org/1999/02/22-rdf-syntax-ns#"
   xmlns:svg="http://www.w3.org/2000/svg"
   xmlns="http://www.w3.org/2000/svg"
   xmlns:sodipodi="http://sodipodi.sourceforge.net/DTD/sodipodi-0.dtd"
   xmlns:inkscape="http://www.inkscape.org/namespaces/inkscape"
   version="1.1"
   width="100%"
   height="100%"
   id="svg2"
   inkscape:version="0.47 r22583"
   sodipodi:docname="police-station.svg">
  <metadata
     id="metadata29">
    <rdf:RDF>
      <cc:Work
         rdf:about="">
        <dc:format>image/svg+xml</dc:format>
        <dc:type
           rdf:resource="http://purl.org/dc/dcmitype/StillImage" />
      </cc:Work>
    </rdf:RDF>
  </metadata>
  <sodipodi:namedview
     pagecolor="#ffffff"
     bordercolor="#666666"
     borderopacity="1"
     objecttolerance="10"
     gridtolerance="10"
     guidetolerance="10"
     inkscape:pageopacity="0"
     inkscape:pageshadow="2"
     inkscape:window-width="656"
     inkscape:window-height="489"
     id="namedview27"
     showgrid="false"
     inkscape:zoom="0.22425739"
     inkscape:cx="372.04724"
     inkscape:cy="526.18109"
     inkscape:window-x="0"
     inkscape:window-y="0"
     inkscape:window-maximized="0"
     inkscape:current-layer="svg2" />
  <defs
     id="defs99">
    <inkscape:perspective
       sodipodi:type="inkscape:persp3d"
       inkscape:vp_x="0 : 0.5 : 1"
       inkscape:vp_y="0 : 1000 : 0"
       inkscape:vp_z="1 : 0.5 : 1"
       inkscape:persp3d-origin="0.5 : 0.33333333 : 1"
       id="perspective31" />
    <clipPath
       id="clippath0">
      <path
         d="m 0,0 0,6098 5235,0 0,-6098 z"
         id="path9" />
    </clipPath>
  </defs>
  <path
     d="m 3.384518,660.68548 0,0 0,-561.98618 564.777792,0 0,561.98618 -564.777792,0 z"
     id="path15"
     style="fill:#ffffff;stroke:#303b43;stroke-width:4.58299731999999960;stroke-linecap:butt;stroke-linejoin:round;fill-opacity:1" />
  <path
     d="m 188.98712,97.6087 0,0 0,-94.99126 190.18807,0 0,94.99126 -190.18807,0 z"
     id="path19"
     style="fill:#303b43;fill-rule:nonzero;stroke:#303b43;stroke-width:0.10911898" />
  <path
     d="m 188.98712,97.6087 0,0 0,-94.99126 190.18807,0 0,94.99126 -190.18807,0 z"
     id="path23"
     style="fill:none;stroke:#303b43;stroke-width:4.58299732;stroke-linecap:butt;stroke-linejoin:round" />
  <path
     d="M 481.14745,154.8652 89.307604,374.51204"
     id="path27"
     style="fill:none;stroke:#303b43;stroke-width:4.58299732;stroke-linecap:butt;stroke-linejoin:round" />
  <path
     d="M 90.399384,154.8652 483.44018,374.51204"
     id="path31"
     style="fill:none;stroke:#303b43;stroke-width:4.58299732;stroke-linecap:butt;stroke-linejoin:round" />
  <path
     d="m 319.56401,540.50136 0,0 0,-89.21108 19.43368,0 0,89.21108 -19.43368,0 z"
     id="path35"
     style="fill:#343739;fill-rule:nonzero;stroke:#343739;stroke-width:0.10911898" />
  <path
     d="m 319.56401,540.50136 0,0 0,-89.21108 19.43368,0 0,89.21108 -19.43368,0 z"
     id="path39"
     style="fill:none;stroke:#343739;stroke-width:4.58299732;stroke-linecap:butt;stroke-linejoin:round" />
  <path
     d="m 239.42735,539.41076 0,0 0,-89.32014 19.43369,0 0,73.28832 48.1475,0 0,16.03182 -67.58119,0 z"
     id="path43"
     style="fill:#343739;fill-rule:nonzero;stroke:#343739;stroke-width:0.10911898" />
  <path
     d="m 239.42735,539.41076 0,0 0,-89.32014 19.43369,0 0,73.28832 48.1475,0 0,16.03182 -67.58119,0 z"
     id="path47"
     style="fill:none;stroke:#343739;stroke-width:4.58299732;stroke-linecap:butt;stroke-linejoin:round" />
  <path
     d="m 443.26268,542.79162 0,0 0,-92.701 69.87392,0 0,16.03182 -50.33106,0 0,20.61234 45.74558,0 0,16.03182 -45.74558,0 0,23.9932 51.53202,0 0,16.03182 -71.07488,0 z"
     id="path51"
     style="fill:#343739;fill-rule:nonzero;stroke:#343739;stroke-width:0.10911898" />
  <path
     d="m 443.26268,542.79162 0,0 0,-92.701 69.87392,0 0,16.03182 -50.33106,0 0,20.61234 45.74558,0 0,16.03182 -45.74558,0 0,23.9932 51.53202,0 0,16.03182 -71.07488,0 z"
     id="path55"
     style="fill:none;stroke:#343739;stroke-width:4.58299732;stroke-linecap:butt;stroke-linejoin:round" />
  <path
     d="m 185.49342,464.92278 0,0 0,-14.83216 0,0 -10.26273,0 -9.17095,3.48992 -10.26273,7.96138 -8.07918,11.4513 -4.58547,21.70294 0,1.19966 3.49369,18.32208 7.97,14.83216 13.75643,8.07044 17.14094,3.38086 0,0 0,-16.03182 0,0 -9.17095,-1.0906 -7.96999,-5.78018 -5.67726,-10.25164 -1.20096,-12.65096 0,0 1.20096,-12.5419 5.67726,-10.3607 6.87821,-5.67112 10.26273,-1.19966 0,0 z"
     id="path59"
     style="fill:#343739;fill-rule:nonzero;stroke:#343739;stroke-width:0.10911898" />
  <path
     d="m 185.49342,464.92278 0,0 0,-14.83216 0,0 -10.26273,0 -9.17095,3.48992 -10.26273,7.96138 -8.07918,11.4513 -4.58547,21.70294 0,1.19966 3.49369,18.32208 7.97,14.83216 13.75643,8.07044 17.14094,3.38086 0,0 0,-16.03182 0,0 -9.17095,-1.0906 -7.96999,-5.78018 -5.67726,-10.25164 -1.20096,-12.65096 0,0 1.20096,-12.5419 5.67726,-10.3607 6.87821,-5.67112 10.26273,-1.19966 0,0 z"
     id="path63"
     style="fill:none;stroke:#343739;stroke-width:4.58299732;stroke-linecap:butt;stroke-linejoin:round" />
  <path
     d="m 186.69438,524.46954 0,0 0,16.03182 17.14095,-3.38086 13.75642,-9.16104 8.07918,-13.74156 2.29273,-19.52174 -2.29273,-19.41268 -9.17096,-14.94122 -12.66464,-7.96138 -17.14095,-3.38086 0,15.92276 9.17095,1.19966 7.97,5.67112 4.58547,9.16104 2.29274,13.74156 -2.29274,13.74156 -4.58547,9.16104 -7.97,4.58052 -9.17095,2.29026 z"
     id="path67"
     style="fill:#343739;fill-rule:nonzero;stroke:#343739;stroke-width:0.10911898" />
  <path
     d="m 186.69438,524.46954 0,0 0,16.03182 17.14095,-3.38086 13.75642,-9.16104 8.07918,-13.74156 2.29273,-19.52174 -2.29273,-19.41268 -9.17096,-14.94122 -12.66464,-7.96138 -17.14095,-3.38086 0,15.92276 9.17095,1.19966 7.97,5.67112 4.58547,9.16104 2.29274,13.74156 -2.29274,13.74156 -4.58547,9.16104 -7.97,4.58052 -9.17095,2.29026 z"
     id="path71"
     style="fill:none;stroke:#343739;stroke-width:4.58299732;stroke-linecap:butt;stroke-linejoin:round" />
  <path
     d="m 105.35677,466.12244 0,0 0,-16.03182 -6.878214,0 -28.604636,0 0,89.32014 18.232726,0 0,-34.3539 11.46369,0 5.786434,0 0,-16.03182 -8.079172,1.0906 -9.170952,0 0,-25.19286 8.079172,0 9.170952,1.19966 z"
     id="path75"
     style="fill:#343739;fill-rule:nonzero;stroke:#343739;stroke-width:0.10911898" />
  <path
     d="m 105.35677,466.12244 0,0 0,-16.03182 -6.878214,0 -28.604636,0 0,89.32014 18.232726,0 0,-34.3539 11.46369,0 5.786434,0 0,-16.03182 -8.079172,1.0906 -9.170952,0 0,-25.19286 8.079172,0 9.170952,1.19966 z"
     id="path79"
     style="fill:none;stroke:#343739;stroke-width:4.58299732;stroke-linecap:butt;stroke-linejoin:round" />
  <path
     d="m 104.15581,489.02504 0,0 0,16.03182 12.66465,-1.19966 10.26273,-3.38086 6.87822,-9.16104 3.49369,-13.74156 -1.20096,-10.3607 -4.58547,-6.87078 -5.67726,-5.67112 -6.87821,-3.38086 -14.95739,-1.19966 0,16.03182 4.58548,0 8.07917,4.58052 2.29274,6.87078 -2.29274,7.96138 -5.78643,3.48992 -6.87822,0 z"
     id="path83"
     style="fill:#343739;fill-rule:nonzero;stroke:#343739;stroke-width:0.10911898" />
  <path
     d="m 104.15581,489.02504 0,0 0,16.03182 12.66465,-1.19966 10.26273,-3.38086 6.87822,-9.16104 3.49369,-13.74156 -1.20096,-10.3607 -4.58547,-6.87078 -5.67726,-5.67112 -6.87821,-3.38086 -14.95739,-1.19966 0,16.03182 4.58548,0 8.07917,4.58052 2.29274,6.87078 -2.29274,7.96138 -5.78643,3.48992 -6.87822,0 z"
     id="path87"
     style="fill:none;stroke:#343739;stroke-width:4.58299732;stroke-linecap:butt;stroke-linejoin:round" />
  <path
     d="m 414.65804,508.43772 0,0 16.04917,5.78018 -4.58548,12.5419 -9.17095,9.16104 -10.26273,5.78018 -13.75643,1.0906 -8.07917,-1.0906 -7.96999,-2.29026 -6.87822,-3.48992 -5.78643,-5.67112 -5.67726,-6.87078 -3.49369,-8.07044 -2.29274,-7.96138 0,-10.3607 0,-10.25164 2.29274,-10.3607 3.49369,-7.96138 5.67726,-5.78018 5.78643,-5.67112 6.87822,-4.58052 9.17095,-2.29026 7.96999,-1.0906 8.07917,1.0906 6.87822,2.29026 6.87821,3.48992 5.67726,4.47146 4.58547,6.87078 4.58548,10.3607 -18.3419,3.38086 -1.09178,-6.87078 -5.78644,-4.58052 -4.58547,-3.38086 -7.97,-1.19966 -8.07917,2.29026 -7.96999,5.78018 -4.58548,9.16104 -1.20096,13.74156 1.20096,14.83216 4.58548,9.16104 6.87821,5.78018 9.17095,1.0906 6.87822,-1.0906 5.67725,-2.29026 5.78644,-5.78018 3.38451,-9.16104 z"
     id="path91"
     style="fill:#2b3237;fill-rule:nonzero;stroke:#2b3237;stroke-width:0.10911898" />
  <path
     d="m 414.65804,508.43772 0,0 16.04917,5.78018 -4.58548,12.5419 -9.17095,9.16104 -10.26273,5.78018 -13.75643,1.0906 -8.07917,-1.0906 -7.96999,-2.29026 -6.87822,-3.48992 -5.78643,-5.67112 -5.67726,-6.87078 -3.49369,-8.07044 -2.29274,-7.96138 0,-10.3607 0,-10.25164 2.29274,-10.3607 3.49369,-7.96138 5.67726,-5.78018 5.78643,-5.67112 6.87822,-4.58052 9.17095,-2.29026 7.96999,-1.0906 8.07917,1.0906 6.87822,2.29026 6.87821,3.48992 5.67726,4.47146 4.58547,6.87078 4.58548,10.3607 -18.3419,3.38086 -1.09178,-6.87078 -5.78644,-4.58052 -4.58547,-3.38086 -7.97,-1.19966 -8.07917,2.29026 -7.96999,5.78018 -4.58548,9.16104 -1.20096,13.74156 1.20096,14.83216 4.58548,9.16104 6.87821,5.78018 9.17095,1.0906 6.87822,-1.0906 5.67725,-2.29026 5.78644,-5.78018 3.38451,-9.16104 z"
     id="path95"
     style="fill:none;stroke:#2b3237;stroke-width:4.58299732;stroke-linecap:butt;stroke-linejoin:round" />
</svg>
