<?xml version="1.0" encoding="UTF-8" standalone="no"?>
<svg
   xmlns:dc="http://purl.org/dc/elements/1.1/"
   xmlns:cc="http://creativecommons.org/ns#"
   xmlns:rdf="http://www.w3.org/1999/02/22-rdf-syntax-ns#"
   xmlns:svg="http://www.w3.org/2000/svg"
   xmlns="http://www.w3.org/2000/svg"
   xmlns:sodipodi="http://sodipodi.sourceforge.net/DTD/sodipodi-0.dtd"
   xmlns:inkscape="http://www.inkscape.org/namespaces/inkscape"
   version="1.1"
   width="100%"
   height="100%"
   id="svg2"
   inkscape:version="0.47 r22583"
   sodipodi:docname="religious.svg">
  <metadata
     id="metadata31">
    <rdf:RDF>
      <cc:Work
         rdf:about="">
        <dc:format>image/svg+xml</dc:format>
        <dc:type
           rdf:resource="http://purl.org/dc/dcmitype/StillImage" />
      </cc:Work>
    </rdf:RDF>
  </metadata>
  <sodipodi:namedview
     pagecolor="#ffffff"
     bordercolor="#666666"
     borderopacity="1"
     objecttolerance="10"
     gridtolerance="10"
     guidetolerance="10"
     inkscape:pageopacity="0"
     inkscape:pageshadow="2"
     inkscape:window-width="656"
     inkscape:window-height="489"
     id="namedview29"
     showgrid="false"
     inkscape:zoom="0.22425739"
     inkscape:cx="372.04724"
     inkscape:cy="526.18109"
     inkscape:window-x="0"
     inkscape:window-y="0"
     inkscape:window-maximized="0"
     inkscape:current-layer="svg2" />
  <defs
     id="defs107">
    <inkscape:perspective
       sodipodi:type="inkscape:persp3d"
       inkscape:vp_x="0 : 0.5 : 1"
       inkscape:vp_y="0 : 1000 : 0"
       inkscape:vp_z="1 : 0.5 : 1"
       inkscape:persp3d-origin="0.5 : 0.33333333 : 1"
       id="perspective33" />
    <clipPath
       id="clippath0">
      <path
         d="m 0,0 0,6098 5235,0 0,-6098 z"
         id="path9" />
    </clipPath>
  </defs>
  <path
     d="m 3.384518,660.68548 0,0 0,-561.98618 564.777792,0 0,561.98618 -564.777792,0 z"
     id="path15"
     style="fill:#ffffff;stroke:#32444d;stroke-width:4.58299731999999960;stroke-linecap:butt;stroke-linejoin:round;fill-opacity:1" />
  <path
     d="m 188.98712,97.6087 0,0 0,-94.99126 190.18807,0 0,94.99126 -190.18807,0 z"
     id="path19"
     style="fill:#32444d;fill-rule:nonzero;stroke:#32444d;stroke-width:0.10911898" />
  <path
     d="m 188.98712,97.6087 0,0 0,-94.99126 190.18807,0 0,94.99126 -190.18807,0 z"
     id="path23"
     style="fill:none;stroke:#32444d;stroke-width:4.58299732;stroke-linecap:butt;stroke-linejoin:round" />
  <path
     d="m 185.49342,228.04446 0,0 0,-17.12242 0,0 -21.72642,3.38086 -12.55547,10.3607 -9.17095,12.5419 -3.4937,26.28346 3.4937,21.812 9.17095,16.03182 14.84821,7.96138 19.43368,4.58052 0,-17.12242 -11.46369,-2.29026 -9.06177,-6.87078 -6.87822,-25.19286 2.29274,-14.83216 5.67726,-11.4513 9.17095,-6.87078 10.26273,-2.29026 0,1.0906 z"
     id="path27"
     style="fill:#343739;fill-rule:nonzero;stroke:#343739;stroke-width:0.10911898" />
  <path
     d="m 185.49342,228.04446 0,0 0,-17.12242 0,0 -21.72642,3.38086 -12.55547,10.3607 -9.17095,12.5419 -3.4937,26.28346 3.4937,21.812 9.17095,16.03182 14.84821,7.96138 19.43368,4.58052 0,-17.12242 -11.46369,-2.29026 -9.06177,-6.87078 -6.87822,-25.19286 2.29274,-14.83216 5.67726,-11.4513 9.17095,-6.87078 10.26273,-2.29026 0,1.0906 z"
     id="path31"
     style="fill:none;stroke:#343739;stroke-width:4.58299732;stroke-linecap:butt;stroke-linejoin:round" />
  <path
     d="m 186.69438,296.75226 0,0 0,17.12242 18.3419,-4.58052 16.04917,-9.16104 10.26273,-16.03182 3.4937,-20.61234 -4.58548,-22.79354 -9.17095,-16.03182 -16.04917,-10.3607 -18.3419,-3.38086 0,16.03182 10.26273,2.29026 9.17095,6.87078 6.87822,11.4513 1.20096,14.83216 -1.20096,16.03182 -6.87822,10.25164 -19.43368,8.07044 z"
     id="path35"
     style="fill:#343739;fill-rule:nonzero;stroke:#343739;stroke-width:0.10911898" />
  <path
     d="m 186.69438,296.75226 0,0 0,17.12242 18.3419,-4.58052 16.04917,-9.16104 10.26273,-16.03182 3.4937,-20.61234 -4.58548,-22.79354 -9.17095,-16.03182 -16.04917,-10.3607 -18.3419,-3.38086 0,16.03182 10.26273,2.29026 9.17095,6.87078 6.87822,11.4513 1.20096,14.83216 -1.20096,16.03182 -6.87822,10.25164 -19.43368,8.07044 z"
     id="path39"
     style="fill:none;stroke:#343739;stroke-width:4.58299732;stroke-linecap:butt;stroke-linejoin:round" />
  <path
     d="m 31.989154,313.87468 0,0 0,-100.66238 29.805594,0 18.341904,67.50814 18.341904,-67.50814 29.805594,0 0,100.66238 -18.3419,0 -1.20096,-78.95944 -20.634644,78.95944 -17.140946,0 -19.433684,-78.95944 0,78.95944 -19.542862,0 z"
     id="path43"
     style="fill:#343739;fill-rule:nonzero;stroke:#343739;stroke-width:0.10911898" />
  <path
     d="m 31.989154,313.87468 0,0 0,-100.66238 29.805594,0 18.341904,67.50814 18.341904,-67.50814 29.805594,0 0,100.66238 -18.3419,0 -1.20096,-78.95944 -20.634644,78.95944 -17.140946,0 -19.433684,-78.95944 0,78.95944 -19.542862,0 z"
     id="path47"
     style="fill:none;stroke:#343739;stroke-width:4.58299732;stroke-linecap:butt;stroke-linejoin:round" />
  <path
     d="m 199.24985,423.80716 0,0 0,26.28346 9.17095,11.4513 14.95739,21.70294 25.22012,0 -13.75643,-19.41268 -11.46369,-17.12242 -10.37191,-8.07044 11.46369,-3.38086 8.07917,-5.78018 5.67726,-9.16104 1.20095,-10.25164 -4.58547,-16.03182 -4.58548,-6.87078 -6.87821,-3.48992 -24.12834,-2.29026 0,17.23148 9.17095,0 8.07917,4.58052 2.29274,7.96138 -2.29274,8.07044 -5.78643,4.58052 -11.46369,0 z"
     id="path51"
     style="fill:#2b3237;fill-rule:nonzero;stroke:#2b3237;stroke-width:0.10911898" />
  <path
     d="m 199.24985,423.80716 0,0 0,26.28346 9.17095,11.4513 14.95739,21.70294 25.22012,0 -13.75643,-19.41268 -11.46369,-17.12242 -10.37191,-8.07044 11.46369,-3.38086 8.07917,-5.78018 5.67726,-9.16104 1.20095,-10.25164 -4.58547,-16.03182 -4.58548,-6.87078 -6.87821,-3.48992 -24.12834,-2.29026 0,17.23148 9.17095,0 8.07917,4.58052 2.29274,7.96138 -2.29274,8.07044 -5.78643,4.58052 -11.46369,0 z"
     id="path55"
     style="fill:none;stroke:#2b3237;stroke-width:4.58299732;stroke-linecap:butt;stroke-linejoin:round" />
  <path
     d="m 199.24985,398.6143 0,0 0,-17.23148 0,0 -43.45284,0 0,101.86204 20.52546,0 0,-42.31528 4.58548,0 10.37191,1.19966 5.67725,4.58052 2.29274,3.38086 0,-26.28346 -6.87821,0 -16.04917,0 0,-25.19286 16.04917,0 6.87821,0 z"
     id="path59"
     style="fill:#2b3237;fill-rule:nonzero;stroke:#2b3237;stroke-width:0.10911898" />
  <path
     d="m 199.24985,398.6143 0,0 0,-17.23148 0,0 -43.45284,0 0,101.86204 20.52546,0 0,-42.31528 4.58548,0 10.37191,1.19966 5.67725,4.58052 2.29274,3.38086 0,-26.28346 -6.87821,0 -16.04917,0 0,-25.19286 16.04917,0 6.87821,0 z"
     id="path63"
     style="fill:none;stroke:#2b3237;stroke-width:4.58299732;stroke-linecap:butt;stroke-linejoin:round" />
  <path
     d="m 258.86104,483.24486 0,0 0,-101.86204 75.66035,0 0,17.23148 -55.02571,0 0,22.9026 50.44024,0 0,17.12242 -50.44024,0 0,27.48312 57.20927,0 0,17.12242 -77.84391,0 z"
     id="path67"
     style="fill:#2b3237;fill-rule:nonzero;stroke:#2b3237;stroke-width:0.10911898" />
  <path
     d="m 258.86104,483.24486 0,0 0,-101.86204 75.66035,0 0,17.23148 -55.02571,0 0,22.9026 50.44024,0 0,17.12242 -50.44024,0 0,27.48312 57.20927,0 0,17.12242 -77.84391,0 z"
     id="path71"
     style="fill:none;stroke:#2b3237;stroke-width:4.58299732;stroke-linecap:butt;stroke-linejoin:round" />
  <path
     d="m 353.95508,483.24486 0,0 0,-100.66238 21.72642,0 0,83.53996 51.53201,0 0,17.12242 -73.25843,0 z"
     id="path75"
     style="fill:#2b3237;fill-rule:nonzero;stroke:#2b3237;stroke-width:0.10911898" />
  <path
     d="m 353.95508,483.24486 0,0 0,-100.66238 21.72642,0 0,83.53996 51.53201,0 0,17.12242 -73.25843,0 z"
     id="path79"
     style="fill:none;stroke:#2b3237;stroke-width:4.58299732;stroke-linecap:butt;stroke-linejoin:round" />
  <path
     d="m 342.49139,212.01264 0,0 20.63464,0 0,54.96624 1.09178,17.12242 2.29274,4.58052 3.49369,4.58052 13.75643,3.48992 12.55547,-2.29026 5.78643,-9.16104 1.09178,-17.23148 0,-56.05684 20.63465,0 0,52.67598 -1.20096,26.28346 -6.76904,12.65096 -11.46369,7.96138 -19.54286,3.48992 -21.72642,-3.48992 -12.66465,-9.16104 -5.67726,-10.25164 -2.29273,-26.39252 0,-53.76658 z"
     id="path83"
     style="fill:#343739;fill-rule:nonzero;stroke:#343739;stroke-width:0.10911898" />
  <path
     d="m 342.49139,212.01264 0,0 20.63464,0 0,54.96624 1.09178,17.12242 2.29274,4.58052 3.49369,4.58052 13.75643,3.48992 12.55547,-2.29026 5.78643,-9.16104 1.09178,-17.23148 0,-56.05684 20.63465,0 0,52.67598 -1.20096,26.28346 -6.76904,12.65096 -11.46369,7.96138 -19.54286,3.48992 -21.72642,-3.48992 -12.66465,-9.16104 -5.67726,-10.25164 -2.29273,-26.39252 0,-53.76658 z"
     id="path87"
     style="fill:none;stroke:#343739;stroke-width:4.58299732;stroke-linecap:butt;stroke-linejoin:round" />
  <path
     d="m 245.10461,312.78408 0,0 0,-100.77144 19.43368,0 42.47025,67.50814 0,-67.50814 19.43368,0 0,100.77144 -21.72642,0 -40.17751,-65.21788 0,65.21788 -19.43368,0 z"
     id="path91"
     style="fill:#2b3237;fill-rule:nonzero;stroke:#2b3237;stroke-width:0.10911898" />
  <path
     d="m 245.10461,312.78408 0,0 0,-100.77144 19.43368,0 42.47025,67.50814 0,-67.50814 19.43368,0 0,100.77144 -21.72642,0 -40.17751,-65.21788 0,65.21788 -19.43368,0 z"
     id="path95"
     style="fill:none;stroke:#2b3237;stroke-width:4.58299732;stroke-linecap:butt;stroke-linejoin:round" />
  <path
     d="m 450.14089,313.87468 0,0 0,-100.66238 28.71382,0 19.43368,67.50814 18.34191,-67.50814 29.80559,0 0,100.66238 -18.3419,0 -1.20096,-78.95944 -20.63464,78.95944 -17.14095,0 -20.63464,-78.95944 0,78.95944 -18.34191,0 z"
     id="path99"
     style="fill:#343739;fill-rule:nonzero;stroke:#343739;stroke-width:0.10911898" />
  <path
     d="m 450.14089,313.87468 0,0 0,-100.66238 28.71382,0 19.43368,67.50814 18.34191,-67.50814 29.80559,0 0,100.66238 -18.3419,0 -1.20096,-78.95944 -20.63464,78.95944 -17.14095,0 -20.63464,-78.95944 0,78.95944 -18.34191,0 z"
     id="path103"
     style="fill:none;stroke:#343739;stroke-width:4.58299732;stroke-linecap:butt;stroke-linejoin:round" />
</svg>
