<?xml version="1.0" encoding="UTF-8" standalone="no"?>
<!-- Created with Inkscape (http://www.inkscape.org/) -->

<svg
   xmlns:dc="http://purl.org/dc/elements/1.1/"
   xmlns:cc="http://creativecommons.org/ns#"
   xmlns:rdf="http://www.w3.org/1999/02/22-rdf-syntax-ns#"
   xmlns:svg="http://www.w3.org/2000/svg"
   xmlns="http://www.w3.org/2000/svg"
   xmlns:sodipodi="http://sodipodi.sourceforge.net/DTD/sodipodi-0.dtd"
   xmlns:inkscape="http://www.inkscape.org/namespaces/inkscape"
   version="1.1"
   width="100%"
   height="100%"
   id="svg2"
   inkscape:version="0.47 r22583"
   sodipodi:docname="resource-electricity.svg">
  <metadata
     id="metadata26">
    <rdf:RDF>
      <cc:Work
         rdf:about="">
        <dc:format>image/svg+xml</dc:format>
        <dc:type
           rdf:resource="http://purl.org/dc/dcmitype/StillImage" />
      </cc:Work>
    </rdf:RDF>
  </metadata>
  <sodipodi:namedview
     pagecolor="#ffffff"
     bordercolor="#666666"
     borderopacity="1"
     objecttolerance="10"
     gridtolerance="10"
     guidetolerance="10"
     inkscape:pageopacity="0"
     inkscape:pageshadow="2"
     inkscape:window-width="656"
     inkscape:window-height="489"
     id="namedview24"
     showgrid="false"
     inkscape:zoom="0.22425739"
     inkscape:cx="372.04724"
     inkscape:cy="526.18109"
     inkscape:window-x="0"
     inkscape:window-y="0"
     inkscape:window-maximized="0"
     inkscape:current-layer="g13" />
  <defs
     id="defs459">
    <inkscape:perspective
       sodipodi:type="inkscape:persp3d"
       inkscape:vp_x="0 : 0.5 : 1"
       inkscape:vp_y="0 : 1000 : 0"
       inkscape:vp_z="1 : 0.5 : 1"
       inkscape:persp3d-origin="0.5 : 0.33333333 : 1"
       id="perspective28" />
    <clipPath
       id="clippath0">
      <path
         d="m 0,0 0,6098 5235,0 0,-6098 z"
         id="path9" />
    </clipPath>
  </defs>
  <g
     transform="scale(0.109178,0.10906)"
     id="g13"
     style="fill:none;stroke:#303b43;stroke-width:42;stroke-linecap:butt;stroke-linejoin:round">
    <path
       d="m 31,6058 0,0 0,-5153 5173,0 0,5153 -5173,0 z"
       id="path15"
       style="fill:#ffffff;fill-opacity:1" />
  </g>
  <g
     transform="scale(0.109178,0.10906)"
     id="g17"
     style="fill:#303b43;fill-rule:nonzero;stroke:#303b43;stroke-width:1">
    <path
       d="m 1731,895 0,0 0,-871 1742,0 0,871 -1742,0 z"
       id="path19" />
  </g>
  <g
     transform="scale(0.109178,0.10906)"
     id="g21"
     style="fill:none;stroke:#303b43;stroke-width:42;stroke-linecap:butt;stroke-linejoin:round">
    <path
       d="m 1731,895 0,0 0,-871 1742,0 0,871 -1742,0 z"
       id="path23" />
  </g>
  <g
     transform="scale(0.109178,0.10906)"
     id="g25"
     style="fill:none;stroke:#303b43;stroke-width:42;stroke-linecap:butt;stroke-linejoin:round">
    <path
       d="m 2056,4452 0,703"
       id="path27" />
  </g>
  <g
     transform="scale(0.109178,0.10906)"
     id="g29"
     style="fill:none;stroke:#303b43;stroke-width:42;stroke-linecap:butt;stroke-linejoin:round">
    <path
       d="m 3137,4452 0,703"
       id="path31" />
  </g>
  <g
     transform="scale(0.109178,0.10906)"
     id="g33"
     style="fill:none;stroke:#303b43;stroke-width:42;stroke-linecap:butt;stroke-linejoin:round">
    <path
       d="m 2056,5155 63,221 116,157 178,95 178,21 189,-21 168,-95 126,-157 73,-231"
       id="path35" />
  </g>
  <g
     transform="scale(0.109178,0.10906)"
     id="g37"
     style="fill:none;stroke:#303b43;stroke-width:42;stroke-linecap:butt;stroke-linejoin:round">
    <path
       d="m 3452,4075 199,-158 168,-189 115,-199 95,-221 42,-220 10,-115 11,-116 -11,-105 -10,-126 -53,-210 -84,-209 -104,-200 -137,-168 -178,-157 -189,-137 -221,-94 -241,-52 -262,-32 -126,11 -137,10 -241,63 -220,94 -189,137 -168,157 -136,168 -116,189 -84,220 -52,210 -21,231 10,116 0,115 53,220 94,210 116,210 167,189 210,168"
       id="path39" />
  </g>
  <g
     transform="scale(0.109178,0.10906)"
     id="g41"
     style="fill:none;stroke:#303b43;stroke-width:42;stroke-linecap:butt;stroke-linejoin:round">
    <path
       d="m 2067,4473 -126,-231 -84,-83 -95,-74"
       id="path43" />
  </g>
  <g
     transform="scale(0.109178,0.10906)"
     id="g45"
     style="fill:none;stroke:#303b43;stroke-width:42;stroke-linecap:butt;stroke-linejoin:round">
    <path
       d="m 3137,4463 105,-210 84,-84 147,-105"
       id="path47" />
  </g>
</svg>
