<?xml version="1.0" encoding="UTF-8" standalone="no"?>
<!-- Created with Inkscape (http://www.inkscape.org/) -->

<svg
   xmlns:dc="http://purl.org/dc/elements/1.1/"
   xmlns:cc="http://creativecommons.org/ns#"
   xmlns:rdf="http://www.w3.org/1999/02/22-rdf-syntax-ns#"
   xmlns:svg="http://www.w3.org/2000/svg"
   xmlns="http://www.w3.org/2000/svg"
   xmlns:sodipodi="http://sodipodi.sourceforge.net/DTD/sodipodi-0.dtd"
   xmlns:inkscape="http://www.inkscape.org/namespaces/inkscape"
   version="1.1"
   width="100%"
   height="100%"
   id="svg2"
   inkscape:version="0.47 r22583"
   sodipodi:docname="resource-gas.svg">
  <metadata
     id="metadata30">
    <rdf:RDF>
      <cc:Work
         rdf:about="">
        <dc:format>image/svg+xml</dc:format>
        <dc:type
           rdf:resource="http://purl.org/dc/dcmitype/StillImage" />
      </cc:Work>
    </rdf:RDF>
  </metadata>
  <sodipodi:namedview
     pagecolor="#ffffff"
     bordercolor="#666666"
     borderopacity="1"
     objecttolerance="10"
     gridtolerance="10"
     guidetolerance="10"
     inkscape:pageopacity="0"
     inkscape:pageshadow="2"
     inkscape:window-width="656"
     inkscape:window-height="489"
     id="namedview28"
     showgrid="false"
     inkscape:zoom="0.22425739"
     inkscape:cx="372.04724"
     inkscape:cy="526.18109"
     inkscape:window-x="0"
     inkscape:window-y="0"
     inkscape:window-maximized="0"
     inkscape:current-layer="svg2" />
  <defs
     id="defs467">
    <inkscape:perspective
       sodipodi:type="inkscape:persp3d"
       inkscape:vp_x="0 : 0.5 : 1"
       inkscape:vp_y="0 : 1000 : 0"
       inkscape:vp_z="1 : 0.5 : 1"
       inkscape:persp3d-origin="0.5 : 0.33333333 : 1"
       id="perspective32" />
    <clipPath
       id="clippath0">
      <path
         d="m 0,0 0,6098 5235,0 0,-6098 z"
         id="path9" />
    </clipPath>
  </defs>
  <path
     style="fill:#ffffff;stroke:#32444d;stroke-width:4.58299731999999960;stroke-linecap:butt;stroke-linejoin:round;fill-opacity:1"
     id="path15"
     d="m 3.384518,660.68548 0,0 0,-561.98618 564.777792,0 0,561.98618 -564.777792,0 z" />
  <g
     transform="scale(0.109178,0.10906)"
     id="g17"
     style="fill:#32444d;fill-rule:nonzero;stroke:#32444d;stroke-width:1">
    <path
       d="m 1731,895 0,0 0,-871 1742,0 0,871 -1742,0 z"
       id="path19" />
  </g>
  <g
     transform="scale(0.109178,0.10906)"
     id="g21"
     style="fill:none;stroke:#32444d;stroke-width:42;stroke-linecap:butt;stroke-linejoin:round">
    <path
       d="m 1731,895 0,0 0,-871 1742,0 0,871 -1742,0 z"
       id="path23" />
  </g>
  <g
     transform="scale(0.109178,0.10906)"
     id="g25"
     style="fill:#32444d;fill-rule:nonzero;stroke:#32444d;stroke-width:1">
    <path
       d="m 2570,3120 0,0 -21,-378 -147,0 -409,1144 242,0 94,-263 220,0 0,-189 -157,0 136,-419 42,105 z"
       id="path27" />
  </g>
  <g
     transform="scale(0.109178,0.10906)"
     id="g29"
     style="fill:none;stroke:#32444d;stroke-width:42;stroke-linecap:butt;stroke-linejoin:round">
    <path
       d="m 2570,3120 0,0 -21,-378 -147,0 -409,1144 242,0 94,-263 220,0 0,-189 -157,0 136,-419 42,105 z"
       id="path31" />
  </g>
  <g
     transform="scale(0.109178,0.10906)"
     id="g33"
     style="fill:#32444d;fill-rule:nonzero;stroke:#32444d;stroke-width:1">
    <path
       d="m 2570,3434 0,0 0,189 179,0 94,263 252,0 -430,-1144 -95,0 0,378 126,314 -126,0 z"
       id="path35" />
  </g>
  <g
     transform="scale(0.109178,0.10906)"
     id="g37"
     style="fill:none;stroke:#32444d;stroke-width:42;stroke-linecap:butt;stroke-linejoin:round">
    <path
       d="m 2570,3434 0,0 0,189 179,0 94,263 252,0 -430,-1144 -95,0 0,378 126,314 -126,0 z"
       id="path39" />
  </g>
  <g
     transform="scale(0.109178,0.10906)"
     id="g41"
     style="fill:#32444d;fill-rule:nonzero;stroke:#32444d;stroke-width:1">
    <path
       d="m 1374,3476 0,0 0,-189 493,0 0,431 -210,115 -272,63 -168,-21 -137,-52 -115,-95 -84,-115 -42,-147 -21,-147 21,-168 52,-136 95,-126 115,-84 126,-42 147,-21 189,31 136,63 95,105 63,137 -231,42 -84,-126 -168,-53 -136,21 -105,74 -63,115 -21,157 21,168 63,126 105,74 126,21 147,-21 125,-63 0,-137 -262,0 z"
       id="path43" />
  </g>
  <g
     transform="scale(0.109178,0.10906)"
     id="g45"
     style="fill:none;stroke:#32444d;stroke-width:42;stroke-linecap:butt;stroke-linejoin:round">
    <path
       d="m 1374,3476 0,0 0,-189 493,0 0,431 -210,115 -272,63 -168,-21 -137,-52 -115,-95 -84,-115 -42,-147 -21,-147 21,-168 52,-136 95,-126 115,-84 126,-42 147,-21 189,31 136,63 95,105 63,137 -231,42 -84,-126 -168,-53 -136,21 -105,74 -63,115 -21,157 21,168 63,126 105,74 126,21 147,-21 125,-63 0,-137 -262,0 z"
       id="path47" />
  </g>
  <g
     transform="scale(0.109178,0.10906)"
     id="g49"
     style="fill:#344b56;fill-rule:nonzero;stroke:#344b56;stroke-width:1">
    <path
       d="m 4281,3046 0,0 -661,577 682,11 -11,252 -1028,0 0,-231 734,-630 -734,0 0,-283 1007,0 11,304 z"
       id="path51" />
  </g>
  <g
     transform="scale(0.109178,0.10906)"
     id="g53"
     style="fill:none;stroke:#344b56;stroke-width:42;stroke-linecap:butt;stroke-linejoin:round">
    <path
       d="m 4281,3046 0,0 -661,577 682,11 -11,252 -1028,0 0,-231 734,-630 -734,0 0,-283 1007,0 11,304 z"
       id="path55" />
  </g>
</svg>
