<?xml version="1.0" encoding="UTF-8" standalone="no"?>
<!-- Created with Inkscape (http://www.inkscape.org/) -->

<svg
   xmlns:dc="http://purl.org/dc/elements/1.1/"
   xmlns:cc="http://creativecommons.org/ns#"
   xmlns:rdf="http://www.w3.org/1999/02/22-rdf-syntax-ns#"
   xmlns:svg="http://www.w3.org/2000/svg"
   xmlns="http://www.w3.org/2000/svg"
   xmlns:sodipodi="http://sodipodi.sourceforge.net/DTD/sodipodi-0.dtd"
   xmlns:inkscape="http://www.inkscape.org/namespaces/inkscape"
   version="1.1"
   width="100%"
   height="100%"
   id="svg2"
   inkscape:version="0.47 r22583"
   sodipodi:docname="resource-water.svg">
  <metadata
     id="metadata22">
    <rdf:RDF>
      <cc:Work
         rdf:about="">
        <dc:format>image/svg+xml</dc:format>
        <dc:type
           rdf:resource="http://purl.org/dc/dcmitype/StillImage" />
      </cc:Work>
    </rdf:RDF>
  </metadata>
  <sodipodi:namedview
     pagecolor="#ffffff"
     bordercolor="#666666"
     borderopacity="1"
     objecttolerance="10"
     gridtolerance="10"
     guidetolerance="10"
     inkscape:pageopacity="0"
     inkscape:pageshadow="2"
     inkscape:window-width="656"
     inkscape:window-height="489"
     id="namedview20"
     showgrid="false"
     inkscape:zoom="0.22425739"
     inkscape:cx="372.04724"
     inkscape:cy="526.18109"
     inkscape:window-x="0"
     inkscape:window-y="0"
     inkscape:window-maximized="0"
     inkscape:current-layer="svg2" />
  <defs
     id="defs459">
    <inkscape:perspective
       sodipodi:type="inkscape:persp3d"
       inkscape:vp_x="0 : 0.5 : 1"
       inkscape:vp_y="0 : 1000 : 0"
       inkscape:vp_z="1 : 0.5 : 1"
       inkscape:persp3d-origin="0.5 : 0.33333333 : 1"
       id="perspective24" />
    <clipPath
       id="clippath0">
      <path
         d="m 0,0 0,6098 5235,0 0,-6098 z"
         id="path9" />
    </clipPath>
  </defs>
  <path
     style="fill:#ffffff;stroke:#303b43;stroke-width:4.58299731999999960;stroke-linecap:butt;stroke-linejoin:round;fill-opacity:1"
     id="path15"
     d="m 3.384518,660.68548 0,0 0,-561.98618 564.777792,0 0,561.98618 -564.777792,0 z" />
  <g
     transform="scale(0.109178,0.10906)"
     id="g25"
     style="fill:#303b43;fill-rule:nonzero;stroke:#303b43;stroke-width:1">
    <path
       d="m 2759,2700 0,0 0,-357 -556,0 0,-94 1249,0 0,94 -577,0 0,367 -116,-10 z"
       id="path27" />
  </g>
  <g
     transform="scale(0.109178,0.10906)"
     id="g29"
     style="fill:none;stroke:#303b43;stroke-width:42;stroke-linecap:butt;stroke-linejoin:round">
    <path
       d="m 2759,2700 0,0 0,-357 -556,0 0,-94 1249,0 0,94 -577,0 0,367 -116,-10 z"
       id="path31" />
  </g>
  <g
     transform="scale(0.109178,0.10906)"
     id="g33"
     style="fill:#303b43;fill-rule:nonzero;stroke:#303b43;stroke-width:1">
    <path
       d="m 619,2700 0,0 2602,0 0,115 -2602,0 0,-115 z"
       id="path35" />
  </g>
  <g
     transform="scale(0.109178,0.10906)"
     id="g37"
     style="fill:none;stroke:#303b43;stroke-width:42;stroke-linecap:butt;stroke-linejoin:round">
    <path
       d="m 619,2700 0,0 2602,0 0,115 -2602,0 0,-115 z"
       id="path39" />
  </g>
  <g
     transform="scale(0.109178,0.10906)"
     id="g41"
     style="fill:#303b43;fill-rule:nonzero;stroke:#303b43;stroke-width:1">
    <path
       d="m 3210,2700 0,0 74,0 84,10 73,21 84,21 53,21 84,11 84,52 73,32 84,52 73,42 74,63 63,42 63,63 52,74 63,63 63,83 42,74 42,84 42,73 32,105 21,84 31,84 11,84 10,95 0,63 0,146 -115,0 0,-136 -11,-105 -10,-73 -21,-84 -32,-105 -21,-63 -21,-63 -52,-74 -21,-63 -63,-73 -42,-63 -53,-63 -52,-73 -74,-53 -63,-63 -83,-63 -74,-42 -94,-52 -63,-32 -74,-21 -94,-31 -53,-11 -73,-10 -116,-11 0,-115 z"
       id="path43" />
  </g>
  <g
     transform="scale(0.109178,0.10906)"
     id="g45"
     style="fill:none;stroke:#303b43;stroke-width:42;stroke-linecap:butt;stroke-linejoin:round">
    <path
       d="m 3210,2700 0,0 74,0 84,10 73,21 84,21 53,21 84,11 84,52 73,32 84,52 73,42 74,63 63,42 63,63 52,74 63,63 63,83 42,74 42,84 42,73 32,105 21,84 31,84 11,84 10,95 0,63 0,146 -115,0 0,-136 -11,-105 -10,-73 -21,-84 -32,-105 -21,-63 -21,-63 -52,-74 -21,-63 -63,-73 -42,-63 -53,-63 -52,-73 -74,-53 -63,-63 -83,-63 -74,-42 -94,-52 -63,-32 -74,-21 -94,-31 -53,-11 -73,-10 -116,-11 0,-115 z"
       id="path47" />
  </g>
</svg>
