<?xml version="1.0" encoding="UTF-8" standalone="no"?>
<svg
   xmlns:dc="http://purl.org/dc/elements/1.1/"
   xmlns:cc="http://creativecommons.org/ns#"
   xmlns:rdf="http://www.w3.org/1999/02/22-rdf-syntax-ns#"
   xmlns:svg="http://www.w3.org/2000/svg"
   xmlns="http://www.w3.org/2000/svg"
   xmlns:sodipodi="http://sodipodi.sourceforge.net/DTD/sodipodi-0.dtd"
   xmlns:inkscape="http://www.inkscape.org/namespaces/inkscape"
   version="1.1"
   width="100%"
   height="100%"
   id="svg2"
   inkscape:version="0.47 r22583"
   sodipodi:docname="shops.svg">
  <metadata
     id="metadata19">
    <rdf:RDF>
      <cc:Work
         rdf:about="">
        <dc:format>image/svg+xml</dc:format>
        <dc:type
           rdf:resource="http://purl.org/dc/dcmitype/StillImage" />
      </cc:Work>
    </rdf:RDF>
  </metadata>
  <sodipodi:namedview
     pagecolor="#ffffff"
     bordercolor="#666666"
     borderopacity="1"
     objecttolerance="10"
     gridtolerance="10"
     guidetolerance="10"
     inkscape:pageopacity="0"
     inkscape:pageshadow="2"
     inkscape:window-width="656"
     inkscape:window-height="489"
     id="namedview17"
     showgrid="false"
     inkscape:zoom="0.22425739"
     inkscape:cx="372.04724"
     inkscape:cy="526.18109"
     inkscape:window-x="0"
     inkscape:window-y="0"
     inkscape:window-maximized="0"
     inkscape:current-layer="svg2" />
  <defs
     id="defs59">
    <inkscape:perspective
       sodipodi:type="inkscape:persp3d"
       inkscape:vp_x="0 : 0.5 : 1"
       inkscape:vp_y="0 : 1000 : 0"
       inkscape:vp_z="1 : 0.5 : 1"
       inkscape:persp3d-origin="0.5 : 0.33333333 : 1"
       id="perspective21" />
    <clipPath
       id="clippath0">
      <path
         d="m 0,0 0,6098 5235,0 0,-6098 z"
         id="path9" />
    </clipPath>
  </defs>
  <path
     d="m 3.384518,660.68548 0,0 0,-561.98618 564.777792,0 0,561.98618 -564.777792,0 z"
     id="path15"
     style="fill:#ffffff;stroke:#303b43;stroke-width:4.58299731999999960;stroke-linecap:butt;stroke-linejoin:round;fill-opacity:1" />
  <path
     d="m 188.98712,97.6087 0,0 0,-94.99126 190.18807,0 0,94.99126 -190.18807,0 z"
     id="path19"
     style="fill:#303b43;fill-rule:nonzero;stroke:#303b43;stroke-width:0.10911898" />
  <path
     d="m 188.98712,97.6087 0,0 0,-94.99126 190.18807,0 0,94.99126 -190.18807,0 z"
     id="path23"
     style="fill:none;stroke:#303b43;stroke-width:4.58299732;stroke-linecap:butt;stroke-linejoin:round" />
  <path
     d="m 83.630348,300.13312 0,0 28.604632,0 0,75.57858 1.09178,22.9026 2.29274,6.87078 5.78644,6.87078 18.3419,4.58052 18.3419,-4.58052 6.87822,-11.4513 2.29274,-24.10226 0,-76.66918 27.40367,0 0,73.28832 -1.09178,34.3539 -9.17095,18.32208 -16.04916,10.25164 -27.51286,4.58052 -29.80559,-4.58052 -17.14095,-11.4513 -8.079172,-14.83216 -2.18356,-36.64416 0,-73.28832 z"
     id="path27"
     style="fill:#303b43;fill-rule:nonzero;stroke:#303b43;stroke-width:0.10911898" />
  <path
     d="m 83.630348,300.13312 0,0 28.604632,0 0,75.57858 1.09178,22.9026 2.29274,6.87078 5.78644,6.87078 18.3419,4.58052 18.3419,-4.58052 6.87822,-11.4513 2.29274,-24.10226 0,-76.66918 27.40367,0 0,73.28832 -1.09178,34.3539 -9.17095,18.32208 -16.04916,10.25164 -27.51286,4.58052 -29.80559,-4.58052 -17.14095,-11.4513 -8.079172,-14.83216 -2.18356,-36.64416 0,-73.28832 z"
     id="path31"
     style="fill:none;stroke:#303b43;stroke-width:4.58299732;stroke-linecap:butt;stroke-linejoin:round" />
  <path
     d="m 255.36734,438.63932 0,0 0,-114.40394 -41.1601,0 0,-24.10226 109.94224,0 0,24.10226 -41.26928,0 0,114.40394 -27.51286,0 z"
     id="path35"
     style="fill:#303b43;fill-rule:nonzero;stroke:#303b43;stroke-width:0.10911898" />
  <path
     d="m 255.36734,438.63932 0,0 0,-114.40394 -41.1601,0 0,-24.10226 109.94224,0 0,24.10226 -41.26928,0 0,114.40394 -27.51286,0 z"
     id="path39"
     style="fill:none;stroke:#303b43;stroke-width:4.58299732;stroke-linecap:butt;stroke-linejoin:round" />
  <path
     d="m 342.49139,438.63932 0,0 0,-138.5062 27.51285,0 0,138.5062 -27.51285,0 z"
     id="path43"
     style="fill:#303b43;fill-rule:nonzero;stroke:#303b43;stroke-width:0.10911898" />
  <path
     d="m 342.49139,438.63932 0,0 0,-138.5062 27.51285,0 0,138.5062 -27.51285,0 z"
     id="path47"
     style="fill:none;stroke:#303b43;stroke-width:4.58299732;stroke-linecap:butt;stroke-linejoin:round" />
  <path
     d="m 397.5171,438.63932 0,0 0,-138.5062 27.40368,0 0,114.513 71.07487,0 0,23.9932 -98.47855,0 z"
     id="path51"
     style="fill:#303b43;fill-rule:nonzero;stroke:#303b43;stroke-width:0.10911898" />
  <path
     d="m 397.5171,438.63932 0,0 0,-138.5062 27.40368,0 0,114.513 71.07487,0 0,23.9932 -98.47855,0 z"
     id="path55"
     style="fill:none;stroke:#303b43;stroke-width:4.58299732;stroke-linecap:butt;stroke-linejoin:round" />
</svg>
