<?xml version="1.0" encoding="UTF-8" standalone="no"?>
<!-- Created with Inkscape (http://www.inkscape.org/) -->

<svg
   xmlns:dc="http://purl.org/dc/elements/1.1/"
   xmlns:cc="http://creativecommons.org/ns#"
   xmlns:rdf="http://www.w3.org/1999/02/22-rdf-syntax-ns#"
   xmlns:svg="http://www.w3.org/2000/svg"
   xmlns="http://www.w3.org/2000/svg"
   xmlns:sodipodi="http://sodipodi.sourceforge.net/DTD/sodipodi-0.dtd"
   xmlns:inkscape="http://www.inkscape.org/namespaces/inkscape"
   version="1.1"
   width="100%"
   height="100%"
   id="svg2"
   inkscape:version="0.47 r22583"
   sodipodi:docname="transportation-naval.svg">
  <metadata
     id="metadata50">
    <rdf:RDF>
      <cc:Work
         rdf:about="">
        <dc:format>image/svg+xml</dc:format>
        <dc:type
           rdf:resource="http://purl.org/dc/dcmitype/StillImage" />
      </cc:Work>
    </rdf:RDF>
  </metadata>
  <sodipodi:namedview
     pagecolor="#ffffff"
     bordercolor="#666666"
     borderopacity="1"
     objecttolerance="10"
     gridtolerance="10"
     guidetolerance="10"
     inkscape:pageopacity="0"
     inkscape:pageshadow="2"
     inkscape:window-width="656"
     inkscape:window-height="489"
     id="namedview48"
     showgrid="false"
     inkscape:zoom="0.22425739"
     inkscape:cx="372.04724"
     inkscape:cy="526.18109"
     inkscape:window-x="0"
     inkscape:window-y="0"
     inkscape:window-maximized="0"
     inkscape:current-layer="svg2" />
  <defs
     id="defs507">
    <inkscape:perspective
       sodipodi:type="inkscape:persp3d"
       inkscape:vp_x="0 : 0.5 : 1"
       inkscape:vp_y="0 : 1000 : 0"
       inkscape:vp_z="1 : 0.5 : 1"
       inkscape:persp3d-origin="0.5 : 0.33333333 : 1"
       id="perspective52" />
    <clipPath
       id="clippath0">
      <path
         d="m 0,0 0,6098 5235,0 0,-6098 z"
         id="path9" />
    </clipPath>
  </defs>
  <path
     style="fill:#ffffff;stroke:#303b43;stroke-width:4.58299731999999960;stroke-linecap:butt;stroke-linejoin:round;fill-opacity:1"
     id="path15"
     d="m 3.384518,660.68548 0,0 0,-561.98618 564.777792,0 0,561.98618 -564.777792,0 z" />
  <g
     transform="scale(0.109178,0.10906)"
     id="g17"
     style="fill:#303b43;fill-rule:nonzero;stroke:#303b43;stroke-width:1">
    <path
       d="m 1731,895 0,0 0,-871 1742,0 0,881 -1742,-10 z"
       id="path19" />
  </g>
  <g
     transform="scale(0.109178,0.10906)"
     id="g21"
     style="fill:none;stroke:#303b43;stroke-width:42;stroke-linecap:butt;stroke-linejoin:round">
    <path
       d="m 1731,895 0,0 0,-871 1742,0 0,881 -1742,-10 z"
       id="path23" />
  </g>
  <g
     transform="scale(0.109178,0.10906)"
     id="g25"
     style="fill:#303b43;fill-rule:nonzero;stroke:#303b43;stroke-width:1">
    <path
       d="m 2360,2123 0,0 21,115 63,84 74,42 94,10 95,-10 73,-42 63,-84 21,-115 0,-21 -10,-32 -11,-42 -63,-84 -73,-42 -95,-21 -42,11 -42,10 -84,42 -52,74 -32,105 -83,0 21,-137 83,-115 116,-63 126,-21 21,0 42,0 63,21 105,63 73,115 42,137 0,52 -10,32 -21,73 -84,115 -105,63 -126,21 -126,-21 -116,-63 -83,-115 -21,-157 83,0 z"
       id="path27" />
  </g>
  <g
     transform="scale(0.109178,0.10906)"
     id="g29"
     style="fill:none;stroke:#303b43;stroke-width:42;stroke-linecap:butt;stroke-linejoin:round">
    <path
       d="m 2360,2123 0,0 21,115 63,84 74,42 94,10 95,-10 73,-42 63,-84 21,-115 0,-21 -10,-32 -11,-42 -63,-84 -73,-42 -95,-21 -42,11 -42,10 -84,42 -52,74 -32,105 -83,0 21,-137 83,-115 116,-63 126,-21 21,0 42,0 63,21 105,63 73,115 42,137 0,52 -10,32 -21,73 -84,115 -105,63 -126,21 -126,-21 -116,-63 -83,-115 -21,-157 83,0 z"
       id="path31" />
  </g>
  <g
     transform="scale(0.109178,0.10906)"
     id="g33"
     style="fill:#303b43;fill-rule:nonzero;stroke:#303b43;stroke-width:1">
    <path
       d="m 2581,2427 0,0 84,10 0,2299 -84,52 0,-2225 -1102,0 42,63 42,11 1018,73 0,1155 0,692 0,-2130 z"
       id="path35" />
  </g>
  <g
     transform="scale(0.109178,0.10906)"
     id="g37"
     style="fill:none;stroke:#303b43;stroke-width:42;stroke-linecap:butt;stroke-linejoin:round">
    <path
       d="m 2581,2427 0,0 84,10 0,2299 -84,52 0,-2225 -1102,0 42,63 42,11 1018,73 0,1155 0,692 0,-2130 z"
       id="path39" />
  </g>
  <g
     transform="scale(0.109178,0.10906)"
     id="g41"
     style="fill:#303b43;fill-rule:nonzero;stroke:#303b43;stroke-width:1">
    <path
       d="m 2570,4326 0,0 -10,42 -42,53 -42,10 -84,11 -115,10 -105,-21 -147,-52 -294,-189 -231,-220 -21,-42 -63,-42 -94,147 136,178 315,262 178,116 168,84 252,73 136,21 53,0 31,0 42,-105 0,-73 0,-32 0,-42 -21,-126 -42,-63 z"
       id="path43" />
  </g>
  <g
     transform="scale(0.109178,0.10906)"
     id="g45"
     style="fill:none;stroke:#303b43;stroke-width:42;stroke-linecap:butt;stroke-linejoin:round">
    <path
       d="m 2570,4326 0,0 -10,42 -42,53 -42,10 -84,11 -115,10 -105,-21 -147,-52 -294,-189 -231,-220 -21,-42 -63,-42 -94,147 136,178 315,262 178,116 168,84 252,73 136,21 53,0 31,0 42,-105 0,-73 0,-32 0,-42 -21,-126 -42,-63 z"
       id="path47" />
  </g>
  <g
     transform="scale(0.109178,0.10906)"
     id="g49"
     style="fill:#303b43;fill-rule:nonzero;stroke:#303b43;stroke-width:1">
    <path
       d="m 1196,3424 0,0 -21,199 0,116 10,94 11,105 21,95 42,105 21,52 63,-105 73,-147 63,-73 32,-42 -63,-53 -53,-52 -42,-42 -42,-53 -42,-52 -31,-63 -42,-84 z"
       id="path51" />
  </g>
  <g
     transform="scale(0.109178,0.10906)"
     id="g53"
     style="fill:none;stroke:#303b43;stroke-width:42;stroke-linecap:butt;stroke-linejoin:round">
    <path
       d="m 1196,3424 0,0 -21,199 0,116 10,94 11,105 21,95 42,105 21,52 63,-105 73,-147 63,-73 32,-42 -63,-53 -53,-52 -42,-42 -42,-53 -42,-52 -31,-63 -42,-84 z"
       id="path55" />
  </g>
  <g
     transform="scale(0.109178,0.10906)"
     id="g57"
     style="fill:#303b43;fill-rule:nonzero;stroke:#303b43;stroke-width:1">
    <path
       d="m 2686,2427 0,0 -84,10 0,2299 84,52 0,-2225 1102,0 -42,63 -42,11 -1018,73 0,1155 0,692 0,-2130 z"
       id="path59" />
  </g>
  <g
     transform="scale(0.109178,0.10906)"
     id="g61"
     style="fill:none;stroke:#303b43;stroke-width:42;stroke-linecap:butt;stroke-linejoin:round">
    <path
       d="m 2686,2427 0,0 -84,10 0,2299 84,52 0,-2225 1102,0 -42,63 -42,11 -1018,73 0,1155 0,692 0,-2130 z"
       id="path63" />
  </g>
  <g
     transform="scale(0.109178,0.10906)"
     id="g65"
     style="fill:#303b43;fill-rule:nonzero;stroke:#303b43;stroke-width:1">
    <path
       d="m 2696,4326 0,0 11,42 42,53 42,10 84,11 126,10 94,-21 147,-52 283,-189 242,-220 21,-42 63,-42 94,147 -147,178 -294,262 -189,116 -168,84 -251,73 -137,21 -52,0 -21,0 -42,-105 -11,-73 0,-32 0,-42 21,-126 42,-63 z"
       id="path67" />
  </g>
  <g
     transform="scale(0.109178,0.10906)"
     id="g69"
     style="fill:none;stroke:#303b43;stroke-width:42;stroke-linecap:butt;stroke-linejoin:round">
    <path
       d="m 2696,4326 0,0 11,42 42,53 42,10 84,11 126,10 94,-21 147,-52 283,-189 242,-220 21,-42 63,-42 94,147 -147,178 -294,262 -189,116 -168,84 -251,73 -137,21 -52,0 -21,0 -42,-105 -11,-73 0,-32 0,-42 21,-126 42,-63 z"
       id="path71" />
  </g>
  <g
     transform="scale(0.109178,0.10906)"
     id="g73"
     style="fill:#303b43;fill-rule:nonzero;stroke:#303b43;stroke-width:1">
    <path
       d="m 4071,3424 0,0 21,199 0,116 -11,94 -10,105 -21,95 -42,105 -21,52 -53,-105 -83,-147 -63,-73 -32,-42 63,-53 52,-52 42,-42 42,-53 42,-52 32,-63 42,-84 z"
       id="path75" />
  </g>
  <g
     transform="scale(0.109178,0.10906)"
     id="g77"
     style="fill:none;stroke:#303b43;stroke-width:42;stroke-linecap:butt;stroke-linejoin:round">
    <path
       d="m 4071,3424 0,0 21,199 0,116 -11,94 -10,105 -21,95 -42,105 -21,52 -53,-105 -83,-147 -63,-73 -32,-42 63,-53 52,-52 42,-42 42,-53 42,-52 32,-63 42,-84 z"
       id="path79" />
  </g>
  <g
     transform="scale(0.109178,0.10906)"
     id="g81"
     style="fill:#303b43;fill-rule:nonzero;stroke:#303b43;stroke-width:1">
    <path
       d="m 2109,4683 0,0 115,42 126,42 105,21 105,0 73,0 0,-73 -524,-32 z"
       id="path83" />
  </g>
  <g
     transform="scale(0.109178,0.10906)"
     id="g85"
     style="fill:none;stroke:#303b43;stroke-width:42;stroke-linecap:butt;stroke-linejoin:round">
    <path
       d="m 2109,4683 0,0 115,42 126,42 105,21 105,0 73,0 0,-73 -524,-32 z"
       id="path87" />
  </g>
  <g
     transform="scale(0.109178,0.10906)"
     id="g89"
     style="fill:#303b43;fill-rule:nonzero;stroke:#303b43;stroke-width:1">
    <path
       d="m 3158,4683 0,0 -115,42 -116,42 -115,21 -105,0 -74,0 0,-73 525,-32 z"
       id="path91" />
  </g>
  <g
     transform="scale(0.109178,0.10906)"
     id="g93"
     style="fill:none;stroke:#303b43;stroke-width:42;stroke-linecap:butt;stroke-linejoin:round">
    <path
       d="m 3158,4683 0,0 -115,42 -116,42 -115,21 -105,0 -74,0 0,-73 525,-32 z"
       id="path95" />
  </g>
</svg>
