/* XPM */
static const char* xpm_arrow0[]={
"80 16 2 1",
"# c #000000",
". c None",
"................................................................................",
"................................................................................",
"................................................................................",
"................................................................................",
"................................................................................",
"................................................................................",
"............................#######################.............................",
"............................#######################.............................",
"............................#######################.............................",
"................................................................................",
"................................................................................",
"................................................................................",
"................................................................................",
"................................................................................",
"................................................................................",
"................................................................................"};
