/* XPM */
static const char* xpm_crossings[]={
"16 16 8 1",
"c c #cb6a0e",
"b c #ce843c",
"d c #ce8e4f",
"a c #d1a87f",
"e c #d1b292",
"f c #d4ccc0",
". c None",
"# c #fefe00",
"................",
"................",
".............#..",
"............#...",
"...........#....",
"..........#.....",
"..........#.....",
"....abcba#......",
".##adefe#a......",
"...##..#eb......",
"...cf##.fc......",
"...be..###......",
"...adefeda##....",
"....abcba...##..",
"................",
"................"};
