/* XPM */ 
static const char * xpm_objectTypeItineraireLog[] = {
"32 32 6 1",
" 	c None",
"!	c black",
"#	c #6C6C6C",
"$	c #9F9F9F",
"%	c #090909",
"&	c #787878",
"                                ",
"                      !!!       ",
"  !!!!!!!!           !   !      ",
"  !#######!         !     !     ",
"   !!####!!!!!!!!!!!!!!   !     ",
"     !##!!$$$$$$$$$$$$!!  !     ",
"      !#!$!$$$$$$$$$$!$! !      ",
"       !!$$!$$$$$$$$!$$!!       ",
"        !!$$!$$$$$$!$$$!        ",
"        !$$$$!$$$$$!$$$!        ",
"        !$$$$!$$$$!$$$$!        ",
"        !$$$$$!$$!$$$$$!        ",
"        !$$$$$$!!$$$$$$!        ",
"        !$$$$$$!!$$$$$$!        ",
"        !$$$$$!$$!$$$$$!        ",
"        !$$$$!$$$$!$$$$!        ",
"        !$$$!$$$$$$!$$$!        ",
"        !$$$!$$$$$$$!$$!        ",
"        !$$!$$$$$$$$!$$!        ",
"        !$!$$$$$$$$$$!$!        ",
"        !!$$$$$$$$$$$$!!        ",
"         !!!!!!!!!!!!!!        %",
"                              %&",
"     %%%%                     %%",
"   %%&&&&%                   %&%",
"  %&&&%%%&%                  %% ",
"  %&&&%  %&%                %&% ",
" %&&&%    %&%              %&%  ",
" %&&&%    %%&!!          %%&&%  ",
" %&&&%     %&&&%%%%%%%%%%&&&%   ",
"%&&&%       %&&&&&&&&&&&&&%%    ",
"%&&&%        %%%%%%%%%%%%%%     "};
