/* XPM */ 
static const char * xpm_objectTypeCampRefugies[] = {
"32 32 4 1",
" 	c None",
"!	c black",
"#	c #9F9F9F",
"$	c #FF0000",
"                                ",
"                                ",
"                                ",
"                                ",
"                                ",
"                                ",
"                                ",
"                                ",
"                                ",
"              !!!!!             ",
"            !!##$$#!!           ",
"           !####$$###!          ",
"           !##$$$$$$#!          ",
"          !###$$$$$$##!         ",
"          !#####$$####!         ",
"          !###!!$$!###!         ",
"          !#!!     !!#!         ",
"          !!         !!         ",
"!!!!!!!!!!!!         !!!!!!!!!!!",
"##########!           !#########",
"##########!           !#########",
"##########!           !#########",
"##########!           !#########",
"##########!           !#########",
"!!!!!!!!!!!           !!!!!!!!!!",
"##########!           !#########",
"##########!           !#########",
"##########!           !#########",
"##########!           !#########",
"##########!           !#########",
"!!!!!!!!!!!           !!!!!!!!!!",
"          !           !         "};
