/* XPM */ 
static const char * xpm_objectTypeFosseAC[] = {
"32 32 3 1",
" 	c None",
"!	c black",
"#	c #9F9F9F",
"                                ",
"                                ",
"                                ",
"                                ",
"                                ",
"                                ",
"                                ",
"                                ",
"                                ",
"                                ",
"                                ",
"                                ",
"                                ",
"                                ",
"                                ",
"    !!!!!!                      ",
"   !######!!!!!!!!              ",
"   !######!                     ",
"   !######!                     ",
" !!!!!!!!!!!!                   ",
"!############!                  ",
"!############!                  ",
" !!!!!!!!!!!!                   ",
" !##########!                   ",
" !##########!                   ",
"!!!!!!!!!!!!!!!!            !!!!",
"               !           !!   ",
"               !!          !    ",
"                 !!    !!!!!    ",
"                  !!!!!!        ",
"                    !!          ",
"                    !!          "};
