/* XPM */
static const char* xpm_select[]={
"16 16 4 1",
"# c #000000",
"b c #838079",
". c None",
"a c #ffffff",
"....#...........",
"....##..........",
"....#a#.........",
"....#aa#........",
"....#aaa#.......",
"....#aaaa#......",
"....#aaaaa#.....",
"....#aaaaaa#....",
"....#aaaa####...",
"....#aa#a#bbbb..",
"....#a##aa#.....",
"....##bb#a#b....",
"....#bb.#aa#....",
".....b...#a#b...",
".........##bb...",
"..........bb...."};
