/* XPM */
static const char* xpm_smoke[]={
"20 20 20 1",
". c None",
"# c #7b7b7b",
"k c #7c7c7c",
"d c #868686",
"i c #8a8a8a",
"e c #919191",
"l c #949494",
"n c #959595",
"g c #999999",
"o c #a1a1a1",
"p c #a5a5a5",
"q c #a6a6a6",
"m c #b2b2b2",
"a c #bcbcbc",
"j c #bdbdbd",
"h c #bebebe",
"f c #bfbfbf",
"r c #c1c1c1",
"b c #cccccc",
"c c #dddddd",
"..........####......",
".......###aaaa#.....",
".....###aabbbaa#....",
"....#aaa#bbaaaa##...",
"...#abccb#a####aa#..",
"..#abcccba##aaa#aa#.",
"..#abcbbaa#aaccbda#.",
"..#abbaaaa#aacccef#.",
"..#aaaa#####abbcgh#.",
"..#aaa##aa#iaaaajk..",
"..#aa#aaaaailaaa#...",
"...#ambbbbbanoaaa#..",
"....#aabccbajpfa#...",
".....#abccbaaqjb#...",
".....#abcbaaarbb#...",
"......#bcbaaabc#....",
"......#bbbaabcc#....",
".......#aaaabba#....",
"........#aaaaa#.....",
".........#aa##......"};
