/* XPM */
static const char *xpm_IconError[] = {
/* columns rows colors chars-per-pixel */
"32 32 253 2",
"   c #d4d0c8",
".  c #d6d2bd",
":  c #e2df8e",
";  c #d9d7ab",
"'  c #fdfd0e",
"-  c #ffff07",
"_  c #f3f237",
"^  c #cdc9c3",
"~  c #f3f300",
"=  c #f9f600",
"o  c #ffff00",
"+  c #c9c922",
"x  c #8886a8",
"*  c #ebea00",
"!  c #fdfa03",
"?  c #ffff2c",
"|  c #51534f",
"0  c #7776a1",
"#  c #eae600",
"%  c #fff915",
"&  c #ffff68",
"X  c #fffe0d",
"@  c #c6c515",
"/  c #12147c",
"A  c #b5b2b9",
"B  c #e6e255",
"C  c #e5e100",
"D  c #f2eb00",
"E  c #ffff18",
"F  c #ffff22",
"G  c #464655",
"H  c #646498",
"I  c #e9e201",
"J  c #f9f404",
"K  c #ffff11",
"L  c #ffff09",
"M  c #fffd25",
"N  c #fff800",
"O  c #bfba18",
"P  c #050a76",
"Q  c #bebbbd",
"R  c #e7dd00",
"S  c #ffff0e",
"T  c #ffff1c",
"U  c #ffff15",
"V  c #fff500",
"W  c #fffd00",
"X  c #fff503",
"Y  c #ffff13",
"Z  c #fef703",
"a  c #c3b802",
"b  c #b4af1d",
"c  c #e5dc62",
"d  c #f2e300",
"e  c #a7a611",
"f  c #000001",
"g  c #000006",
"h  c #e3e223",
"i  c #fcf000",
"j  c #433854",
"k  c #e9db00",
"l  c #fff003",
"m  c #000009",
"n  c #050031",
"p  c #00002f",
"q  c #604f30",
"r  c #ffff1e",
"s  c #fff300",
"t  c #fffa00",
"u  c #b2a820",
"v  c #c6c3c0",
"w  c #e6d500",
"y  c #ffff0b",
"z  c #000018",
"1  c #15003e",
"2  c #020045",
"3  c #4f3b22",
"4  c #ffed00",
"6  c #ead80a",
"5  c #fae803",
"7  c #100a06",
"8  c #735922",
"9  c #ffff03",
"(  c #ffff24",
")  c #fff700",
"[  c #a29828",
"]  c #1a1c83",
"{  c #e3d76f",
"}  c #f2da01",
" . c #fff70d",
".. c #594915",
":. c #1b0347",
";. c #a89015",
"'. c #fbe500",
"-. c #2f3062",
"_. c #807fa0",
"^. c #ead401",
"~. c #f8e504",
"=. c #fffb13",
"o. c #b4a301",
"+. c #000020",
"x. c #372168",
"*. c #3d274f",
"!. c #e3cc02",
"?. c #ffe700",
"|. c #fff100",
"0. c #e5ce00",
"#. c #fff00d",
"%. c #ffe800",
"&. c #d0bc00",
"X. c #504092",
"@. c #504751",
"/. c #fff411",
"A. c #ffe300",
"B. c #f9e100",
"C. c #323260",
"D. c #e7d111",
"E. c #f3d500",
"F. c #fff50e",
"G. c #ffea05",
"H. c #271822",
"I. c #695bba",
"J. c #ffe400",
"K. c #fade00",
"L. c #ffef00",
"M. c #908031",
"N. c #232a81",
"O. c #cac7c4",
"P. c #e2d57d",
"Q. c #e9cf00",
"R. c #fee708",
"S. c #ffe706",
"T. c #ffea08",
"U. c #f8db00",
"V. c #242765",
"W. c #8c8ba7",
"X. c #ebd20d",
"Y. c #e6ca00",
"Z. c #ffee11",
"a. c #ffe100",
"b. c #8c7b1d",
"c. c #00006a",
"d. c #ccab06",
"e. c #fff716",
"f. c #fff81a",
"g. c #f9d601",
"h. c #98892c",
"i. c #d2cec7",
"j. c #eccd00",
"k. c #fede0b",
"l. c #ffdf00",
"m. c #c6ab0c",
"n. c #ffdd00",
"p. c #fee206",
"q. c #2b2c62",
"r. c #e8c900",
"s. c #f5d101",
"t. c #ffe40a",
"u. c #1d1043",
"v. c #ffdb00",
"w. c #fff91d",
"y. c #2d3183",
"z. c #cecbc5",
"1. c #e2d17a",
"2. c #edca01",
"3. c #ffe20d",
"4. c #ffdc03",
"6. c #bf9f12",
"5. c #ffd600",
"7. c #fcd600",
"8. c #282964",
"9. c #928fa5",
"(. c #eac705",
"). c #e8c600",
"[. c #ffec14",
"]. c #ffd900",
"{. c #ffeb00",
"}. c #fff219",
" : c #fdd500",
".: c #e5bf00",
":: c #ecc600",
";: c #ffe811",
"': c #cba502",
"-: c #000013",
"_: c #ffd500",
"^: c #ffd300",
"~: c #f5ce00",
"=: c #2e2e62",
"o: c #8585a1",
"+: c #e4c324",
"x: c #f1c900",
"*: c #ffe310",
"!: c #ffdd06",
"?: c #241911",
"|: c #ffe914",
"0: c #ffef1c",
"#: c #f9cc00",
"%: c #816b36",
"&: c #dcd09b",
"X: c #eac100",
"@: c #fcd107",
"/: c #311a61",
"A: c #7a625a",
"B: c #ffda05",
"C: c #fecf00",
"D: c #f5c701",
"E: c #13186f",
"F: c #9290a5",
"G: c #e5c959",
"H: c #deb500",
"I: c #1b0869",
"J: c #beb2ff",
"K: c #b89d4f",
"L: c #fed506",
"M: c #f5c901",
"N: c #584e4e",
"O: c #393e82",
"P: c #e5ba00",
"Q: c #f7ca01",
"R: c #ffd100",
"S: c #836921",
"T: c #b3973d",
"U: c #f6c800",
"V: c #f1c500",
"W: c #efc100",
"X: c #887535",
"Y: c #0d1373",
"Z: c #d6ac00",
"a: c #dab100",
"b: c #ddb202",
"c: c #dfb300",
"d: c #e0b400",
"e: c #fccb00",
"f: c #f1c100",
"g: c #e2b600",
"h: c #e3b800",
"i: c #84839c",
"j: c #e1be35",
"k: c #cda400",
"l: c #cda600",
"m: c #cea500",
"n: c #cfa700",
"p: c #9e9ca4",
"q: c #3a376a",
"r: c #313060",
"s: c #323060",
"t: c #32305f",
"u: c #35325d",
"v: c #1c1f6a",
"w: c #50507f",
"y: c #8f8fa8",
"z: c #9290a9",
"1: c #9c9aaa",
/* pixels */
"                            . :                                 ", // Y=  0
"                          ; ' - _ ^                             ", // Y=  1
"                          ~ = o o + x                           ", // Y=  2
"                        _ * ! ? o o | 0                         ", // Y=  3
"                      . # * % & X o @ / A                       ", // Y=  4
"                      B C D E ? F = o G H                       ", // Y=  5
"                      I I J K L M N o O P Q                     ", // Y=  6
"                    B R D S L o T U V W | H                     ", // Y=  7
"                    I I X Y Z a L F Z o b / Q                   ", // Y=  8
"                  c R d S e f f g h Y i W j 0                   ", // Y=  9
"                  R k l Y g m n p q r s t u / v                 ", // Y= 10
"                c w d S y f z 1 2 3 U U 4 s G 0                 ", // Y= 11
"                6 k 5 Y o 7 z 1 n 8 9 ( 4 ) [ ] v               ", // Y= 12
"              { w }  .X o ..p :.:.;.o r % '.s -._.              ", // Y= 13
"              ^.w ~.=.l o o.+.x.*.!.)  .M ?.|.[ ] ^             ", // Y= 14
"            { 0.} #. .%.W &.+.X.@.t 4 %.r /.A.B.C._.            ", // Y= 15
"            D.0.E.F.G.?.|.%.H.I.q V %.J.#.r K.L.M.N.O.          ", // Y= 16
"          P.!.Q.R.#.J.J.%.o q P ;.t ?.A.S.r T.U.A.V.W.          ", // Y= 17
"          X.Y.E.Z.T.a.A.J.o b.c.d.t J.a.a.e.f.g.%.h.N.i.        ", // Y= 18
"        P.Y.j.k./.a.l.l.a.|.m.2 j.L.a.l.n.S.( p.n.E.q.W.        ", // Y= 19
"        D.r.s.Z.t.n.n.l.l.J.} u.l.%.n.n.n.v.e.w.s.%.M.y.z.      ", // Y= 20
"      1.r.2.3.Z.4.v.v.v.n.a.J.6.?.a.n.v.n.5.p.M t.7.n.8.9.      ", // Y= 21
"      (.).s.[.t.].].].v.n.4 4 V {.%.v.v.v.].5.}.M  :a.h.N.i.    ", // Y= 22
"    1..:::k.;:].].5.].].{.':-:g H. :a.].].5._:4.M k.^:~:=:o:    ", // Y= 23
"    +:.:x:*:!:_:^:5.5.v.%.?:f z p 8 L.5.5._:_:_:|:0:#:a.%:y.z.  ", // Y= 24
"  &:.:X:@:3.5.^:_:^:_:].a.f -:/:/ A:4 5._:^:^:^:B:0:k.C:D:E:F:  ", // Y= 25
"  G:H:X:^:B:5.5.5.5.5.].?.3 -:I:J:K:J.5.5.5.5._:5.3.L:M:5.N:O:  ", // Y= 26
"  +:H:P:D:D:D:M:M:D:M:Q:R:].S:A:T:R:#:U:M:D:M:D:U:U:V:W:^:X:Y:A ", // Y= 27
"  G:Z:a:b:c:c:c:c:c:c:c:d:P:U:e:f:g:d:c:c:c:c:c:b:d:h:W:C:@.Y:i:", // Y= 28
"    j:a:':k:l:k:k:k:k:l:k:m:n:n:m:m:l:l:k:k:l:k:k:m:Z:b:%:Y:V.9.", // Y= 29
"      p:q:r:s:s:s:s:s:s:s:t:t:t:t:t:s:s:s:s:s:s:s:r:u:=:Y:v:w:z.", // Y= 30
"        Q y:y:z:z:z:z:z:z:z:z:z:z:z:z:z:z:z:z:z:z:z:z:z:9.1:z.  "  // Y= 31
};
