/* XPM */ 
static const char * xpm_objectTypeTerrainLargage[] = {
"32 32 3 1",
" 	c None",
"!	c black",
"#	c #ABABAB",
"                                ",
"            !!!!!!!!!           ",
"           !#########!          ",
"          !###########!         ",
"         !#############!        ",
"        !###############!       ",
"       !######!!!!!!#####!      ",
"      !######!!!!!!!!#####!     ",
"     !######!!!!!!!!!!#####!    ",
"    !######!!!!!!!!!!!!#####!   ",
"   !#######!!!!!!!!!!!!######!  ",
"   !#######!!!!!!!!!!!!######!  ",
"   !#######!!!!!!!!!!!!######!  ",
"   !#######!##!###!###!######!  ",
"   !########!#!###!##!#######!  ",
"   !########!##!##!##!#######!  ",
"   !#########!#!##!#!########!  ",
"   !##########!!#!#!#########!  ",
"   !###########!!!!##########!  ",
"    !##########!!!!#########!   ",
"     !##########!!#########!    ",
"      !#######!!!!!!######!     ",
"       !######!!!!!!#####!      ",
"        !#####!!!!!!####!       ",
"         !####!!!!!!###!        ",
"          !###!!!!!!##!         ",
"           !#########!          ",
"            !!!!!!!!!           ",
"                                ",
"                                ",
"                                ",
"                                "};
