/* XPM */ 
static const char * xpm_objectTypePiste[] = {
"32 32 5 1",
" 	c None",
"!	c black",
"#	c #929292",
"$	c #FFFBF0",
"%	c white",
"             ###$###            ",
"             #######            ",
"            ####$####           ",
"            #########           ",
"            ####%####           ",
"           ###########          ",
"           #####$#####          ",
"           ###########          ",
"          ######$######         ",
"          #############         ",
"          ######$######         ",
"          ##############        ",
"         #######$#######        ",
"         ###############        ",
"         #######$########       ",
"        ########$########       ",
"        #################       ",
"        ########$#########      ",
"       #########$#########      ",
"       #########$#########      ",
"       ####################     ",
"      ##########$##########     ",
"      ##########$##########     ",
"      ##########$###########    ",
"     #######################    ",
"     ###########$###########    ",
"     ###########$############   ",
"     ###########$############   ",
"    #########################   ",
"    ############$#############  ",
"    ############$#############  ",
"   #############$#############  "};
