/* XPM */
static const char* xpm_objectMedicalTreatment[]={
"16 16 4 1",
"# c #000000",
"b c #b00000",
"a c #f5f308",
". c None",
"................",
"................",
"......#####.....",
"....##aaaaa##...",
"...#bbaaaaabb#..",
"...#bbaaaaabb#..",
"..#abbaaaaabba#.",
"..#abbaaaaabba#.",
"..#abbbbbbbbba#.",
"..#abbbbbbbbba#.",
"..#abbaaaaabba#.",
"...#bbaaaaabb#..",
"...#bbaaaaabb#..",
"....##bbbbb##...",
"......#####.....",
"................"};
