/* XPM */ 
static const char * xpm_objectTypeZoneImplantationCanon[] = {
"32 32 3 1",
" 	c None",
"!	c black",
"#	c #ABABAB",
"                                ",
"                                ",
"                                ",
"                                ",
"              !!!!!             ",
"          !!!!#####!!!!         ",
"        !!#############!!       ",
"       !#################!      ",
"      !###################!     ",
"     !#####################!    ",
"    !#######################!   ",
"   !####################!!!##!  ",
"   !###############!!!!!!!!##!  ",
"   !###########!!!!!!!!!!####!  ",
"  !#######!!!!!!!!!!!!!#######! ",
"  !####!!!!!!!#!#!!###########! ",
"  !###!!!!!!#!#!#!#!##########! ",
"  !###!!!!!!##!!!##!##########! ",
"  !###!!!!!!!!!!!!!!!#########! ",
"   !###!!!#!##!!!##!#########!  ",
"   !#######!#!#!#!#!#########!  ",
"   !########!!#!#!!##########!  ",
"    !#########!!!###########!   ",
"     !#####################!    ",
"      !###################!     ",
"       !#################!      ",
"        !!#############!!       ",
"          !!!!#####!!!!         ",
"              !!!!!             ",
"                                ",
"                                ",
"                                "};
