/* XPM */ 
static const char * xpm_objectTypeZoneMobiliteAmelioree[] = {
"32 32 5 1",
" 	c None",
"!	c black",
"#	c #00F000",
"$	c #B8B8B8",
"%	c #FF2424",
"                                ",
"                                ",
"                                ",
"                                ",
"                                ",
"                                ",
"                 !!!            ",
"                !###!           ",
"                !###!           ",
"                !###!           ",
"                 !!!            ",
"                  !             ",
"                  !             ",
"                 !              ",
"        !!!      !              ",
"       !$$$!     !              ",
"       !$$$!     !              ",
"        !!!     !               ",
"         !     !!               ",
"        !!!!  !                 ",
"       ! !  !!                  ",
"      !  !                      ",
"      !  !                      ",
"     !   !                      ",
"    !    !                      ",
" !!!     !                      ",
"!%%%!    !!                     ",
"!%%%!   !  !                    ",
"!%%%!  !    !                   ",
" !!!   !    !                   ",
"      !      !                  ",
"     !        !                 "};
