<?xml version="1.0" standalone="no"?>
<svg style="stroke:rgb(0,0,0);stroke-width:2">
<circle stroke="none" fill="currentColor" cx="200" cy="160" r="120"/>
<g stroke="black" fill="black" transform="translate(80,280) matrix(1,0,0,-1,0,0) scale(0.23,0.23)">
<path d="M527 33Q629 33 718 71T874 177T979 333T1018 525Q1018 627 980 716T874 872T718 978T527 1017Q425 1017 336 978T179 873T74 717T35 525Q35 423 73 334T179 177T335 72T527 33ZM1053 525Q1053 416 1012
320T899 153T732 41T527 -1Q418 -1 322 40T155 153T42 320T0 525Q0 634 41 730T154 897T322 1009T527 1051Q636 1051 731 1010T898 897T1011 730T1053 525ZM219 487Q200 453 200 414Q200 392 206 371L195 364Q180 401 180 444Q180 472 187 499T209 552Q228 584
255 607T314 643Q313 651 313 658T312 673Q312 729 339 779T419 859Q458 880 499 886V873Q477 869 455 856Q420 836 401 802T382 730Q382 691 401 657Q420 625 450 606T516 585V560Q503 557 495 546T486 521Q486 517 486 515T488 509L466 496Q448 523 418 541Q384
560 345 560Q307 560 273 541T219 487ZM831 317Q802 277 757 254T658 230Q621 230 588 242T526 275Q498 253 464 242T395 230Q367 230 340 237T287 259Q249 281 222 316L232 322Q249 302 272 288Q306 269 345 269Q383 269 417 288T471 342Q491 375 491 414Q491
448 476 478L499 491Q511 479 528 479Q545 479 558 492L579 480Q572 465 568 449T564 416Q564 386 575 360T606 314T652 283T709 271Q742 271 771 285T820 323L831 317ZM739 643Q799 619 836 566T873 444Q873 401 858 365L847 371Q850 382 852 393T854 416Q854
446 843 472T812 517T766 548T709 560Q672 560 641 543T590 498L568 510L569 521Q569 535 560 546T537 561V585Q571 587 600 604Q635 624 654 658T673 730Q673 769 654 803Q637 832 611 850T554 873V886Q602 879 644 852T712 780Q727 754 734 727T741 672Q741 665
741 659T739 645V643ZM719 537V521Q719 463 689 417T610 347L586 388Q624 405 648 440T672 521Q672 525 672 529Q672 533 671 537H719ZM381 521Q381 476 405 441T467 388L444 347Q395 370 365 416T334 521Q334 525 334 529Q334 533 335 537H382Q381 533 381 529Q381
525 381 521ZM527 666Q478 666 441 638L418 679Q466 713 527 713Q588 713 636 679L612 638Q575 666 527 666ZM527 72Q449 72 388 93T285 141Q236 171 200 210L233 242Q265 206 309 179Q347 156 401 137T527 117Q597 117 651 136T744 179Q788 206 821 242L853 210Q816
171 768 141Q726 115 666 94T527 72ZM853 840L821 808Q788 843 744 870Q706 893 652 913T527 933Q456 933 402 913T309 870Q265 843 233 808L200 840Q236 878 285 909Q327 935 388 956T527 978Q605 978 665 957T768 909Q816 878 853 840Z"/>
</g>
<line x1="200" x2="200" y1="280" y2="320"/>
</svg>
