<?xml version="1.0" standalone="no"?>
<svg style="stroke:rgb(0,0,0);stroke-width:2">
<circle stroke="none" fill="currentColor" cx="200" cy="160" r="120"/>
<g stroke="black" fill="black" transform="translate(80,280) matrix(1,0,0,-1,0,0) scale(0.23,0.23)">
<path d="M527 33Q629 33 718 71T874 177T979 333T1018 525Q1018 627 980 716T874 872T718 978T527 1017Q425 1017 336 978T179 873T74 717T35 525Q35 423 73 334T179 177T335 72T527 33ZM1053 525Q1053 416 1012
320T899 153T732 41T527 -1Q418 -1 322 40T155 153T42 320T0 525Q0 634 41 730T154 897T322 1009T527 1051Q636 1051 731 1010T898 897T1011 730T1053 525ZM763 258L826 321L837 310L769 243H389V258H763ZM854 453V409L722 300H455L341 441L191 532Q183 513 167
502T128 490Q100 490 81 509T61 557Q61 585 80 604T128 624Q154 624 173 607T195 565L334 525L431 608L547 646H570V676H593V646H618L753 583L854 453ZM724 514H635V603H541V514H452V420H541V331H635V420H724V514ZM937 696H224V732H937V696Z"/>
</g>
<line x1="200" x2="200" y1="280" y2="320"/>
</svg>
