<?xml version="1.0" standalone="no"?>
<svg style="stroke:rgb(0,0,0);stroke-width:2">
<circle stroke="none" fill="currentColor" cx="200" cy="160" r="120"/>
<g stroke="black" fill="black" transform="translate(80,280) matrix(1,0,0,-1,0,0) scale(0.23,0.23)">
<path d="M527 33Q629 33 718 71T874 177T979 333T1018 525Q1018 627 980 716T874 872T718 978T527 1017Q425 1017 336 978T179 873T74 717T35 525Q35 423 73 334T179 177T335 72T527 33ZM1053 525Q1053 416 1012
320T899 153T732 41T527 -1Q418 -1 322 40T155 153T42 320T0 525Q0 634 41 730T154 897T322 1009T527 1051Q636 1051 731 1010T898 897T1011 730T1053 525ZM797 409Q799 400 801 389Q803 380 804 369T805 343Q805 329 794 314T767 286T736 263T712 248Q704 243
691 240T664 235Q648 232 631 230H422Q404 232 389 235Q375 237 363 240T342 248Q334 252 319 262T288 286T261 314T249 343Q249 357 250 368T253 388Q255 398 258 407L432 687V782Q425 783 421 787Q417 790 414 796T411 814Q411 825 414 831T423 842Q428 846 435
849H619Q626 846 631 842Q636 838 639 832T643 814Q643 803 640 797T632 787Q628 783 622 782V687L764 462L797 409ZM430 814Q430 808 435 803Q437 800 440 798H613L618 803Q620 805 621 808T623 814Q623 818 622 821T618 826L613 831H440Q437 829 435 826Q430
821 430 814ZM706 265Q717 270 731 280T757 304T778 329T787 351Q787 360 786 368T782 384Q780 392 778 400L604 682V778H450V682L275 400Q272 392 270 384Q268 377 267 369T266 351Q266 342 274 330T296 304T322 281T347 266Q358 261 373 258T404 252Q422 249
440 248H613Q625 248 637 250Q648 252 660 253T685 258L706 265ZM713 406Q713 403 714 399Q716 391 716 382Q716 370 713 358Q708 339 688 328T648 309Q638 305 627 303T607 299Q596 297 586 296H468Q458 297 447 299Q438 301 427 303T406 309Q386 316 366 327T340
358Q338 363 338 368Q338 374 338 379Q338 384 338 389Q338 394 339 398Q340 402 341 406L459 605H594L713 406ZM527 72Q449 72 388 93T285 141Q236 171 200 210L233 242Q265 206 309 179Q347 156 401 137T527 117Q597 117 651 136T744 179Q788 206 821 242L853
210Q816 171 768 141Q726 115 666 94T527 72ZM853 840L821 808Q788 843 744 870Q706 893 652 913T527 933Q456 933 402 913T309 870Q265 843 233 808L200 840Q236 878 285 909Q327 935 388 956T527 978Q605 978 665 957T768 909Q816 878 853 840Z"/>
</g>
<line x1="200" x2="200" y1="280" y2="320"/>
</svg>
