<?xml version="1.0" standalone="no"?>
<svg style="stroke:rgb(0,0,0);stroke-width:2">
<circle stroke="none" fill="currentColor" cx="200" cy="160" r="120"/>
<g stroke="black" fill="black" transform="translate(80,280) matrix(1,0,0,-1,0,0) scale(0.23,0.23)">
<path d="M527 33Q629 33 718 71T874 177T979 333T1018 525Q1018 627 980 716T874 872T718 978T527 1017Q425 1017 336 978T179 873T74 717T35 525Q35 423 73 334T179 177T335 72T527 33ZM1053 525Q1053 416 1012
320T899 153T732 41T527 -1Q418 -1 322 40T155 153T42 320T0 525Q0 634 41 730T154 897T322 1009T527 1051Q636 1051 731 1010T898 897T1011 730T1053 525ZM527 72Q449 72 388 93T285 141Q236 171 200 210L233 242Q265 206 309 179Q347 156 401 137T527 117Q597
117 651 136T744 179Q788 206 821 242L853 210Q816 171 768 141Q726 115 666 94T527 72ZM853 840L821 808Q788 843 744 870Q706 893 652 913T527 933Q456 933 402 913T309 870Q265 843 233 808L200 840Q236 878 285 909Q327 935 388 956T527 978Q605 978 665 957T768
909Q816 878 853 840ZM527 645Q494 645 467 629L368 800Q403 820 443 831T527 843Q571 843 611 832T686 800L586 629Q559 645 527 645ZM586 421Q613 437 629 464T646 525H845Q845 481 834 440T801 364T751 300T686 250L616 369L586 421ZM407 525Q407 492 423 465T467
421L368 250Q332 271 303 300T253 364T221 440T209 525H340H407ZM564 589Q580 579 590 562T600 525Q600 505 590 488T564 461Q546 451 527 451Q508 451 490 461Q473 471 463 488T453 525Q453 545 463 562T490 589Q508 599 527 599Q546 599 564 589Z"/>
</g>
<line x1="200" x2="200" y1="280" y2="320"/>
</svg>
