<?xml version="1.0" standalone="no"?>
<svg style="stroke:rgb(0,0,0);stroke-width:2">
<circle stroke="none" fill="currentColor" cx="200" cy="160" r="120"/>
<g stroke="black" fill="black" transform="translate(80,280) matrix(1,0,0,-1,0,0) scale(0.23,0.23)">
<path d="M527 33Q629 33 718 71T874 177T979 333T1018 525Q1018 627 980 716T874 872T718 978T527 1017Q425 1017 336 978T179 873T74 717T35 525Q35 423 73 334T179 177T335 72T527 33ZM1053 525Q1053 416 1012
320T899 153T732 41T527 -1Q418 -1 322 40T155 153T42 320T0 525Q0 634 41 730T154 897T322 1009T527 1051Q636 1051 731 1010T898 897T1011 730T1053 525ZM142 347V709H390V647H215V562H367V500H215V347H142ZM451 709H596Q617 709 633 708T660 705Q680 702 697
690Q714 679 725 660Q736 642 736 618Q736 591 723 571Q709 550 686 539Q719 530 737 506Q754 483 754 452Q754 425 743 404Q731 380 711 366Q691 352 662 349Q653 348 631 348T574 347H451V709ZM524 648V565H572Q593 565 606 565Q620 565 625 566Q644 569 654
579Q665 589 665 607Q665 623 656 634Q646 646 628 647Q623 648 607 648Q592 648 566 648H524ZM524 504V408H592Q612 408 624 408T642 410Q658 413 669 425Q679 435 679 455Q679 470 671 483Q663 495 648 499Q635 504 583 504H524ZM834 347V709H907V347H834Z"/>
</g>
<line x1="200" x2="200" y1="280" y2="320"/>
</svg>
