<?xml version="1.0" ?>
<svg style="stroke-linecap:square;stroke:rgb(0,0,0);stroke-width:2"><polyline points="200,373 373,200 200,27 27,200 200,373" class="border"/><polyline points="96,130 200,220 200,180 304,270" style="fill:none;"/><rect height="100" style="fill:none;" width="50" x="115" y="145"/><rect height="100" style="fill:none;" width="50" x="235" y="145"/><rect height="80" style="fill:none;" width="46" x="177" y="155"/><line style="" transform="translate(171 195) scale(1 1) translate(-171 -195)" x1="165" x2="177" y1="195" y2="195"/><line style="" x1="223" x2="235" y1="195" y2="195"/><line style="" transform="translate(200 247.5) scale(1 1) translate(-200 -247.5)" x1="200" x2="200" y1="235" y2="260"/><path d="M150 275 C175 255 225 255 250 275" style="fill:none;"/></svg>