<?xml version="1.0" ?>
<svg style="stroke-linecap:square;stroke:rgb(0,0,0);stroke-width:2"><polyline points="200,373 373,200 200,27 27,200 200,373" class="border"/><line style="fill:none;" x1="140" x2="260" y1="200" y2="200"/><path d="M285 175 C250 175 250 225 285 225" style="fill:none;"/><path d="M115 175 C150 175 150 225 115 225" style="fill:none;"/><g transform="translate(60 25) scale(0.7 0.7)"><path d="M160 225 L160 128 C170 93 230 93 240 128 L240 225" style="fill:none;"/><line style="fill:none;" x1="145" x2="255" y1="225" y2="225"/></g><polyline points="70,155 100,200 70,245" style="fill:none;" xmlns="http://www.w3.org/2000/svg"/><polyline points="330,155 300,200 330,245" style="fill:none;" xmlns="http://www.w3.org/2000/svg"/></svg>