<?xml version="1.0" ?>
<svg style="stroke-linecap:square;stroke:rgb(0,0,0);stroke-width:2"><polyline points="200,373 373,200 200,27 27,200 200,373" class="border"/><g transform="translate(60 105) scale(0.7 0.7)"><ellipse cx="200" cy="200" rx="80" ry="80" style="fill:none;"/><line style="fill:none;" x1="136" x2="264" y1="156" y2="244"/><line style="fill:none;" x1="136" x2="264" y1="244" y2="156"/><line style="fill:none;" x1="200" x2="200" y1="120" y2="280"/></g><g transform="translate(120 60) scale(0.4 0.4)"><ellipse cx="200" cy="104" rx="16" ry="16" style="fill:none;"/><line style="fill:none;" x1="200" x2="200" y1="120" y2="280"/><line style="fill:none;" x1="120" x2="280" y1="130" y2="130"/><path d="M100 200 C150 300 250 300 300 200 C250 315 150 315 100 200" style="fill:rgb(0,0,0);"/><path d="M100 200 C108 245 113 245 113 245 L128 225 C115 220 110 210 103 203" style="fill:rgb(0,0,0);"/><path d="M300 200 C292 245 287 245 287 245 L272 225 C285 220 290 210 297 203" style="fill:rgb(0,0,0);"/></g></svg>