<?xml version="1.0" ?>
<svg style="stroke-linecap:square;stroke:rgb(0,0,0);stroke-width:2"><polyline points="200,373 373,200 200,27 27,200 200,373" class="border"/><line style="fill:none;" x1="140" x2="260" y1="200" y2="200"/><path d="M285 175 C250 175 250 225 285 225" style="fill:none;"/><path d="M115 175 C150 175 150 225 115 225" style="fill:none;"/><g transform="translate(80 21) scale(0.6 0.6)"><path d="M170 276 L170 144 C170 119 230 119 230 144 L230 276" style="fill:none;" transform="translate(0 0) translate(0 0)"/><line style="fill:none;" transform="translate(200 184) scale(1 1) translate(-200 -184)" x1="200" x2="200" y1="276" y2="124"/></g></svg>