<?xml version="1.0" standalone="no"?>
<svg style="stroke:rgb(0,0,0);stroke-width:2">
<circle stroke="none" fill="currentColor" cx="200" cy="160" r="120"/>
<g stroke="black" fill="black" transform="translate(80,280) matrix(1,0,0,-1,0,0) scale(0.23,0.23)">
<path d="M527 33Q629 33 718 71T874 177T979 333T1018 525Q1018 627 980 716T874 872T718 978T527 1017Q425 1017 336 978T179 873T74 717T35 525Q35 423 73 334T179 177T335 72T527 33ZM1053 525Q1053
416 1012 320T899 153T732 41T527 -1Q418 -1 322 40T155 153T42 320T0 525Q0 634 41 730T154 897T322 1009T527 1051Q636 1051 731 1010T898 897T1011 730T1053 525Z"/>
</g>
<ellipse cx="200" cy="120" rx="20" ry="20" style="fill:none;"/>
<line style="fill:none;" x1="165" x2="235" y1="160" y2="160"/>
<line style="fill:none;" x1="200" x2="200" y1="140" y2="210"/>
<line style="fill:none;" x1="200" x2="170" y1="205" y2="235"/>
<line style="fill:none;" x1="200" x2="230" y1="205" y2="235"/>
</svg>
