<?xml version="1.0" ?>
<svg style="stroke-linecap:square;stroke:rgb(0,0,0);stroke-width:2"><polyline points="200,373 373,200 200,27 27,200 200,373" class="border"/><g transform="translate(80 48) scale(0.6 0.6)"><ellipse cx="130" cy="160" rx="18" ry="18" style="fill:rgb(0,0,0);"/><ellipse cx="270" cy="160" rx="18" ry="18" style="fill:rgb(0,0,0);"/><path d="M140 145 C200 180 210 200 235 290" style="fill:none;"/><path d="M260 145 C200 180 190 200 165 290" style="fill:none;"/></g><line style="fill:none;" x1="304" x2="96" y1="130" y2="270"/><g transform="translate(10 0) scale(0.95 0.88)"><path d="M140 140 C80 140 80 260 140 260 L260 260 C320 260 320 140 260 140 z" style="fill:none;"/></g><ellipse cx="120" cy="245" rx="13" ry="13" style="fill:none;"/><ellipse cx="200" cy="245" rx="13" ry="13" style="fill:none;"/><ellipse cx="280" cy="245" rx="13" ry="13" style="fill:none;"/></svg>