<?xml version="1.0" standalone="no"?>
<svg style="stroke:rgb(0,0,0);stroke-width:2">
<circle stroke="none" fill="currentColor" cx="200" cy="160" r="120"/>
<g stroke="black" fill="black" transform="translate(80,280) matrix(1,0,0,-1,0,0) scale(0.23,0.23)">
<path d="M527 33Q629 33 718 71T874 177T979 333T1018 525Q1018 627 980 716T874 872T718 978T527 1017Q425 1017 336 978T179 873T74 717T35 525Q35 423 73 334T179 177T335 72T527 33ZM1053 525Q1053 416 1012
320T899 153T732 41T527 -1Q418 -1 322 40T155 153T42 320T0 525Q0 634 41 730T154 897T322 1009T527 1051Q636 1051 731 1010T898 897T1011 730T1053 525ZM672 783V721Q680 721 687 720Q693 719 699 718T710 714Q714 711 718 706T727 695Q731 689 735 682L795
538Q803 537 810 535Q816 533 823 530T836 522Q846 510 850 496Q852 489 853 481V363Q852 356 850 350Q848 345 846 340T839 329Q834 324 828 322T817 317Q811 315 805 314V237Q804 223 799 212Q794 202 785 195T758 187Q741 187 732 194T718 212Q713 223 711 237V315H343V237Q341
223 336 212Q331 202 322 195T295 187Q278 187 269 194T255 212Q250 223 248 237V314Q241 315 235 317Q222 321 214 329Q209 334 207 339T203 350Q201 356 201 363V481Q201 489 203 496Q205 502 208 509T217 522Q222 527 229 530T243 535Q250 537 258 538L318 682Q323
689 327 695Q331 700 335 705T343 714Q347 716 354 717T367 720Q374 721 382 721V783H672ZM303 396Q323 396 337 410T351 444Q351 464 337 478T303 492Q283 492 270 478T256 444Q256 424 269 410T303 396ZM797 444Q797 464 783 478T749 492Q729 492 716 478T702
444Q702 424 715 410T749 396Q769 396 783 410T797 444ZM401 764V730H476V764H401ZM653 730V764H577V730H653ZM783 762V743H718V762H783ZM735 854L748 841L702 795L689 808L735 854ZM652 883V819H633V883H652ZM568 883V819H550V883H568ZM493 883V819H475V883H493ZM416
883V819H398V883H416ZM318 854L364 808L351 795L305 841L318 854ZM335 762V743H271V762H335ZM740 552L701 657L698 663Q696 665 694 668T687 675Q679 680 673 680H381Q379 680 375 679T366 675Q362 672 360 669T356 663L353 657L313 552H740Z"/>
</g>
<line x1="200" x2="200" y1="280" y2="320"/>
</svg>
