<?xml version="1.0" standalone="no"?>
<svg style="stroke:rgb(0,0,0);stroke-width:2">
<circle stroke="none" fill="currentColor" cx="200" cy="160" r="120"/>
<g stroke="black" fill="black" transform="translate(80,280) matrix(1,0,0,-1,0,0) scale(0.23,0.23)">
<path d="M527 33Q629 33 718 71T874 177T979 333T1018 525Q1018 627 980 716T874 872T718 978T527 1017Q425 1017 336 978T179 873T74 717T35 525Q35 423 73 334T179 177T335 72T527 33ZM1053 525Q1053 416 1012
320T899 153T732 41T527 -1Q418 -1 322 40T155 153T42 320T0 525Q0 634 41 730T154 897T322 1009T527 1051Q636 1051 731 1010T898 897T1011 730T1053 525ZM537 322V191H415V334Q413 340 413 344L76 578L124 648L460 416Q470 418 477 418Q502 418 520 402T540 360L556
349L537 322ZM187 514V593L134 629V551L187 514ZM292 441V519L239 556V478L292 441ZM397 368V446L345 483V404L397 368ZM802 701Q805 701 810 700T824 693Q834 685 837 678Q839 674 838 671V191H753L739 361H714L700 191H614V434H777V483H653L799 701H802ZM613
482V625L530 567Q522 560 511 560Q496 560 486 573H485L399 691Q393 698 393 709Q393 726 406 736Q416 743 425 743Q440 743 451 729L518 637L600 694Q610 701 623 701H760L613 482ZM878 805H781V778Q780 761 774 749Q769 738 758 730T724 721Q702 721 691 729T674
749Q668 761 667 778V805H570V817H878V805ZM724 905Q750 905 767 890T785 854V835H663V854Q663 875 680 890T724 905Z"/>
</g>
<line x1="200" x2="200" y1="280" y2="320"/>
</svg>
