<?xml version="1.0" standalone="no"?>
<svg style="stroke:rgb(0,0,0);stroke-width:2">
<circle stroke="none" fill="currentColor" cx="200" cy="160" r="120"/>
<g stroke="black" fill="black" transform="translate(80,280) matrix(1,0,0,-1,0,0) scale(0.23,0.23)">
<path d="M527 33Q629 33 718 71T874 177T979 333T1018 525Q1018 627 980 716T874 872T718 978T527 1017Q425 1017 336 978T179 873T74 717T35 525Q35 423 73 334T179 177T335 72T527 33ZM1053 525Q1053 416 1012
320T899 153T732 41T527 -1Q418 -1 322 40T155 153T42 320T0 525Q0 634 41 730T154 897T322 1009T527 1051Q636 1051 731 1010T898 897T1011 730T1053 525ZM527 983L935 275H118L527 983ZM152 295H902L527 944L152 295ZM633 487V440H659V328H631V438H607V328H579V440H605V487H435V440H461V328H433V438H409V328H382V440H407V487H313V511H407V557Q390
561 379 575T367 609Q367 631 382 647T421 663Q444 663 459 647T475 609Q475 590 464 576T435 557V511H605V557Q588 561 577 575T565 609Q565 631 580 647T619 663Q642 663 657 647T673 609Q673 590 662 576T633 557V511H729V487H633Z"/>
</g>
<line x1="200" x2="200" y1="280" y2="320"/>
</svg>
