<?xml version="1.0" ?>
<svg style="stroke:rgb(0,0,0);stroke-width:2"><path d="M115 285 C115 400 285 400 285 285 C400 285 400 115 285 115 C285 0 115 0 115 115 C0     115 0 285 115 285 z" class="border"/><g transform="translate(60 94) scale(0.7 0.7)"><ellipse cx="200" cy="200" rx="18" ry="18" style="fill:rgb(0,0,0);"/></g><g transform="translate(60 84) scale(0.7 0.7)"><line style="fill:none;" x1="202" x2="150" y1="100" y2="160"/><line style="fill:none;" x1="198" x2="250" y1="100" y2="160"/><line style="fill:none;" x1="202" x2="150" y1="130" y2="190"/><line style="fill:none;" x1="198" x2="250" y1="130" y2="190"/></g><path d="M140 140 C80 140 80 260 140 260 L260 260 C320 260 320 140 260 140 z" style="fill:none;"/></svg>