<?xml version="1.0" ?>
<svg style="stroke:rgb(0,0,0);stroke-width:2"><path d="M115 285 C115 400 285 400 285 285 C400 285 400 115 285 115 C285 0 115 0 115 115 C0     115 0 285 115 285 z" class="border"/><line style="fill:none;" x1="60" x2="340" y1="245" y2="245"/><polyline points="50,140 90,200 50,260" style="fill:none;"/><polyline points="350,140 310,200 350,260" style="fill:none;"/><ellipse cx="200" cy="160" rx="35" ry="35" style="fill:none;"/><line style="fill:none;" x1="146" x2="173" y1="126" y2="143"/><line style="fill:none;" x1="227" x2="254" y1="177" y2="194"/><line style="fill:none;" x1="146" x2="173" y1="194" y2="177"/><line style="fill:none;" x1="227" x2="254" y1="143" y2="126"/><line style="fill:none;" x1="200" x2="200" y1="95" y2="125"/><line style="fill:none;" x1="200" x2="200" y1="225" y2="195"/></svg>