<?xml version="1.0" ?>
<svg style="stroke:rgb(0,0,0);stroke-width:2"><path d="M115 285 C115 400 285 400 285 285 C400 285 400 115 285 115 C285 0 115 0 115 115 C0     115 0 285 115 285 z" class="border"/><g transform="translate(20 30) scale(0.9 0.9)"><ellipse cx="130" cy="160" rx="18" ry="18" style="fill:rgb(0,0,0);"/><ellipse cx="270" cy="160" rx="18" ry="18" style="fill:rgb(0,0,0);"/><path d="M140 145 C200 180 210 200 235 290" style="fill:none;"/><path d="M260 145 C200 180 190 200 165 290" style="fill:none;"/></g><g transform="translate(120 39) scale(0.4 0.4)"><text style="fill:rgb(0,0,0);text-anchor:middle;font-weight:bold;font-size:150;font-family:Arial;    " x="200" y="230">S</text></g><path d="M140 140 C80 140 80 260 140 260 L260 260 C320 260 320 140 260 140 z" style="fill:none;"/></svg>