<?xml version="1.0" ?>
<svg style="stroke:rgb(0,0,0);stroke-width:2"><path d="M115 285 C115 400 285 400 285 285 C400 285 400 115 285 115 C285 0 115 0 115 115 C0     115 0 285 115 285 z" class="border"/><g transform="translate(21 0) scale(0.9 0.9)"><text style="fill:rgb(0,0,0);text-anchor:middle;font-weight:bold;font-size:90;font-family:Arial;    " x="200" y="232">SEC</text></g><g transform="translate(20 60) scale(0.9 0.9)"><path d="M32 222 C50 222 53 206 53 200 C53 170 95 170 95 200 C95 230 137 230 137 200 C137    170 179 170 179 200 C179 230 221 230 221 200 C221 170 263 170 263 200 C263 230    305 230 305 200 C305 170 347 170 347 200 C347 206 350 222 368 222" style="fill:none;"/></g></svg>