<?xml version="1.0" ?>
<svg style="stroke:rgb(0,0,0);stroke-width:2"><path d="M115 285 C115 400 285 400 285 285 C400 285 400 115 285 115 C285 0 115 0 115 115 C0     115 0 285 115 285 z" class="border"/><line style="fill:currentColor" x1="200" x2="80" y1="29" y2="279"/><line style="fill:currentColor" x1="200" x2="320" y1="29" y2="279"/><path d="M140 140 C80 140 80 260 140 260 L260 260 C320 260 320 140 260 140 z" style="fill:none;"/><g transform="translate(0 40)"><line style="fill:none;" x1="150" x2="200" y1="105" y2="175"/><line style="fill:none;" x1="250" x2="200" y1="105" y2="175"/></g></svg>