<?xml version="1.0" ?>
<svg style="stroke:rgb(0,0,0);stroke-width:2"><path d="M115 285 C115 400 285 400 285 285 C400 285 400 115 285 115 C285 0 115 0 115 115 C0     115 0 285 115 285 z" class="border"/>
	<ellipse cx="200" cy="160" rx="20" ry="20" style="fill:none;"/>
	<line style="fill:none;" x1="175" x2="225" y1="200" y2="200"/>
	<line style="fill:none;" x1="200" x2="200" y1="180" y2="280"/>
	<ellipse cx="265" cy="140" rx="20" ry="20" style="fill:none;"/>
	<line style="fill:none;" x1="240" x2="290" y1="180" y2="180"/>
	<line style="fill:none;" x1="265" x2="265" y1="160" y2="260"/>
	<ellipse cx="125" cy="140" rx="20" ry="20" style="fill:none;"/>
	<line style="fill:none;" x1="100" x2="150" y1="180" y2="180"/>
	<line style="fill:none;" x1="125" x2="125" y1="160" y2="260"/>
</svg>