<?xml version="1.0" ?>
<svg style="stroke:rgb(0,0,0);stroke-width:2"><path d="M115 285 C115 400 285 400 285 285 C400 285 400 115 285 115 C285 0 115 0 115 115 C0     115 0 285 115 285 z" class="border"/><line style="fill:none;" x1="320" x2="80" y1="121" y2="279"/><line style="fill:none;" x1="80" x2="320" y1="121" y2="279"/><g><ellipse cx="200" cy="104" rx="16" ry="16" style="fill:none;"/><line style="fill:none;" x1="200" x2="200" y1="120" y2="280"/><line style="fill:none;" x1="120" x2="280" y1="130" y2="130"/><path d="M100 200 C150 300 250 300 300 200 C250 315 150 315 100 200" style="fill:rgb(0,0,0);"/><path d="M100 200 C108 245 113 245 113 245 L128 225 C115 220 110 210 103 203" style="fill:rgb(0,0,0);"/><path d="M300 200 C292 245 287 245 287 245 L272 225 C285 220 290 210 297 203" style="fill:rgb(0,0,0);"/></g></svg>