<?xml version="1.0" ?>
<svg style="stroke:rgb(0,0,0);stroke-width:2"><path d="M115 285 C115 400 285 400 285 285 C400 285 400 115 285 115 C285 0 115 0 115 115 C0     115 0 285 115 285 z" class="border"/><line style="fill:none;" x1="140" x2="260" y1="200" y2="200"/><path d="M285 175 C250 175 250 225 285 225" style="fill:none;"/><path d="M115 175 C150 175 150 225 115 225" style="fill:none;"/><g transform="translate(60 25) scale(0.7 0.7)"><path d="M160 225 L160 128 C170 93 230 93 240 128 L240 225" style="fill:none;"/><line style="fill:none;" x1="145" x2="255" y1="225" y2="225"/></g><polyline points="50,140 90,200 50,260" style="fill:none;"/><polyline points="350,140 310,200 350,260" style="fill:none;"/></svg>