<?xml version="1.0" ?>
<svg style="stroke:rgb(0,0,0);stroke-width:2"><path d="M115 285 C115 400 285 400 285 285 C400 285 400 115 285 115 C285 0 115 0 115 115 C0     115 0 285 115 285 z" class="border"/><line style="fill:none;" x1="60" x2="340" y1="245" y2="245"/><polyline points="50,140 90,200 50,260" style="fill:none;"/><polyline points="350,140 310,200 350,260" style="fill:none;"/><ellipse cx="200" cy="120" rx="20" ry="20" style="fill:none;"/><line style="fill:none;" x1="165" x2="235" y1="160" y2="160"/><line style="fill:none;" x1="200" x2="200" y1="140" y2="210"/><line style="fill:none;" x1="200" x2="170" y1="205" y2="235"/><line style="fill:none;" x1="200" x2="230" y1="205" y2="235"/></svg>