<?xml version="1.0" standalone="no"?>
<svg style="stroke:rgb(0,0,0);stroke-width:2">
<circle stroke="none" fill="currentColor" cx="200" cy="160" r="120"/>
<g stroke="black" fill="black" transform="translate(80,280) matrix(1,0,0,-1,0,0) scale(0.23,0.23)">
<path d="M527 33Q629 33 718 71T874 177T979 333T1018 525Q1018 627 980 716T874 872T718 978T527 1017Q425 1017 336 978T179 873T74 717T35 525Q35 423 73 334T179 177T335 72T527 33ZM1053 525Q1053 416 1012
320T899 153T732 41T527 -1Q418 -1 322 40T155 153T42 320T0 525Q0 634 41 730T154 897T322 1009T527 1051Q636 1051 731 1010T898 897T1011 730T1053 525ZM906 331Q906 311 893 298T859 285Q839 285 826 298T812 331H637L550 180Q573 167 573 139Q573 120 560
107T527 93Q507 93 494 106T480 139Q480 167 503 180L416 331H241Q241 311 228 298T194 285Q175 285 162 298T148 331Q148 351 161 364T194 378Q208 378 218 371L305 523L218 675Q208 668 194 668Q175 668 162 681T148 715Q148 735 161 748T194 761Q214 761 227
748T241 715H416L503 866Q480 879 480 907Q480 926 493 939T527 953Q546 953 559 940T573 907Q573 879 550 866L637 715H812Q812 735 825 748T859 761Q879 761 892 748T906 715Q906 695 893 682T859 668Q844 668 836 675L748 523L836 371Q844 378 859 378Q879 378
892 365T906 331Z"/>
</g>
<line x1="200" x2="200" y1="280" y2="320"/>
</svg>
