<?xml version="1.0" ?>
<svg style="stroke:rgb(0,0,0);stroke-width:2"><path d="M115 285 C115 400 285 400 285 285 C400 285 400 115 285 115 C285 0 115 0 115 115 C0     115 0 285 115 285 z" class="border"/><polyline points="80,121 200,220 200,180 320,279" style="fill:none;"/><line style="fill:none;" x1="125" x2="153" y1="133" y2="107"/><line style="fill:none;" x1="147" x2="178" y1="107" y2="133"/><line style="fill:none;" x1="172" x2="203" y1="133" y2="107"/><line style="fill:none;" x1="197" x2="228" y1="107" y2="133"/><line style="fill:none;" x1="222" x2="253" y1="133" y2="107"/><line style="fill:none;" x1="247" x2="275" y1="107" y2="133"/><line style="fill:none;" x1="200" x2="200" y1="110" y2="220"/><line style="fill:none;" x1="200" x2="200" y1="200" y2="240"/><ellipse cx="200" cy="270" rx="30" ry="30" style="fill:none;"/></svg>