<?xml version="1.0" ?>
<svg style="stroke:rgb(0,0,0);stroke-width:2"><path d="M115 285 C115 400 285 400 285 285 C400 285 400 115 285 115 C285 0 115 0 115 115 C0     115 0 285 115 285 z" class="border"/><g transform="translate(20 -13) scale(0.9 0.9)"><polyline points="200,240 300,185 200,130 200,240" style="fill:rgb(255,255,255);"/><line style="fill:none;" x1="150" x2="200" y1="290" y2="240"/><line style="fill:none;" x1="250" x2="200" y1="290" y2="240"/></g><g transform="translate(20 43) scale(0.9 0.9)"><path d="M120 270 C120 230 200 230 200 270 C200 230 280 230 280 270" style="fill:none;"/></g></svg>