<?xml version="1.0" ?>
<svg style="stroke:rgb(0,0,0);stroke-width:2"><path d="M115 285 C115 400 285 400 285 285 C400 285 400 115 285 115 C285 0 115 0 115 115 C0     115 0 285 115 285 z" class="border"/><line style="fill:none;" x1="60" x2="340" y1="245" y2="245"/><polyline points="50,140 90,200 50,260" style="fill:none;"/><polyline points="350,140 310,200 350,260" style="fill:none;"/><line style="fill:none;" x1="185" x2="235" y1="130" y2="130"/><line style="fill:none;" x1="210" x2="210" y1="155" y2="130"/><path d="M110 155 L230 155 C270 155 278 200 280 230" style="fill:none;"/></svg>