<?xml version="1.0" standalone="no"?>
<svg style="stroke:rgb(0,0,0);stroke-width:2">
<circle stroke="none" fill="currentColor" cx="200" cy="160" r="120"/>
<g stroke="black" fill="black" transform="translate(80,280) matrix(1,0,0,-1,0,0) scale(0.23,0.23)">
<path d="M527 33Q629 33 718 71T874 177T979 333T1018 525Q1018 627 980 716T874 872T718 978T527 1017Q425 1017 336 978T179 873T74 717T35 525Q35 423 73 334T179 177T335 72T527 33ZM1053 525Q1053 416 1012
320T899 153T732 41T527 -1Q418 -1 322 40T155 153T42 320T0 525Q0 634 41 730T154 897T322 1009T527 1051Q636 1051 731 1010T898 897T1011 730T1053 525ZM165 674Q163 671 162 667Q161 664 160 660T159 654Q157 649 157 634Q157 619 156 598Q156 587 159 567T168
527Q173 503 180 477L176 471Q173 465 173 459Q173 453 176 446T188 433T217 422T269 416H281Q313 416 345 420T404 430Q434 436 462 444Q479 452 499 463Q516 472 539 483T591 507Q649 533 704 552T811 572Q862 572 901 562T966 536Q991 520 991 494Q991 463 953
421Q935 400 904 385T836 360T760 345T687 338H677Q643 338 607 345T538 363Q501 374 465 389Q452 385 439 381Q428 377 414 374T386 367Q372 364 348 360T296 351T242 343T197 340Q173 340 154 344T123 354Q112 359 103 373T93 399Q93 424 112 443Q117 448 125
454T143 467Q154 474 166 482Q163 499 159 514Q156 527 153 539T149 557Q147 567 145 589T143 630Q143 643 144 647Q145 654 147 661T153 676Q157 684 160 691L162 683L165 674ZM397 867Q415 863 433 859Q448 856 463 853T490 846Q494 844 504 841T527 833T555
818T584 796Q601 780 616 761T643 723Q657 702 670 681L696 630L720 568V566Q719 564 719 563Q718 562 718 561Q718 560 716 560H714Q712 560 710 562L708 564Q702 578 697 591Q692 602 688 614T680 634Q676 642 670 654T657 678T642 703T628 725Q621 734 613 744T597
764T581 782T570 793Q566 796 559 801T543 810T526 819T513 825Q507 827 493 830T465 838Q448 842 429 848Q457 834 484 817Q507 803 532 784T574 745Q584 733 593 715T611 677T626 636T638 598Q644 577 647 565Q649 558 651 552V547Q649 542 644 541Q643 540 641
541Q638 541 636 545L634 549L622 595Q618 613 612 631Q607 647 599 666T581 705Q567 729 555 742T520 771Q504 782 488 793T457 813Q440 823 424 832Q445 812 464 791Q480 773 496 752T521 709Q526 696 529 677T535 639T539 605T540 585Q541 574 541 566T542 547Q542
539 542 533T541 521V511L539 506L537 504Q536 503 532 503Q529 503 527 505L525 507L524 511V589Q524 595 523 609T518 642T511 678T501 711Q495 724 484 740T460 771T435 799T414 818Q409 822 403 827T390 838Q382 843 374 849L312 835L302 832L348 790L445 747Q445
743 446 738Q447 733 447 728T448 717Q448 707 447 702Q443 682 433 665T414 630Q407 616 407 605V602Q407 591 412 581T426 562Q435 551 446 542L418 468Q403 463 385 459Q370 455 352 452T313 449H305Q300 449 295 449Q291 449 286 450Q266 452 248 459T216 474Q200
483 186 492L168 567L174 573Q177 576 180 579T188 588Q192 593 193 599T194 612Q194 620 193 626T191 635Q190 638 187 646T179 665T171 685T167 700Q167 705 167 710Q167 716 168 721Q168 726 169 731L242 785L297 845L304 848L344 856L397 867ZM161 465Q152
460 143 454Q135 449 128 443T115 429Q109 420 107 413T105 401Q105 398 105 396T106 393Q107 390 113 380T133 362Q147 355 164 354T191 352Q201 352 232 355T298 366Q317 371 338 379T378 397Q399 408 420 419Q399 415 375 411Q355 408 330 406T278 403Q256 403
235 406Q206 410 191 417T169 432Q161 441 161 451V465ZM430 411Q418 404 407 399T388 388Q378 383 370 379Q384 380 400 384Q414 387 431 391T468 404Q487 411 499 417T521 428T541 436T568 442Q582 444 594 445T617 446Q640 446 651 443Q660 441 675 437T696
431Q701 429 707 424T713 413V407Q713 402 712 398T702 390Q697 387 687 385T666 380T644 375T629 372Q625 371 614 371Q604 371 593 370Q580 369 565 368Q586 363 608 359Q627 355 649 353T695 350Q717 350 746 354T805 365T861 381T906 402Q942 424 960 448T978
493Q978 513 947 529T869 553Q853 555 839 556T812 558Q788 558 765 554T714 541Q693 535 664 524T607 502T554 479T520 462L430 411ZM243 698Q242 696 242 694T240 689Q239 687 237 684T232 679Q230 677 230 673T229 667Q229 665 229 662T232 655Q234 651 237
646T242 639Q242 638 242 638T243 636Q243 635 244 634L254 642Q252 646 251 650Q249 660 249 668Q249 673 251 681Q252 685 254 689L243 698ZM334 689Q335 686 337 682Q341 674 341 666Q341 658 340 653T338 643Q336 639 335 636L352 622V624Q352 625 354 629Q356
633 360 636T369 647Q373 652 373 660Q373 665 370 673Q366 681 362 684T354 693Q350 697 350 699Q349 701 350 702L334 689ZM314 616Q313 615 310 614Q307 613 295 613Q284 613 278 616Q274 618 272 620L263 605H265Q266 605 268 603L276 593Q278 591 283 586T294
581Q299 581 303 582T313 588Q317 592 318 593T322 595Q323 595 323 595T325 596H327L314 616ZM292 689Q299 689 304 686Q309 684 313 679T317 663Q317 646 308 643T294 639H293Q286 639 282 643Q277 646 274 651T271 665Q271 673 274 678T281 686Q285 689 292
689ZM292 706Q274 706 266 691T258 665Q258 651 268 636T293 621Q309 621 320 630T332 666Q332 686 318 696T292 706ZM326 729Q325 730 323 730Q319 730 318 731Q314 733 311 736T303 744Q299 747 292 747Q288 747 282 743Q278 741 275 736T267 727Q266 726 264
726Q263 726 262 725L272 709Q273 710 277 711Q279 712 283 713T292 714Q296 714 300 713T307 711Q311 710 313 709L326 729ZM293 823L248 774L180 725Q179 723 179 720V708V701Q179 693 183 682T193 660T203 637T207 617Q207 598 201 587T191 572L182 561L197
499Q212 489 228 481Q242 474 258 468T292 461H301Q317 461 336 463T371 469Q389 473 408 478L431 539L420 550Q415 555 411 560T404 570Q399 578 397 589T394 606Q394 611 399 627T410 650Q414 657 424 675T436 708V718Q436 723 436 726T435 733V739L340 780L293
823ZM294 517Q306 517 317 518T336 521Q346 523 355 525Q357 523 360 521Q364 518 366 513V509Q366 507 365 506T363 503Q362 501 361 500Q356 499 347 497Q339 495 328 494T300 493H297Q280 493 267 495T245 502Q234 506 226 512Q225 513 225 514V518Q225 521
227 525Q230 528 235 530L241 532Q247 528 255 524Q271 517 291 517H294ZM293 756Q295 756 300 755T307 752Q310 750 316 746T324 740L332 738Q337 736 338 735Q338 734 338 733T337 731Q336 730 336 729L321 704L325 701L328 696L350 711Q351 711 352 712Q354
714 355 714Q356 714 358 712Q359 711 359 710L360 699Q361 697 364 694L374 684Q379 678 381 670T383 657Q381 652 376 643T368 630Q361 623 361 617Q361 610 356 610Q354 610 350 612Q348 613 347 615L330 629L326 624L321 621L330 608Q331 606 333 603Q335 601
335 599T337 596Q340 593 340 591L339 589Q335 587 328 587Q323 585 319 581Q317 579 312 576T302 572H299Q290 572 282 577Q277 579 271 586T262 596Q260 598 256 598Q253 598 252 600L251 602Q251 604 253 608L255 612L265 626L261 630L259 634L251 628L249 626Q246
623 244 623Q242 622 240 622Q237 622 236 623Q236 624 236 627T235 633Q235 635 233 638T228 643Q226 645 224 653T220 666V668Q220 673 221 678T225 685Q227 687 230 691T234 698Q235 701 235 706Q237 711 239 711Q240 711 241 711T243 710Q244 709 245 709L259
697L262 701L265 703L251 728V729Q251 731 253 731Q255 731 259 733Q265 737 268 740Q272 747 278 750Q281 753 285 754T293 756Z"/>
</g>
<line x1="200" x2="200" y1="280" y2="320"/>
</svg>
