<?xml version="1.0" ?>
<svg style="stroke:rgb(0,0,0);stroke-width:2"><path d="M115 285 C115 400 285 400 285 285 C400 285 400 115 285 115 C285 0 115 0 115 115 C0     115 0 285 115 285 z" class="border"/><g transform="translate(22 30) scale(0.9 0.9)"><text style="fill:rgb(0,0,0);text-anchor:middle;font-weight:bold;font-size:90;font-family:Arial" x="200" y="232">MP</text></g><path d="M120 140 C120 270 150 280 203 300" style="fill:none;"/><path d="M280 140 C280 270 250 280 197 300" style="fill:none;"/><path d="M117 140 C160 165 160 165 200 140 C240 165 240 165 283 140" style="fill:none;"/></svg>