<?xml version="1.0" ?>
<svg style="stroke:rgb(0,0,0);stroke-width:2"><path d="M115 285 C115 400 285 400 285 285 C400 285 400 115 285 115 C285 0 115 0 115 115 C0     115 0 285 115 285 z" class="border"/><g transform="translate(20 -5) scale(0.9 0.9)"><line style="fill:none;" x1="200" x2="200" y1="155" y2="225"/><line style="fill:none;" x1="110" x2="110" y1="155" y2="255"/><line style="fill:none;" x1="290" x2="290" y1="155" y2="255"/><line style="fill:none;" x1="105" x2="295" y1="155" y2="155"/></g><line style="fill:none;" x1="128" x2="272" y1="270" y2="270"/><path d="M130 240 C115 240 115 270 130 270" style="fill:none;"/><path d="M270 240 C285 240 285 270 270 270" style="fill:none;"/></svg>