<?xml version="1.0" standalone="no"?>
<svg style="stroke:rgb(0,0,0);stroke-width:2">
<circle stroke="none" fill="currentColor" cx="200" cy="160" r="120"/>
<g stroke="black" fill="black" transform="translate(80,280) matrix(1,0,0,-1,0,0) scale(0.23,0.23)">
<path d="M527 33Q629 33 718 71T874 177T979 333T1018 525Q1018 627 980 716T874 872T718 978T527 1017Q425 1017 336 978T179 873T74 717T35 525Q35 423 73 334T179 177T335 72T527 33ZM1053 525Q1053 416 1012
320T899 153T732 41T527 -1Q418 -1 322 40T155 153T42 320T0 525Q0 634 41 730T154 897T322 1009T527 1051Q636 1051 731 1010T898 897T1011 730T1053 525ZM738 662Q717 631 690 597T628 526Q663 488 691 453T739 388T770 334T781 295Q781 283 775 277Q766 270
756 270Q733 270 690 295T592 365Q587 318 580 280Q559 174 526 174Q492 174 471 280Q464 318 459 365Q405 321 362 296T295 270Q284 270 277 277Q270 283 270 295Q270 310 281 334T312 388T360 453T423 526Q356 599 313 662Q270 726 270 757Q270 769 276 775Q283
782 294 782Q325 782 390 738Q407 727 424 714T459 686Q463 732 471 772Q492 878 526 878Q559 878 580 772Q588 732 592 687Q646 732 689 757T756 782Q768 782 775 775Q781 769 781 757Q781 726 738 662ZM756 769Q735 769 692 743T594 672Q598 618 600 557Q605
551 610 546T620 535Q652 570 680 604T728 669Q751 703 760 724T769 757Q769 763 766 766Q764 769 756 769ZM569 482Q574 487 578 491T587 501Q588 507 588 513Q588 519 588 526Q588 533 588 539Q588 545 587 552L569 570Q558 581 548 591T526 612Q515 602 504
592T482 570L464 552V500L482 482Q493 471 504 461T526 440L569 482ZM578 474Q567 463 557 453T535 432Q547 421 559 411T582 390Q584 412 585 435T587 483L578 474ZM517 432Q506 442 495 452T473 474L464 483Q465 458 466 435T469 390Q481 400 492 410T517 432ZM452
514V539Q449 535 446 532T440 526L452 514ZM464 570Q470 576 473 578Q484 589 495 599T517 620Q493 642 469 662Q467 640 466 617T464 570ZM535 620Q546 610 556 600T578 578Q582 575 587 569Q586 594 585 617T582 662Q572 654 563 645T543 627L535 620ZM600 514L612
526Q609 529 606 532T600 539V514ZM484 770Q479 749 476 726T471 677Q485 666 498 654T526 629Q540 642 553 654T581 677Q578 703 575 726T568 770Q557 824 546 845T526 866Q517 866 506 845T484 770ZM324 669Q344 638 371 604T431 535L452 557Q454 618 458 672Q438
688 419 702T383 728Q349 751 328 760T295 769Q288 769 285 766Q282 764 282 757Q282 746 291 725T324 669ZM295 283Q316 283 360 309T458 381Q454 433 452 496L431 517Q398 481 371 447T324 384T293 331T282 295Q282 289 285 286Q288 283 295 283ZM568 283Q572
303 575 326T581 375Q567 386 554 398T526 423Q512 410 498 398T471 375Q473 349 476 326T484 283Q495 229 506 208T526 186Q534 186 545 207T568 283ZM769 295Q769 308 758 331T728 383T681 447T620 517L600 496Q598 433 594 381Q648 336 691 310T756 283Q763
283 766 286Q769 289 769 295ZM526 563Q540 563 550 553T560 528Q560 514 550 504T526 493Q512 493 502 503T491 528Q491 542 501 552T526 563ZM527 72Q449 72 388 93T285 141Q236 171 200 210L233 242Q265 206 309 179Q347 156 401 137T527 117Q597 117 651 136T744
179Q788 206 821 242L853 210Q816 171 768 141Q726 115 666 94T527 72ZM853 840L821 808Q788 843 744 870Q706 893 652 913T527 933Q456 933 402 913T309 870Q265 843 233 808L200 840Q236 878 285 909Q327 935 388 956T527 978Q605 978 665 957T768 909Q816 878
853 840Z"/>
</g>
<line x1="200" x2="200" y1="280" y2="320"/>
</svg>
