<?xml version="1.0" ?>
<svg style="stroke:rgb(0,0,0);stroke-width:2"><path d="M115 285 C115 400 285 400 285 285 C400 285 400 115 285 115 C285 0 115 0 115 115 C0     115 0 285 115 285 z" class="border"/><line style="fill:none;" transform="translate(200 164.5) scale(1 1) translate(-200 -164.5)" x1="200" x2="200" y1="110" y2="219"/><line style="fill:none;" x1="135" x2="265" y1="115" y2="115"/><polyline points="198,305 260,222 140,222 202,305" style="fill:none;"/><polyline points="50,140 90,200 50,260" style="fill:none;"/><polyline points="350,140 310,200 350,260" style="fill:none;"/></svg>