<?xml version="1.0" ?>
<svg style="stroke:rgb(0,0,0);stroke-width:2"><path d="M115 285 C115 400 285 400 285 285 C400 285 400 115 285 115 C285 0 115 0 115 115 C0     115 0 285 115 285 z" class="border"/><g transform="translate(80 48) scale(0.6 0.6)"><ellipse cx="130" cy="160" rx="18" ry="18" style="fill:rgb(0,0,0);"/><ellipse cx="270" cy="160" rx="18" ry="18" style="fill:rgb(0,0,0);"/><path d="M140 145 C200 180 210 200 235 290" style="fill:none;"/><path d="M260 145 C200 180 190 200 165 290" style="fill:none;"/></g><line style="fill:none;" x1="320" x2="80" y1="121" y2="279"/><g transform="translate(10 0) scale(0.95 0.88)"><path d="M140 140 C80 140 80 260 140 260 L260 260 C320 260 320 140 260 140 z" style="fill:none;"/></g><ellipse cx="120" cy="245" rx="13" ry="13" style="fill:none;"/><ellipse cx="200" cy="245" rx="13" ry="13" style="fill:none;"/><ellipse cx="280" cy="245" rx="13" ry="13" style="fill:none;"/></svg>