/* XPM */
static const char * xpm_add_point[] = {
"32 32 90 1",
" 	c None",
".	c #22490C",
"+	c #3D9A3B",
"@	c #4AC453",
"#	c #49C151",
"$	c #48BE4F",
"%	c #46BB4D",
"&	c #45B84B",
"*	c #43B549",
"=	c #41B248",
"-	c #2C6C20",
";	c #40A441",
">	c #4CCC57",
",	c #4BC955",
"'	c #49C553",
")	c #48C251",
"!	c #46BF4F",
"~	c #44BB4D",
"{	c #42B74B",
"]	c #2E7123",
"^	c #3D9E3D",
"/	c #41B449",
"(	c #2C6D21",
"_	c #3D9C3B",
":	c #3FB047",
"<	c #3B993A",
"[	c #3DAC45",
"}	c #2B6B1F",
"|	c #3B9739",
"1	c #3BA943",
"2	c #2A691E",
"3	c #399537",
"4	c #39A540",
"5	c #29681E",
"6	c #379035",
"7	c #37A13E",
"8	c #28631B",
"9	c #41A843",
"0	c #43AE46",
"a	c #42AC45",
"b	c #41AA43",
"c	c #40A742",
"d	c #3FA540",
"e	c #3DA23F",
"f	c #3C9F3D",
"g	c #3FAE46",
"h	c #369D3C",
"i	c #318C33",
"j	c #2E832D",
"k	c #2D7F2B",
"l	c #2B7D2A",
"m	c #2A7A28",
"n	c #287726",
"o	c #277525",
"p	c #267223",
"q	c #4DCB57",
"r	c #34993A",
"s	c #329538",
"t	c #309135",
"u	c #2E8E33",
"v	c #2C8A31",
"w	c #2A862F",
"x	c #29832D",
"y	c #277F2B",
"z	c #257B29",
"A	c #237827",
"B	c #227525",
"C	c #207123",
"D	c #1F6E21",
"E	c #1D6B1F",
"F	c #2D6E21",
"G	c #2D7022",
"H	c #2D6F22",
"I	c #318A31",
"J	c #25681E",
"K	c #235B16",
"L	c #225A16",
"M	c #225915",
"N	c #215714",
"O	c #215613",
"P	c #205513",
"Q	c #205412",
"R	c #2D7B29",
"S	c #235815",
"T	c #2C7A28",
"U	c #2B7827",
"V	c #2A7625",
"W	c #287324",
"X	c #277023",
"Y	c #277223",
"                                ",
"                                ",
"                                ",
"                                ",
"            .........           ",
"           .+@#$%&*=-           ",
"           .;>,')!~{]           ",
"           .^,')!~{/(           ",
"           ._')!~{/:-           ",
"           .<)!~{/:[}           ",
"           .|!~{/:[12           ",
"           .3~{/:[145           ",
"    ........6{/:[1478.......    ",
"   .90abcdefg/:[147hijklmnop.   ",
"   .q>,')!~{/:[147hrstuvwxyz.   ",
"   .#,')!~{/:[147hrstuvwxyzA.   ",
"   .$')!~{/:[147hrstuvwxyzAB.   ",
"   .%)!~{/:[147hrstuvwxyzABC.   ",
"   .&!~{/:[147hrstuvwxyzABCD.   ",
"   .!~{/:[147hrstuvwxyzABCDE.   ",
"   .FGH(-}25IrstuvwxJKLMNOPQ.   ",
"           .RstuvwxyS           ",
"           .TtuvwxyzL           ",
"           .UuvwxyzAM           ",
"           .VvwxyzABN           ",
"           .WwxyzABCO           ",
"           .XxyzABCDP           ",
"           .YyzABCDEP           ",
"            .........           ",
"                                ",
"                                ",
"                                "};
