/* XPM */
static const char * xpm_arrow_down[] = {
"32 32 55 1",
" 	c None",
".	c #22490C",
"+	c #255010",
"@	c #2D681E",
"#	c #2D671D",
"$	c #2C671D",
"%	c #2C661D",
"&	c #2B651C",
"*	c #2B641B",
"=	c #2A631B",
"-	c #2A621A",
";	c #296019",
">	c #295F19",
",	c #285E18",
"'	c #275D17",
")	c #275B16",
"!	c #265A16",
"~	c #255815",
"{	c #255714",
"]	c #245613",
"^	c #235413",
"/	c #235312",
"(	c #225110",
"_	c #44AA43",
":	c #58E465",
"<	c #57E163",
"[	c #55DD61",
"}	c #53D95F",
"|	c #50D55C",
"1	c #4ECF59",
"2	c #4BCA56",
"3	c #49C453",
"4	c #46BE4F",
"5	c #43B84B",
"6	c #3FB148",
"7	c #3CAB44",
"8	c #39A440",
"9	c #369D3C",
"0	c #329638",
"a	c #2F8F34",
"b	c #2C8930",
"c	c #28822D",
"d	c #257C29",
"e	c #227323",
"f	c #225010",
"g	c #42A541",
"h	c #3FA03E",
"i	c #3C993A",
"j	c #389236",
"k	c #348A31",
"l	c #30822C",
"m	c #2C7927",
"n	c #287122",
"o	c #24691E",
"p	c #224E0F",
"                                ",
"                                ",
"                                ",
"                                ",
"                                ",
"                                ",
"                                ",
"                                ",
" .............................. ",
" .+@@@@@@@@#$%&*=-;>,')!~{]^/(. ",
" .._::::::<[}|1234567890abcdef. ",
"  .._::::<[}|1234567890abcdef.. ",
"   .._::<[}|1234567890abcdef..  ",
"    .._<[}|1234567890abcdef..   ",
"     ..g}|1234567890abcdef..    ",
"      ..h1234567890abcdef..     ",
"       ..i34567890abcdef..      ",
"        ..j567890abcdef..       ",
"         ..k7890abcdef..        ",
"          ..l90abcdef..         ",
"           ..mabcdef..          ",
"            ..ncdef..           ",
"             ..oef..            ",
"              ..p..             ",
"               ...              ",
"                                ",
"                                ",
"                                ",
"                                ",
"                                ",
"                                ",
"                                "};
