/* XPM */
static const char * xpm_checkbox_off[] = {
"11 11 60 1",
" 	c #1A4F7F",
".	c #285985",
"+	c #255784",
"@	c #255884",
"#	c #265885",
"$	c #295B87",
"%	c #FFF9E9",
"&	c #F0EAE0",
"*	c #F1EBE1",
"=	c #F5EFE4",
"-	c #F7F1E8",
";	c #FBF6EE",
">	c #FFFAF2",
",	c #FFFFF7",
"'	c #FFFFFF",
")	c #2A5B87",
"!	c #255783",
"~	c #DDDDD8",
"{	c #DFDFDB",
"]	c #E2E2DE",
"^	c #E6E6E3",
"/	c #EBEBE7",
"(	c #EEEEEB",
"_	c #F0F0EF",
":	c #FFFFFD",
"<	c #F2ECE2",
"[	c #E0E0DA",
"}	c #E5E5E2",
"|	c #EAEAE7",
"1	c #EEEEEC",
"2	c #F1F1EE",
"3	c #F3F3F1",
"4	c #265985",
"5	c #E2E2DF",
"6	c #F0F0EE",
"7	c #F5F5F4",
"8	c #245783",
"9	c #F7F2E8",
"0	c #E5E5E3",
"a	c #F1F1EF",
"b	c #F2F2F2",
"c	c #F6F6F5",
"d	c #F8F8F7",
"e	c #265986",
"f	c #FBF6ED",
"g	c #FAFAF9",
"h	c #275985",
"i	c #255885",
"j	c #F7F7F6",
"k	c #FCFCFB",
"l	c #275986",
"m	c #FFFFF6",
"n	c #F2F2F1",
"o	c #F6F6F4",
"p	c #FAFAF8",
"q	c #FCFCFC",
"r	c #FEFEFE",
"s	c #2A5C88",
"t	c #1A4F7E",
"u	c #194F7E",
" .++++@@#$ ",
".%&*=-;>,')",
"!&~{]^/(_:#",
"+<[]}|123'4",
"+=5^|(637'4",
"890|(abcd'e",
"@f|1237dg'h",
"i>(637jgk'l",
"im2nodpqr'l",
"$':'''''''s",
"t$##44eeesu"};
