/* XPM */
static const char * xpm_check_grey[] = {
"16 16 2 1",
" 	c None",
".	c #696969",
"                ",
"                ",
"                ",
"                ",
"             .  ",
"            ..  ",
" .         ..   ",
"  ..     ...    ",
"   ...   ..     ",
"    ......      ",
"     ....       ",
"     ...        ",
"      ..        ",
"                ",
"                ",
"                "};
