/* XPM */
static const char * xpm_checkbox_on[] = {
"11 11 78 1",
" 	c #1A4F7F",
".	c #285A86",
"+	c #255784",
"@	c #255884",
"#	c #265885",
"$	c #295B87",
"%	c #1A4F7E",
"&	c #285985",
"*	c #FFFFF0",
"=	c #F6F1E6",
"-	c #F8F2E8",
";	c #FAF5EB",
">	c #FDF7ED",
",	c #FFFAF2",
"'	c #FFFFFA",
")	c #FFFFFF",
"!	c #245783",
"~	c #F6F1E7",
"{	c #E2E2DE",
"]	c #E4E4E0",
"^	c #E7E7E3",
"/	c #EAEAE7",
"(	c #F6F1F3",
"_	c #D2E5D0",
":	c #C0DFBF",
"<	c #265985",
"[	c #F7F2E8",
"}	c #EEE8E9",
"|	c #EFEAEB",
"1	c #EAEAE6",
"2	c #F3EFF0",
"3	c #EDEFEB",
"4	c #30A630",
"5	c #88CA88",
"6	c #FFF8F4",
"7	c #90C88C",
"8	c #B2D6B0",
"9	c #FDF3F9",
"0	c #FFFBFF",
"a	c #29A429",
"b	c #009200",
"c	c #8BCB8B",
"d	c #265986",
"e	c #FFFBF9",
"f	c #88C686",
"g	c #E5EDE2",
"h	c #1FA01F",
"i	c #089708",
"j	c #6DC06D",
"k	c #265886",
"l	c #FFFFFB",
"m	c #A3D1A2",
"n	c #1A9E1A",
"o	c #089709",
"p	c #0D990D",
"q	c #6EC06E",
"r	c #FCFBFB",
"s	c #275885",
"t	c #255885",
"u	c #FFFEF6",
"v	c #FFF8FF",
"w	c #ABD7A9",
"x	c #109A10",
"y	c #6BBF6B",
"z	c #FBFBFA",
"A	c #FDFDFC",
"B	c #275985",
"C	c #F3F3F1",
"D	c #FFFCFF",
"E	c #9FD49E",
"F	c #FFFEFF",
"G	c #FCFBFA",
"H	c #FCFCFC",
"I	c #FEFEFE",
"J	c #275986",
"K	c #295B86",
"L	c #2A5C88",
"M	c #194F7E",
" .++@@@@#$%",
"&*=-;>,'))$",
"!~{]^/(_:)<",
"+[}|12345)<",
"@67890abc)d",
"@efbghij))k",
"#lmnopq)r)s",
"tuvwxy)zA)B",
"t'CDEFGHI)J",
"K)))))))))L",
"%$<<<<dddLM"};
