/* XPM */
static const char * xpm_connected[] = {
"32 32 254 2",
"  	c None",
". 	c #22490C",
"+ 	c #234B0D",
"@ 	c #275915",
"# 	c #307324",
"$ 	c #3A9136",
"% 	c #42AE46",
"& 	c #48C251",
"* 	c #47BF4F",
"= 	c #40A943",
"- 	c #368B32",
"; 	c #2D6E21",
"> 	c #265714",
", 	c #224A0D",
"' 	c #234D0E",
") 	c #2E6C20",
"! 	c #41A641",
"~ 	c #4FD15A",
"{ 	c #4DCE59",
"] 	c #4CCC57",
"^ 	c #4BCA56",
"/ 	c #4AC754",
"( 	c #49C553",
"_ 	c #47C251",
": 	c #46BF50",
"< 	c #45BD4E",
"[ 	c #44BA4D",
"} 	c #379336",
"| 	c #2A641B",
"1 	c #234C0E",
"2 	c #2A6019",
"3 	c #40A440",
"4 	c #50D35B",
"5 	c #4DCE58",
"6 	c #4BC956",
"7 	c #49C453",
"8 	c #43BA4D",
"9 	c #42B74B",
"0 	c #41B449",
"a 	c #3FB148",
"b 	c #348A32",
"c 	c #265915",
"d 	c #307424",
"e 	c #51D55C",
"f 	c #4FD05A",
"g 	c #45BC4E",
"h 	c #3EAE46",
"i 	c #3DAB44",
"j 	c #3BA943",
"k 	c #29651C",
"l 	c #224A0C",
"m 	c #337C29",
"n 	c #4ED05A",
"o 	c #3CAB44",
"p 	c #3BA843",
"q 	c #3AA541",
"r 	c #38A33F",
"s 	c #29681E",
"t 	c #43B94C",
"u 	c #38A23F",
"v 	c #37A03D",
"w 	c #359D3C",
"x 	c #27611A",
"y 	c #4FD25B",
"z 	c #48C453",
"A 	c #47C151",
"B 	c #3BA842",
"C 	c #379F3D",
"D 	c #359C3C",
"E 	c #34993A",
"F 	c #329738",
"G 	c #245513",
"H 	c #4BC955",
"I 	c #46BF4F",
"J 	c #3FB147",
"K 	c #39A541",
"L 	c #329638",
"M 	c #319337",
"N 	c #2A7827",
"O 	c #224B0D",
"P 	c #4CCB57",
"Q 	c #4AC654",
"R 	c #48C452",
"S 	c #42B64B",
"T 	c #40B449",
"U 	c #319336",
"V 	c #2F9035",
"W 	c #2E8E33",
"X 	c #255A15",
"Y 	c #40A541",
"Z 	c #4ED059",
"` 	c #40B349",
" .	c #359C3B",
"..	c #2E8D33",
"+.	c #2D8B31",
"@.	c #287324",
"#.	c #46BE4F",
"$.	c #44BC4E",
"%.	c #369F3D",
"&.	c #2C8A31",
"*.	c #2B8830",
"=.	c #2A852E",
"-.	c #235010",
";.	c #41A943",
">.	c #327B29",
",.	c #275815",
"'.	c #265814",
").	c #307827",
"!.	c #3B9F3D",
"~.	c #42B64A",
"{.	c #3FB047",
"].	c #39A540",
"^.	c #2E832D",
"/.	c #28671D",
"(.	c #245211",
"_.	c #235111",
":.	c #26631B",
"<.	c #297827",
"[.	c #28822C",
"}.	c #245A16",
"|.	c #399135",
"1.	c #296019",
"2.	c #A7B69E",
"3.	c #E4E9E1",
"4.	c #285D18",
"5.	c #3A9B3A",
"6.	c #3DAD45",
"7.	c #255614",
"8.	c #235412",
"9.	c #267424",
"0.	c #277F2B",
"a.	c #24651C",
"b.	c #42AD46",
"c.	c #FFFFFF",
"d.	c #B4C2AD",
"e.	c #597749",
"f.	c #245F18",
"g.	c #267C29",
"h.	c #246F22",
"i.	c #48C050",
"j.	c #49C654",
"k.	c #224F10",
"l.	c #247927",
"m.	c #237424",
"n.	c #47BE4F",
"o.	c #48C352",
"p.	c #224F0F",
"q.	c #237726",
"r.	c #227122",
"s.	c #3FA742",
"t.	c #225B16",
"u.	c #227424",
"v.	c #20691E",
"w.	c #368A31",
"x.	c #45BE4F",
"y.	c #3B9E3D",
"z.	c #275A16",
"A.	c #348F34",
"B.	c #39A440",
"C.	c #38A13E",
"D.	c #369E3D",
"E.	c #359B3B",
"F.	c #339839",
"G.	c #329538",
"H.	c #309236",
"I.	c #2F9034",
"J.	c #297726",
"K.	c #225111",
"L.	c #22691E",
"M.	c #207123",
"N.	c #205E17",
"O.	c #2D6D21",
"P.	c #44BB4D",
"Q.	c #43B84C",
"R.	c #399A3A",
"S.	c #2E7324",
"T.	c #265613",
"U.	c #255513",
"V.	c #2C7022",
"W.	c #37A13E",
"X.	c #2F8F34",
"Y.	c #2B872F",
"Z.	c #29842E",
"`.	c #267324",
" +	c #245E18",
".+	c #1F6F21",
"++	c #215412",
"@+	c #265614",
"#+	c #41B54A",
"$+	c #40B248",
"%+	c #3CAA43",
"&+	c #3AA742",
"*+	c #2D8C32",
"=+	c #28812C",
"-+	c #277E2A",
";+	c #257C29",
">+	c #237626",
",+	c #217424",
"'+	c #1E6C20",
")+	c #214D0E",
"!+	c #379136",
"~+	c #329537",
"{+	c #2C8931",
"]+	c #29842D",
"^+	c #1F5F19",
"/+	c #2A631B",
"(+	c #3EAF47",
"_+	c #349B3B",
":+	c #267E2A",
"<+	c #257B29",
"[+	c #1D6A1F",
"}+	c #205110",
"|+	c #338931",
"1+	c #369E3C",
"2+	c #2B862F",
"3+	c #1D6A1E",
"4+	c #1E5D17",
"5+	c #3AA741",
"6+	c #2A862F",
"7+	c #29832D",
"8+	c #237625",
"9+	c #217324",
"0+	c #1F6E21",
"a+	c #1C681D",
"b+	c #214E0F",
"c+	c #29641C",
"d+	c #319537",
"e+	c #2C8930",
"f+	c #257B28",
"g+	c #207122",
"h+	c #205111",
"i+	c #29671D",
"j+	c #349A3B",
"k+	c #309235",
"l+	c #247827",
"m+	c #227625",
"n+	c #1B671D",
"o+	c #1F5312",
"p+	c #28802B",
"q+	c #2A7626",
"r+	c #1C6A1E",
"s+	c #1D5C17",
"t+	c #255915",
"u+	c #277223",
"v+	c #267D2A",
"w+	c #1E5E18",
"x+	c #234F10",
"y+	c #235915",
"z+	c #24641B",
"A+	c #246D21",
"B+	c #227223",
"C+	c #217022",
"D+	c #20671D",
"E+	c #205D17",
"                          . . . . . .                           ",
"                    + @ # $ % & * = - ; > ,                     ",
"                ' ) ! ~ { ] ^ / ( _ : < [ } | 1                 ",
"            . 2 3 4 ~ 5 ] 6 / 7 _ : < 8 9 0 a b c .             ",
"          , d e 4 f 5 ] 6 / 7 _ : g 8 9 0 a h i j k l           ",
"        , m e 4 n 5 ] 6 / 7 _ : g 8 9 0 a h o p q r s l         ",
"      . d e 4 n 5 ] 6 / 7 _ : g t 9 0 a h o p q u v w x .       ",
"      2 e y n 5 ] 6 / z A : g t 9 0 a h o B q u C D E F G       ",
"    ' 3 y n 5 ] H / z A I g t 9 0 J h o B K u C D E L M N O     ",
"    ) y n 5 P H Q R A I g t S T J h o B K u C D E L U V W X     ",
"  + Y Z 5 P H Q R A I g t S ` J h o B K u C  .E L U V ..+.@.l   ",
"  @ Z 5 P H Q R A #.$.t S ` J h o B K u %. .E L U V ..&.*.=.-.  ",
"  # 5 P ;.>.,.'.).!.t ~.` {.h o B ].u %. .E ^./.(._.:.<.=.[.}.  ",
". |.P ;.1.2.3.3.2.4.5.` {.6.o B ].u %. .E ^.7.2.3.3.2.8.9.0.a.. ",
". b.H >.2.c.c.c.c.d.e.. . . . . . . . . . e.d.c.c.c.c.2.f.g.h.. ",
". i.j.,.3.c.c.c.c.c.c.c.c.c.c.c.c.c.c.c.c.c.c.c.c.c.c.3.k.l.m.. ",
". n.o.'.3.c.c.c.c.c.c.c.c.c.c.c.c.c.c.c.c.c.c.c.c.c.c.3.p.q.r.. ",
". s.A ).2.c.c.c.c.d.e.. . . . . . . . . . e.d.c.c.c.c.2.t.u.v.. ",
". w.x.y.4.2.3.3.2.z.A.B.C.D.E.F.G.H.I...&.J.8.2.3.3.2.K.L.M.N.. ",
"  O.P.Q.R.S.T.U.V.A.B.W.D.E.F.G.H.X...&.Y.Z.`. +k.p.t.L.M..+++  ",
"  @+Q.#+$+{.6.%+&+B.W.D.E.F.G.H.X.*+&.Y.Z.=+-+;+l.>+,+M..+'+)+  ",
"  , !+$+{.6.%+&+B.W.D.E.F.~+H.X.*+{+Y.]+=+-+;+l.>+,+M..+'+^+.   ",
"    /+(+6.%+&+B.W.D._+F.~+H.X.*+{+Y.]+=+:+<+l.>+,+M..+'+[+}+    ",
"    1 |+%+&+B.W.1+_+F.~+H.X.*+{+2+]+=+:+<+l.>+,+M..+'+3+4+l     ",
"      c 5+B.W.1+_+F.~+H.X.*+{+6+7+=+:+<+l.8+9+M.0+'+3+a+b+      ",
"      . c+W.1+_+F.d+H.X.*+e+6+7+=+:+f+l.8+9+g+0+'+3+a+h+.       ",
"        l i+j+F.d+k+X.*+e+6+7+=+:+f+l+m+9+g+0+'+3+n+o+.         ",
"          l x d+k+X.*+e+6+7+p+:+f+l+m+9+g+0+'+3+n+h+.           ",
"            . G q+*+e+6+7+p+:+f+l+m+9+g+0+'+r+s+b+.             ",
"                O t+u+7+p+v+f+l+m+9+g+0+'+w+}+l                 ",
"                    l x+y+z+A+B+C+D+E+++)+.                     ",
"                          . . . . . .                           "};
