/* XPM */
static const char * xpm_connecting[] = {
"32 32 279 2",
"  	c None",
". 	c #49300C",
"+ 	c #5A4015",
"@ 	c #84642A",
"# 	c #A8833C",
"$ 	c #C69D4A",
"% 	c #DDB054",
"& 	c #EBBB59",
"* 	c #EBBA58",
"= 	c #DBAB4F",
"- 	c #C39643",
"; 	c #A47C34",
"> 	c #815E24",
", 	c #5A3D13",
"' 	c #664A1B",
") 	c #9F7D39",
"! 	c #D4AC53",
"~ 	c #F3C562",
"{ 	c #F2C460",
"] 	c #F1C25E",
"^ 	c #F0C05C",
"/ 	c #F0BE5A",
"( 	c #EFBC58",
"_ 	c #EEBA56",
": 	c #EDB854",
"< 	c #ECB652",
"[ 	c #EBB44F",
"} 	c #CD9B41",
"| 	c #9A702C",
"1 	c #644516",
"2 	c #4A310C",
"3 	c #8F6F31",
"4 	c #D2AB54",
"5 	c #F3C763",
"6 	c #EAB24D",
"7 	c #EAB04B",
"8 	c #E9AE49",
"9 	c #C9943B",
"0 	c #896123",
"a 	c #4A300C",
"b 	c #593F15",
"c 	c #A7853E",
"d 	c #F4C965",
"e 	c #F3C561",
"f 	c #E9B04B",
"g 	c #E8AC46",
"h 	c #E7A944",
"i 	c #E6A742",
"j 	c #9F7028",
"k 	c #583B11",
"l 	c #B08C42",
"m 	c #ECB651",
"n 	c #E8AB46",
"o 	c #E5A53F",
"p 	c #E4A33D",
"q 	c #A57328",
"r 	c #573A10",
"s 	c #A7853D",
"t 	c #F4C865",
"u 	c #F2C360",
"v 	c #EDB853",
"w 	c #E8AE48",
"x 	c #E3A03A",
"y 	c #E29E38",
"z 	c #9C6B23",
"A 	c #F2C35F",
"B 	c #EFBE5A",
"C 	c #E6A741",
"D 	c #E19C36",
"E 	c #E09A33",
"F 	c #865A1B",
"G 	c #D2AA54",
"H 	c #EEBA55",
"I 	c #E8AD48",
"J 	c #E7AB46",
"K 	c #E4A23D",
"L 	c #DF9731",
"M 	c #C18128",
"N 	c #624111",
"O 	c #9F7C39",
"P 	c #F1C15D",
"Q 	c #F0C05B",
"R 	c #EFBC57",
"S 	c #E9B04A",
"T 	c #E09933",
"U 	c #DE952F",
"V 	c #DD932C",
"W 	c #93611B",
"X 	c #5A3F15",
"Y 	c #EFBE59",
"Z 	c #E9AF4A",
"` 	c #E6A944",
" .	c #E4A23C",
"..	c #E19C35",
"+.	c #DE952E",
"@.	c #DC912A",
"#.	c #C17D23",
"$.	c #58390F",
"%.	c #E6A943",
"&.	c #E5A43F",
"*.	c #DB8E27",
"=.	c #DA8C25",
"-.	c #7B4F14",
";.	c #A7833B",
">.	c #C69B47",
",.	c #8B692B",
"'.	c #5D4115",
").	c #8B6628",
"!.	c #C39440",
"~.	c #EAB14C",
"{.	c #E5A741",
"].	c #E19B35",
"^.	c #BA7F29",
"/.	c #85591B",
"(.	c #5B3C10",
"_.	c #845618",
":.	c #B67620",
"<.	c #D98A23",
"[.	c #996118",
"}.	c #C69C49",
"|.	c #67491A",
"1.	c #B6AC9E",
"2.	c #E9E6E1",
"3.	c #664818",
"4.	c #C2913C",
"5.	c #D79E40",
"6.	c #976C27",
"7.	c #634415",
"8.	c #634314",
"9.	c #966924",
"0.	c #D39535",
"a.	c #644313",
"b.	c #634111",
"c.	c #B5731D",
"d.	c #D88821",
"e.	c #B26F19",
"f.	c #DDAF53",
"g.	c #F0BF5B",
"h.	c #8B682B",
"i.	c #FFFFFF",
"j.	c #896325",
"k.	c #A49886",
"l.	c #E1DDD7",
"m.	c #956721",
"n.	c #85591A",
"o.	c #825314",
"p.	c #D7861E",
"q.	c #C67A1A",
"r.	c #EFBD59",
"s.	c #5C3F13",
"t.	c #E7AB45",
"u.	c #634315",
"v.	c #624213",
"w.	c #DF9730",
"x.	c #5A3A0E",
"y.	c #D6841C",
"z.	c #D27F1A",
"A.	c #EAB957",
"B.	c #EEBB57",
"C.	c #E6A843",
"D.	c #E5A641",
"E.	c #624112",
"F.	c #D6821A",
"G.	c #D17D18",
"H.	c #DAAA4E",
"I.	c #EEB955",
"J.	c #886022",
"K.	c #E4A43E",
"L.	c #94631E",
"M.	c #DE942E",
"N.	c #DD922C",
"O.	c #815112",
"P.	c #D58018",
"Q.	c #C37515",
"R.	c #C29542",
"S.	c #EDB753",
"T.	c #C3943F",
"U.	c #654616",
"V.	c #BE8834",
"W.	c #E3A23C",
"X.	c #D29435",
"Y.	c #956621",
"Z.	c #CF8A2B",
"`.	c #DD922B",
" +	c #DC9029",
".+	c #623F0F",
"++	c #B26C15",
"@+	c #D47E16",
"#+	c #AF6812",
"$+	c #A47B34",
"%+	c #ECB550",
"&+	c #EBB34E",
"*+	c #BE8833",
"=+	c #E29F39",
"-+	c #E19D37",
";+	c #E09B35",
">+	c #E09932",
",+	c #DF9630",
"'+	c #B5731C",
")+	c #815012",
"!+	c #D37C14",
"~+	c #95590F",
"{+	c #815E23",
"]+	c #E8AD47",
"^+	c #E7AA45",
"/+	c #E5A640",
"(+	c #DF9932",
"_+	c #D98922",
":+	c #D88720",
"<+	c #D7851E",
"[+	c #D6831C",
"}+	c #D5811A",
"|+	c #D57F18",
"1+	c #D27A12",
"2+	c #78490D",
"3+	c #CD9A40",
"4+	c #E8AC47",
"5+	c #E3A13C",
"6+	c #DE9630",
"7+	c #DA8B24",
"8+	c #D47D16",
"9+	c #B86B0F",
"0+	c #57370C",
"a+	c #99702B",
"b+	c #DF9832",
"c+	c #DE942D",
"d+	c #D17810",
"e+	c #8D530D",
"f+	c #C8923A",
"g+	c #E6A842",
"h+	c #E3A13B",
"i+	c #E09B34",
"j+	c #DD942D",
"k+	c #DB8D27",
"l+	c #D57F17",
"m+	c #B6680E",
"n+	c #603C0C",
"o+	c #896122",
"p+	c #E4A33E",
"q+	c #DB8D26",
"r+	c #D58119",
"s+	c #D47D15",
"t+	c #D37B13",
"u+	c #D1760E",
"v+	c #804C0C",
"w+	c #9E6F27",
"x+	c #E09A34",
"y+	c #DC922B",
"z+	c #DC8F29",
"A+	c #D6831B",
"B+	c #93560C",
"C+	c #573B10",
"D+	c #A47227",
"E+	c #DE962F",
"F+	c #D47F17",
"G+	c #D27A11",
"H+	c #99590C",
"I+	c #56360C",
"J+	c #9C6A22",
"K+	c #DB8F28",
"L+	c #D7851D",
"M+	c #D27911",
"N+	c #93550C",
"O+	c #865A1A",
"P+	c #C08027",
"Q+	c #DC912B",
"R+	c #D8871F",
"S+	c #624011",
"T+	c #92601A",
"U+	c #C07C21",
"V+	c #B86B0E",
"W+	c #603B0C",
"X+	c #58390E",
"Y+	c #996017",
"Z+	c #C57919",
"`+	c #D17E19",
" @	c #D07D17",
".@	c #C37414",
"+@	c #AF6711",
"                        . . . . . . . .                         ",
"                  . + @ # $ % & * = - ; > , .                   ",
"                ' ) ! ~ { ] ^ / ( _ : < [ } | 1                 ",
"            2 3 4 5 ~ { ] ^ / ( _ : < [ 6 7 8 9 0 a             ",
"          b c d 5 e { ] ^ / ( _ : < [ 6 f 8 g h i j k           ",
"        b l d 5 e { ] ^ / ( _ : m [ 6 f 8 n h i o p q r         ",
"      2 s t 5 e u ] ^ / ( _ v m [ 6 f w n h i o p x y z a       ",
"      3 t 5 e A ] ^ B ( _ v m [ 6 f w n h C o p x y D E F       ",
"    ' G 5 e A ] ^ B ( H v m [ 6 f I J h C o K x y D E L M N     ",
"  . O 5 e A P Q B R H v m [ 6 S I J h C o K x y D T L U V W .   ",
"  X ! e A P Q Y R H v m [ 6 Z I J ` C o  .x y ..T L +.V @.#.$.  ",
"  @ e A P Q Y R H v m [ 6 Z I J %.C &. .x y ..T L +.V @.*.=.-.  ",
". ;.A P >.,.'.'.).!.[ ~.Z I J %.{.&. .x y ].^./.(.(._.:.=.<.[.. ",
". }.P >.|.1.2.2.1.3.4.Z I 5.6.7.8.9.0.y ].^.a.1.2.2.1.b.c.d.e.. ",
". f.g.h.1.i.i.i.i.1.j.I J 6.k.l.l.k.m.].T n.1.i.i.i.i.1.o.p.q.. ",
". & r.'.2.i.i.i.i.2.s.t.%.u.l.i.i.l.v.T w.(.2.i.i.i.i.2.x.y.z.. ",
". A.B.'.2.i.i.i.i.2.s.C.D.8.l.i.i.l.E.w.+.(.2.i.i.i.i.2.x.F.G.. ",
". H.I.).1.i.i.i.i.1.J.D.K.9.k.l.l.k.L.M.N._.1.i.i.i.i.1.O.P.Q.. ",
". R.S.T.3.1.2.2.1.U.V.K.W.X.Y.v.E.L.Z.`. +:.b.1.2.2.1..+++@+#+. ",
". $+%+&+4.j.s.s.J.*+K.W.=+-+;+>+,+M.`. +*.=.'+o.x.x.)+++@+!+~+. ",
"  {+&+~.Z ]+^+C./+K.W.=+-+;+(+,+M.`. +*.=._+:+<+[+}+|+@+!+1+2+  ",
"  , 3+Z 4+^+C./+K.5+=+-+;+(+6+M.`. +*.7+_+:+<+[+}+|+8+!+1+9+0+  ",
"  . a+4+^+C./+K.5+=+-+;+b+6+c+`. +*.7+_+:+<+[+}+|+8+!+1+d+e+.   ",
"    1 f+g+/+K.h+=+-+i+b+6+j+`. +k+7+_+:+<+[+}+l+8+!+1+d+m+n+    ",
"      o+/+p+h+=+-+i+b+6+j+`. +q+7+_+:+<+[+r+l+s+t+1+d+u+v+      ",
"      a w+h+=+-+x+b+6+j+y+z+q+7+_+:+<+A+r+l+s+t+1+d+u+B+a       ",
"        C+D+-+x+b+E+j+y+z+q+7+_+:+<+A+r+F+s+t+G+d+u+H+I+        ",
"          r J+b+E+j+y+K+q+7+_+:+L+A+r+F+s+t+M+d+u+N+I+          ",
"            a O+P+Q+K+q+7+_+R+L+A+r+F+s+t+M+d+m+v+a             ",
"                S+T+U+7+_+R+L+A+r+F+s+t+M+V+e+W+                ",
"                  . X+-.Y+e.Z+`+ @.@+@~+2+0+.                   ",
"                        . . . . . . . .                         "};
