/* XPM */
static const char * xpm_connected[] = {
"32 32 289 2",
"  	c None",
". 	c #22490C",
"+ 	c #275714",
"@ 	c #327927",
"# 	c #3B9537",
"$ 	c #42AB45",
"% 	c #47BC4E",
"& 	c #4AC654",
"* 	c #49C352",
"= 	c #44B64A",
"- 	c #3DA23F",
"; 	c #368B32",
"> 	c #2E7123",
", 	c #255513",
"' 	c #2A611A",
") 	c #3A8F34",
"! 	c #48BA4D",
"~ 	c #4FD15A",
"{ 	c #4DCE59",
"] 	c #4CCC57",
"^ 	c #4BCA56",
"/ 	c #4AC754",
"( 	c #49C553",
"_ 	c #47C251",
": 	c #46BF50",
"< 	c #45BD4E",
"[ 	c #44BA4D",
"} 	c #3CA340",
"| 	c #327F2B",
"1 	c #275B16",
"2 	c #224A0C",
"3 	c #36832D",
"4 	c #48BA4C",
"5 	c #50D35B",
"6 	c #4DCE58",
"7 	c #4BC956",
"8 	c #49C453",
"9 	c #43BA4D",
"0 	c #42B74B",
"a 	c #41B449",
"b 	c #3FB148",
"c 	c #399A3B",
"d 	c #2D7123",
"e 	c #3C9738",
"f 	c #51D55C",
"g 	c #4FD05A",
"h 	c #45BC4E",
"i 	c #3EAE46",
"j 	c #3DAB44",
"k 	c #3BA943",
"l 	c #2F7C29",
"m 	c #245111",
"n 	c #3F9E3C",
"o 	c #4ED05A",
"p 	c #3CAB44",
"q 	c #3BA843",
"r 	c #3AA541",
"s 	c #38A33F",
"t 	c #2F7D2A",
"u 	c #43B94C",
"v 	c #38A23F",
"w 	c #37A03D",
"x 	c #359D3C",
"y 	c #2C7525",
"z 	c #4FD25B",
"A 	c #399136",
"B 	c #49C351",
"C 	c #48C453",
"D 	c #47C151",
"E 	c #3BA842",
"F 	c #379F3D",
"G 	c #359C3C",
"H 	c #34993A",
"I 	c #329738",
"J 	c #28681E",
"K 	c #47BA4C",
"L 	c #4BC955",
"M 	c #265513",
"N 	c #389035",
"O 	c #45BC4D",
"P 	c #3FB147",
"Q 	c #39A541",
"R 	c #329638",
"S 	c #319337",
"T 	c #2C832D",
"U 	c #245513",
"V 	c #398F34",
"W 	c #4CCB57",
"X 	c #D8DFD4",
"Y 	c #7D9470",
"Z 	c #265714",
"` 	c #368E33",
" .	c #42B54A",
"..	c #40B449",
"+.	c #319336",
"@.	c #2F9035",
"#.	c #2E8E33",
"$.	c #286A1F",
"%.	c #47B94D",
"&.	c #4ED059",
"*.	c #48C452",
"=.	c #FFFFFF",
"-.	c #D3DBCE",
";.	c #78906A",
">.	c #275915",
",.	c #348B31",
"'.	c #359C3B",
").	c #2E8D33",
"!.	c #2D8B31",
"~.	c #297D2A",
"{.	c #234F0F",
"].	c #327827",
"^.	c #CED6C9",
"/.	c #738B65",
"(.	c #275A16",
"_.	c #338A31",
":.	c #369F3D",
"<.	c #2C8A31",
"[.	c #2B8830",
"}.	c #2A852E",
"|.	c #245D17",
"1.	c #3B9437",
"2.	c #46BE4F",
"3.	c #C3CEBD",
"4.	c #688359",
"5.	c #265B16",
"6.	c #30872F",
"7.	c #28822C",
"8.	c #25671D",
"9.	c #42AA44",
"0.	c #49C654",
"a.	c #44BC4E",
"b.	c #BBC7B5",
"c.	c #607C51",
"d.	c #2E842E",
"e.	c #2B8730",
"f.	c #277F2B",
"g.	c #256F21",
"h.	c #47BB4E",
"i.	c #48C352",
"j.	c #44BB4E",
"k.	c #B1BFA9",
"l.	c #567445",
"m.	c #255B16",
"n.	c #2B7F2B",
"o.	c #2B872F",
"p.	c #2A842E",
"q.	c #267C29",
"r.	c #247425",
"s.	c #4AC453",
"t.	c #42B64A",
"u.	c #ACBAA4",
"v.	c #51703F",
"w.	c #255C17",
"x.	c #287928",
"y.	c #247927",
"z.	c #237625",
"A.	c #48C252",
"B.	c #44BB4D",
"C.	c #40B349",
"D.	c #A7B69E",
"E.	c #4C6B3A",
"F.	c #25651C",
"G.	c #257C29",
"H.	c #237726",
"I.	c #227323",
"J.	c #43B449",
"K.	c #45BE4F",
"L.	c #43B84C",
"M.	c #41B64A",
"N.	c #3FB047",
"O.	c #235412",
"P.	c #256E20",
"Q.	c #227424",
"R.	c #206D20",
"S.	c #3DA13E",
"T.	c #3DAD45",
"U.	c #235513",
"V.	c #266F22",
"W.	c #277F2A",
"X.	c #207123",
"Y.	c #20651B",
"Z.	c #358A31",
"`.	c #41B54A",
" +	c #40B348",
".+	c #3CAA43",
"++	c #B4C1AC",
"@+	c #597648",
"#+	c #245714",
"$+	c #277324",
"%+	c #28812C",
"&+	c #277E2A",
"*+	c #237626",
"=+	c #1F6F21",
"-+	c #205D17",
";+	c #2E7022",
">+	c #40B248",
",+	c #3AA742",
"'+	c #AEBDA6",
")+	c #537242",
"!+	c #245915",
"~+	c #297826",
"{+	c #29842E",
"]+	c #217424",
"^+	c #1E6C20",
"/+	c #205413",
"(+	c #255413",
"_+	c #3BA23F",
":+	c #39A440",
"<+	c #A9B8A1",
"[+	c #4E6D3D",
"}+	c #2A7B29",
"|+	c #29842D",
"1+	c #1E641C",
"2+	c #214C0E",
"3+	c #317E2A",
"4+	c #3EAF47",
"5+	c #37A13E",
"6+	c #A4B49B",
"7+	c #496937",
"8+	c #265F19",
"9+	c #2B7F2A",
"0+	c #2C8931",
"a+	c #267E2A",
"b+	c #257B29",
"c+	c #1D6A1F",
"d+	c #1F5915",
"e+	c #38993A",
"f+	c #369E3C",
"g+	c #9FB095",
"h+	c #446531",
"i+	c #27631B",
"j+	c #2D832D",
"k+	c #2D8C32",
"l+	c #2B862F",
"m+	c #1D6A1E",
"n+	c #1D621A",
"o+	c #214E0F",
"p+	c #2D7022",
"q+	c #3AA741",
"r+	c #349B3B",
"s+	c #224A0D",
"t+	c #28661C",
"u+	c #2E8730",
"v+	c #2F8F34",
"w+	c #2A862F",
"x+	c #29832D",
"y+	c #217324",
"z+	c #1F6E21",
"A+	c #1C681D",
"B+	c #1F5413",
"C+	c #2F7A29",
"D+	c #339839",
"E+	c #2F8B31",
"F+	c #309236",
"G+	c #2C8930",
"H+	c #257B28",
"I+	c #207122",
"J+	c #1E5815",
"K+	c #2E7B29",
"L+	c #349A3B",
"M+	c #319537",
"N+	c #309235",
"O+	c #247827",
"P+	c #227625",
"Q+	c #1B671D",
"R+	c #1D5A16",
"S+	c #214B0D",
"T+	c #245110",
"U+	c #2B7425",
"V+	c #28802B",
"W+	c #28661D",
"X+	c #2C812C",
"Y+	c #1C6A1E",
"Z+	c #1C611A",
"`+	c #245412",
" @	c #27691E",
".@	c #297B29",
"+@	c #267D2A",
"@@	c #1D631B",
"#@	c #245C17",
"$@	c #24661D",
"%@	c #246E21",
"&@	c #247224",
"*@	c #217223",
"=@	c #206B1F",
"-@	c #20641B",
";@	c #205C17",
">@	c #205412",
"                        . . . . . . . .                         ",
"                  . + @ # $ % & * = - ; > , .                   ",
"                ' ) ! ~ { ] ^ / ( _ : < [ } | 1                 ",
"            2 3 4 5 ~ 6 ] 7 / 8 _ : < 9 0 a b c d .             ",
"          + e f 5 g 6 ] 7 / 8 _ : h 9 0 a b i j k l m           ",
"        + n f 5 o 6 ] 7 / 8 _ : h 9 0 a b i p q r s t m         ",
"      2 e f 5 o 6 ] 7 / 8 _ : h u 0 a b i p q r v w x y .       ",
"      3 f z o 6 ] A B C D : h u 0 a b i p E r v F G H I J       ",
"    ' K z o 6 ] L . M N O h u 0 a P i p E Q v F G H R S T U     ",
"  . V z o 6 W L & . X Y Z `  ...P i p E Q v F G H R +.@.#.$..   ",
"  + %.&.6 W L & *.. =.=.-.;.>.,.i p E Q v F '.H R +.@.).!.~.{.  ",
"  ].&.6 W L & *.D . =.=.=.=.^./.(._.Q v :.'.H R +.@.).<.[.}.|.  ",
". 1.6 W L & *.D 2.. =.=.=.=.=.=.3.4.5.6.'.H R +.@.).<.[.}.7.8.. ",
". 9.W L 0.*.D 2.a.. =.=.=.=.=.=.=.=.b.c.5.d.+.@.).<.e.}.7.f.g.. ",
". h.L 0.i.D 2.j.u . =.=.=.=.=.=.=.=.=.=.k.l.m.n.<.o.p.7.f.q.r.. ",
". s.0.i.D 2.j.u t.. =.=.=.=.=.=.=.=.=.=.=.=.u.v.w.x.7.f.q.y.z.. ",
". A.i.D 2.B.u t.C.. =.=.=.=.=.=.=.=.=.=.=.=.=.=.D.E.F.G.y.H.I.. ",
". J.D K.B.L.M.C.N.. =.=.=.=.=.=.=.=.=.=.=.=.3.4.O.P.G.y.H.Q.R.. ",
". S.K.B.L.M.C.N.T.. =.=.=.=.=.=.=.=.=.=.b.c.U.V.W.G.y.H.Q.X.Y.. ",
". Z.B.L.`. +N.T..+. =.=.=.=.=.=.=.=.++@+#+$+%+&+G.y.*+Q.X.=+-+. ",
"  ;+L.`.>+N.T..+,+. =.=.=.=.=.=.'+)+!+~+{+%+&+G.y.*+]+X.=+^+/+  ",
"  (+_+>+N.T..+,+:+. =.=.=.=.<+[+w.}+o.|+%+&+G.y.*+]+X.=+^+1+2+  ",
"  . 3+4+T..+,+:+5+. =.=.6+7+8+9+0+o.|+%+a+b+y.*+]+X.=+^+c+d+.   ",
"    (.e+.+,+:+5+f+. g+h+i+j+k+0+l+|+%+a+b+y.*+]+X.=+^+m+n+o+    ",
"      p+q+:+5+f+r+s+t+u+v+k+0+w+x+%+a+b+y.z.y+X.z+^+m+A+B+      ",
"      . C+5+f+r+D+E+F+v+k+G+w+x+%+a+H+y.z.y+I+z+^+m+A+J+.       ",
"        m K+L+D+M+N+v+k+G+w+x+%+a+H+O+P+y+I+z+^+m+Q+R+S+        ",
"          T+U+M+N+v+k+G+w+x+V+a+H+O+P+y+I+z+^+m+Q+J+S+          ",
"            . W+X+k+G+w+x+V+a+H+O+P+y+I+z+^+Y+Z+B+.             ",
"                `+ @.@x+V++@H+O+P+y+I+z+^+@@J+o+                ",
"                  . {.#@$@%@&@Q.*@=@-@;@>@2+.                   ",
"                        . . . . . . . .                         "};
