/* XPM */
static const char * xpm_connecting[] = {
"32 32 271 2",
"  	c None",
". 	c #49300C",
"+ 	c #5A4015",
"@ 	c #84642A",
"# 	c #A8833C",
"$ 	c #C69D4A",
"% 	c #DDB054",
"& 	c #EBBB59",
"* 	c #EBBA58",
"= 	c #DBAB4F",
"- 	c #C39643",
"; 	c #A47C34",
"> 	c #815E24",
", 	c #5A3D13",
"' 	c #664A1B",
") 	c #9F7D39",
"! 	c #D4AC53",
"~ 	c #F3C562",
"{ 	c #F2C460",
"] 	c #F1C25E",
"^ 	c #F0C05C",
"/ 	c #F0BE5A",
"( 	c #EFBC58",
"_ 	c #EEBA56",
": 	c #EDB854",
"< 	c #ECB652",
"[ 	c #EBB44F",
"} 	c #CD9B41",
"| 	c #9A702C",
"1 	c #644516",
"2 	c #4A310C",
"3 	c #8F6F31",
"4 	c #D2AB54",
"5 	c #F3C763",
"6 	c #EAB24D",
"7 	c #EAB04B",
"8 	c #E9AE49",
"9 	c #C9943B",
"0 	c #896123",
"a 	c #4A300C",
"b 	c #593F15",
"c 	c #A7853E",
"d 	c #F4C965",
"e 	c #F3C561",
"f 	c #E9B04B",
"g 	c #E8AC46",
"h 	c #E7A944",
"i 	c #E6A742",
"j 	c #9F7028",
"k 	c #583B11",
"l 	c #B08C42",
"m 	c #ECB651",
"n 	c #E8AB46",
"o 	c #E5A53F",
"p 	c #E4A33D",
"q 	c #A57328",
"r 	c #573A10",
"s 	c #A7853D",
"t 	c #F4C865",
"u 	c #F2C360",
"v 	c #EDB853",
"w 	c #E8AE48",
"x 	c #E3A03A",
"y 	c #E29E38",
"z 	c #9C6B23",
"A 	c #F2C35F",
"B 	c #EFBE5A",
"C 	c #E6A741",
"D 	c #E19C36",
"E 	c #E09A33",
"F 	c #865A1B",
"G 	c #D2AA54",
"H 	c #EEBA55",
"I 	c #E8AD48",
"J 	c #E7AB46",
"K 	c #E4A23D",
"L 	c #DF9731",
"M 	c #C18128",
"N 	c #624111",
"O 	c #9F7C39",
"P 	c #F1C15D",
"Q 	c #F0C05B",
"R 	c #EFBC57",
"S 	c #E9B04A",
"T 	c #E09933",
"U 	c #DE952F",
"V 	c #DD932C",
"W 	c #93611B",
"X 	c #5A3F15",
"Y 	c #EFBE59",
"Z 	c #E9AF4A",
"` 	c #E6A944",
" .	c #E4A23C",
"..	c #E19C35",
"+.	c #DE952E",
"@.	c #DC912A",
"#.	c #C17D23",
"$.	c #58390F",
"%.	c #E6A943",
"&.	c #E5A43F",
"*.	c #DB8E27",
"=.	c #DA8C25",
"-.	c #7B4F14",
";.	c #A7833B",
">.	c #F0BF5B",
",.	c #EAB14C",
"'.	c #E5A741",
").	c #E19B35",
"!.	c #DC902A",
"~.	c #D98A23",
"{.	c #996118",
"].	c #C69C49",
"^.	c #DEAF51",
"/.	c #9B7631",
"(.	c #644718",
"_.	c #644618",
":.	c #9A732E",
"<.	c #DAA648",
"[.	c #D79E40",
"}.	c #976C27",
"|.	c #634415",
"1.	c #634314",
"2.	c #966924",
"3.	c #D39535",
"4.	c #D08C2D",
"5.	c #93621D",
"6.	c #614011",
"7.	c #925F19",
"8.	c #CB8322",
"9.	c #D88821",
"0.	c #B26F19",
"a.	c #DDAF53",
"b.	c #EFBD59",
"c.	c #A49886",
"d.	c #E1DDD7",
"e.	c #99702C",
"f.	c #956721",
"g.	c #DF9730",
"h.	c #915D17",
"i.	c #D7861E",
"j.	c #C67A1A",
"k.	c #EEBB57",
"l.	c #FFFFFF",
"m.	c #634516",
"n.	c #E7AB45",
"o.	c #634315",
"p.	c #624213",
"q.	c #613E0F",
"r.	c #D6841C",
"s.	c #D27F1A",
"t.	c #EAB957",
"u.	c #EEB955",
"v.	c #E6A843",
"w.	c #E5A641",
"x.	c #624112",
"y.	c #DD922C",
"z.	c #603E0F",
"A.	c #D6821A",
"B.	c #D17D18",
"C.	c #DAAA4E",
"D.	c #EDB753",
"E.	c #9A722E",
"F.	c #986D28",
"G.	c #E4A43E",
"H.	c #94631E",
"I.	c #DE942E",
"J.	c #DC9029",
"K.	c #8F5A14",
"L.	c #D58018",
"M.	c #C37515",
"N.	c #C29542",
"O.	c #ECB550",
"P.	c #DAA647",
"Q.	c #D69C3D",
"R.	c #E3A23C",
"S.	c #D29435",
"T.	c #956621",
"U.	c #CF8A2B",
"V.	c #DD922B",
"W.	c #8F5914",
"X.	c #C87919",
"Y.	c #D47E16",
"Z.	c #AF6812",
"`.	c #A47B34",
" +	c #EBB34E",
".+	c #E8AD47",
"++	c #E7AA45",
"@+	c #E5A640",
"#+	c #E29F39",
"$+	c #E19D37",
"%+	c #E09B35",
"&+	c #E09932",
"*+	c #DF9630",
"=+	c #D98A22",
"-+	c #D88720",
";+	c #D7851E",
">+	c #D6831C",
",+	c #D6811A",
"'+	c #D37C14",
")+	c #95590F",
"!+	c #815E23",
"~+	c #DF9932",
"{+	c #D98922",
"]+	c #D5811A",
"^+	c #D57F18",
"/+	c #D27A12",
"(+	c #78490D",
"_+	c #CD9A40",
":+	c #E8AC47",
"<+	c #E3A13C",
"[+	c #DE9630",
"}+	c #DA8B24",
"|+	c #D47D16",
"1+	c #B86B0F",
"2+	c #57370C",
"3+	c #99702B",
"4+	c #DF9832",
"5+	c #DE942D",
"6+	c #D17810",
"7+	c #8D530D",
"8+	c #C8923A",
"9+	c #E6A842",
"0+	c #E3A13B",
"a+	c #E09B34",
"b+	c #DD942D",
"c+	c #DB8D27",
"d+	c #D57F17",
"e+	c #B6680E",
"f+	c #603C0C",
"g+	c #896122",
"h+	c #E4A33E",
"i+	c #DB8D26",
"j+	c #D58119",
"k+	c #D47D15",
"l+	c #D37B13",
"m+	c #D1760E",
"n+	c #804C0C",
"o+	c #9E6F27",
"p+	c #E09A34",
"q+	c #DC922B",
"r+	c #DC8F29",
"s+	c #D6831B",
"t+	c #93560C",
"u+	c #573B10",
"v+	c #A47227",
"w+	c #DE962F",
"x+	c #D47F17",
"y+	c #D27A11",
"z+	c #99590C",
"A+	c #56360C",
"B+	c #9C6A22",
"C+	c #DB8F28",
"D+	c #D7851D",
"E+	c #D27911",
"F+	c #93550C",
"G+	c #865A1A",
"H+	c #C08027",
"I+	c #DC912B",
"J+	c #D8871F",
"K+	c #624011",
"L+	c #92601A",
"M+	c #C07C21",
"N+	c #B86B0E",
"O+	c #603B0C",
"P+	c #58390E",
"Q+	c #996017",
"R+	c #C57919",
"S+	c #D17E19",
"T+	c #D07D17",
"U+	c #C37414",
"V+	c #AF6711",
"                        . . . . . . . .                         ",
"                  . + @ # $ % & * = - ; > , .                   ",
"                ' ) ! ~ { ] ^ / ( _ : < [ } | 1                 ",
"            2 3 4 5 ~ { ] ^ / ( _ : < [ 6 7 8 9 0 a             ",
"          b c d 5 e { ] ^ / ( _ : < [ 6 f 8 g h i j k           ",
"        b l d 5 e { ] ^ / ( _ : m [ 6 f 8 n h i o p q r         ",
"      2 s t 5 e u ] ^ / ( _ v m [ 6 f w n h i o p x y z a       ",
"      3 t 5 e A ] ^ B ( _ v m [ 6 f w n h C o p x y D E F       ",
"    ' G 5 e A ] ^ B ( H v m [ 6 f I J h C o K x y D E L M N     ",
"  . O 5 e A P Q B R H v m [ 6 S I J h C o K x y D T L U V W .   ",
"  X ! e A P Q Y R H v m [ 6 Z I J ` C o  .x y ..T L +.V @.#.$.  ",
"  @ e A P Q Y R H v m [ 6 Z I J %.C &. .x y ..T L +.V @.*.=.-.  ",
". ;.A P >.Y R H v m [ ,.Z I J %.'.&. .x y ).T L +.V !.*.=.~.{.. ",
". ].P >.^./.(._.:.<.,.Z I [.}.|.1.2.3.y ).T 4.5.6.6.7.8.~.9.0.. ",
". a.>.b./.c.d.d.c.e.Z I J }.c.d.d.c.f.).T g.5.c.d.d.c.h.9.i.j.. ",
". & b.k.(.d.l.l.d.m.I n.%.o.d.l.l.d.p.T g.+.6.d.l.l.d.q.i.r.s.. ",
". t.k.u._.d.l.l.d.m.n.v.w.1.d.l.l.d.x.g.+.y.6.d.l.l.d.z.r.A.B.. ",
". C.u.D.E.c.d.d.c.F.v.w.G.2.c.d.d.c.H.I.y.J.7.c.d.d.c.K.A.L.M.. ",
". N.D.O.P.e.m.m.F.Q.w.G.R.S.T.p.x.H.U.V.J.*.8.h.q.z.W.X.L.Y.Z.. ",
". `.O. +,.Z .+++v.@+G.R.#+$+%+&+*+I.V.J.*.=.=+-+;+>+,+L.Y.'+)+. ",
"  !+ +,.Z .+++v.@+G.R.#+$+%+~+*+I.V.J.*.=.{+-+;+>+]+^+Y.'+/+(+  ",
"  , _+Z :+++v.@+G.<+#+$+%+~+[+I.V.J.*.}+{+-+;+>+]+^+|+'+/+1+2+  ",
"  . 3+:+++v.@+G.<+#+$+%+4+[+5+V.J.*.}+{+-+;+>+]+^+|+'+/+6+7+.   ",
"    1 8+9+@+G.0+#+$+a+4+[+b+V.J.c+}+{+-+;+>+]+d+|+'+/+6+e+f+    ",
"      g+@+h+0+#+$+a+4+[+b+V.J.i+}+{+-+;+>+j+d+k+l+/+6+m+n+      ",
"      a o+0+#+$+p+4+[+b+q+r+i+}+{+-+;+s+j+d+k+l+/+6+m+t+a       ",
"        u+v+$+p+4+w+b+q+r+i+}+{+-+;+s+j+x+k+l+y+6+m+z+A+        ",
"          r B+4+w+b+q+C+i+}+{+-+D+s+j+x+k+l+E+6+m+F+A+          ",
"            a G+H+I+C+i+}+{+J+D+s+j+x+k+l+E+6+e+n+a             ",
"                K+L+M+}+{+J+D+s+j+x+k+l+E+N+7+O+                ",
"                  . P+-.Q+0.R+S+T+U+V+)+(+2+.                   ",
"                        . . . . . . . .                         "};
