/* XPM */
static const char * xpm_copy[] = {
"16 16 25 1",
" 	c None",
".	c #6D6D6D",
"+	c #6C6C6C",
"@	c #CECECE",
"#	c #CFCFCF",
"$	c #BEBEBE",
"%	c #BDBDBD",
"&	c #9F9F9F",
"*	c #303030",
"=	c #D1D1D1",
"-	c #BFBFBF",
";	c #A5A5A5",
">	c #949494",
",	c #919191",
"'	c #D2D2D2",
")	c #2F2F2F",
"!	c #2E2E2E",
"~	c #A6A6A6",
"{	c #CAC7B9",
"]	c #D2D3D3",
"^	c #AEAEAE",
"/	c #ADADAD",
"(	c #9D9D9D",
"_	c #8C8C8C",
":	c #313131",
"                ",
"                ",
"  .++.+....     ",
"  .@#@@$%&*     ",
"  .@=-$;>,*     ",
"  .'-))!))*;~;~ ",
"  .-$!{{]]]]]]; ",
"  +^/*]]]]]]]]~ ",
"  +;;)]]]]]]]]; ",
"  +(_)]]]]]]]]~ ",
"  +:):]]]]]]]]~ ",
"     ~]]]]]]]]~ ",
"     ;]]]]]]]]; ",
"     ~]]]]]]]]; ",
"     ~~;~~;;~~; ",
"                "};
