/* XPM */
static const char * xpm_csword[] = {
"32 32 285 2",
"  	c None",
". 	c #7D9C7C",
"+ 	c #8BAA8A",
"@ 	c #97B696",
"# 	c #8FA88E",
"$ 	c #93AC93",
"% 	c #3B4F33",
"& 	c #5D7B57",
"* 	c #7CA379",
"= 	c #8AB189",
"- 	c #92B791",
"; 	c #99BC98",
"> 	c #A0C09F",
", 	c #A6C5A6",
"' 	c #ACC9AC",
") 	c #B3CEB3",
"! 	c #B9D2B8",
"~ 	c #ABBFAA",
"{ 	c #A2B4A2",
"] 	c #1F2915",
"^ 	c #2F4025",
"/ 	c #435938",
"( 	c #5A7751",
"_ 	c #74986E",
": 	c #83A880",
"< 	c #8FB38E",
"[ 	c #97BA96",
"} 	c #9FBE9E",
"| 	c #A5C3A4",
"1 	c #ABC7AB",
"2 	c #B2CCB1",
"3 	c #B7CFB7",
"4 	c #BCD3BC",
"5 	c #C1D6C0",
"6 	c #C3D7C3",
"7 	c #ADBEAD",
"8 	c #1C2411",
"9 	c #222E16",
"0 	c #2A381D",
"a 	c #37492C",
"b 	c #4B6441",
"c 	c #65835C",
"d 	c #779972",
"e 	c #85A883",
"f 	c #92B390",
"g 	c #9BBB9A",
"h 	c #A2BFA1",
"i 	c #A9C4A8",
"j 	c #AFC8AE",
"k 	c #B4CAB3",
"l 	c #B8CEB8",
"m 	c #BDD2BD",
"n 	c #C2D6C2",
"o 	c #C7DAC7",
"p 	c #C4D5C3",
"q 	c #171E0B",
"r 	c #1B230E",
"s 	c #1E2711",
"t 	c #232E17",
"u 	c #2C3B20",
"v 	c #3D5132",
"w 	c #55704B",
"x 	c #6D8D65",
"y 	c #7D9D79",
"z 	c #8CAC89",
"A 	c #99B898",
"B 	c #A2C0A1",
"C 	c #A8C4A8",
"D 	c #B4CAB4",
"E 	c #BDD1BC",
"F 	c #C0D3BF",
"G 	c #C2D5C2",
"H 	c #C8DAC7",
"I 	c #CCDDCC",
"J 	c #171D0B",
"K 	c #181F0B",
"L 	c #19200C",
"M 	c #1B220E",
"N 	c #1E2712",
"O 	c #253119",
"P 	c #334226",
"Q 	c #475C3B",
"R 	c #607D56",
"S 	c #74926C",
"T 	c #84A380",
"U 	c #93B190",
"V 	c #9FBC9E",
"W 	c #A8C4A7",
"X 	c #AEC8AD",
"Y 	c #B3CAB3",
"Z 	c #B8CDB7",
"` 	c #BCD0BC",
" .	c #C2D4C2",
"..	c #C5D6C4",
"+.	c #C8D9C8",
"@.	c #CBDCCA",
"#.	c #151A0B",
"$.	c #18200C",
"%.	c #202913",
"&.	c #29361C",
"*.	c #3A4A2C",
"=.	c #516944",
"-.	c #68835D",
";.	c #7A9673",
">.	c #8BA886",
",.	c #99B496",
"'.	c #A4BFA3",
").	c #ACC7AB",
"!.	c #B1CAB1",
"~.	c #B6CDB6",
"{.	c #BAD0BA",
"].	c #BED2BD",
"^.	c #C0D3C0",
"/.	c #C8D9C7",
"(.	c #BFCFBE",
"_.	c #181E0B",
":.	c #181F0C",
"<.	c #1B230F",
"[.	c #222C14",
"}.	c #2F3C20",
"|.	c #425533",
"1.	c #5A724D",
"2.	c #6E8864",
"3.	c #809B79",
"4.	c #90AB8B",
"5.	c #9CB799",
"6.	c #A7C1A6",
"7.	c #AEC8AE",
"8.	c #B3CBB3",
"9.	c #B7CEB7",
"0.	c #C0D4BF",
"a.	c #C2D5C1",
"b.	c #C3D6C3",
"c.	c #C8DAC8",
"d.	c #1D2510",
"e.	c #253017",
"f.	c #344325",
"g.	c #4B5F3B",
"h.	c #607853",
"i.	c #738C6A",
"j.	c #849D7D",
"k.	c #92AC8D",
"l.	c #9EB89B",
"m.	c #A8C1A6",
"n.	c #B4CBB3",
"o.	c #B7CDB6",
"p.	c #B9CFB9",
"q.	c #BCD1BC",
"r.	c #BED2BE",
"s.	c #C1D5C1",
"t.	c #B4C5B4",
"u.	c #151C0A",
"v.	c #191F0C",
"w.	c #1B210D",
"x.	c #1F2711",
"y.	c #29341A",
"z.	c #3B4A2A",
"A.	c #516641",
"B.	c #667D58",
"C.	c #77906D",
"D.	c #87A080",
"E.	c #94AE8F",
"F.	c #A7C1A5",
"G.	c #ADC7AD",
"H.	c #B1C9B0",
"I.	c #B4CBB4",
"J.	c #B7CDB7",
"K.	c #BBD0BA",
"L.	c #BFD4BF",
"M.	c #C3D8C3",
"N.	c #171D0A",
"O.	c #1A200C",
"P.	c #1C230E",
"Q.	c #222A13",
"R.	c #2E3A1D",
"S.	c #41512E",
"T.	c #566A45",
"U.	c #677E5B",
"V.	c #78906E",
"W.	c #88A180",
"X.	c #94AF8F",
"Y.	c #9DB79A",
"Z.	c #95AD93",
"`.	c #8BA18A",
" +	c #8BA38A",
".+	c #849C82",
"++	c #7B9379",
"@+	c #748C72",
"#+	c #70886F",
"$+	c #869685",
"%+	c #19200D",
"&+	c #1A210D",
"*+	c #1D240E",
"=+	c #242D14",
"-+	c #323E20",
";+	c #455633",
">+	c #576B47",
",+	c #687D5A",
"'+	c #65795C",
")+	c #667E61",
"!+	c #587055",
"~+	c #556F52",
"{+	c #4B6248",
"]+	c #3A4A38",
"^+	c #353F34",
"/+	c #323932",
"(+	c #313531",
"_+	c #252724",
":+	c #1A1E1A",
"<+	c #1A200D",
"[+	c #1F260F",
"}+	c #283116",
"|+	c #323E21",
"1+	c #3D4D31",
"2+	c #44583E",
"3+	c #445940",
"4+	c #2E3D2C",
"5+	c #1A2319",
"6+	c #323332",
"7+	c #434343",
"8+	c #4B4B4B",
"9+	c #19210C",
"0+	c #29341E",
"a+	c #36462F",
"b+	c #2D3A28",
"c+	c #181E15",
"d+	c #1A210E",
"e+	c #181F0D",
"f+	c #242E1B",
"g+	c #2B3824",
"h+	c #1E2619",
"i+	c #10140D",
"j+	c #1B210E",
"k+	c #1A210F",
"l+	c #1E2412",
"m+	c #202616",
"n+	c #242B19",
"o+	c #272F1B",
"p+	c #28321E",
"q+	c #222A19",
"r+	c #13180F",
"s+	c #10140A",
"t+	c #181C10",
"u+	c #2E3622",
"v+	c #374029",
"w+	c #353E27",
"x+	c #2D3620",
"y+	c #252B1C",
"z+	c #32352E",
"A+	c #40413F",
"B+	c #454544",
"C+	c #464745",
"D+	c #4A4A48",
"E+	c #525351",
"F+	c #5B5C5B",
"G+	c #707070",
"H+	c #818181",
"I+	c #828282",
"J+	c #8D8D8D",
"K+	c #989898",
"L+	c #A3A3A3",
"M+	c #A4A4A4",
"N+	c #ADADAD",
"O+	c #AEAEAE",
"P+	c #AFAFAF",
"Q+	c #B7B7B7",
"R+	c #B8B8B8",
"S+	c #C1C1C1",
"T+	c #C2C2C2",
"U+	c #CACACA",
"V+	c #CBCBCB",
"W+	c #D3D3D3",
"X+	c #D4D4D4",
"Y+	c #D5D5D5",
"Z+	c #DCDCDC",
"`+	c #DBDBDB",
" @	c #E3E3E3",
".@	c #E4E4E4",
"+@	c #EBEBEB",
"@@	c #ECECEC",
"#@	c #F2F2F2",
"$@	c #F7F7F7",
"%@	c #F8F8F8",
"&@	c #FCFCFC",
"*@	c #FDFDFD",
"                          . + @ # $                             ",
"                  % & * = - ; > , ' ) ! ~ {                     ",
"              ] ^ / ( _ : < [ } | 1 2 3 4 5 6 7                 ",
"            8 9 0 a b c d e f g h i j k l m n o p               ",
"          q r s t u v w x y z A B C j D l E F G H I             ",
"        J K L M N O P Q R S T U V W X Y Z ` F  ...+.@.          ",
"      #.K K K $.r %.&.*.=.-.;.>.,.'.).!.~.{.].^.G ../.(.        ",
"      _.K :.:.:.$.<.[.}.|.1.2.3.4.5.6.7.8.9.{.].0.a.b.c.        ",
"    #.K :.:.:.:.:.L d.e.f.g.h.i.j.k.l.m.j n.o.p.q.r.0.s.t.      ",
"    u.K v.v.v.v.v.v.w.x.y.z.A.B.C.D.E.l.F.G.H.I.J.K.m L.M.      ",
"    N.L L L L L L L O.P.Q.R.S.T.U.V.W.X.Y.Z.`. +.+++@+#+.+$+    ",
"    K %+%+%+%+%+%+%+%+&+*+=+-+;+>+,+'+)+!+~+{+]+^+/+(+_+:+      ",
"    L <+<+<+<+<+<+<+<+L &+[+}+|+1+2+3+4+5+6+7+8+                ",
"    9+&+&+&+&+&+&+&+&+v.L <+0+a+b+c+                            ",
"    &+d+d+d+d+d+d+d+%+e+f+g+h+i+                                ",
"    j+j+j+k+l+m+n+o+p+q+r+                                      ",
"    s+t+u+v+w+x+y+z+A+                                          ",
"    B+C+D+E+F+G+H+I+I+                                          ",
"    J+J+J+J+J+J+J+J+J+                                          ",
"    K+K+K+K+K+K+K+K+K+                                          ",
"    L+L+L+L+L+L+L+L+L+                      L+M+                ",
"      N+N+N+N+N+N+N+N+                    N+N+N+N+N+O+P+        ",
"      Q+Q+Q+Q+Q+Q+Q+Q+R+                  Q+Q+Q+Q+Q+Q+Q+Q+      ",
"      S+S+S+S+S+S+S+S+S+                T+S+S+S+S+S+S+S+S+      ",
"        U+U+U+U+U+U+U+U+V+            V+U+U+U+U+U+U+U+U+U+      ",
"        W+X+X+X+X+X+X+X+X+X+X+Y+Y+X+X+X+X+X+X+X+X+X+X+X+        ",
"          Z+Z+Z+Z+Z+Z+Z+Z+Z+Z+Z+Z+Z+Z+Z+Z+Z+Z+Z+Z+Z+Z+`+        ",
"           @.@.@.@.@.@.@.@.@.@.@.@.@.@.@.@.@.@.@.@.@.@          ",
"            +@@@@@@@@@@@@@@@@@@@@@@@@@@@@@@@@@@@@@+@            ",
"                #@#@#@#@#@#@#@#@#@#@#@#@#@#@#@#@#@              ",
"                  $@%@%@%@%@%@%@%@%@%@%@%@%@%@                  ",
"                          &@*@*@*@*@*@&@                        "};
