/* XPM */ 
static const char * xpm_dnd_lock[] = {
"20 20 3 1",
" 	c None",
"!	c black",
"#	c #B8B8B8",
"                    ",
"                    ",
"                    ",
"                    ",
"       !!!!!!       ",
"      !!!!!!!!      ",
"     !!!    !!!     ",
"    !!!      !!!    ",
"    !!        !!    ",
"    !!        !!    ",
"    !!!!!!!!!!!!    ",
"   !############!   ",
"   !#####!!#####!   ",
"   !####!!!!####!   ",
"   !####!!!!####!   ",
"   !#####!!#####!   ",
"   !#####!!#####!   ",
"   !#####!!#####!   ",
"   !############!   ",
"    !!!!!!!!!!!!    "};
