/* XPM */
static const char * xpm_drawings[] = {
"16 16 22 1",
" 	c None",
".	c #000000",
"+	c #FFFFFF",
"@	c #CE2B2B",
"#	c #CB2929",
"$	c #C72626",
"%	c #C22222",
"&	c #BC1E1E",
"*	c #CD2A2A",
"=	c #CA2828",
"-	c #C52525",
";	c #C02121",
">	c #BA1D1D",
",	c #C82727",
"'	c #C32323",
")	c #BE2020",
"!	c #1A732A",
"~	c #197D25",
"{	c #188720",
"]	c #16911B",
"^	c #159B17",
"/	c #15A213",
"                ",
"  ........      ",
"  .++++++.      ",
"  .+........    ",
"  .+.++++++.    ",
"  .+.+........  ",
"  .+.+.@@#$%&.  ",
"  .+.+.*=-;>+.  ",
"  .+.+.,')+++.  ",
"  .+.+.%+++++.  ",
"  ...+.+++!++.  ",
"    .+.++!~{+.  ",
"    ...++~{]+.  ",
"      .+~{]^/.  ",
"      ........  ",
"                "};
