/* XPM */
static const char* xpm_filter[] = {
"32 32 46 1",
" 	c None",
".	c #7A7A7A",
"+	c #990000",
"@	c #825A5A",
"#	c #FFFFFF",
"$	c #9B0000",
"%	c #B10000",
"&	c #CB0000",
"*	c #E5BDBD",
"=	c #FF0000",
"-	c #B60000",
";	c #EB0000",
">	c #EF0000",
",	c #BD0000",
"'	c #E9C9C9",
")	c #C70000",
"!	c #D18D8D",
"~	c #F50000",
"{	c #A90000",
"]	c #B34242",
"^	c #A00000",
"/	c #AD0000",
"(	c #C10000",
"_	c #F7EBEB",
":	c #AA0000",
"<	c #912020",
"[	c #7C7070",
"}	c #13510A",
"|	c #14540B",
"1	c #285920",
"2	c #42743B",
"3	c #196C12",
"4	c #20891A",
"5	c #2EC32A",
"6	c #29AC24",
"7	c #2AB225",
"8	c #1B7313",
"9	c #1F8418",
"0	c #2BB827",
"a	c #17620F",
"b	c #15580C",
"c	c #186810",
"d	c #1D7D16",
"e	c #657264",
"f	c #D0DCCE",
"g	c #17640F",
"             ....               ",
"            ......              ",
"         +++@.##...             ",
"         +$++@##....            ",
"  ++++++++%&++*###..            ",
" +++++++++%=&++*##..            ",
" +-;;;;;;;>==&++*#..            ",
" +,===========&++'..            ",
" +,============)+!..            ",
" +,===========~{+'..            ",
" +,==========~{+]#..            ",
" +^///////(=~{+]_#..            ",
" +++++++++%~{+]_##..            ",
"         +:{+<_###..            ",
"         +++<[####..            ",
"            ..####..            ",
"            ..####..  }}}       ",
"            ..####..  }|}}      ",
"  }}}}}}}}}}1122##..}}}34}}     ",
" }}}}}}}}}}}}}}}##..}}}354}}    ",
" }36666666666666##..6667554}}   ",
" }85555555555555##..55555554}}  ",
" }85555555555555##..555555559}  ",
" }85555555555555##..55555550a}  ",
" }85555555555555##..5555550a}}  ",
" }bccccccccccccc##..cccd50a}}   ",
" }}}}}}}}}}}}}}}##..}}}30a}}    ",
"            eeff##..  }ga}}     ",
"            ....##..  }}}}      ",
"             ...##..            ",
"              ......            ",
"               ....             "};
