/* XPM */
static const char * xpm_go_to_start[] = {
"16 16 3 1",
"a c #000000008080",
"b c None",
"c c #00000000ffff",
"bbbbbbbbbbbbbbbb",
"bbbbbbbbbbbbbbbb",
"bbbbbbbbbbbbbbbb",
"bbaabbbbbbbbaabb",
"bbccbbbbbbaaccbb",
"bbccbbbbaaccccbb",
"bbccbbaaccccccbb",
"bbccacccccccccbb",
"bbccacccccccccbb",
"bbccbbaaccccccbb",
"bbccbbbbaaccccbb",
"bbccbbbbbbaaccbb",
"bbaabbbbbbbbaabb",
"bbbbbbbbbbbbbbbb",
"bbbbbbbbbbbbbbbb",
"bbbbbbbbbbbbbbbb"};
