/* XPM */
static const char * xpm_goto[] = {
"32 32 199 2",
"  	c None",
". 	c #23570D",
"+ 	c #204D07",
"@ 	c #3B9B39",
"# 	c #255D11",
"$ 	c #3CA23D",
"% 	c #3EAA42",
"& 	c #23560D",
"* 	c #710000",
"= 	c #3BA03C",
"- 	c #41B54A",
"; 	c #389C3A",
"> 	c #22530B",
", 	c #76432C",
"' 	c #BD6262",
") 	c #CC7777",
"! 	c #D37D7D",
"~ 	c #C86F6F",
"{ 	c #B65656",
"] 	c #9A3333",
"^ 	c #7D0E0E",
"/ 	c #399D3A",
"( 	c #3FB148",
"_ 	c #3DAD45",
": 	c #349133",
"< 	c #214F08",
"[ 	c #B38070",
"} 	c #DE8C8C",
"| 	c #DB8787",
"1 	c #D98282",
"2 	c #D67D7D",
"3 	c #D27777",
"4 	c #BD5C5C",
"5 	c #932727",
"6 	c #730202",
"7 	c #389939",
"8 	c #3BA943",
"9 	c #39A541",
"0 	c #2F832B",
"a 	c #636336",
"b 	c #C68078",
"c 	c #D37878",
"d 	c #D17373",
"e 	c #CE6D6D",
"f 	c #C66262",
"g 	c #992D2D",
"h 	c #720101",
"i 	c #22520A",
"j 	c #3D9E3A",
"k 	c #3B9836",
"l 	c #328127",
"m 	c #327F27",
"n 	c #317E26",
"o 	c #307D25",
"p 	c #307B24",
"q 	c #2F7923",
"r 	c #2E7823",
"s 	c #2D7722",
"t 	c #2C7521",
"u 	c #399F3C",
"v 	c #37A13E",
"w 	c #369D3C",
"x 	c #2B7522",
"y 	c #6C633A",
"z 	c #D67E7E",
"A 	c #D47878",
"B 	c #CE6E6E",
"C 	c #CB6868",
"D 	c #C86363",
"E 	c #C05858",
"F 	c #8E1F1F",
"G 	c #23550C",
"H 	c #4FD15A",
"I 	c #4DCE58",
"J 	c #4CCB56",
"K 	c #4AC754",
"L 	c #48C452",
"M 	c #47C050",
"N 	c #45BC4E",
"O 	c #43B94C",
"P 	c #34993A",
"Q 	c #329537",
"R 	c #27691A",
"S 	c #6C6037",
"T 	c #C55D5D",
"U 	c #C25858",
"V 	c #B14343",
"W 	c #7A0909",
"X 	c #309135",
"Y 	c #2E8C32",
"Z 	c #246115",
"` 	c #6C5B34",
" .	c #CB6969",
"..	c #C65E5E",
"+.	c #C35858",
"@.	c #C05353",
"#.	c #BC4C4C",
"$.	c #8F1D1D",
"%.	c #255B10",
"&.	c #2E8D33",
"*.	c #2C8930",
"=.	c #2A842D",
"-.	c #225A11",
";.	c #705833",
">.	c #C35959",
",.	c #BD4E4E",
"'.	c #BA4949",
").	c #9F2C2C",
"!.	c #255C10",
"~.	c #2A852E",
"{.	c #28812C",
"].	c #267B28",
"^.	c #21550D",
"/.	c #7A5434",
"(.	c #C05454",
"_.	c #B84444",
":.	c #A83333",
"<.	c #267E2A",
"[.	c #247A28",
"}.	c #237022",
"|.	c #374E12",
"1.	c #BB4949",
"2.	c #B53F3F",
"3.	c #AC3434",
"4.	c #237525",
"5.	c #20580F",
"6.	c #774E2F",
"7.	c #B33A3A",
"8.	c #A42C2C",
"9.	c #237626",
"0.	c #205A11",
"a.	c #654E26",
"b.	c #BB4A4A",
"c.	c #B84545",
"d.	c #B54040",
"e.	c #B33B3B",
"f.	c #B03636",
"g.	c #992020",
"h.	c #245A0F",
"i.	c #205D13",
"j.	c #614E25",
"k.	c #B64040",
"l.	c #AE3232",
"m.	c #891212",
"n.	c #265F12",
"o.	c #216016",
"p.	c #B13636",
"q.	c #A12525",
"r.	c #780505",
"s.	c #215109",
"t.	c #266114",
"u.	c #2B711E",
"v.	c #2B721F",
"w.	c #2A701E",
"x.	c #296F1D",
"y.	c #296D1C",
"z.	c #286B1B",
"A.	c #276A1A",
"B.	c #266819",
"C.	c #266719",
"D.	c #256517",
"E.	c #29812B",
"F.	c #216318",
"G.	c #AC4B45",
"H.	c #B94545",
"I.	c #B13737",
"J.	c #A92B2B",
"K.	c #850F0F",
"L.	c #277B28",
"M.	c #21661A",
"N.	c #A04B3F",
"O.	c #B94646",
"P.	c #B64141",
"Q.	c #B33C3C",
"R.	c #8B1313",
"S.	c #720000",
"T.	c #257826",
"U.	c #21681C",
"V.	c #204E08",
"W.	c #974B3B",
"X.	c #B43C3C",
"Y.	c #AF3333",
"Z.	c #A02525",
"`.	c #860F0F",
" +	c #247524",
".+	c #216B1E",
"++	c #6E2D18",
"@+	c #A12E2E",
"#+	c #AA3636",
"$+	c #AD3636",
"%+	c #A62E2E",
"&+	c #9A2222",
"*+	c #891313",
"=+	c #237122",
"-+	c #216C1F",
";+	c #204F09",
">+	c #216A1D",
",+	c #20510A",
"'+	c #205009",
"                                                                ",
"                                                                ",
"                                                                ",
"                                                                ",
"                                                                ",
"                            .                                   ",
"                          + @ #                                 ",
"                          + $ % &     * * * * *                 ",
"                          + = - ; > , ' ) ! ~ { ] ^             ",
"                          + / ( _ : < [ } | 1 2 3 4 5 6         ",
"      + +                 + 7 _ 8 9 0 a b 1 2 c d e f g h       ",
"    i j k l m n o p q r s t u 8 9 v w x y z A d B C D E F       ",
"    G H I J K L M N O - ( _ 8 9 v w P Q R S d B C D T U V W     ",
"    G I J K L M N O - ( _ 8 9 v w P Q X Y Z `  .D ..+.@.#.$.    ",
"    %.J K L M N O - ( _ 8 9 v w P Q X &.*.=.-.;...>.@.,.'.).*   ",
"    !.K L M N O - ( _ 8 9 v w P Q X &.*.~.{.].^./.(.,.'._.:.*   ",
"    %.L M N O - ( _ 8 9 v w P Q X &.*.~.{.<.[.}.|.,.1._.2.3.*   ",
"    %.M N O - ( _ 8 9 v w P Q X &.*.~.{.<.[.4.5.6.1._.2.7.8.*   ",
"    %.N O - ( _ 8 9 v w P Q X &.*.~.{.<.[.9.0.a.b.c.d.e.f.g.*   ",
"    h.O - ( _ 8 9 v w P Q X &.*.~.{.<.[.9.i.j.b.c.k.e.f.l.m.    ",
"    n.- ( _ 8 9 v w P Q X &.*.~.{.<.[.9.o.j.b.c.k.e.p.l.q.r.    ",
"    s.t.u.v.w.x.y.z.A.B.C.D.E.{.<.[.9.F.j.G.H.k.e.I.l.J.K.      ",
"                          + L.<.[.9.M.+ N.O.P.Q.I.l.J.R.S.      ",
"                          + T.[.9.U.V.W.O.P.X.I.Y.Z.`.h         ",
"                          +  +9..+V.++@+#+$+%+&+*+r.            ",
"                          + =+-+;+    * * * * *                 ",
"                          + >+,+                                ",
"                            '+                                  ",
"                                                                ",
"                                                                ",
"                                                                ",
"                                                                "};
