/* XPM */
static const char* xpm_line[]={
"16 16 3 1",
"# c #000000",
"a c #838079",
". c None",
"................",
"................",
"................",
".......##.......",
"....###.aa......",
"..##.aaa........",
"...##...........",
"....a##.........",
"......a##.......",
"........a##.....",
"..........a##...",
"............##..",
"........####.aa.",
"......##.aaaa...",
".......aa.......",
"................"};
