/* XPM */
static const char * xpm_lock[] = {
"10 10 47 1",
" 	c None",
".	c #A2A094",
"+	c #696760",
"@	c #5E5D56",
"#	c #A19F93",
"$	c #727068",
"%	c #AFAC9F",
"&	c #ADAB9E",
"*	c #716F67",
"=	c #A09D92",
"-	c #AAA79B",
";	c #A29F92",
">	c #949286",
",	c #87857A",
"'	c #737269",
")	c #D8D4C4",
"!	c #E8E4D4",
"~	c #F1EFE3",
"{	c #F0EDE0",
"]	c #DCD8C8",
"^	c #D0CCBC",
"/	c #A9A699",
"(	c #D6D2C2",
"_	c #EDEAD9",
":	c #ECE9D8",
"<	c #E2DFCE",
"[	c #CBC7B7",
"}	c #A3A093",
"|	c #D0CDBC",
"1	c #DFDCCB",
"2	c #EAE6D6",
"3	c #5F5E56",
"4	c #DEDBCA",
"5	c #D3CFBF",
"6	c #C7C4B3",
"7	c #B5B2A3",
"8	c #D6D3C2",
"9	c #E4E1D0",
"0	c #88857B",
"a	c #D5D1C1",
"b	c #C1BDAE",
"c	c #949186",
"d	c #C9C5B5",
"e	c #DCD9C8",
"f	c #CAC7B6",
"g	c #C0BCAD",
"h	c #74726A",
"   .+@+#  ",
"  .$% &*= ",
"  +&   -+ ",
" ;;;;;;>,'",
" ;)!~{!]^@",
" ;/(_:<[}@",
" ;|123456@",
" ;7890abc@",
" ;d(1eafg@",
" h@@@@@@@@"};
