/* XPM */ 
static const char * xpm_loglink[] = {
"32 32 6 1",
" 	c None",
"!	c black",
"#	c #0000FF",
"$	c #FFFF00",
"%	c #BA0000",
"&	c #FF48FF",
"                                ",
"                                ",
"  ###########                   ",
"  ###########                   ",
"  ##       ##                   ",
"  ##       ##                   ",
"  ##       ##                   ",
"  ###########                   ",
"  ###########                   ",
"       $ %                      ",
"      $$ %                      ",
"      $  %%       ###########   ",
"      $   %%%%    ###########   ",
"      $      %%%%%##       ##   ",
"     $            ##       ##   ",
"     $            ##       ##   ",
"     $     &&&&&&&###########   ",
"     $$   &&      ###########   ",
"      $  &&                     ",
"      $  &                      ",
"      $$ &                      ",
"  ###########                   ",
"  ###########                   ",
"  ##       ##                   ",
"  ##       ##                   ",
"  ##       ##                   ",
"  ###########                   ",
"  ###########                   ",
"                                ",
"                                ",
"                                ",
"                                "};
