/* XPM */ 
static const char * xpm_missinglog[] = {
"32 32 5 1",
" 	c None",
"!	c black",
"#	c #BA0000",
"$	c #FFB624",
"%	c #0000FF",
"                                ",
"                                ",
"                                ",
"                                ",
"              #####             ",
"           ###     ###          ",
"         ##           ##        ",
"        #     $$$$$     #       ",
"       #    $$     $$    #      ",
"      #   $$         $$   #     ",
"      #  $             $  #     ",
"     #   $             $   #    ",
"     #  $  %%%%%%%%%%%  $  #    ",
"     #  $  %%%%%%%%%%%  $  #    ",
"    #  $   %%       %%   $  #   ",
"    #  $   %%       %%   $  #   ",
"    #  $   %%       %%   $  #   ",
"    #  $   %%       %%   $  #   ",
"     #  $  %%%%%%%%%%%  $  #    ",
"     #  $  %%%%%%%%%%%  $  #    ",
"     #   $             $   #    ",
"      #  $             $  #     ",
"      #   $$         $$   #     ",
"       #    $$     $$    #      ",
"        #     $$$$$     #       ",
"         ##           ##        ",
"           ###     ###          ",
"              #####             ",
"                                ",
"                                ",
"                                ",
"                                "};
