/* XPM */
static const char * xpm_new[] = {
"32 32 264 2",
"  	c None",
". 	c #000000",
"+ 	c #5D5D5D",
"@ 	c #999999",
"# 	c #979898",
"$ 	c #969797",
"% 	c #949495",
"& 	c #919293",
"* 	c #606061",
"= 	c #FFFFFF",
"- 	c #FDFEFE",
"; 	c #FBFCFD",
"> 	c #F0F1F2",
", 	c #E4E5E7",
"' 	c #8F9092",
") 	c #1B1C1C",
"! 	c #989899",
"~ 	c #FEFEFF",
"{ 	c #F8F9FC",
"] 	c #F2F4F8",
"^ 	c #F2F3F5",
"/ 	c #F1F2F3",
"( 	c #BFC0C2",
"_ 	c #848588",
": 	c #58595B",
"< 	c #979799",
"[ 	c #FDFDFF",
"} 	c #FCFCFF",
"| 	c #F2F4F9",
"1 	c #E9ECF3",
"2 	c #F4F5F8",
"3 	c #FEFEFE",
"4 	c #E8E9EB",
"5 	c #D1D3D7",
"6 	c #808183",
"7 	c #101010",
"8 	c #969799",
"9 	c #FBFCFF",
"0 	c #FAFBFF",
"a 	c #F9FAFF",
"b 	c #EBEEF6",
"c 	c #DCE2EC",
"d 	c #ECEFF5",
"e 	c #FBFCFE",
"f 	c #EFF1F5",
"g 	c #E3E6EA",
"h 	c #B3B5B9",
"i 	c #797A7D",
"j 	c #515153",
"k 	c #959699",
"l 	c #F9FBFF",
"m 	c #F8FAFF",
"n 	c #F6F8FF",
"o 	c #E3E8F2",
"p 	c #D0D7E5",
"q 	c #E4E9F2",
"r 	c #F8FBFF",
"s 	c #F6FAFE",
"t 	c #F5F8FD",
"u 	c #DEE1E6",
"v 	c #C6C8CD",
"w 	c #77787B",
"x 	c #0A0A0A",
"y 	c #949699",
"z 	c #F7FAFF",
"A 	c #F4F8FF",
"B 	c #F2F6FF",
"C 	c #F3F6FF",
"D 	c #DEE4F1",
"E 	c #CAD2E2",
"F 	c #E0E6F1",
"G 	c #F6FAFF",
"H 	c #F4F9FE",
"I 	c #F2F7FE",
"J 	c #E7ECF2",
"K 	c #DCE0E5",
"L 	c #ABAEB2",
"M 	c #6F7174",
"N 	c #505254",
"O 	c #939599",
"P 	c #F5F9FF",
"Q 	c #EEF4FF",
"R 	c #EFF4FF",
"S 	c #F0F5FF",
"T 	c #DAE1F0",
"U 	c #C4CDE0",
"V 	c #DCE4F0",
"W 	c #F4FAFF",
"X 	c #F2F8FF",
"Y 	c #EFF6FF",
"Z 	c #F0F6FD",
"` 	c #F1F7FB",
" .	c #D7DCE0",
"..	c #BABEC3",
"+.	c #7D8083",
"@.	c #919499",
"#.	c #EFF5FF",
"$.	c #EBF2FF",
"%.	c #ECF2FF",
"&.	c #D9E1F2",
"*.	c #C6D0E4",
"=.	c #C2CDE0",
"-.	c #BECADC",
";.	c #B7C3D8",
">.	c #B0BDD4",
",.	c #BAC6DA",
"'.	c #C4D0E0",
").	c #C6CEDB",
"!.	c #C7CDD7",
"~.	c #7E8188",
"{.	c #010102",
"].	c #909399",
"^.	c #F0F6FF",
"/.	c #ECF3FF",
"(.	c #E8F0FF",
"_.	c #D8E2F4",
":.	c #C8D3E8",
"<.	c #A8B6D0",
"[.	c #8799B8",
"}.	c #7C8EB0",
"|.	c #7184A8",
"1.	c #8496B6",
"2.	c #98A8C4",
"3.	c #B6C2D6",
"4.	c #D3DBE9",
"5.	c #7E838C",
"6.	c #8E9299",
"7.	c #E9F1FF",
"8.	c #E4EEFF",
"9.	c #DAE4F8",
"0.	c #D0DAF0",
"a.	c #BAC7E0",
"b.	c #A4B4D0",
"c.	c #9CACCA",
"d.	c #94A5C4",
"e.	c #A0B0CD",
"f.	c #ACBBD6",
"g.	c #C2CEE2",
"h.	c #D8E1EF",
"i.	c #81868F",
"j.	c #8D9199",
"k.	c #E6EFFF",
"l.	c #E1EBFF",
"m.	c #E0EBFF",
"n.	c #DFEBFF",
"o.	c #DCE6FC",
"p.	c #D7E2F8",
"q.	c #CCD8F0",
"r.	c #C0CFE8",
"s.	c #BBCAE4",
"t.	c #B6C6E0",
"u.	c #C0CEE7",
"v.	c #CFDAEE",
"w.	c #DEE7F5",
"x.	c #858A93",
"y.	c #000001",
"z.	c #8B9199",
"A.	c #E9F2FF",
"B.	c #E3EDFF",
"C.	c #DCE8FF",
"D.	c #DAE8FF",
"E.	c #DAE6FD",
"F.	c #D8E4FC",
"G.	c #D2DFF8",
"H.	c #CCDAF4",
"I.	c #C9D8F2",
"J.	c #C6D6F0",
"K.	c #C9D8F1",
"L.	c #CCDAF3",
"M.	c #D7E3F6",
"N.	c #E2ECFA",
"O.	c #878D96",
"P.	c #8A9099",
"Q.	c #E6F0FF",
"R.	c #D8E6FF",
"S.	c #D7E6FF",
"T.	c #D6E5FF",
"U.	c #888E99",
"V.	c #E2EEFF",
"W.	c #DBE8FF",
"X.	c #D4E3FF",
"Y.	c #D2E2FF",
"Z.	c #D3E3FF",
"`.	c #888F99",
" +	c #858D99",
".+	c #DFECFF",
"++	c #CFE0FF",
"@+	c #CEE0FF",
"#+	c #CDDFFF",
"$+	c #E1EDFF",
"%+	c #878E99",
"&+	c #848C99",
"*+	c #DCEAFF",
"=+	c #D4E4FF",
"-+	c #CADEFF",
";+	c #CADDFF",
">+	c #C8DCFF",
",+	c #C9DDFF",
"'+	c #D3E4FF",
")+	c #DEEBFF",
"!+	c #828B99",
"~+	c #DAE9FF",
"{+	c #D0E2FF",
"]+	c #C6DBFF",
"^+	c #C5DAFF",
"/+	c #C4DAFF",
"(+	c #CFE2FF",
"_+	c #818B99",
":+	c #D8E8FF",
"<+	c #CCE0FF",
"[+	c #C2D8FF",
"}+	c #C1D8FF",
"|+	c #C0D8FF",
"1+	c #808A99",
"2+	c #D5E7FF",
"3+	c #C9DEFF",
"4+	c #BDD5FF",
"5+	c #7E8999",
"6+	c #D2E6FF",
"7+	c #C6DCFF",
"8+	c #B8D2FF",
"9+	c #7D8899",
"0+	c #D0E4FF",
"a+	c #C2DAFF",
"b+	c #B4D0FF",
"c+	c #7B8899",
"d+	c #CEE2FF",
"e+	c #BFD8FF",
"f+	c #B0CEFF",
"g+	c #B1CEFF",
"h+	c #7A8799",
"i+	c #CBE1FF",
"j+	c #BCD6FF",
"k+	c #ACCBFF",
"l+	c #ADCCFF",
"m+	c #AECCFF",
"n+	c #788699",
"o+	c #C9E0FF",
"p+	c #B9D4FF",
"q+	c #A9C9FF",
"r+	c #AAC9FF",
"s+	c #AACAFF",
"t+	c #A8C8FF",
"u+	c #778599",
"v+	c #C7DEFF",
"w+	c #B6D2FF",
"x+	c #A6C7FF",
"y+	c #A6C6FF",
"z+	c #A5C6FF",
"A+	c #7E8A99",
"B+	c #D2E7FF",
"C+	c #C4DCFF",
"D+	c #B4D2FF",
"E+	c #B5D2FF",
"F+	c #859099",
"G+	c #DEF0FF",
"H+	c #D0E6FF",
"I+	c #C3DDFF",
"J+	c #C4DDFF",
"K+	c #C5DDFF",
"L+	c #51585D",
"M+	c #7D8A99",
"N+	c #758499",
"O+	c #768499",
"            . . . . . . . . . . . . . .                         ",
"            . . . . . . . . . . . . . .                         ",
"          . + @ @ @ @ @ @ @ @ @ # $ % & *                       ",
"          . @ = = = = = = = = = - ; > , ' )                     ",
"          . ! ~ ~ ~ ~ ~ ~ ~ ~ ~ { ] ^ / ( _ :                   ",
"          . < [ } } } } } } } } | 1 2 3 4 5 6 7                 ",
"          . 8 9 0 a a a a a a a b c d e f g h i j               ",
"          . k l m n n n n n n n o p q r s t u v w x             ",
"          . y z A B B B B B B C D E F G H I J K L M N           ",
"          . O P B Q Q Q Q Q R S T U V W X Y Z `  ...+.          ",
"          . @.X #.$.$.$.$.$.%.%.&.*.=.-.;.>.,.'.).!.~.{.        ",
"          . ].^./.(.(.(.(.(.(.(._.:.<.[.}.|.1.2.3.4.5.{.        ",
"          . 6.Q 7.8.8.8.8.8.8.8.9.0.a.b.c.d.e.f.g.h.i.{.        ",
"          . j./.k.l.m.n.m.l.l.l.o.p.q.r.s.t.s.u.v.w.x.y.        ",
"          . z.A.B.C.C.D.C.C.C.C.E.F.G.H.I.J.K.L.M.N.O.y.        ",
"          . P.Q.n.R.S.T.S.R.R.R.R.R.R.R.S.T.S.R.n.Q.P..         ",
"          . U.V.W.X.Y.Y.Y.X.X.X.X.X.X.X.Z.Y.Y.Y.W.8.`..         ",
"          .  +.+S.++@+#+@+++++++++++++++++++@+#+S.$+%+.         ",
"          . &+*+=+-+;+>+,+;+;+;+;+;+;+;+;+;+,+>+'+)+ +.         ",
"          . !+~+{+]+^+/+/+/+/+/+/+/+/+/+/+/+/+/+(+~+!+.         ",
"          . _+:+<+[+}+|+|+|+|+|+|+|+|+|+|+|+|+|+<+:+_+.         ",
"          . 1+2+3+4+4+4+4+4+4+4+4+4+4+4+4+4+4+4+3+2+1+.         ",
"          . 5+6+7+8+8+8+8+8+8+8+8+8+8+8+8+8+8+8+7+6+5+.         ",
"          . 9+0+a+b+b+b+b+b+b+b+b+b+b+b+b+b+b+b+a+0+9+.         ",
"          . c+d+e+f+f+g+g+g+f+f+f+f+f+f+f+f+f+f+e+d+c+.         ",
"          . h+i+j+k+l+m+m+m+l+k+k+k+k+k+k+k+k+k+j+i+h+.         ",
"          . n+o+p+q+r+s+s+s+q+t+t+t+q+q+q+t+q+q+p+o+n+.         ",
"          . u+v+w+x+x+x+x+x+y+z+z+z+y+x+y+z+y+x+w+v+u+.         ",
"          . A+B+C+D+D+D+D+D+D+D+D+E+E+D+D+D+D+D+C+B+A+.         ",
"          . F+G+H+I+I+I+I+I+I+I+J+K+J+I+I+I+I+I+H+G+F+.         ",
"          . L+F+M+N+N+N+N+N+N+N+N+O+N+N+N+N+N+N+M+F+L+.         ",
"            . . . . . . . . . . . . . . . . . . . . .           "};
