/* XPM */
static const char * xpm_notconnected[] = {
"32 32 302 2",
"  	c None",
". 	c #710000",
"+ 	c #7A1111",
"@ 	c #740404",
"# 	c #811414",
"$ 	c #9B3636",
"% 	c #BB5F5F",
"& 	c #D48080",
"* 	c #D37E7E",
"= 	c #B85A5A",
"- 	c #983232",
"; 	c #7F1212",
"> 	c #730303",
", 	c #801B1B",
"' 	c #7C0E0E",
") 	c #AE4F4F",
"! 	c #E29494",
"~ 	c #E19292",
"{ 	c #E08F8F",
"] 	c #DF8D8D",
"^ 	c #DD8A8A",
"/ 	c #DC8888",
"( 	c #DA8585",
"_ 	c #D98282",
": 	c #D77F7F",
"< 	c #D67C7C",
"[ 	c #A54141",
"} 	c #7A0B0B",
"| 	c #760707",
"1 	c #AB4C4C",
"2 	c #E49696",
"3 	c #D67D7D",
"4 	c #D47A7A",
"5 	c #D37777",
"6 	c #D17474",
"7 	c #A03838",
"8 	c #750505",
"9 	c #7A1010",
"0 	c #811515",
"a 	c #E59999",
"b 	c #E49797",
"c 	c #D27878",
"d 	c #D07171",
"e 	c #CE6E6E",
"f 	c #CD6B6B",
"g 	c #7D0E0E",
"h 	c #861B1B",
"i 	c #E39494",
"j 	c #E09090",
"k 	c #D78080",
"l 	c #BD5D5D",
"m 	c #942A2A",
"n 	c #BD5B5B",
"o 	c #CB6868",
"p 	c #C96565",
"q 	c #801111",
"r 	c #DD8B8B",
"s 	c #D88080",
"t 	c #D57A7A",
"u 	c #CD7070",
"v 	c #881C1C",
"w 	c #C79B9B",
"x 	c #760606",
"y 	c #9C3232",
"z 	c #C86262",
"A 	c #C65F5F",
"B 	c #7C0C0C",
"C 	c #DB8585",
"D 	c #D98383",
"E 	c #AE4A4A",
"F 	c #A55D5D",
"G 	c #FFFFFF",
"H 	c #F7F1F1",
"I 	c #C55C5C",
"J 	c #C35959",
"K 	c #E39595",
"L 	c #D07272",
"M 	c #821414",
"N 	c #DFC6C6",
"O 	c #C39494",
"P 	c #8F2222",
"Q 	c #C15656",
"R 	c #982929",
"S 	c #A23A3A",
"T 	c #AE6D6D",
"U 	c #750404",
"V 	c #B95151",
"W 	c #C25656",
"X 	c #C05353",
"Y 	c #BE5050",
"Z 	c #780707",
"` 	c #AE5050",
" .	c #DB8686",
"..	c #D27575",
"+.	c #C36262",
"@.	c #7B0C0C",
"#.	c #F0E4E4",
"$.	c #BD8888",
"%.	c #9A2E2E",
"&.	c #BD4D4D",
"*.	c #982828",
"=.	c #E29292",
"-.	c #DE8B8B",
";.	c #D37878",
">.	c #CF7171",
",.	c #902525",
"'.	c #BF8C8C",
").	c #E6D3D3",
"!.	c #770707",
"~.	c #BB5454",
"{.	c #C55D5D",
"].	c #BD4E4E",
"^.	c #BB4B4B",
"/.	c #BA4848",
"(.	c #730202",
"_.	c #E29393",
":.	c #C36A6A",
"<.	c #9D3838",
"[.	c #7E1111",
"}.	c #7E1010",
"|.	c #9B3434",
"1.	c #BE6060",
"2.	c #D57B7B",
"3.	c #B55151",
"4.	c #984646",
"5.	c #FCF9F9",
"6.	c #A33838",
"7.	c #AE4343",
"8.	c #912323",
"9.	c #7B0A0A",
"0.	c #7A0A0A",
"a.	c #8F1F1F",
"b.	c #A83838",
"c.	c #B84545",
"d.	c #7B0909",
"e.	c #9B3737",
"f.	c #831616",
"g.	c #C69999",
"h.	c #EEE0E0",
"i.	c #BC5C5C",
"j.	c #CF6F6F",
"k.	c #891C1C",
"l.	c #D2AFAF",
"m.	c #D1ADAD",
"n.	c #861717",
"o.	c #C35B5B",
"p.	c #7E0E0E",
"q.	c #7D0C0C",
"r.	c #A63434",
"s.	c #B74242",
"t.	c #8A1717",
"u.	c #BB6060",
"v.	c #DF8E8E",
"w.	c #CFA9A9",
"x.	c #A94141",
"y.	c #A96565",
"z.	c #FEFEFE",
"A.	c #974444",
"B.	c #AF4444",
"C.	c #C35A5A",
"D.	c #8D1A1A",
"E.	c #B54040",
"F.	c #9E2929",
"G.	c #D58181",
"H.	c #C66464",
"I.	c #E4CECE",
"J.	c #902222",
"K.	c #C25757",
"L.	c #790808",
"M.	c #B43D3D",
"N.	c #AD3535",
"O.	c #D47E7E",
"P.	c #DC8989",
"Q.	c #CD6C6C",
"R.	c #9A3030",
"S.	c #B67C7C",
"T.	c #F1E6E6",
"U.	c #B44949",
"V.	c #C05454",
"W.	c #790707",
"X.	c #B33A3A",
"Y.	c #AB3333",
"Z.	c #B85B5B",
"`.	c #BA5454",
" +	c #8D3333",
".+	c #F9F4F4",
"++	c #AF6F6F",
"@+	c #9B2E2E",
"#+	c #BF5151",
"$+	c #8B1717",
"%+	c #B13838",
"&+	c #9B2323",
"*+	c #DA8484",
"=+	c #BE6161",
"-+	c #801212",
";+	c #B65151",
">+	c #CC6969",
",+	c #902424",
"'+	c #C89C9C",
")+	c #E0C7C7",
"!+	c #7F1010",
"~+	c #C05555",
"{+	c #A93838",
"]+	c #7C0909",
"^+	c #A12A2A",
"/+	c #B03535",
"(+	c #881313",
"_+	c #D88181",
":+	c #D77E7E",
"<+	c #993030",
"[+	c #972C2C",
"}+	c #AF4747",
"|+	c #9C4D4D",
"1+	c #A55E5E",
"2+	c #A43737",
"3+	c #BC4B4B",
"4+	c #A73434",
"5+	c #8D1B1B",
"6+	c #8B1818",
"7+	c #AF3333",
"8+	c #D47878",
"9+	c #D17373",
"0+	c #CF7070",
"a+	c #CD6D6D",
"b+	c #CC6A6A",
"c+	c #C76262",
"d+	c #811212",
"e+	c #D6B6B6",
"f+	c #D0ABAB",
"g+	c #871717",
"h+	c #C15454",
"i+	c #BA4949",
"j+	c #B94646",
"k+	c #B74343",
"l+	c #B64040",
"m+	c #B33B3B",
"n+	c #B03636",
"o+	c #AD3131",
"p+	c #720101",
"q+	c #A64141",
"r+	c #D27676",
"s+	c #CA6767",
"t+	c #A33939",
"u+	c #FCFAFA",
"v+	c #FEFDFD",
"w+	c #AC3E3E",
"x+	c #BC4C4C",
"y+	c #B23838",
"z+	c #AE3131",
"A+	c #901818",
"B+	c #BD5656",
"C+	c #E8D6D6",
"D+	c #B77E7E",
"E+	c #912222",
"F+	c #BE5151",
"G+	c #BD4F4F",
"H+	c #B43E3E",
"I+	c #AC2E2E",
"J+	c #760404",
"K+	c #A13939",
"L+	c #CE6D6D",
"M+	c #C96464",
"N+	c #972B2B",
"O+	c #C08D8D",
"P+	c #B94B4B",
"Q+	c #8E1616",
"R+	c #C76161",
"S+	c #B07171",
"T+	c #9A2B2B",
"U+	c #AC2F2F",
"V+	c #AB2C2C",
"W+	c #C65E5E",
"X+	c #A33737",
"Y+	c #B77D7D",
"Z+	c #811111",
"`+	c #BC4D4D",
" @	c #B64141",
".@	c #B53E3E",
"+@	c #790606",
"@@	c #C45B5B",
"#@	c #C25858",
"$@	c #BB4E4E",
"%@	c #A73737",
"&@	c #BB4949",
"*@	c #B84343",
"=@	c #B23939",
"-@	c #7B0707",
";@	c #7C0D0D",
">@	c #C15555",
",@	c #BF5252",
"'@	c #BE4F4F",
")@	c #B84848",
"!@	c #B84444",
"~@	c #AF3434",
"{@	c #AD2F2F",
"]@	c #992A2A",
"^@	c #992828",
"/@	c #B94747",
"(@	c #911919",
"_@	c #AD3737",
":@	c #AC3434",
"<@	c #9C2424",
"                            . . . .                             ",
"                    + @ # $ % & * = - ; > +                     ",
"                , ' ) ! ~ { ] ^ / ( _ : < [ } ,                 ",
"            . | 1 2 ! ~ { ] ^ / ( _ : 3 4 5 6 7 8 .             ",
"          9 0 a b ! ~ { ] ^ / ( _ : 3 c 5 6 d e f g 9           ",
"        9 h a b i ~ j ] ^ / ( _ k 3 4 l m n e f o p q 9         ",
"      . 0 a b i ~ j ] r / ( _ s 3 t u v w x y o p z A B .       ",
"      | a b i ~ j ] r / C D s 3 t 5 E F G H . p z A I J @       ",
"    , 1 b K ~ j ] r / C D s 3 t 5 L M N G O P z A I J Q R ,     ",
"    ' b K ~ j ] r / C D s 3 t 5 L S T G H U V A I J W X Y Z     ",
"  + ` K ~ j ] r /  .D s 3 t 5 ..+.@.#.G $.%.A I J W X Y &.*.+   ",
"  @ K =.j ] -./  .D s 3 t ;...>.,.'.G ).!.~.{.J W X Y ].^./.(.  ",
"  # _.j :.<.[.}.|.1.3 2.;...L 3.4.G 5.(.6.{.7.8.9.0.a.b./.c.d.  ",
"  e.j :.f.g.h.h.g.# i.;...L j.k.l.G m.n.o.7.p.g.h.h.g.q.r.s.t.  ",
". u.v.<.g.G G G G w.. ..L j.x.y.G z.A.B.C.. w.G G G G g.D.E.F.. ",
". G.-.[.h.G G G G G . L j.H.g I.z.. J.C.K.. G G G G G h.L.M.N.. ",
". O.P.}.h.G G G G G . j.Q.R.S.G T.(.U.K.V.. G G G G G h.W.X.Y.. ",
". Z. .|.g.G G G G w.. Q.`. +.+G ++@+K.V.#+. w.G G G G g.$+%+&+. ",
"  - *+=+# g.h.h.g.-+;+>+,+'+G )+!+~+V.#+].{+q.g.h.h.g.]+^+/+(+  ",
"  ; _+:+i.<+g g [+;+>+}+|+G G 1+2+V.#+].3+/.4+5+L.W.6+^+/+7+W.  ",
"  > :+2.8+..9+0+a+b+c+d+e+G f+g+h+#+].3+i+j+k+l+M.m+%+n+7+o+p+  ",
"  + q+8+r+9+0+a+b+s+t+(.u+v+p+w+#+].x+i+j+k+l+M.m+y+n+7+z+A++   ",
"    } r+9+0+a+b+s+B+x C+G D+E+F+G+x+i+j+k+l+H+m+y+n+7+z+I+J+    ",
"    , K+0+L+b+s+M+N+O+G h.9.P+G+x+i+j+k+l+H+m+y+n+7+z+I+Q+,     ",
"      8 L+b+s+M+R+. I.G S+T+].x+i+j+k+l+H+m+y+n+7+z+U+V+(.      ",
"      . g s+M+R+W+X+p.Y+Z+`+x+i+j+k+ @.@m+y+n+7+z+U+V++@.       ",
"        9 d+R+W+@@#@$@R %@x+&@j+*@ @.@m+=@n+7+z+U+V+-@9         ",
"          9 ;@@@#@>@,@'@)@&@j+!@ @.@m+=@n+~@z+{@V++@9           ",
"            . U ]@,@'@x+&@j+!@ @.@m+=@n+~@z+{@Q+(..             ",
"                , Z ^@&@/@!@ @.@m+=@n+~@z+(@J+,                 ",
"                    + (.d.6+F._@:@<@(+W.p++                     ",
"                            . . . .                             "};
