/* XPM */
static const char* xpm_observe[]={
"16 16 2 1",
". c None",
"# c #ffffff",
"................",
"................",
"................",
"................",
"................",
"......###.......",
"...###...###....",
"..#.#.....#.#...",
".#..#..#..#..#..",
"..#.#.....#.#...",
"...###...###....",
"......###.......",
"................",
"................",
"................",
"................"};
