/* XPM */
static const char* xpm_point[]={
"16 16 3 1",
"# c #000000",
"a c #838079",
". c None",
"................",
"................",
"................",
"...#........#...",
"....#......#.a..",
".....#....#.a...",
"......#..#.a....",
".......##.a.....",
".......##a......",
"......#.a#......",
".....#.a..#.....",
"....#.a....#....",
"...#.a......#...",
"....a........a..",
"................",
"................"};
