/* XPM */
static const char * xpm_profile[] = {
"32 32 307 2",
"  	c #000000",
". 	c #D5DEE7",
"+ 	c #BBCCE3",
"@ 	c #A7BEE0",
"# 	c #A6BCDD",
"$ 	c #AAC2E7",
"% 	c #E5E9EA",
"& 	c #F9FFFD",
"* 	c #F1F6FC",
"= 	c #E4E5E4",
"- 	c #E3E3E2",
"; 	c #B0D1EE",
"> 	c #8CAECD",
", 	c #7D8799",
"' 	c #BDC1C9",
") 	c #EDF2EE",
"! 	c #FBFFFF",
"~ 	c #F9FFFF",
"{ 	c #FDFEFF",
"] 	c #FCFBFF",
"^ 	c #FBF8FF",
"/ 	c #F9F6FD",
"( 	c #F5F6FB",
"_ 	c #F1F4F9",
": 	c #EFF2F7",
"< 	c #EFF0F2",
"[ 	c #E9F3FD",
"} 	c #E7F1FE",
"| 	c #AFD0ED",
"1 	c #96D8FF",
"2 	c #749BCD",
"3 	c #969DAC",
"4 	c #CACED4",
"5 	c #E9EEEA",
"6 	c #F9FDFC",
"7 	c #FBFAFF",
"8 	c #FCF6FF",
"9 	c #F6F7FC",
"0 	c #F3F6FB",
"a 	c #F0F3FC",
"b 	c #F4F4FC",
"c 	c #F5F3F8",
"d 	c #E5F0FD",
"e 	c #A8C7EB",
"f 	c #85CEFF",
"g 	c #55B5FE",
"h 	c #699ED2",
"i 	c #99A0AF",
"j 	c #CCCFD6",
"k 	c #E9EDEC",
"l 	c #FCFFFF",
"m 	c #4D586E",
"n 	c #F3F7FF",
"o 	c #ECEEFB",
"p 	c #F5F3FE",
"q 	c #E4EFFD",
"r 	c #9EC0EB",
"s 	c #61BDFF",
"t 	c #32A9FF",
"u 	c #23A2FC",
"v 	c #5590CC",
"w 	c #9BA3B1",
"x 	c #CFD2D8",
"y 	c #FAFDFF",
"z 	c #F7FBFC",
"A 	c #F6FAFD",
"B 	c #F4F7FE",
"C 	c #F3F6FF",
"D 	c #F2F5FC",
"E 	c #F1F4FB",
"F 	c #EDF4FC",
"G 	c #EBF4FD",
"H 	c #EAF3FF",
"I 	c #E8EFFF",
"J 	c #EAECF9",
"K 	c #E3EFFD",
"L 	c #E1EEFD",
"M 	c #91B6E5",
"N 	c #48A1EE",
"O 	c #3995E7",
"P 	c #378BDE",
"Q 	c #3682D5",
"R 	c #708CBC",
"S 	c #ACB1BB",
"T 	c #E0E2E5",
"U 	c #E7EAEF",
"V 	c #FBFEFF",
"W 	c #E1F3FF",
"X 	c #E5F5FF",
"Y 	c #EAF4FE",
"Z 	c #E0EDFD",
"` 	c #DEEBFD",
" .	c #B3B3F7",
"..	c #ACACF7",
"+.	c #A2A1F6",
"@.	c #9A9AF8",
"#.	c #8593D8",
"$.	c #9096A3",
"%.	c #D3D6DB",
"&.	c #D9DFE5",
"*.	c #F7FBFF",
"=.	c #F4F8FF",
"-.	c #EFF5FF",
";.	c #EEF4FF",
">.	c #EFF3FC",
",.	c #ECF3F9",
"'.	c #E9F4FA",
").	c #E5F3FC",
"!.	c #E0F3FF",
"~.	c #DEF1FF",
"{.	c #DEECF7",
"].	c #DFEDFC",
"^.	c #DEECFC",
"/.	c #DCEBFD",
"(.	c #DAEAFD",
"_.	c #D9E9FC",
":.	c #D7E8FC",
"<.	c #BFD2FD",
"[.	c #8490D7",
"}.	c #838A97",
"|.	c #CCCFD4",
"1.	c #F4FDFF",
"2.	c #EAF4FD",
"3.	c #F1F9FF",
"4.	c #EBF1FD",
"5.	c #EEF2FE",
"6.	c #EBEFFA",
"7.	c #EAF1FB",
"8.	c #E7F1FB",
"9.	c #E4F2FD",
"0.	c #DFEFFE",
"a.	c #E0F0FF",
"b.	c #DCE9FA",
"c.	c #D9E6F9",
"d.	c #282828",
"e.	c #F0FBFF",
"f.	c #F0FAFF",
"g.	c #E9F1FC",
"h.	c #ECF2FE",
"i.	c #E8F0FB",
"j.	c #E2EEFC",
"k.	c #E0EDFE",
"l.	c #666666",
"m.	c #8F8F8F",
"n.	c #979797",
"o.	c #848484",
"p.	c #6D6D6D",
"q.	c #464646",
"r.	c #2F2F2F",
"s.	c #C8D0DD",
"t.	c #F2F9FF",
"u.	c #E9F3FC",
"v.	c #E5EFF9",
"w.	c #E4EDFC",
"x.	c #E0ECFA",
"y.	c #E1EDFD",
"z.	c #E2EEFE",
"A.	c #DFECFC",
"B.	c #CDE1FA",
"C.	c #212121",
"D.	c #5E5E60",
"E.	c #717171",
"F.	c #A4A4A4",
"G.	c #7E7E7E",
"H.	c #4A4A4A",
"I.	c #1A1A1A",
"J.	c #ECF3FD",
"K.	c #2A2A2A",
"L.	c #545454",
"M.	c #3F3F3F",
"N.	c #BCC6D9",
"O.	c #D5E6F8",
"P.	c #4D4D4D",
"Q.	c #29201F",
"R.	c #5B1507",
"S.	c #8D260D",
"T.	c #9B3512",
"U.	c #68290D",
"V.	c #1C1209",
"W.	c #DBE8F9",
"X.	c #1C1C1C",
"Y.	c #2C2C2C",
"Z.	c #5B2C10",
"`.	c #9E4116",
" +	c #D2561D",
".+	c #DD6823",
"++	c #EA822D",
"@+	c #F79436",
"#+	c #F99131",
"$+	c #A25812",
"%+	c #383838",
"&+	c #F38C2F",
"*+	c #FF9B35",
"=+	c #FFA03A",
"-+	c #FF9933",
";+	c #FC9632",
">+	c #BA6317",
",+	c #6F582C",
"'+	c #363636",
")+	c #242424",
"!+	c #B56221",
"~+	c #FB9532",
"{+	c #E27C2A",
"]+	c #C25F1E",
"^+	c #B7C1D6",
"/+	c #171717",
"(+	c #D06A24",
"_+	c #DA7427",
":+	c #DD7728",
"<+	c #E07A29",
"[+	c #D77126",
"}+	c #B05316",
"|+	c #57342E",
"1+	c #1F1F1F",
"2+	c #2C190E",
"3+	c #C66020",
"4+	c #CB6522",
"5+	c #CE6823",
"6+	c #9E4210",
"7+	c #ABB7D1",
"8+	c #C0D7F7",
"9+	c #121212",
"0+	c #0D0D0D",
"a+	c #B7511B",
"b+	c #BC561C",
"c+	c #C05A1E",
"d+	c #832905",
"e+	c #181818",
"f+	c #AE4819",
"g+	c #B34D1A",
"h+	c #A43F14",
"i+	c #6C1D08",
"j+	c #A0ADCD",
"k+	c #0A0A0A",
"l+	c #0E0705",
"m+	c #A23C14",
"n+	c #A03A14",
"o+	c #7B1806",
"p+	c #020202",
"q+	c #150201",
"r+	c #7E250C",
"s+	c #952F10",
"t+	c #932D0F",
"u+	c #4B1A34",
"v+	c #B5CDEF",
"w+	c #4D65B1",
"x+	c #1B46B7",
"y+	c #4F214C",
"z+	c #6A0401",
"A+	c #720C04",
"B+	c #690C11",
"C+	c #6E4C7F",
"D+	c #325CD2",
"E+	c #1A6085",
"F+	c #3762D5",
"G+	c #5676EF",
"H+	c #6D8BFC",
"I+	c #2F5DCC",
"J+	c #7A9AE9",
"K+	c #848BBF",
"L+	c #8AB8EE",
"M+	c #91BFFF",
"N+	c #4574D7",
"O+	c #708EFD",
"P+	c #5F7BF8",
"Q+	c #647CFD",
"R+	c #6F92F9",
"S+	c #9CCFFF",
"T+	c #6078FD",
"U+	c #4E68F1",
"V+	c #307991",
"W+	c #3E58E7",
"X+	c #586BFD",
"Y+	c #6984FD",
"Z+	c #7292FE",
"`+	c #5980EB",
" @	c #5588D5",
".@	c #A6D9FF",
"+@	c #5E75FD",
"@@	c #5566FD",
"#@	c #2B65AC",
"$@	c #929292",
"%@	c #B7CFF1",
"&@	c #BAD4F5",
"*@	c #2B57C5",
"=@	c #5364FC",
"-@	c #5C72FD",
";@	c #B0E3FD",
">@	c #4266E0",
",@	c #576AFD",
"'@	c #5063F9",
")@	c #1340C0",
"!@	c #3151DC",
"~@	c #465DEF",
"{@	c #536DF3",
"]@	c #19589A",
"^@	c #70798E",
"/@	c #274CD2",
"(@	c #B6B6B6",
"_@	c #C2C2C2",
":@	c #6776A2",
"<@	c #5465FD",
"[@	c #2148CD",
"}@	c #193FA5",
"|@	c #2E4785",
"1@	c #31496D",
"2@	c #7C849A",
"    . . . . . + + + + + + + + @ # $                             ",
"    % & & & & & & & & & * * * = - ; > , '                       ",
"    ) ! ~ ! { ] ^ / ( _ * : < [ } | 1 2 3 4                     ",
"    5 ! & 6 7 ^ 8 / 9 0 a b c } d e f g h i j                   ",
"    k l m m m m m m m m n o p d q r s t u v w x                 ",
"    % y z A B C D E F G H I J K L M N O P Q R S T               ",
"    U V m m m m m m m m W X Y L Z `  ...+.@.#.$.%.              ",
"    &.*.=.n -.;.>.,.'.).!.~.{.].^./.(._.:.<.[.}.|.              ",
"    &.1.2.3.4.5.6.7.8.9.0.a.Z Z b.c.c.c.d.d.d.d.d.              ",
"    &.e.f.Y g.h.i.i.9.j.Z k.Z b.c.c.d.l.m.n.o.p.q.r.            ",
"    s.t.u.v.Y i.w.k.x.y.z.A.b.c.B.C.D.E.o.m.F.F.G.H.I.          ",
"    s.J.m m i.9.m m m m m m m m K.L.L.l.o.n.F.E.q.r.K.M.        ",
"    N.i.i.i.k.k.k.k.k.O.O.c.B.K.M.H.H.D.l.P.Q.R.S.T.U.V.        ",
"    N.i.i.k.9.k.k.W.W.B.O.B.B.X.M.q.P.Y.Z.`. +.+++@+#+$+$+      ",
"    N.i.k.9.k.k.W.B.B.O.B.B.X.K.%+M.M.Z.&+#+*+=+*+-+;+>+,+      ",
"    N.k.m m k.W.m m m m m m X.K.r.'+)+!+++&+#+~+#+&+{+]+,+      ",
"    ^+9.9.k.k.W.O.B.B.B.O.B.X.C.d.Y./+(+_+:+<+<+<+:+[+}+|+      ",
"    ^+9.k.k.W.O.B.B.B.O.B.B.X.I.1+)+2+3+4+5+(+(+(+4+4+6+,+      ",
"    7+k.k.W.O.B.B.B.B.B.B.B.8+9+/+I.0+a+b+c+c+]+c+b+b+d+$+      ",
"    7+k.m m B.B.m m m m m m m e+0+9+0+U.f+f+g+g+g+f+h+i+        ",
"    j+W.O.B.B.B.B.B.B.B.B.8+8+8+9+k+k+l+U.T.m+m+m+n+o+|+        ",
"    j+O.B.B.B.B.B.B.B.8+8+8+8+8+8+H.e+p+q+r+s+s+t+o+u+D.        ",
"    j+B.B.B.B.B.B.B.8+B.8+8+8+8+v+8+w+x+y+z+A+A+B+C+D+D+E+      ",
"    j+B.B.B.B.B.8+8+B.8+8+8+8+v+8+F+G+H+I+J+K+K+L+M+N+O+P+x+    ",
"    j+B.m m B.8+m m m m m m m m I+G+Q+H+R+I+S+S+S+S+N+H+T+U+V+  ",
"    j+B.B.8+8+B.8+8+8+8+8+v+8+I+W+X+T+Y+Z+`+ @.@.@.@D+Y++@@@#@$@",
"    j+B.8+B.B.8+8+8+8+8+%@&@v+*@W+=@-@T+Y+H+F+L+;@L+>@T+,@'@#@$@",
"    j+j+j+j+j+j+j+j+j+j+j+j+j+)@!@~@@@-@T+Q+Y+*@;@ @{@,@=@~@]@$@",
"    j+^@^@^@^@^@^@^@^@^@^@^@^@)@/@!@~@=@,@-@+@U+ @I+@@'@W+)@$@(@",
"      _@_@_@_@_@_@_@_@_@_@_@(@:@)@/@!@W+~@'@<@<@[@/@/@}@:@$@(@  ",
"                              (@$@:@|@|@|@|@|@|@1@:@:@$@(@      ",
"                                  (@$@$@:@:@:@2@$@(@            "};
