/* XPM */
static const char * xpm_recplay[] = {
"32 32 45 1",
" 	c None",
".	c #194509",
"+	c #60EB70",
"@	c #55D05F",
"#	c #235D18",
"$	c #5FE96E",
"%	c #54D260",
"&	c #5DE76D",
"*	c #5CE46A",
"=	c #32822E",
"-	c #5AE168",
";	c #59DE66",
">	c #53D05D",
",	c #57DB63",
"'	c #55D860",
")	c #2E7A28",
"!	c #52D45D",
"~	c #50D05A",
"{	c #45B449",
"]	c #4ECC57",
"^	c #4BC853",
"/	c #2D7926",
"(	c #49C450",
"_	c #46BF4C",
":	c #3EA93F",
"<	c #1F5612",
"[	c #44BB49",
"}	c #41B645",
"|	c #3AA63B",
"1	c #3EB241",
"2	c #3CAD3E",
"3	c #25691B",
"4	c #39A93A",
"5	c #36A436",
"6	c #31942E",
"7	c #349F33",
"8	c #319B2F",
"9	c #216416",
"0	c #2E962B",
"a	c #2C9228",
"b	c #268120",
"c	c #1B4F0C",
"d	c #278621",
"e	c #1C540E",
"f	c #1B4E0C",
"                                ",
"                                ",
"       .....                    ",
"       ......                   ",
"       ..+@#..                  ",
"       ..+$%...                 ",
"       ..$&*=...                ",
"       ..&*-;>...               ",
"       ..*-;,')...              ",
"       ..-;,'!~{...             ",
"       ..;,'!~]^/...            ",
"       ..,'!~]^(_:<..           ",
"       ..'!~]^(_[}|...          ",
"       ..!~]^(_[}123...         ",
"       ..~]^(_[}12456...        ",
"       ..]^(_[}1245789...       ",
"       ..^(_[}1245780abc.       ",
"       ..(_[}1245780ade..       ",
"       .._[}1245780ade..        ",
"       ..[}1245780ade..         ",
"       ..}1245780ade..          ",
"       ..1245780ade..           ",
"       ..245780ade..            ",
"       ..45780ade..             ",
"       ..5780ade..              ",
"       ..780ade..               ",
"       ..80ade..                ",
"       ..0ade..                 ",
"       ..ade..                  ",
"       ...f..                   ",
"       .....                    ",
"                                "};
