/* XPM */
static const char * xpm_recrec[] = {
"32 32 153 2",
"  	c None",
". 	c #9C0202",
"+ 	c #BF4343",
"@ 	c #D06363",
"# 	c #DE7B7B",
"$ 	c #E78C8C",
"% 	c #EA9494",
"& 	c #E38686",
"* 	c #D77070",
"= 	c #C95656",
"- 	c #B93838",
"; 	c #CC5B5B",
"> 	c #E88F8F",
", 	c #F09F9F",
"' 	c #EF9B9B",
") 	c #ED9898",
"! 	c #EB9494",
"~ 	c #E99191",
"{ 	c #E78D8D",
"] 	c #E58A8A",
"^ 	c #E18282",
"/ 	c #D76F6F",
"( 	c #C04444",
"_ 	c #E58989",
": 	c #F2A2A2",
"< 	c #F09E9E",
"[ 	c #DF7E7E",
"} 	c #DD7A7A",
"| 	c #DB7676",
"1 	c #CE5F5F",
"2 	c #C54E4E",
"3 	c #EE9999",
"4 	c #F2A1A1",
"5 	c #D97272",
"6 	c #D76E6E",
"7 	c #B53030",
"8 	c #EE9B9B",
"9 	c #E38585",
"0 	c #D46A6A",
"a 	c #D26666",
"b 	c #CD5C5C",
"c 	c #E48888",
"d 	c #ED9797",
"e 	c #E99090",
"f 	c #E18181",
"g 	c #D66E6E",
"h 	c #D06262",
"i 	c #CE5E5E",
"j 	c #C44B4B",
"k 	c #D06161",
"l 	c #CE5D5D",
"m 	c #CC5959",
"n 	c #CA5555",
"o 	c #B42D2D",
"p 	c #E88E8E",
"q 	c #EC9797",
"r 	c #DF7D7D",
"s 	c #DD7979",
"t 	c #DB7575",
"u 	c #D87171",
"v 	c #D66D6D",
"w 	c #D46969",
"x 	c #D26565",
"y 	c #C95555",
"z 	c #C75151",
"A 	c #EE9A9A",
"B 	c #DA7575",
"C 	c #C54D4D",
"D 	c #C34949",
"E 	c #AB1D1D",
"F 	c #EA9393",
"G 	c #E58888",
"H 	c #CB5959",
"I 	c #C14545",
"J 	c #B22929",
"K 	c #DC7979",
"L 	c #CD5D5D",
"M 	c #BF4141",
"N 	c #B63131",
"O 	c #E68B8B",
"P 	c #E89090",
"Q 	c #E38484",
"R 	c #DE7D7D",
"S 	c #BD3D3D",
"T 	c #B93535",
"U 	c #E99292",
"V 	c #E68C8C",
"W 	c #E28484",
"X 	c #E08080",
"Y 	c #CF6161",
"Z 	c #CB5858",
"` 	c #C95454",
" .	c #C75050",
"..	c #BB3939",
"+.	c #B93636",
"@.	c #DE7C7C",
"#.	c #DC7878",
"$.	c #D46868",
"%.	c #D26464",
"&.	c #CF6060",
"*.	c #C54C4C",
"=.	c #C34848",
"-.	c #B52E2E",
";.	c #DA7474",
">.	c #D87070",
",.	c #D66C6C",
"'.	c #D16464",
").	c #BE4141",
"!.	c #BC3D3D",
"~.	c #BA3939",
"{.	c #B73232",
"].	c #B02525",
"^.	c #C24848",
"/.	c #BE4040",
"(.	c #B83535",
"_.	c #AA1B1B",
":.	c #B93737",
"<.	c #D36868",
"[.	c #C44C4C",
"}.	c #B32B2B",
"|.	c #A51111",
"1.	c #D56C6C",
"2.	c #BC3C3C",
"3.	c #AE2323",
"4.	c #C65050",
"5.	c #BA3838",
"6.	c #B32A2A",
"7.	c #B12727",
"8.	c #A61515",
"9.	c #CF5F5F",
"0.	c #CD5B5B",
"a.	c #CB5757",
"b.	c #C85353",
"c.	c #C64F4F",
"d.	c #C24747",
"e.	c #B42E2E",
"f.	c #AC1E1E",
"g.	c #D16363",
"h.	c #AE2222",
"i.	c #B42F2F",
"j.	c #CA5757",
"k.	c #C04343",
"l.	c #B83434",
"m.	c #A41010",
"n.	c #BE3F3F",
"o.	c #B22A2A",
"p.	c #B32C2C",
"q.	c #BF4242",
"r.	c #BC3B3B",
"s.	c #A61414",
"t.	c #B12828",
"u.	c #B52F2F",
"v.	c #AF2424",
"                                                                ",
"                                                                ",
"                        . . . . . . .                           ",
"                  . . . . . . . . . . . . .                     ",
"                . . . + @ # $ % & * = - . . .                   ",
"            . . . ; > , ' ) ! ~ { ] & ^ / ( . . .               ",
"          . . . _ : < ' ) ! ~ { ] & ^ [ } | 1 . . .             ",
"        . . 2 3 4 < ' ) ! ~ { _ & ^ [ } | 5 6 @ 7 . .           ",
"        . . 3 4 < 8 ) ! ~ { _ 9 ^ [ } | 5 6 0 a b . .           ",
"      . . c 4 < 8 d ! e { _ 9 f [ } | 5 g 0 a h i j . .         ",
"    . . ; 4 < 8 d ! e { _ 9 f [ } | 5 g 0 a k l m n o . .       ",
"    . . p < 8 q ! e { _ 9 f r s t u v w x k l m y z ( . .       ",
"    . + < A q ! e $ _ 9 f r s B u v w x k l m y z C D E .       ",
"  . . @ A q F e $ G 9 f r s B u v w x k l H y z C D I J . .     ",
"  . . } q F e $ G 9 f r K B u v w x k L H y z C D I M N . .     ",
"  . . O F P $ G Q f R K B u v w x k L H y z C D I M S T . .     ",
"  . . U > V c W X R K B u v w x Y L Z `  .C D I M S ..+.. .     ",
"  . . W V c W X @.#.B u v $.%.&.b Z `  .*.=.I M S ..+.-.. .     ",
"  . . / c W X @.#.;.>.,.$.'.&.b Z `  .*.=.( ).!.~.T {.].. .     ",
"  . . y W X @.#.;.>.,.$.'.&.b Z `  .*.^.( /.!.~.(.{.-._.. .     ",
"    . :.X @.#.;.>.,.<.'.&.b Z `  .[.^.( /.!.~.(.{.-.}.|..       ",
"    . . v #.;.>.1.<.'.&.b Z `  .[.^.( /.2.~.(.N -.}.3.. .       ",
"    . . + ;.>.1.<.'.&.b Z ` 4.[.^.( /.2.5.(.N -.6.7.8.. .       ",
"      . . L 1.<.'.9.0.a.b.c.j d.( /.2.5.(.N e.6.7.f.. .         ",
"        . . &.g.9.0.a.b.c.j d.( /.2.5.(.N e.6.7.h.. .           ",
"        . . i.m 0.j.b.c.j d.k./.2.5.l.N o 6.7.h.m.. .           ",
"          . . . ^.b.c.j d.k.n.2.5.l.N o o.7.f.. . .             ",
"            . . . p.q.d.k.n.r.5.l.N o o.3.s.. . .               ",
"                . . . E t.u.l.l.o v._.|.. . .                   ",
"                  . . . . . . . . . . . . .                     ",
"                        . . . . . . .                           ",
"                                                                "};
