/* XPM */
static const char * xpm_recstop[] = {
"32 32 113 2",
"  	c None",
". 	c #D69239",
"+ 	c #EED64E",
"@ 	c #EDD44D",
"# 	c #ECD34C",
"$ 	c #EBD04B",
"% 	c #E9CE4A",
"& 	c #DBB63D",
"* 	c #D8B23B",
"= 	c #D6AF39",
"- 	c #D4AB37",
"; 	c #D2A735",
"> 	c #ECD24C",
", 	c #E8CC48",
"' 	c #D1A735",
") 	c #CFA333",
"! 	c #EAD04B",
"~ 	c #E8CB48",
"{ 	c #E6C947",
"] 	c #D6AE39",
"^ 	c #CD9F31",
"/ 	c #E7CB48",
"( 	c #E4C645",
"_ 	c #D4AA37",
": 	c #CA9B2E",
"< 	c #E6C847",
"[ 	c #E2C344",
"} 	c #D1A635",
"| 	c #CFA332",
"1 	c #CC9F30",
"2 	c #C8972C",
"3 	c #E4C545",
"4 	c #E2C243",
"5 	c #E0BF42",
"6 	c #CFA232",
"7 	c #C5932A",
"8 	c #DEBC40",
"9 	c #CC9E30",
"0 	c #CA9A2E",
"a 	c #C7972C",
"b 	c #C38F28",
"c 	c #DCB83E",
"d 	c #C7962C",
"e 	c #C5922A",
"f 	c #C08B26",
"g 	c #DEBB40",
"h 	c #DAB43C",
"i 	c #C28E28",
"j 	c #BE8724",
"k 	c #E0BF41",
"l 	c #D7B13A",
"m 	c #C08A25",
"n 	c #BE8723",
"o 	c #BB8321",
"p 	c #D9B43C",
"q 	c #D5AD38",
"r 	c #C28E27",
"s 	c #BE8623",
"t 	c #B97F1F",
"u 	c #DBB73E",
"v 	c #D7B03A",
"w 	c #D3A936",
"x 	c #BD8623",
"y 	c #BB8221",
"z 	c #B77B1D",
"A 	c #D5AC38",
"B 	c #D2A936",
"C 	c #D0A534",
"D 	c #B97E1F",
"E 	c #B4771B",
"F 	c #D2A836",
"G 	c #CEA131",
"H 	c #B67B1D",
"I 	c #B27419",
"J 	c #D4AC38",
"K 	c #D2A835",
"L 	c #D0A433",
"M 	c #CB9D2F",
"N 	c #B07017",
"O 	c #CDA031",
"P 	c #C9992D",
"Q 	c #B67A1D",
"R 	c #B27319",
"S 	c #AE6D16",
"T 	c #CB9C2F",
"U 	c #C9982D",
"V 	c #C6952B",
"W 	c #AC6A14",
"X 	c #C8982D",
"Y 	c #C6942B",
"Z 	c #C49029",
"` 	c #AA6712",
" .	c #C18C27",
"..	c #AE6C15",
"+.	c #AC6914",
"@.	c #A96411",
"#.	c #C39028",
"$.	c #C18C26",
"%.	c #BF8824",
"&.	c #AA6612",
"*.	c #A7610F",
"=.	c #C6942A",
"-.	c #BC8422",
";.	c #A86411",
">.	c #A65F0E",
",.	c #BA8020",
"'.	c #A86311",
").	c #A55F0E",
"!.	c #A45D0D",
"~.	c #BE8824",
"{.	c #B87D1E",
"].	c #A45C0D",
"^.	c #A35B0C",
"                                                                ",
"                                                                ",
"                                                                ",
"          . . . . . . . . .       . . . . . . . . .             ",
"          . . . . . . . . .       . . . . . . . . .             ",
"          . . + @ # $ % . .       . . & * = - ; . .             ",
"          . . @ > $ % , . .       . . * = - ' ) . .             ",
"          . . > ! % ~ { . .       . . ] - ' ) ^ . .             ",
"          . . ! % / { ( . .       . . _ ' ) ^ : . .             ",
"          . . % / < ( [ . .       . . } | 1 : 2 . .             ",
"          . . / < 3 4 5 . .       . . 6 1 : 2 7 . .             ",
"          . . < 3 4 5 8 . .       . . 9 0 a 7 b . .             ",
"          . . 3 4 5 8 c . .       . . 0 d e b f . .             ",
"          . . 4 5 g c h . .       . . d e i f j . .             ",
"          . . k g c h l . .       . . e i m n o . .             ",
"          . . g c p l q . .       . . r m s o t . .             ",
"          . . u p v q w . .       . . m x y t z . .             ",
"          . . p v A B C . .       . . x y D z E . .             ",
"          . . v A F C G . .       . . y D H E I . .             ",
"          . . J K L G M . .       . . D H E I N . .             ",
"          . . K L O M P . .       . . Q E R N S . .             ",
"          . . L O T U V . .       . . E R N S W . .             ",
"          . . O T X Y Z . .       . . R N S W ` . .             ",
"          . . T X Y Z  .. .       . . N ..+.` @.. .             ",
"          . . X Y #.$.%.. .       . . ..+.&.@.*.. .             ",
"          . . =.#.$.%.-.. .       . . +.&.;.*.>.. .             ",
"          . . #.$.%.-.,.. .       . . &.'.*.).!.. .             ",
"          . . $.~.-.,.{.. .       . . '.*.).].^.. .             ",
"          . . . . . . . . .       . . . . . . . . .             ",
"          . . . . . . . . .       . . . . . . . . .             ",
"                                                                ",
"                                                                "};
