/* XPM */
static const char * xpm_refresh[] = {
"32 32 573 2",
"  	c None",
". 	c #C8C8CA",
"+ 	c #C5C3C9",
"@ 	c #B2B4B8",
"# 	c #909E97",
"$ 	c #819488",
"% 	c #7E9386",
"& 	c #8C9C93",
"* 	c #C9CCCD",
"= 	c #E6E4E7",
"- 	c #EDEBED",
"; 	c #B9B5BE",
"> 	c #ACAEB0",
", 	c #46835B",
"' 	c #3A7F51",
") 	c #337B4B",
"! 	c #347C4B",
"~ 	c #337C4B",
"{ 	c #347B4A",
"] 	c #377D4C",
"^ 	c #3A7E4D",
"/ 	c #4E855D",
"( 	c #F8F3F9",
"_ 	c #C3C2C7",
": 	c #7E9E89",
"< 	c #3C8352",
"[ 	c #2B7746",
"} 	c #327A4C",
"| 	c #357B4E",
"1 	c #367C4E",
"2 	c #377E4E",
"3 	c #397E4E",
"4 	c #39804E",
"5 	c #3B814E",
"6 	c #3C814E",
"7 	c #3B834E",
"8 	c #2F7C42",
"9 	c #3F794D",
"0 	c #BCC9C0",
"a 	c #FFFFFF",
"b 	c #BBB9BF",
"c 	c #A4ADA9",
"d 	c #4B895F",
"e 	c #2F7A4A",
"f 	c #31794C",
"g 	c #387D4E",
"h 	c #377E4C",
"i 	c #337C47",
"j 	c #337C46",
"k 	c #357D46",
"l 	c #3A814B",
"m 	c #408450",
"n 	c #418550",
"o 	c #428650",
"p 	c #3F854E",
"q 	c #357E45",
"r 	c #9EA8A4",
"s 	c #388050",
"t 	c #2E784A",
"u 	c #347B4E",
"v 	c #377D4D",
"w 	c #357C49",
"x 	c #3E8250",
"y 	c #60986E",
"z 	c #7EA988",
"A 	c #89B091",
"B 	c #86AE8E",
"C 	c #75A57E",
"D 	c #508F5A",
"E 	c #42864D",
"F 	c #458850",
"G 	c #468951",
"H 	c #478951",
"I 	c #3A8146",
"J 	c #719478",
"K 	c #C7C6CA",
"L 	c #AAAFAE",
"M 	c #3B8152",
"N 	c #2E7849",
"O 	c #377C4C",
"P 	c #317B46",
"Q 	c #8FB399",
"R 	c #D6DBD7",
"S 	c #E4E3E4",
"T 	c #E7E5E7",
"U 	c #EAE7E9",
"V 	c #EBE9EB",
"W 	c #EEECEE",
"X 	c #ECECEC",
"Y 	c #BACFBD",
"Z 	c #4A8B50",
"` 	c #498C50",
" .	c #4C8E51",
"..	c #4B8D51",
"+.	c #3D8447",
"@.	c #4D8960",
"#.	c #4B8861",
"$.	c #538D68",
"%.	c #317949",
"&.	c #357C4A",
"*.	c #4A8A5A",
"=.	c #CBD5CE",
"-.	c #EAE5E9",
";.	c #DFDFDF",
">.	c #E2E2E2",
",.	c #E4E4E4",
"'.	c #E9E8E9",
").	c #ECEBEC",
"!.	c #F0EDF0",
"~.	c #F0F0F0",
"{.	c #FBF7FB",
"].	c #E3EAE4",
"^.	c #579457",
"/.	c #4F9150",
"(.	c #509252",
"_.	c #519153",
":.	c #3C8244",
"<.	c #BEBBC2",
"[.	c #8BA193",
"}.	c #267441",
"|.	c #8BAD97",
"1.	c #E3DEE1",
"2.	c #5E946D",
"3.	c #539062",
"4.	c #DADCDB",
"5.	c #DEDEDE",
"6.	c #E0E1E0",
"7.	c #E5E4E5",
"8.	c #F5EFF5",
"9.	c #D1D6D1",
"0.	c #AEBFAE",
"a.	c #91AD91",
"b.	c #93AF92",
"c.	c #BECDBD",
"d.	c #FFFCFF",
"e.	c #DAE4DA",
"f.	c #559553",
"g.	c #579554",
"h.	c #4F9250",
"i.	c #3F7947",
"j.	c #FFFAFF",
"k.	c #B6B3B9",
"l.	c #4A875D",
"m.	c #8FAF99",
"n.	c #D8D6D7",
"o.	c #D8D9D8",
"p.	c #DADBDA",
"q.	c #DADADA",
"r.	c #DDDDDD",
"s.	c #E6E5E6",
"t.	c #C4CEC5",
"u.	c #658F66",
"v.	c #3F7B3F",
"w.	c #448442",
"x.	c #4D8D49",
"y.	c #4F904A",
"z.	c #488842",
"A.	c #71A06D",
"B.	c #D5DED3",
"C.	c #61965A",
"D.	c #5C9C55",
"E.	c #5C9955",
"F.	c #5A9855",
"G.	c #38823B",
"H.	c #FCFBFC",
"I.	c #CBCACD",
"J.	c #8A9B91",
"K.	c #307C49",
"L.	c #297643",
"M.	c #92B19B",
"N.	c #D9D7D9",
"O.	c #D8D7D8",
"P.	c #DAD9DA",
"Q.	c #DBDBDB",
"R.	c #7D9C7E",
"S.	c #488349",
"T.	c #529250",
"U.	c #599754",
"V.	c #5B9A55",
"W.	c #5C9B55",
"X.	c #5F9C55",
"Y.	c #5F9E55",
"Z.	c #5D9C52",
"`.	c #5B9850",
" +	c #5F9C53",
".+	c #619F54",
"++	c #609E54",
"@+	c #5F9D54",
"#+	c #538958",
"$+	c #F8F7FA",
"%+	c #C5C4C9",
"&+	c #689375",
"*+	c #307B4A",
"=+	c #2C7743",
"-+	c #95B49D",
";+	c #DAD8DA",
">+	c #D8D8D8",
",+	c #DCDCDC",
"'+	c #E6E3E5",
")+	c #84A486",
"!+	c #498547",
"~+	c #589855",
"{+	c #5A9854",
"]+	c #5D9B55",
"^+	c #619E55",
"/+	c #62A055",
"(+	c #64A156",
"_+	c #66A156",
":+	c #67A356",
"<+	c #67A256",
"[+	c #64A155",
"}+	c #64A15A",
"|+	c #3D803D",
"1+	c #C0C0C4",
"2+	c #47845A",
"3+	c #367E4D",
"4+	c #2E7942",
"5+	c #96B59F",
"6+	c #D9D9D9",
"7+	c #DEDDDE",
"8+	c #E7E4E7",
"9+	c #87AC86",
"0+	c #53944F",
"a+	c #5B9A54",
"b+	c #5E9C54",
"c+	c #69A457",
"d+	c #6AA557",
"e+	c #6BA658",
"f+	c #6CA658",
"g+	c #6CA858",
"h+	c #6CA758",
"i+	c #6BA558",
"j+	c #6EA85C",
"k+	c #51963C",
"l+	c #1F7319",
"m+	c #C2CBC5",
"n+	c #3D7E50",
"o+	c #397F4E",
"p+	c #307B43",
"q+	c #9AB79F",
"r+	c #DFDCDF",
"s+	c #DCDBDC",
"t+	c #DFDEDF",
"u+	c #E2E1E2",
"v+	c #E3E1E3",
"w+	c #E8E6E8",
"x+	c #6EA369",
"y+	c #5B9B50",
"z+	c #63A055",
"A+	c #67A358",
"B+	c #6AA559",
"C+	c #6CA759",
"D+	c #6FA959",
"E+	c #70AB59",
"F+	c #71AB59",
"G+	c #72AC59",
"H+	c #73AC5A",
"I+	c #70AA57",
"J+	c #529836",
"K+	c #3C8B20",
"L+	c #287B1A",
"M+	c #ADBBAF",
"N+	c #B0B2B4",
"O+	c #3B804F",
"P+	c #3B814F",
"Q+	c #3D834D",
"R+	c #5C9466",
"S+	c #B0C0B2",
"T+	c #BCC7BE",
"U+	c #BEC9BE",
"V+	c #B6C2B6",
"W+	c #BAC5BA",
"X+	c #C7CDC6",
"Y+	c #769A70",
"Z+	c #287A16",
"`+	c #3B8925",
" @	c #4B9333",
".@	c #5A9D40",
"+@	c #5B9E3F",
"@@	c #62A243",
"#@	c #65A444",
"$@	c #66A544",
"%@	c #65A542",
"&@	c #599F34",
"*@	c #4C9624",
"=@	c #4C9626",
"-@	c #499424",
";@	c #469225",
">@	c #2C7E1A",
",@	c #9BAA9D",
"'@	c #3B7F4E",
")@	c #3E824F",
"!@	c #41854F",
"~@	c #43864E",
"{@	c #3B7E42",
"]@	c #27702C",
"^@	c #095C0A",
"/@	c #0B5D07",
"(@	c #126209",
"_@	c #176609",
":@	c #227011",
"<@	c #398723",
"[@	c #3E8B23",
"}@	c #408E22",
"|@	c #3C8C18",
"1@	c #B2CEA5",
"2@	c #CFDFC7",
"3@	c #CBDEC1",
"4@	c #C7DDBB",
"5@	c #C2DAB5",
"6@	c #BED8AF",
"7@	c #B1D29E",
"8@	c #599D2E",
"9@	c #509926",
"0@	c #4D9725",
"a@	c #31821C",
"b@	c #9FAEA1",
"c@	c #C9CACD",
"d@	c #3D7E4E",
"e@	c #3F844F",
"f@	c #448751",
"g@	c #468950",
"h@	c #1C7023",
"i@	c #186E1A",
"j@	c #1F741D",
"k@	c #27791E",
"l@	c #2C7F1F",
"m@	c #328320",
"n@	c #388722",
"o@	c #3D8A23",
"p@	c #438F23",
"q@	c #479324",
"r@	c #489420",
"s@	c #84B268",
"t@	c #FBF6FD",
"u@	c #F5F4F6",
"v@	c #F9F7F9",
"w@	c #FAF9FB",
"x@	c #FDFCFE",
"y@	c #83AD65",
"z@	c #529D20",
"A@	c #529B27",
"B@	c #34841E",
"C@	c #B2BCB4",
"D@	c #E0DFE2",
"E@	c #488456",
"F@	c #418651",
"G@	c #3F854C",
"H@	c #13691E",
"I@	c #156B1A",
"J@	c #1D711C",
"K@	c #23761D",
"L@	c #297B1F",
"M@	c #30801F",
"N@	c #368521",
"O@	c #3C8923",
"P@	c #428F24",
"Q@	c #479225",
"R@	c #529C27",
"S@	c #4E981D",
"T@	c #B5CEA4",
"U@	c #FAF7FB",
"V@	c #F5F5F5",
"W@	c #F9F9F9",
"X@	c #FAFAFA",
"Y@	c #85AC68",
"Z@	c #59A120",
"`@	c #569E27",
" #	c #348320",
".#	c #F0EEF2",
"+#	c #5B8465",
"@#	c #388347",
"##	c #0F651B",
"$#	c #11691A",
"%#	c #196E1C",
"&#	c #26791E",
"*#	c #2C7D1F",
"=#	c #338320",
"-#	c #398722",
";#	c #408D23",
">#	c #469224",
",#	c #4C9625",
"'#	c #529B26",
")#	c #589F29",
"!#	c #529E1C",
"~#	c #B7D4A2",
"{#	c #FCF8FE",
"]#	c #F7F7F7",
"^#	c #FBFBFB",
"/#	c #88AE67",
"(#	c #5EA622",
"_#	c #549E27",
":#	c #3F8332",
"<#	c #C4C3CA",
"[#	c #E4E2E4",
"}#	c #B6BFBA",
"|#	c #00580E",
"1#	c #0C6519",
"2#	c #146A1C",
"3#	c #1B6F1C",
"4#	c #20751C",
"5#	c #24781B",
"6#	c #2D7E1D",
"7#	c #439025",
"8#	c #4A9425",
"9#	c #509A26",
"0#	c #519C21",
"a#	c #58A024",
"b#	c #B6D39E",
"c#	c #FCF8FF",
"d#	c #F4F5F4",
"e#	c #F8F8F8",
"f#	c #FBFBFC",
"g#	c #FCFCFC",
"h#	c #88AF63",
"i#	c #62A924",
"j#	c #44941B",
"k#	c #D9D7DD",
"l#	c #FCF6FD",
"m#	c #2B6B37",
"n#	c #0A6416",
"o#	c #176C1B",
"p#	c #196E18",
"q#	c #52924F",
"r#	c #ACC3A8",
"s#	c #388528",
"t#	c #2A7F12",
"u#	c #39891B",
"v#	c #3E8E1A",
"w#	c #3F8F14",
"x#	c #4A9719",
"y#	c #89BA65",
"z#	c #E1E8DA",
"A#	c #F6F4F8",
"B#	c #F4F4F4",
"C#	c #E6ECE1",
"D#	c #FAFBFA",
"E#	c #86AF5D",
"F#	c #60A824",
"G#	c #2E7E15",
"H#	c #BCBDC0",
"I#	c #D2D1D3",
"J#	c #065F13",
"K#	c #166C1C",
"L#	c #1D731C",
"M#	c #35802D",
"N#	c #DDDBDD",
"O#	c #E3E1E2",
"P#	c #9EBF93",
"Q#	c #7BAD66",
"R#	c #8CB876",
"S#	c #B8D2AB",
"T#	c #E1E7DE",
"U#	c #FCF5FF",
"V#	c #F1F1F1",
"W#	c #F3F3F3",
"X#	c #D9E1CF",
"Y#	c #508813",
"Z#	c #AFCE8C",
"`#	c #7FAA53",
" $	c #4D9A1D",
".$	c #7C9F75",
"+$	c #CEC9D4",
"@$	c #447A4E",
"#$	c #076410",
"$$	c #1E731D",
"%$	c #22771A",
"&$	c #558F4B",
"*$	c #EAE5EB",
"=$	c #E8E5E9",
"-$	c #E7E5E8",
";$	c #EAE8EC",
">$	c #EDEBEE",
",$	c #EEEDEE",
"'$	c #EEEFEE",
")$	c #F1F1F0",
"!$	c #BCCBAA",
"~$	c #5F9522",
"{$	c #78B82B",
"]$	c #75B825",
"^$	c #93BA63",
"/$	c #589229",
"($	c #45892E",
"_$	c #FEF9FE",
":$	c #296B33",
"<$	c #136D16",
"[$	c #26791F",
"}$	c #257A16",
"|$	c #448533",
"1$	c #C4CFC0",
"2$	c #E6E4E6",
"3$	c #EBEAEC",
"4$	c #EFEDEF",
"5$	c #F2F0F3",
"6$	c #F4F3F5",
"7$	c #F4F4F5",
"8$	c #E0E5D9",
"9$	c #85A662",
"0$	c #54920F",
"a$	c #7ABB2D",
"b$	c #7EBE2D",
"c$	c #7EBD2E",
"d$	c #64AB22",
"e$	c #3D881F",
"f$	c #D2D3D7",
"g$	c #2C6D34",
"h$	c #0F6C0F",
"i$	c #2D7D20",
"j$	c #33841E",
"k$	c #37831D",
"l$	c #508B36",
"m$	c #6D9757",
"n$	c #8AA978",
"o$	c #90AD7C",
"p$	c #7A9E5E",
"q$	c #66943D",
"r$	c #5A9621",
"s$	c #6BAC25",
"t$	c #79B92D",
"u$	c #7BBB2D",
"v$	c #64AC25",
"w$	c #448B28",
"x$	c #B3BBB6",
"y$	c #C7C5CC",
"z$	c #538459",
"A$	c #176C16",
"B$	c #277B1A",
"C$	c #3B8923",
"D$	c #449224",
"E$	c #46921F",
"F$	c #469119",
"G$	c #4B9318",
"H$	c #589E21",
"I$	c #66AB29",
"J$	c #6EB22C",
"K$	c #71B22B",
"L$	c #71B42B",
"M$	c #68AD27",
"N$	c #519C20",
"O$	c #508D3D",
"P$	c #BEBFC3",
"Q$	c #C6C4CB",
"R$	c #437A44",
"S$	c #11690A",
"T$	c #277D13",
"U$	c #408E21",
"V$	c #4A9626",
"W$	c #58A028",
"X$	c #5DA428",
"Y$	c #5DA528",
"Z$	c #4F9D1E",
"`$	c #3A8B13",
" %	c #498833",
".%	c #A1B49F",
"+%	c #D6D5D9",
"@%	c #BFC5C1",
"#%	c #729973",
"$%	c #3B7937",
"%%	c #2E7823",
"&%	c #328122",
"*%	c #368423",
"=%	c #378225",
"-%	c #408032",
";%	c #6D9866",
">%	c #D3CDD9",
",%	c #DFDEE1",
"'%	c #FBF9FD",
")%	c #EAE9ED",
"!%	c #D7D6DA",
"~%	c #C5C6C9",
"{%	c #CECDD2",
"]%	c #DDDAE0",
"^%	c #DAD9DD",
"                                                                ",
"                                                                ",
"                    . + @   # $ % &   * = -                     ",
"                  ; >   , ' ) ! ~ { ] ^ /   (                   ",
"              _   : < [ } | 1 2 3 4 5 6 7 8 9 0 a               ",
"            b c d e f | 1 g h i j k l m n o p q   a             ",
"          b r s t u | v w x y z A B C D E F G H I J a           ",
"        K L M N | v O P Q R S T U V W X Y Z `  ...+.  a         ",
"          @.#.$.%.&.*.=.-.;.>.,.'.).!.~.{.].^./.(._.:.          ",
"      <.[.}.|.1.2.3.4.5.5.6.7.8.9.0.a.b.c.d.e.f.g.f.h.i.j.      ",
"      k.l.}.m.n.o.p.q.r.;.s.t.u.v.w.x.y.z.A.B.C.D.E.F.G.  H.    ",
"    I.J.K.L.M.N.O.P.Q.r.T R.S.T.U.V.W.X.Y.Z.`. +.+++@+V.#+$+    ",
"    %+&+*+=+-+;+>+q.,+'+)+!+~+{+]+@+^+/+(+_+:+:+<+<+[+}+|+      ",
"    1+2+3+4+5+;+6+q.7+8+9+0+a+b+^+[+<+c+d+e+f+g+h+i+j+k+l+m+    ",
"      n+o+p+q+r+s+t+u+v+w+x+y+z+A+B+C+D+E+F+G+H+H+I+J+K+L+M+    ",
"    N+O+P+Q+R+S+T+U+V+W+X+Y+Z+`+ @.@+@@@#@$@%@&@*@=@-@;@>@,@    ",
"      '@)@!@~@{@]@^@/@(@_@:@<@[@}@|@1@2@3@4@5@6@7@8@9@0@a@b@    ",
"    c@d@e@f@g@h@i@j@k@l@m@n@o@p@q@r@s@t@u@v@w@x@a y@z@A@B@C@    ",
"    D@E@F@G@H@I@J@K@L@M@N@O@P@Q@0@R@S@T@U@V@W@X@a Y@Z@`@ #      ",
"    .#+#@###$#%#j@&#*#=#-#;#>#,#'#)#!#~#{#]#X@^#a /#(#_#:#<#    ",
"    [#}#|#1#2#3#4#5#6#N@o@7#8#9#0#a#b#c#d#e#f#g#a h#i#j#  k#    ",
"      l#m#n#o#p#q#r#s#t#u#v#w#x#y#z#A#B#]#a C#D#a E#F#G#H#I#    ",
"          J#K#L#M#N#O#P#Q#R#S#T#U#V#W#V@H.X#Y#Z#a `# $.$+$      ",
"        a @$#$$$%$&$*$=$-$;$>$,$'$)$B#a !$~${$]$^$/$($          ",
"          _$:$<$[$}$|$1$2$3$4$5$6$7$8$9$0$a$b$c$d$e$  f$        ",
"              g$h$i$j$k$l$m$n$o$p$q$r$s$t$u$t$v$w$x$y$          ",
"              j.z$A$B$C$D$E$F$G$H$I$J$K$L$M$N$O$P$Q$            ",
"                a   R$S$T$U$V$A@W$X$Y$Z$`$ %.%  +%              ",
"                    a @%#%$%%%&%*%=%-%;%  >%y$                  ",
"                      ,%'%)%!%    ~%{%]%^%                      ",
"                                                                ",
"                                                                "};
