/* XPM */
static const char * xpm_saveas[] = {
"32 32 341 2",
"  	c None",
". 	c #9D6917",
"+ 	c #B79051",
"@ 	c #8F8A7F",
"# 	c #7790AF",
"$ 	c #97ABC5",
"% 	c #A1B3CA",
"& 	c #A1B2CA",
"* 	c #93A7C1",
"= 	c #6A88AF",
"- 	c #9C6816",
"; 	c #F8ECD9",
"> 	c #F6E5C9",
", 	c #8DA3BD",
"' 	c #84A5CB",
") 	c #E0E7F0",
"! 	c #FFFFFF",
"~ 	c #D3DDEA",
"{ 	c #6E93C0",
"] 	c #6C8CB7",
"^ 	c #BB965A",
"/ 	c #F6E3C6",
"( 	c #EFCC95",
"_ 	c #8B9FB4",
": 	c #83A5CB",
"< 	c #D3DDE9",
"[ 	c #638BBA",
"} 	c #6E88AB",
"| 	c #CAAC7E",
"1 	c #F3DBB4",
"2 	c #EFCE9A",
"3 	c #8B9FB5",
"4 	c #D2DCE9",
"5 	c #5F87B7",
"6 	c #7C8CA0",
"7 	c #BA965C",
"8 	c #BA975D",
"9 	c #BA975E",
"0 	c #BA975F",
"a 	c #BA9760",
"b 	c #AA7F3A",
"c 	c #9B6A1B",
"d 	c #CAAD7F",
"e 	c #F3DCB7",
"f 	c #F0D09E",
"g 	c #8BA0B6",
"h 	c #D2DBE9",
"i 	c #5B82B4",
"j 	c #8CA1BC",
"k 	c #F9EDDA",
"l 	c #F9EDDB",
"m 	c #F9EEDD",
"n 	c #F9EFDE",
"o 	c #FAF0E0",
"p 	c #FAF0E1",
"q 	c #FAF1E2",
"r 	c #FAF1E3",
"s 	c #FAF2E5",
"t 	c #FBF3E6",
"u 	c #FCF7EF",
"v 	c #DDCBAD",
"w 	c #F4DDBA",
"x 	c #F0D2A2",
"y 	c #8CA0B7",
"z 	c #83A4CB",
"A 	c #DFE7F0",
"B 	c #D1DAE8",
"C 	c #577DAF",
"D 	c #899CB4",
"E 	c #F5E0BF",
"F 	c #F5E1C2",
"G 	c #F6E2C4",
"H 	c #F6E3C7",
"I 	c #F7E6CB",
"J 	c #F7E7CE",
"K 	c #F7E8D0",
"L 	c #F8E9D3",
"M 	c #F8EBD5",
"N 	c #F9ECD8",
"O 	c #F4EDE2",
"P 	c #F4DFBD",
"Q 	c #F1D4A6",
"R 	c #8CA0B8",
"S 	c #7CA1CB",
"T 	c #9BB2CF",
"U 	c #ACBED6",
"V 	c #ABBED6",
"W 	c #AABCD5",
"X 	c #A9BBD4",
"Y 	c #A8BAD3",
"Z 	c #87A0C3",
"` 	c #4B74A9",
" .	c #889BB3",
"..	c #F6E2C3",
"+.	c #F6E4C8",
"@.	c #F7E7CD",
"#.	c #F8E9D2",
"$.	c #F8EAD5",
"%.	c #F9EBD7",
"&.	c #F9EDD9",
"*.	c #F9EEDC",
"=.	c #F5EEE3",
"-.	c #9D6D20",
";.	c #CAAE80",
">.	c #F4E0C0",
",.	c #F2D6AA",
"'.	c #8BA0B9",
").	c #7AA4D0",
"!.	c #5C89BC",
"~.	c #517BAD",
"{.	c #4E78AB",
"].	c #4B75A8",
"^.	c #4871A5",
"/.	c #4670A5",
"(.	c #4570A7",
"_.	c #426DA5",
":.	c #8799B3",
"<.	c #F7E5CA",
"[.	c #F7E6CC",
"}.	c #F7E8CF",
"|.	c #F8E9D1",
"1.	c #F8EAD4",
"2.	c #F8EBD6",
"3.	c #F9ECD9",
"4.	c #FAEFDE",
"5.	c #F5EEE4",
"6.	c #9D6E21",
"7.	c #CAAE81",
"8.	c #F5E2C3",
"9.	c #F2D8AF",
"0.	c #8AA1B9",
"a.	c #6B92C1",
"b.	c #6383AB",
"c.	c #9AA3A6",
"d.	c #788083",
"e.	c #97A0A3",
"f.	c #9EA7AA",
"g.	c #657E9C",
"h.	c #527EB3",
"i.	c #39649D",
"j.	c #8497B2",
"k.	c #F8E8D1",
"l.	c #F8EAD3",
"m.	c #F6E9D3",
"n.	c #E2CDAC",
"o.	c #DEC8A6",
"p.	c #DFC9A7",
"q.	c #DFCAA9",
"r.	c #DFCBAB",
"s.	c #DBC9AC",
"t.	c #976514",
"u.	c #CAAF82",
"v.	c #F3DAB3",
"w.	c #8AA0B9",
"x.	c #6992C0",
"y.	c #6F8BAC",
"z.	c #767874",
"A.	c #161716",
"B.	c #7F827D",
"C.	c #9FA39C",
"D.	c #6F8192",
"E.	c #5C88BB",
"F.	c #345F98",
"G.	c #8296B1",
"H.	c #F9ECD7",
"I.	c #C5A36B",
"J.	c #B38740",
"K.	c #C7A368",
"L.	c #CDAB74",
"M.	c #CCA971",
"N.	c #CDA972",
"O.	c #C29958",
"P.	c #9E6A17",
"Q.	c #F4DCB7",
"R.	c #899EB7",
"S.	c #6B92BF",
"T.	c #6986A7",
"U.	c #858882",
"V.	c #494A47",
"W.	c #7E807B",
"X.	c #888B85",
"Y.	c #5F7183",
"Z.	c #5A87BA",
"`.	c #2D5893",
" +	c #8195B1",
".+	c #F8EBD7",
"++	c #CFB282",
"@+	c #CDAC77",
"#+	c #F2D8AE",
"$+	c #EDC588",
"%+	c #EBC180",
"&+	c #AC7F36",
"*+	c #CAAF83",
"=+	c #F4DEBB",
"-+	c #C6BCAF",
";+	c #7489A4",
">+	c #7388A3",
",+	c #7E90A3",
"'+	c #7B8CA0",
")+	c #77889E",
"!+	c #73859A",
"~+	c #6C8098",
"{+	c #6D83A2",
"]+	c #697C95",
"^+	c #98876A",
"/+	c #B48E50",
"(+	c #BA9354",
"_+	c #BA9355",
":+	c #AB7D33",
"<+	c #F3DAB2",
"[+	c #E9B96E",
"}+	c #EFCD97",
"|+	c #AA7D34",
"1+	c #F4DFBE",
"2+	c #A78651",
"3+	c #A38657",
"4+	c #C0B097",
"5+	c #C0B29A",
"6+	c #C0B199",
"7+	c #C2B49B",
"8+	c #C5B69E",
"9+	c #DFCEB2",
"0+	c #F0DEC0",
"a+	c #F4E3CA",
"b+	c #EBC280",
"c+	c #EED1A5",
"d+	c #A57529",
"e+	c #CBB084",
"f+	c #F7E9D2",
"g+	c #F3DFC0",
"h+	c #B1843D",
"i+	c #DEC398",
"j+	c #CBB085",
"k+	c #E1C8A0",
"l+	c #C8A773",
"m+	c #E6B86F",
"n+	c #E5B569",
"o+	c #F8ECD8",
"p+	c #CBAA75",
"q+	c #DDC49C",
"r+	c #E1B165",
"s+	c #B38C4D",
"t+	c #CBB086",
"u+	c #B68D4C",
"v+	c #EBD2AB",
"w+	c #DEAD61",
"x+	c #DEB06A",
"y+	c #AB7E36",
"z+	c #CBB186",
"A+	c #B28846",
"B+	c #E4C088",
"C+	c #DAA95C",
"D+	c #D6A352",
"E+	c #D09944",
"F+	c #D1A158",
"G+	c #A7792F",
"H+	c #CBB187",
"I+	c #F5EAD9",
"J+	c #B69052",
"K+	c #D8A85F",
"L+	c #D7A558",
"M+	c #D6A354",
"N+	c #D29E4D",
"O+	c #CD9640",
"P+	c #CB923A",
"Q+	c #C39750",
"R+	c #A77A31",
"S+	c #CBB288",
"T+	c #E1CFB0",
"U+	c #C8A976",
"V+	c #D3A254",
"W+	c #D2A152",
"X+	c #D1A050",
"Y+	c #D09D4D",
"Z+	c #CF9C4B",
"`+	c #CE9A48",
" @	c #CD9845",
".@	c #CC9743",
"+@	c #C9933C",
"@@	c #C89038",
"#@	c #B78C47",
"$@	c #C9AC7D",
"%@	c #D5B787",
"&@	c #D09E50",
"*@	c #D09D4F",
"=@	c #CD9949",
"-@	c #C99541",
";@	c #C6913B",
">@	c #C58E36",
",@	c #C48D35",
"'@	c #CCB289",
")@	c #B58E51",
"!@	c #D8B37A",
"~@	c #CC9A4B",
"{@	c #C89543",
"]@	c #C48E3A",
"^@	c #C18B33",
"/@	c #C08931",
"(@	c #C18B35",
"_@	c #AA7E37",
":@	c #B28B4D",
"<@	c #CA9A4F",
"[@	c #C89647",
"}@	c #C79546",
"|@	c #C4903E",
"1@	c #BF8833",
"2@	c #BD862F",
"3@	c #BF8E40",
"4@	c #AB803C",
"5@	c #C8AD81",
"6@	c #B69155",
"7@	c #C59243",
"8@	c #C18D3B",
"9@	c #BB852E",
"0@	c #BA832B",
"a@	c #B6893E",
"b@	c #B38D50",
"c@	c #BFA06F",
"d@	c #C19D65",
"e@	c #B98430",
"f@	c #B68029",
"g@	c #AE823C",
"h@	c #B59258",
"i@	c #B6873D",
"j@	c #B37D26",
"k@	c #A77B34",
"l@	c #AB813F",
"m@	c #B07C28",
"n@	c #AF7923",
"o@	c #A87E39",
"p@	c #A5772E",
"q@	c #AC7620",
"r@	c #A97420",
"s@	c #AC8341",
"t@	c #96620E",
"u@	c #A6711B",
"v@	c #A8731D",
"w@	c #9A6714",
"x@	c #996718",
"y@	c #A07125",
"z@	c #9F7026",
"      . + @ # $ % % % & & * =                                   ",
"    - ; > , ' ) ! ! ! ! ! ~ { ]                                 ",
"    ^ / ( _ : ) ! ! ! ! ! < [ }                                 ",
"    | 1 2 3 : ) ! ! ! ! ! 4 5 6 7 8 8 9 9 9 9 0 0 a b c         ",
"    d e f g : ) ! ! ! ! ! h i j k l m n o p q r s t u v         ",
"    d w x y z A ! ! ! ! ! B C D E F G H > I J K L M N O         ",
"    d P Q R S T U V W X Y Z `  .../ +.I @.K #.$.%.&.*.=.-.      ",
"    ;.>.,.'.).!.~.{.].^./.(._.:.+.<.[.}.|.1.2.3.l 4.o 5.6.      ",
"    7.8.9.0.a.b.c.d.e.f.g.h.i.j.[.J k.l.2.m.n.o.p.q.r.s.t.      ",
"    u./ v.w.x.y.z.A.B.C.D.E.F.G.K #.$.H.I.J.K.L.L.L.L.L.M.N.O.P.",
"    u.> Q.R.S.T.U.V.W.X.Y.Z.`. +1..+3.++@+#+$+%+%+%+%+%+%+%+#+&+",
"    *+[.=+-+;+>+,+'+)+!+~+{+]+^+/+(+_+:+<+[+[+[+[+[+[+[+[+[+}+|+",
"    *+}.1+2+3+4+5+6+6+6+6+5+7+8+9+0+0+a+b+[+[+[+[+[+[+[+[+[+c+d+",
"    e+f+g+h+,.[+[+[+[+[+[+[+[+[+[+[+[+[+[+[+[+[+[+[+[+[+[+[+i+  ",
"    j+$.k+l+m+n+n+n+n+n+n+n+n+n+n+n+n+n+n+n+n+n+n+n+n+n+n+n+l+  ",
"    j+o+p+q+r+r+r+r+r+r+r+r+r+r+r+r+r+r+r+r+r+r+r+r+r+r+r+r+s+  ",
"    t+l u+v+w+w+w+w+w+w+w+w+w+w+w+w+w+w+w+w+w+w+w+w+w+w+w+x+y+  ",
"    z+n A+B+C+C+C+C+C+C+C+C+C+C+C+C+C+C+C+C+C+C+C+C+C+D+E+F+G+  ",
"    H+I+J+K+L+L+L+L+L+L+L+L+L+L+L+L+L+L+L+L+L+L+M+N+O+P+P+Q+R+  ",
"    S+T+U+V+V+V+V+V+V+V+V+V+V+V+W+X+Y+Z+`+ @.@+@@@@@@@@@@@#@    ",
"    S+$@%@&@&@&@&@&@&@*@=@-@;@>@,@,@,@,@,@,@,@,@,@,@,@,@,@y+    ",
"    '@)@!@~@~@~@~@{@]@^@/@/@/@/@/@/@/@/@/@/@/@/@/@/@/@/@(@_@    ",
"    '@:@<@[@}@|@1@2@2@2@2@2@2@2@2@2@2@2@2@2@2@2@2@2@2@2@3@4@    ",
"    5@6@7@8@9@0@0@0@0@0@0@0@0@0@0@0@0@0@0@0@0@0@0@0@0@0@a@b@    ",
"    c@d@e@f@f@f@f@f@f@f@f@f@f@f@f@f@f@f@f@f@f@f@f@f@f@f@g@      ",
"    h@i@j@j@j@j@j@j@j@j@j@j@j@j@j@j@j@j@j@j@j@j@j@j@j@j@k@      ",
"    l@m@n@n@n@n@n@n@n@n@n@n@n@n@n@n@n@n@n@n@n@n@n@n@n@n@o@      ",
"    p@q@q@q@q@q@q@q@q@q@q@q@q@q@q@q@q@q@q@q@q@q@q@q@q@r@s@      ",
"    t@u@v@v@v@v@v@v@v@v@v@v@v@v@v@v@v@v@v@v@v@v@v@v@u@w@        ",
"      x@y@y@y@y@y@y@y@y@y@y@y@y@y@y@y@y@y@y@y@y@y@y@z@          ",
"                                                                ",
"                                                                "};
