/* XPM */
static const char * xpm_scisors[] = {
"14 19 2 1",
" 	c None",
".	c #000000",
"              ",
"  .        .  ",
" ..       ... ",
" ...      ... ",
"  ...    ...  ",
"  ...    ...  ",
"   ...  ...   ",
"    ..  ..    ",
"    ......    ",
"     ....     ",
"     ....     ",
"      ..      ",
"     ....     ",
"  ....  ....  ",
" .  ..  ..  . ",
" .  .    .  . ",
" .  .    .  . ",
" ...      ... ",
"              "};
