/* XPM */
static const char * xpm_special_point[] = {
"32 32 125 2",
"  	c None",
". 	c #23540B",
"+ 	c #348429",
"@ 	c #214F08",
"# 	c #204D07",
"$ 	c #53D75E",
"% 	c #4DC853",
"& 	c #327D25",
"* 	c #52D55C",
"= 	c #54DB60",
"- 	c #52D85E",
"; 	c #47BA4C",
"> 	c #2C6F1D",
", 	c #51D35B",
"' 	c #51D55C",
") 	c #4FD25B",
"! 	c #4ECF59",
"~ 	c #40A941",
"{ 	c #286516",
"] 	c #4FD059",
"^ 	c #4ECE59",
"/ 	c #4CCB57",
"( 	c #4AC754",
"_ 	c #48C352",
": 	c #399837",
"< 	c #255D11",
"[ 	c #4ECD57",
"} 	c #4FD25A",
"| 	c #4DCE58",
"1 	c #4CCB56",
"2 	c #46BF50",
"3 	c #44BB4D",
"4 	c #42B64A",
"5 	c #338A2F",
"6 	c #23560D",
"7 	c #4CC955",
"8 	c #42B74B",
"9 	c #40B348",
"0 	c #3EAE46",
"a 	c #3BA741",
"b 	c #2E7C26",
"c 	c #21520A",
"d 	c #4AC653",
"e 	c #4CCA56",
"f 	c #40B248",
"g 	c #3CAA43",
"h 	c #3AA541",
"i 	c #37A13E",
"j 	c #349638",
"k 	c #296F1E",
"l 	c #215009",
"m 	c #48C351",
"n 	c #4AC654",
"o 	c #46BF4F",
"p 	c #42B64B",
"q 	c #3CA943",
"r 	c #39A541",
"s 	c #359C3C",
"t 	c #339839",
"u 	c #308D32",
"v 	c #276A1B",
"w 	c #48BF4F",
"x 	c #48C252",
"y 	c #46BE4F",
"z 	c #44BA4D",
"A 	c #3BA943",
"B 	c #39A540",
"C 	c #37A03E",
"D 	c #359C3B",
"E 	c #2E852C",
"F 	c #266517",
"G 	c #204F08",
"H 	c #46BB4D",
"I 	c #3DAD45",
"J 	c #359939",
"K 	c #2B7823",
"L 	c #23570E",
"M 	c #44B74B",
"N 	c #41B64A",
"O 	c #3FB148",
"P 	c #338D31",
"Q 	c #28691A",
"R 	c #41B449",
"S 	c #41B54A",
"T 	c #3BA540",
"U 	c #2E7D27",
"V 	c #23580E",
"W 	c #2A6D1B",
"X 	c #204E08",
"Y 	c #3FB147",
"Z 	c #3DAC45",
"` 	c #3BA842",
" .	c #39A340",
"..	c #38A33F",
"+.	c #369F3D",
"@.	c #369E3D",
"#.	c #349A3A",
"$.	c #329538",
"%.	c #329537",
"&.	c #2F9135",
"*.	c #2F9035",
"=.	c #2D8C32",
"-.	c #2B8730",
";.	c #2B872F",
">.	c #29832D",
",.	c #277F2A",
"'.	c #277E2A",
").	c #257A28",
"!.	c #2F8F34",
"~.	c #2D8B32",
"{.	c #29822D",
"].	c #237626",
"^.	c #217223",
"/.	c #1F6F21",
"(.	c #1D6B1F",
"_.	c #1C681D",
":.	c #1A651B",
"<.	c #2D8B31",
"[.	c #2A862F",
"}.	c #28822C",
"|.	c #267E2A",
"1.	c #247A28",
"2.	c #237625",
"3.	c #1A641B",
"4.	c #19611A",
"                                                                ",
"                    . + @                                       ",
"                    # $ % & #                                   ",
"                    # * = - ; > #                               ",
"                    # , - ' ) ! ~ { #                           ",
"                    # ] ' ) ^ / ( _ : < #                       ",
"                    # [ } | 1 ( _ 2 3 4 5 6 #                   ",
"                    # 7 | 1 ( _ 2 3 8 9 0 a b c #               ",
"                    # d e ( _ 2 3 8 f 0 g h i j k l             ",
"                    # m n _ o 3 p f 0 q r i s t u v             ",
"                    # w x y z 4 f 0 A B C D E F G #             ",
"                    # H y z 4 f I A B J K L #                   ",
"                    # M z N O I A P Q G #                       ",
"                    # R S O T U V #                             ",
"                    # S O W X #                                 ",
"                    # Y Z #                                     ",
"                    # Z ` #                                     ",
"                    # `  .#                                     ",
"                    # ..+.#                                     ",
"                    # @.#.#                                     ",
"                    # #.$.#                                     ",
"                    # %.&.#                                     ",
"                    # *.=.#                                     ",
"                    # =.-.#                                     ",
"                    # ;.>.#                                     ",
"                    # >.,.#                                     ",
"          # # # # # # '.).# # # # # #                           ",
"          # !.~.;.{.'.).].^./.(._.:.#                           ",
"          # <.[.}.|.1.2.^./.(._.3.4.#                           ",
"          # # # # # # # # # # # # # #                           ",
"                                                                ",
"                                                                "};
