/* XPM */
static const char * xpm_step[] = {
"16 16 3 1",
"a c #000000008080",
"b c None",
"c c #00000000ffff",
"bbbbbbbbbbbbbbbb",
"bbbbbbbbbbbbbbbb",
"bbbbbbbbbbbbbbbb",
"bbbaabbbbbbbaabb",
"bbbccaabbbbbccbb",
"bbbccccaabbbccbb",
"bbbccccccaabccbb",
"bbbcccccccccccbb",
"bbbcccccccccccbb",
"bbbccccccaabccbb",
"bbbccccaabbbccbb",
"bbbccaabbbbbccbb",
"bbbaabbbbbbbaabb",
"bbbbbbbbbbbbbbbb",
"bbbbbbbbbbbbbbbb",
"bbbbbbbbbbbbbbbb"
};
