/* XPM */
static const char * xpm_stop[] = {
"16 16 3 1",
"a c #000000008080",
"b c None",
"c c #00000000ffff",
"bbbbbbbbbbbbbbbb",
"bbbbbbbbbbbbbbbb",
"bbbbbbbbbbbbbbbb",
"bbbccccbbccccbbb",
"bbbcccabbcccabbb",
"bbbcccabbcccabbb",
"bbbcccabbcccabbb",
"bbbcccabbcccabbb",
"bbbcccabbcccabbb",
"bbbcccabbcccabbb",
"bbbcccabbcccabbb",
"bbbcccabbcccabbb",
"bbbcaaabbcaaabbb",
"bbbbbbbbbbbbbbbb",
"bbbbbbbbbbbbbbbb",
"bbbbbbbbbbbbbbbb"
};
