/* XPM */
static const char * xpm_threed[] = {
"32 32 252 2",
"  	c None",
". 	c #710000",
"+ 	c #750606",
"@ 	c #821616",
"# 	c #9E3A3A",
"$ 	c #C87171",
"% 	c #D47E7E",
"& 	c #B25252",
"* 	c #902727",
"= 	c #7C0D0D",
"- 	c #730202",
"; 	c #8C2424",
"> 	c #B35656",
", 	c #CB7575",
"' 	c #DB8787",
") 	c #DB8686",
"! 	c #CE7373",
"~ 	c #BD5D5D",
"{ 	c #9E3737",
"] 	c #871D1D",
"^ 	c #A84848",
"/ 	c #C77171",
"( 	c #DE8E8E",
"_ 	c #DE8B8B",
": 	c #D88080",
"< 	c #D57A7A",
"[ 	c #D17474",
"} 	c #C66565",
"| 	c #AA4242",
"1 	c #902323",
"2 	c #7B0B0B",
"3 	c #821717",
"4 	c #9B3737",
"5 	c #C26B6B",
"6 	c #E19292",
"7 	c #E19191",
"8 	c #CE6E6E",
"9 	c #CB6868",
"0 	c #C86262",
"a 	c #BC5252",
"b 	c #A03232",
"c 	c #851515",
"d 	c #770606",
"e 	c #720101",
"f 	c #7E1111",
"g 	c #912B2B",
"h 	c #BA6161",
"i 	c #DB8C8C",
"j 	c #E39595",
"k 	c #C45B5B",
"l 	c #C15555",
"m 	c #BC4D4D",
"n 	c #AB3A3A",
"o 	c #932121",
"p 	c #820F0F",
"q 	c #750404",
"r 	c #770808",
"s 	c #8F2828",
"t 	c #B85F5F",
"u 	c #D78787",
"v 	c #E39696",
"w 	c #BE4F4F",
"x 	c #BA4949",
"y 	c #B74343",
"z 	c #B03939",
"A 	c #A32C2C",
"B 	c #8B1616",
"C 	c #7D0909",
"D 	c #9B3838",
"E 	c #D78989",
"F 	c #E79D9D",
"G 	c #E69A9A",
"H 	c #B43D3D",
"I 	c #B13838",
"J 	c #AE3232",
"K 	c #A92C2C",
"L 	c #9C1F1F",
"M 	c #673A22",
"N 	c #C36D6D",
"O 	c #AC2E2E",
"P 	c #A22424",
"Q 	c #8F1515",
"R 	c #3A0E28",
"S 	c #25460B",
"T 	c #37862F",
"U 	c #2A450D",
"V 	c #5D4021",
"W 	c #BA5E5E",
"X 	c #D17B7B",
"Y 	c #A12626",
"Z 	c #931919",
"` 	c #46132B",
" .	c #141844",
"..	c #233D79",
"+.	c #0C1A49",
"@.	c #22490C",
"#.	c #58E465",
"$.	c #54D85E",
"%.	c #604324",
"&.	c #BC5D5D",
"*.	c #CE7171",
"=.	c #A72C2C",
"-.	c #991F1F",
";.	c #47142C",
">.	c #253E7B",
",.	c #426BB8",
"'.	c #446FBA",
").	c #387B3E",
"!.	c #1E271F",
"~.	c #213323",
"{.	c #254422",
"].	c #273C10",
"^.	c #5F4021",
"/.	c #BF5C5C",
"(.	c #AE3535",
"_.	c #9E2525",
":.	c #48162E",
"<.	c #151944",
"[.	c #243869",
"}.	c #314771",
"|.	c #324973",
"1.	c #426AB1",
"2.	c #406BB3",
"3.	c #43A14C",
"4.	c #666666",
"5.	c #F0F0F0",
"6.	c #E0E0E0",
"7.	c #A3A3A3",
"8.	c #484848",
"9.	c #21341E",
"0.	c #253812",
"a.	c #614021",
"b.	c #B44949",
"c.	c #C05454",
"d.	c #B33C3C",
"e.	c #4B1930",
"f.	c #16193E",
"g.	c #202C4A",
"h.	c #202631",
"i.	c #858585",
"j.	c #2A3B59",
"k.	c #3B63A4",
"l.	c #2F5D33",
"m.	c #B3B3B3",
"n.	c #FFFFFF",
"o.	c #C2C2C2",
"p.	c #244620",
"q.	c #2A460D",
"r.	c #623F20",
"s.	c #AF3E3E",
"t.	c #B64242",
"u.	c #A93333",
"v.	c #501D35",
"w.	c #171933",
"x.	c #1E2536",
"y.	c #393939",
"z.	c #949494",
"A.	c #2B4164",
"B.	c #2A4F2D",
"C.	c #D1D1D1",
"D.	c #2A5C2C",
"E.	c #2B6D21",
"F.	c #2B460E",
"G.	c #3D3825",
"H.	c #171A46",
"I.	c #202B46",
"J.	c #767676",
"K.	c #293F60",
"L.	c #419C49",
"M.	c #1A1A1A",
"N.	c #292929",
"O.	c #34943A",
"P.	c #319035",
"Q.	c #214510",
"R.	c #4E7AD1",
"S.	c #273C5C",
"T.	c #52D85E",
"U.	c #3B8B42",
"V.	c #243E26",
"W.	c #28642C",
"X.	c #2E8E34",
"Y.	c #527FD8",
"Z.	c #575757",
"`.	c #253A58",
" +	c #50D35B",
".+	c #4DCD58",
"++	c #4AC754",
"@+	c #2D5F31",
"#+	c #255828",
"$+	c #2B872F",
"%+	c #507CD3",
"&+	c #233854",
"*+	c #47B750",
"=+	c #306B35",
"-+	c #357E3B",
";+	c #235425",
">+	c #27802B",
",+	c #4D79CD",
"'+	c #213650",
")+	c #26792A",
"!+	c #247927",
"~+	c #4A76C7",
"{+	c #1F344D",
"]+	c #264729",
"^+	c #237326",
"/+	c #217324",
"(+	c #4772C1",
"_+	c #1E3249",
":+	c #254528",
"<+	c #1E491F",
"[+	c #1E6D20",
"}+	c #1C3046",
"|+	c #2E6C33",
"1+	c #1C411D",
"2+	c #1B671D",
"3+	c #1B2F43",
"4+	c #2F772B",
"5+	c #1A2F1B",
"6+	c #19621A",
"7+	c #3D67AC",
"8+	c #152D50",
"9+	c #1F3415",
"0+	c #1A371A",
"a+	c #175D17",
"b+	c #3963A4",
"c+	c #151B2E",
"d+	c #1D2B15",
"e+	c #183E18",
"f+	c #155915",
"g+	c #365F9D",
"h+	c #151A2B",
"i+	c #1C2816",
"j+	c #193619",
"k+	c #155615",
"l+	c #135613",
"m+	c #325A96",
"n+	c #181A21",
"o+	c #141A2D",
"p+	c #1D2D14",
"q+	c #1C2A16",
"r+	c #1B3916",
"s+	c #2E568E",
"t+	c #213147",
"u+	c #161B2B",
"v+	c #121A34",
"w+	c #214A0D",
"x+	c #195110",
"y+	c #2B5287",
"z+	c #1C3766",
"A+	c #141C35",
"B+	c #0F1A3F",
"C+	c #1C3B1E",
"                                                                ",
"                              . . .                             ",
"                        + @ # $ % & * = -                       ",
"                        ; > , ' ) ! ~ { =                       ",
"                    ] ^ / ( _ ) : < [ } | 1 2                   ",
"                3 4 5 6 7 _ ) : < [ 8 9 0 a b c d               ",
"          e f g h i j 7 _ ) : < [ 8 9 0 k l m n o p q           ",
"        r s t u v j 7 _ ) : < [ 8 9 0 k l w x y z A B C         ",
"        D E F G j 7 _ ) : < [ 8 9 0 k l w x y H I J K L .       ",
"        M N u j 7 _ ) : < [ 8 9 0 k l w x y H I J O P Q R       ",
"      S T U V W X ) : < [ 8 9 0 k l w x y H I J Y Z `  ...+.    ",
"      @.#.$.T U %.&.*.[ 8 9 0 k l w x y H I =.-.;. .>.,.'.+.    ",
"      @.#.).!.~.{.].^./.9 0 k l w x y H (._.:.<.[.}.|.1.2.+.    ",
"      @.3.4.5.6.7.8.9.0.a.b.c.w x y d.A e.f.g.h.8.i.i.j.k.+.    ",
"      @.l.m.n.n.n.n.o.8.p.q.r.s.t.u.v.w.x.y.z.6.n.n.n.i.A.+.    ",
"      @.B.o.n.n.n.C.n.5.4.D.E.F.G.H.I.J.o.n.n.n.n.n.n.i.K.+.    ",
"      @.L.4.C.n.o.M.n.n.5.N.O.P.Q.R.M.n.n.n.6.z.n.n.n.i.S.+.    ",
"      @.T.U.V.8.i.M.n.n.n.J.W.X.@.Y.M.n.n.n.o.Z.n.n.n.i.`.+.    ",
"      @. +.+++@+i.8.n.n.n.i.#+$+@.%+M.n.n.n.o.Z.n.n.n.i.&++.    ",
"      @.*+=+-+M.n.n.n.n.n.i.;+>+@.,+M.n.n.n.o.Z.n.n.n.i.'++.    ",
"      @.=+z.J.N.i.5.n.n.7.N.)+!+@.~+M.n.n.n.o.Z.n.n.n.i.{++.    ",
"      @.]+o.n.5.i.y.n.n.5.N.^+/+@.(+M.n.n.n.o.Z.n.n.n.i._++.    ",
"      @.:+o.n.n.o.M.n.n.n.i.<+[+@.'.M.n.n.n.o.Z.n.n.n.i.}++.    ",
"      @.|+i.n.n.o.M.n.n.n.z.1+2+@.2.M.n.n.n.o.Z.n.n.n.i.3++.    ",
"      @.4+y.5.n.6.M.n.n.n.o.5+6+@.7+M.n.n.n.o.i.n.n.n.y.8++.    ",
"        @.9+8.5.n.6.n.n.n.7.0+a+@.b+M.n.n.n.n.n.n.5.4.c++.      ",
"            d+y.7.n.n.n.n.i.e+f+@.g+M.n.n.n.n.6.i.N.h+          ",
"                i+y.i.m.i.j+k+l+@.m+M.n.n.m.4.n+o+              ",
"                    p+q+r+k+l+l+@.s+t+i.y.u+v+                  ",
"                        @.w+x+l+@.y+z+A+B+                      ",
"                            @.@.C++.+.                          ",
"                                                                "};
