/* XPM */
static const char* xpm_tickoff[]={
"8 8 3 1",
"# c #000000",
"a c #a2a2a2",
". c None",
"........",
"...##...",
"..#aa#..",
".#aaaa#.",
".#aaaa#.",
"..#aa#..",
"...##...",
"........"};
