/* XPM */
static const char* xpm_visionsurfaces[]={
"16 16 7 1",
"# c #5555c8",
"b c #838079",
"a c #8d8de1",
". c None",
"c c #efefef",
"d c #ff0000",
"e c #ffffff",
"................",
".....######.....",
"...##########...",
"..############..",
".#####aaaa#####.",
"####aaaaaaaa####",
".##aaaaaaaaaa##b",
"..aaaaaaaaaaaabb",
"...aaaccccaaabb.",
"....ccccccccbb..",
".....ccccccbb...",
"......ccccbb....",
".......ccbb.....",
"......dddd......",
"......deed......",
"......dddd......"};
