/* XPM */
static const char * xpm_analyse_create[] = {
"64 64 257 2",
"  	c None",
". 	c #737590",
"+ 	c #C4C6D6",
"@ 	c #34A72B",
"# 	c #ADD8AA",
"$ 	c #7C84BA",
"% 	c #868DC0",
"& 	c #A46069",
"* 	c #A7B4DA",
"= 	c #15261B",
"- 	c #B56E8E",
"; 	c #AF8EB2",
"> 	c #9A9EB5",
", 	c #B5B4B8",
"' 	c #F02A31",
") 	c #8D8E96",
"! 	c #089ABB",
"~ 	c #838ABE",
"{ 	c #D05066",
"] 	c #FDFDFE",
"^ 	c #9BA1CC",
"/ 	c #BFC3D2",
"( 	c #A1A4CC",
"_ 	c #D9D9D9",
": 	c #ED4C54",
"< 	c #C9CCE4",
"[ 	c #6D868A",
"} 	c #007794",
"| 	c #C6C7CD",
"1 	c #B4BAE0",
"2 	c #52ADD0",
"3 	c #D6D8EA",
"4 	c #969BC8",
"5 	c #558F6E",
"6 	c #DCDEED",
"7 	c #00A4CB",
"8 	c #CFA4B7",
"9 	c #EDEEF5",
"0 	c #2A313A",
"a 	c #E5E6F2",
"b 	c #E33945",
"c 	c #B3CCE9",
"d 	c #49A64D",
"e 	c #C6C9E1",
"f 	c #696A7D",
"g 	c #C3C6E1",
"h 	c #E9EAF4",
"i 	c #E96D77",
"j 	c #85A4A7",
"k 	c #F3F3F7",
"l 	c #65B8CC",
"m 	c #A2A2A3",
"n 	c #D7B9CA",
"o 	c #D298AC",
"p 	c #797CBC",
"q 	c #9196C5",
"r 	c #D2E3F7",
"s 	c #B5B9D9",
"t 	c #4A9258",
"u 	c #E47A86",
"v 	c #BBBDC7",
"w 	c #8C90BC",
"x 	c #4D5154",
"y 	c #CDD5EA",
"z 	c #E3E3E3",
"A 	c #9398C6",
"B 	c #3BAFD0",
"C 	c #2FA324",
"D 	c #989ECA",
"E 	c #517886",
"F 	c #CBDBF1",
"G 	c #BABFDE",
"H 	c #A2A9D3",
"I 	c #AFAEAF",
"J 	c #D4C4D7",
"K 	c #3A6B34",
"L 	c #CE4356",
"M 	c #797F9E",
"N 	c #EBF3FA",
"O 	c #0693B7",
"P 	c #6BBA65",
"Q 	c #F6F6F9",
"R 	c #85A999",
"S 	c #91B5D4",
"T 	c #74AD83",
"U 	c #4D8FBE",
"V 	c #F0F1F7",
"W 	c #5D6476",
"X 	c #329AC4",
"Y 	c #D3D5E9",
"Z 	c #DBDDEC",
"` 	c #6D8FC1",
" .	c #545172",
"..	c #9DA3D1",
"+.	c #25701F",
"@.	c #E1E2F0",
"#.	c #D4DEF1",
"$.	c #27851E",
"%.	c #3F7BA2",
"&.	c #8482A6",
"*.	c #D5CDE1",
"=.	c #7D7A78",
"-.	c #8E95C6",
";.	c #D9DBEC",
">.	c #339E26",
",.	c #01A0C6",
"'.	c #898FC2",
").	c #8AA6D8",
"!.	c #0087A9",
"~.	c #91A3D4",
"{.	c #194E15",
"].	c #4999C2",
"^.	c #35A22D",
"/.	c #CCD0E5",
"(.	c #C25F79",
"_.	c #E38793",
":.	c #ABAFD3",
"<.	c #B2B5DB",
"[.	c #1CA3C9",
"}.	c #E7E8F3",
"|.	c #00AAD2",
"1.	c #3A90C0",
"2.	c #E6F3E5",
"3.	c #E3E4F1",
"4.	c #2E516D",
"5.	c #DEDFEE",
"6.	c #ECEDFA",
"7.	c #8087BC",
"8.	c #FE0607",
"9.	c #44A73E",
"0.	c #D1D3E7",
"a.	c #A4ABD8",
"b.	c #F2FAFC",
"c.	c #9BAAD5",
"d.	c #CFCFD1",
"e.	c #AFB3D6",
"f.	c #ACABAA",
"g.	c #D7D9EB",
"h.	c #7A96A4",
"i.	c #AD7FA4",
"j.	c #5C81B7",
"k.	c #7981B8",
"l.	c #3B9D37",
"m.	c #E0E1EF",
"n.	c #A1A5D0",
"o.	c #AAAFD9",
"p.	c #3C3E4E",
"q.	c #888EBC",
"r.	c #EA5F69",
"s.	c #94A0CF",
"t.	c #1E6415",
"u.	c #527451",
"v.	c #7DB6D6",
"w.	c #033743",
"x.	c #59A465",
"y.	c #5E8585",
"z.	c #1E98C0",
"A.	c #9193CD",
"B.	c #A89CC5",
"C.	c #9E8DB6",
"D.	c #2F9826",
"E.	c #969AD2",
"F.	c #C1BCDB",
"G.	c #3A8939",
"H.	c #9EB0DA",
"I.	c #B6ABCA",
"J.	c #8C9CCC",
"K.	c #6A84A2",
"L.	c #ECECEC",
"M.	c #CEDFF4",
"N.	c #075160",
"O.	c #8F94C2",
"P.	c #F7F7FD",
"Q.	c #CED8EE",
"R.	c #0D9FC6",
"S.	c #5E6BA3",
"T.	c #8C92C0",
"U.	c #E6A9B8",
"V.	c #8E90C8",
"W.	c #859CCF",
"X.	c #E5E7F6",
"Y.	c #8A92C3",
"Z.	c #8095C6",
"`.	c #F2F2FC",
" +	c #31472D",
".+	c #D2ACC0",
"++	c #B4B8CE",
"@+	c #95A7D5",
"#+	c #BD83A1",
"$+	c #2B7D20",
"%+	c #10A2C9",
"&+	c #B1AFD3",
"*+	c #EAEAF2",
"=+	c #E3E4F6",
"-+	c #8F8AAA",
";+	c #C6D3EB",
">+	c #6C77AE",
",+	c #DEDAEB",
"'+	c #E12F3D",
")+	c #BBB8D9",
"!+	c #DE97A5",
"~+	c #CED0E9",
"{+	c #6F707E",
"]+	c #DADCEA",
"^+	c #F8F9FA",
"/+	c #777FB5",
"(+	c #EB1D23",
"_+	c #8897CB",
":+	c #419B45",
"<+	c #006984",
"[+	c #00A7CF",
"}+	c #679983",
"|+	c #DCDAEC",
"1+	c #E0DBEC",
"2+	c #37AC2E",
"3+	c #C4C9E6",
"4+	c #DE909F",
"5+	c #20BCE0",
"6+	c #E2E3F4",
"7+	c #83C57E",
"8+	c #DAF1F7",
"9+	c #AFAFB0",
"0+	c #0081A0",
"a+	c #B2BCB1",
"b+	c #12A494",
"c+	c #86D3E5",
"d+	c #357182",
"e+	c #8298C3",
"f+	c #4DBED9",
"g+	c #77A2CE",
"h+	c #EBEBF4",
"i+	c #B0B0B0",
"j+	c #9092B0",
"k+	c #647315",
"l+	c #1C783F",
"m+	c #9598B0",
"n+	c #A7AAA7",
"o+	c #9A5D32",
"p+	c #127D5B",
"q+	c #8D8DC1",
"r+	c #A4A4D5",
"s+	c #596094",
"t+	c #7F85AA",
"u+	c #619CC3",
"v+	c #8A86B2",
"w+	c #9BB4BB",
"x+	c #7F89B1",
"y+	c #F3F4F9",
"z+	c #8C93C4",
"A+	c #A6789E",
"B+	c #7382AC",
"C+	c #008EB0",
"D+	c #1F8BB3",
"E+	c #77706C",
"F+	c #ADB4AD",
"G+	c #96A9CD",
"H+	c #FFFFFF",
"              _ m m m m m m m m m m m m m m m m m m m m m m m m m m m m m m m m m m d.                                          ",
"              f.d._ d.d.d.d.d.d.d.d.| d.| | | | | | / | / v / v v v v v v v v ++v ++x z                                         ",
"              i+] ] ] ] ] ] ] ] ] ] P.P.P.P.P.y+`.`.`.6.V 9 6.6.6.h X.X.X.=+6+@.a *.M f L.                                      ",
"              i+^+] ^+P.P.Q Q y+y+k V V 9 9 9 h+h h }.a a 3.3.@.@.m.m.5.6 Z ]+;.Z + M n.f _                                     ",
"              i+Q ] ^+P.Q Q y+y+k V V 9 9 9 h+h h }.a a 3.3.@.@.m.m.5.6 Z ]+;.g.;.+ M a.<.{+L.                                  ",
"              i+Q ^+P.Q Q y+y+V V V 9 9 9 h+h h }.a a 3.3.@.@.m.5.5.6 Z ]+;.g.g.;.+ M n.e.s f ^+                                ",
"              i+Q ^+Q Q y+y+k V V 9 9 9 h+h h }.a a 3.3.@.@.m.m.5.6 Z ]+;.g.g.3 ;./ M H :.G ++=.L.                              ",
"              i+y+P.Q y+y+k V V 9 9 9 h+h h }.a a 3.3.@.@.m.m.5.6 Z ]+;.g.g.3 3 3 / M H :.s 3+e =.Q                             ",
"              i+k P.y+y+V V V 9 9 9 h+h h }.a a 3.3.@.@.m.5.5.6 Z ]+;.g.g.3 3 Y 3 / M H :.s G Y + =.                            ",
"              i+k Q y+k V V 9 9 9 h+h h }.a a 3.3.@.@.m.m.5.6 Z ]+;.g.g.3 3 Y Y 3 / M H e.G g ~+=+/.=.k                         ",
"              i+V Q k V V 9 9 9 h+h h }.a a 3.3.@.@.m.5.5.6 Z ]+;.g.g.3 g.M.3 Q.#.++. A > ( :.++/ 0., ) Q                       ",
"              i+V y+V V 9 9 9 h+h h }.a a 3.3.@.@.m.5.5.6 Z ]+;.g.g.g.r *.u ' ' r.o . . ) ) ) ) ) ) m+f n+                      ",
"              i+9 y+V 9 9 9 h+h h }.a a 3.3.@.@.m.m.5.6 Z ]+;.g.3 #.#.u : i !+.+: _.r Y y ~+~+~+~+< 0.( m                       ",
"              i+9 V 9 9 9 h+h h }.a a 3.3.@.@.m.5.5.6 Z ]+;.g.3 #.*.r.b n r F M.r..+;+/.< < e e e g < > m                       ",
"              i+9 V 9 9 h+h h }.a a 3.3.@.@.m.5.5.6 Z ;.;.;.g.r n ' u n n Q.Q.n b J /.< < e e g g g < > m                       ",
"              i+h+9 9 h+h h }.a a 3.3.@.@.m.m.5.6 Z ]+;.g.g.r 4+b _.r.r.r.: < !+' y < < e e e g g g 3+> m                       ",
"              i+h+9 h+h h }.a a 3.3.@.@.m.5.5.6 Z ]+;.g.g.r _.' *.u : M.F u : i : F < e e e g g g g 3+> m                       ",
"              i+*+9 h h }.a a 3.3.@.@.m.5.5.6 Z ;.;.g.3 r i : *.#.r.J y /.F : 8.o ;+e e g g g g g s G > m                       ",
"              i+h h+h }.a a 3.3.@.m.m.m.5.6 Z ]+;.;.3 r !+: J M.n r.Q./././.e .+e e e e g g g g ++q s > m                       ",
"              i+}.h+}.a a 3.3.@.@.m.5.5.6 Z ]+;.g.3 #.n ' n #.Q.4+r.F /./.< < ;+< e e g g g g e.A q.s > m                       ",
"              i+a h a a 3.3.@.@.m.5.5.6 Z ;.;.g.3 3 r : r.M.~+M.: u F /.< < < e e g g g g G H O.w w s > m                       ",
"              i+a }.a 3.3.@.m.m.m.5.6 Z ]+;.g.3 3 g.*.' n Y y ~+' o Q.< < < e e e g e G :.D O.O.T.w s > m                       ",
"              i+3.}.3.3.@.@.m.5.5.6 Z ;.;.g.3 3 g.r n : Q.~+y n b J ;+< e e e e e g e.^ A A A O.T.w <.> m                       ",
"              i+3.a 3.@.@.m.m.5.6 Z ]+;.g.3 #.r *.!+: u Q.0.Q..+(+: : : : : 8 1 :.( 4 4 4 A q O.w w <.m+m                       ",
"              i+@.a 3.@.m.5.5.6 Z ;.;.g.g.m.U.i : : i J y /./.*..+8 o 8 I.b i.@+D D D D A A O.O.w q.<.m+m                       ",
"              i+m.3.@.m.5.5.6 Z ;.;.g.|+,+c M K.S U.U.< 0././..+o #+#+#+(.' ^ ..^ D D 4 A q O.T.w q.e.m+m                       ",
"              i+m.3.m.5.5.6 Z ;.;.g.1+;+B ,.|.|.7 %.L .+G <.:.b { (.(.(.(.- ..^ D D 4 A A q O.T.q.q.e.m+m                       ",
"              i+5.@.5.5.6 Z ;.;.g.|+y B ,.,.} <+O [+! G+:.* ; ' H H.H.c.H.c.^ D D 4 4 A q O.T.T.q.~ e.m+m                       ",
"              i+6 m.5.6 Z ;.;.;.;.1+B ,.7 w.0 {+4.O [+%+c.<.- '+H.n.n.( ..^ D D D 4 A q O.z+T.'.q.~ o.m+m                       ",
"              i+Z m.6 Z ;.]+;.Y *.v.,.7 w. .++G I.E C+7 [.* { (.* n...^ ^ ^ D D 4 4 A -.O.z+T.% % ~ :.j+n+^+7+#                 ",
"              i+Z 5.Z Z ]+3 < g * %+[+<+p.s <.e.1 { W 7 ,.2 : ; c.n.^ ^ ^ D 4 4 4 A q O.z+Y.'.q.~ 7.o.j+a+# 2+:+                ",
"              i+]+5.Z ]+/.G G F.2 7 O 0 e.s e.:.* { ; z.,.,.& B.n...^ ^ D D 4 4 A q -.z+Y.'.q.% ~ 7.:.j+F+7+2++.                ",
"              9+g.6 g.e G G F.S %+[+w.{+G e.:.:.I.{ &+e+O ,.X r+( ^ ^ D D 4 4 A q -.-.z+Y.'.% % 7.$ :.-+R d @ K                 ",
"              9+g.;.e G G G F.B ,.!.x <.e.:.:.* #+L o.I.u+,.,.u+( ^ D D 4 4 A q -.-.z+Y.'.% % ~ 7.$ a.-+u.2+D.x                 ",
"              9+g.0.G G )+G * R.7 N.-+1 o.o.:.* (.{ H.n.( z.7 %+D ^ D 4 4 A q q -.z+Y.'.% % ~ 7.7.$ H m+$+2+t.)                 ",
"              9+g.~+G G s F.2 7 } 0 <.<.:.H :.* '+(.* n.B.L C+7 u+^ 4 4 A q -.-.z+Y.'.'.% ~ ~ 7.$ k.r+R C @ x Q                 ",
"b.            9+3 /.G s )+S ,.[+N.-+w+T d d x.j ' #+c.H C.'+].7 R.W.4 A A q -.z+Y.'.'.% ~ ~ ~ $ $ k.n.x.C $+)                   ",
"B 8+          9+3 /.s s F.2 7 0+x R ^.C @ C C >.o+B.n.c.i.(.g+,.,.].4 A q -.z+Y.Y.'.% % ~ ~ 7.$ k.$ h.@ ^.= _                   ",
"7 B ]         9+Y < s )+S %+[+w.K @ 2+$.= = +.@ @ }+r+c.(.- ..].,.%+e+A -.z+Y.'.'.% % ~ 7.7.$ $ k./+:+@ $+)                     ",
",.7 f+N       I Y < s )+X [+!.{.^.@ t.= W -+f G.C l.j ..b i.~.J.R.,.X A z+Y.Y.'.'.% ~ ~ 7.7.$ k.p [ ^.^. +Q                     ",
"E [+7 B 8+    f.0.< )+v.7 7 w.$+2+t.0 q <.a.* & $+C d C.'+C.D A ].,.,.Z.O.'.'.'.% ~ ~ 7.7.$ $ k./+:+@ t.{+b.                    ",
"L.y.7 [+[.c+  / *.*.S R.|.<+{.2+t.0 4 :.n.n.c.L =.>.@ & ' J.4 A -.[.,.X O.'.'.% ~ ~ 7.7.$ $ k.p 5 ^.^.= d+5+c                   ",
"  L.E C+|.,.f+l S v.[.7 !.w.D.$.0 O.o.n.n...B.' ; x.C k+(.~.A q q ].,.,.` q+% % ~ 7.7.7.$ k.p B+:+@ t.p.O |.E                   ",
"      =.} |.|.[+[+7 |.,.= t.@ = . e.( n...c.i.(+..h.C C 5 E.-.-.-.Z.R.,.X q+% ~ 7.7.7.$ k.k.p 5 C D.= u+7 [+W                   ",
"        m d+<+!.C+!.<+w.{.@ t. .o.n.n.( ^ c.- '+~.J.d C :+-.-.-.O.V.].,.R.` % 7.7.7.$ $ k.p K.^.@ t.f B 7 !.)                   ",
"            I p.= = 0 G.2+$.= ^ H n.( ^ ^ @+{ (.s.E.=.>.>.x+-.-.Y.V.% R.,.z.q+7.7.$ $ k.k.p t @ $.= Y.%+7 w.d.                  ",
"              , g g R ^.^.{.&.a.( ( ..^ ^ @+L A+~.i.(+l.C 5 A.Y.'.'.q+U ,.R.` 7.$ $ k.k.p y.^.^.{. .z.[+!.W ]                   ",
"              9+~+g d @ t.p.o.n.( ^ ^ ^ D s.{ C.).{ L d C G.x+V.'.% % 7.z.,.z.7.$ k.k.p B+:+@ t.p.j.,.|.N._                     ",
"              9+~+T >.>.= O.H ..^ ^ ^ D D C.L s.-+b A.}+C C [ V.% % ~ ~ U ,.,.U $ k./+p t C D.= s+z.|.} x                       ",
"              9++ 9.@ t.f o.^ ^ @+@+s.D ~.(.L ).' (.W.Y.:+C t V.~ ~ ~ 7.7.z.,.z.k.k.p y.^.@ {. .1.7 [+w.m                       ",
"              I T @ $.= 4 n.^ @+- { C.s.).'+(.- L V.Y.V.}+C G.$ % ~ 7.7.7.j.,.7 1.p K.:+@ t.0 j.R.[+N.p.m                       ",
"              a+^.2+{.. a.^ ^ @+{ b { J.i.'+A+(+v+Y.'.V.h.^.>.y.~ 7.7.$ $ k.D+,.,.j.t C D.= S.,.[+0+0 . m                       ",
"              # @ $.p.r+..^ ^ C.L J.L '+'+- '+- _+V.'.'.% :+C t $ 7.$ $ k.$ >+O 7 ! ^.>.= 4.%+[+C+= v+x+m                       ",
"            2.9.@ {.W H D D @+(.L s.J.C.A+'+& _+'.'.% % q+5 C l.B+7.k.k.k./+p %.! 7 b+l+N.R.|.O w.p.E.t+m                       ",
"            7+@ $.p...D D D J.' - )._+A+(+(.W.'.'.% % ~ % x+l.C y.$ k.k./+/+p y.p+7 [+,.|.|.C+= p.S._+t+m                       ",
"          ^+9.@ {.&.n.4 4 4 O.(+'+L '+'+A+Z.% % % ~ ~ 7.7.7.5 C l.B+p /+/+p y.^.>.N.!.7 C+N.= 4.S.s+V.t+m                       ",
"          # @ $.0 e.( ^ ^ ^ D A+(.(.- -.W.-.-.-.Y.Y.'.'.% % h.>.C t 7.7./+5 ^.@ $+= 4.N.p.0 s+>+S.S.Y.t+m                       ",
"        2.9.@ t.m+Y 3+3+3+g g c 3+c c G G G G G 1 1 1 1 1 <.1 }+@ >.x.j d >.@ $+= w &+r+r+H.r+......a.t+m                       ",
"        # ^.>.= {+{+{+{+{+{+{+{+{+{+f {+{+f {+f f f f f f f f W +.@ @ @ @ @ {.= x f W W W W W W W W W  .n+                      ",
"      ] P @ t.) z z z z z z z z z z z z z z z z z z z z z z z z v u.+.+.t.{.f d.z z z z z z z z z z z z k                       ",
"      # ^.^. +Q                                                   k ) x E+d.                                                    ",
"      P 2+$+m                                                                                                                   ",
"    2.9.2+= z                                                                                                                   ",
"    # @ $.x                                                                                                                     "};
