/* XPM */
static const char * xpm_analyse_join[] = {
"64 64 257 2",
"  	c None",
". 	c #38AC2F",
"+ 	c #B8BADA",
"@ 	c #D5B7C9",
"# 	c #EBEBF4",
"$ 	c #56B444",
"% 	c #B3B6E3",
"& 	c #FDFDFD",
"* 	c #49A93B",
"= 	c #63B950",
"- 	c #C2C3D1",
"; 	c #B4E29C",
"> 	c #339629",
", 	c #A6ABD6",
"' 	c #9BA2CD",
") 	c #828AB9",
"! 	c #CCEABB",
"~ 	c #9AA7D5",
"{ 	c #AFC1E7",
"] 	c #84CA69",
"^ 	c #D4DDF3",
"/ 	c #A5D98B",
"( 	c #EF484F",
"_ 	c #EE2830",
": 	c #ACB2DA",
"< 	c #D3E8FB",
"[ 	c #8A91C2",
"} 	c #D7A8B9",
"| 	c #CCD1E8",
"1 	c #DDDEED",
"2 	c #AB575D",
"3 	c #01A1C8",
"4 	c #E3F4D8",
"5 	c #9CD481",
"6 	c #B76F8E",
"7 	c #6FC158",
"8 	c #51954E",
"9 	c #1B7188",
"0 	c #A7D2A8",
"a 	c #858BC0",
"b 	c #7CB362",
"c 	c #797DA2",
"d 	c #E8717B",
"e 	c #9A9BA2",
"f 	c #719263",
"g 	c #C0C0C1",
"h 	c #6F6D89",
"i 	c #018EB3",
"j 	c #8B91BB",
"k 	c #96D17A",
"l 	c #C5C9E2",
"m 	c #78C461",
"n 	c #898B89",
"o 	c #D199AC",
"p 	c #B6B9CD",
"q 	c #7EA271",
"r 	c #67716A",
"s 	c #DB3C4B",
"t 	c #E9F7E1",
"u 	c #C8516A",
"v 	c #7D83B6",
"w 	c #27A6CC",
"x 	c #CE4459",
"y 	c #A39FCC",
"z 	c #30762A",
"A 	c #5A6270",
"B 	c #959BC9",
"C 	c #BBE4A6",
"D 	c #E37985",
"E 	c #D5D5D5",
"F 	c #DDF2CF",
"G 	c #8AA9A8",
"H 	c #EEEFF6",
"I 	c #698B89",
"J 	c #A1A5CF",
"K 	c #D6D8EA",
"L 	c #8ECF74",
"M 	c #CCE4F9",
"N 	c #C8CCE4",
"O 	c #525770",
"P 	c #A7A7A8",
"Q 	c #D5EEC7",
"R 	c #4D6B56",
"S 	c #AEDE97",
"T 	c #0499C0",
"U 	c #9C9DA0",
"V 	c #70ADD1",
"W 	c #E4E5F1",
"X 	c #F0F1F8",
"Y 	c #B7B7B7",
"Z 	c #C9DBF2",
"` 	c #56ADD0",
" .	c #8CA5D6",
"..	c #9298C6",
"+.	c #8C8AA7",
"@.	c #256E1C",
"#.	c #DBDBDC",
"$.	c #66C4DD",
"%.	c #D8DAEC",
"&.	c #99D8E6",
"*.	c #EFF1F0",
"=.	c #1C3026",
"-.	c #DBDDEC",
";.	c #689BC6",
">.	c #989ECB",
",.	c #EBECFC",
"'.	c #EB8590",
").	c #F5F6F9",
"!.	c #EBEAEB",
"~.	c #9A86A9",
"{.	c #9F94BA",
"].	c #8F95C3",
"^.	c #898998",
"/.	c #BBBEDE",
"(.	c #D3C3D6",
"_.	c #E2E4F0",
":.	c #01AAD3",
"<.	c #DE8795",
"[.	c #A77BA1",
"}.	c #86AFE4",
"|.	c #E6E8F3",
"1.	c #CFD7EE",
"2.	c #827A83",
"3.	c #2A8C20",
"4.	c #3B464D",
"5.	c #5399BE",
"6.	c #A3A5B6",
"7.	c #C2C6E0",
"8.	c #9C9FD5",
"9.	c #30562F",
"0.	c #565B5D",
"a.	c #AA8DB3",
"b.	c #638650",
"c.	c #9094AC",
"d.	c #D2D2D8",
"e.	c #F9FFF4",
"f.	c #283946",
"g.	c #B0ACCD",
"h.	c #AC82AB",
"i.	c #E8DDF1",
"j.	c #8E90A8",
"k.	c #CACBD0",
"l.	c #597888",
"m.	c #2DA322",
"n.	c #3094B6",
"o.	c #91C4DD",
"p.	c #656E50",
"q.	c #18640B",
"r.	c #415F49",
"s.	c #B4262E",
"t.	c #D7D9EB",
"u.	c #E1E2F0",
"v.	c #AA99B9",
"w.	c #BC8CA9",
"x.	c #EA5D66",
"y.	c #9499AE",
"z.	c #E0E1EF",
"A.	c #1B4F14",
"B.	c #819BCC",
"C.	c #12A2C8",
"D.	c #D1D3E8",
"E.	c #3F953C",
"F.	c #9DB1D9",
"G.	c #DFDFEF",
"H.	c #084250",
"I.	c #B6D5A0",
"J.	c #EDF1FD",
"K.	c #8FD374",
"L.	c #F4FDEA",
"M.	c #A099C6",
"N.	c #BFDCB5",
"O.	c #62A759",
"P.	c #85B97B",
"Q.	c #E3E3E4",
"R.	c #046A84",
"S.	c #B9B1D4",
"T.	c #C5627C",
"U.	c #71A48B",
"V.	c #045E76",
"W.	c #F2F4FE",
"X.	c #DF92A0",
"Y.	c #DCEFD6",
"Z.	c #F5F6FE",
"`.	c #C3E7AF",
" +	c #1EB0D3",
".+	c #999DB0",
"++	c #87D26C",
"@+	c #939797",
"#+	c #F8F9FC",
"$+	c #BEC2E6",
"%+	c #A5B0B8",
"&+	c #92CB82",
"*+	c #DAD6EA",
"=+	c #E7E9FA",
"-+	c #DEDBEC",
";+	c #F4FAF4",
">+	c #DFF0DD",
",+	c #DCDFF7",
"'+	c #E7E8E6",
")+	c #B29CBF",
"!+	c #00799B",
"~+	c #00B6E1",
"{+	c #204512",
"]+	c #DADCEC",
"^+	c #9F9FA4",
"/+	c #D7D7D9",
"(+	c #8CB0D4",
"_+	c #366B7B",
":+	c #9BBFC9",
"<+	c #208A13",
"[+	c #87977B",
"}+	c #96D977",
"|+	c #959B91",
"1+	c #9189B7",
"2+	c #639B79",
"3+	c #CECED3",
"4+	c #C0F4A5",
"5+	c #CDFAB4",
"6+	c #507CAC",
"7+	c #60617C",
"8+	c #9FA4A4",
"9+	c #9094CF",
"0+	c #7D7CBF",
"a+	c #9796C5",
"b+	c #B0B1B0",
"c+	c #E6E7F7",
"d+	c #E6B0BF",
"e+	c #C4C9E9",
"f+	c #C8C5DF",
"g+	c #938DC1",
"h+	c #0BB3DC",
"i+	c #1F3F22",
"j+	c #CFDECF",
"k+	c #CDDCDF",
"l+	c #817BA9",
"m+	c #C6C8C6",
"n+	c #5FBF4E",
"o+	c #7A2120",
"p+	c #8F91A0",
"q+	c #929FA0",
"r+	c #65A1AF",
"s+	c #D6D7D5",
"t+	c #DFDFDF",
"u+	c #216951",
"v+	c #7BCB60",
"w+	c #314E5D",
"x+	c #A2E084",
"y+	c #42A2CB",
"z+	c #E1E3F5",
"A+	c #4A813C",
"B+	c #F4F4F9",
"C+	c #F2F3F8",
"D+	c #826A2C",
"E+	c #1C8099",
"F+	c #DDFFC6",
"G+	c #B88CBE",
"H+	c #FFFFFF",
"              k.@+P P P P P P P P P 8+^+^+^+^+^+8+^+^+^+^+^+^+^+U U e e e e e e e n n ).                                        ",
"              g Q.& & & & & & & & & & & & & #+#+#+#+Z.B+W.W.X J.J.,.,.,.,.=+=+c+J.p 7+8+&                                       ",
"              g t+& #+#+#+).).B+B+C+X X H H H # # # |.|.|.W _._.u.z.G.G.1 -.]+]+z+6.' h ^+#+                                    ",
"              g #.& #+#+).).B+B+C+X X H H H # # # |.|.|.W W _.u.z.G.1 1 -.]+]+%.z+6.].: c b+&                                   ",
"              g #.& #+).).B+B+C+X X H H H # # # |.|.|.W _._.u.z.G.G.1 -.]+%.%.t.z+6.j J + h Y                                   ",
"              g #.& ).).B+C+C+X X H H H # # # |.|.|.W _._.u.z.G.G.1 -.]+%.%.t.K z.6.j J : N 2.b+#+                              ",
"              g #.& B+B+C+C+X X H H H # # # |.|.|.W _._.u.z.G.G.1 -.]+%.%.t.K K G.6.j J : /.1.p+Y                               ",
"              g #.& ).B+C+X X H H H # # # |.|.|.W W _.u.z.G.1 1 -.]+%.%.t.K K K ,+6.j J : + 7.1.^.Y                             ",
"              g #.& C+C+X X H H H # # # |.|.|.W _._.u.z.G.G.1 -.]+%.%.t.K K D.D.-.6.j J : + 7.D.,.n 3+                          ",
"              g /+& C+X X H H H # # # |.|.|.W _._.u.z.G.G.1 -.]+%.%.t.K K ^ < < < 6.]., : + 7.| z.Z.2.s+                        ",
"              g /+& X X H H H # # # |.|.|.W W _.u.z.G.1 1 -.]+]+%.K %.^ M @ d d d+.+7+h c ^.^.^.p+8+n A t+                      ",
"              g /+& X H H H # # # |.|.|.W _._.u.z.G.G.1 -.]+%.%.t.t.< (.d ( ( ( _ o p p p p p p p S.l p+E                       ",
"              g /+& H H H # # # |.|.|.W _._.u.z.G.G.1 -.]+%.%.t.^ < '._ <.(.| ^ x.} | | | N N N l 7.^ .+E                       ",
"              g d.& H H # # # |.|.|.W W _.u.z.G.G.1 -.]+]+%.K < K x.d } K M Z (.( (.| N N N l l l 7.1..+E                       ",
"              g d.& # # # # |.|.|.W _._.u.z.G.1 1 -.]+%.%.t.< @ ( d x.x.( <.M <.( N N N l l l 7.7.7.1.y.E                       ",
"              g d.& # # # |.|.|.W _._.u.z.G.G.1 -.]+%.%.K < } _ X.X.( (.X.s } x.x.N N l l l 7.7.7.7.1..+E                       ",
"              g d.#+# # |.|.|.W _._.u.z.G.G.1 -.]+%.%.%.< X._ } K x.@ 1.K } _ _ <.| N l l 7.7.7.l /.| y.E                       ",
"              g d.#+|.|.|.|.W W _.u.z.G.1 1 -.]+]+%.t.< d+( } ,+@ ( N D.| 1.<.d @ e+l l 7.7.7.l 7.>.e+y.E                       ",
"              g 3+#+|.|.|.W _._.u.z.G.G.1 -.]+%.%.t.]+(._ X.^ M D ( 1.| N | N l N l 7.7.7.7.l /.' j $+y.E                       ",
"              g 3+#+|.|.W _._.u.z.G.G.1 -.]+%.%.t.t.^ '.x.^ 1.Z x.d 1.N N N N N l l 7.7.l l + >.j j $+y.E                       ",
"              g 3+Z.W W W _.u.z.G.1 1 -.]+]+%.t.K K D.x.@ 1.D.N ( } | N N N l l l l l l /., ..].j ) $+y.E                       ",
"              g 3+Z._._._.u.z.G.G.1 -.]+]+%.K K ^ M (.( D.D.D.(.x.Z M Z Z Z l N N l /.: ' ..].].j j $+y.E                       ",
"              g k.W._._.u.z.G.G.1 -.]+%.%.t.< < ^ @ x.( Z | 1.o ( X.<.<.D d - 7.+ , ' B ....].].j ) $+y.E                       ",
"              g k.W.u.u.z.G.G.1 -.]+%.%.%.i.d+d ( ( D } 1.| D.(.o o o } )+s )+J ' >.B B ....].].j ) $+c.E                       ",
"              g k.W.z.z.G.1 1 -.]+%.%.-+z.N [.2 6 '.d+D.D.| | @ o o w.w.T._ M.' >.>.B B ..].].[ j ) $+c.E                       ",
"              g k.J.G.G.G.1 -.]+]+%.-+%.o.w C.C.w 2.( (.l /.g._ s ( x s _ T.~ ' >.>.B ....].].j [ ) /.c.E                       ",
"              g k.J.G.G.1 -.]+%.%.-+1 ` C.:.T i 3 n.l.S.: : w._ a.a.a.a.a.M.' >.>.B B ..].].].j a ) /.c.E                       ",
"              g - J.1 1 -.]+]+]+-+]+$.C.3 V.H._+9 3 :.` S.: 6 x F.F., ~ ~ ~ >.>.>.B ....].].[ [ a ) % c.d.                      ",
"              g k.,.-.-.]+-.]+-+*+o.C.:.R.=.~.g.j E+3 C.V + T.6 F.J J ' ' >.>.>.B ....].].[ [ j a ) % j.s+#+Y.&                 ",
"              g - ,.-.]+-.%.D.f+{ w 3 R.f.v././.S.2 9 :.C.' ( )+, J ' ' ' >.>.B B ..].].[ ].[ a ) ) % +.'+0 n+P.*.              ",
"              g - ,.-.1 D.7.7./.V 3 T f.+.$+: : g.( 2.T 3 n.s y J ' ' >.>.>.B B ....].].[ [ j a ) v /.l+*.P.. @.g               ",
"              g - ,.t.N 7.+ /.: w 3 V.7+$+S.: : )+s )+5.3 T c y J ' ' >.>.B B ..>.8.].[ [ [ a a ) v % j.j+= . i+m+              ",
"              g - =+N /././.+ ` 3 !+=.g.+ : g.: )+u , ' n.3 C.' y ' >.>.B B ..8.v 7+9+].[ a a ) ) v % c.P.. > p.'+              ",
"              g - z+/./././.: C.3 V.2.$+: : , , w.T.: J B.3 3 y+y ' >.B B B ~ l+r.z O [ 9+a a ) v v : c.E.. z %+&               ",
"              g - ,++ /././.V 3 i w+S.% % : % : T.T.F.J y l.3 3 B.y B B B 8.0+r.3.m.z A a [ ) ) v 0+, G . m.9./+                ",
"              g - ,++ + + F.C.3 R.h $+G U.U.G J ( 6 F.~ a.u 3 3 y+M.B ..8.v r.> * * . z O a a ) v v J 2+. @.r *.                ",
"&.            g - ^ + + + V 3 i w+q+O.* . . * 8 s G+~ ~ 6 u y+3 C.;.B 8.l+r.> $ * * $ * z O 0+a v 0+U.. . 9.m+                  ",
"3 &.          g - %.+ + F.w 3 V.r.O.. <+q.q.<+m.A+q+, ~ x 6  .C.3 w y 0+r.E.$ $ $ $ * $ $ z A 0+v 0+8 . 3.2.B+                  ",
":. +&.        g p ^ + : ` 3 i i+> m.<+i+4.A R > m.O.' M._ h.>.;.T :.6+R * $ $ $ $ $ $ $ $ $ E.O 0+I * m.i+k+                    ",
"E+h+ +&.      g p %.S.(+C.3 V.q.. @.=.h J J ..r <+m.U.h._ {.B a+w i u+* n+= = $ = = = $ = n+$ E.O A+. z @+                      ",
"%+E+~+ +$.J.  k.@ i.F.w 3 !+=.m.3.=.l+% : , F.T.p.m.* 2 s  .B 8.6+u+* 7 = = = = = = = = = = 7 = 8 z <+=.r+$.<                   ",
"& 8+E+:.:.$.&.:+%+{ w :.T H.q.m.i+h % , J J y u ~.. m.D+6  .8.l+R 8 v+7 = 7 7 7 7 7 7 7 7 7 = 7 v+E.{+f.T ~+r+*.                ",
"  & %+_+3 :.h+ +w  +:.T H.A.. {+O % , J J ~ a.s 8.2+m.E.].8.v r.O.v+7 7 m 7 7 7 7 7 7 7 7 m 7 7 m v+A+_+3 :.w+t+                ",
"      m+I V.i :.3 i !+H.{+m.@.4.M.: J J ' ~ 6 s ~ B.. m.2+l+R O.v+v+m m m m m m m m m m m m m m m v+m b.9 V.n *.                ",
"        *.@+l._+9 9 w+{+> > =.1+% ' J J ' ' u s  .M.8 m.z R O.++] ] v+] ] ] ] ] ] ] ] ] ] ] ] v+] ] ++++8 =.3+                  ",
"            *.P ^.v.I m.m.A.O % J J ' ' ' >.s u }.{.2 3.@.b K.] ] ] ] ] ] ] ] ] ] ] ] ] ] ] ] ] ] ] ] ++}+b.|+                  ",
"              k.f+^ O.m.@.4., , ' ' ' ' >.{.s [. .T.s.A+b }+L K.L L L L L L L L L L L L L L L L L L L L }+}+q |+).              ",
"              g p 0 m.3.i+l+% ' ' ' >.>.>.a.s ..a+s.p.P.x+5 5 }+}+k k k k k k k k k k k k k k k k 5 x+x+x+x+4+b n t+            ",
"              g %+= m.@.O % J ' ~ ~ >.>.B [.u  .x o+f P.O.O.q q q k 5 5 5 5 5 5 5 5 5 5 5 5 5 5 x+P.f b.q q q P.p.P             ",
"              g 2+. <+=.a+, ' ' h.6  . .B u 6 [._ c ) c E.3.A+c 0.&+/ / / 5 / / 5 / / 5 / / 5 / ; f =.f.b+s+s+s+k.E             ",
"              m+> m.9.O : ' ' >.u s 6  .[._ [.s 6  .9+9+2+m.E.a A k S / S / / S / / S / / S / / 4+b.f.h t+                      ",
"            & 0 m.3.4.8., >.' {.x T.s 6 u x x x B.a [ [ ) m.> l.A 5 S S S S S S S S S S S S S S 4+b.c v E                       ",
"            >+n+> @.7+: >.' >.6 s  .[.6 T.x x [ B.[ a [ a 8 m.E.O / C ; ; ; ; ; ; ; ; ; ; ; ; ; 4+f j c E                       ",
"          & 0 . 3.9.g+J >.' a+x u }. .~.u x 1+B.[ [ a a a 2+m.m.r.I.C C C C C C C C C C C C C C 5+f ) c E                       ",
"          >+= > A.7+, B ..B ~._ x 6 x x u a B.a a a ) a v v 8 m.z I.`.`.`.`.`.`.`.`.`.`.`.`.`.`.F+f ) c E                       ",
"        #+0 . 3.4.M., B >.>.{.x s s s [.B.B.[ [ [ a a a a a I m.z N.! ! ! ! ! ! ! ! ! ! ! ! ! `.F+f ) c E                       ",
"        >+$ m.z ^.,+/./././.{ { S.: { { % % : : : : : , , , ~ 8 z N.Q ! ! ! ! ! ! ! ! ! ! ! ! ! F+[+j c d.                      ",
"        N.. 3.i+l+6.y.y.y.y.c.y.y.y.c.j.j.j.j.j.j.j.j.j.j.j.+.r 9.! F Q Q Q Q Q Q Q Q Q Q Q Q Q L.[+h 7+E                       ",
"      *.m m.@.0.^+U U U U U U U e e U U U U U U U U U e e e U ^+0.Q 4 F F F F F F F F F F F F F L.[+2.U !.                      ",
"      N.. > r.!.                                                n Y.4 4 4 4 4 4 4 4 4 4 4 4 4 4 e.|+#.                          ",
"    ;+&+. z 2.                                                  n >+t t t t t t t t t t t t t t e.|+3+                          ",
"    Q $ > 9.Y                                                   n L.e.e.e.e.e.e.e.e.e.e.e.e.e.e.& 8+3+                          ",
"  ).&+. 3.r                                                     2.'+!.!.!.!.!.!.!.!.!.!.!.!.!.!.!.|+k.                          ",
"  *.P.> z -                                                     U n n n n n n n n n n n n n n n n r /+                          "};
