/* XPM */
static const char * xpm_data_edit[] = {
"64 64 257 2",
"  	c None",
". 	c #727278",
"+ 	c #BB8B19",
"@ 	c #DAA528",
"# 	c #D7DAF5",
"$ 	c #CED0E6",
"% 	c #878BA3",
"& 	c #848486",
"* 	c #A5AAD1",
"= 	c #F5F5FA",
"- 	c #E4B534",
"; 	c #B5BADA",
"> 	c #B4BAE2",
", 	c #BCC1E0",
"' 	c #D199AD",
") 	c #9CA3CD",
"! 	c #795C17",
"~ 	c #898474",
"{ 	c #F1F2F8",
"] 	c #6972AC",
"^ 	c #B488AE",
"/ 	c #D8B73B",
"( 	c #868EC0",
"_ 	c #E9EAF4",
": 	c #A8ADD3",
"< 	c #C6A937",
"[ 	c #DDAACD",
"} 	c #ADB1D5",
"| 	c #D6D8EA",
"1 	c #D4D6E9",
"2 	c #B9BDDC",
"3 	c #A16A97",
"4 	c #807C70",
"5 	c #8A691A",
"6 	c #EAECFD",
"7 	c #949CCC",
"8 	c #A2A7CC",
"9 	c #695422",
"0 	c #9A761D",
"a 	c #ADB3DD",
"b 	c #F0F0F7",
"c 	c #969ED4",
"d 	c #8189BE",
"e 	c #EEF0FD",
"f 	c #B78C23",
"g 	c #797984",
"h 	c #646EA7",
"i 	c #DBDCEC",
"j 	c #9CA4D4",
"k 	c #E1E2F0",
"l 	c #58629A",
"m 	c #8B8C95",
"n 	c #B3B7D8",
"o 	c #B1B5D7",
"p 	c #F5C239",
"q 	c #FDCB3D",
"r 	c #A0A1A4",
"s 	c #A7904F",
"t 	c #FFDA47",
"u 	c #7982B8",
"v 	c #C5C8E1",
"w 	c #7A7259",
"x 	c #74799B",
"y 	c #F7F7FB",
"z 	c #949599",
"A 	c #9A9A9C",
"B 	c #E7E8F4",
"C 	c #A88323",
"D 	c #D2D5E8",
"E 	c #828492",
"F 	c #DDE0F9",
"G 	c #9D9EA1",
"H 	c #CFD2E6",
"I 	c #D3C798",
"J 	c #C1901C",
"K 	c #FFFFFF",
"L 	c #D9DBEC",
"M 	c #C3C6E0",
"N 	c #7C85BA",
"O 	c #EFEEF6",
"P 	c #8A91C2",
"Q 	c #F5DB90",
"R 	c #E3E5FB",
"S 	c #E0E1EF",
"T 	c #949AC7",
"U 	c #DFE0EF",
"V 	c #FFDC49",
"W 	c #FAFAFC",
"X 	c #8D94C5",
"Y 	c #92793A",
"Z 	c #E2E4F1",
"` 	c #8F96C9",
" .	c #7F8295",
"..	c #D8DAEB",
"+.	c #C4C5C8",
"@.	c #757DB5",
"#.	c #676C91",
"$.	c #7079B2",
"%.	c #EBECF5",
"&.	c #757CA0",
"*.	c #BBA242",
"=.	c #CACDE4",
"-.	c #A4ABDA",
";.	c #ECEDF5",
">.	c #DEDFEF",
",.	c #A67C1D",
"'.	c #6E77B0",
").	c #979BB3",
"!.	c #F5F6FE",
"~.	c #A8A9B2",
"{.	c #E4E4F1",
"].	c #A0A6D1",
"^.	c #FCFCFF",
"/.	c #A29E93",
"(.	c #AE831D",
"_.	c #BBA137",
":.	c #7E86BC",
"<.	c #CDD2F0",
"[.	c #DCDDEC",
"}.	c #C6941F",
"|.	c #666984",
"1.	c #C0C3DE",
"2.	c #F8F8FD",
"3.	c #776334",
"4.	c #E5E6F1",
"5.	c #979ECA",
"6.	c #CCCFE5",
"7.	c #EBEBEB",
"8.	c #8F9098",
"9.	c #E6E7F2",
"0.	c #FFD644",
"a.	c #E4E4E4",
"b.	c #9097C6",
"c.	c #8087BB",
"d.	c #E6E8FA",
"e.	c #858CBF",
"f.	c #F9C63B",
"g.	c #9295A8",
"h.	c #997E51",
"i.	c #C9CCEA",
"j.	c #F4EEF4",
"k.	c #F0F2FF",
"l.	c #DCDCEC",
"m.	c #C8CBE2",
"n.	c #BC9122",
"o.	c #9093A6",
"p.	c #E8E9F3",
"q.	c #181612",
"r.	c #FFEDA9",
"s.	c #B5993A",
"t.	c #757EB2",
"u.	c #E5E6F2",
"v.	c #8991C6",
"w.	c #989AAA",
"x.	c #8992BC",
"y.	c #727BB5",
"z.	c #CACCE4",
"A.	c #7881B7",
"B.	c #8C8FA5",
"C.	c #8C8E9F",
"D.	c #F2F4F9",
"E.	c #A27D20",
"F.	c #D8D8D8",
"G.	c #FBFBFD",
"H.	c #DDDEED",
"I.	c #67625D",
"J.	c #B2B2B1",
"K.	c #7780B6",
"L.	c #9597A9",
"M.	c #8E94C0",
"N.	c #E0A929",
"O.	c #E3E6F5",
"P.	c #C4CAEC",
"Q.	c #F9FAFF",
"R.	c #F2F4FF",
"S.	c #EDECF6",
"T.	c #DCDDEE",
"U.	c #878991",
"V.	c #8189BA",
"W.	c #C1C6E9",
"X.	c #7F85AC",
"Y.	c #EFBE37",
"Z.	c #E6E6F1",
"`.	c #8B92C4",
" +	c #838ABE",
".+	c #A9B0DB",
"++	c #858BBB",
"@+	c #8088BD",
"#+	c #767EB7",
"$+	c #EEEDF5",
"%+	c #DADCEB",
"&+	c #E4E5F1",
"*+	c #F9FAFC",
"=+	c #7C84B9",
"-+	c #9C9B96",
";+	c #D4D7F1",
">+	c #5F69A0",
",+	c #EDE6D1",
"'+	c #BAA976",
")+	c #6F718D",
"!+	c #ACA890",
"~+	c #6B73A1",
"{+	c #FCFBFE",
"]+	c #969284",
"^+	c #EADEAC",
"/+	c #FFF29C",
"(+	c #C5CAF3",
"_+	c #A99236",
":+	c #4C4F5E",
"<+	c #5E5E6D",
"[+	c #60627B",
"}+	c #888EBC",
"|+	c #7880B9",
"1+	c #BEBFC3",
"2+	c #DAC7DC",
"3+	c #E0BF3D",
"4+	c #D0B037",
"5+	c #E8E7E2",
"6+	c #C09070",
"7+	c #D4C07D",
"8+	c #9199CE",
"9+	c #EADFEB",
"0+	c #888FC2",
"a+	c #EBCE7B",
"b+	c #F3C038",
"c+	c #F4F3F9",
"d+	c #8189B0",
"e+	c #888EB6",
"f+	c #D0D3E7",
"g+	c #D0D2EB",
"h+	c #B28268",
"i+	c #D2D6EF",
"j+	c #F9F9FC",
"k+	c #7A82BB",
"l+	c #7B83B9",
"m+	c #B3B1A6",
"n+	c #929398",
"o+	c #BABCD0",
"p+	c #97979A",
"q+	c #FCFCFD",
"r+	c #FEFEFF",
"s+	c #FDFDFE",
"t+	c #EEEFF6",
"u+	c #EDEDF6",
"v+	c #EFEFF6",
"w+	c #AEB1CA",
"x+	c #FBFCFF",
"y+	c #DDDFEE",
"z+	c #8B94C3",
"A+	c #8B92C1",
"B+	c #A6ACE0",
"C+	c #C7A12F",
"D+	c #F0EFEE",
"E+	c #737DB4",
"F+	c #737BB3",
"G+	c #F9F6F5",
"H+	c #FFFFFF",
"                                                                                                                                ",
"                                                                                                                                ",
"                                                                                                                                ",
"                                                                                                                                ",
"                                                                                                                                ",
"                                                                                                                                ",
"                                                                                                                                ",
"                                                                                                                                ",
"                                                                                                                                ",
"                                                                                                                                ",
"                              4 U.U.& U.& & & & & & & & & & & & & & & & & & & & & & & & . +.                                    ",
"                              r K K K K K K K K K r+^.^.Q.Q.2.!.R.R.k.e e e 6 6 6 _ d.6 ).:+F.                                  ",
"                              A K q+G.W 2.y = = c+{ { v+O S.%._ p.B u.&+Z k S S >.T.[.S g.x.|.F.                                ",
"                              A K 2.y y c+c+c+{ b O $+%._ _ p.9.4.&+Z k S U H.[.[.L ..T.C.d+> g a.                              ",
"                              A K y = = c+D.{ b t+u+u+%._ p.B 4.Z Z k S >.y+H.i L ..| i C.X.a ; . 7.                            ",
"                              A K = c+c+{ { b b $+%._ _ B 9.Z.{.Z k U >.y+H.%+L L ..| L C.X.a 2 M g D+                          ",
"                              A K c+c+D.b b v+u+%._ _ p.9.4.&+Z k S >.y+[.i L ..| | 1 ..C.X.a o i.m.g a.  s+2+j.                ",
"                              A K { { { b O $+%._ _ B 9.4.{.Z k U >.y+[.i L L | | 1 D | C.d+a 2 M ;+d.U.D+[ [ ^ c+              ",
"                              A K { { b v+$+%.%._ p.B 9.Z Z Z S >.>.H.i L ..| | | 1 D |  .&.) 8 w+o+$ 1+s ' [ ' ^ c+            ",
"                              p+K b b v+u+%._ _ B 9.4.&+k k S >.y+[.i L ..| | 1 D D H 1 o.|. .E E C. .h.V 3+6+' ^ ^ 9+          ",
"                              p+K v+O $+%._ _ p.9.4.&+Z k S U H.[.i L ..| | 1 D D f+H $ $ =.=.m.g+a w 4+- / C+h+3 3 ^           ",
"                              p+K $+$+u+_ p.B B 4.{.Z k U >.>.L L L L | 1 1 D D f+$ $ $ 6.=.m.$ , ~ 3+V - f C+n.h.^ 9+          ",
"                              p+K S.%._ p.p.9.&+&+k S U >.H.L [.L ....1 D D D f+$ f+6.m.=.v <.2 w 3+t - ! n.n.f s.c+            ",
"                              p+K _ _ p.D.G.j+_ k u.= b [.[.%.j+y >.1 l.O p.$ $ &+j+{ 1 v | O.]+/ 0.p 0 (.@ f s ,+              ",
"                              p+K p.p.%.s+%.= G.k ;.K = L &+K k t+c+D p.s+;.z.| G.1 b y $ F ~ / t Y.5 f @ n.9 5+                ",
"                              z K B 9.t+q+&+b s+Z [.y D.| 9.s+..Z j+D 6.v+u+v U y v p.K 2 ~ / t Y.0 f @ + 3.+.                  ",
"                              n+r+9.u._ s+&+{ s+k %+y D.| &+K ..9.2.H =.t+;.v %+W m.u+!.4 4+t Y.! (.@ + 9 A                     ",
"                              n+x+4.u.{.y W ^.t+[.%.s+s+_ ..= y G.k 6.p.G.G.U =.O G.e ]+/ 0.b+E.(.@ + 3.).r                     ",
"                              n+Q.{.{.k Z p.&+H.[.S k k >.1 1 S [.H H | ..| D m.g+# ~ < t p 0 (.@ + 9 &.P.G                     ",
"                              n+Q.k {.Z >.T.[.H.i ..| 1 1 1 D $ $ H $ =.m.m.m.f+W.. / t Y.5 f @ + 9 ~+) 2 G                     ",
"                              8.2.k k U U [.%+i L ..1 1 1 D D 6.6.$ $ z.m.M M > ~ 4+0.p 0 ,.@ (.9 x ` 5.; G                     ",
"                              8.!.S U >.[.p.4...| U { %.D D f+k S 6.v 1 u+U .+<+< t p 0 n.@ + 3.t.8+}+5.; G                     ",
"                              8.!.>.U H._ K t+D i *+t+y t+m.y+K p.} o = O.B /.< V Y.E.,.@ + 9 ~.;+++e.T n G                     ",
"                              8.R.H.H.[.[.y t+D B G.M %+G.; o b 4.) , {+].. 4+V b+0 (.N.+ ! ~+<.b A+V.T n G                     ",
"                              8.k.[.[.L | D.%.1.1 j+} H j+o * _ u.) , 2.4 / 0.f.C (.@ + 3.+.c M ;.A+c.T o G                     ",
"                              8.k.%+i L U G.;.1.1.= D _ 4.: , c+t+o > /.*.V p C ,.N.+ ! B.Q.1.4.H c.c.b.o G                     ",
"                              8.e %+i =.1 H.H.D o 1.Z | o : z.| | > |.< t f.0 (.@ J 9 &.8+* D , P  +V.b.o G                     ",
"                              m e 1 v 2 2 n o o n } : : : : * ].j . < 0.b+0 ,.@ + ! x c X (  +c. +e.c.X } G                     ",
"                              m 6 1.2 2 2 n o n o } : * : : : -.)+< t q C (.N.J ! >+8+X X `. + +e.V.N X } G                     ",
"                              m d.2 2 2 o M 1.o } ; H v * : -.g s.t f.E.(.@ J ! )+P.o `.P  +* ) @+V.=+`.} G                     ",
"                              m R 2 ; n $ W U * o %.D.W $ j g 4+V q E.,.@ }.! #.6 { *+1. +n r+$ K.:.u 0+} G                     ",
"                              m R ; ; n , b H.].v W * H Q.g < t f.0 ,.@ + 9 #.> y X | y ( 5.= =.K.=+A.0+: G                     ",
"                              m R ; n o * 9.i 5.z.y ]., m+*.t p C (.N.+ 5 % v.2 b :.$ W 0+|+%.m.$.l+K.( : G                     ",
"                              U.F n o o n { 9.} ; K (+E < V q 5 0 N.}.! J.k.` ) j+n _ %.:.b.y L  +|+@.e.: G                     ",
"                              m F o o } H &+Z f+* i.-+*.0.f.C ,.@ J ! 8.F H.; ( , k 1 ) :.2 | | : y.F+ +* G                     ",
"                              U.F o } } } : * : -.x _.t q f 0 @ }.! [+c ` v.X P e.( d @+d c.k+A.A.K.F+ +* G                     ",
"                              U.F } } } : ].: B+. *.t f.0 ,.@ J ! #.c X v.v.P 0+0+ +d d @+=+#+@.K.#+$.@+* G                     ",
"                              U.# } : : * } a x *.t q f 5 @ }.5 [+8+` v.T X e.0+@+d e.@+N #+ +u $.F+'.:.].G                     ",
"                              U.# : * * L !.n+_+t q E.0 N.J ! J.e : ( 1 { t+} :.5.9.o |+l+m.b 9.b.] '.N ].G                     ",
"                              E # : * n 2.r *.V q f 0 @ }.5 G > | L 5.y o U [.k+n r+2 $.8 K 5.D ..] ] =+].G                     ",
"                              E # * 8 W.r C V q E.5 N.}.! & K b.} p.} { e.2 _ @+|+k 2 '.2 j+E+} ;.@.h A.].G                     ",
"                              E ;+* ].8 !+s - f 0 @ }.5 |.a K 5.v U 5.= 5.H S N k+Z 2 ] : K l+1.S ] h K.) G                     ",
"                              E ;+8 ].X.I ^+! 5 N.}.! n+<.7 _ v+y n d 9.D.j+, y.; j+v+; l+Z %.c+8 >+h @.) G                     ",
"                              E i+) j g I r.'+Y (.5 |.: ].`.b.: ].(  +`.].T c.u z+T T P '.K.T ++h ] h y.) G                     ",
"                              E <.) M.4 r.Q /+a+9 <+c `.0+X 0+@+d e.e.:.|+|+l+l+#+$.'.'.F+'.h h ] h >+F+5.G                     ",
"                              E <.].&.q.7+Q s w x 8+b.X `.P 0+( e. +@+c.:.N u A.K.#+F+$.$.'.] ] h h >+'.5.G                     ",
"                               .<.].|.q.I.4 #.e.8+b.z+`.0+0+e. +d @+:.N l+u K.#+@.y.$.$.] ] ] h h >+l '.5.G                     ",
"                               .i.5.e+A+X 8+7 X A+P 0+( ( e. +@+:.N =+u A.K.@.F+$.'.'.] ] h h h >+>+l h 5.G                     ",
"                              E F , W.W., , 2 > > > > > n a a a .+.+.+-.-.-.].-.].j j j ) c c 7 7 8+` c j A                     ",
"                              g ~.w.w.w.w.w.w.w.L.L.L.L.g.g.g.o.o.o.o.B.o.B.B.B.B.B.% % % % % % % % % % &.~.                    ",
"                                                                                                                                ",
"                                                                                                                                ",
"                                                                                                                                ",
"                                                                                                                                "};
