/* XPM */
static const char * xpm_error[] = {
"48 48 257 2",
"  	c None",
". 	c #D50503",
"+ 	c #9E0A06",
"@ 	c #535353",
"# 	c #D10503",
"$ 	c #AB0200",
"% 	c #6C6C6C",
"& 	c #B3B3B3",
"* 	c #434343",
"= 	c #E20302",
"- 	c #ED0201",
"; 	c #640403",
"> 	c #6B7E7E",
", 	c #F5F5F5",
"' 	c #DD0502",
") 	c #B0BCBC",
"! 	c #B3BEBE",
"~ 	c #838585",
"{ 	c #A90A06",
"] 	c #472323",
"^ 	c #DDDDDD",
"/ 	c #9D9D9D",
"( 	c #C3C3C3",
"_ 	c #571717",
": 	c #C9D2D2",
"< 	c #FCFEFE",
"[ 	c #B80805",
"} 	c #FCFCFC",
"| 	c #FF0101",
"1 	c #C2CCCC",
"2 	c #929D9D",
"3 	c #4C1414",
"4 	c #99A4A4",
"5 	c #740100",
"6 	c #E6EDED",
"7 	c #D90502",
"8 	c #5C6565",
"9 	c #150101",
"0 	c #D2D2D2",
"a 	c #EAF1F1",
"b 	c #5A5959",
"c 	c #AEB7B7",
"d 	c #1C1C1C",
"e 	c #930000",
"f 	c #C10604",
"g 	c #F1FEFE",
"h 	c #8C0101",
"i 	c #A60000",
"j 	c #E9E9E9",
"k 	c #4D4D4D",
"l 	c #8B9999",
"m 	c #91A0A0",
"n 	c #BFBFBF",
"o 	c #C6C6C6",
"p 	c #372828",
"q 	c #7D0000",
"r 	c #CE0402",
"s 	c #545C5C",
"t 	c #626262",
"u 	c #849797",
"v 	c #840000",
"w 	c #232323",
"x 	c #910A07",
"y 	c #A20A06",
"z 	c #6D0101",
"A 	c #747474",
"B 	c #6B7171",
"C 	c #530202",
"D 	c #5C0201",
"E 	c #E00402",
"F 	c #7A8B8B",
"G 	c #F90201",
"H 	c #8A8A8A",
"I 	c #929292",
"J 	c #787979",
"K 	c #F60101",
"L 	c #2C2C2C",
"M 	c #B60805",
"N 	c #010101",
"O 	c #685E5E",
"P 	c #440403",
"Q 	c #970A06",
"R 	c #4C5556",
"S 	c #393939",
"T 	c #472D2E",
"U 	c #ECF2F2",
"V 	c #CACACA",
"W 	c #E6E6E6",
"X 	c #B6C6C6",
"Y 	c #363636",
"Z 	c #990A07",
"` 	c #7D7D7D",
" .	c #FAFAFA",
"..	c #4E2828",
"+.	c #EFF4F4",
"@.	c #A70A06",
"#.	c #EDEDED",
"$.	c #3A0201",
"%.	c #A7A7A7",
"&.	c #C70704",
"*.	c #EB0201",
"=.	c #A5ADAE",
"-.	c #B3C1C1",
";.	c #B80000",
">.	c #D10000",
",.	c #E70302",
"'.	c #9B0A07",
").	c #B30805",
"!.	c #320201",
"~.	c #BF0704",
"{.	c #950A07",
"].	c #C60100",
"^.	c #F20000",
"/.	c #C40604",
"(.	c #BD0704",
"_.	c #3C1717",
":.	c #7E8485",
"<.	c #BD0905",
"[.	c #7C0705",
"}.	c #8C0705",
"|.	c #730806",
"1.	c #AAAAAA",
"2.	c #8B9292",
"3.	c #D60000",
"4.	c #E50402",
"5.	c #BAC7C8",
"6.	c #220101",
"7.	c #4F0404",
"8.	c #6B0808",
"9.	c #B50100",
"0.	c #BA0704",
"a.	c #131313",
"b.	c #2C0201",
"c.	c #CA0603",
"d.	c #E90402",
"e.	c #E40302",
"f.	c #E5F0F0",
"g.	c #AA0604",
"h.	c #A40A06",
"i.	c #B00905",
"j.	c #AE0905",
"k.	c #F00201",
"l.	c #DE0100",
"m.	c #CD0603",
"n.	c #D90100",
"o.	c #CA0704",
"p.	c #5A0B0C",
"q.	c #A0A0A0",
"r.	c #CA0101",
"s.	c #969797",
"t.	c #768787",
"u.	c #AF0100",
"v.	c #BB0000",
"w.	c #B70604",
"x.	c #CD0000",
"y.	c #B80401",
"z.	c #980100",
"A.	c #AF0B06",
"B.	c #3F3F3F",
"C.	c #EC0302",
"D.	c #E80000",
"E.	c #B40805",
"F.	c #C10805",
"G.	c #E80302",
"H.	c #980502",
"I.	c #8A9596",
"J.	c #640D0D",
"K.	c #960A09",
"L.	c #C00402",
"M.	c #0B0100",
"N.	c #3C0D0D",
"O.	c #B40602",
"P.	c #B40A06",
"Q.	c #C10000",
"R.	c #F30101",
"S.	c #4D0909",
"T.	c #990704",
"U.	c #D00603",
"V.	c #B10B06",
"W.	c #AB0A06",
"X.	c #F30302",
"Y.	c #080808",
"Z.	c #E30000",
"`.	c #B50A05",
" +	c #990906",
".+	c #FFFFFF",
"++	c #FDFFFF",
"@+	c #F9F9F9",
"#+	c #F9FFFF",
"$+	c #FAFDFD",
"%+	c #E2E2E2",
"&+	c #E90201",
"*+	c #9F0000",
"=+	c #BCC8C9",
"-+	c #BBBBBB",
";+	c #757271",
">+	c #888787",
",+	c #2C3737",
"'+	c #513636",
")+	c #BFC3C3",
"!+	c #98A1A0",
"~+	c #6B1010",
"{+	c #741313",
"]+	c #EBF6F6",
"^+	c #880A06",
"/+	c #850808",
"(+	c #E8F0F0",
"_+	c #A4AFB0",
":+	c #A10704",
"<+	c #DAE1E2",
"[+	c #343F3F",
"}+	c #D0D0D0",
"|+	c #2F2223",
"1+	c #F10302",
"2+	c #F9FCFC",
"3+	c #666F6F",
"4+	c #C70503",
"5+	c #FAFDFE",
"6+	c #D7D7D7",
"7+	c #E50202",
"8+	c #E60000",
"9+	c #D9D9D9",
"0+	c #2E0909",
"a+	c #6A605F",
"b+	c #ED0000",
"c+	c #7F9090",
"d+	c #930805",
"e+	c #940906",
"f+	c #B2C4C4",
"g+	c #C00504",
"h+	c #F8FBFB",
"i+	c #980905",
"j+	c #BD0604",
"k+	c #46090A",
"l+	c #A8B0B0",
"m+	c #7A8080",
"n+	c #7B8787",
"o+	c #7E8181",
"p+	c #EA0302",
"q+	c #AC0905",
"r+	c #EFF8F8",
"s+	c #AE0A06",
"t+	c #B00402",
"u+	c #B00A06",
"v+	c #3A4C4C",
"w+	c #B20A05",
"x+	c #AEAEAE",
"y+	c #B30905",
"z+	c #2F0708",
"A+	c #9B9B9B",
"B+	c #E2EEEE",
"C+	c #9E0402",
"D+	c #737373",
"E+	c #D2DFDF",
"F+	c #717676",
"G+	c #F20402",
"H+	c #FFFFFF",
"                                  , 0 %.J b * * B.* @ % s.( j                                   ",
"                            @+}+H k a.N 9 6.6.6.6.6.9 M.N Y.S A n #.                            ",
"                        } q.S d N b.z H.g.w.w.t+g.g.:+T.}.z $.M.a.L J W                         ",
"                      V @ N M.P C+r ' . . U.m.c.&.&./.F.F.<.`.d+7.9 N L %.}                     ",
"                  %+J d 9 z t+7 E . U.m.c.&./.f ~.(.0.[ M E.y+M y+Q ; 6.Y.b (                   ",
"                j * N $.y.C.d.7 . # U.m.c.&./.f ~.(.0.[ M ).i.j.j.V.`.+ P N d n                 ",
"              ( * 9 ; # G+E 7 . . # U.m.c.&./.f ~.(.0.[ M ).i.i.q+{ { s+y ; 9 d s.<             ",
"            0 a.N z.G *.E ' 7 . . # U.m.c.&./.f ~.(.0.[ M ).i.i.q+{ @.h.h.A.^+9 N q.            ",
"          9+* 9 h X.G.E E d.' . . # U.m.c.&./.f ~.(.0.[ M ).i.i.q+{ u+{ y + { [.6.a.1.          ",
"        W Y M.i | C.= ,.7+;.n.E . # U.m.c.&./.f ~.(.0.[ M ).i.i.s+i.v H.W.+ + @.^+9 a.n         ",
"        H N D G k.,.G.D.e p |.3.' # U.m.c.&./.f ~.(.0.[ M ).i.i.O.q p 3 z.@.+ '.y ; M.@ ,       ",
"      n a.7.*.R.*.- ^.5 F+E+2.7.>.' m.m.c.&./.f ~.(.0.[ M ).P.y.C b <+_+3 e { Z '.+ D N J       ",
"    #.B.9 >.| - - 7+K.;+g .+++I.8.x.. m.c.&./.f ~.(.0.[ M [ 0.5 b B+.+.+!+3 d++ Z + Q b.Y.n     ",
"    I N 5 | R.- G z.[+]+.+.+.+++I.k+].. c.&./.f ~.(.0.[ [ y.C b +..+.+.+.+t.$.C+'.Q + ; N t     ",
"    @ 9 r.| k.- R.n._ 4 .+.+.+.+++I.; x.U.&./.f ~.(.0.[ L.z b (+.+.+.+.+1 T 5 + Z Q {.{.b.w ^   ",
"  o a.5 | K k.- *.X.Z.~+c+h+.+.+.+.+2.S.v.U./.f ~.(.~.j+D O ]+.+.+.+.+=+T v @.'.Z Q {.Z |.M.` < ",
"  A M.>.| R.k.- *.,.k.n.P u .+.+.+.+.+u p.r.m.f ~.~.r.z R 6 .+.+.+.+1 |+5 W.+ '.Z Q {.{.x b.L j ",
"W L C G G R.k.- *.,.= C.n.~+l ++.+.+.+.+I 7.9.o.f L.z a+a .+.+.+.+1 ..q W.+ + '.Z Q {.x Z 7.N 1.",
"-+N v | G R.k.- *.,.e.= C.3.P F .+.+.+.+.+u S.].. ; R f..+.+.+.+X p v P.y + + '.Z Q {.x K.; N % ",
">+N *+| K R.k.- *.,.e.= E 4.x.J.!+++.+.+.+++I ; z O 6 .+.+.+.+: ..5 i.h.y + + '.Z Q {.x Q |.M.k ",
"b N v.| K R.k.- *.,.e.= E ' 4.3.S.F .+.+.+.+< 2.8 U .+.+.+.+X p e [ @.h.y + + '.Z Q {.x {.^+6.S ",
"B.9 3.| K R.k.- *.,.e.= E ' 7 E ].7.4 .+.+.+.+.+++.+.+.+.+: p q [ W.@.h.y + + '.Z Q {.x e+x !.L ",
"w b.Z.| K R.k.- *.,.e.= E ' ' . ' >.p.F 2+.+.+.+.+.+.+.+5.T z.[ q+{ @.h.y + + '.Z Q {.x x {.$.w ",
"d $.D.| K R.k.- *.,.e.= E ' 7 . . 7 ].C s..+.+.+.+.+.+)+_.h <.j.q+{ @.h.y + + '.Z Q {.x x K.P d ",
"d $.D.| K R.k.- *.,.e.= E ' ' . . . E D :..+.+.+.+.+.+l+b.i <.j.q+{ @.h.y + + '.Z Q {.x x K.P d ",
"w !.Z.| K R.k.- *.,.e.= E ' 7 . 7 l.5 s 6 .+.+.+.+.+.+< l 3 i [ q+{ @.h.y + + '.Z Q {.x x {.P d ",
"Y 6.3.| K R.k.- *.,.e.= E ' 7 ' n.z o++..+.+.+.+.+.+.+.+.+l+N.z.`.{ @.h.y + + '.Z Q {.x x x !.L ",
"@ M.Q.| K R.k.- *.,.e.= E ' E Z.z s r+.+.+.+.+! 2 $+.+.+.+.+l N.i P.@.h.y + + '.Z Q {.x {.^+6.S ",
"` N i | K R.k.- *.,.e.= E = l.[.J a .+.+.+.+) _ D >+#+.+.+.+.+=.3 z.A.h.y + + '.Z Q {.x {.[.9 k ",
"x+N h | G R.k.- *.,.e.= 4.8+; s #+.+.+.+.+f+] 9.r 7.t.++.+.+.+.+l z+z.A.y + + '.Z Q {.x Z ; N t ",
"^ w ; | G R.k.- *.,.= G.&+/+B f..+.+.+.+c ] z.m.&.u.C ~ $+.+.+.+.+4 3 z.W.+ + '.Z Q {.x Z 7.N A+",
"} t 6.l.| R.k.- *.,.G.b+z 3+#+.+.+.+.+X _ 9.U.f ~./.Q.D t.#+.+.+.+.+4 0+h { + '.Z Q {.x {.$.d ^ ",
"  & Y.h | R.k.- *.C.b+v 8 (+.+.+.+.+c ] *+. /.f ~.(.F.t+P ~ .+.+.+.+++2 3 e @.'.Z Q {.Z [.M.t } ",
"  @+B.6.l.| k.- - *.[.m+#+.+.+.+.+-._ ;.. &./.f ~.(.0.<.;.D n+5+.+.+.+.+=._.h + Z Q {.Z $.a.V   ",
"    ` N v | R.- G *+,+f..+.+.+.+-.] u.7 c.&./.f ~.(.0.[ 0.$ P :.< .+.+.+.+> $.:+'.Q + |.M.k }   ",
"    ^ w !.D.| - k.n.{+I..+.+.+) _ ;.7 c.c.&./.f ~.(.0.[ E.[ t+D ~ #+.+.+! ] [.+ Z Z '.$.N %.    ",
"      q.Y.z K k.&+1+8+J.m U ) ..v.E U.m.c.&./.f ~.(.0.[ M ).[ u.P :.+.: '+q { '.Z y 8.M.@ @+    ",
"        B N v G - ,.C.l.|.v+_ Q.' # U.m.c.&./.f ~.(.0.[ M ).i.y+$ ; R ] v { + '.y [.9 Y W       ",
"        }+d 9 ].| G.= C.l.h ].4.. # U.m.c.&./.f ~.(.0.[ M ).i.j.y+j.D v s++ + h.Q 6.N %.        ",
"          n w 6.9.G e.= 4.d.E . . # U.m.c.&./.f ~.(.0.[ M ).i.i.q+W.w+W.y + @.e+$.Y.o+<         ",
"            & Y.9 L.G ,.E ' ' . . # U.m.c.&./.f ~.(.0.[ M ).i.i.q+{ { h.y W. +b.N A             ",
"            < q.d 6.h e.C.' 7 . . # U.m.c.&./.f ~.(.0.[ M ).i.i.q+{ @.{ { [.b.N B ,             ",
"                o d N ; ' C.E . . # U.m.c.&./.f ~.(.0.[ M ).i.i.q+W.P.A.; M.Y.I                 ",
"                  ( @ Y.$.h r 4.' # U.m.c.&./.f ~.(.0.[ M ).i.y+[ W.[.P M.Y q.                  ",
"                     ./ d N b.5 4+' ' . . U.c.&././.f F.<.<.<.i.|.!.N Y.A j                     ",
"                        ^ % w Y.6.; H.g.O.j+g+g+~.0.E.g.T.}.; !.N d k &                         ",
"                            %+1.@ d N M.6.b.!.$.$.!.b.6.9 N Y.B.I 0 <                           ",
"                                @+6+/ % @ * S Y Y S B.k t H V #.                                "};
