/* XPM */
static const char * xpm_exercise_create[] = {
"64 64 257 2",
"  	c None",
". 	c #E3C346",
"+ 	c #BBBBBB",
"@ 	c #3862A2",
"# 	c #5EA2CC",
"$ 	c #BCAB66",
"% 	c #D1C597",
"& 	c #C3B2C0",
"* 	c #DFE5F7",
"= 	c #FAFAF9",
"- 	c #ECE7D4",
"; 	c #9CA1CC",
"> 	c #CABD8F",
", 	c #C1AA56",
"' 	c #CED1E7",
") 	c #2367AC",
"! 	c #E5DEC3",
"~ 	c #AC984A",
"{ 	c #AF6C71",
"] 	c #C6A735",
"^ 	c #E44B4B",
"/ 	c #8C93C2",
"( 	c #969CC8",
"_ 	c #848BBC",
": 	c #D0D3E7",
"< 	c #A5AAD0",
"[ 	c #EC5252",
"} 	c #E2E3EB",
"| 	c #1D4790",
"1 	c #DDDEED",
"2 	c #4285BC",
"3 	c #C5C8E1",
"4 	c #24549A",
"5 	c #5195C4",
"6 	c #DD4645",
"7 	c #C4BBC9",
"8 	c #EBEDFB",
"9 	c #285CA0",
"0 	c #68607A",
"a 	c #C3C6E1",
"b 	c #C6B679",
"c 	c #E6BE38",
"d 	c #969AB4",
"e 	c #7786B8",
"f 	c #B9A65A",
"g 	c #FDDA54",
"h 	c #D5D8EA",
"i 	c #DBBA3F",
"j 	c #B7BCE1",
"k 	c #C1C4DC",
"l 	c #F45A5B",
"m 	c #ACB1D6",
"n 	c #9399C6",
"o 	c #898B9A",
"p 	c #387BB6",
"q 	c #4268A5",
"r 	c #498ABE",
"s 	c #BA2A25",
"t 	c #8A0805",
"u 	c #992625",
"v 	c #85CEE3",
"w 	c #B39A3B",
"x 	c #74BBD9",
"y 	c #4B8DC0",
"z 	c #DADBE4",
"A 	c #667CB3",
"B 	c #881B1A",
"C 	c #A2A5BB",
"D 	c #442755",
"E 	c #878788",
"F 	c #F1F4FF",
"G 	c #A52725",
"H 	c #F6F3EA",
"I 	c #806D96",
"J 	c #4E90C2",
"K 	c #D3D5E8",
"L 	c #BEC2D9",
"M 	c #8F4956",
"N 	c #7BC2DD",
"O 	c #8E92B4",
"P 	c #945464",
"Q 	c #DADCEC",
"R 	c #E2E9FA",
"S 	c #C93735",
"T 	c #A0A4CE",
"U 	c #415A9A",
"V 	c #E0E2F0",
"W 	c #A74547",
"X 	c #E9EBF6",
"Y 	c #A2A2A5",
"Z 	c #A41915",
"` 	c #9C9DAA",
" .	c #B18C15",
"..	c #D1CDBF",
"+.	c #5A9EC9",
"@.	c #8F95C4",
"#.	c #335C9E",
"$.	c #6D2032",
"%.	c #4D618D",
"&.	c #3570AC",
"*.	c #65AED3",
"=.	c #DEE0EF",
"-.	c #B6BBDB",
";.	c #F5CF4C",
">.	c #CACDE4",
",.	c #A68A23",
"'.	c #165BA6",
").	c #CBCBDC",
"!.	c #2F73B2",
"~.	c #E2E4F1",
"{.	c #62A7CE",
"].	c #C8C0CC",
"^.	c #E9C13C",
"/.	c #6DB4D5",
"(.	c #E2E1E4",
"_.	c #919194",
":.	c #991B18",
"<.	c #8288A6",
"[.	c #4588BE",
"}.	c #989ECA",
"|.	c #EFCA45",
"1.	c #E4E5F1",
"2.	c #5498C6",
"3.	c #D1C0D0",
"4.	c #3E81BA",
"5.	c #D83C39",
"6.	c #DED6B5",
"7.	c #3A7DB8",
"8.	c #3276B4",
"9.	c #BEB486",
"0.	c #407BB3",
"a.	c #BEA238",
"b.	c #6C304C",
"c.	c #D8DAEC",
"d.	c #9CA5D2",
"e.	c #FAF9F4",
"f.	c #938038",
"g.	c #BDC1E3",
"h.	c #A8AED3",
"i.	c #3578B5",
"j.	c #B27C86",
"k.	c #B0211C",
"l.	c #D4D4D4",
"m.	c #946075",
"n.	c #B2B3BA",
"o.	c #D6413E",
"p.	c #B99929",
"q.	c #E5E7F4",
"r.	c #2B6CAE",
"s.	c #D6CCA2",
"t.	c #BCA445",
"u.	c #DFB228",
"v.	c #D5DDF1",
"w.	c #D7D9EA",
"x.	c #CACEEA",
"y.	c #C6C8DA",
"z.	c #FEDE58",
"A.	c #FA5C5D",
"B.	c #E7E8F4",
"C.	c #888EBF",
"D.	c #BBBEDD",
"E.	c #D9D5CC",
"F.	c #CFAE36",
"G.	c #A53638",
"H.	c #C2AE5E",
"I.	c #A8933D",
"J.	c #DCDBDC",
"K.	c #AE9227",
"L.	c #6986B7",
"M.	c #BABDD5",
"N.	c #5999C5",
"O.	c #C4C5D7",
"P.	c #4A77AC",
"Q.	c #1E61A9",
"R.	c #8D0C07",
"S.	c #BC302D",
"T.	c #EF5555",
"U.	c #E2E5F5",
"V.	c #9DA0B8",
"W.	c #C5322E",
"X.	c #A2A8D2",
"Y.	c #DEDBD2",
"Z.	c #5B74AD",
"`.	c #B1B6D6",
" +	c #4581B6",
".+	c #BF3837",
"++	c #D6D7E4",
"@+	c #DEDFE7",
"#+	c #C9CCE3",
"$+	c #E2DABE",
"%+	c #8B130F",
"&+	c #EDF0FE",
"*+	c #A48D2F",
"=+	c #FBD550",
"-+	c #9E841F",
";+	c #C36164",
">+	c #579BC8",
",+	c #C9C1A3",
"'+	c #F8F6F0",
")+	c #557BB5",
"!+	c #455FA0",
"~+	c #D0B23C",
"{+	c #CCCFE5",
"]+	c #C7CBE3",
"^+	c #F2EEE1",
"/+	c #F25758",
"(+	c #3C76AF",
"_+	c #576BA5",
":+	c #95110D",
"<+	c #19408B",
"[+	c #CFD1E0",
"}+	c #4B87B9",
"|+	c #D0C9B2",
"1+	c #FB5E60",
"2+	c #901F1E",
"3+	c #F6F7FF",
"4+	c #FE6061",
"5+	c #CBA11B",
"6+	c #939ED0",
"7+	c #C1A9B6",
"8+	c #3C427A",
"9+	c #C09CA8",
"0+	c #E23734",
"a+	c #9197C7",
"b+	c #85394B",
"c+	c #CB9F23",
"d+	c #D8AF2F",
"e+	c #B58D96",
"f+	c #DBDDEA",
"g+	c #4880B4",
"h+	c #CDC6D7",
"i+	c #AE2E2D",
"j+	c #E84F4F",
"k+	c #DAD0AC",
"l+	c #2F7ABC",
"m+	c #797A7F",
"n+	c #DFE2F5",
"o+	c #D7D9DC",
"p+	c #4C9FD2",
"q+	c #1F4D95",
"r+	c #8390C3",
"s+	c #B89AA6",
"t+	c #8499C2",
"u+	c #8E91A5",
"v+	c #8B9FC5",
"w+	c #B0B8DB",
"x+	c #C4C9E9",
"y+	c #F0D04E",
"z+	c #AF9F5D",
"A+	c #452F5E",
"B+	c #7D83A1",
"C+	c #6C81A9",
"D+	c #A05C63",
"E+	c #BCAD73",
"F+	c #C0AF6E",
"G+	c #C7CBE6",
"H+	c #FFFFFF",
"                                    '+F+e.                                                                                      ",
"                                    '+I.H                                                                                       ",
"                                    ^+*+^+                                                                                      ",
"                  =                 ! -+-                 =                                                                     ",
"                  b s.              s.,.$+              > %                                                                     ",
"                  - *+b             > p.6.            F+I.^+                                                                    ",
"                    ! ,.f ^+        b ~+s.        H $ *+-                                                                       ",
"                      6.K.t.-       F+. %       - w K.-                                                                         ",
"                        % ] a.$+    f y+b     k+a.F.%                                                                           ",
"                          b . ] s.= , g H.  % F.c E+                                                                            ",
"                          e.f y+. ~ a.z.I.~ . |.f._.E E E E E E E E E E E E E E E E E E m+Y                                     ",
"                            ^+t.z.. ~+z.] . |.f } X X X B.B.1.} } V =.@+1 f+f+w.w.++++h [+0 Y                                   ",
"                      = '+- - 9.K.g z.g g g p.9.Y.Y.(.X 8 F F F &+8 B.B.q.U.~.V V =.=.=.[+O <._.=                               ",
"          ! s.% > b H.t.] ] F.~+i y+z.g z.;.i F.] ] ] a., F+9.> ,+..1.~.V =.=.1 f+Q Q Q ).<.m O _.                              ",
"          s.$ f w w t.~+~+i . y+y+=+g g g =+|.^.u.d+F.] a.w I.z+z+,+1.V =.=.1 1 Q Q c.Q ).<.X.j d Y                             ",
"                  = = '+- 6.% f ,.y+z.g g ;.K.E+> |+E.(.(.1.q.q.X U.V =.=.1 f+Q Q c.w.c.).<.X.m x+u++                           ",
"                            = $ |.;.i g F.|.c E+F &+8 X X B.q.1.~.V =.=.=.f+Q Q c.w.h w.y.<.X.m -.: ` Y                         ",
"                            b . |.w a.=+w w ^.d+9.8 X B.q.1.1.~.V =.=.1 f+Q Q c.w.h K h y.<.X.m -.3 n+Y Y                       ",
"                          s.~+^.f Y., |.H.J.f u.c+,+&+q.1.1.~.V =.=.1 1 Q Q c.w.h K K K y.B+d.< `.k {+8 Y n.                    ",
"                        ! ] ~+z+J.3+f c F+3+(.F+c+p.|+X U.~.V =.=.1 f+Q Q w.w.h K K : : #+o u+O ` d V.C n.m+(.                  ",
"                      - w a.6...V F H.u.> F 8 8 ,+ .,.J.R V =.=.1 f+Q Q c.w.h K K : : ' ' ]+y.3 3 y.k k 3 C l.                  ",
"                    '+~ *+!   + } 3+F+5+> &+B.B.8 ..,.~ =.U.1 1 f+Q Q c.w.h K K : : ' ' {+{+{+>.#+]+3 3 x.C l.                  ",
"                  e.~ f H     + } 3+b  .,+&+B.q.U.X z I.~ 1 =.f+Q Q c.w.h K K K : ' ' {+{+>.]+]+3 3 3 a G+C l.                  ",
"                  b F+=       + @+3+%  .|+8 q.1.~.~.U.V z+9.* c.1 v.v.w.K K K : ' {+{+{+>.]+]+3 3 3 a a G+C l.                  ",
"                  ^+=         + @+F |+-+..8 1.~.~.V U.3.;+{ c.R [+{ { h+h K : ' ' {+{+>.#+]+]+3 3 a a k D.C l.                  ",
"                              + @+F Y.-+E.B.~.~.V V R { 0+o.e+s+9+0+0+j.v.: ' ' {+{+>.]+]+]+3 a a a L ; < C l.                  ",
"                              + z &+(.*+J.q.~.V =.=.1.7+;+W G.i+D+;+;+& h ' ' {+{+>.]+]+3 3 a a 3 D.; _ < C l.                  ",
"                              + z 8 (.z+@+1.V =.=.1 f+R 7 W ^ A..+{ ' v.' ' {+{+>.]+]+3 3 3 3 k `.( O C.< C l.                  ",
"                              + z X ~.J.V V =.=.1 f+* ].W 6 1+l l .+{ : : {+{+>.]+]+]+3 3 k -.T n @./ C.< V.l.                  ",
"                              + z B.1.U.V =.=.1 f+* ].W ^ 1+l l l /+S D+' ' >.#+#+]+3 D.m T ( n n @./ C.< V.l.                  ",
"                              + ++B.~.V =.=.1 Q * ].W j+1+l l l /+/+/+.+{ ' x.3 D.m < ; }.( ( n n @.O _ X.V.l.                  ",
"                              + ++q.V =.=.1 Q * & W 6 1+A.l l l /+T.T.[ S.m.h.h.T ; ; ; }.( ( n a+/ / _ T V.l.                  ",
"                              + ++q.=.1 1 Q * & G.j+1+l l l l /+/+T.[ j+^ s M T X.; ; }.}.( n a+@./ C._ T V.l.                  ",
"                              + [+1.=.1 Q * & u j+4+l l l l /+/+T.[ j+^ 6 o.k.M ; d.}.}.( ( a+@.@./ C._ T V.l.                  ",
"                              + [+~.1 Q * ].W B G j+A.l l /+/+/+[ [ ^ ^ o.S.2+%+P d.; ( ( n a+@./ C.C._ T d l.                  ",
"                              + [+V Q R 7+G.^ j+G B .+l l T.T.[ [ j+^ o.u B G k.:+M }.6+n a+@./ / C._ _ ; d l.                  ",
"                              + [+=.R 7+G.^ l l l .+B i+j+/+[ j+j+^ .+2+2+s s Z :+t M n ( @./ / C.C._ e ; d l.                  ",
"                              + [+R 7+G.6 /+T.T.T./+6 2+2+o.[ j+6 i+B u S.s k.:.t t t M a+a+/ / C._ _ e ; d l.                  ",
"                              + K & G.6 [ j+[ [ [ [ [ ^ i+B i+.+u 2+i+W.s Z :+R.R.t t t b+C./ C._ C.e e ; d l.                  ",
"                              + & u o.^ ^ ^ ^ ^ j+^ ^ ^ j+.+B B 2+S W.s G 0 %.$.t t t $.%._+C.C.C.e )+P._ d l.                  ",
"                              + O.{ S.o.6 6 6 6 6 6 6 6 S u 2+2+B G s k.b.*.p+#.t t t g+*.&.A C._ L.{.[.)+O l.                  ",
"                              + [+' M s 5.5.o.o.o.o.o.i+B 2+S.W.G B 2+:+b.4.l+8+t t t %.4.Q.A C._ A 4.) )+O l.                  ",
"                              + ).' -.P k.W.S S S S.u B G S.s k.k.Z :+B R.$.$.t t t 2+I A e C._ _ e Z._+a+d o+                  ",
"                              + ).>.-.w+P Z s s G 2+B k.s k.b.A+A+D D A+A+D D D D D 8+q !+!+U U U U U U !+!+A e e L.v+          ",
"                              + y.G+`.w+`.m.:.:.B :.k.Z Z Z A+7.+.2.5 J J y y r r [. +0.0.0.(+(+(+(+&.&.&.r.&.&.&.r.q           ",
"                              + y.G+m m m w+m.%+:+:+:+R.R.t D +.v v v N N N x x /./.*.*.{.{.# # +.>+5 5 J y r [.[.4.q           ",
"                              + y.3 m m h.m < P t t t t R.t D 2.v N N x x x /./.*.*.{.{.# # +.>+2.5 J y r [.2 2 4.7.q           ",
"                              + O.3 h.h.h.h.h.X.P t t t R.t D 5 v N x x x /.{.+.+.N.N.5 5 J J r r [.2 r r 2 2 4.7.p q           ",
"                              + O.a h.h.< < X.X.X.m.%+t R.t D 5 N x x x y 4 | | | | | | | | | | | | | q+@ 4.4.7.p i.q           ",
"                              + k a < < < X.T T d.X.m.R.t t D J N x x g+<+#.}+J y }+}+}+ + + +0.0.0.&.9 <+q+7.p p 8.q           ",
"                              + L k X.< X.T T ; ; d.6+P t t D y N x 5 <+g+*.*.{.{.# +.>+>+5 5 J y r [.[.&.| 9 p i.!.q           ",
"                              + L g.X.T T T T ; }.}.}.( P R.D y x *.4 #.*.{.{.# +.>+2.5 5 J y r [.2 4.4.4.r.<+r.8.r.q           ",
"                              + L g.T T T ; ; ; }.( ( ( 6+m.A+r x 5 <+5 *.# # +.>+2.5 5 J y r [.2 4.4.7.p i.| 9 !.r.q           ",
"                              + L D.T T ; ; }.}.( ( n a+a+a+U  +x }+q+# {.# +.>+2.5 5 J y r [.2 2 4.7.p i.i.q+4 !.r.q           ",
"                              + M.D.; ; ; }.}.( ( n a+a+@.a+!+ +/.}+| N.# +.>+2.2.J J y r [.2 4.4.7.p i.8.!.q+4 r.) q           ",
"                              + M.-.}.}.}.( ( n n a+a+@./ @.!+0./.N.<+(+# >+2.5 5 y y r [.2 4.4.7.p i.8.!.r.| 9 r.) q           ",
"                              + M.-.( ( ( ( n a+a+@./ / / / U 0.*.{.@ | 2.+.5 5 J y r [.2 4.4.7.p i.8.8.!.4 | ) ) Q.q           ",
"                              + M.-.( ( ( n n @.@.@./ / / / U 0.{.# 5 4 4  +J J J y [.[.2 4.7.7.p i.!.r.4 <+Q.) ) Q.q           ",
"                              + k x.x+a a g.g.g.g.j j j j j _+(+{.+.+.J 4 <+| 9 9 9 9 9 4 4 4 4 4 4 | <+| Q.) Q.Q.Q.q           ",
"                              ].o o o o u+o o o o o o o o o U 0.# >+2.2.5 (+9 4 4 4 4 4 4 4 q+4 q+q+4 9 ) ) ) Q.Q.'.q           ",
"                              = = = = = e.= = = = = = = =   C+0.# 2.5 5 J J y r 2 2 4.7.p p 8.!.!.r.r.) ) ) Q.Q.'.'.q           ",
"                                                            e 0.+.5 5 J y r [.2 2 4.7.p i.8.!.!.r.r.) ) ) Q.Q.'.'.'.q           ",
"                                                            e (+2.J J r [.2 2 4.7.p p i.8.!.r.r.r.) ) Q.Q.Q.'.'.'.'.q           ",
"                                                            t+#.q q q q q @ q @ q @ @ @ @ @ @ @ @ @ #.@ #.#.@ #.#.4 Z.          "};
