/* XPM */
static const char * xpm_exercise_start[] = {
"64 64 257 2",
"  	c None",
". 	c #656B8A",
"+ 	c #8C93C2",
"@ 	c #601924",
"# 	c #C9E7B5",
"$ 	c #CED1E6",
"% 	c #9CA2CC",
"& 	c #72B9D8",
"* 	c #4585BB",
"= 	c #969BC8",
"- 	c #B4E29C",
"; 	c #B37278",
"> 	c #DCDEEE",
", 	c #E34A49",
"' 	c #838BBC",
") 	c #BABBC3",
"! 	c #265499",
"~ 	c #70C059",
"{ 	c #66BB51",
"] 	c #A5A9D1",
"^ 	c #C5C8E2",
"/ 	c #E0E1EF",
"( 	c #ED5353",
"_ 	c #9E798F",
": 	c #CDC5D4",
"< 	c #E5E6F1",
"[ 	c #356B8C",
"} 	c #CB3735",
"| 	c #7C7C7E",
"1 	c #999BA9",
"2 	c #A2A6CF",
"3 	c #DC4645",
"4 	c #33972A",
"5 	c #9598B4",
"6 	c #954247",
"7 	c #871B1A",
"8 	c #E9EAF4",
"9 	c #EDEDF5",
"0 	c #6C7BB4",
"a 	c #B9B9BA",
"b 	c #F45A5B",
"c 	c #29386F",
"d 	c #407690",
"e 	c #95282C",
"f 	c #DCE2F3",
"g 	c #7A82B9",
"h 	c #98D37D",
"i 	c #D1D2E5",
"j 	c #3D77B0",
"k 	c #90576A",
"l 	c #C2C6E0",
"m 	c #2A5173",
"n 	c #B62925",
"o 	c #D5F0C4",
"p 	c #9299C6",
"q 	c #D6D8EA",
"r 	c #F1F1F8",
"s 	c #A8A8AA",
"t 	c #355428",
"u 	c #84CA6A",
"v 	c #BC858E",
"w 	c #6AB2D5",
"x 	c #ACB1D5",
"y 	c #A2D886",
"z 	c #195AA4",
"A 	c #4A91C6",
"B 	c #F4F5F9",
"C 	c #8A0805",
"D 	c #5DA1CB",
"E 	c #BFE5AA",
"F 	c #BE949E",
"G 	c #F0F0F7",
"H 	c #E1E2F0",
"I 	c #7C8099",
"J 	c #A82928",
"K 	c #79C0DC",
"L 	c #1A4A95",
"M 	c #488BC0",
"N 	c #BFC2DC",
"O 	c #A9AED3",
"P 	c #A6B4D2",
"Q 	c #66ABD1",
"R 	c #CACDE3",
"S 	c #9C9FB2",
"T 	c #1C539C",
"U 	c #B3B4BD",
"V 	c #E6E8F3",
"W 	c #D5DCF0",
"X 	c #F9F9FD",
"Y 	c #9096C5",
"Z 	c #565B6C",
"` 	c #DBDCEC",
" .	c #D8DAEC",
"..	c #A4A5B3",
"+.	c #2A5B9E",
"@.	c #D2D4E8",
"#.	c #5A9DC9",
"$.	c #989ECA",
"%.	c #E2E4F1",
"&.	c #2164AB",
"*.	c #8A91BE",
"=.	c #4263A1",
"-.	c #4D8599",
";.	c #A21B18",
">.	c #305351",
",.	c #D8D9EB",
"'.	c #AFB9E2",
").	c #BA3534",
"!.	c #65826D",
"~.	c #BAC5E2",
"{.	c #40AA33",
"].	c #991B19",
"^.	c #A0555A",
"/.	c #649B4B",
"(.	c #EEEFF7",
"_.	c #C5C5C6",
":.	c #D4D6E8",
"<.	c #61A6CE",
"[.	c #FFFFFF",
"}.	c #9BA5D1",
"|.	c #366CAB",
"1.	c #83868E",
"2.	c #B0B4D6",
"3.	c #EBECF9",
"4.	c #B0221D",
"5.	c #53B142",
"6.	c #D23B39",
"7.	c #AADC91",
"8.	c #878EC0",
"9.	c #2E74B8",
"0.	c #D64140",
"a.	c #919191",
"b.	c #3A5C9B",
"c.	c #5B8751",
"d.	c #18428D",
"e.	c #B4B9D9",
"f.	c #E4F9D3",
"g.	c #2469AE",
"h.	c #DEDFEF",
"i.	c #84CEE3",
"j.	c #ACADBA",
"k.	c #434F5D",
"l.	c #82A172",
"m.	c #5599C6",
"n.	c #4F77AC",
"o.	c #E8E8E8",
"p.	c #AFB5DA",
"q.	c #5094C4",
"r.	c #49B43A",
"s.	c #1B61A9",
"t.	c #6E8AC0",
"u.	c #E2E9FA",
"v.	c #163D8A",
"w.	c #F6F6FC",
"x.	c #AFAFB0",
"y.	c #3871AE",
"z.	c #2D6AAB",
"A.	c #CBCFE9",
"B.	c #EF5656",
"C.	c #296DB0",
"D.	c #F75B5C",
"E.	c #EEEEF3",
"F.	c #C7CAE3",
"G.	c #D1D6EC",
"H.	c #3D80BA",
"I.	c #910C08",
"J.	c #B5B9D6",
"K.	c #A55F66",
"L.	c #EBEBF5",
"M.	c #C43230",
"N.	c #4B9937",
"O.	c #589AC7",
"P.	c #2A4F95",
"Q.	c #E6E7F6",
"R.	c #2A5A81",
"S.	c #848CA2",
"T.	c #B2B6D6",
"U.	c #DBDCE9",
"V.	c #7AC661",
"W.	c #DFE6F7",
"X.	c #B9C0DC",
"Y.	c #95677D",
"Z.	c #CCCEE5",
"`.	c #549ACC",
" +	c #ABACB7",
".+	c #9FA5CF",
"++	c #AEB0BA",
"@+	c #2F62A0",
"#+	c #EAEAF0",
"$+	c #4AAD3B",
"%+	c #C9CCE4",
"&+	c #8F91A2",
"*+	c #DDDEEA",
"=+	c #D1CBDA",
"-+	c #4F8DBD",
";+	c #394C82",
">+	c #95211F",
",+	c #98130F",
"'+	c #F0F2FD",
")+	c #1C436E",
"!+	c #E0E2F5",
"~+	c #A4ACD7",
"{+	c #F25859",
"]+	c #FE6062",
"^+	c #E95050",
"/+	c #D5D8EE",
"(+	c #225FA5",
"_+	c #5DB649",
":+	c #8ECF73",
"<+	c #FC5E60",
"[+	c #CED2EA",
"}+	c #A8AAB9",
"|+	c #516A63",
"1+	c #D8D9E8",
"2+	c #7DAF62",
"3+	c #436058",
"4+	c #F2FBE4",
"5+	c #385E70",
"6+	c #8BD46E",
"7+	c #91D374",
"8+	c #C8BCCD",
"9+	c #5290BF",
"0+	c #7FC6DF",
"a+	c #B2D397",
"b+	c #549ED3",
"c+	c #89100E",
"d+	c #DEDEDE",
"e+	c #5B4C73",
"f+	c #23428C",
"g+	c #606390",
"h+	c #F3F3FA",
"i+	c #E64D4D",
"j+	c #A8B1DD",
"k+	c #BB2F2D",
"l+	c #5AA740",
"m+	c #7F9581",
"n+	c #56B844",
"o+	c #5EB642",
"p+	c #91A088",
"q+	c #6174AF",
"r+	c #BC2C28",
"s+	c #5897C3",
"t+	c #C49EA9",
"u+	c #BACFA4",
"v+	c #2865AB",
"w+	c #C1C6E9",
"x+	c #B8BCD8",
"y+	c #F8F8F8",
"z+	c #4D81B5",
"A+	c #FCFCFE",
"B+	c #D0D3EF",
"C+	c #61BC4C",
"D+	c #397031",
"E+	c #919BCC",
"F+	c #9EA2B8",
"G+	c #979FCE",
"H+	c #FFFFFF",
"                | | | | | | | | | | | | | | | | | | | | | | | | | | | | | | | | | | a.                                          ",
"                a y+B B r G G E.E.E.9 #+#+#+#+< < < %.H / / *+*+*+U.U.1+1+1+:.:.1+) k.1                                         ",
"                _.[.[.A+A+X X X w.w.B h+h+r G G (.9 9 L.8 8 V V Q.%.%.H H / h.> !+) . I s                                       ",
"                _.[.X X w.w.B B h+r G G (.9 9 L.L.8 V V < < %.%.H / h.h.> ` `  .> ) . '.I s                                     ",
"                ) [.X w.w.B B h+r r G (.E.9 L.8 8 V V < %.%.H H / h.h.> ` `  . .> ) . ~+p.I x.                                  ",
"                ) [.w.w.B B h+r G G (.9 9 L.8 8 V V < < %.%.H / h.h.> ` `  .,.q ` ) . ] O w+| U                                 ",
"                ) [.w.B B h+r r G (.9 9 L.L.8 V V < < %.%.H / h.h.> ` `  . .q q W U . ~+O e.A.1._.                              ",
"                ) [.B B h+r r G (.E.9 L.8 8 V V < %.%.H H / h.h.> ` `  . .q q :. .U . ~+O e.l [+1._.                            ",
"                ) [.B h+r G G (.9 9 L.8 8 V V < < %.%.H / h.h.> ` `  .,.q q :.:./+U . ~+O e.N A.!+1.d+                          ",
"                ) A+h+r r G (.9 9 L.8 8 V V < < %.%.H / h.h.> ` `  . .q q :.:.@./+U . j+p.X.F.[+!+'+| o.                        ",
"                ) A+r r G (.E.9 L.L.8 V V < %.%.H H / h.h.> ` `  . .q q :.@.@.@./+j.Z I I I S.&+1 s 1 Z o.                      ",
"                ) X G G (.9 9 L.8 8 V V < < %.%.H / h.h.> ` `  . .q q :.:.@.@.i G.N 1.I &+&+&+&+&+&+1 | a                       ",
"                a X G (.9 9 L.8 8 V V < < %.%.H / h.h.> ` `  . .,.q :.:.@.@.i $ $ [+/+/+B+@.[+[+A.A.B+}+a                       ",
"                a X (.E.9 L.L.8 V V < %.%.H H / h.h.> ` `  . .q q q @.@.@.i $ $ $ Z.Z.R %+F.F.^ ^ l %+F+a                       ",
"                a w.9 9 L.8 8 V V < < %.%.H / h.h.> ` `  . .q q q :.@.@.i $ $ $ Z.Z.R %+F.F.^ ^ l l F.F+a                       ",
"                a w.9 L.8 8 V V < < %.%./ H u.u.h.` ` ` f f /+q :.@.@.i $ $ $ Z.Z.R %+F.F.^ ^ l l l F.F+a                       ",
"                a w.L.L.8 V V < < %.H H H > t+F 1+> ` W t+v i q @.@.i $ $ $ Z.R R F.F.F.^ ^ l l l l ^ F+a                       ",
"                a '+8 8 V V < %.%.H H / W.v } 6.t+` f v } 6.v W @.i $ $ $ Z.R R F.F.F.^ ^ l l l l O e.F+a                       ",
"                U '+8 V V < < %.%.H / h.%.; 6., ; ^.; ; 6., v W i $ $ Z.Z.Z.R %+F.F.^ ^ l l l l x *.2.F+a                       ",
"                U '+V V < < %.%.H / h.h.f =+; K.e 0.).^.; K.8+@.$ $ $ Z.Z.R %+F.F.^ ^ l l l N ] *.*.2.F+a                       ",
"                U '+V < %.%.H H / h.h.> ` u.=+6 3 <+<+).K./+W $ $ $ Z.R R F.F.F.^ ^ ^ ^ l 2.% + *.*.2.F+a                       ",
"                U (.< < %.%.H / h.h.> ` f : ^.6.<+b b D.).K.Z.G.$ Z.Z.R %+F.F.^ ^ ^ l e.] p Y Y + *.2.S a                       ",
"                U (.< %.%.H / h.h.> ` f i 6 6.]+D.b b b D.k+K.[+[+R R %+F.F.F.^ l T.% = p p Y Y *.*.2.S a                       ",
"                ++(.%.H H / h.h.> ` W.: 6 0.<+D.b b b {+{+{+k+^.[+[+R R ^ N 2.O .+$.$.= = p Y + *.*.x S a                       ",
"                ++3.%.H / h.h.> ` f : ^.6.<+D.D.b b b {+B.B.( k+K.N N e.O .+% % % $.$.= = Y Y + *.8.x S a                       ",
"                ++3.H / h.h.> ` f i 6 6.<+D.D.b b b {+{+B.( ^+i+n k ~+.+.+% % % % $.= = p Y + + *.8.x 5 a                       ",
"                ++8 / h.h.> ` f q ^.0.<+D.b b b b {+{+B.( ( i+, 3 n k ] .+% % % $.$.= p p Y + *.*.' x 5 a                       ",
"                j.Q.h.h.> ` f i ^.k+]+D.b b b b {+{+B.B.( ^+i+3 3 6.].k }.}.$.$.$.= = p Y + + *.8.' O 5 a                       ",
"                j.Q.h.> ` h.q ^.c+7 3 <+D.b b {+{+B.B.( ^+i+, 3 0.J 7 7 k }.G+$.= = p Y Y + + *.8.' O 5 a                       ",
"                 +Q.> ` f q ^.} i+J 7 ).( D.{+{+B.B.( ^+i+, , } >+7 >+4.,+k G+G+= p p Y + + *.8.' ' O 5 a                       ",
"                 +Q.` f i ^.M.D.b {+J 7 e 3 {+B.( ( ^+i+, , ).>+7 J n ;.,+c+k G+E+p Y Y + *.8.8.' ' ] 5 a                       ",
"                 +%.f q ^.M.b B.B.{+b 3 7 7 ).( ( ^+i+i+3 J 7 >+k+r+4.;.I.C c+k E+E++ + + *.8.' ' ' ] 5 a                       ",
"                 +u.Z.^.M.( ( ( ( ( B.B.i+J 7 e 0.^+i+).>+7 J M.r+4.;.,+C C C C k p Y + *.8.8.' ' g ] 5 a                       ",
"                ++=+6 M.^+i+^+^+^+^+^+^+^+^+0.>+7 J J 7 >+).M.r+4.;.I.C @ @ C C C 6 8.+ 8.8.' ' g g ] 5 a                       ",
"                }+K.n , , , , , i+i+i+i+i+, i+0.>+7 7 J } M.r+4.e g+k.@ 4 4 t @ e+=.g+8.8.8.' 0 z+n.G+5 a                       ",
"                j.F ;.6.3 0.3 3 , 3 , 3 3 3 0.J 7 >+7 7 J n 4.].n.w A )+4 {.{.D+d #.9.0 8.8.0 z+w H.t.5 a                       ",
"                }+f _ J } 6.0.0.0.0.0.0.0.).>+7 J M.r+>+7 >+;.c+|.b+9.)+4 {.r.n+N.>.T 0 8.' g j M &.t.5 a                       ",
"                ..W ~.Y.J M.} } 6.6.6.} k+7 7 n M.r+n 4.].7 7 I.@ ;+;+@ 4 {.$+5.C+l+>.. 8.' ' q+|.@+E+5 a                       ",
"                ../+e.~._ ].r+M.M.M.k+>+7 >+r+r+n J ;.;.,+c+7 7 7 C C @ 4 {.$+5._+{ V.D+e+g g g 0 0 G+S.) X X X X A+            ",
"                ../+e.e.p._ >+4.n J 7 7 ;.n 4.4.e c c c c c c c f+c c c 4 {.$+5._+{ ~ u /.>.f+P.P.P.P.P.b.=.=.=.=.0             ",
"                ..G.e.2.2.'.Y.].].7 7 ;.4.;.,+;.@ ! <.Q <.<.D #.#.O.m.d 4 {.$+5._+{ ~ V.6+2+>.@+* j j y.j j y.y.@+b.            ",
"                ..G.T.2.2.x '._ c+c+,+,+,+I.I.I.@ b.i.i.i.0+0+0+K K K -.4 {.$+5._+{ ~ V.u 7+h c.[ q.A M M M * * y.=.            ",
"                ..G.2.x x O O O _ 7 C C C C C C @ +.0+0+K K K & & & & -.4 {.$+5._+{ ~ V.u :+h y l.5+H.M * * H.H.z.=.            ",
"                ..[+x x O O O ~+j+Y.c+C C C C C @ +.K 0+K K & & & & & -.4 {.$+5._+{ ~ V.u :+h y - 2+5+y.* H.H.H.z.=.            ",
"                ..[+x O O O ] ] ] ~+k c+C C C I.@ +.K K K & & & w 9+y.m 4 {.$+5._+{ ~ V.u :+h y 7.E a+|+@+H.H.H.z.=.            ",
"                ..A.x O ] ] ] 2 2 2 .+Y.C C C I.@ +.K K & & & -+P.v.L )+4 {.$+5._+{ ~ V.u :+h y 7.- # E m+R.9.H.z.=.            ",
"                S A.O ] ] ] 2 .+.+% }.% k c+C I.@ +.& & & & z+v.! z+<.-.4 {.$+5._+{ ~ V.u :+h y 7.- E # f.p+5+C.z.=.            ",
"                S A.O ] ] 2 2 .+% % G+% }.k c+C @ P.& & & D v.+.Q Q Q -.4 {.$+5._+{ ~ V.u :+h y 7.- E # o f.# k.T =.            ",
"                S A.] 2 2 .+.+.+% % G+$.G+G+k I.@ ! & & w ! P.D Q <.Q d 4 {.$+5._+{ ~ V.u :+h y 7.- E # o o 4+4+Z ;+            ",
"                S %+] 2 .+% % % % $.$.= = = E+Y.@ +.w & s+v.z+w <.D <.d 4 {.$+5._+{ ~ V.u :+h y 7.- E # o f.f.1.R.b.            ",
"                S F.2 .+% % % $.$.$.= = p Y E+G+g+P.Q & -+d.-+Q D D <.d 4 {.$+5._+{ ~ V.u :+h y 7.- E # o # !.d.(+=.            ",
"                S F..+.+% % % $.$.= = p p Y Y E+0 ! Q w * d.9+<.D #.D d 4 {.$+5._+{ ~ V.u :+h y 7.- E o u+k.T 9.(+=.            ",
"                S ^ % % % $.$.$.= = p p Y Y Y Y 0 ! Q w -+v.* <.#.#.b+d 4 {.$+5._+{ ~ V.u :+h y 7.- # m+)+v.C.g.(+=.            ",
"                S l % $.$.$.$.= = p Y Y Y Y + Y 0 ! <.Q O.d.@+<.O.m.`.d 4 {.$+5._+{ ~ V.u :+h y - 7.!.)+v.T g.g.z =.            ",
"                S ^ $.$.$.= = = p p Y Y + + + + q+! <.<.<.|.v.j D m.`.d 4 {.$+5._+{ ~ V.u :+h 7.y 3+T (+v.(+g.g.z =.            ",
"                1 w+= p p p Y Y + + + *.8.8.8.8.q+! D <.D #.! v.y.q.`.d 4 {.$+5._+{ ~ V.u :+y 2+5+(+! d.T g.&.&.z =.            ",
"                S F.x O O ~+O ] ] ] 2 .+.+.+% 2 g ! D D #.D -+! v.! y.R.4 {.$+5._+{ ~ V.6+7+c.)+T L d.T g.&.s.&.z =.            ",
"                &+l X.x+x+x+x+J.J.J.T.T.2.2.2.J.' ! #.D O.m.m.q.y.L d.)+4 {.$+5._+{ ~ u V.t c v.d.L (+g.g.&.s.s.T =.            ",
"                s s s s s s s s s s s s s s s s S.! O.#.m.m.q.q.q.M H.R.4 {.$+5._+{ V./.>.T &.v+v+g.g.&.&.s.s.s.T =.            ",
"                                                R ! O.O.m.q.q.-+M M A [ 4 {.$+5.C+{ c.>.g.9.C.C.C.g.&.&.s.s.z s.T =.            ",
"                                                l ! m.m.q.q.A M M M M [ 4 {.$+n+o+D+R.9.9.C.C.g.g.&.&.s.s.s.z z T =.            ",
"                                                l ! q.m.q.q.9+M M * M [ 4 {.r.N.>.@+9.C.C.C.g.g.g.&.s.s.s.z z z T @+            ",
"                                                ~.L @+@+@+@++.@++.+.(+m 4 {.4 )+L (+T ! T T T T L T L L L L L L L b.            ",
"                                                V P P P P P P P P P P S.D+t 1.O P P P P P P P P P P P P P P P P P X.            "};
