/* XPM */
static const char * xpm_exercise_restart[] = {
"64 64 257 2",
"  	c None",
". 	c #35A32C",
"+ 	c #9CA2CC",
"@ 	c #CDD1E6",
"# 	c #8C93C2",
"$ 	c #2B7C2A",
"% 	c #49AC3A",
"& 	c #CACDE3",
"* 	c #D2D5EA",
"= 	c #DD4644",
"- 	c #959BC9",
"; 	c #DCDEEE",
"> 	c #D6EFC5",
", 	c #E0E2EF",
"' 	c #A1A6CD",
") 	c #C7C8DA",
"! 	c #848BBC",
"~ 	c #A8A8AA",
"{ 	c #D6DAF2",
"] 	c #D5D8EA",
"^ 	c #6FC058",
"/ 	c #A46269",
"( 	c #E44B4A",
"_ 	c #DCE1F3",
": 	c #2366AC",
"< 	c #E4E5F1",
"[ 	c #ED5353",
"} 	c #C83938",
"| 	c #934952",
"1 	c #1B4C96",
"2 	c #F45A5B",
"3 	c #EDEDF5",
"4 	c #C8EAB2",
"5 	c #4487BE",
"6 	c #D2D3E6",
"7 	c #3C79B2",
"8 	c #C5A6B2",
"9 	c #96D27C",
"0 	c #2E5773",
"a 	c #9B2424",
"b 	c #274E97",
"c 	c #2C8029",
"d 	c #B78F9B",
"e 	c #C6C9E2",
"f 	c #E9EAF4",
"g 	c #828386",
"h 	c #8D92B8",
"i 	c #7A83B9",
"j 	c #A1D886",
"k 	c #A5AAD0",
"l 	c #569AC9",
"m 	c #B82A25",
"n 	c #9399C7",
"o 	c #1659A4",
"p 	c #C3C6E1",
"q 	c #336494",
"r 	c #F2F2F8",
"s 	c #BEC3DE",
"t 	c #881A19",
"u 	c #1C3163",
"v 	c #4F6994",
"w 	c #DBDDEC",
"x 	c #A9AED3",
"y 	c #717CB4",
"z 	c #7C7D7E",
"A 	c #9DA7D4",
"B 	c #EFF0F7",
"C 	c #8D4F60",
"D 	c #8287A6",
"E 	c #F5F5FA",
"F 	c #E1E2F0",
"G 	c #B4E29C",
"H 	c #FEFEFF",
"I 	c #7A7B81",
"J 	c #215399",
"K 	c #A0565B",
"L 	c #3FAC32",
"M 	c #BEE6A8",
"N 	c #E1E9F8",
"O 	c #5695BF",
"P 	c #D9DBEC",
"Q 	c #96718B",
"R 	c #8A0905",
"S 	c #396379",
"T 	c #EAFBD9",
"U 	c #ADB1D4",
"V 	c #E7E9F3",
"W 	c #265AA2",
"X 	c #33594C",
"Y 	c #8F96C4",
"Z 	c #498DC3",
"` 	c #838699",
" .	c #3772AD",
"..	c #75111B",
"+.	c #F9FAFD",
"@.	c #BABEDA",
"#.	c #A92927",
"$.	c #73747D",
"%.	c #B1B5D5",
"&.	c #83C969",
"*.	c #79C560",
"=.	c #588A4B",
"-.	c #BDCDB0",
";.	c #D23B39",
">.	c #B55D61",
",.	c #989ECA",
"'.	c #9193A3",
").	c #6AB4D9",
"!.	c #EFF0FF",
"~.	c #A6B5D2",
"{.	c #52B141",
"].	c #4C6571",
"^.	c #DFDFEF",
"/.	c #B6B9D8",
"(.	c #EBEEFE",
"_.	c #4275A5",
":.	c #66A7C8",
"<.	c #A31B18",
"[.	c #49B53A",
"}.	c #878EBF",
"|.	c #B0221E",
"1.	c #183F8A",
"2.	c #285B8E",
"3.	c #4263A2",
"4.	c #B4B8D6",
"5.	c #B1BCE1",
"6.	c #81898C",
"7.	c #2E74B7",
"8.	c #E3E4F0",
"9.	c #D8DAEB",
"0.	c #773328",
"a.	c #326BA8",
"b.	c #286CB0",
"c.	c #B4DA98",
"d.	c #979797",
"e.	c #65BB50",
"f.	c #4E95C9",
"g.	c #63698D",
"h.	c #F5F6FE",
"i.	c #495958",
"j.	c #9A1B18",
"k.	c #77976E",
"l.	c #4C85A7",
"m.	c #F75B5D",
"n.	c #B2B7D9",
"o.	c #4D89B7",
"p.	c #B53535",
"q.	c #214888",
"r.	c #73BBDC",
"s.	c #5CA0CD",
"t.	c #C9C9C9",
"u.	c #F05656",
"v.	c #2E7423",
"w.	c #8BA675",
"x.	c #5776B5",
"y.	c #495485",
"z.	c #900907",
"A.	c #EEEEF3",
"B.	c #1C60A8",
"C.	c #5C160E",
"D.	c #C4322F",
"E.	c #A4ADDB",
"F.	c #5CB548",
"G.	c #B92F2D",
"H.	c #F7F7FC",
"I.	c #E1E5F8",
"J.	c #298220",
"K.	c #661627",
"L.	c #6B6D7A",
"M.	c #4D9F37",
"N.	c #3C80BA",
"O.	c #204068",
"P.	c #4280B9",
"Q.	c #63A8D1",
"R.	c #8DCE72",
"S.	c #EBEBF5",
"T.	c #538DAC",
"U.	c #94201F",
"V.	c #31622C",
"W.	c #EAEAF1",
"X.	c #F9F9F9",
"Y.	c #DBDCEA",
"Z.	c #2D9D2A",
"`.	c #95667D",
" +	c #2B571F",
".+	c #305398",
"++	c #98120E",
"@+	c #D4413F",
"#+	c #77787F",
"$+	c #F25759",
"%+	c #F1F3FF",
"&+	c #CACDE8",
"*+	c #FC5E60",
"=+	c #9FA5D0",
"-+	c #592917",
";+	c #6F707A",
">+	c #DDDFEA",
",+	c #B8BCD8",
"'+	c #89130F",
")+	c #8C8FA1",
"!+	c #AADC91",
"~+	c #E9504F",
"{+	c #55695A",
"]+	c #E6E7F3",
"^+	c #89D36D",
"/+	c #D0D0D0",
"(+	c #61636F",
"_+	c #D7D7E6",
":+	c #333D7B",
"<+	c #7DB65D",
"[+	c #1A3E3E",
"}+	c #E0E2F7",
"|+	c #79C2E1",
"1+	c #899F85",
"2+	c #8D8F94",
"3+	c #A8B89A",
"4+	c #5C97B1",
"5+	c #E7E7EF",
"6+	c #A2859D",
"7+	c #FF6061",
"8+	c #AABAD8",
"9+	c #E44F50",
"0+	c #F4F5FF",
"a+	c #797E9D",
"b+	c #55B843",
"c+	c #6C9759",
"d+	c #5EB945",
"e+	c #5FBC4A",
"f+	c #1E7F20",
"g+	c #416C37",
"h+	c #B4B4B5",
"i+	c #C1C9EB",
"j+	c #629EB5",
"k+	c #781E21",
"l+	c #A7B2DC",
"m+	c #AEB4DA",
"n+	c #ABBAD5",
"o+	c #CA302E",
"p+	c #4D5371",
"q+	c #A6ABB6",
"r+	c #9C3434",
"s+	c #623B5C",
"t+	c #6D7A92",
"u+	c #786E9A",
"v+	c #7FAA67",
"w+	c #B87279",
"x+	c #556BA3",
"y+	c #5B72AD",
"z+	c #E3E3E3",
"A+	c #579FD3",
"B+	c #3C8F30",
"C+	c #9CACCA",
"D+	c #6AAB4C",
"E+	c #6AA351",
"F+	c #61B444",
"G+	c #4C1E35",
"H+	c #FFFFFF",
"                z z z z z z z z z z z z z z z z z z z z z z z z z z I z z z z I z #+d.                                          ",
"                z X.E r r r A.B A.A.3 W.W.W.5+5+5+< 8., , , >+>+>+Y.Y.9._+9._+_+_+& L.g                                         ",
"                g H H +.H +.+.H.H.h.E E r r r B 3 3 3 S.f V V ]+]+< F F , , ^.; ^.@ h D d.X.                                    ",
"                g H +.+.H.H.E E r r r B B 3 3 S.f f V ]+< < 8.F , ^.^.; ; w P P w & D E.h d.                                    ",
"                g H +.H.E E E r r r B B A.3 S.S.V V ]+< < 8.F F ^.^.; ; w P P 9.Y.) D A n.)+d.                                  ",
"                g H H.E E E r r B B B 3 3 S.f f V ]+< < 8.F F ^.^.; ; w P P 9.] 9.& D A x i+)+h+                                ",
"                g H H.E E r r r B B 3 3 S.f f V ]+< < 8.F , , ^.; ; w P P 9.9.] 9.) D A x n.&+` t.                              ",
"                g H E E r r r B B A.3 S.S.V V ]+< < 8.F , ^.^.; ; w P P 9.] ] ] ] ) D A x n.s @ g t.                            ",
"                g H E r r r B B 3 3 S.f f V ]+< < 8.F F ^.^.; ; w P P 9.] ] _+* ] ) D A x n.s &+}+g t.                          ",
"                g H r r r B B 3 3 S.f f V ]+< < 8.F , , ^.; ; w P P 9.9.] ] * * * ) D E.m+@.i+* _ h.2+z+                        ",
"                g H r r B B A.3 S.S.V V ]+< < 8.F , ^.^.^.; w P P 9.] ] ] * * 6 * ) g.a+a+` ` '.'.~ ~ i./+                      ",
"                g H r B B A.3 S.f f V ]+< < 8.F F ^.^.; ; w P P 9.] ] ] * * 6 6 @ @ )+g '.'.'.)+'.)+'.'.~                       ",
"                g H B B A.3 S.f f V ]+< < 8.F , , ^.; ; w P P 9.9.] _+* * * 6 @ @ @ * { * * * @ @ &+@ p ~                       ",
"                g H B A.3 S.f V V ]+< < 8.F , ^.^.^.; w P P 9.9.] ] * 6 6 6 @ @ @ @ & &+& & e e p p e @.~                       ",
"                g H A.3 S.S.f V ]+< < 8.F F ^.^.; ; w P P 9.] ] _+* * * 6 @ @ @ & & & & e e e p p p p @.~                       ",
"                g H 3 S.f f V ]+< < 8.F , , N N ^.w P P _ _ P ] * * 6 6 @ @ @ @ & & & & e e p p p p p @.~                       ",
"                z H S.f f V ]+< < 8.F , F >+8 d _+_ ; ] 8 d & ] * 6 6 @ @ @ @ & & & & e e e p p p s p ,+~                       ",
"                z H S.V V ]+< < 8.F F ^.N 8 ;.;.w+P 9.8 } ;.w+6 * 6 @ @ @ & & & & e e e p p p p p x k @.~                       ",
"                I +.f V ]+< < 8.F , ^.^.8.8 ;.~+>.K / d = ( >.@ * @ @ @ & & & & e e e p p p p p U h ' @.~                       ",
"                z +.V ]+< < 8.F F ^.^.; ^.6 w+>.r+;.} | w+>.8 { @ @ @ @ & & & e e e p p p p s k h }.' ,+~                       ",
"                I +.]+< < 8.F F ^.^.; ; Y.I.P K } *+m.@+| e _ @ @ @ & & & & e e e p p e p %.+ Y h }.' ,+~                       ",
"                I H.]+< 8.F , ^.^.; ; w _ 6 K } *+m.2 m.D./ ) * @ & & & & e e e e e p ,+x n Y Y # }.' /.~                       ",
"                I h.< 8.F , ^.^.; ; Y._ ] K } *+m.2 2 2 m.D.| @ @ & & & & & e e p 4.' ,.n n n Y h ! ' /.~                       ",
"                I 0+8.F , ^.^.; ; Y._ ] K } *+m.2 2 2 $+$+$+} K @ @ &+& e s n.x ' ,.,.- - n Y Y h }.' 4.~                       ",
"                I 0+F F ^.^.; ; w _ 6 K } *+m.m.2 2 2 $+u.u.[ G./ s s /.x =++ + + ,.,.- n n Y # # ! + 4.~                       ",
"                I %+, , ^.; ; w _ ] K } *+m.m.2 2 2 $+$+u.[ ~+~+m C k A + + + + + ,.,.n n Y Y h }.! + 4.~                       ",
"                I %+^.^.^.; Y._ _+K } *+m.2 2 2 2 $+$+u.u.[ ~+( = #.| k A + + + ,.,.- n n Y # # }.! + %.~                       ",
"                #+!.^.; ; w _ 6 K G.7+m.2 2 2 2 2 $+u.u.[ ~+( = = ;.<.C + =++ ,.,.- - n Y # # # }.! + %.~                       ",
"                #+!.; ; Y._ ] K '+t @+m.m.2 2 $+$+u.u.[ ~+~+( = @+#.t '+C + + ,.- - n Y Y # # }.! ! + %.~                       ",
"                #+!.; w _ ] K D.9+#.k+#.9+*+$+$+u.u.[ ~+~+( ( } a t a |.++C ,.,.- n n Y # # # }.! ! ,.U ~                       ",
"                #+(.w _ w / D.m.m.$+p.t a @+$+$+[ [ ~+~+9+= } U.t #.m |.++R C - - n Y Y # # }.}.! i ,.U ~                       ",
"                #+(._ w K p.2 u.u.$+m.( U.t p.~+u.~+~+( = #.t U.G.m |.<.z.R R C - n Y # # }.}.}.! i ,.U ~                       ",
"                #+!.* / G.[ [ [ [ [ [ u.9+p.t a @+~+~+;.a t #.o+G.|.<.++z.z.R R | n Y # # }.}.! ! i - U ~                       ",
"                #+f / #.~+~+~+~+~+~+~+~+[ ~+} U.t p.p.-+-+0.0.0.|.<.++R C.C.R R R C }.Y }.}.}.! i i - x ~                       ",
"                $.w+|.( = ( ( ( 9+( 9+( ( ( 9+@+a t C.f+Z.Z.. f+k+g.y.K.v..  +C.s+v x+}.}.}.! y x._.! x ~                       ",
"                #+8 #.} = = = = = ( = = = = = p.t U.C.f+. . . v._.).f.q.v.L [.v.S A+ .x+# ! y o.Q.5 x.k ~                       ",
"                #+(.d a o+@+@+@+@+@+@+@+@+} a t a D.k+J.. . . f+a.f.7.q.v.L % b+M.X 1 x.# ! y 7 Z : _.k ~                       ",
"                $.I.i+6+a D.} ;.;.;.;.;.G.t t #.D.o+k+f+. . . v.G+y.q.K.v.L % {.e+F+X g.}.! ! y+a.W i U ~                       ",
"                $.I.@.5.6+a m D.D.D.D.U.t U.m m m m C.J.. . . J...R R R v.L % {.F.e.^ =.p+i i i y y # ' q++.+.+.+.+.            ",
"                $.}+,+n.5.6+U.|.m #.t t a |.|.|.a :+u J.. . . $ u :+:+u $ L % {.F.e.^ *.E+X 1..+b b .+.+.+3.3.3.3.x+            ",
"                $.}+,+%.%.5.`.U.j.t t <.<.<.<.++t 1 0 J.. . . c l.l l o.$ L % {.F.e.^ *.R.<+X q P.7  .7 7  . . .a.1             ",
"                $.}+/.m+U U 5.Q t '+++++++++R z...b S J.. . . c j+|+r.:.c L % {.F.e.^ *.&.9 j =.q f.f.Z Z 5 5 5 7 b             ",
"                $._ /.U U x U U Q t R R R R R R ...+S J.. . . c j+r.).:.c L % {.F.e.^ *.&.R.9 j k.S 7 Z 5 5 P.N. .b             ",
"                $._ n.x x x x k l+`.t R R R R R ..b S J.. . . c 4+r.r.:.$ L % {.F.e.^ *.&.R.9 j G w.].a.5 N.N.N. .b             ",
"                ;+_ %.x x x k k k E.Q '+R R R R ..b S J.. . . c 4+O  .q $ L % {.F.e.^ *.&.R.9 j !+M c.{+2.N.N.N. .b             ",
"                ;+{ %.x k k k ' ' =+A Q t R R R ..b S J.. . . c q.1.1.q.$ L % {.F.e.^ *.&.R.9 j !+G M 4 1+0 7.N.b.b             ",
"                ;+{ U k k k ' ' =++ =+A `.t R R ..b S J.. . . J.q.P.s.l c L % {.F.e.^ *.&.R.9 j !+G M 4 T 3+S a.7.b             ",
"                ;+{ U k k ' ' =++ + + ,.A Q '+R ..b S J.. . . c T.).Q.O c L % {.F.e.^ *.&.R.9 j !+G M 4 4 T > ].q.J             ",
"                ;+{ x ' ' ' =+=++ + ,.,.,.,.`.'+..b S J.. . . c T.Q.Q.O c L % {.F.e.^ *.&.R.9 j !+G M 4 > > T T 6.O.            ",
"                ;+{ x =+=++ + + + ,.,.,.- - A `.k+b S J.. . . c T.Q.s.O $ L % {.F.e.^ *.&.R.9 j !+G M 4 > > T t.].q.            ",
"                L.{ k + =++ + + ,.,.- - n n # - u+q.S J.. . . c T.s.s.O $ L % {.F.e.^ *.&.R.9 j !+G M 4 > > 6.q.B.b             ",
"                L.* k + + + + ,.,.- - - n Y Y n i J 0 J.. . . c l.s.s.o.c L % {.F.e.^ *.&.R.9 j !+G M > c.i.J b.: b             ",
"                L.* k + + ,.,.,.- - n n n Y Y n i b 0 J.. . . c l.s.l Z $ L % {.F.e.^ *.&.R.9 j !+G 4 w.O.1.b.b.B.b             ",
"                L.* =+,.,.,.,.- - n n Y Y Y # Y i J 0 J.. . . c l.l l o.c L % {.F.e.^ *.&.R.9 j G !+k.O.1.1 : b.B.b             ",
"                L.* ' ,.,.,.- n n n Y Y Y # # # i b 0 J.. . . c l.l f.o.$ L % {.F.e.^ *.&.R.9 !+j i.J W 1.W b.: B.b             ",
"                L.* + n n n Y Y # # # # }.}.}.}.y b 0 J.. . . $ q f.l o.$ L % {.F.e.^ *.&.R.j v+0 W W 1.J : : : B.b             ",
"                L.* %.x x x k k k k =+' =+=++ A }.b 0 J.. . . $ u W  .a.$ L % {.F.e.^ *.&.^+c+O.J 1 1.1 : : : B.o b             ",
"                (+&+@.,+,+,+,+/.4.4.4.%.%.%.%.%.- J 0 J.. . . c 2.1 1.1.$ L % {.F.e.^ &.&.g+u 1.1.1 B.b.: : B.B.o b             ",
"                ~ ~ ~ ~ ~ ~ ~ ~ ~ ~ ~ ~ ~ ~ ~ ~ '.b 0 J.. . . c _.Z P. .$ L % {.F.e.*.D+X J : : : : b.: : B.B.B.o b             ",
"                                                8.J 0 J.. . . c _.Z Z P.$ L % {.F.^ M.0 : 7.b.b.b.: : : B.B.B.o o b             ",
"                                                ; b 0 J.. . . J._.Z 5 7 $ L % b+d+g+0 b.7.b.b.b.: : : B.B.B.o o o b             ",
"                                                w b 0 J.. . . c _.5 5 7 $ L [.M.X 2.7.7.b.b.b.: : : B.B.B.o o o o b             ",
"                                                ] 1 O.J.L . L J.2.W W J c [.B+[+1.W J J J J J 1 J 1 1 1 1 1 1 1 1 q.            ",
"                                                r 8+t+ +v.v.v. +h ~.~.C+V.V.6.~.~.~.~.~.~.~.~.~.~.~.~.~.~.~.~.~.~.8+            "};
