/* XPM */
static const char * xpm_exercise_join[] = {
"64 64 257 2",
"  	c None",
". 	c #611520",
"+ 	c #D4D5E8",
"@ 	c #DCDEED",
"# 	c #9BA1CC",
"$ 	c #DCE3F5",
"% 	c #4B6C52",
"& 	c #4585BA",
"* 	c #5598C6",
"= 	c #C5C9E2",
"- 	c #E0E1EF",
"; 	c #CED1E7",
"> 	c #EDEDF5",
", 	c #506C66",
"' 	c #E4E5F1",
") 	c #959BC8",
"! 	c #7C7C7D",
"~ 	c #A86970",
"{ 	c #97748D",
"] 	c #EC5353",
"^ 	c #C2C6E1",
"/ 	c #C9C3D4",
"( 	c #67BB51",
"_ 	c #F4FBEF",
": 	c #828BBC",
"< 	c #7B88B6",
"[ 	c #891A19",
"} 	c #90262D",
"| 	c #295499",
"1 	c #6C6D6E",
"2 	c #9399C6",
"3 	c #56B444",
"4 	c #939398",
"5 	c #366AA5",
"6 	c #F1F1F8",
"7 	c #A62826",
"8 	c #B4BADD",
"9 	c #E34B4A",
"0 	c #E9EAF4",
"a 	c #47AE39",
"b 	c #F1F1F3",
"c 	c #3779B6",
"d 	c #AF8894",
"e 	c #DBDCEC",
"f 	c #ABB0D5",
"g 	c #DA4544",
"h 	c #A4D989",
"i 	c #F55A5B",
"j 	c #9AA5D4",
"k 	c #194A95",
"l 	c #7CC4E0",
"m 	c #4A2751",
"n 	c #F5F5FA",
"o 	c #2366AB",
"p 	c #B52C29",
"q 	c #D2EEC2",
"r 	c #A4A6B9",
"s 	c #D1D4E8",
"t 	c #1659A4",
"u 	c #31702D",
"v 	c #DADFF1",
"w 	c #D5D7EA",
"x 	c #E1E2F0",
"y 	c #BDC2E2",
"z 	c #75C25C",
"A 	c #3B8831",
"B 	c #991C19",
"C 	c #7BC662",
"D 	c #D9F0CA",
"E 	c #A5ABD1",
"F 	c #EDF8E5",
"G 	c #8B0A07",
"H 	c #B63333",
"I 	c #83CCE2",
"J 	c #4162A1",
"K 	c #E2E4F0",
"L 	c #888CA4",
"M 	c #B9BDE0",
"N 	c #29507B",
"O 	c #CACDE4",
"P 	c #9097C5",
"Q 	c #A9ADD3",
"R 	c #9FA4CE",
"S 	c #D8DBEC",
"T 	c #B8E2A1",
"U 	c #B1DF9A",
"V 	c #334B58",
"W 	c #C83734",
"X 	c #6878B0",
"Y 	c #7C7D85",
"Z 	c #C0C5DF",
"` 	c #989ECA",
" .	c #66ACD2",
"..	c #979AAE",
"+.	c #8990C0",
"@.	c #1C61A9",
"#.	c #30569A",
"$.	c #5D8A4E",
"%.	c #4F5A8A",
"&.	c #647476",
"*.	c #8B90BC",
"=.	c #B2231E",
"-.	c #97D27C",
";.	c #E7E9F3",
">.	c #173355",
",.	c #FAFAFD",
"'.	c #BABEDC",
").	c #91D076",
"!.	c #C6A9B5",
"~.	c #900601",
"{.	c #8E95C4",
"].	c #659B4D",
"^.	c #B3E396",
"/.	c #DEDFEF",
"(.	c #42604C",
"_.	c #F95C5E",
":.	c #C4EAAA",
"<.	c #D23D3B",
"[.	c #B897A3",
"}.	c #A8A8A8",
"|.	c #94687F",
"1.	c #994E51",
"2.	c #74BBDD",
"3.	c #FEFEFF",
"4.	c #255BA1",
"5.	c #30649E",
"6.	c #4F5072",
"7.	c #D7D9EA",
"8.	c #3971AD",
"9.	c #868DBF",
"0.	c #A61914",
"a.	c #D7403E",
"b.	c #69B6DA",
"c.	c #61A5CC",
"d.	c #F8F8FB",
"e.	c #22373A",
"f.	c #516CAB",
"g.	c #4C8541",
"h.	c #83C968",
"i.	c #AEB3D8",
"j.	c #4C7985",
"k.	c #5FB94A",
"l.	c #8E94C0",
"m.	c #EF5555",
"n.	c #153B88",
"o.	c #CAB5C1",
"p.	c #EDEDF2",
"q.	c #9AD67C",
"r.	c #B4B6C3",
"s.	c #5A9FCA",
"t.	c #6EBE56",
"u.	c #417CB3",
"v.	c #65666A",
"w.	c #AFB0B2",
"x.	c #A1ADD9",
"y.	c #C25354",
"z.	c #C9CCE3",
"A.	c #C3322F",
"B.	c #478BC2",
"C.	c #214C93",
"D.	c #CA4646",
"E.	c #93D774",
"F.	c #E74D4D",
"G.	c #2C73B8",
"H.	c #6C719B",
"I.	c #E2F5CF",
"J.	c #C9CCE7",
"K.	c #921F1E",
"L.	c #3A82C1",
"M.	c #C8CAE2",
"N.	c #68C24E",
"O.	c #989DC4",
"P.	c #9ED683",
"Q.	c #CDEDB4",
"R.	c #276BAF",
"S.	c #5093C2",
"T.	c #AD7C85",
"U.	c #B2B7D8",
"V.	c #F15758",
"W.	c #949ED0",
"X.	c #9CD87C",
"Y.	c #ED4442",
"Z.	c #FEFFF6",
"`.	c #285989",
" +	c #8ACD6F",
".+	c #EBECF5",
"++	c #E9E9F0",
"@+	c #455DA0",
"#+	c #CCCFE5",
"$+	c #73A25C",
"%+	c #8D93C3",
"&+	c #E0E5F5",
"*+	c #C2838B",
"=+	c #97110D",
"-+	c #8C92C0",
";+	c #A1DD7B",
">+	c #818183",
",+	c #D7D8E6",
"'+	c #DBDDE9",
")+	c #4080B8",
"!+	c #E95050",
"~+	c #A43536",
"{+	c #A3A7CF",
"]+	c #DF4847",
"^+	c #DEDFEA",
"/+	c #8C92C8",
"(+	c #BE2E2A",
"_+	c #89110F",
":+	c #90CF75",
"<+	c #CBEAB9",
"[+	c #AADC92",
"}+	c #E0F3D4",
"|+	c #E7F6DD",
"1+	c #C5E8B1",
"2+	c #FAFDF9",
"3+	c #BEE5A8",
"4+	c #8B93C3",
"5+	c #68686B",
"6+	c #F3F3F9",
"7+	c #DDEAFD",
"8+	c #EFEFF7",
"9+	c #9198C7",
"0+	c #6E4D69",
"a+	c #77809C",
"b+	c #E8F9D7",
"c+	c #E0E2F7",
"d+	c #915E76",
"e+	c #C04344",
"f+	c #D5EEBD",
"g+	c #9B2220",
"h+	c #88D26B",
"i+	c #ADB0C6",
"j+	c #F3F5FF",
"k+	c #447441",
"l+	c #EAF6D8",
"m+	c #257AC0",
"n+	c #8F8F90",
"o+	c #D4F3BC",
"p+	c #81CC62",
"q+	c #CFD9F0",
"r+	c #4C79AD",
"s+	c #8BCE70",
"t+	c #5C70AE",
"u+	c #5372B4",
"v+	c #F0F0F7",
"w+	c #2A4E8F",
"x+	c #F7F7FB",
"y+	c #646991",
"z+	c #686A74",
"A+	c #B8A5B3",
"B+	c #91A4C8",
"C+	c #7F839B",
"D+	c #F6F6FA",
"E+	c #5F6065",
"F+	c #1C4277",
"G+	c #E5E7F2",
"H+	c #FFFFFF",
"              n+! ! ! ! ! ! ! ! ! ! ! ! ! ! ! ! ! ! ! ! ! ! ! ! ! ! ! ! ! ! ! ! ! >+d.                                          ",
"              v.D+D+6+b b b b 8+p.p.p.++++++G+' ' ' K - ^+- ^+^+'+'+7.,+,+,++ + 7.C+z+,.                                        ",
"              1 3.3.,.3.,.,.,.d.D+D+n 6+6+6 v+8+> > .+0 ;.;.G+G+' K K x - /./.@ e ..l.Y b                                       ",
"              1 3.,.,.d.D+D+n 6+6+6 v+8+> > .+0 0 ;.;.G+' K K x - - /.@ e e S S S L j R !                                       ",
"              1 ,.,.d.D+D+n 6+6+6 v+8+> > .+0 0 ;.G+G+' ' K x - /./.@ @ e S S 7.7.L # i...Y                                     ",
"              1 ,.,.D+D+n 6+6+6 v+8+> > .+0 0 ;.;.G+' K K x - - /.@ @ e S S 7.w 7.L # E y r 4                                   ",
"              1 ,.x+D+n 6+6+6 v+v+> > .+0 0 ;.;.G+' K K x - - /.@ e e S S 7.w w w L ` Q i.J...}.                                ",
"              1 x+x+n 6+6+6 6 8+> > .+0 0 ;.;.G+' ' K x - /./.@ @ e e S 7.w w + + L # E U.'.; ..}.                              ",
"              1 x+n 6+6+6 v+8+> > .+0 0 ;.G+G+' K K x - /./.@ @ e S S 7.w w + s s L # E U.'.= c+}.4                             ",
"              1 n n 6 6 v+8+> > .+0 0 ;.G+G+' K K x - /./.@ e e S S 7.w w + + s s L j f 8 ^ ; S j+w.w.                          ",
"              1 n 6+6 v+8+> > .+0 0 ;.;.G+' K K x - - /.@ e e S S 7.w w + + s s s a+< C+L L ....r r.v.w.                        ",
"              1 6+6+v+8+> > .+0 0 ;.G+G+' ' K x - /./.@ @ e S S 7.w w + s s s ; s r.r r r r r r r r i+n+                        ",
"              1 6+6 8+> > .+0 0 ;.G+G+' K K x - - /.@ e e S S 7.w w + + s s ; ; ; ; s s ; #+#+O J.J.; 4                         ",
"              1 6 v+> > .+0 0 ;.;.G+' K K x - - /.@ e e S S 7.w w + + s s ; ; #+#+O O z.M.M.= ^ = ^ J.4                         ",
"              1 v+8+> .+0 0 ;.;.G+' ' K x - /./.@ @ e S S 7.w w + s s s ; ; ; #+O O z.M.M.= = ^ ^ ^ = 4                         ",
"              1 8+> .+0 0 ;.G+G+' K K x - &+7+&+@ e S $ $ v w + s s s ; ; #+#+O O z.M.M.= = ^ ^ ^ Z = 4                         ",
"              1 > > 0 0 ;.G+G+' K K x - &+o.*+!.@ $ 7.!.*+!.w + s s ; ; #+#+O O z.M.M.= = ^ ^ Z Z '.^ 4                         ",
"              1 > .+0 ;.;.G+' K K x - x ,+y.Y.H o./ M.D.Y.D./ w s ; ; #+#+O O z.M.M.= ^ = ^ Z ^ f O.= 4                         ",
"              1 .+.+;.G+G+' ' K x - /.- S y.Y.e+1.~+T.y.Y.e+/ w ; ; ; #+O O z.M.M.= = ^ ^ ^ Z f *.O.^ 4                         ",
"              1 0 0 G+G+' K K x - /./.@ $ !.~ 1.H !+~+~ ~ [.w ; ; #+#+O O z.M.M.= = ^ ^ ^ Z Q l.*.O.^ 4                         ",
"              1 0 ;.G+' K K x - - /.@ e /.7+d H i _.!+7 A+7+; ; #+#+O O z.M.M.M.^ = = ^ 8 # l.l.*.O.^ 4                         ",
"              1 ;.G+' ' K x - /./.@ e @ $ T.H i _.i _.9 ~+[.q+; #+O O z.M.M.= = = Z U.{+O.P P l.*.O.y 4                         ",
"              1 G+G+K K x - /./.@ e v v ~ H _._.i i i _.9 ~+d q+#+z.z.M.z.z.^ '.f R ` 2 2 2 l.l.9.O.y 4                         ",
"              1 ' ' K x - /./.@ e v 7.T.p i _.i i i i V.i 9 7 d q+#+M.Z '.U.E # ` ` ` ) 2 P l.-+9.O.y 4                         ",
"              1 ' K x - /./.@ e @ 7+~ p _._.i i i i V.V.m.m.9 7 d y f {+R # # # ` ` ) ) 2 P l.*.9.) y 4                         ",
"              1 K x - /./.@ e /.v ~ H _._.i i i i V.V.m.] !+!+a.7 { x.R R # # # ` ` 2 2 P {.-++.: 2 '.4                         ",
"              1 x x /./.@ e v $ T.H i _.i i i i i V.V.m.] !+9 ]+<.g+{ x.R # # ` ` ) 2 9+P l.-+*.: 2 M 4                         ",
"              1 - - /.@ e @ $ d K.m._.i i i i V.V.V.m.] !+F.]+g a.(+[ { x.# ` ` ) ) 2 P {.%++.+.: P '.4                         ",
"              5+- - @ e @ $ d 7 K.g+D._.i i V.V.V.m.] ] F.9 ]+a.7 [ K.K.{ j ` ) ) 2 P {.%+4++.9.: P M 4                         ",
"              5+- /.e v $ ~ H V.!+7 [ 7 ] _.V.m.m.] !+F.9 9 W K.[ g+=.0.[ { j ) 9+9+{.%+4++.9.9.: l.M 4                         ",
"              5+/.@ v S T.p m.V.i V.H [ g+g V.m.] !+F.F.g H [ K.7 p =.0.G [ { W.9+P {.4++.+.9.9.< l.8 4                         ",
"              5+@ v $ T.7 m.V.m.m.V.i ]+K.[ H !+] F.F.g g+[ g+(+(+=.0._+G G [ { W.9+{.4++.9.9.: < -+8 4                         ",
"              5+v v ~ p !+] ] ] ] ] ] m.9 ~+[ g+<.!+H [ [ p A.(+=.0.=+G G G G =+V H.W.+.+.9.9.: < -+8 4                         ",
"              1 + T.7 ]+F.F.F.!+!+!+!+!+!+!+W K.K.p [ g+H W (+=.g+} _+G G G ~.. u u H./+9.9.: X X -+8 4                         ",
"              1 [._+a.]+]+]+9 9 9 9 9 9 9 9 F.H [ [ K.W A.(+=.} r+S.6.G G ~.. u a a u H./+9.X * )+t+8 4                         ",
"              1 + T.7 <.a.g g g ]+]+g g ]+a.p K.K.7 K.K.7 =.0.0+b.* R.. ~.. u a a a a u y+9.r+ .B.8.E 4                         ",
"              5+v w { g+W <.<.<.a.a.a.a.H K.[ 7 A.A.=.K.[ B =+m L.m+w+G . A a a a a a a u %.u+c @.J i.4                         ",
"              5+7.O y { g+A.W W W W W p [ K.7 (+(+=.=.0.=+[ =+=+. m . . A 3 3 3 3 3 3 3 3 u %.f.J < M 4                         ",
"              5+w z.U.'.{ B (+(+(+(+K.[ K.p p =.} } . } . . . m . . . A k.3 3 3 3 3 3 3 3 k.k+%.t+X : a+= Z = Z z.              ",
"              5+w M.U.U.8 { B =.g+K.[ g+=.=.0.0.m 4.8.5 5 5 5 5 J >.g.k.k.k.k.k.k.k.k.k.k.k.k.u F+4.4.| 4.| 4.| |               ",
"              5++ = i.i.i.8 |.B [ [ B 0.0.B =+=+m B.I I l l l l j.g.N.( ( ( ( ( ( ( ( ( ( ( ( ( k+5 B.B.B.& L.u.#.              ",
"              5++ ^ i.i.f f i.{ _+G =+G G G G ~.m & I I l l l j.g.z N.t.t.t.t.t.t.t.t.t.t.t.t.t.t.k+5 B.& & )+c #.              ",
"              5++ ^ f f f f Q f |.G G G G G G ~.m & I l l 2.j.$.p+z z z z z z z z z z z z z z z z z k+5.B.)+)+c #.              ",
"              5+s Z f Q Q Q E E x.|._+G G G G ~.m )+I l 2., ].p+C C C C C C C C C C C C C C C C C C p+g.N L.)+c #.              ",
"              5+; Z Q Q E E {+{+{+x.|._+G G G ~.m )+I 2.j.$.h+h.h.h.h.h.h.h.h.h.h.h.h.h.h.h.h.h.h.h.h.h.g.`.c 8.#.              ",
"              v.; y Q E E E {+R R R x.|._+G G ~.m )+l , ].E. + + + + + + + + + + + + + + + + + + + + +s+E.k+`.c |               ",
"              v.; '.E E E {+{+R R # # j |._+G ~.m L.j.$+E.).).).).:+:+:+:+:+:+:+:+:+:+:+:+:+:+:+:+).).).-.q.$.F+#.              ",
"              v.#+'.{+{+{+R R R # # # ` j d+_+~.m N $+;+q.X.q.q.q.-.-.-.-.-.-.-.-.-.-.-.-.-.-.-.-.X.X.X.X.X.;+$.N               ",
"              v.#+'.{+{+R R R # # # ` ` ) W.d+_+. e.$.% (.(.% % $.h P.P.P.P.P.P.P.P.P.P.P.P.P.P.;+% (.(.(.% (.% e.              ",
"              v.O '.R R R # # # ` ` ` ) 2 ) W.d+m G.c.c.C.C.* & % h h h h h h h h h h h h h h h h V R.C.n.4.@.4.w+              ",
"              v.z.8 R R # # # ` ` ) ) 2 9+P P 9+@+8.2. .| 5. .* % ^.[+[+[+[+[+[+[+[+[+[+[+[+[+[+h V c o n.o G.R.#.              ",
"              v.M.8 # # # # ` ` ) ) 2 9+P P {.9+J 8.b. .| 4. .S., ^.U U U U U U U U U U U U U U U V G.4.n.R.R.o #.              ",
"              v.M.U.# # ` ` ` ) ) 2 9+P P {.%+P @+8. . .5.C.s.S., 3+T T T T T T T T T T T T T T ^.V G.| k o R.o #.              ",
"              v.= U.` ` ` ` ) ) 2 9+P {.{.4+4+{.@+8. . .u.n.u.S., :.3+3+3+3+3+3+3+3+3+3+3+3+3+3+3+V R.k k R.o @.#.              ",
"              v.= U.) ) ) ) 2 9+P {.%+%+4++.+.%+@+8. .c.* | C.8.&.Q.1+1+1+1+1+1+1+1+1+1+1+1+1+1+:.V k n.@.o o @.|               ",
"              v.= U.` ` ` ) ) 2 P P {.%+4+4++.%+@+5 c.s.s.S.C.n.% f+Q.<+<+<+<+<+<+<+<+<+<+<+<+<+Q.V n.4.R.o @.@.#.              ",
"              E+J.= ^ y y y y M M M M 8 8 8 8 M f.5 c.s.s.* B.C.E+D q q q q q q q q q q q q q q <+V t o o o @.t |               ",
"              >+Y Y >+Y Y Y Y Y Y Y Y Y Y Y Y Y %.5 s.s.* * * & &.I.D D D D D D D D D D D D D D D V o o @.@.@.t #.              ",
"                                                < 8.s.* * S.S.u.&.b+}+}+}+}+}+}+}+}+}+}+}+}+}+}+I.V @.@.@.@.t t |               ",
"                                                : 5 s.* S.S.S.u.&.b+|+|+|+|+|+|+|+|+|+|+|+|+|+|+l+V @.@.@.t @.t |               ",
"                                                < 5 s.* S.S.S.)+&._ F F F F F F F F F F F F F F F V @.@.@.t t t |               ",
"                                                < 5.u.c 8.8.8.5.&.Z._ _ _ _ _ _ _ _ _ _ _ _ _ _ _ V t t k t k k C.              ",
"                                                B+J J J J J J #.&.3.2+2+2+2+2+2+2+2+2+2+2+2+2+2+Z.6.@+J J J J J f.              ",
"                                                                                                                                "};
