/* XPM */
static const char * xpm_exercise_edit[] = {
"64 64 257 2",
"  	c None",
". 	c #CE3836",
"+ 	c #DFE8F9",
"@ 	c #8389BB",
"# 	c #611614",
"$ 	c #2566AB",
"% 	c #B5BADD",
"& 	c #245499",
"* 	c #DA4747",
"= 	c #878894",
"- 	c #787982",
"; 	c #E24A49",
"> 	c #9299C7",
", 	c #CACDE3",
"' 	c #1C458F",
") 	c #6A77B1",
"! 	c #DCDEED",
"~ 	c #BBC1E3",
"{ 	c #A6ABD4",
"] 	c #5BA1CC",
"^ 	c #D5D8EB",
"/ 	c #C6B6C5",
"( 	c #CA9A23",
"_ 	c #AFB6DD",
": 	c #7182B6",
"< 	c #4284BB",
"[ 	c #CDB6A4",
"} 	c #D9A328",
"| 	c #D3D5E8",
"1 	c #8C92C3",
"2 	c #69531D",
"3 	c #6BB3D6",
"4 	c #EDEDF6",
"5 	c #68697A",
"6 	c #ACB1D8",
"7 	c #876716",
"8 	c #F45A5B",
"9 	c #C99C5D",
"0 	c #4D91C2",
"a 	c #E4E5F1",
"b 	c #852D23",
"c 	c #E1E2EE",
"d 	c #78C2E0",
"e 	c #99731B",
"f 	c #CDD0E6",
"g 	c #D5DDF0",
"h 	c #B98D4B",
"i 	c #4A2652",
"j 	c #EFEFF7",
"k 	c #F1F1F8",
"l 	c #EEEEEF",
"m 	c #E0E2F0",
"n 	c #99A4D1",
"o 	c #919191",
"p 	c #345B9D",
"q 	c #EC5252",
"r 	c #5195C4",
"s 	c #265CA1",
"t 	c #FEFEFF",
"u 	c #E9EAF4",
"v 	c #BE666B",
"w 	c #AD8523",
"x 	c #9A7791",
"y 	c #C7951D",
"z 	c #566E69",
"A 	c #8A8A8D",
"B 	c #EAECFD",
"C 	c #848489",
"D 	c #A87291",
"E 	c #FFF2AD",
"F 	c #A8484B",
"G 	c #498ABD",
"H 	c #66ACD2",
"I 	c #4A8DC0",
"J 	c #FECD3E",
"K 	c #A4636A",
"L 	c #E2E4F1",
"M 	c #D0C493",
"N 	c #B99BA7",
"O 	c #D9DAEC",
"P 	c #1758A2",
"Q 	c #D0D3E7",
"R 	c #FFD945",
"S 	c #BCA23A",
"T 	c #72BAD9",
"U 	c #514F67",
"V 	c #FEDE4A",
"W 	c #C4C5D7",
"X 	c #B5993C",
"Y 	c #C7A93C",
"Z 	c #E7E8F4",
"` 	c #3B62A1",
" .	c #8C95C8",
"..	c #60A6CE",
"+.	c #A08F60",
"@.	c #D19E24",
"#.	c #C5C3C5",
"$.	c #9B9480",
"%.	c #777B96",
"&.	c #397CB7",
"*.	c #C5C9E3",
"=.	c #EF5556",
"-.	c #5A9EC9",
";.	c #3276B4",
">.	c #E0ECFE",
",.	c #F6F6FA",
"'.	c #4588BD",
").	c #3578B5",
"!.	c #A5A9C6",
"~.	c #5598C6",
"{.	c #861619",
"].	c #CDD2EB",
"^.	c #C1C5E1",
"/.	c #A98937",
"(.	c #F5F6FE",
"_.	c #A17A1D",
":.	c #FED741",
"<.	c #B18924",
"[.	c #447BB5",
"}.	c #2E73B3",
"|.	c #3E80BA",
"1.	c #8991BD",
"2.	c #336CAA",
"3.	c #605C6E",
"4.	c #FAFBFE",
"5.	c #8F211F",
"6.	c #4D66A6",
"7.	c #1D61AA",
"8.	c #BD9227",
"9.	c #3C73AC",
"0.	c #823C52",
"a.	c #B7B7B8",
"b.	c #936D16",
"c.	c #868DBF",
"d.	c #F5C53B",
"e.	c #C088AE",
"f.	c #DBDCEC",
"g.	c #2A6CAF",
"h.	c #5674AB",
"i.	c #E6ABC9",
"j.	c #7D7F8A",
"k.	c #EBC847",
"l.	c #74737A",
"m.	c #8388AC",
"n.	c #C22F2B",
"o.	c #D4B238",
"p.	c #CA6164",
"q.	c #F0C83C",
"r.	c #3A6EAA",
"s.	c #A12625",
"t.	c #BFA8B7",
"u.	c #880303",
"v.	c #A43A3C",
"w.	c #DEDFEF",
"x.	c #3B7EB8",
"y.	c #3064A4",
"z.	c #FFE24E",
"A.	c #E4322F",
"B.	c #EBBD38",
"C.	c #F95C5D",
"D.	c #ABABAB",
"E.	c #576CA8",
"F.	c #D8C5DA",
"G.	c #535053",
"H.	c #2D4457",
"I.	c #302A34",
"J.	c #961B19",
"K.	c #F7F7F7",
"L.	c #D7DAEB",
"M.	c #35508B",
"N.	c #E84F4E",
"O.	c #82722F",
"P.	c #A9ACBE",
"Q.	c #8C9ECD",
"R.	c #8D8A82",
"S.	c #A81919",
"T.	c #DC4241",
"U.	c #BC3939",
"V.	c #F25758",
"W.	c #EBECF5",
"X.	c #F7F8FD",
"Y.	c #C8CFEB",
"Z.	c #3569A7",
"`.	c #A57E20",
" +	c #BA2C33",
".+	c #1F4F97",
"++	c #3B73B0",
"@+	c #F8C83C",
"#+	c #F9F9F9",
"$+	c #97680D",
"%+	c #9C9DAA",
"&+	c #D23C3D",
"*+	c #FF6162",
"=+	c #816012",
"-+	c #9295A7",
";+	c #E1E6F5",
">+	c #858380",
",+	c #589BC8",
"'+	c #FD5E60",
")+	c #940806",
"!+	c #A9801F",
"~+	c #6C6E7C",
"{+	c #19418C",
"]+	c #F3F3F9",
"^+	c #C0A940",
"/+	c #9D8A32",
"(+	c #918AB3",
"_+	c #9B3E3C",
":+	c #A25D64",
"<+	c #81775F",
"[+	c #95617F",
"}+	c #2B4C8F",
"|+	c #E7E8EE",
"1+	c #C0C6E7",
"2+	c #C2C8ED",
"3+	c #8F701E",
"4+	c #5D8BBC",
"5+	c #E8D496",
"6+	c #FFE48D",
"7+	c #979DCE",
"8+	c #4680B6",
"9+	c #4A83B6",
"0+	c #96824C",
"a+	c #B3302E",
"b+	c #415482",
"c+	c #AF9D6D",
"d+	c #B3B6CB",
"e+	c #559BC7",
"f+	c #746C60",
"g+	c #74221E",
"h+	c #C38C94",
"i+	c #C8B881",
"j+	c #AE8493",
"k+	c #D4C0D2",
"l+	c #EEF0FF",
"m+	c #F4F4FA",
"n+	c #F3F4FF",
"o+	c #BEA96C",
"p+	c #CF93C8",
"q+	c #717381",
"r+	c #786693",
"s+	c #8C8D98",
"t+	c #8E8D90",
"u+	c #E5E7F2",
"v+	c #87878C",
"w+	c #898681",
"x+	c #8891C9",
"y+	c #BD777E",
"z+	c #8BA0C7",
"A+	c #F1D37A",
"B+	c #666271",
"C+	c #624654",
"D+	c #8E96CE",
"E+	c #5291BF",
"F+	c #897FB0",
"G+	c #A478A4",
"H+	c #FFFFFF",
"                                                                                                                                ",
"                                                                                                                                ",
"                                                                                                                                ",
"                                                                                                                                ",
"                                                                                                                                ",
"                                                                                                                                ",
"                                                                                                                                ",
"                                                                                                                                ",
"                                                                                                                                ",
"                              - t+o o o o o o o t+t+t+t+t+t+t+t+A A A A A A A v+v+v+v+v+A - D.                                  ",
"                              o t t t t t t t t t t t t t t 4.4.4.X.(.(.n+n+l+l+l+B B B X.% 5 a.                                ",
"                              A l t 4.4.X.X.,.m+m+]+k j j 4 W.W.u Z u+u+a L m m w.w.! ! L P.> %.a.                              ",
"                              A l t ,.,.,.]+]+k k j 4 W.W.u Z Z u+a L L c w.w.! f.O O O m P.1._ j.#.                            ",
"                              A l 4.,.,.m+]+k k j 4 W.W.u Z Z u+a L L m w.w.w.f.O O L.L.w.P.m.6 ~ = D.                          ",
"                              A l 4.,.]+]+k k j 4 4 W.u u Z u+a a m m w.w.w.! f.O O L.^ w.P.m.{ % Y.s+a.                        ",
"                              A l 4.m+]+k k j 4 4 W.u u Z u+a a L m w.w.w.! f.O O ^ ^ ^ ! P.m.{ _ ^.O s+#.    F.F.              ",
"                              A l X.]+]+k j 4 4 W.u Z Z u+a L L c w.w.w.! f.O L.L.^ ^ | O P.1.6 % 1+O B = #.t.p+e.F.            ",
"                              A l X.k k j 4 W.W.u Z Z u+a L L m w.w.! f.O O L.^ ^ | | | O %+%.> !.!.d+f L.+.9 i.i.e.F.          ",
"                              A l (.k j 4 W.W.u Z Z u+a L L m w.w.! f.O O L.L.^ | | | Q ^ P.%.= -+-+%+m.<+k.q.9 e.e.D k+        ",
"                              v+l m+j 4 W.W.u Z Z u+a L m m w.w.w.f.O O O ^ ^ | | | Q Q f ]., , , Y.~ >+S B.o.o.h D D G+        ",
"                              v+l m+4 4 W.u Z Z u+a L m m w.w.w.! O O O ^ ^ | | | Q Q f f f f , ].2+o S R B.<.( ( /.[+F.        ",
"                              v+l ]+4 W.u Z Z u+a L m m ;+m ! f.O ! w.^ ^ | | | Q f f f f , , ].^.A S V d.!+!+( 8.<.[           ",
"                              v+l k W.u Z Z u+a L c m ;+L.w.m O ! g Q g ^ | Q Q Q f f f , , f ~ w+o.R d.!+_.} y 3+M             ",
"                              C l j u Z Z u+a L m m + k+v y+| >.| y+p./ ^ | Q f f f , , , f 2+R.Y R d.<.!+} ( =+$.t             ",
"                              C u j Z Z u+a L m m w.>.h+A.. D N t.* A.y+g Q f f f , , , ].1+o Y :.@+w `.} ( 2 R.                ",
"                              C |+4 u+u+a L m m w.! + / p.F v.a+K v p.N ^ Q f f , , , ].1+t+Y :.d.`._.} y 3+G.                  ",
"                              C |+W.u+a L m m w.w.! f.Z #.F * '+n.:+W g f f f , , , f 1+A Y R d.w _.} y 7 s+s+                  ",
"                              C |+u a a L m w.w.! ! >.W F * '+8 C.&+:+, ^ f , , , ].~ >+S R @+!+!+} y =+5 ~ s+                  ",
"                              C a u L L m w.w.! ! >./ F T.'+8 8 8 V.. :+*.^ , , ].1+w+Y V @+_.!+} y 7 3. .~ =                   ",
"                              j.a Z m m w.w.! ! + / F &+'+C.8 8 V.8 V.n.K ^.].f _ >+Y V d.!+e } y =+5 x+ .% =                   ",
"                              j.c u+m w.w.! ! + / v.T.*+C.8 8 8 V.=.=.q n.:+% 6 l.S R @+<._.} y =+3. .1 1.% =                   ",
"                              j.c a w.w.! f.+ / v.; *+C.8 8 8 V.V.=.q N.; n.0.B+^+:.@+_._.} ( =+3.D+> c.1.% =                   ",
"                              j.w.L w.! ! + / F ; *+8 8 8 8 8 V.V.q q ; N.n.b S V @+_._.} ( =+B+x+ .1.c.1.% =                   ",
"                              j.w.L ! w.+ / _+{.U.V.'+8 8 V.V.=.=.q N.N.. _+S V @+<.e } y 7 B+x+> 1 1.@ 1._ =                   ",
"                              j.! m w.>.t.v.T.&+{.s.; C.8 V.=.=.q N.N.&+_+S z.@+w e } y =+3.D+> 1 1 c.@ c._ =                   ",
"                              j.f.m >.t.v.; C.C.* s.{.U.V.V.q q N.N.&+b ^+V J `.e } ( 7 3.D+>  .1 1.c.@ c._ =                   ",
"                              - ! >.t.v.T.8 =.V.8 q U.{.s.* =.N.q  +g+S V @+!+e @.( =+g+F+n 1 1 1.c.c.@ @ 6 =                   ",
"                              j.m / _+&+V.q q q q V.=.&+5.5.&+*  +# /+z.J <.b.@.@.3+# u.0.(+D+1.c.c.c.@ @ 6 =                   ",
"                              j./ v.. N.N.N.N.N.N.N.N.N.; s.5.{.# /.z.J <.e } @.7 # u.u.{.3.@  .c.@ @ h.: 6 =                   ",
"                              j.N s.&+; * ; ; ; ; ; ; ; ; a+{.# S V J w e } @.3+# u.u.C+,+< E.c.c.@ 4+,+[.n =                   ",
"                              j.L.j+s.. T.T.T.T.T.T.T.. s.{.g+X z.J 8.b.@.@.3+H.# )+u.U ] }.` @ c.: 4+I $ Q.=                   ",
"                              - L.Y.x s.n.. . &+&+. a+5.{.b X z.J 8.e } @.$+I.i )+)+)+0.&.++: 1 c.c.) 2.r.6 A                   ",
"                              - | 1+~ x J.n.n.n.n.s.{.J.5.X V @+w e @.@.7 # # u.# {.g+r+) ) : ) ) ) ) E.) > %.^ g L.^ L         ",
"                              - Q ~ % % x J.S.s.5.5.S.{.S V J 8.e ( @.b.H.}+M.M.}+}+}+y.p p p p p & p p & p & ` ` ` ` :         ",
"                              - Q ~ 6 % 6 j+5.{.J.)+g+/.V J 8._.@.@.e z H 3 3 H H ....-.,+~.r 0 0 0 G G '.8+< < < < g.E.        ",
"                              - f ~ 6 6 6 _ x 5.u.# X z.J 8._.} ( b.z T d T T T 3 3 H H ....] ] ,+e+~.r 0 I G '.< '.2.h.        ",
"                              - f ~ { 6 6 { _ x # X z.J 8.e } y $+z T d T T T 3 3 H H ....] ] -.e+r r r I G < < |.|.2.h.        ",
"                              - , % { 6 !.{ { %.X V J 8.e @.( b.z T d T T ..9+9.r.r.r.Z.r.Z.Z.Z.y.y.y.2.[.'.< |.x.|.g.h.        ",
"                              q+, % { { { { %.X V J <.e } @.7 z d d T T 9.' ' & & & & & & & & .+& .+.+' ' s x.|.&.x.y.h.        ",
"                              q+, % !.{ n %.X R @+w e @.@.b.I.|.d T 3 r.{+9.~...] -.,+~.r r 0 I G G < x.y.{+& ).&.&.$ h.        ",
"                              q+, _ { 6 %.O.q.J 8.b.@.@.b.# i '.d T G {+G 3 H ....] -.,+e+r r 0 I G '.'.'.2.{+& ).;.$ h.        ",
"                              q+*._ { 7+%+M X 8.b.} ( e G.{.i 8+d H & ` H H ..] -.,+~.r r 0 I G '.< < |.x.|.s {+2.;.$ h.        ",
"                              q+*.6 { : $.E +.2 ( @.7 G.D+x i [.d E+' E+H ] ] -.,+~.r r 0 I G '.< < |.x.&.&.g.{+$ ;.s h.        ",
"                              q+*.6 n j.i+E 5+o+/.=+3.c.7+Q.E.&.d G ' ,+..] -.,+~.r 0 0 I G '.< < |.x.&.).).g.' s }.s h.        ",
"                              q+^.6 > l.M E 6+A+0+G.1 7+ . .6.9.T E+' G ..-.,+~.~.0 0 I G '.< < |.x.&.&.).;.$ ' 7.}.s h.        ",
"                              q+^._ 1 I.2 i+c+f+%.D+>  .1 1 6.9.3 ..& p ] ,+~.r 0 0 I G '.< < |.x.&.).;.}.}.& ' $ g.P h.        ",
"                              q+^.6 : I.U m.m.@ D+D+1 1.1 1.6.9.H H 8+{+[.-.~.r 0 I G '.< < |.x.&.).).;.}.$ {+.+g.$ P h.        ",
"                              q+^.6 > > n 7+7+7+7+>  . . . .6.9.H ] -.y.' Z.'.0 I G '.< < |.x.&.).).}.g.& ' .+$ $ 7.P h.        ",
"                              q+*.*.^.^.~ ~ ~ % % % % _ % % ) 2...-.-.~.2.' ' & & & & & & & .+& .+.+.+' ' & $ $ 7.7.P h.        ",
"                              G.~+~+~+~+~+~+~+~+5 ~+5 5 5 5 b+++..,+~.r ~.'.r.s s & s & & & & & & & .+s $ $ $ 7.7.7.P h.        ",
"                              K.K.K.K.K.K.K.K.K.K.K.K.K.#+t 1.++] e+r 0 I 0 0 I '.'.< < x.&.).;.}.}.}.g.$ $ 7.7.7.P P h.        ",
"                                                            z+9.] ~.r 0 0 G '.'.< |.|.&.&.).;.}.}.g.g.$ $ 7.7.7.P P P h.        ",
"                                                          t z+2.r I G '.< < x.[.&.).).;.}.g.g.g.$ $ $ 7.7.7.P P P P .+h.        ",
"                                                            n p ` ` ` ` ` ` ` ` ` ` ` ` ` ` p ` p ` p ` p p ` p p p & :         "};
