/* XPM */
static const char * xpm_info[] = {
"48 48 257 2",
"  	c None",
". 	c #3C84C4",
"+ 	c #133B62",
"@ 	c #5DA2CE",
"# 	c #6D6D6D",
"$ 	c #BDBDBD",
"% 	c #D7D7D7",
"& 	c #2D2D2D",
"* 	c #468DC5",
"= 	c #FCFCFC",
"- 	c #27669C",
"; 	c #3B525A",
"> 	c #F4F4F4",
", 	c #8C8C8C",
"' 	c #F9F6F4",
") 	c #595959",
"! 	c #DDDDDD",
"~ 	c #5A6369",
"{ 	c #3B80BB",
"] 	c #DADADA",
"^ 	c #303030",
"/ 	c #494949",
"( 	c #1F5F9A",
"_ 	c #A6A6A6",
": 	c #CBCBCB",
"< 	c #5B7489",
"[ 	c #7E7F7E",
"} 	c #3A3A3A",
"| 	c #C1C1C1",
"1 	c #2B5A76",
"2 	c #E2DEDB",
"3 	c #989898",
"4 	c #262626",
"5 	c #466676",
"6 	c #5093C2",
"7 	c #355D82",
"8 	c #CFCFCF",
"9 	c #B3B3B3",
"0 	c #637483",
"a 	c #5D5D5D",
"b 	c #292929",
"c 	c #F7F2EF",
"d 	c #EDEAE8",
"e 	c #EBE8E6",
"f 	c #E7E7E7",
"g 	c #3D3D3D",
"h 	c #33617C",
"i 	c #9F9F9F",
"j 	c #3B7FBA",
"k 	c #EAEAEA",
"l 	c #E9E5E1",
"m 	c #62ABD2",
"n 	c #2164A3",
"o 	c #B8B8B8",
"p 	c #838383",
"q 	c #B6B6B6",
"r 	c #246AAC",
"s 	c #181818",
"t 	c #909090",
"u 	c #111111",
"v 	c #AFAFAF",
"w 	c #F7F5F3",
"x 	c #8D8B89",
"y 	c #A8A8A8",
"z 	c #888888",
"A 	c #414141",
"B 	c #A0A0A0",
"C 	c #305A71",
"D 	c #363636",
"E 	c #020202",
"F 	c #939393",
"G 	c #0A3256",
"H 	c #161616",
"I 	c #454545",
"J 	c #8A8A8A",
"K 	c #606060",
"L 	c #4E4E4E",
"M 	c #253B41",
"N 	c #848484",
"O 	c #343434",
"P 	c #565656",
"Q 	c #4C4C4C",
"R 	c #1C64AB",
"S 	c #5399C8",
"T 	c #62ADDB",
"U 	c #0C0C0C",
"V 	c #696969",
"W 	c #959595",
"X 	c #FFFEFD",
"Y 	c #FFFDFB",
"Z 	c #676767",
"` 	c #535353",
" .	c #8E8E8E",
"..	c #080808",
"+.	c #808080",
"@.	c #545454",
"#.	c #777777",
"$.	c #49535B",
"%.	c #569BC2",
"&.	c #717171",
"*.	c #5094C3",
"=.	c #7B7B7B",
"-.	c #3D82BF",
";.	c #6A727C",
">.	c #60A9D6",
",.	c #908E8D",
"'.	c #1C1C1C",
").	c #202020",
"!.	c #FFFFFF",
"~.	c #1D5C97",
"{.	c #4688BD",
"].	c #6C7783",
"^.	c #F9F9F9",
"/.	c #908D8A",
"(.	c #61AAD7",
"_.	c #CDCDCD",
":.	c #EFEFEF",
"<.	c #515151",
"[.	c #F7F7F7",
"}.	c #FEFEFE",
"|.	c #F6F6F6",
"1.	c #FAFAFA",
"2.	c #F2F2F2",
"3.	c #E5E5E5",
"4.	c #EDEDED",
"5.	c #FBFBFB",
"6.	c #CCCCCC",
"7.	c #ECECEC",
"8.	c #F0F0F0",
"9.	c #F3F3F3",
"0.	c #E4E4E4",
"a.	c #D2D2D2",
"b.	c #E9E9E9",
"c.	c #F1F1F1",
"d.	c #D8D8D8",
"e.	c #636363",
"f.	c #9B9B9B",
"g.	c #EEEEEE",
"h.	c #747474",
"i.	c #C4C4C4",
"j.	c #646464",
"k.	c #D4D4D4",
"l.	c #B4B4B4",
"m.	c #ADADAD",
"n.	c #878787",
"o.	c #A5A5A5",
"p.	c #E2E2E2",
"q.	c #797979",
"r.	c #A3A3A3",
"s.	c #E8E8E8",
"t.	c #5095C5",
"u.	c #4587BC",
"v.	c #E5E3E1",
"w.	c #D6D1CF",
"x.	c #B4B2B1",
"y.	c #7C7F83",
"z.	c #5B9EC8",
"A.	c #DFDCDA",
"B.	c #4C6C89",
"C.	c #569DCE",
"D.	c #6E8088",
"E.	c #D4D0CE",
"F.	c #9D9D9D",
"G.	c #AEACAC",
"H.	c #6D7F87",
"I.	c #F0E9E2",
"J.	c #D9D6D5",
"K.	c #4084B4",
"L.	c #5FA6D1",
"M.	c #516770",
"N.	c #B0AEAD",
"O.	c #8A8989",
"P.	c #C0BEBE",
"Q.	c #C8C8C8",
"R.	c #295482",
"S.	c #687584",
"T.	c #787676",
"U.	c #62727F",
"V.	c #5896AD",
"W.	c #2971B5",
"X.	c #5D7C8E",
"Y.	c #60A7C8",
"Z.	c #BCB8B3",
"`.	c #3379B7",
" +	c #3178BB",
".+	c #7A7979",
"++	c #ECE7E4",
"@+	c #F6F1EC",
"#+	c #737677",
"$+	c #557288",
"%+	c #5D7186",
"&+	c #4081AF",
"*+	c #7E8286",
"=+	c #5B5B5C",
"-+	c #F0ECEA",
";+	c #F0EFEF",
">+	c #F4EFEA",
",+	c #F4EFEC",
"'+	c #4B91C9",
")+	c #6593A3",
"!+	c #495868",
"~+	c #FFFFFE",
"{+	c #565E62",
"]+	c #305F7C",
"^+	c #838280",
"/+	c #D9D8D7",
"(+	c #5E8092",
"_+	c #F4F0ED",
":+	c #C0C0BF",
"<+	c #EAE7E4",
"[+	c #AAAAAA",
"}+	c #416282",
"|+	c #6A6E72",
"1+	c #496684",
"2+	c #467788",
"3+	c #B8B5B4",
"4+	c #457E9D",
"5+	c #61656A",
"6+	c #62ADD6",
"7+	c #549ACC",
"8+	c #2D6A9A",
"9+	c #638899",
"0+	c #D2D0CD",
"a+	c #082D60",
"b+	c #D0CECC",
"c+	c #5B9EC2",
"d+	c #034082",
"e+	c #4588BC",
"f+	c #F5F1F0",
"g+	c #458BBD",
"h+	c #4689BE",
"i+	c #697683",
"j+	c #6BB3D9",
"k+	c #73838B",
"l+	c #CDCCCC",
"m+	c #60A6C6",
"n+	c #455C73",
"o+	c #66A9C8",
"p+	c #AFACAB",
"q+	c #FFFCF8",
"r+	c #AEAAA9",
"s+	c #B1B1B1",
"t+	c #5490A6",
"u+	c #FFFEFA",
"v+	c #D0D0D0",
"w+	c #868889",
"x+	c #0F2B46",
"y+	c #C2C2C2",
"z+	c #8B8683",
"A+	c #60A7D4",
"B+	c #F8F8F8",
"C+	c #3B6C88",
"D+	c #3A78A5",
"E+	c #154371",
"F+	c #D6D3CF",
"G+	c #3376AB",
"H+	c #FFFFFF",
"                                                                                                ",
"                                                                                                ",
"                                9.! o N K A ^ & & & } P #.o.a.4.                                ",
"                          5.9 &.L b E s } <.j.Z Z Z ) A 4 E s I e.3 p.                          ",
"                      g.[+L U s A # o.8 3.|.!.!.!.!.1.7.d.o +.L 4 E ^ , ]                       ",
"                  ^.y ^ ..^ t 0.[.!.!.!.!.!.!._+c !.!.!.!.!.!.1.:.l.Q u u #.s.                  ",
"                a.) U g B b.!.!.!.!.!.!.!.v.=.0 U.+.d !.!.!.!.!.!.!.= q K U } _                 ",
"              v 4 H .+f !.!.!.!.!.!.!.!.A.{+1 K.G++ 5+e !.!.!.!.!.!.!.!.= r.O U #.9.            ",
"            z ..O : !.!.!.!.!.!.!.!.!.!.[ ]+T 7+'+. G O.!.!.!.!.!.!.!.!.!.!.7.V E / k           ",
"        ^.p E P d.!.!.!.!.!.!.!.!.!.!.Y H.%.@ *.e+-.~.;.!.!.!.!.!.!.!.!.!.!.!.5.J U / !         ",
"        t E P 8.!.!.!.!.!.!.!.!.!.!.!.Y D.%.@ 6 u.-.~.;.!.!.!.!.!.!.!.!.!.!.!.!.!.3 U <.>       ",
"      :+u Q 2.!.!.!.!.!.!.!.!.!.!.!.!.!.[ 1 T C.'+. G /.!.!.!.!.!.!.!.!.!.!.!.!.!.!., E #       ",
"    0.& D % !.!.!.!.!.!.!.!.!.!.!.!.!.!.J.{+1 D+8++ |+<+!.!.!.!.!.!.!.!.!.!.!.!.!.!.= # E 9     ",
"    n...m.!.!.!.!.!.!.!.!.!.!.!.!.!.!.!.!.d .+$.$.x w !.!.!.!.!.!.!.!.!.!.!.!.!.!.!.!.! 4 } b.  ",
"  6.'.P ^.!.!.!.!.!.!.!.!.!.!.!.!.!.!.!.!.!.!.d -+!.!.!.!.!.!.!.!.!.!.!.!.!.!.!.!.!.!.!.s+..n.  ",
"  h.H 6.!.!.!.!.!.!.!.!.!.!.!.!.!.!.!.!.!.!.!.!.!.' Z.b+!.!.!.!.!.!.!.!.!.!.!.!.!.!.!.!.= g A 2.",
"c.A / }.!.!.!.!.!.!.!.!.!.!.!.!.!.!.!.!.!.!.!.l N.~ x+!+w !.!.!.!.!.!.!.!.!.!.!.!.!.!.!.!., U | ",
"_.u , !.!.!.!.!.!.!.!.!.!.!.!.!.!.!.!.X f+w.T.; 7 - R 1+@+!.!.!.!.!.!.!.!.!.!.!.!.!.!.!.!.] ).h.",
"F u 6.!.!.!.!.!.!.!.!.!.!.!.!.!.!.> G.w+k+5 ]+&+* . r $+q+!.!.!.!.!.!.!.!.!.!.!.!.!.!.!.!.5.a / ",
"K } k !.!.!.!.!.!.!.!.!.!.!.!.!.!.r+M V.m+m >.S {.j n %+u+!.!.!.!.!.!.!.!.!.!.!.!.!.!.!.!.!.O.D ",
"I @.^.!.!.!.!.!.!.!.!.!.!.!.!.!.!.3+M 2+o+j+z.*.{.j n 0 ~+!.!.!.!.!.!.!.!.!.!.!.!.!.!.!.!.!.f.b ",
"O j.!.!.!.!.!.!.!.!.!.!.!.!.!.!.!.}.P.z+M.c+@ *.{.j ( S.~+!.!.!.!.!.!.!.!.!.!.!.!.!.!.!.!.!.i 4 ",
"D K }.!.!.!.!.!.!.!.!.!.!.!.!.!.!.!.!.!.^+C+A+6 {.{ ( ].!.!.!.!.!.!.!.!.!.!.!.!.!.!.!.!.!.!.F.4 ",
"Q L |.!.!.!.!.!.!.!.!.!.!.!.!.!.!.!.!.!./.C (.6 {.{ ( ].!.!.!.!.!.!.!.!.!.!.!.!.!.!.!.!.!.!.3 b ",
"# & 3.!.!.!.!.!.!.!.!.!.!.!.!.!.!.!.!.!./.C (.6 {.{ ( ].!.!.!.!.!.!.!.!.!.!.!.!.!.!.!.!.!.!.+.} ",
"B ..:+!.!.!.!.!.!.!.!.!.!.!.!.!.!.!.!.!./.C (.6 {.{ ( ].!.!.!.!.!.!.!.!.!.!.!.!.!.!.!.!.!.[.L <.",
"% '.q.!.!.!.!.!.!.!.!.!.!.!.!.!.!.!.!.!./.C (.6 {.{ ( ].!.!.!.!.!.!.!.!.!.!.!.!.!.!.!.!.!._.u N ",
"> / g 1.!.!.!.!.!.!.!.!.!.!.!.!.!.!.!.!./.C (.6 {.{ ( ].!.!.!.!.!.!.!.!.!.!.!.!.!.!.!.!.!.+.u _.",
"  p U o !.!.!.!.!.!.!.!.!.!.!.!.!.!.!.!./.C (.6 {.{ ( ].!.!.!.!.!.!.!.!.!.!.!.!.!.!.!.!.2.^ Q [.",
"  3.& D b.!.!.!.!.!.!.!.!.!.!.!.!.!.!.!.x h >.6 {.{ ( i+!.!.!.!.!.!.!.!.!.!.!.!.!.!.!.!., ..i   ",
"    i E t !.!.!.!.!.!.!.!.!.!.!.!.!.!.!.#+4+L.6 {.j r n+I.!.!.!.!.!.!.!.!.!.!.!.!.!.!.6.s ` |.  ",
"    9.I s $ !.!.!.!.!.!.!.!.!.!.!.[.l+,.5 m @ *.h+j  +E+=+:+k !.!.!.!.!.!.!.!.!.!.!.4.<.u _.    ",
"      ] & b % !.!.!.!.!.!.!.!.!.!.m.; t+Y.6+S g+{ `.W.R d+a+y.!.!.!.!.!.!.!.!.!.!.B+e.u B       ",
"        9 s D v+!.!.!.!.!.!.!.!.!.x.; )+9+(+X.< $+B.}+7 R.+ y.!.!.!.!.!.!.!.!.!.!.g.).`         ",
"          o u & y+!.!.!.!.!.!.!.!.}./+E.2 ++,+c c >+l 2 w.0+;+!.!.!.!.!.!.!.!.!.!.^.I Q |.      ",
"            o & '., [.!.!.!.!.!.!.!.!.!.!.!.!.!.!.!.!.!.!.!.!.!.!.!.!.!.!.!.!.!.!.!.p u 8       ",
"              Q.Q E =+i.}.!.!.!.!.!.!.!.!.!.!.!.!.!.!.!.!.!.!.!.!.!.!.!.!.!.!.!.!.!.v+u [       ",
"                [.z '.U &.k.= !.!.!.!.!.!.!.!.!.!.!.!.!.!.!.!.!.!.!.0.t [ 0.!.!.!.!.1.) 4 b.    ",
"                    8 =.H ).L  .] !.!.!.!.!.!.!.!.!.!.!.!.!.!.:._ K ^ E E D v !.!.!.!.3 ..:+    ",
"                        : =+s ..'.P W : p.k :.8.8.:.7.f % y # & ..u D _ 3 '.U f.^.!.!.| U ,     ",
"                            ! m.# O s u '.b O D D D & ).s u 4 ` 3 : >     a.<.E ) ] !.> A } c.  ",
"                                  f i.9 r.F , z N J t F.v $ %               2.F s ^ l.!._ U o.  ",
"                                                                                9 ^ u F b.& V   ",
"                                                                                  s.P E ` g A :.",
"                                                                                    4.p ....u k.",
"                                                                                        y D } ! ",
"                                                                                                ",
"                                                                                                "};
