/* XPM */
static const char * xpm_next[] = {
"32 32 256 2",
"  	c #3A6E20",
". 	c #74A136",
"+ 	c #818E77",
"@ 	c #6B8759",
"# 	c #A2D64A",
"$ 	c #9ED448",
"% 	c #96D046",
"& 	c #6E9F34",
"* 	c #5B962E",
"= 	c #349B23",
"- 	c #A9E14D",
"; 	c #5B7553",
"> 	c #9BD03F",
", 	c #82C63F",
"' 	c #76C13B",
") 	c #5FB22C",
"! 	c #52B835",
"~ 	c #8ACB3B",
"{ 	c #A5D94A",
"] 	c #6ABC38",
"^ 	c #348224",
"/ 	c #93CE3E",
"( 	c #7CB932",
"_ 	c #7AC236",
": 	c #427423",
"< 	c #65AD2B",
"[ 	c #84BB34",
"} 	c #72C03A",
"| 	c #819862",
"1 	c #6DB12E",
"2 	c #45A426",
"3 	c #7D9661",
"4 	c #79CA3D",
"5 	c #60B42D",
"6 	c #3A3A3A",
"7 	c #627956",
"8 	c #476B3B",
"9 	c #DCD6DE",
"0 	c #59BA36",
"a 	c #90D044",
"b 	c #4B6D3D",
"c 	c #55B635",
"d 	c #F4EFF5",
"e 	c #78C43C",
"f 	c #35941E",
"g 	c #3B8626",
"h 	c #3CA123",
"i 	c #6A9D33",
"j 	c #43AF31",
"k 	c #82CD40",
"l 	c #4DB132",
"m 	c #556D47",
"n 	c #458B29",
"o 	c #5DBA36",
"p 	c #3F9922",
"q 	c #71C63B",
"r 	c #93D646",
"s 	c #69C239",
"t 	c #667D5E",
"u 	c #A9DE4C",
"v 	c #7CA539",
"w 	c #5EAB29",
"x 	c #4B8E2A",
"y 	c #649931",
"z 	c #54932C",
"A 	c #879079",
"B 	c #8ACC42",
"C 	c #627F2C",
"D 	c #D2CED4",
"E 	c #62822D",
"F 	c #547C28",
"G 	c #318D27",
"H 	c #769067",
"I 	c #5F7B2B",
"J 	c #74925E",
"K 	c #69B938",
"L 	c #A6AE96",
"M 	c #66BB37",
"N 	c #3D7122",
"O 	c #4B9F25",
"P 	c #45AE30",
"Q 	c #E9E4EA",
"R 	c #487624",
"S 	c #1E1E1E",
"T 	c #517A27",
"U 	c #5D7F2B",
"V 	c #62BA37",
"W 	c #26661C",
"X 	c #2D2E2D",
"Y 	c #436937",
"Z 	c #848F78",
"` 	c #326B1F",
" .	c #2C691D",
"..	c #61BD37",
"+.	c #58B735",
"@.	c #3EAF30",
"#.	c #3F6636",
"$.	c #2E8926",
"%.	c #2C2D2B",
"&.	c #FFFFFF",
"*.	c #232523",
"=.	c #2E8625",
"-.	c #3CA92E",
";.	c #5D782A",
">.	c #3FA62E",
",.	c #B0E550",
"'.	c #43A82F",
").	c #8ACB42",
"!.	c #92CF44",
"~.	c #7AC33D",
"{.	c #87C940",
"].	c #8ECD43",
"^.	c #7EC53E",
"/.	c #46AA30",
"(.	c #9AD146",
"_.	c #4AAC30",
":.	c #2C2C2C",
"<.	c #4EAE32",
"[.	c #6FBF3A",
"}.	c #52B033",
"|.	c #2E2E2D",
"1.	c #FFFBFF",
"2.	c #56B134",
"3.	c #5AB434",
"4.	c #F9F5FD",
"5.	c #6EBE39",
"6.	c #5EB635",
"7.	c #F8F4FC",
"8.	c #F7F4FC",
"9.	c #FAF5FD",
"0.	c #B1E651",
"a.	c #343434",
"b.	c #5B5B5B",
"c.	c #EBE6EC",
"d.	c #51B333",
"e.	c #62B836",
"f.	c #57AD22",
"g.	c #9CD849",
"h.	c #B7EE53",
"i.	c #7A9560",
"j.	c #85D042",
"k.	c #A4A8A1",
"l.	c #485D20",
"m.	c #9BD246",
"n.	c #7FC63E",
"o.	c #A0D749",
"p.	c #6BBC31",
"q.	c #9BCF3E",
"r.	c #D3CBD6",
"s.	c #9EA492",
"t.	c #8FD344",
"u.	c #859A64",
"v.	c #9ADB48",
"w.	c #2F8324",
"x.	c #587E29",
"y.	c #6B7D63",
"z.	c #7FCA3F",
"A.	c #64B730",
"B.	c #1C5216",
"C.	c #4C6F47",
"D.	c #4C9D1B",
"E.	c #53AD29",
"F.	c #96C940",
"G.	c #52A02A",
"H.	c #74B42F",
"I.	c #67BF38",
"J.	c #3F8828",
"K.	c #8ABE36",
"L.	c #34A026",
"M.	c #84C739",
"N.	c #349421",
"O.	c #76C73C",
"P.	c #768F67",
"Q.	c #819B72",
"R.	c #88B13E",
"S.	c #FEFCFF",
"T.	c #484848",
"U.	c #A4DC4B",
"V.	c #6CC53A",
"W.	c #429A21",
"X.	c #BAF255",
"Y.	c #4F902A",
"Z.	c #F0EBF1",
"`.	c #447F23",
" +	c #74C93C",
".+	c #4D7826",
"++	c #9CD447",
"@+	c #929C8C",
"#+	c #73C33B",
"$+	c #D8D3D8",
"%+	c #FBF6FE",
"&+	c #77B631",
"*+	c #39491A",
"=+	c #2A2A2A",
"-+	c #73BF34",
";+	c #6FBD32",
">+	c #41AC30",
",+	c #47B232",
"'+	c #A1D746",
")+	c #6FC33B",
"!+	c #EBE3EE",
"~+	c #FFFEFF",
"{+	c #A0D949",
"]+	c #A3DD4A",
"^+	c #7A8972",
"/+	c #4FA829",
"(+	c #7F9970",
"_+	c #3EAD2F",
":+	c #97D747",
"<+	c #68BB31",
"[+	c #77904B",
"}+	c #68B837",
"|+	c #48AF31",
"1+	c #48AE32",
"2+	c #87CD41",
"3+	c #98D347",
"4+	c #6D7D51",
"5+	c #5FBE37",
"6+	c #94D245",
"7+	c #49B032",
"8+	c #4AB433",
"9+	c #4AA726",
"0+	c #4EB633",
"a+	c #81C537",
"b+	c #D1CED3",
"c+	c #D4CFD5",
"d+	c #89D143",
"e+	c #80C83F",
"f+	c #8CD042",
"g+	c #A7AE9A",
"h+	c #6B8C31",
"i+	c #7DCC3E",
"j+	c #88CA40",
"k+	c #84C940",
"l+	c #F8F5FC",
"m+	c #63C038",
"n+	c #8CCE43",
"o+	c #8FCE43",
"p+	c #79945F",
"q+	c #7CC63E",
"r+	c #96D947",
"s+	c #51B434",
"t+	c #24681D",
"u+	c #3FB331",
"v+	c #29661D",
"w+	c #8FD444",
"x+	c #9FDC4A",
"y+	c #41AA2F",
"z+	c #58AB2E",
"A+	c #60785C",
"B+	c #587352",
"C+	c #708B60",
"D+	c #2E911D",
"E+	c #F8F5FD",
"F+	c #72925E",
"G+	c #77945F",
"b.=+:.:.:.:.:.:.S S S S S S S S :.:.:.:.:.:.:.:.S S S S S S S 6 ",
"a.*+h+E E U U x.x.F T T .+R R R : : N N     ` ` `  . .v+W W B.S ",
"6 C X.- - ]+x+v.r+r w+d+j.k i+4  +q V.s m+5+0 0 ! 0+8+,+j u+G *.",
"6 ;.,.# $ (.% !.].).{., ^.~.' } 5.] M e.6.3.2.}.<._./.'.>.-.=.*.",
"6 ;.,.# $ (.% !.].).{., ^.~.' } 5.] I.V 6.3.2.}.<._./.'.>.-.=.*.",
"6 ;.,.# $ (.% !.].).{., ^.~.' } [.K `.z+V 3.2.}.<._./.'.>.-.=.*.",
"6 ;.,.# $ (.% !.].).{., ^.~.' } [.A.m m E.o 2.}.<._./.'.>.-.=.*.",
"6 ;.,.# $ (.% !.].).{., ^.~.' } [.) Q.r.b /++.}.<._./.'.>.-.=.*.",
"6 ;.,.# $ (.% !.].).{., ^.~.' } [.) H &.9 8 9+c <._./.'.>.-.=.*.",
"6 ;.,.# $ (.% !.].).{., ^.~.' } [.) H 1.&.b+b 2 s+_./.'.>.-.=.*.",
"6 ;.,.# $ (.% !.].).{., ^.~.' } [.) H 1.&.&.c+Y 2 l /.'.>.-.=.*.",
"6 ;.,.# $ m.% !.o+B j+, n.~.' } [.) H 1.&.&.&.9 Y h 1+'.>.-.=.*.",
"6 ;.0.'+> / / ~ ~ M.a+_ _ -+;+p.<+f.C+1.&.&.&.&.D 8 h P >.-.=.*.",
"6 I u [+u.| | | 3 3 3 i.p+G+G+J F+@ @+~+&.&.&.&.&.c+#.= y+-.=.*.",
"6 I > s.8.8.7.7.7.l+E+4.4.4.4.9.9.%+S.&.&.&.&.&.&.&.9 #.= _+=.*.",
"6 I > L &.&.&.&.&.&.&.&.&.&.&.&.&.&.&.&.&.&.&.&.&.&.&.$+C.L.$.*.",
"6 I > L &.&.&.&.&.&.&.&.&.&.&.&.&.&.&.&.&.&.&.&.&.&.&.Z.A+= $.*.",
"6 I q.g+&.&.&.&.&.&.&.&.&.&.&.&.&.&.&.&.&.&.&.&.&.&.d B+D+@.=.*.",
"6 I { 4+A A A A Z Z Z Z + + + + + ^+k.&.&.&.&.&.&.c.B+N.>+-.=.*.",
"6 ;.0.F.K.[ [ ( ( &+H.1 1 < < w w D.@ 1.&.&.&.&.Q t f P >.-.=.*.",
"6 ;.,.{ o.++3+6+a n+B k+e+q+e #+)+5 H 1.&.&.&.d ; f |+'.>.-.=.*.",
"6 ;.,.# $ (.% !.].).{., ^.~.' } [.) H 1.&.&.c.; p l /.'.>.-.=.*.",
"6 ;.,.# $ (.% !.].).{., ^.~.' } [.) H 1.&.Q t p d._./.'.>.-.=.*.",
"6 ;.,.# $ (.% !.].).{., ^.~.' } [.) P.&.d ; W.c <._./.'.>.-.=.*.",
"6 ;.,.# $ (.% !.].).{., ^.~.' } [.) (+!+7 O +.}.<._./.'.>.-.=.*.",
"6 ;.,.# $ (.% !.].).{., ^.~.' } [.A.7 y.O o 2.}.<._./.'.>.-.=.*.",
"6 ;.,.# $ (.% !.].).{., ^.~.' } [.}+  G...3.2.}.<._./.'.>.-.=.*.",
"6 ;.,.# $ (.% !.].).{., ^.~.' } 5.] M V 6.3.2.}.<._./.'.>.-.=.*.",
"6 ;.,.# $ (.% !.].).{., ^.~.' } 5.] M e.6.3.2.}.<._./.'.>.-.=.*.",
"6 I h.u U.{+g.:+r t.f+2+k z.4 O.q )+s I...o +.c s+l 7+P >+@.G *.",
"a.l.R.v v . . . & i i y y * * * z z Y.x x n n J.g g ^ ^ ^ w.t+S ",
"b.:.|.|.|.|.|.|.|.|.|.X X X X X X X X X X X X X X X X X X X %.T."};
