/* XPM */
static const char * xpm_terrain_create[] = {
"64 64 257 2",
"  	c None",
". 	c #A3A6CE",
"+ 	c #497078",
"@ 	c #B7A458",
"# 	c #EBE6D1",
"$ 	c #4CB1B3",
"% 	c #D1D3E6",
"& 	c #247075",
"* 	c #B5E5E6",
"= 	c #73C2C4",
"- 	c #38626E",
"; 	c #5CB8BA",
"> 	c #50B3B5",
", 	c #A7DCDC",
"' 	c #8589A3",
") 	c #DDDEEE",
"! 	c #E1E2EA",
"~ 	c #3BAAAB",
"{ 	c #939396",
"] 	c #B3B7DA",
"^ 	c #EBEDFC",
"/ 	c #E7C646",
"( 	c #CFC496",
"_ 	c #B5B9DA",
": 	c #CED1E6",
"< 	c #9EA3CB",
"[ 	c #C7BA89",
"} 	c #D7B335",
"| 	c #73B6B7",
"1 	c #008789",
"2 	c #57768F",
"3 	c #BAA969",
"4 	c #C0E9EA",
"5 	c #C6C9E2",
"6 	c #C6A835",
"7 	c #6EC0C2",
"8 	c #D4D4D3",
"9 	c #2BA3A5",
"0 	c #C3C6E1",
"a 	c #C7B778",
"b 	c #45AEB0",
"c 	c #FDFCFC",
"d 	c #A4A9D1",
"e 	c #9A9DB3",
"f 	c #83C9CA",
"g 	c #F5F2E9",
"h 	c #E0E1F0",
"i 	c #41ADAE",
"j 	c #D8B841",
"k 	c #ADB1D6",
"l 	c #D6D8EA",
"m 	c #F3F3FD",
"n 	c #8ACDCE",
"o 	c #CACDE4",
"p 	c #69BFC0",
"q 	c #BBBBBB",
"r 	c #099395",
"s 	c #CACCDC",
"t 	c #E6E0C7",
"u 	c #FEDA54",
"v 	c #D7D1BE",
"w 	c #B19C49",
"x 	c #65BCBD",
"y 	c #A1A4BB",
"z 	c #199B9D",
"A 	c #DBDCEC",
"B 	c #D2D4E8",
"C 	c #30A4A6",
"D 	c #B9BDDB",
"E 	c #F7D14B",
"F 	c #AC870D",
"G 	c #D9DBEC",
"H 	c #558485",
"I 	c #8D91BE",
"J 	c #DCDBDB",
"K 	c #33A6A8",
"L 	c #AAAED3",
"M 	c #878DB9",
"N 	c #D6CCA5",
"O 	c #D4D6E9",
"P 	c #637576",
"Q 	c #EAEBF6",
"R 	c #88D3D4",
"S 	c #78C4C5",
"T 	c #BDC0DA",
"U 	c #FAF9F5",
"V 	c #A7923B",
"W 	c #B1B4D7",
"X 	c #A1A5D0",
"Y 	c #9196C2",
"Z 	c #8B8B8D",
"` 	c #029193",
" .	c #979BA4",
"..	c #E7BA30",
"+.	c #E4E6F1",
"@.	c #DCDCE4",
"#.	c #657A98",
"$.	c #999ECB",
"%.	c #C5C6C8",
"&.	c #E9C23C",
"*.	c #008D8F",
"=.	c #A28A28",
"-.	c #60BBBC",
";.	c #79A5A6",
">.	c #219FA0",
",.	c #C3BA99",
"'.	c #13999B",
").	c #E5E7F5",
"!.	c #92D2D2",
"~.	c #949AC6",
"{.	c #2C7D81",
"].	c #C0AB59",
"^.	c #E7E8F4",
"/.	c #36A8AA",
"(.	c #CDB55C",
"_.	c #8AB2B2",
":.	c #C3C5D8",
"<.	c #B1DCDB",
"[.	c #9C9DC2",
"}.	c #D6F6F7",
"|.	c #E7EAFB",
"1.	c #9DA0B7",
"2.	c #EDEEEF",
"3.	c #CBC3A6",
"4.	c #B79C34",
"5.	c #B7BCDE",
"6.	c #828590",
"7.	c #109394",
"8.	c #EEF0FD",
"9.	c #DEE1F4",
"0.	c #56B6B7",
"a.	c #A28C35",
"b.	c #26A0A2",
"c.	c #F5F5F5",
"d.	c #DBD2AD",
"e.	c #969CC8",
"f.	c #E5E5E5",
"g.	c #7F84A9",
"h.	c #758B8C",
"i.	c #BDA13B",
"j.	c #F4D350",
"k.	c #9D8521",
"l.	c #7DCECF",
"m.	c #E2E3F1",
"n.	c #8E94C1",
"o.	c #9EDCDD",
"p.	c #CDC7B4",
"q.	c #C1AF6C",
"r.	c #499799",
"s.	c #46B6B6",
"t.	c #59B7B8",
"u.	c #869393",
"v.	c #99D3D4",
"w.	c #B5B9D5",
"x.	c #5BB3B2",
"y.	c #C9CCE4",
"z.	c #688283",
"A.	c #747C82",
"B.	c #687783",
"C.	c #7DC6C8",
"D.	c #BFC3E1",
"E.	c #589797",
"F.	c #BABED5",
"G.	c #77839C",
"H.	c #E2DABD",
"I.	c #AC9125",
"J.	c #CCCEE5",
"K.	c #C6AD4B",
"L.	c #C9B666",
"M.	c #0D9698",
"N.	c #408082",
"O.	c #D3AE32",
"P.	c #D6D1C8",
"Q.	c #61B9BA",
"R.	c #737896",
"S.	c #4EBABC",
"T.	c #DFDFEF",
"U.	c #BCAC75",
"V.	c #D6D8E3",
"W.	c #82BFBF",
"X.	c #92C8C7",
"Y.	c #BEB183",
"Z.	c #67BDBE",
"`.	c #E4E5F4",
" +	c #169698",
".+	c #F8F6EF",
"++	c #52A3A4",
"@+	c #CBF1F2",
"#+	c #3DAFB1",
"$+	c #8DCECF",
"%+	c #FFDE58",
"&+	c #D7D9EB",
"*+	c #8B8FA5",
"=+	c #1E9E9F",
"-+	c #F6F7FF",
";+	c #F1EDDF",
">+	c #CFD0DF",
",+	c #C7C9DA",
"'+	c #54BCBD",
")+	c #B1B3B3",
"!+	c #E7E8EE",
"~+	c #E2E5F8",
"{+	c #CFD2E8",
"]+	c #39A6A8",
"^+	c #90D0D1",
"/+	c #9F831A",
"(+	c #C7CBE3",
"_+	c #62BCBD",
":+	c #7B9A9B",
"<+	c #C1C2C1",
"[+	c #E0DFE4",
"}+	c #C19715",
"|+	c #D7A61F",
"1+	c #C0B27A",
"2+	c #DBDDEC",
"3+	c #DCDEF3",
"4+	c #D2B552",
"5+	c #36A5A7",
"6+	c #EFD04E",
"7+	c #D1CEC8",
"8+	c #A7AFDC",
"9+	c #99D1CE",
"0+	c #D0CBB8",
"a+	c #CCA224",
"b+	c #9DBCBB",
"c+	c #CFB13B",
"d+	c #D9AC21",
"e+	c #4C9EA0",
"f+	c #3EB2B3",
"g+	c #737EA6",
"h+	c #65ADAC",
"i+	c #9197C7",
"j+	c #6FB0B0",
"k+	c #A2A6A6",
"l+	c #D8D8D7",
"m+	c #AF9631",
"n+	c #54B1B0",
"o+	c #BEE3E2",
"p+	c #EDCC4A",
"q+	c #64B7B8",
"r+	c #0D9A9C",
"s+	c #B2B4C5",
"t+	c #F9D550",
"u+	c #AAAEC6",
"v+	c #ACA37D",
"w+	c #7EAEAE",
"x+	c #C6EEEF",
"y+	c #C6CAE7",
"z+	c #66BBBC",
"A+	c #94D8D9",
"B+	c #9E905A",
"C+	c #A1D8D8",
"D+	c #5C6B80",
"E+	c #696E96",
"F+	c #D3D6EC",
"G+	c #C8CCE6",
"H+	c #FFFFFF",
"                                    .+q.U                                                                                       ",
"                                    .+V .+                                                                                      ",
"                                    ;+=.;+                                                                                      ",
"                  U                 H.k.t                 c                                                                     ",
"                  ( [ c             N I.H.            U a d.                                                                    ",
"                  .+V 3 .+          [ 6 d.          U w w U                                                                     ",
"                    # =.w ;+        a c+N         g @ a.;+                                                                      ",
"                      # m+4.H.      q./ (       d.4.m+;+                                                                        ",
"                        H.6 6 (     @ j.a     [ 6 O.d.                                                                          ",
"                          ( j j a ;+].u ].g a j O.,.                                                                            ",
"                          c q.p+6+V i.%+m+a.p+&.B+ .{ { { { { { { { { { { { { { { { { { Z Z c.                                  ",
"                            U @ 6+6+j %+c+6+/ 3 -+c -+-+m m m 8.8.Q Q Q ^.^.).`.`.m.h m.l R.6.                                  ",
"                  c c U g t N 3 =.j.%+u %+t+I.Y.N v J !+!+Q ^ ^ 8.^ ).+.+.m.h T.T.) 2+) >+*+[.B.c.                              ",
"          N q.3 w w i.6 c+j / / p+t+%+u u t+/ ..} } O.6 i.w w @ 3 3.`.m.h T.T.) 2+A G A s ' 8+< A.c                             ",
"          H.( [ a a L.L.(.4+4+j j j.%+u u E j j j 4+4+(.q.U.U.Y.[ 0+m.h T.) ) 2+A G &+G s ' X _ u+Z                             ",
"                        c U   ( I.u u u u t+4.p.+.! +.^.^.^ ^ ^ |.~+h T.T.) 2+G G &+l &+,+' X k D.u+Z                           ",
"                            g @ j.&.} u 6 &.&.@ !+8.Q Q ^.).+.+.m.h T.T.) 2+G G &+l l l ,+' X k 5.{+s+Z                         ",
"                          g @ E } @ K.E i.3 O...@ +.Q ^.+.+.m.m.h T.T.) 2+G G &+l O O O ,+g.d k 5.5 3+s Z                       ",
"                          a &.6 [ 2.].&.].|.[ a+|+U.|.^.+.m.m.h T.T.) 2+A G &+&+O O B O ,+R.~.< u+w.:.2+<+Z                     ",
"                        ( 6 K.v++.-+@ ..a m ^ 3.i.}+Y.|.+.m.h T.) ) A G G &+l O O B B B o  . .e e e e 1.u+6.l+                  ",
"                      d.I.].U <+! -+3 d+[ m Q 8.P.w F p.|.h T.) ) A G G &+l O O B % {+: {+F+F+{+{+: o G+: u+8                   ",
"                    t k.@ g   q ! -+1+}+( 8.^.^.|.[+@ k.7+~+) ) A G G &+l l O B % {+: : J.J.y.y.(+5 0 0 G+y 8                   ",
"                  t =.(       q ! -+[ F p.^ ^.+.+.~+9.Y.a.7+9.A G G &+l l O B B {+: : J.J.o y.(+5 0 0 0 y+y 8                   ",
"                  [ d.        q [+-+( /+0+^ +.+.m.m.m.~+,.,.3+A G &+l l O B B {+: : J.J.o (+(+5 5 0 0 0 y+y 8                   ",
"                  c           q [+m v /+P.|.+.m.m.h T.T.9.2+A G &+l O O B B {+: : J.o y.(+(+5 5 0 0 0 w.] y 8                   ",
"                              q @.8.J =.l+).m.m.h T.) ) A A G &+l O B B % {+: : J.o y.(+(+5 0 0 0 0 w.n.d y 8                   ",
"                              q @.8.[+V J `.m.h T.) ) A G G &+l O O B % {+: : J.o y.(+(+5 0 5 0 0 k Y M d y 8                   ",
"                              q @.Q ! ,.! m.h T.) ) A G G &+l O O B % {+: : J.J.y.(+(+5 5 5 0 ] < Y n.M d y 8                   ",
"                              q V.Q +.).m.h T.) ) A A G &+l O O B % {+: : J.o o (+(+(+5 0 ] . ~.Y Y n.M . y 8                   ",
"                              q V.^.m.h h T.) ) A G G &+l O O B % {+: : J.J.J.o 5 D._ k . e.e.~.~.Y n.M d 1.8                   ",
"                              q V.^.m.h T.) ) A G G &+l O B B % % {+{+: J.5 D.T W d X X < $.e.~.i+n.I M X 1.8                   ",
"                              q V.`.h T.) ) A G G &+l O O O B : J.5 0 D.L [.M #.#.2 2 #.g+M I $.~.n.I M X 1.8                   ",
"                              q % `.T.) ) A G G &+&+l B J.0 D _ ] W [.D+& {.r.| W.W.W.| e+{.& - R.n.n.M < 1.8                   ",
"                              q % m.) ) A G G &+l J.D.D ] W W ] [.D+N.w+C+o+4 o+C+S A+o+4 * , | {.- E+M X 1.8                   ",
"                              q >+m.) A A G {+5 T _ ] ] W ] L G.H ++l.n Z.; ~ b ~ ~ _+i i -.= ^+l.> N.- M y 8                   ",
"                              q >+h A A B 0 D _ _ ] ] W ] < B.E.s.S./.S ; Z.= _+7 p n -.C.S t.S i > '+x.+ D+l+                  ",
"                              q >+h &+o T D D _ ] ] W ] < B.h+/.p $ C.C.7 '.; '.~ ` b M.> =+= S n 0.= 9 p + q                   ",
"                              q >+A 0 D D D _ ] ] W ] [.6.x.r+C.> _+z b.>.z $ '.b r b z i >.b.5+7.; > ^+'.'+N.%.                ",
"                              q >+B D D D _ _ ] W W L A.| #+C+C >._+=+n ; 7 -.i x C x b $ x t.v.b.>  +>.v.i l.+ f.              ",
"                              q s B D D _ ] ] W W ] *+_.-.> 7 K S $ > C.*.-.z 7.5+1 5+7.7./.*.Z.t.> C.K x x -.C.P               ",
"                              q s {+_ _ ] ] W W W [.B.!.9 7 C.b z+1 5+$ >.C.i b x C x b b -.=+C ~ 1 b K = f K o.r.)+            ",
"                              q s : _ ] ] W W k ] G.b+p t.x ` i x K S = p p >.>.b ` b =+>.S x = S /.Z.~ *.t.; 7 , + U           ",
"                              q s J.] ] W W k k < B.o+b $ f b x >.r i r 7.5+1 '.~ *.~ '.1 Q.7.1 t.z 9 $+i S > > 4 r.q           ",
"                              q ,+o W W W k L k g.h.o.> v./.` i z z 7 > = n ; x S $ S = 0., f $ ^+C '.0.r b.S b C+7 u.          ",
"                              q ,+G+W k k L L W #.X.$+$ C.i b p /.$ f >.C $ M.=+i ` ~ K r Z.b z = t.K Z.$ i = b n C+H           ",
"                              q ,+5 k k L L L L #.<.7 x 0.` './.1 >.= *.=+b M.b.$ r b ~ r 0.~ *.$ C 1 /.'.` f x _+@+N.          ",
"                              q :.5 L L L L d . 2 o+0.~ -.C b Z.i -.v.$ Z.f ; 7 f ; f C.; n C.> S 7 ~ 7 b 9 n $ $ x+N.          ",
"                              q :.0 L L d d d [.+ , /.K > M.=+~ *.b.0.1 M.]+1 7.5+1 9 5+1 ~ b.1 b.C 1 ~ =+r 7 b C * N.          ",
"                              q :.0 L d d . d $.+ o+$ ~ Z.$ 7 $+> 7 f /.~ 0.>./.t.=+> ; =+; ; ~ ; S ; ^+p b n $ b x+N.          ",
"                              q :.D.d d . X X X 2 <.p i ; M.>.$ z b n >.i -.9 i -.9 ; > 9 x 0.>.t.$ '.$ >.r n $ _+}.N.          ",
"                              q T D.. . X X < X 2 X.^+K C.> b _+=+~ = *.7.5+1 7.5+1 C >.1 b b.*.> b >.-.b 0.$+~ $+4 N.          ",
"                              q T D.< X < < < X 2 j+, t.= =+M.> > S !.$ b _+K b x C -.0.9 f ; b C+C.~ $ z =+Z.; C+R z.          ",
"                              q T T < < < < $.< g.+ 4 $ Z.p t.0.'.1 ~ M.=+b r =+b ` i K ` S 9 *.Q. +M.= _+0.t.> <.n+ .          ",
"                              q F.D < < $.$.$.$.$.+ v.; = b M._+> ; f C =+i r =+i *.i b.r p >.b.$+_+-.S M.K S ; * & 8           ",
"                              q F.D $.$.$.$.$.~.$.g+N.7 ~ f b b b ` 0.$ i = ~ b x C x i i = ~ i t.` ]+i ~ S b S ; z.            ",
"                              q F._ e.e.e.e.~.i+i+i++ x.> 7 b 0.$+9 i n+1 q+ +7./.1 /.7.7.]+1 b.> 9 f ; ~ f b R & l+            ",
"                              q F._ ~.~.~.~.Y i+n.i+g+H s.t.S *.i -.7 n K $+b 9 > M.$ 9 /.Z.K n C.x t.*.7 x -.++ .              ",
"                              q T y+5.5.5.5.] ] ] ] ] g.;.f+9 $+$ Q.1 b >.C 0.K ; b.-./.i /.z > 1 $ b $+~ #+7 A.                ",
"                              q 6.*+*+*+*+*+' *+' ' ' 6.- w+S.$ > p S /.~ M.~ *.5+1 5+r ]+'.$ $ 7 7 > 0.S.C+P c.                ",
"                              c.8 8 8 8 8 8 8 8 8 8 8 8 8  .:+n p >.p x S > C.b _+i p b S > S t.= 9 7 R W.P 2.                  ",
"                                                            %.z.<.* -.t.K $ i i ~ K _+~ t.> K t.t.* * E.h.c                     ",
"                                                              f.P ;.o+o.C+n _+t.b ~ x > t.n , A+4 j+- q                         ",
"                                                                  J u.+ j+!.4 }.@+* x+}.x+^+q+{.P <+c                           ",
"                                                                      2.)+u.z.H H H H H H h.k+l+c                               "};
