/* XPM */
static const char * xpm_terrain_create[] = {
"64 64 257 2",
"  	c None",
". 	c #B2B6D8",
"+ 	c #C3C7E1",
"@ 	c #758588",
"# 	c #9DA2CD",
"$ 	c #558A8B",
"% 	c #DFE0EF",
"& 	c #6AC4C5",
"* 	c #C5EBEA",
"= 	c #ACB1D5",
"- 	c #4CB0B1",
"; 	c #8EAEAE",
"> 	c #8CCBCB",
", 	c #EDEDF5",
"' 	c #0A9294",
") 	c #008A8C",
"! 	c #A6A6A6",
"~ 	c #48AFB0",
"{ 	c #D8DBF2",
"] 	c #B5B9D9",
"^ 	c #A0A5CE",
"/ 	c #31A3A5",
"( 	c #647578",
"_ 	c #E9EAF4",
": 	c #99D3D3",
"< 	c #BAE8E9",
"[ 	c #A6AAD1",
"} 	c #E4E5F1",
"| 	c #878DB9",
"1 	c #8B8B8B",
"2 	c #CED1E6",
"3 	c #82848A",
"4 	c #EBEDFC",
"5 	c #757A9B",
"6 	c #69BDBE",
"7 	c #C5C9E1",
"8 	c #FFFFFF",
"9 	c #E0E2F0",
"0 	c #9B9EBA",
"a 	c #D6D8EA",
"b 	c #D4D6E8",
"c 	c #58B5B6",
"d 	c #F1F1F8",
"e 	c #D9DBEC",
"f 	c #2DA1A3",
"g 	c #D6D6D6",
"h 	c #B0B3D7",
"i 	c #B9BDDB",
"j 	c #1C9A9C",
"k 	c #C4C4C4",
"l 	c #A9ADD3",
"m 	c #7E83AB",
"n 	c #229C9E",
"o 	c #D4F3F3",
"p 	c #B4B6CB",
"q 	c #F5F6FA",
"r 	c #999ECA",
"s 	c #8AD3D3",
"t 	c #7B7C84",
"u 	c #D0D3E7",
"v 	c #929598",
"w 	c #289EA0",
"x 	c #95D1D2",
"y 	c #55B4B6",
"z 	c #E1F8F8",
"A 	c #5DB8B9",
"B 	c #838697",
"C 	c #B6B9E0",
"D 	c #2E5B66",
"E 	c #FAFAFE",
"F 	c #9396C1",
"G 	c #9499C6",
"H 	c #F4F4F4",
"I 	c #66BCBD",
"J 	c #CACDE4",
"K 	c #70C1C2",
"L 	c #3A696A",
"M 	c #E6E8F3",
"N 	c #DADBEC",
"O 	c #7AC5C6",
"P 	c #D2D4E7",
"Q 	c #969CC8",
"R 	c #9EDCDC",
"S 	c #C1C4DF",
"T 	c #60AAAA",
"U 	c #55A3A2",
"V 	c #45ADAE",
"W 	c #008385",
"X 	c #B4B4B4",
"Y 	c #109395",
"Z 	c #AAE2E3",
"` 	c #8F94C1",
" .	c #85C9CB",
"..	c #3CA8AA",
"+.	c #82C8C9",
"@.	c #386172",
"#.	c #E2E4F0",
"$.	c #485C77",
"%.	c #95CCCB",
"&.	c #196E70",
"*.	c #038E90",
"=.	c #A6D9DA",
"-.	c #4D575E",
";.	c #39A8AA",
">.	c #5B647C",
",.	c #C4C8E9",
"'.	c #A3A6D2",
").	c #5AB6B8",
"!.	c #BDC0DE",
"~.	c #7BC5C6",
"{.	c #ACDBDB",
"].	c #7F8085",
"^.	c #DDDFEE",
"/.	c #21696C",
"(.	c #38A6A8",
"_.	c #4A647A",
":.	c #48ADAE",
"<.	c #60B9BA",
"[.	c #CCCFE5",
"}.	c #66BBBC",
"|.	c #7AACAB",
"1.	c #BABABA",
"2.	c #CDD1ED",
"3.	c #8C91BC",
"4.	c #E0E1EF",
"5.	c #7BCECF",
"6.	c #CDEFEF",
"7.	c #A0A2B3",
"8.	c #35A5A7",
"9.	c #52696E",
"0.	c #DCDEED",
"a.	c #496A6B",
"b.	c #97D8D9",
"c.	c #80C7C9",
"d.	c #75C3C4",
"e.	c #546883",
"f.	c #51B2B3",
"g.	c #54B3B4",
"h.	c #6CBEBF",
"i.	c #A0A4BC",
"j.	c #73C1C3",
"k.	c #2E686E",
"l.	c #40AAAC",
"m.	c #2E797A",
"n.	c #F0F0F0",
"o.	c #B9E2E2",
"p.	c #87CACB",
"q.	c #7D7F8D",
"r.	c #ADAEAE",
"s.	c #008688",
"t.	c #38A4A6",
"u.	c #42ACAD",
"v.	c #6F6F9B",
"w.	c #F8F8F8",
"x.	c #3DAAAC",
"y.	c #597071",
"z.	c #8587AE",
"A.	c #3FA9AA",
"B.	c #3D7275",
"C.	c #129698",
"D.	c #EFF1FD",
"E.	c #16999B",
"F.	c #9D9CC5",
"G.	c #66718B",
"H.	c #78C3C5",
"I.	c #DEE0F4",
"J.	c #45ABAD",
"K.	c #4FB1B3",
"L.	c #6D7792",
"M.	c #ECECEC",
"N.	c #7DC6C7",
"O.	c #F5F6FF",
"P.	c #5DA0A0",
"Q.	c #64B2B1",
"R.	c #DCDEF1",
"S.	c #C9CDE9",
"T.	c #E7E9F9",
"U.	c #42999A",
"V.	c #A1D7D8",
"W.	c #BFC4E6",
"X.	c #61BABB",
"Y.	c #9E9FA4",
"Z.	c #D2D5EE",
"`.	c #D8DAEB",
" +	c #C9CCE3",
".+	c #757780",
"++	c #91CFD0",
"@+	c #64BABA",
"#+	c #C8CBE6",
"$+	c #626C8C",
"%+	c #56B3B4",
"&+	c #EBEBF4",
"*+	c #77C4C5",
"=+	c #C7CBE3",
"-+	c #2A8384",
";+	c #33A9AB",
">+	c #F2F4FE",
",+	c #B2DEDE",
"'+	c #9ED5D6",
")+	c #52B4B5",
"!+	c #F8F8FE",
"~+	c #E1E3F6",
"{+	c #DBDDEB",
"]+	c #A8ABBC",
"^+	c #3EABAD",
"/+	c #189597",
"(+	c #A6A8B6",
"_+	c #E4E6F9",
":+	c #E2E4F7",
"<+	c #87878A",
"[+	c #767982",
"}+	c #EFF0F7",
"|+	c #88CBCC",
"1+	c #57BABA",
"2+	c #AEB0DB",
"3+	c #F7F7FB",
"4+	c #7A9FA0",
"5+	c #61C1C1",
"6+	c #D5D8F0",
"7+	c #8FD7D8",
"8+	c #8DCECE",
"9+	c #9ED8D8",
"0+	c #9197C6",
"a+	c #B0B3C7",
"b+	c #76B6B7",
"c+	c #384B57",
"d+	c #B0AED6",
"e+	c #F3F3F9",
"f+	c #129092",
"g+	c #B8BACE",
"h+	c #A5ACD7",
"i+	c #A8A8D3",
"j+	c #18989A",
"k+	c #A2B9B7",
"l+	c #408889",
"m+	c #3EA6A8",
"n+	c #5EB1AF",
"o+	c #D0D3EA",
"p+	c #D0D3EE",
"q+	c #8A9095",
"r+	c #A3CECB",
"s+	c #76C7C8",
"t+	c #76C9CA",
"u+	c #64BBBD",
"v+	c #54B6B8",
"w+	c #44AAAB",
"x+	c #757992",
"y+	c #E4E6F7",
"z+	c #88CFD0",
"A+	c #898EBF",
"B+	c #85CBCC",
"C+	c #82CCCD",
"D+	c #7A7FA0",
"E+	c #78C3C4",
"F+	c #7EC1C3",
"G+	c #088D8F",
"H+	c #FFFFFF",
"              ].1 1 1 1 1 1 1 1 1 1 1 1 1 1 1 1 <+1 <+<+<+<+<+<+<+<+<+<+<+<+<+<+<+.+Y.                                          ",
"              1 8 8 8 8 8 8 8 8 8 8 E 8 E E !+!+O.O.>+>+D.D.D.4 4 4 4 T.T.T.T.y+4 g+-.!                                         ",
"              1 8 8 E E !+3+3+q e+e+e+d }+, , , &+_ _ M M } } #.9 9 % % ^.0.{+N ~+]+m 5 r.                                      ",
"              1 8 E !+3+q q e+e+d d }+}+, , &+&+_ M M M } #.#.9 4.^.^.^.{+N N `.I.]+5 C x+r.                                    ",
"              1 8 E 3+q q e+e+d d }+}+, , &+_ _ M M } } #.#.9 4.% ^.^.{+N N `.a I.(+5 h+C q.r.                                  ",
"              1 8 !+q q e+e+d d }+}+, , &+&+_ M M } } #.#.9 4.^.^.0.{+N e e `.a R.(+5 h+= ,.q.X                                 ",
"              1 8 3+q e+e+d d }+}+, , &+&+_ M M } } #.#.9 4.% ^.0.{+N N `.`.a a R.(+5 h+l i 2.B 1.                              ",
"              1 8 q e+e+d d }+}+, , &+_ _ M M } } #.#.9 4.% ^.0.{+N N `.`.a a b R.(+5 h+= ] S R.3 k                             ",
"              1 8 q e+d d }+}+, , &+_ _ M M } } #.#.9 % ^.^.0.{+N e e `.a a b P { (+5 h+= ] S [._+1 k                           ",
"              1 8 e+d d }+}+, , &+&+_ M M } } #.9 9 % ^.^.0.{+N e `.`.a a b b P { 7.D+2+h !.7 o+I.!+q+k                         ",
"              1 8 e+d }+}+, , &+_ _ M M } } #.#.9 4.^.^.0.{+N e `.`.a a b b P u { Y.>.5 5 B B q+v Y.r.-.g                       ",
"              1 8 d }+}+, , &+_ _ M M } } #.#.9 % ^.^.0.{+N e `.`.a a b b P u u u 7 a+a+g+p p p a+a+. 7.r.                      ",
"              <+8 }+}+, , &+_ _ M M } } #.9 9 % ^.^.0.{+N e `.a a a b P P u u 2 [.2 o+o+2 [.S.S.#+#+2.]+X                       ",
"              <+E }+, , &+&+_ M M } } #.#.9 4.^.^.0.{+N e `.a a a b b P u u 2 2 [.[.J =+=+7 7 + + + S.i.X                       ",
"              <+E , , &+_ _ M M } } #.#.9 % ^.^.0.{+N e `.a a a b b P u u 2 [.[.[.J  +=+=+7 7 + + S S.i.X                       ",
"              <+E , &+_ _ M M } } #.#.9 % ^.^.0.{+N e `.`.a a b b P u 2 2 2 [.J J  +=+=+7 7 + + S S #+i.X                       ",
"              <+E , &+_ M M } } #.#.9 4.^.^.0.{+N e `.a a b b b P u u 2 2 [.J J  +=+=+7 7 + + S + !.+ i.X                       ",
"              <+!+&+_ M M } } #.#.9 4.^.^.0.{+N e `.a a a b b P u u 2 [.[.[.J  +=+=+7 + + + S + S r ] i.X                       ",
"              3 O._ M M } } #.#.9 % ^.^.0.{+N e `.`.a b b b P u u 2 2 [.J J  +=+=+7 7 + + + + !.r | . i.X                       ",
"              3 O.M M } } #.9 9 % % ^.0.{+N e `.a a b b P P u 2 2 2 [.J J  +=+=+7 7 + + + + . Q 3.| . i.X                       ",
"              3 >+M } } #.#.9 % ^.^.0.{+N e `.a a b b P P u 2 2 2 [.J J  +=+=+7 + + + + i ^ F ` ` | . i.X                       ",
"              3 >+M } #.#.9 % ^.^.0.{+N e `.a a b b P P u 2 2 [.[.J J  +=+=+7 7 7 + i [ Q F 0+` 3.| . i.X                       ",
"              3 D.} #.#.9 % ^.^.0.{+N e `.a a a b b P u 2 2 [.[.J J  + + +=++ !.. ^ r G G G F ` 3.| h i.X                       ",
"              3 D.} #.9 4.^.^.0.{+N e `.a a b b P P u 2 2 2 [.[.[.J  ++ !.. l # r r Q Q G G F ` 3.| h 0 X                       ",
"              3 D.#.9 % ^.^.0.{+N e `.a a a b P P u u u 2 2 J 7 S !.C d+i+'.'.i+'.^ # Q G 0+` ` A+| h 0 X                       ",
"              3 D.4.% % ^.0.{+N e `.a a a b b b P 2 J + !.i C d+F D+$+_.@.@.@._.e.L.z.F r Q ` 3.A+| = 0 X                       ",
"              3 4 4.^.^.0.{+N e `.`.a a b P [.7 !.] h . h F $+D /.m.U.T Q.6 Q.T U.-+&.D $.5 ` 0+A+| = 0 X                       ",
"              ].4 % ^.0.{+N e e `.a P  +S i . h = h C 3._.L P.%.* o 6.* V.x {.* o o < |+U &.D $+A+A+l 0 X                       ",
"              ].4 % 0.{+e e e a [.S i ] . . . h i ^ >.B.n+R b.'+K 6 K.l.:./ :.:.- j.E+=.9+b.%+m.c+v.C 0 X                       ",
"              ].T.0.{+N {+a  +!.i ] ] . . . h C z.9.P.5+s+J.X.f h.(.N.:.+.- O ~ E+A.6 t.I - O 5+n+D L.0 X                       ",
"              ].T.{+N e [.!.i i ] ] . . . h ] D+( @+;+A n +.d. .c.d.+.:.O (.N.:.|+h.p.~.N.E+w I ;+& $ c+1.                      ",
"              ].T.0.a + i i i ] ] . . . h C x+@ 1+E.B+X.++h.u.H.) K.n /+V s.g.f+f - ) *+8.E+8+u+ .C.& P.(                       ",
"              ].T.b S !.i i i ] . . . h C 5 q+1+*.++N.- 6 W ~ / G+K j J.X.j+h.x.n h.) ..A.s.K :. . .) s+T 3                     ",
"              ]._+7 i i i ] ] . . . h C | @ 5+f {.- W A (./ x <.K x - j.N.l.N.K K.: h.u+x w x.).W A =.n 5.$ !                   ",
"              ]._++ i i ] ] . . . h h i+( > v+K 6 ' g.V.y K h.' ..:.s.(...W x./ s.f.8.' d.I ).'+:.' K K f.7+B.g                 ",
"              ].~++ ] i ] . . . h = C G.; 8+/ %+ .c B+;.s.J./ W V ..) u.u.*.u.V ) l.l.W / ..s.A.|+).|+g...z+O y.                ",
"              ].:+S ] ] . . . h h 2+0 ( * u.J.: f *.y E.j c.A - 8+d.c > O K.N.> c H.> ~ @+N.j E.).) 8.'+A.g.< m.k               ",
"              ].~+S . . . . h = = . G.k+7+K.c.A.' c : ).<.p./ E.I j ) V f s.t.- ) n X.j / B+).<.: g.' :.B+K.V.B+y.              ",
"              t ~+!.. . . h = = = i+9.o.*+f h.~.g.K :.) /+f.s.) g.Y ) ~ f ) 8.- ) ' )+) s.K./+) K.K c N.}.8. .< /.{+            ",
"              t I.!.. . h = = l h z.$ 6.- 6 ++Y s.K.(.E.K.d.x.y > ).K.|+h.f.j.|+K.y ++)+l.N.g.E.(.~ s.j+x <.).6.U.Y.            ",
"              t I.!.h h = = l l h G.; o.g.A.h.l.).: I - j.u+w / 6 E.C.).f *.8.v+C.E.h./ w 6 K - I : c ..h.J.A * @+(             ",
"              t R.i = = = l l l 2+_.r+b.w+N.c./ j @+G+W m+/ W Y f.) ) ~ j s.w ~ ) ) )+Y s.f 8.W G+A j 8. .~.u.,+s L             ",
"              t R.i l = = l l [ i+@.{.B+t.- u.C./ O ;.8.j.}.;.y |+V V +.X.u.I c.V ~ p.).;.u+d.8.;.*+/ C.:.%+m+: R /.            ",
"              t { ] l l l l [ [ # @.=.I ~ |+d.~ ).|+:.(.j.K.f l.K n n I ^+j :.I n n h...f K.j.(.A.> v+~ *+p.V d.R &.            ",
"              t { ] l l [ [ [ [ F.k.9+X.f )+8.) C.- s.s.w+n s./+K.) s.~ j s.j ~ ) ) K./+s.n :.s.s.%+C.) 8.)./ K R &.            ",
"              [+{ ] [ l [ '.^ '.F.k.,+j.x.N.*+y I x y ~ c.<.^+K.N.;.(.H.y 8.y O ;.;.~.g.^+X.+.- y x I )+~.~.;. .Z &.            ",
"              [+6+. [ [ '.^ ^ ^ # @.{.8+V A (.) C.}.j E.}.g.w - O 8.8.j.K./ c j.8.(.H.V n K.X.E.E.X.C.) A.6 ~ V.Z /.            ",
"              [+6+. ^ '.^ ^ ^ # '.@.%.=.;.h.8+- ..j.Y ) w+/ W f+- ) s.V j s.n :.s.) - Y s.f ..) C.h.V y ++}.l.o.b.L             ",
"              [+6+h ^ ^ ^ ^ # # '.e.|.o.A ).).j ^+x 6 c +.K ;.- *+/ n I l.j :.u+w 8.~.~ ^+O +.c h.8+..C.).u+@+6.& y.            ",
"              [+Z.h # ^ ^ # # r ^ 5 l+6.g.g.: / ) - n *.x.u+f J.+.~ ^++.u+V I c.^+~  .l.w 6 A.) n - *.x.: ~ }.o U.v             ",
"              [+Z.= # # # # r r r ` @.,+N.V u+}.<. .c *.j f.s.) K.f+) ^+f s.w - ) *.)+) s.K.n ' A p.<.c h.K. .Z &.g             ",
"              [+Z.l # # # r r r Q # $.|.s V '+..s.u.8+v+h.++V 8.K w ' K.(.*.A.c ' f K ;.V ++6 y |+(.s.:.'+u.x & a.              ",
"              .+p+l r r r r r Q G r m L s %+/ '+~ j+c *.' K V ..+.I g. .~.f.~.> f.h.+.;.J.h.' *.c n c '+f <.7+-+r.              ",
"              .+2.l Q r r Q Q G G 0+r $.U 5+y X.c A : V *.V w W l./ s.;...) ;.A.s./ J.W w K.*.~ : ).- 6 ).I t+a.w.              ",
"              .+2.[ G Q Q G 0+0+0+` 0+z.D I ;.8+h.s.l.: ).c.E+n K.K.) ..A.) x.x.) K.- w N.c.c x (.W H.++f 7+m.k                 ",
"              .+2.l r r r Q Q Q G G 0+r $+$ I C.++).*.y C.n 8+- 6 x f.O  .- p.O g.x }.~ |+j+/+y ' K +.' s U 3                   ",
"              [+{ S.S.,.,.,.,.W.W.W.W.W.,.L.|.5+G+=.j.d.u+W - n G+6 ' 8.)+*.v+/ ' I ) w - W K O h.: G+s F+y.w.                  ",
"              ( q.3 q.3 q.q.3 q.q.q.q.q.q.q.c+; 5.w I (.++E+X.j.*.A j j+~ s.g./+n A *.c.<.~.p./ X.f b.> -.n.                    ",
"              H H H H H H H H H H H H H H H w.v 4+Z I K.Y +.l.p.*+c.+.y p.~ |+c |+H.N.+.w+N.Y %+K < b+9.M.                      ",
"                                                X ( ,+< 8+m+<.w }.j K w j./ h.w j.n @+n ).8.: * Z l+].H                         ",
"                                                  {+y.4+o 6.|+c.A K.- t.- n :.8.:.).<.p.B+6.6.T L 1.                            ",
"                                                      1.a.$ '+o z * o.V.|++.8+{.o.6.z o s U.k.v H                               ",
"                                                        8 k @ L l+Q. .b.R b.R b.B+c l+k.y.r.n.                                  ",
"                                                              H k ! [+y.a.L a.y.( v 1.M.                                        "};
