/* XPM */
static const char * xpm_warning[] = {
"64 64 584 2",
"  	c None",
". 	c #000000",
"+ 	c #070501",
"@ 	c #060401",
"# 	c #543A0E",
"$ 	c #785314",
"% 	c #A8761C",
"& 	c #F4AA28",
"* 	c #231805",
"= 	c #714F13",
"- 	c #FFB52C",
"; 	c #FFB72A",
"> 	c #C6881F",
", 	c #0D0802",
"' 	c #2E2008",
") 	c #F1AB2A",
"! 	c #FFB42B",
"~ 	c #FFAE28",
"{ 	c #FFB829",
"] 	c #825914",
"^ 	c #AA781E",
"/ 	c #FFBB2E",
"( 	c #FEB02A",
"_ 	c #FEAE28",
": 	c #FFB028",
"< 	c #ECA123",
"[ 	c #1E1404",
"} 	c #47320D",
"| 	c #FFB62E",
"1 	c #FFB32C",
"2 	c #FFAD27",
"3 	c #FFB428",
"4 	c #7E5512",
"5 	c #A6771E",
"6 	c #FFBC2F",
"7 	c #FEB12C",
"8 	c #FFB02A",
"9 	c #FFAF28",
"0 	c #FEAC27",
"a 	c #FFAF26",
"b 	c #EEA122",
"c 	c #281A05",
"d 	c #49350D",
"e 	c #FFB72F",
"f 	c #FFB42D",
"g 	c #FEB42C",
"h 	c #FFB82C",
"i 	c #FFB72B",
"j 	c #FFB228",
"k 	c #FEAB25",
"l 	c #FFB326",
"m 	c #A46D16",
"n 	c #2C2009",
"o 	c #E2A32B",
"p 	c #FFBA2F",
"q 	c #FFB52D",
"r 	c #F7AF2B",
"s 	c #835A16",
"t 	c #634310",
"u 	c #D18E20",
"v 	c #FFB227",
"w 	c #FFAA25",
"x 	c #FFAE24",
"y 	c #784F10",
"z 	c #B18122",
"A 	c #FFC233",
"B 	c #FFB52E",
"C 	c #FFBA2E",
"D 	c #785515",
"E 	c #271A06",
"F 	c #E79E22",
"G 	c #FFAE25",
"H 	c #FFAC23",
"I 	c #F0A120",
"J 	c #201504",
"K 	c #33250A",
"L 	c #FAB730",
"M 	c #FFB830",
"N 	c #FFBB30",
"O 	c #CF9325",
"P 	c #080601",
"Q 	c #775111",
"R 	c #FFB226",
"S 	c #FFA923",
"T 	c #FFAE23",
"U 	c #63410D",
"V 	c #A17720",
"W 	c #FFBF33",
"X 	c #FFB730",
"Y 	c #FFB82F",
"Z 	c #563D0F",
"` 	c #140D03",
" .	c #E39820",
"..	c #DE921D",
"+.	c #4D3910",
"@.	c #FFBF34",
"#.	c #FFB931",
"$.	c #FFBA30",
"%.	c #E8A52A",
"&.	c #0F0A02",
"*.	c #BA7C1A",
"=.	c #FFAF24",
"-.	c #FEA722",
";.	c #FFB022",
">.	c #AE7115",
",.	c #0B0802",
"'.	c #CC992A",
").	c #FFC135",
"!.	c #FEB731",
"~.	c #FFBC31",
"{.	c #CB9125",
"].	c #050301",
"^.	c #9D6A16",
"/.	c #FFB225",
"(.	c #FFA621",
"_.	c #FFA820",
":.	c #503409",
"<.	c #A17922",
"[.	c #FFC337",
"}.	c #FFB933",
"|.	c #FEB831",
"1.	c #FFBF32",
"2.	c #AB7A1F",
"3.	c #785011",
"4.	c #FEA521",
"5.	c #FFA920",
"6.	c #E6971B",
"7.	c #301E05",
"8.	c #584213",
"9.	c #FFC537",
"0.	c #FFBC34",
"a.	c #FEB933",
"b.	c #FFC132",
"c.	c #966B1B",
"d.	c #51360B",
"e.	c #FFAB23",
"f.	c #FFA822",
"g.	c #FEA41F",
"h.	c #FFAF20",
"i.	c #9D6612",
"j.	c #AF8626",
"k.	c #FFC738",
"l.	c #FEBA34",
"m.	c #FFC232",
"n.	c #866018",
"o.	c #302007",
"p.	c #F8A422",
"q.	c #FFA922",
"r.	c #FFA81E",
"s.	c #DD8E19",
"t.	c #100B01",
"u.	c #4A3810",
"v.	c #FABC36",
"w.	c #FFBE36",
"x.	c #FEBB34",
"y.	c #FFB831",
"z.	c #6E4F14",
"A.	c #130D03",
"B.	c #F09F21",
"C.	c #FFAA23",
"D.	c #FFA41E",
"E.	c #FFA81D",
"F.	c #9E6411",
"G.	c #0E0A03",
"H.	c #D0A02E",
"I.	c #FFC638",
"J.	c #FEBC35",
"K.	c #604512",
"L.	c #0A0701",
"M.	c #DD921E",
"N.	c #FEA31E",
"O.	c #FFA31D",
"P.	c #FFA61C",
"Q.	c #533408",
"R.	c #7D5F1C",
"S.	c #FFC93B",
"T.	c #4C360E",
"U.	c #D18A1C",
"V.	c #FEA21C",
"W.	c #FFA61B",
"X.	c #D48715",
"Y.	c #110A01",
"Z.	c #4F3C12",
"`.	c #FCC139",
" +	c #FFC238",
".+	c #FEBD36",
"++	c #46320D",
"@+	c #D28B1C",
"#+	c #FFA01A",
"$+	c #FFA81A",
"%+	c #8E5A0E",
"&+	c #B38C2A",
"*+	c #FFCC3C",
"=+	c #FEBF37",
"-+	c #FEBE36",
";+	c #FFB62F",
">+	c #45310C",
",+	c #FEA01A",
"'+	c #FFA31A",
")+	c #E08D16",
"!+	c #0E0901",
"~+	c #261E09",
"{+	c #EEB838",
"]+	c #FFC439",
"^+	c #FEBF38",
"/+	c #FFB930",
"(+	c #513A0F",
"_+	c #D38B1C",
":+	c #FF9F19",
"<+	c #FFA41A",
"[+	c #784A0B",
"}+	c #0D0A03",
"|+	c #C6992F",
"1+	c #FFC93D",
"2+	c #FEC038",
"3+	c #FFBD31",
"4+	c #664913",
"5+	c #0E0902",
"6+	c #E89920",
"7+	c #FE9E19",
"8+	c #FFA019",
"9+	c #F99A17",
"0+	c #4E2F06",
"a+	c #826620",
"b+	c #FFD141",
"c+	c #FFC23B",
"d+	c #7D5917",
"e+	c #1B1204",
"f+	c #F3A121",
"g+	c #FE9F19",
"h+	c #FE9D18",
"i+	c #FFA218",
"j+	c #D78612",
"k+	c #130B01",
"l+	c #2E240B",
"m+	c #F1BD3C",
"n+	c #FFC83E",
"o+	c #FEC23B",
"p+	c #896219",
"q+	c #392608",
"r+	c #FBA622",
"s+	c #FF9B17",
"t+	c #FFA417",
"u+	c #794A0A",
"v+	c #040301",
"w+	c #B48D2D",
"x+	c #FFCF42",
"y+	c #FEC43D",
"z+	c #FFC032",
"A+	c #9E711D",
"B+	c #60400E",
"C+	c #FE9B17",
"D+	c #FFA016",
"E+	c #CC7C10",
"F+	c #0A0501",
"G+	c #503F15",
"H+	c #FFCE42",
"I+	c #FFC63F",
"J+	c #FFBE31",
"K+	c #B88321",
"L+	c #895C13",
"M+	c #FFB325",
"N+	c #FF9A16",
"O+	c #FFA015",
"P+	c #7B4909",
"Q+	c #A6832B",
"R+	c #FFD143",
"S+	c #FEC53F",
"T+	c #FFBB31",
"U+	c #D39626",
"V+	c #A56E17",
"W+	c #FFB124",
"X+	c #FE9A15",
"Y+	c #FF9C14",
"Z+	c #EF9012",
"`+	c #2B1903",
" @	c #5C4918",
".@	c #FFCB43",
"+@	c #FFC840",
"@@	c #F2AC2C",
"#@	c #261A06",
"$@	c #C9861D",
"%@	c #FE9A16",
"&@	c #FE9814",
"*@	c #FF9E14",
"=@	c #B1680D",
"-@	c #070400",
";@	c #32280E",
">@	c #F3C441",
",@	c #FFCD43",
"'@	c #FEC640",
")@	c #FEB62F",
"!@	c #FFBE30",
"~@	c #8A6118",
"{@	c #F9A624",
"]@	c #FE9914",
"^@	c #FF9713",
"/@	c #FF9F13",
"(@	c #895009",
"_@	c #B18E30",
":@	c #FFD547",
"<@	c #FEC842",
"[@	c #FEC740",
"}@	c #FFB92F",
"|@	c #E6A229",
"1@	c #1C1305",
"2@	c #976616",
"3@	c #FEA823",
"4@	c #FE9613",
"5@	c #FF9812",
"6@	c #F08D10",
"7@	c #201302",
"8@	c #3B3010",
"9@	c #FDCD45",
"0@	c #FFCC44",
"a@	c #FEB52E",
"b@	c #AF7B1E",
"c@	c #1F1606",
"d@	c #0E0A02",
"e@	c #664510",
"f@	c #FAAA25",
"g@	c #FFAC25",
"h@	c #FEA822",
"i@	c #FE9713",
"j@	c #FF9612",
"k@	c #FF9A11",
"l@	c #724207",
"m@	c #AB8B2F",
"n@	c #FFD548",
"o@	c #FEC943",
"p@	c #FEB42E",
"q@	c #FEB32D",
"r@	c #FFB72D",
"s@	c #F5AA29",
"t@	c #F1A426",
"u@	c #FEB028",
"v@	c #FFAE26",
"w@	c #FEA924",
"x@	c #FE9512",
"y@	c #FF9711",
"z@	c #EF8B0E",
"A@	c #2E1A02",
"B@	c #4D3F16",
"C@	c #FFD248",
"D@	c #FFCD45",
"E@	c #FEB22D",
"F@	c #FFB42A",
"G@	c #FFB027",
"H@	c #FFAB26",
"I@	c #FE9411",
"J@	c #FF9B0F",
"K@	c #AD6309",
"L@	c #1C1708",
"M@	c #D2AE3D",
"N@	c #FFD549",
"O@	c #FECB44",
"P@	c #FFB42E",
"Q@	c #FFB92E",
"R@	c #FDB52C",
"S@	c #F1A628",
"T@	c #EEA326",
"U@	c #F9AA27",
"V@	c #FFB327",
"W@	c #FF940F",
"X@	c #FF930E",
"Y@	c #633805",
"Z@	c #B59535",
"`@	c #FFDB4C",
" #	c #FECD46",
".#	c #CC9024",
"+#	c #50370E",
"@#	c #0C0902",
"##	c #2E1F07",
"$#	c #946416",
"%#	c #FDAC25",
"&#	c #FE920E",
"*#	c #FF940E",
"=#	c #EF8A0D",
"-#	c #221301",
";#	c #352C10",
">#	c #FBCF49",
",#	c #FFD049",
"'#	c #FECD47",
")#	c #CF9726",
"!#	c #110B03",
"~#	c #A36D17",
"{#	c #FE930E",
"]#	c #FF910E",
"^#	c #FF960D",
"/#	c #653A05",
"(#	c #8E772A",
"_#	c #FFD94C",
":#	c #FECE48",
"<#	c #644712",
"[#	c #231705",
"}#	c #DD931E",
"|#	c #FE900E",
"1#	c #FF950D",
"2#	c #CF7509",
"3#	c #1A0E01",
"4#	c #534419",
"5#	c #FFD64D",
"6#	c #FFD24A",
"7#	c #FFBD32",
"8#	c #D69928",
"9#	c #FFB024",
"0#	c #FE910E",
"a#	c #FF8F0D",
"b#	c #FF970C",
"c#	c #B26307",
"d#	c #0E0B04",
"e#	c #D0B040",
"f#	c #FFDA4F",
"g#	c #FECF49",
"h#	c #FFC033",
"i#	c #B48122",
"j#	c #60400D",
"k#	c #FFAD23",
"l#	c #FF900D",
"m#	c #FF8F0C",
"n#	c #FF910A",
"o#	c #532E03",
"p#	c #8D772B",
"q#	c #FFDC51",
"r#	c #FFD24B",
"s#	c #CF9527",
"t#	c #754E10",
"u#	c #FFA521",
"v#	c #FF8E0C",
"w#	c #D97807",
"x#	c #211201",
"y#	c #5C4D1D",
"z#	c #FFDE52",
"A#	c #FFD54E",
"B#	c #FED14B",
"C#	c #563D10",
"D#	c #110B02",
"E#	c #D78E1D",
"F#	c #FF8C0A",
"G#	c #FF9509",
"H#	c #9E5605",
"I#	c #B3993A",
"J#	c #FFE053",
"K#	c #FED24D",
"L#	c #B68422",
"M#	c #825713",
"N#	c #FFA722",
"O#	c #FF8E09",
"P#	c #E07A07",
"Q#	c #0E0800",
"R#	c #362E12",
"S#	c #F3CD4D",
"T#	c #FFD750",
"U#	c #FED34D",
"V#	c #9E701C",
"W#	c #48320C",
"X#	c #2D1F07",
"Y#	c #2B1D07",
"Z#	c #3A2709",
"`#	c #724C11",
" $	c #EFA223",
".$	c #FF8B08",
"+$	c #FF8E08",
"@$	c #884904",
"#$	c #100E05",
"$$	c #D6B846",
"%$	c #FFDE54",
"&$	c #FED44F",
"*$	c #FFBB2F",
"=$	c #F8AB29",
"-$	c #F7A927",
";$	c #FCAB27",
">$	c #FF8D06",
",$	c #5A2F02",
"'$	c #82702B",
")$	c #FFE557",
"!$	c #FFD651",
"~$	c #FFB22B",
"{$	c #FFB029",
"]$	c #FFAF27",
"^$	c #FFAC26",
"/$	c #FF8908",
"($	c #FF8C06",
"_$	c #D87404",
":$	c #140A00",
"<$	c #483D18",
"[$	c #FCDF56",
"}$	c #FFE759",
"|$	c #FFE156",
"1$	c #FFDF51",
"2$	c #FFDD4F",
"3$	c #FFDB4D",
"4$	c #FFDA4C",
"5$	c #FFD94B",
"6$	c #FFD748",
"7$	c #FFD346",
"8$	c #FFD244",
"9$	c #FFD043",
"0$	c #FFCF41",
"a$	c #FFCD3E",
"b$	c #FFCB3B",
"c$	c #FFCA3B",
"d$	c #FFC939",
"e$	c #FFC637",
"f$	c #FFC436",
"g$	c #FFC234",
"h$	c #FFBF31",
"i$	c #FFBD30",
"j$	c #FFBA2C",
"k$	c #FFB82A",
"l$	c #FFB729",
"m$	c #FFB528",
"n$	c #FFAD21",
"o$	c #FFAC20",
"p$	c #FFAB1E",
"q$	c #FFA91C",
"r$	c #FFA619",
"s$	c #FFA418",
"t$	c #FFA317",
"u$	c #FFA215",
"v$	c #FFA014",
"w$	c #FF9E13",
"x$	c #FF9C12",
"y$	c #FF990F",
"z$	c #FF980E",
"A$	c #FF940B",
"B$	c #FF9309",
"C$	c #FF9108",
"D$	c #FF9006",
"E$	c #FF9606",
"F$	c #8E4C03",
"G$	c #685A23",
"H$	c #A68E36",
"I$	c #9B8332",
"J$	c #9B8231",
"K$	c #9B8130",
"L$	c #9B802F",
"M$	c #9B802D",
"N$	c #9B7E2C",
"O$	c #9B7D2C",
"P$	c #9B7D2B",
"Q$	c #9B7B29",
"R$	c #9B7A29",
"S$	c #9B7A28",
"T$	c #9B7927",
"U$	c #9B7826",
"V$	c #9B7724",
"W$	c #9B7522",
"X$	c #9B7421",
"Y$	c #9B7320",
"Z$	c #9B7220",
"`$	c #9B711F",
" %	c #9B701D",
".%	c #9B6F1C",
"+%	c #9B6E1C",
"@%	c #9B6D1B",
"#%	c #9B6C1B",
"$%	c #9B6B1A",
"%%	c #9B6A18",
"&%	c #9B6917",
"*%	c #9B6817",
"=%	c #9B6716",
"-%	c #9B6615",
";%	c #9B6514",
">%	c #9B6413",
",%	c #9B6412",
"'%	c #9B6311",
")%	c #9B6210",
"!%	c #9B600F",
"~%	c #9B5E0E",
"{%	c #9B5E0D",
"]%	c #9B5D0C",
"^%	c #9B5C0B",
"/%	c #9B5B0B",
"(%	c #9B5A0A",
"_%	c #9B5909",
":%	c #9B5808",
"<%	c #9B5607",
"[%	c #9B5505",
"}%	c #9B5405",
"|%	c #9B5203",
"1%	c #A05503",
"2%	c #874602",
"3%	c #050200",
"                                                                                                                                ",
"                                                                                                                                ",
"                                                                                                                                ",
"                                                                                                                                ",
"                                                                                                                                ",
"                                                              . .                                                               ",
"                                                            . . . .                                                             ",
"                                                            . + @ . .                                                           ",
"                                                          . . # $ . .                                                           ",
"                                                          . . % & * . .                                                         ",
"                                                        . . = - ; > , .                                                         ",
"                                                      . . ' ) ! ~ { ] . .                                                       ",
"                                                      . . ^ / ( _ : < [ . .                                                     ",
"                                                    . . } | 1 ( _ 2 3 4 . .                                                     ",
"                                                    . . 5 6 7 8 9 0 a b c . .                                                   ",
"                                                  . . d e f g h i j k l m . .                                                   ",
"                                                . . n o p q r s t u v w x y . .                                                 ",
"                                                . . z A B C D . . E F G H I J . .                                               ",
"                                              . . K L M N O P . . . Q R S T U . .                                               ",
"                                              . . V W X Y Z . . . . `  .H H ..c . .                                             ",
"                                            . . +.@.#.$.%.&.. . . . . *.=.-.;.>.. .                                             ",
"                                            . ,.'.).!.~.{.].. . . . . ^./.-.(._.:.. .                                           ",
"                                          . . <.[.}.|.1.2.. . . . . . 3./.-.4.5.6.7.. .                                         ",
"                                        . . 8.9.0.a.|.b.c.. . . . . . d.e.f.4.g.h.i.. .                                         ",
"                                        . . j.k.l.a.!.m.n.. . . . . . o.p.q.4.g.r.s.t.. .                                       ",
"                                      . . u.v.w.x.a.y.1.z.. . . . . . A.B.C.4.g.D.E.F.. .                                       ",
"                                      . G.H.I.J.x.a.y.~.K.. . . . . . L.M.e.4.g.N.O.P.Q.. .                                     ",
"                                    . . R.S.w.J.x.a.#.M T.. . . . . . @ U.H 4.g.N.V.W.X.Y..                                     ",
"                                  . . Z.`. +.+J.x.a.#.X ++. . . . . . + @+H 4.g.N.V.#+$+%+. .                                   ",
"                                  . . &+*+=+-+J.x.a.#.;+>+. . . . . . + @+H 4.g.N.V.,+'+)+!+. .                                 ",
"                                . . ~+{+]+^+-+J.x.a.#./+(+. . . . . . + _+H 4.g.N.V.,+:+<+[+. .                                 ",
"                                . }+|+1+2+^+-+J.x.a.y.3+4+. . . . . . 5+6+e.4.g.N.V.,+7+8+9+0+. .                               ",
"                              . . a+b+c+2+^+-+J.x.a.|.m.d+. . . . . . e+f+C.4.g.N.V.,+g+h+i+j+k+.                               ",
"                            . . l+m+n+o+2+^+-+J.x.a.!.m.p+. . . . . . q+r+q.4.g.N.V.,+g+h+s+t+u+. .                             ",
"                            . v+w+x+y+o+2+^+-+J.x.a.|.z+A+. . . . . . B+x f.4.g.N.V.,+g+h+C+D+E+F+. .                           ",
"                          . . G+H+I+y+o+2+^+-+J.x.a.|.J+K+. . . . . . L+M+-.4.g.N.V.,+g+h+C+N+O+P+. .                           ",
"                          . . Q+R+S+y+o+2+^+-+J.x.a.|.T+U++ . . . . . V+W+-.4.g.N.V.,+g+h+C+X+Y+Z+`+. .                         ",
"                        . .  @.@+@S+y+o+2+^+-+J.x.a.|./+@@#@. . . . v+$@x -.4.g.N.V.,+g+h+C+%@&@*@=@-@.                         ",
"                      . . ;@>@,@'@S+y+o+2+^+-+J.x.a.|.)@!@~@. . . . o.{@C.-.4.g.N.V.,+g+h+C+%@]@^@/@(@. .                       ",
"                      . . _@:@<@[@S+y+o+2+^+-+J.x.a.|.)@}@|@1@. . . 2@R 3@-.4.g.N.V.,+g+h+C+%@]@4@5@6@7@. .                     ",
"                    . . 8@9@0@<@[@S+y+o+2+^+-+J.x.a.|.)@a@C b@c@d@e@f@g@h@-.4.g.N.V.,+g+h+C+%@]@i@j@k@l@. .                     ",
"                    . . m@n@o@<@[@S+y+o+2+^+-+J.x.a.|.)@p@q@r@s@t@u@v@w@3@-.4.g.N.V.,+g+h+C+%@]@i@x@y@z@A@. .                   ",
"                  . . B@C@D@o@<@[@S+y+o+2+^+-+J.x.a.|.)@a@E@1 - F@G@H@w@3@-.4.g.N.V.,+g+h+C+%@]@i@x@I@J@K@. .                   ",
"                  . L@M@N@O@o@<@[@S+y+o+2+^+-+J.x.a.|.)@P@Q@R@S@T@U@V@w h@-.4.g.N.V.,+g+h+C+%@]@i@x@I@W@X@Y@. .                 ",
"                . . Z@`@ #O@o@<@[@S+y+o+2+^+-+J.x.a.|.)@p .#+#A.@###$#%#S -.4.g.N.V.,+g+h+C+%@]@i@x@I@&#*#=#-#. .               ",
"              . . ;#>#,#'#O@o@<@[@S+y+o+2+^+-+J.x.a.!.3+)#!#. . . . . ~#M+-.4.g.N.V.,+g+h+C+%@]@i@x@I@{#]#^#/#. .               ",
"              . . (#_#:#'#O@o@<@[@S+y+o+2+^+-+J.x.a.y.N <#. . . . . . [#}#H 4.g.N.V.,+g+h+C+%@]@i@x@I@{#|#1#2#3#. .             ",
"            . . 4#5#6#:#'#O@o@<@[@S+y+o+2+^+-+J.x.a.7#8#P . . . . . . . y 9#4.g.N.V.,+g+h+C+%@]@i@x@I@{#0#a#b#c#. .             ",
"            . d#e#f#g#:#'#O@o@<@[@S+y+o+2+^+-+J.x.a.h#i#. . . . . . . . j#k#(.g.N.V.,+g+h+C+%@]@i@x@I@{#0#l#m#n#o#. .           ",
"          . . p#q#r#g#:#'#O@o@<@[@S+y+o+2+^+-+J.x.a.7#s#@ . . . . . . . t#=.u#g.N.V.,+g+h+C+%@]@i@x@I@{#0#l#v#n#w#x#.           ",
"        . . y#z#A#B#g#:#'#O@o@<@[@S+y+o+2+^+-+J.x.a.#.T+C#. . . . . . D#E#H 4.g.N.V.,+g+h+C+%@]@i@x@I@{#0#l#v#F#G#H#. .         ",
"        . . I#J#K#B#g#:#'#O@o@<@[@S+y+o+2+^+-+J.x.a.!.1.L#. . . . . . M#W+N#4.g.N.V.,+g+h+C+%@]@i@x@I@{#0#l#v#F#O#P#Q#. .       ",
"      . . R#S#T#U#B#g#:#'#O@o@<@[@S+y+o+2+^+-+J.x.a.|.X ;+V#W#X#Y#Z#`# $e.-.4.g.N.V.,+g+h+C+%@]@i@x@I@{#0#l#v#F#.$+$@$. .       ",
"      . #$$$%$&$U#B#g#:#'#O@o@<@[@S+y+o+2+^+-+J.x.a.|.)@B *$g =$-$;$V@g@h@-.4.g.N.V.,+g+h+C+%@]@i@x@I@{#0#l#v#F#.$.$>$,$. .     ",
"    . . '$)$!$&$U#B#g#:#'#O@o@<@[@S+y+o+2+^+-+J.x.a.|.)@a@q@1 ~${$]$^$w@3@-.4.g.N.V.,+g+h+C+%@]@i@x@I@{#0#l#v#F#.$/$($_$:$.     ",
"  . . <$[$}$|$J#1$2$3$4$5$6$:@7$8$9$0$a$b$c$d$k.e$f$g$z+h$i$/ j$k$l$m$l /.W+T n$o$p$q$$+r$s$t$u$v$w$x$J@y$z$^#A$B$C$D$E$F$. .   ",
"  . . G$H$I$J$K$L$M$N$O$P$Q$R$S$T$U$U$V$W$X$X$Y$Z$`$ %.%+%@%#%$%%%&%*%=%-%-%;%>%,%'%)%!%!%~%{%]%^%/%(%_%:%:%<%[%}%}%|%1%2%3%. . ",
". . . . . . . . . . . . . . . . . . . . . . . . . . . . . . . . . . . . . . . . . . . . . . . . . . . . . . . . . . . . . . . . ",
". . . . . . . . . . . . . . . . . . . . . . . . . . . . . . . . . . . . . . . . . . . . . . . . . . . . . . . . . . . . . . . . ",
"                                                                                                                                ",
"                                                                                                                                ",
"                                                                                                                                ",
"                                                                                                                                ",
"                                                                                                                                "};
