/* XPM */
static const char * xpm_warning[] = {
"48 48 257 2",
"  	c None",
". 	c #92570A",
"+ 	c #F3A322",
"@ 	c #FE920F",
"# 	c #323232",
"$ 	c #FAFAFA",
"% 	c #FFC135",
"& 	c #FEA622",
"* 	c #EDA323",
"= 	c #302209",
"- 	c #443613",
"; 	c #CACACA",
"> 	c #ED9E1C",
", 	c #FEC53E",
"' 	c #7B5312",
") 	c #D77A09",
"! 	c #FEBB34",
"~ 	c #E5E5E5",
"{ 	c #ED9212",
"] 	c #ED8C0E",
"^ 	c #A16710",
"/ 	c #FFB92C",
"( 	c #FEC740",
"_ 	c #717171",
": 	c #FFAC23",
"< 	c #845B15",
"[ 	c #FEB832",
"} 	c #5C4514",
"| 	c #C2C2C2",
"1 	c #6C6C6C",
"2 	c #BEBEBE",
"3 	c #EDC441",
"4 	c #A6872C",
"5 	c #F4B42E",
"6 	c #EDAC2B",
"7 	c #763F02",
"8 	c #9A9A9A",
"9 	c #C18B23",
"0 	c #DBA62E",
"a 	c #FEA31E",
"b 	c #644712",
"c 	c #C6C6C6",
"d 	c #D4B542",
"e 	c #949494",
"f 	c #6B4F15",
"g 	c #F1F1F1",
"h 	c #828282",
"i 	c #EDB532",
"j 	c #D2D2D2",
"k 	c #FEBF37",
"l 	c #FFC739",
"m 	c #FFAD24",
"n 	c #000000",
"o 	c #646464",
"p 	c #EDEDED",
"q 	c #432D0A",
"r 	c #E9E9E9",
"s 	c #FFC93B",
"t 	c #856019",
"u 	c #FFDD52",
"v 	c #8B7025",
"w 	c #FFAA23",
"x 	c #925005",
"y 	c #FF940E",
"z 	c #FFCD41",
"A 	c #EDBC39",
"B 	c #FF8D09",
"C 	c #FFD042",
"D 	c #B08526",
"E 	c #DE951D",
"F 	c #FE9D18",
"G 	c #EED352",
"H 	c #FF9B12",
"I 	c #44320D",
"J 	c #FFC62D",
"K 	c #FE9A17",
"L 	c #797979",
"M 	c #5C5C5C",
"N 	c #FFC132",
"O 	c #FFD64C",
"P 	c #FFBA32",
"Q 	c #9B8632",
"R 	c #FF9E15",
"S 	c #535353",
"T 	c #3D3D3D",
"U 	c #FFB62F",
"V 	c #FFA818",
"W 	c #FFB029",
"X 	c #8C8C8C",
"Y 	c #FE9713",
"Z 	c #FEA11B",
"` 	c #F28B0A",
" .	c #383838",
"..	c #1A1103",
"+.	c #FFBB2E",
"@.	c #AC7A1D",
"#.	c #B6B6B6",
"$.	c #FE9412",
"%.	c #EDCD4C",
"&.	c #5D3D0B",
"*.	c #EAEAEA",
"=.	c #FFD94E",
"-.	c #FFD449",
";.	c #FFB926",
">.	c #121212",
",.	c #4B360D",
"'.	c #FECD46",
").	c #FFC531",
"!.	c #B17F21",
"~.	c #D38E1E",
"{.	c #FAC035",
"].	c #FFB125",
"^.	c #D78F1D",
"/.	c #FECA43",
"(.	c #C88C22",
"_.	c #442502",
":.	c #1A1A1A",
"<.	c #FFE153",
"[.	c #FFA41A",
"}.	c #4E4218",
"|.	c #FFA216",
"1.	c #E69920",
"2.	c #F5F5F5",
"3.	c #EDC846",
"4.	c #442906",
"5.	c #DDAB33",
"6.	c #FFBA29",
"7.	c #FFCE44",
"8.	c #BA811E",
"9.	c #FECE48",
"0.	c #201403",
"a.	c #FFBF30",
"b.	c #FF9F11",
"c.	c #9B6F1C",
"d.	c #FFB225",
"e.	c #FF950A",
"f.	c #110C03",
"g.	c #FFA722",
"h.	c #2C1D06",
"i.	c #231C09",
"j.	c #B97F1D",
"k.	c #FFB227",
"l.	c #AAAAAA",
"m.	c #424242",
"n.	c #725012",
"o.	c #FFC333",
"p.	c #FFBC31",
"q.	c #EDBA36",
"r.	c #F8B22F",
"s.	c #FFAC1D",
"t.	c #ED8506",
"u.	c #D3A937",
"v.	c #FFD949",
"w.	c #FFC230",
"x.	c #FFBE2B",
"y.	c #FEB52D",
"z.	c #976112",
"A.	c #FF920B",
"B.	c #3A3A3A",
"C.	c #0D0D0D",
"D.	c #0E0902",
"E.	c #4F2C03",
"F.	c #2A2A2A",
"G.	c #261905",
"H.	c #060502",
"I.	c #FEA41F",
"J.	c #FEBC35",
"K.	c #FEC038",
"L.	c #FE9F19",
"M.	c #FEC23B",
"N.	c #FE9914",
"O.	c #FEC842",
"P.	c #FFBC33",
"Q.	c #FF8F0D",
"R.	c #FED04A",
"S.	c #FDFDFD",
"T.	c #FFA91F",
"U.	c #4E4E4E",
"V.	c #D08B1C",
"W.	c #C78F25",
"X.	c #331A01",
"Y.	c #FEA920",
"Z.	c #FFAD28",
"`.	c #FFAA24",
" +	c #F6CD45",
".+	c #FAB62F",
"++	c #69561F",
"@+	c #FECE46",
"#+	c #FF970F",
"$+	c #6E4007",
"%+	c #FFD13D",
"&+	c #F58A05",
"*+	c #FFC834",
"=+	c #E18A13",
"-+	c #ED9817",
";+	c #ED8708",
">+	c #FFDF4F",
",+	c #71490C",
"'+	c #D98E19",
")+	c #EDC13E",
"!+	c #D59825",
"~+	c #FCAF26",
"{+	c #FFB729",
"]+	c #FFA71C",
"^+	c #DF8C14",
"/+	c #4A2701",
"(+	c #FFD847",
"_+	c #FF9C0E",
":+	c #DFA129",
"<+	c #E6A526",
"[+	c #D8830F",
"}+	c #F5D24D",
"|+	c #FED24C",
"1+	c #F39D19",
"2+	c #B06609",
"3+	c #FFF05B",
"4+	c #8F6317",
"5+	c #976C1C",
"6+	c #9A6716",
"7+	c #B28826",
"8+	c #BA8421",
"9+	c #FDBB31",
"0+	c #FEB830",
"a+	c #FDCB40",
"b+	c #FFB223",
"c+	c #F7A119",
"d+	c #D9BA45",
"e+	c #FDBC31",
"f+	c #F59613",
"g+	c #FFBF32",
"h+	c #FCAA23",
"i+	c #532F04",
"j+	c #FFAA20",
"k+	c #FF9607",
"l+	c #FFA018",
"m+	c #CB8A1D",
"n+	c #FFA319",
"o+	c #FFA31A",
"p+	c #EDB02E",
"q+	c #FBB125",
"r+	c #BF8D26",
"s+	c #FAB630",
"t+	c #B57212",
"u+	c #B57C1A",
"v+	c #A16E19",
"w+	c #AA7015",
"x+	c #F4900D",
"y+	c #FAD047",
"z+	c #FFD145",
"A+	c #B0B0B0",
"B+	c #EFA826",
"C+	c #BBBBBB",
"D+	c #CCCCCC",
"E+	c #D4B23E",
"F+	c #503006",
"G+	c #54370A",
"H+	c #FFFFFF",
"                                                                                                ",
"                                                                                                ",
"                                                                                                ",
"                                              l.X $                                             ",
"                                            *.F.n #.                                            ",
"                                          $ o H.n  .~                                           ",
"                                          2 n ,.b n e                                           ",
"                                        $ o D.8.<+h. .~                                         ",
"                                        A+C.n./ x.@.H._                                         ",
"                                      r # G.:+/ W k.,.>.C+                                      ",
"                                      L n t a.W Z.{+u+H.S $                                     ",
"                                    *.# G.:++./ / k.~+&.>.2                                     ",
"                                    _ f.!.w.y.c.< * ;.E =  .~                                   ",
"                                  #.H.b o.).@.H.n n.q+;.z.n _                                   ",
"                                ~ B.D.r+*+6 q n n f.m+;.E h.>.;                                 ",
"                                8 n f {.o.8+n n n n z.d.b+w+n 1                                 ",
"                              ~ B.i.0 % N 5+n n n n n.].w j+&.>.|                               ",
"                              1 D.7+l P N < n n n n G+`.g.: E G.# ~                             ",
"                            2 C.,.{.% P a.f n n n n = + w & s.,+n X                             ",
"                          S.M H.D l ! P 9+} n n n n ..1.: I.T.'+G.# r                           ",
"                          2 C.} l % ! ! s+,.n n n n f.~.: I.a s.^ n h                           ",
"                        r T = 5.l J.! P.r.q n n n n D.V.m I.a [.c+G+>.C+                        ",
"                        _ n v %+k J.! P.r.q n n n n D.V.m I.a Z s.t+n U.                        ",
"                      j >.i.5.s k J.! P..+,.n n n n f.^.m I.a Z o+1+&.>.2                       ",
"                      1 D.4 C K.k J.! P e+b n n n n ..1.: I.a Z L.n+=+G.B.r                     ",
"                    | >.} a+, K.k J.! P g+f n n n n = + w I.a Z L.F V . n h                     ",
"                  r T ..u.C M.K.k J.! P N < n n n n &.: g.I.a Z L.F |.=+G.:.;                   ",
"                  8 n ++C , M.K.k J.! P N c.n n n n ' ].g.I.a Z L.F K |.z.n _                   ",
"                g m.i.u.C , M.K.k J.! [ N 9 H.n n n 6+d.g.I.a Z L.F K R f+F+:.c                 ",
"                L H.4 (+( , M.K.k J.! [ p.5 I n n f.~.].& I.a Z L.F K N.R [+0.T g               ",
"              ; >.-  +7.( , M.K.k J.! [ U a.!.f.n ' ~+w & I.a Z L.F K N.Y b.$+n e               ",
"            S.M n 4 v.O.( , M.K.k J.! [ U y.y.(.j.B+m g.& I.a Z L.F K N.Y H ) 0. .*.            ",
"            D+>.}.y+7.O.( , M.K.k J.! [ U y.+.).J 6.`.g.& I.a Z L.F K N.Y Y b.. n X             ",
"          *.m.i.E+v./.O.( , M.K.k J.! [ U +.!+4+< 8.: `.& I.a Z L.F K N.Y $.#+x+i+:.|           ",
"          h n v >+@+/.O.( , M.K.k J.! [ N 9 G.n n f.v+d.g.I.a Z L.F K N.Y $.@ _+2+H.T g         ",
"        j :.i.d v.'./.O.( , M.K.k J.! ! 5 ,.n n n n 0.~.m I.a Z L.F K N.Y $.@ y ` E.H.l.        ",
"        L n Q >+9.'./.O.( , M.K.k J.! % W.H.n n n n n < ].a a Z L.F K N.Y $.@ Q.#+) ..m.2.      ",
"      ; :.}.}+O 9.'./.O.( , M.K.k J.! % W.H.n n n n n < b+a a Z L.F K N.Y $.@ @ Q.e.x H.e       ",
"    p T i.d+<.R.9.'./.O.( , M.K.k J.! P.5 I n n n n ..~.m I.a Z L.F K N.Y $.@ @ Q.A.` _.>.|     ",
"    8 n ++<.O R.9.'./.O.( , M.K.k J.! [ N !.0.n n D.4+].g.I.a Z L.F K N.Y $.@ @ Q.B e.x n 1     ",
"  p T 0.d u |+R.9.'./.O.( , M.K.k J.! [ 0+U W.v+v+j.+ : & I.a Z L.F K N.Y $.@ @ Q.B B t.E.:.;   ",
"  X H.Q 3+u =.=.O -.z+7.z z s l l % % % p.p.o.w.x.x.d.m : j+T.]+[.n+l+R R N.#+#+y A.B k+) ..U.2.",
"c :.}.G G %.%.3.3.3.3 )+)+)+A q.q.i i i p+p+6 6 B+B+* * * > > > -+-+-+{ { { ] ] ] ;+;+t.&+7 n e ",
"B.n = }.- - - - - - - - - - I - I I I I I I q I q q q q q q q 4.4.4.4.4.4.4._._._._._._./+X.n F.",
"S #  . . . . . . . . . . . . . . . . . . . . . . . . . . . . . . . . . . . . . . . . . . . .# S ",
"                                                                                                ",
"                                                                                                ",
"                                                                                                "};
