/* XPM */
static const char* xpm_arrow1e[]={
"80 16 3 1",
"# c #000000",
"a c #808080",
". c None",
"...............................##a..............................................",
"................................###a............................................",
".................................#####a.........................................",
"..................................#######a......................................",
"...................................#########a...................................",
"...................................a###########a................................",
"............................######################a.............................",
"............................########################............................",
"............................######################a.............................",
"...................................a###########a................................",
"...................................#########a...................................",
"..................................#######a......................................",
".................................#####a.........................................",
"................................###a............................................",
"...............................##a..............................................",
"................................................................................"};
