/* XPM */ 
static const char * xpm_objectTypeMine[] = {
"32 32 4 1",
" 	c None",
"!	c black",
"#	c #B8B8B8",
"$	c #929292",
"                                ",
"                                ",
"                                ",
"                                ",
"                                ",
"                                ",
"                                ",
"                                ",
"                                ",
"                                ",
"           !!!!!!!!!!           ",
"        !!!##########!!!        ",
"      !!################!!      ",
"      !##################!      ",
"     !####################!     ",
"     !!##################!!     ",
"     !!!################!!!     ",
"     !$$!!!##########!!!$$!     ",
"     !$$$$$!!!!!!!!!!$$$$$!     ",
"      !!$$$$$$$$$$$$$$$$!!      ",
"        !!!$$$$$$$$$$!!!        ",
"           !!!!!!!!!!           ",
"                                ",
"                                ",
"                                ",
"                                ",
"                                ",
"                                ",
"                                ",
"                                ",
"                                ",
"                                "};
