/* XPM */
static const char* xpm_simdbg[]={
"16 16 237 2",
"ar c #000013",
"#A c #0b0c0c",
"#O c #0b0d10",
"#P c #0c0c0f",
"ac c #0d0d13",
"ao c #0e0f12",
"#N c #0f111c",
".r c #102d7f",
"#Q c #111111",
"#4 c #11111b",
".H c #112265",
"an c #17121b",
"#d c #18181e",
".1 c #18191e",
"bC c #191816",
"aP c #192452",
".m c #1a1918",
"aD c #1a1b1d",
"ad c #1a1b1e",
"ag c #1b1924",
"bt c #1b3180",
".b c #1b3683",
"#5 c #1d1d1e",
"a1 c #1e3584",
".e c #1e3782",
".9 c #1f1c18",
".f c #1f2752",
"bG c #1f3a85",
"aZ c #201f1b",
"#n c #211f1c",
"ah c #212224",
"ab c #21252e",
"a2 c #212645",
"bF c #213d87",
".T c #22211f",
".s c #223579",
"bE c #223d8a",
"aC c #232029",
".U c #232220",
"aq c #232428",
".4 c #242227",
"aN c #252423",
"#3 c #25252a",
"bH c #25408d",
".I c #27283a",
"#a c #272948",
"a0 c #272f51",
"bD c #27305c",
"ay c #29292b",
".E c #2a2927",
"aj c #2a2a2f",
".8 c #2a4475",
"bB c #2b2b2a",
"ak c #2b2f50",
"bI c #2d3667",
"#. c #2e2e2d",
"bc c #2e3144",
"bb c #2f2e2b",
"aA c #2f303e",
"bd c #2f4082",
"Qt c #313131",
".u c #313449",
".# c #323231",
"#o c #323335",
"#I c #323338",
"a5 c #32333b",
"#E c #33343a",
"aO c #343c6b",
"#m c #345693",
"az c #363c6d",
"ap c #37383a",
"av c #37383b",
"au c #373845",
"bs c #374986",
"#F c #393c58",
".C c #3a3e48",
".G c #3c4c94",
".B c #3d74cd",
".n c #3e3e3d",
"bu c #3e4e8e",
".q c #3e5397",
".X c #3f3f4d",
"#T c #404248",
"a6 c #42454e",
"#X c #42464f",
".z c #437be1",
".A c #437fe3",
".l c #4768a7",
"bq c #48474a",
"aU c #48494e",
"#U c #484b5f",
".d c #485995",
"#i c #494849",
"#q c #494951",
"#p c #494e73",
".g c #495f86",
"am c #4a4651",
".Q c #4b83e1",
"aR c #4c4e54",
"a7 c #4d5059",
".c c #4d5c95",
"bp c #4e4e4e",
".t c #4f526f",
".2 c #504f55",
".o c #50504d",
"bi c #505050",
"bj c #505358",
"bJ c #506284",
".j c #5085df",
".k c #518be9",
"aQ c #52514e",
"bg c #525159",
"al c #535357",
"## c #535a89",
"br c #545a84",
"#k c #555354",
"be c #555b8d",
".S c #555c6a",
"b# c #558ced",
".v c #565458",
"as c #565963",
".p c #575761",
"#W c #575860",
"bx c #576a85",
"#y c #58575e",
"bf c #595c7b",
".D c #5a5957",
"#s c #5a5a5e",
"a8 c #5a5a62",
"bK c #5a8eeb",
"bh c #5b5a57",
"bQ c #5c2525",
".h c #5c92ee",
"#x c #5e5e63",
"bw c #5e6072",
".V c #5e6280",
"#7 c #5f5e66",
"#z c #606163",
"a# c #606267",
"bv c #616891",
".5 c #625f62",
".0 c #626267",
"#8 c #646473",
"#H c #64676c",
".W c #656a99",
"#w c #66656d",
"#M c #666871",
"#Z c #666872",
"bn c #668acb",
".7 c #668fd8",
".R c #6691db",
"a4 c #676669",
"by c #699ef0",
"aS c #6a6a71",
"a. c #6a6a72",
"bk c #6a717d",
"#l c #6a84b6",
".y c #6b90d5",
"aW c #6c6d72",
".a c #6c77a6",
"bm c #6c95dd",
"aB c #6d6b6e",
"aV c #6d6d71",
".i c #7093d2",
"#j c #747277",
"a3 c #767472",
"#t c #767679",
"#G c #7c7c7c",
".3 c #7d7c7f",
"aG c #808187",
"#V c #838484",
"#0 c #838589",
"aE c #858585",
"#Y c #858892",
"ba c #860e0c",
"bz c #865a9a",
".F c #868693",
"aY c #87100d",
"aM c #871111",
"bP c #880d0a",
"#D c #881315",
"#S c #881417",
"#9 c #888889",
"#e c #88888a",
"aT c #888a8e",
".w c #8897ae",
".P c #88a3d3",
"ax c #891417",
"#6 c #8b1f22",
"aw c #8c1f20",
"ai c #8c2022",
"#R c #8d1e1f",
"a9 c #8d2f32",
"#B c #8e3337",
".x c #8eaee2",
"bA c #911817",
"aa c #919298",
"aI c #92787b",
"bO c #94293c",
"#2 c #969697",
"ae c #96989a",
"#c c #97989c",
"aK c #992224",
".M c #99989c",
"b. c #9bb0cd",
".6 c #9ca7bc",
"bL c #9e4c80",
"bN c #9e4f84",
"aJ c #a04147",
"bo c #a12b29",
".N c #a29f9f",
".O c #a2a6b2",
"bM c #a34978",
"af c #a3a3a9",
".J c #a4a4a1",
"#r c #abacad",
"at c #adadb1",
".L c #b0b1b2",
".Z c #b1b1b5",
"aF c #b1b2b5",
"bl c #b56171",
"aH c #b6b5b6",
".Y c #b7b7b4",
"#f c #b7b8b9",
"#b c #bfbfb9",
"#1 c #c0c0c1",
"#h c #c1c0c0",
"#g c #c3c4c5",
"#J c #c6c6c9",
"#K c #c9c9cc",
"#v c #cdcccd",
"aX c #ce7374",
".K c #d0d0cd",
"#L c #dad9db",
"aL c #db1517",
"#u c #dedee0",
"#C c #ff0000",
"Qt.#.a.b.c.d.e.f.g.h.i.j.k.l.m.n",
".o.p.q.r.s.t.u.v.w.x.y.z.A.B.C.D",
".E.F.G.H.I.J.K.L.M.N.O.P.Q.R.S.T",
".U.V.W.X.Y.Z.0.1.2.3.4.5.6.7.8.9",
"#.###a#b#c#d#e#f#g#h#i#j#k#l#m#n",
"#o#p#q#r#s#t#u#v#w#x#y#z#A#B#C#D",
"#E#F#G#H#I#J#K#L#M#N#O#P#Q#R#C#S",
"#T#U#V#W#X#Y#Z#0#1#2#3#4#5#6#C#S",
"#7#8#9a.a#aaabacadaeafagahai#C#S",
"ajakalamanaoapaqarasatauavaw#Cax",
"ayazaAaBaCaDaEaFaGaHaIaJaKaL#CaM",
"aNaOaPaQaRaSaTaUaVaWaX#C#C#C#CaY",
"aZa0a1a2a3a4a5a6a7a8a9#Cb.b##Cba",
"bbbcbdbebfbgbhbibjbkbl#Cbmbn#Cbo",
"bpbqbrbsbtbubvbwbxbybz#C#C#C#CbA",
"bBbCbDbEbFbGbHbIbJbKbLbMbNbObPbQ"};
