/* XPM */
static const char * xpm_aaa_function_copy[] = {
"32 32 257 2",
"  	c None",
". 	c #D9DADB",
"+ 	c #DDEAFF",
"@ 	c #8DD392",
"# 	c #A6C4E3",
"$ 	c #9AA5B4",
"% 	c #806678",
"& 	c #C3DBFF",
"* 	c #BAD3FF",
"= 	c #5AC859",
"- 	c #A85155",
"; 	c #5C8557",
"> 	c #983535",
", 	c #9797B7",
"' 	c #B7C9B7",
") 	c #D5D5D5",
"! 	c #348B2B",
"~ 	c #69E56C",
"{ 	c #51E452",
"] 	c #34C82E",
"^ 	c #74AC71",
"/ 	c #D3333D",
"( 	c #DCDEE2",
"_ 	c #99A8C2",
": 	c #CAE3FF",
"< 	c #E96C6C",
"[ 	c #AA99A9",
"} 	c #A0BED4",
"| 	c #CBCBCB",
"1 	c #7C5965",
"2 	c #702A2B",
"3 	c #E75858",
"4 	c #756655",
"5 	c #77C877",
"6 	c #C5CDDB",
"7 	c #F9FAFF",
"8 	c #638E78",
"9 	c #896D71",
"0 	c #94A2B5",
"a 	c #A3A8CB",
"b 	c #30AD29",
"c 	c #3BC741",
"d 	c #A3AAB4",
"e 	c #959699",
"f 	c #B5716B",
"g 	c #CCD3DD",
"h 	c #B4B4B5",
"i 	c #AAC2D7",
"j 	c #A2A5AC",
"k 	c #AAAAAB",
"l 	c #826F4F",
"m 	c #32E22D",
"n 	c #C9DDFF",
"o 	c #A5BCE1",
"p 	c #5C8769",
"q 	c #D6E5FF",
"r 	c #B4C4D2",
"s 	c #F5F8FF",
"t 	c #CFE0FF",
"u 	c #487648",
"v 	c #34732B",
"w 	c #2E591D",
"x 	c #C3D6E3",
"y 	c #99A3AC",
"z 	c #CBDDE8",
"A 	c #556A38",
"B 	c #B41717",
"C 	c #BDD8F5",
"D 	c #77E67B",
"E 	c #C4D5F0",
"F 	c #EEF5FF",
"G 	c #9C9DA0",
"H 	c #15DB0C",
"I 	c #971B1B",
"J 	c #E1E1E1",
"K 	c #AD8271",
"L 	c #6F1F1F",
"M 	c #E5F2FF",
"N 	c #799C80",
"O 	c #94727A",
"P 	c #8BAB93",
"Q 	c #4C9F47",
"R 	c #E1EEFF",
"S 	c #BDBEC1",
"T 	c #8F9EB6",
"U 	c #27831C",
"V 	c #239719",
"W 	c #58894A",
"X 	c #894247",
"Y 	c #8AA7A2",
"Z 	c #FFFFFF",
"` 	c #8E7686",
" .	c #C6DAF1",
"..	c #6B9179",
"+.	c #D1D5DB",
"@.	c #FAFAFA",
"#.	c #419A39",
"$.	c #5AA658",
"%.	c #A4B7CD",
"&.	c #456436",
"*.	c #F9FEFF",
"=.	c #98535A",
"-.	c #B3B9C1",
";.	c #93859E",
">.	c #B2C4DD",
",.	c #E5E6E6",
"'.	c #4C8448",
").	c #256F19",
"!.	c #E48588",
"~.	c #FCFCFF",
"{.	c #9EACD4",
"].	c #B2D1FF",
"^.	c #957986",
"/.	c #F1F3F4",
"(.	c #D9E2EF",
"_.	c #47C348",
":.	c #CCDBF0",
"<.	c #C5C5C6",
"[.	c #8C3F49",
"}.	c #D0E6FF",
"|.	c #928196",
"1.	c #A1A1A6",
"2.	c #CDCDCD",
"3.	c #F1F9FF",
"4.	c #AAADB3",
"5.	c #DDE6E2",
"6.	c #D6D8DD",
"7.	c #C8CDE3",
"8.	c #764D59",
"9.	c #F1F6FF",
"0.	c #9D94AC",
"a.	c #C5E0FF",
"b.	c #EBF6FF",
"c.	c #BCD7F5",
"d.	c #2B6720",
"e.	c #ADCDFF",
"f.	c #AAB3C1",
"g.	c #71956D",
"h.	c #34672A",
"i.	c #EAF1FF",
"j.	c #948BA7",
"k.	c #517C49",
"l.	c #BFD5F0",
"m.	c #BAD7F5",
"n.	c #8E7F98",
"o.	c #8B949A",
"p.	c #AFC7E1",
"q.	c #753F49",
"r.	c #5E1C1C",
"s.	c #DE0C0C",
"t.	c #DF1414",
"u.	c #6F4049",
"v.	c #EE9292",
"w.	c #B4CFFF",
"x.	c #BFD8FF",
"y.	c #FCFFFF",
"z.	c #79D07C",
"A.	c #A6F0AE",
"B.	c #CCCFD4",
"C.	c #B6BAC0",
"D.	c #A3BEF3",
"E.	c #898C90",
"F.	c #EDF3FF",
"G.	c #AFC5F3",
"H.	c #DF6060",
"I.	c #6DB866",
"J.	c #ECF0F0",
"K.	c #9DA9B1",
"L.	c #EEF9FF",
"M.	c #B7D2E1",
"N.	c #B0ABAC",
"O.	c #1EA213",
"P.	c #6B8E6D",
"Q.	c #97B2BA",
"R.	c #689C65",
"S.	c #738F7C",
"T.	c #ACB9C2",
"U.	c #5E8957",
"V.	c #DFE6F0",
"W.	c #A1B0C3",
"X.	c #A9B8CF",
"Y.	c #BCD0CE",
"Z.	c #57251C",
"`.	c #CE8C8F",
" +	c #CFD8E6",
".+	c #C7C8CA",
"++	c #D5DFEE",
"@+	c #7B8183",
"#+	c #96A4B7",
"$+	c #428D3B",
"%+	c #86EC8D",
"&+	c #6DCF6F",
"*+	c #79C76F",
"=+	c #559D48",
"-+	c #78D169",
";+	c #D0D1D1",
">+	c #90B2C2",
",+	c #B5B6D2",
"'+	c #3DDD3F",
")+	c #DBE3DD",
"!+	c #A9BEA7",
"~+	c #D3E3FE",
"{+	c #C61D1D",
"]+	c #7DA295",
"^+	c #7D606F",
"/+	c #74513C",
"(+	c #C8D1E0",
"_+	c #D7EDF6",
":+	c #867086",
"<+	c #D7E9FF",
"[+	c #DBE8FE",
"}+	c #EEF2F8",
"|+	c #CEE6F5",
"1+	c #BCCDD7",
"2+	c #B0B6C1",
"3+	c #BC3A3F",
"4+	c #E4E4E4",
"5+	c #44BC49",
"6+	c #53A645",
"7+	c #86A586",
"8+	c #89DC7E",
"9+	c #91A08F",
"0+	c #98B194",
"a+	c #BAD0F0",
"b+	c #C0D0C5",
"c+	c #9EA6B5",
"d+	c #C13F49",
"e+	c #C93939",
"f+	c #D02626",
"g+	c #D1DDCE",
"h+	c #B0BCE1",
"i+	c #ACC2B6",
"j+	c #C0D2D2",
"k+	c #BC484D",
"l+	c #944951",
"m+	c #774449",
"n+	c #24E01C",
"o+	c #E2E9F2",
"p+	c #BBC6E1",
"q+	c #21AB17",
"r+	c #9A9EA8",
"s+	c #A7C8FF",
"t+	c #D1DEF0",
"u+	c #F5FCFF",
"v+	c #CB6C73",
"w+	c #D36F76",
"x+	c #B5C9E0",
"y+	c #60E664",
"z+	c #BFCBDF",
"A+	c #1EC515",
"B+	c #BACEF3",
"C+	c #839098",
"D+	c #538055",
"E+	c #8F9093",
"F+	c #8D9F97",
"G+	c #9E8794",
"H+	c #FFFFFF",
"                                                                ",
"  k . ) ) ) ) ) ) ) ) ) ) k                                     ",
"  <.Z Z Z Z Z Z ' g+Z Z Z <.                                    ",
"  S Z 7 7 7 0+k.^ R.' 7 ~.S                                     ",
"  S y.s s b+U.A.A.@ g.G h .+| | | | | | | | | .+G 2.@.          ",
"  S *.F F N @ @ k.g.' 1.<.4+J J J J J J J J J ( 4.h . /.        ",
"  C.u+i.9+&.5 W 4 O O h 4+Z Z Z Z Z Z Z Z Z Z Z ,.h e ;+        ",
"  -.3.Y.'.*+8+I.W K `.N.. Z ~.~.~.~.~.~.J.P ; U.' ( 1.k 4+@.    ",
"  -.b.+ S.=+-+A 4 O O k . Z 7 7 7 7 7 !+k.$.5 5 v )+) e @+) @.  ",
"  2+M q p = 6+l f G+~+4.. Z s s s s 5.d.z.z.I.5 v 5.}+B.G j <.  ",
"  f.R t u y+#.4 !.=.[ 4.6.Z 9.9.9.9.7+$.%+v P.U.' Z y./..+E+@+  ",
"  f.+ i '.{ u ^+v+w+1 4.6.*.F F.F.F.h.D &+u (+(.V.(.V.o+( -.E.  ",
"  S.D+u 5+_...0.- =.0.4.+.*.F.i.i+; $+D Q D+Y X._ T _ X.(+6 r+  ",
"  u '+'+c p C+l+- ;.* d +.u+i.j+v = ~ ~ = = v Z.r.r.r.1 p+(+r+  ",
"  S.D+u p @+X k+:+a a j g 3.R [ /+A = y+w A K v.v.v.v.r.:. +j   ",
"  W.a.e., q.d+[.[.[.[.1.g L.+ [+9 d.{ _.w r.r.r.r.X !.2 <+++j   ",
"  _ & D.q.3+/ / / / / 1.(+b.[+q F+! { #.l m+7.q ~+^.- ^.R (.d   ",
"  W.: ]., ^+u.u.u.u.u.r+6 M <+~+N b '+U f - 9 q q 7.L 7.R (.d   ",
"  y x p.p.p.p.p.p.p.p.$ z+M ~+t u ] m w < < > ^.t t E t + ++d   ",
"                      c+z+R t l.d.m b &.> < H.2 ,+n n n <+t+c+  ",
"                      c+r P ]+Y V n+U Q.8.k+3 > |.& & & q :.c+  ",
"                      $ ..V V U A+q+8 x.|.> 3+1 B+x.x.x.}.:.$   ",
"                      $ h.H H H O.8 } n.> e+L a * * * h+:  .$   ",
"                      $ ..).U ).8 # n.L f+L j.* * * o L p+ .#+  ",
"                      0 >.M.>+o w.j.L f+L n.w.w.w.G.:+I ` E 0   ",
"                      0 >.: ].e., r.{+I r.r.r.r.r.r.I {+^+E 0   ",
"                      0 >.a.e.{.8.B t.t.t.t.t.t.t.t.t.I |.l.0   ",
"                      T i & s+^+B s.s.s.s.s.s.s.s.s.s.I , a+T   ",
"                      #+x+}.].{.% r.r.r.r.r.r.r.r.r.r.% a. .#+  ",
"                      $ 1+_+C m.C C C c.c.c.c.C c.c.m.c.|+z $   ",
"                      o.K.r %.%.%.%.%.%.%.%.%.%.%.%.%.%.r T.o.  ",
"                                                                "};
