/* XPM */
static const char * xpm_aaa_function_edit[] = {
"32 32 257 2",
"  	c None",
". 	c #E7E8EB",
"+ 	c #BBD3FF",
"@ 	c #6CC76D",
"# 	c #BABABD",
"$ 	c #7C9D79",
"% 	c #ADBCE3",
"& 	c #346528",
"* 	c #CFE0FF",
"= 	c #AAB1BD",
"- 	c #C5DBFF",
"; 	c #8F7786",
"> 	c #CBD7EB",
", 	c #9795B6",
"' 	c #941B1B",
") 	c #F9FAFF",
"! 	c #3C9935",
"~ 	c #499643",
"{ 	c #296A1D",
"] 	c #BD1A1A",
"^ 	c #B3CFFF",
"/ 	c #B1B5BD",
"( 	c #7E6378",
"_ 	c #CBDEFF",
": 	c #A9C9FF",
"< 	c #754C59",
"[ 	c #ABC2B6",
"} 	c #1CAB12",
"| 	c #972424",
"1 	c #CB1919",
"2 	c #C6DDFF",
"3 	c #C6DDF5",
"4 	c #993333",
"5 	c #CCD9D3",
"6 	c #BED6FF",
"7 	c #B5BCC3",
"8 	c #D0E4FF",
"9 	c #772A2A",
"0 	c #1CBC13",
"a 	c #2F7525",
"b 	c #E2EAF4",
"c 	c #BD6565",
"d 	c #C8E0FF",
"e 	c #F7F8FF",
"f 	c #691E1E",
"g 	c #C1D9FF",
"h 	c #ECF3FF",
"i 	c #666754",
"j 	c #E5EFFF",
"k 	c #781C1C",
"l 	c #759B88",
"m 	c #5D8659",
"n 	c #8B7D98",
"o 	c #AAB5C3",
"p 	c #DAE7FF",
"q 	c #D7E6FF",
"r 	c #D2E2FF",
"s 	c #AECCFF",
"t 	c #E7F1FF",
"u 	c #D8E6FF",
"v 	c #B4B6BD",
"w 	c #672222",
"x 	c #DFEAFF",
"y 	c #DCEBFF",
"z 	c #DAE9FF",
"A 	c #CEDFFF",
"B 	c #517F59",
"C 	c #815459",
"D 	c #6F9786",
"E 	c #3C7B34",
"F 	c #876A79",
"G 	c #998EA4",
"H 	c #2F6824",
"I 	c #C6C3C3",
"J 	c #BE4545",
"K 	c #F5F5F5",
"L 	c #5E1C1C",
"M 	c #FFFFFF",
"N 	c #DE0B0B",
"O 	c #DE1111",
"P 	c #FCFCFF",
"Q 	c #B6D1FF",
"R 	c #F3F7FF",
"S 	c #EFF5FF",
"T 	c #285E1C",
"U 	c #EE9292",
"V 	c #EAF1FF",
"W 	c #801B1B",
"X 	c #C5C2C3",
"Y 	c #71EA75",
"Z 	c #F4F4F5",
"` 	c #999EC2",
" .	c #C3DCF5",
"..	c #92EE9A",
"+.	c #F7FAFF",
"@.	c #DCE1EB",
"#.	c #C2D7F4",
"$.	c #BCBBBD",
"%.	c #F1F8FF",
"&.	c #C7E3FF",
"*.	c #FBFDFF",
"=.	c #2C9222",
"-.	c #CED8F3",
";.	c #BFBCBD",
">.	c #F0F5FF",
",.	c #E96565",
"'.	c #ECF4FF",
").	c #B0CDFF",
"!.	c #BCCFEB",
"~.	c #826779",
"{.	c #E0ECFF",
"].	c #E9F2FF",
"^.	c #FEFEFF",
"/.	c #EFF1F4",
"(.	c #F4FAFF",
"_.	c #E75B5B",
":.	c #EA6F6F",
"<.	c #EFF6FF",
"[.	c #FDFEFF",
"}.	c #BFD1EB",
"|.	c #E3EFFF",
"1.	c #DDE8FF",
"2.	c #D0E0FF",
"3.	c #D8E0EB",
"4.	c #C0BDBD",
"5.	c #EB7878",
"6.	c #1BD513",
"7.	c #52984E",
"8.	c #B5D2FF",
"9.	c #3FD23B",
"0.	c #CCD7F3",
"a.	c #668C72",
"b.	c #E12929",
"c.	c #B9D2F3",
"d.	c #B24E4E",
"e.	c #B0CFFF",
"f.	c #4B8E46",
"g.	c #21D619",
"h.	c #6D5B3C",
"i.	c #34B62D",
"j.	c #A42323",
"k.	c #BBD0E1",
"l.	c #259A1B",
"m.	c #D2E1FF",
"n.	c #978498",
"o.	c #EEF3FF",
"p.	c #41DB3E",
"q.	c #5FD660",
"r.	c #D65B5B",
"s.	c #34712A",
"t.	c #9BB498",
"u.	c #7D5968",
"v.	c #F0F3F0",
"w.	c #EC8080",
"x.	c #856F86",
"y.	c #BAABB6",
"z.	c #A6A7C5",
"A.	c #7B5059",
"B.	c #C3DCFF",
"C.	c #D1DFF4",
"D.	c #B6C9F3",
"E.	c #9F4343",
"F.	c #81EC87",
"G.	c #68E96B",
"H.	c #3E431C",
"I.	c #A04B4B",
"J.	c #A2B89E",
"K.	c #8CA989",
"L.	c #91A18B",
"M.	c #90AD95",
"N.	c #65B465",
"O.	c #F1F6FF",
"P.	c #D72020",
"Q.	c #1ADE12",
"R.	c #C9E4FF",
"S.	c #886068",
"T.	c #5EC55D",
"U.	c #A5C6FF",
"V.	c #D4E1E1",
"W.	c #4CA048",
"X.	c #4DB949",
"Y.	c #73967D",
"Z.	c #76987F",
"`.	c #7C9375",
" +	c #B4C6B6",
".+	c #94B4C2",
"++	c #4D5428",
"@+	c #ACC7E3",
"#+	c #456435",
"$+	c #1FA215",
"%+	c #3EAF38",
"&+	c #28D722",
"*+	c #E1EBFF",
"=+	c #3AE235",
"-+	c #F4F6FF",
";+	c #ADB3C8",
">+	c #9A7D89",
",+	c #CC4E4E",
"'+	c #C55F5F",
")+	c #59A157",
"!+	c #A08895",
"~+	c #734249",
"{+	c #7AEB7E",
"]+	c #AD99A4",
"^+	c #BAB3C5",
"/+	c #C03434",
"(+	c #9CA9D4",
"_+	c #43843C",
":+	c #AAB2D2",
"<+	c #C87373",
"[+	c #ACCBFF",
"}+	c #28AC20",
"|+	c #87E38D",
"1+	c #BDCEC2",
"2+	c #88ED8E",
"3+	c #A1AED4",
"4+	c #B73232",
"5+	c #ACB2BD",
"6+	c #C76F6F",
"7+	c #6A6F43",
"8+	c #BDC9E3",
"9+	c #8CABA4",
"0+	c #9CA8A9",
"a+	c #948295",
"b+	c #BDD8FF",
"c+	c #D6E8FF",
"d+	c #9B8695",
"e+	c #9F8895",
"f+	c #8D6D79",
"g+	c #5B201C",
"h+	c #238017",
"i+	c #E65151",
"j+	c #A63333",
"k+	c #4CE54B",
"l+	c #5BE75B",
"m+	c #E2EDFF",
"n+	c #A193A7",
"o+	c #84DB89",
"p+	c #D03030",
"q+	c #AB1212",
"r+	c #31E12B",
"s+	c #3F703A",
"t+	c #B1A5B6",
"u+	c #699177",
"v+	c #887288",
"w+	c #C67F72",
"x+	c #E37979",
"y+	c #EBF2FF",
"z+	c #CA3E3E",
"A+	c #D5E5FF",
"B+	c #D6E4FF",
"C+	c #8E4040",
"D+	c #894E45",
"E+	c #C0DAFF",
"F+	c #C2D8FF",
"G+	c #B5D0FF",
"H+	c #FFFFFF",
"      K I I I K M K I I I I K M K I I I I K M K I I I K         ",
"      I J J J I M I J J J J I M I J J J J I M I J J J I         ",
"      I J 4.I Z ^.Z X X X X Z v.J.`.L.X X Z ^.Z I 4.J I         ",
"      I J ;.M P P P P P P P t.H 7.)+f.$ [.P P P M ;.J I         ",
"      K I . [.) ) ) ) ) ) K.E o+......T ) ) ) ) [.. I K         ",
"        M /.*.e e e e e  +E |+N.T _+E $ e e e e *./.M           ",
"      K I . ) R R R R R m @ 2+H 5 1+5 R R R R -+) . I K         ",
"      I J $.+.>.S S S V.s.F.@ m S >.S S S S S O.+.$.J I         ",
"      I J $.(.h h [ m T ~ {+W.T $ b h h h h h o.(.$.J I         ",
"      I J # %.y+V m T.Y Y Y Y Y W.M.V V V V V V %.# J I         ",
"      I J # <.t j [ #+T q.G.T T H.g+L L L L C y.<.# J I         ",
"      K I @.'.j m+]+D+s.l+X.7+U U U U U U U <+C '.@.I K         ",
"        M b ].*+x x i ! l+! h.L L L L L 9 c 6+C ].b M           ",
"      K I 3.t 1.p p a.%+k+a w+C+>+1.p p ^+w c S.t 3.I K         ",
"      I J v |.p q A+s+9.p.& w.x+w t+u q q e+I.!+|.v J I         ",
"      I J v {.B+r k.{ =+i.++5.5.'+A.-.r r 0.d+-.{.v J I         ",
"      I J / y m.* 9+=.r+=.i d.:.:.E.f+2.* * A 2.y / J I         ",
"      I J / p A _ u+}+&+{ ;+w r.,.,.9 n+_ _ _ _ z / J I         ",
"      K I Z.& T B { g.l.l - n.9 _._.,+~+- - - 2 c+> I K         ",
"        M & 6.Q.0 6.$+D c.g g F 4 i+4 G g g g - A+C.M           ",
"      K I Y.$+0 } h+D @+6 6 z.f z+j+F 6 6 6 6 F+8 > I K         ",
"      I J 0+l B a..++ + + D.u.4+/+< % + + + + 6 8 5+J I         ",
"      I J = d + G+Q Q Q Q ~.| p+f , Q Q Q G+% v+8+= J I         ",
"      I J = d Q ^ ^ ^ ^ v+| b.k n G+^ ^ ^ ^ x.j.; = J I         ",
"      I J = 2 ^ s ).).n k P.' ( ` ` ` ` ` n f ] A.= J I         ",
"      K I }.B.s [+s , f 1 1 W W W W W W W ' 1 ' n.}.I K         ",
"        M #.E+[+: (+< ] O O O O O O O O O O O ' G #.M           ",
"      K I !.b+: U.( q+N N N N N N N N N N N N k :+!.I K         ",
"      I J = d 8.e.3+( L L L L L L L L L L L L ~.d = J I         ",
"      I J 7 7 3 &. .o o o o  .R.3 o o o o  .&.3 7 7 J I         ",
"      I J J J I M I J J J J I M I J J J J I M I J J J I         ",
"      K I I I K   K I I I I K   K I I I I K   K I I I K         "};
