/* XPM */
static const char * xpm_aaa_pending[] = {
"16 16 115 2",
"  	c None",
". 	c #5E667B",
"+ 	c #A0A5B1",
"@ 	c #4766AD",
"# 	c #EAEFF8",
"$ 	c #4A68AE",
"% 	c #D8E1F1",
"& 	c #E7ECF6",
"* 	c #747C92",
"= 	c #3155A5",
"- 	c #C9D5EB",
"; 	c #9FB4DB",
"> 	c #DFE7F3",
", 	c #F4F6FB",
"' 	c #BFCDE7",
") 	c #1C459D",
"! 	c #777D8F",
"~ 	c #4061AA",
"{ 	c #2E53A4",
"] 	c #DFE6F3",
"^ 	c #6B748C",
"/ 	c #375AA7",
"( 	c #FFFFFF",
"_ 	c #D3DDEF",
": 	c #D2DCEF",
"< 	c #D9E2F1",
"[ 	c #D6DFF0",
"} 	c #E4EAF5",
"| 	c #69728B",
"1 	c #D0DAEE",
"2 	c #365AA7",
"3 	c #F6F8FC",
"4 	c #97AED8",
"5 	c #747B8E",
"6 	c #3D5FAA",
"7 	c #284FA1",
"8 	c #D5DEEF",
"9 	c #687FB9",
"0 	c #21499F",
"a 	c #647CB8",
"b 	c #4161AA",
"c 	c #6285C5",
"d 	c #9BB1DA",
"e 	c #19429C",
"f 	c #91A8D5",
"g 	c #526EB1",
"h 	c #3357A6",
"i 	c #809CD0",
"j 	c #ECF1F8",
"k 	c #7695CD",
"l 	c #95ABD6",
"m 	c #FCFDFE",
"n 	c #CCD7EC",
"o 	c #8CA6D5",
"p 	c #89A2D2",
"q 	c #BECCE7",
"r 	c #6F85BB",
"s 	c #8596C4",
"t 	c #737C91",
"u 	c #C1CFE8",
"v 	c #3054A4",
"w 	c #737C92",
"x 	c #264CA1",
"y 	c #3C5EA9",
"z 	c #C4D2EA",
"A 	c #FAFBFD",
"B 	c #757C8E",
"C 	c #5A80C3",
"D 	c #778BBE",
"E 	c #B6C7E4",
"F 	c #E1E8F4",
"G 	c #8C9CC6",
"H 	c #C5D2EA",
"I 	c #E2E9F5",
"J 	c #C8D5EB",
"K 	c #F8FAFD",
"L 	c #CFDAED",
"M 	c #5974B3",
"N 	c #7E90C1",
"O 	c #CDD8EC",
"P 	c #DBE4F2",
"Q 	c #5D77B5",
"R 	c #C2D0E9",
"S 	c #3A5CA8",
"T 	c #577DC1",
"U 	c #E5EBF5",
"V 	c #87A2D3",
"W 	c #5571B2",
"X 	c #CBD7EC",
"Y 	c #244BA0",
"Z 	c #A7BBDE",
"` 	c #EFF2F9",
" .	c #5178BF",
"..	c #A3B7DD",
"+.	c #727B91",
"@.	c #F4F7FB",
"#.	c #8DA5D3",
"$.	c #BBCAE6",
"%.	c #FEFEFE",
"&.	c #7090CA",
"*.	c #2B51A3",
"=.	c #516EB1",
"-.	c #4D6BB0",
";.	c #6789C7",
">.	c #D3DCEF",
",.	c #4363AB",
"'.	c #7388BD",
").	c #91AAD7",
"!.	c #4E6BB0",
"~.	c #4463AC",
"{.	c #7A8EC0",
"].	c #F2F5FA",
"^.	c #EFF3F9",
"/.	c #DCE4F2",
"(.	c #FFFFFF",
"  + . . . . . . . . . . . . +   ",
"  . . ( m K @.^.# U > < _ O .   ",
"  . %.A 3 ].j & I /.[ 1 - R .   ",
"  + ! , ` # } ] % >.n H ' . +   ",
"    + B & F P 8 L J u $.. +     ",
"      + 5 % : X z q E . +       ",
"        + ^ G s N D . +         ",
"          + | {.'.. +           ",
"          + * r 9 . +           ",
"        + * Z a Q ).. +         ",
"      + w ..l M g V i . +       ",
"    + t ; f W !.@ b k &.. +     ",
"  + +.d #.=.$ ~.6 / = ;.c . +   ",
"  . 4 p -.@ ~ S h { 7 Y C T .   ",
"  . o $ ,.y 2 v *.x 0 ) e  ..   ",
"  + . . . . . . . . . . . . +   "};
