/* XPM */
static const char * xpm_aaa_broken[] = {
"16 16 138 2",
"  	c None",
". 	c #5E667B",
"+ 	c #A0A5B1",
"@ 	c #B62C2C",
"# 	c #D89393",
"$ 	c #6F596A",
"% 	c #C55D5D",
"& 	c #EFD3D3",
"* 	c #B73737",
"= 	c #E9C2C2",
"- 	c #A8737A",
"; 	c #F9EDED",
"> 	c #884751",
", 	c #AC2C2E",
"' 	c #9D373D",
") 	c #AA5F64",
"! 	c #C74545",
"~ 	c #C63333",
"{ 	c #E87373",
"] 	c #B92A2A",
"^ 	c #C11C1C",
"/ 	c #BC2525",
"( 	c #CA2F2F",
"_ 	c #B83030",
": 	c #EA7878",
"< 	c #BE3131",
"[ 	c #C23A3A",
"} 	c #E25A5A",
"| 	c #DD5959",
"1 	c #B92626",
"2 	c #DE5050",
"3 	c #AA6066",
"4 	c #D13F3F",
"5 	c #A76E75",
"6 	c #D85D5D",
"7 	c #CE4E4E",
"8 	c #C42222",
"9 	c #BC2020",
"0 	c #B62525",
"a 	c #DB6161",
"b 	c #CF5151",
"c 	c #BF3939",
"d 	c #BD2828",
"e 	c #D45252",
"f 	c #F88B8B",
"g 	c #E36767",
"h 	c #D14E4E",
"i 	c #C13E3E",
"j 	c #BF2424",
"k 	c #C51919",
"l 	c #C43232",
"m 	c #B42727",
"n 	c #CAA9B7",
"o 	c #BA2828",
"p 	c #475A9F",
"q 	c #CD3030",
"r 	c #D54242",
"s 	c #BC8C9B",
"t 	c #5974B3",
"u 	c #CF4646",
"v 	c #A2939E",
"w 	c #D65757",
"x 	c #C36668",
"y 	c #DA4C4C",
"z 	c #C92828",
"A 	c #CC4040",
"B 	c #C1BACF",
"C 	c #ED7777",
"D 	c #95ABD6",
"E 	c #C47C82",
"F 	c #BC2828",
"G 	c #D45151",
"H 	c #B52929",
"I 	c #C82F2F",
"J 	c #91A8D5",
"K 	c #CB4848",
"L 	c #5571B2",
"M 	c #7E5980",
"N 	c #C93939",
"O 	c #D0C4D3",
"P 	c #B6C7E4",
"Q 	c #8CA6D5",
"R 	c #BECCE7",
"S 	c #E0A8A8",
"T 	c #E26868",
"U 	c #DE5656",
"V 	c #A7BBDE",
"W 	c #5A4C83",
"X 	c #C1CFE8",
"Y 	c #E66868",
"Z 	c #E25F5F",
"` 	c #724871",
" .	c #C64242",
"..	c #8C444D",
"+.	c #CFDAED",
"@.	c #C6949F",
"#.	c #A3B7DD",
"$.	c #B52A2A",
"%.	c #D03939",
"&.	c #8F5764",
"*.	c #DDA0A0",
"=.	c #C62828",
"-.	c #D6B3BB",
";.	c #874764",
">.	c #B62B2B",
",.	c #737C92",
"'.	c #AD4F53",
").	c #5178BF",
"!.	c #675688",
"~.	c #747C92",
"{.	c #D5D2E0",
"].	c #57376D",
"^.	c #D24C4C",
"/.	c #B72E2E",
"(.	c #CDD8EC",
"_.	c #B896A9",
":.	c #B72D2D",
"<.	c #A27891",
"[.	c #7C5075",
"}.	c #BD7680",
"|.	c #BD757E",
"1.	c #4E6BB0",
"2.	c #4D5EA1",
"3.	c #F4E1E1",
"4.	c #B82F2F",
"5.	c #DBD6E2",
"6.	c #E56C6C",
"7.	c #BC2B2B",
"8.	c #793C5F",
"9.	c #7F7DA9",
"0.	c #4766AD",
"a.	c #C8D5EB",
"b.	c #A587A1",
"c.	c #744E78",
"d.	c #9B566C",
"e.	c #865779",
"f.	c #EA7070",
"g.	c #FFFFFF",
"  + . . $ > ' , , ' > $ . . +   ",
"  . . S i 6 : f f : 6 i @.(..   ",
"  . *.b { a ! _ _ ! a { b s .   ",
"  - 7 C T x -.5.{.n |.! 6.7 -   ",
"& c g K f.w E O +.a.X _. .g c & ",
"# h e ) 4.Y G }.B R P . ) e h # ",
"% | [ = 5 /.Z ^.d.9.. + = [ | % ",
"* } @ ;   5 :.U u ..v   ; @ } * ",
"* 2 @ ;   + &.@ y A 3 3.; @ 2 * ",
"% 4 < = + ~.V e.>.r N 3 = < 4 % ",
"# l ~ ) ,.#.D t [.$.%.~ '.~ l # ",
"& ] ( 7.b.J L 1.0.` H q I ( ] & ",
"  - d =.o ;.!.2.p W 8.F z d -   ",
"  . <./ 8 j 1 m m 1 j 8 / M .   ",
"  . Q c.0 9 ^ k k ^ 9 0 ].)..   ",
"  + . . $ > ' , , ' > $ . . +   "};
