/* XPM */
static const char * xpm_aaa_move[] = {
"32 32 130 2",
"  	c None",
". 	c #000000",
"+ 	c #696969",
"@ 	c #F4F4F4",
"# 	c #D0D0D0",
"$ 	c #707070",
"% 	c #7C7C7C",
"& 	c #515151",
"* 	c #C4C4C4",
"= 	c #ACACAC",
"- 	c #E8E8E8",
"; 	c #646464",
"> 	c #333333",
", 	c #242424",
"' 	c #1F1F1F",
") 	c #DCDCDC",
"! 	c #6D6D6D",
"~ 	c #2B2B2B",
"{ 	c #797979",
"] 	c #606060",
"^ 	c #383838",
"/ 	c #272727",
"( 	c #2E2E2E",
"_ 	c #3A3A3A",
": 	c #3C3C3C",
"< 	c #686868",
"[ 	c #4C4C4C",
"} 	c #3E3E3E",
"| 	c #5D5D5D",
"1 	c #2C2C2C",
"2 	c #292929",
"3 	c #545454",
"4 	c #454545",
"5 	c #474747",
"6 	c #282828",
"7 	c #484848",
"8 	c #7E7E7E",
"9 	c #6E6E6E",
"0 	c #7D7D7D",
"a 	c #818181",
"b 	c #A0A0A0",
"c 	c #757575",
"d 	c #5C5C5C",
"e 	c #5E5E5E",
"f 	c #808080",
"g 	c #353535",
"h 	c #747474",
"i 	c #6A6A6A",
"j 	c #626262",
"k 	c #666666",
"l 	c #7A7A7A",
"m 	c #636363",
"n 	c #8D8D8D",
"o 	c #3D3D3D",
"p 	c #868686",
"q 	c #898989",
"r 	c #5F5F5F",
"s 	c #424242",
"t 	c #767676",
"u 	c #2F2F2F",
"v 	c #727272",
"w 	c #7F7F7F",
"x 	c #323232",
"y 	c #414141",
"z 	c #656565",
"A 	c #595959",
"B 	c #8B8B8B",
"C 	c #191919",
"D 	c #171717",
"E 	c #1A1A1A",
"F 	c #303030",
"G 	c #444444",
"H 	c #434343",
"I 	c #494949",
"J 	c #717171",
"K 	c #5B5B5B",
"L 	c #676767",
"M 	c #3B3B3B",
"N 	c #404040",
"O 	c #4E4E4E",
"P 	c #575757",
"Q 	c #3F3F3F",
"R 	c #2A2A2A",
"S 	c #616161",
"T 	c #262626",
"U 	c #373737",
"V 	c #777777",
"W 	c #202020",
"X 	c #6B6B6B",
"Y 	c #141414",
"Z 	c #8C8C8C",
"` 	c #6C6C6C",
" .	c #7B7B7B",
"..	c #878787",
"+.	c #232323",
"@.	c #181818",
"#.	c #565656",
"$.	c #4F4F4F",
"%.	c #363636",
"&.	c #8E8E8E",
"*.	c #8F8F8F",
"=.	c #858585",
"-.	c #464646",
";.	c #4B4B4B",
">.	c #4A4A4A",
",.	c #161616",
"'.	c #919191",
").	c #343434",
"!.	c #2D2D2D",
"~.	c #212121",
"{.	c #252525",
"].	c #737373",
"^.	c #131313",
"/.	c #222222",
"(.	c #848484",
"_.	c #6F6F6F",
":.	c #5A5A5A",
"<.	c #1D1D1D",
"[.	c #1B1B1B",
"}.	c #838383",
"|.	c #1C1C1C",
"1.	c #888888",
"2.	c #313131",
"3.	c #787878",
"4.	c #393939",
"5.	c #1E1E1E",
"6.	c #828282",
"7.	c #525252",
"8.	c #8A8A8A",
"9.	c #FFFFFF",
"                            + . +                               ",
"                          + . '.. +                             ",
"                        + . *.n B . +                           ",
"                      + . &.Z q ..=.. +                         ",
"                    + . n 8.1.p }.f 8 . +                       ",
"                    . B q p (.a w % { V .                       ",
"                    + . . . f 0 l . . . & @                     ",
"                      - = . % { t . ; % = -                     ",
"                      @ ) . V h J . = # ) @                     ",
"                          . ].$ ! . #                           ",
"        + . +             . 9 X < . #           + . +           ",
"      + . 6..             . + k m . #           . 7 . +         ",
"    + . a 8 . @           . ; S e . #           . H N . +       ",
"  + . w % l . . . . . . . . r d A . . . . . . . . } M ^ . +     ",
"+ . 0  .3.c v $ ! i L ; S e K P 3 & O ;.7 4 s Q : 4.%.> F . +   ",
". % { t h J 9 X < z j r d A #.7.$.[ I -.H N o _ U ).2.( ~ 2 .   ",
"+ . c v _.` + k m ] | :.P 3 & O >.5 G y } M ^ g x u 1 R / . & @ ",
"  ] . ! i L . . . . . . . . [ I 4 . . . . . . . . ~ 6 {.. , b - ",
"  @ & . z j . ; $ $ $ $ $ . 5 G y . ; $ $ $ $ $ . T , . ' % * @ ",
"    @ & . | . = # # # # # . s Q : . = # # # # # . /.. ' % * @   ",
"      @ & . > #           . o _ U . #           + . > % * @     ",
"        @ * = )           . ^ g x . #             ) = * @       ",
"          @ - @           . > F !.. #             @ - @         ",
"                          . u 1 2 . #                           ",
"                    + . . . R / , . . . +                       ",
"                    . ( ~ 6 T +.W 5.[.C .                       ",
"                    + . / , ~.' |.E D . K @                     ",
"                      ] . W <.E @.,.. > = -                     ",
"                      @ & . C D Y . ' % * @                     ",
"                        @ & . ^.. ' % * @                       ",
"                          @ & . , % * @                         ",
"                            @ * b * @                           "};
