/* XPM */
static const char * xpm_aaa_function_delete[] = {
"32 32 257 2",
"  	c None",
". 	c #777375",
"+ 	c #B42929",
"@ 	c #DE6161",
"# 	c #8196BA",
"$ 	c #DB5C5C",
"% 	c #AAB0BA",
"& 	c #99A5BA",
"* 	c #4D5131",
"= 	c #F2DADA",
"- 	c #656A71",
"; 	c #915653",
"> 	c #C13535",
", 	c #C32424",
"' 	c #A20A0A",
") 	c #5C7458",
"! 	c #A1AABA",
"~ 	c #B73636",
"{ 	c #728470",
"] 	c #858585",
"^ 	c #DF6363",
"/ 	c #F9EDED",
"( 	c #1B7614",
"_ 	c #5C3B41",
": 	c #A6ABB2",
"< 	c #6D6E70",
"[ 	c #7D8C87",
"} 	c #C15252",
"| 	c #909DB3",
"1 	c #8F5965",
"2 	c #49A94A",
"3 	c #386C34",
"4 	c #9393A4",
"5 	c #4A6857",
"6 	c #8598BA",
"7 	c #90A1BA",
"8 	c #3BA83B",
"9 	c #A81616",
"0 	c #1D4614",
"a 	c #9A3F43",
"b 	c #E6B8B8",
"c 	c #C33B3B",
"d 	c #71728D",
"e 	c #B6B6BA",
"f 	c #EE7C7C",
"g 	c #2A8325",
"h 	c #C84545",
"i 	c #244A1C",
"j 	c #677C69",
"k 	c #A65A64",
"l 	c #2D5827",
"m 	c #BA2D2D",
"n 	c #B1B4BA",
"o 	c #2DA32A",
"p 	c #D24949",
"q 	c #93A0B2",
"r 	c #92A5BA",
"s 	c #61A366",
"t 	c #B83030",
"u 	c #899ABA",
"v 	c #C32B2B",
"w 	c #9EA8BA",
"x 	c #BA2626",
"y 	c #7E95BA",
"z 	c #881515",
"A 	c #8996A5",
"B 	c #CA4A4A",
"C 	c #7A92BA",
"D 	c #AC5B5B",
"E 	c #1B9D16",
"F 	c #1A5D11",
"G 	c #717A83",
"H 	c #ACAEB2",
"I 	c #9EA6B1",
"J 	c #A9AEB2",
"K 	c #B62C2C",
"L 	c #BD3636",
"M 	c #D34343",
"N 	c #22541B",
"O 	c #8D9DB2",
"P 	c #B22828",
"Q 	c #677485",
"R 	c #96A3BA",
"S 	c #747D9B",
"T 	c #A8AFBA",
"U 	c #E05959",
"V 	c #333719",
"W 	c #8D9EBA",
"X 	c #849284",
"Y 	c #6F5D65",
"Z 	c #AEB3BA",
"` 	c #C41A1A",
" .	c #C93636",
"..	c #157A0E",
"+.	c #A1AEB9",
"@.	c #B1B1B2",
"#.	c #B1B3BA",
"$.	c #E56E6E",
"%.	c #D05252",
"&.	c #451414",
"*.	c #B52727",
"=.	c #686B70",
"-.	c #14890E",
";.	c #958399",
">.	c #ACB1BA",
",.	c #387535",
"'.	c #567160",
").	c #596270",
"!.	c #5D6570",
"~.	c #8A4A4A",
"{.	c #A2A9B2",
"].	c #671616",
"^.	c #D75959",
"/.	c #A6AEBA",
"(.	c #5C4857",
"_.	c #6B6D70",
":.	c #F98C8C",
"<.	c #4B4C3D",
"[.	c #606670",
"}.	c #C74242",
"|.	c #D45151",
"1.	c #436140",
"2.	c #501C1C",
"3.	c #BF2D2D",
"4.	c #751B1B",
"5.	c #BF2222",
"6.	c #665B6F",
"7.	c #DA6060",
"8.	c #3B5D41",
"9.	c #D45656",
"0.	c #8FA0BA",
"a.	c #516E62",
"b.	c #9D7C8D",
"c.	c #CA3232",
"d.	c #BB3434",
"e.	c #A32323",
"f.	c #4B1515",
"g.	c #BE1F1F",
"h.	c #BB3232",
"i.	c #AE2B2C",
"j.	c #BABABA",
"k.	c #B9B9BA",
"l.	c #B8B8BA",
"m.	c #B4B5BA",
"n.	c #AE6A6A",
"o.	c #52AB55",
"p.	c #5D1414",
"q.	c #6AAE70",
"r.	c #515151",
"s.	c #808080",
"t.	c #CB2C2C",
"u.	c #D07C7C",
"v.	c #AEB0B2",
"w.	c #DE5050",
"x.	c #B9B9B9",
"y.	c #206A19",
"z.	c #D18080",
"A.	c #B7B9BA",
"B.	c #ACB2BA",
"C.	c #149B0E",
"D.	c #B4B6BA",
"E.	c #B92323",
"F.	c #B2B6BA",
"G.	c #BB2A2A",
"H.	c #AC5252",
"I.	c #8397BA",
"J.	c #AEB1BA",
"K.	c #7A3237",
"L.	c #9CA6B9",
"M.	c #601919",
"N.	c #8E2626",
"O.	c #A65858",
"P.	c #643932",
"Q.	c #D85656",
"R.	c #E06868",
"S.	c #AFB3BA",
"T.	c #706E85",
"U.	c #5EAC62",
"V.	c #7D91A6",
"W.	c #50422C",
"X.	c #A2B2BA",
"Y.	c #CE3E3E",
"Z.	c #DD5454",
"`.	c #EDCDCD",
" +	c #B03032",
".+	c #AA8189",
"++	c #838484",
"@+	c #2A6C25",
"#+	c #2C7328",
"$+	c #31602C",
"%+	c #807C8B",
"&+	c #D94C4C",
"*+	c #13A20D",
"=+	c #667D78",
"-+	c #AC4146",
";+	c #A29DA6",
">+	c #24A41F",
",+	c #939E99",
"'+	c #4A834A",
")+	c #95A8BA",
"!+	c #DE6767",
"~+	c #ADB1BA",
"{+	c #63686F",
"]+	c #D03A3A",
"^+	c #726877",
"/+	c #85969F",
"(+	c #A3ABBA",
"_+	c #2E992B",
":+	c #388735",
"<+	c #61444A",
"[+	c #6F555F",
"}+	c #7A4C54",
"|+	c #6C838E",
"1+	c #988F9F",
"2+	c #B5B6B9",
"3+	c #9995A3",
"4+	c #E97070",
"5+	c #5C6A5F",
"6+	c #474D51",
"7+	c #58474B",
"8+	c #A3ABB7",
"9+	c #4D904D",
"0+	c #CF5151",
"a+	c #4D6650",
"b+	c #959DAC",
"c+	c #988292",
"d+	c #63AD68",
"e+	c #8A9EBA",
"f+	c #6C6B85",
"g+	c #98A2B5",
"h+	c #41753F",
"i+	c #9BA4B2",
"j+	c #B3B4B9",
"k+	c #B3B5BA",
"l+	c #AAAEAC",
"m+	c #59AB5C",
"n+	c #A72B2B",
"o+	c #576170",
"p+	c #459044",
"q+	c #459C46",
"r+	c #7D0D0D",
"s+	c #9BA4A4",
"t+	c #8A968E",
"u+	c #8C3535",
"v+	c #9E2B2B",
"w+	c #957484",
"x+	c #682F2F",
"y+	c #509152",
"z+	c #6B2E32",
"A+	c #324927",
"B+	c #561717",
"C+	c #98697D",
"D+	c #5A6370",
"E+	c #71555E",
"F+	c #877A84",
"G+	c #96A6BA",
"H+	c #FFFFFF",
"        r.s.] ] ] ] ] ] ] ] ] ] ++] ] ] ] ] ] ] ] s.r.          ",
"        . x.j.j.j.j.j.j.j.j.j.j.j.j.j.j.j.j.j.j.j.x..           ",
"        < @.j.k.k.k.k.k.k.k.k.l+{ { X k.k.k.k.k.j.@.<           ",
"        < @.j.l.l.l.l.l.l.l.{ i 3 h+3 ) l.l.l.e j.@.<           ",
"        < @.k.e e e e e 2+j l s q.q.q.0 e e e 2+k.@.<           ",
"        < v.A.m.m.m.m.m.X l s '+0 $+l ) m.m.k+j+A.v.<           ",
"        _.v.e n n n n n 1.y+d+i [ t+,+n n n #.#.e v._.          ",
"        _.H D.S.Z Z Z s+N U.9+1.4 Z Z Z Z Z #.S.D.H _.          ",
"        _.J F.~+B.[ 1.0 3 m+,.0 a+: >.>.>.>.J.~+F.J _.          ",
"        =.J n >.% 1.p+o.o.o.o.o.,.j % % % % % % n J =.          ",
"        =.: Z T /.[ A+0 q+2 0 0 V &.&.&.&.&._ F+Z : =.          ",
"        =.: B././.. P.N 2 :+* n.n.n.n.n.n.n.; _ B.: =.          ",
"        - : % (+(+(+<.@+8 #+W.&.&.&.&.&.2.~.; _ % : -           ",
"        - {.T ! w w a+g 8 N ; x+Y i+g+q %+2.~.<+8+I {+          ",
"        - {./.w w & l _+o i D O.2.1 k -+ +i.n+a .+;+-           ",
"        {+I (+L.& A N o g V D H.t B R.f :.:.f R.B t Y           ",
"        [.I ! & R =+y.>+y.<.u+d.^.$.@ %.B h 0+7.$.7.L =         ",
"        [.i+w R R 5 ( E 0 F+d.^ f 9.h.K b.b.K d.B R.7.L =       ",
"        [.'.i 0 8.0 E ( 5+t 9.^ 4+7.h.z+0.0.| 4 + }.^ ^.t /     ",
"        !.i C.*+-.C.( a.w+}.@ }.h ^ $ d.;.W W 0.L.P h ^ }.b     ",
"        !.'...-...F a.V.k |.|.t v+c @ Q.t ;.u W & 3+t |.|.z.    ",
"        !./+'.8.5 |+u u -+U }.K N.K.L U |.t P u G+b+K c U }     ",
"        !.q r u 6 6 6 I. +U c e.f.T.C+h.Z.p m P A q E+> U ~     ",
"        D+q 7 6 # I.I.I.i.w.> 4.6.I.I.+ t &+M K }+q [+h.w.~     ",
"        D+| 7 I.y # # 6.e.M > *.d d d d 1 t M Y.K c++ > M }     ",
"        ).| 0.y y y f+f.e. . .K ].p.p.p.p.z t ]+ .+ +  . .u.    ",
"        ).O W y C S _ r+9 3.c.3.P ' ' ' ' ' 9 m c.c.3.c.3.b     ",
"        o+O e+C C (.r+' ' *.v v G.P ' ' ' ' ' 4.G.t.t.v *./     ",
"        D+q r 6 # S (.&.&.B++ , , x *.P M.M.P + x , , *.=       ",
"        - +.X.)+r r r r r r 1+*.5.5.5.E.x *.x 5.5.5.*.`.        ",
"        6+G G Q Q Q Q Q Q Q Q ^+*.E.g.` ` ` ` g.E.*.7+          ",
"                                / b z.} ~ ~ } u.b /             "};
