/* XPM */
static const char * xpm_aaa_link[] = {
"32 32 155 2",
"  	c None",
". 	c #6A6969",
"+ 	c #000000",
"@ 	c #FFFFFF",
"# 	c #A7A7A7",
"$ 	c #DBDBDB",
"% 	c #D3D3D3",
"& 	c #D5D5D5",
"* 	c #949494",
"= 	c #E2E2E2",
"- 	c #C4C4C4",
"; 	c #CDCDCD",
"> 	c #B6B6B6",
", 	c #DDDDDD",
"' 	c #EAEAEA",
") 	c #9B9B9B",
"! 	c #FCFCFC",
"~ 	c #704747",
"{ 	c #979797",
"] 	c #CBCBCB",
"^ 	c #9A9A9A",
"/ 	c #9E9E9E",
"( 	c #A1A1A1",
"_ 	c #E4D3D3",
": 	c #A9A9A9",
"< 	c #A8A8A8",
"[ 	c #E4E4E4",
"} 	c #C6C6C6",
"| 	c #A4A4A4",
"1 	c #A26969",
"2 	c #969696",
"3 	c #EFE5E5",
"4 	c #ABABAB",
"5 	c #F8F8F8",
"6 	c #A0A0A0",
"7 	c #CFCFCF",
"8 	c #C2C2C2",
"9 	c #DA5757",
"0 	c #AFAFAF",
"a 	c #BCBCBC",
"b 	c #AA7676",
"c 	c #D75151",
"d 	c #A6A6A6",
"e 	c #ADADAD",
"f 	c #FDFDFD",
"g 	c #F5F5F5",
"h 	c #BEBEBE",
"i 	c #F6F6F6",
"j 	c #F0F0F0",
"k 	c #B2B2B2",
"l 	c #B4B4B4",
"m 	c #EBEBEB",
"n 	c #FBFBFB",
"o 	c #BABABA",
"p 	c #F2F2F2",
"q 	c #842D2D",
"r 	c #8F3232",
"s 	c #DFCBCB",
"t 	c #9E2525",
"u 	c #C33C3C",
"v 	c #B28383",
"w 	c #B08080",
"x 	c #A72727",
"y 	c #7B2525",
"z 	c #782424",
"A 	c #D7BEBE",
"B 	c #F9F5F5",
"C 	c #CE4040",
"D 	c #B95656",
"E 	c #803333",
"F 	c #C95D5D",
"G 	c #F4EDED",
"H 	c #BC5858",
"I 	c #9C2626",
"J 	c #922121",
"K 	c #D8C1C1",
"L 	c #CE5E5E",
"M 	c #894242",
"N 	c #E46D6D",
"O 	c #E87575",
"P 	c #D85B5B",
"Q 	c #C42A2A",
"R 	c #832929",
"S 	c #985959",
"T 	c #D35E5E",
"U 	c #C02222",
"V 	c #6F4E4E",
"W 	c #883F3F",
"X 	c #904C4C",
"Y 	c #D55C5C",
"Z 	c #942A2A",
"` 	c #914F4F",
" .	c #D14646",
"..	c #F0E8E8",
"+.	c #DDC9C9",
"@.	c #936F6F",
"#.	c #A12121",
"$.	c #963737",
"%.	c #A54444",
"&.	c #8D3535",
"*.	c #B43131",
"=.	c #BC3636",
"-.	c #C93535",
";.	c #6F4B4B",
">.	c #C45B5B",
",.	c #CB4444",
"'.	c #995C5C",
").	c #D5BCBC",
"!.	c #210A0A",
"~.	c #902A2A",
"{.	c #EA7878",
"].	c #AD2B2B",
"^.	c #B55151",
"/.	c #E67171",
"(.	c #BA9090",
"_.	c #C62F2F",
":.	c #9B2222",
"<.	c #8A2222",
"[.	c #882D2D",
"}.	c #D34C4C",
"|.	c #AD4B4B",
"1.	c #704444",
"2.	c #C22626",
"3.	c #E7D8D8",
"4.	c #D44C4C",
"5.	c #704343",
"6.	c #CDAFAF",
"7.	c #A12525",
"8.	c #714040",
"9.	c #2E0E0E",
"0.	c #DC5D5D",
"a.	c #822929",
"b.	c #7B2B2B",
"c.	c #782626",
"d.	c #6C5C5C",
"e.	c #967777",
"f.	c #882A2A",
"g.	c #BE5858",
"h.	c #7E2727",
"i.	c #8C2A2A",
"j.	c #CC3A3A",
"k.	c #713F3F",
"l.	c #FCFAFA",
"m.	c #471515",
"n.	c #A22222",
"o.	c #EB7B7B",
"p.	c #DF6262",
"q.	c #982828",
"r.	c #833838",
"s.	c #E26868",
"t.	c #9E3E3E",
"u.	c #ECE0E0",
"v.	c #822C2C",
"w.	c #E8DBDB",
"x.	c #FFFFFF",
"                                                                ",
"                                                                ",
"                                                                ",
"  # . . . . . . . . . . . #                                     ",
"  . @ @ @ @ n i j ' = $ % .                                     ",
"  . @ @ ! 5 p m [ , & ; - . 3 _ ..                              ",
"  . f + + + + + + + + + > d.q &.v.w.                            ",
"  . g + + + + + + + + + : k.H o.D w                             ",
"  . ' = $ % ] 8 o k 4 | / 5.^.{.g.b                             ",
"  . , & ; - a l e d 6 ^ 2 ~ |.O >.1                             ",
"  . 7 } h > 0 < ( ) { * * ;.%./.F '.                            ",
"  # . . . . . . . . . . . e.t.N L `                             ",
"                          A $.s.T M                             ",
"                          s r p.Y r.                            ",
"                          3.[.0.P b.                            ",
"                          3 a.9 9 z l.                          ",
"                          B y c c h.G                           ",
"                            c.}.4.R u.                          ",
"                            E ,. .f._                           ",
"                            W u C i.+.                          ",
"                            X =.j.~.).                          ",
"                            S *.-.Z 6.                          ",
"                            1 ]._.q.@.. . . . . . . . . . . #   ",
"                            b x Q I ~ @ @ @ @ n i j ' = $ % .   ",
"                            v 7.2.t 1.@ @ ! 5 p m [ , & ; - .   ",
"                            (.:.U n.8.f + + + + + + + + + > .   ",
"                            K <.#.J V g + + + + + + + + + : .   ",
"                              !.m.9.. ' = $ % ] 8 o k 4 | / .   ",
"                                    . , & ; - a l e d 6 ^ 2 .   ",
"                                    . 7 } h > 0 < ( ) { * * .   ",
"                                    # . . . . . . . . . . . #   ",
"                                                                "};
