/* XPM */
static const char * xpm_aaa_valid[] = {
"16 16 150 2",
"  	c None",
". 	c #5E667B",
"+ 	c #A0A5B1",
"@ 	c #2C8B13",
"# 	c #34952A",
"$ 	c #3E9F31",
"% 	c #2A8B24",
"& 	c #21821E",
"* 	c #49A937",
"= 	c #53B43F",
"- 	c #68C84C",
"; 	c #5EBE45",
"> 	c #2D8C14",
", 	c #7BDB58",
"' 	c #83E25D",
") 	c #2F8E16",
"! 	c #E7ECF6",
"~ 	c #98C78C",
"{ 	c #72D252",
"] 	c #D8E1F1",
"^ 	c #EAEFF8",
"/ 	c #3F9F28",
"( 	c #8AE962",
"_ 	c #E1EFDE",
": 	c #FFFFFF",
"< 	c #399922",
"[ 	c #E1E8F4",
"} 	c #F8FAFD",
"| 	c #339219",
"1 	c #9BB1DA",
"2 	c #2F8F1C",
"3 	c #FEFEFE",
"4 	c #F2F5FA",
"5 	c #3B9B26",
"6 	c #4A68AE",
"7 	c #83BB74",
"8 	c #50B13C",
"9 	c #D5DEEF",
"0 	c #67C645",
"a 	c #83E25C",
"b 	c #546D66",
"c 	c #2E8D16",
"d 	c #1A7C19",
"e 	c #8C9CC6",
"f 	c #3F7D3B",
"g 	c #3C5EA9",
"h 	c #B0D3A6",
"i 	c #EFF2F9",
"j 	c #379725",
"k 	c #3B9C2C",
"l 	c #19429C",
"m 	c #197B19",
"n 	c #2C8B14",
"o 	c #FDFEFC",
"p 	c #1E7F17",
"q 	c #59B940",
"r 	c #EFF3F9",
"s 	c #45A42C",
"t 	c #777D8F",
"u 	c #46A529",
"v 	c #42A228",
"w 	c #47A734",
"x 	c #5178BF",
"y 	c #68C849",
"z 	c #DBE4F2",
"A 	c #268615",
"B 	c #527B5E",
"C 	c #727B91",
"D 	c #F4F7FB",
"E 	c #659861",
"F 	c #6B748C",
"G 	c #43A32A",
"H 	c #757C8E",
"I 	c #71D04D",
"J 	c #9BC1A8",
"K 	c #69C845",
"L 	c #2B8B13",
"M 	c #8CA095",
"N 	c #2B8B1E",
"O 	c #36951C",
"P 	c #43A32F",
"Q 	c #AFCEB7",
"R 	c #35941D",
"S 	c #329119",
"T 	c #E4EAF5",
"U 	c #E5EBF5",
"V 	c #C2D3E0",
"W 	c #7CB27C",
"X 	c #358525",
"Y 	c #4BAA2E",
"Z 	c #244D9C",
"` 	c #F4F6FB",
" .	c #89A2D2",
"..	c #43A227",
"+.	c #D8E2ED",
"@.	c #8CA6D5",
"#.	c #4D6BB0",
"$.	c #1C469C",
"%.	c #5A80C3",
"&.	c #727C8F",
"*.	c #93A29F",
"=.	c #D2DCEF",
"-.	c #2E8D15",
";.	c #6DCD4E",
">.	c #769B78",
",.	c #DFE6F3",
"'.	c #577DC1",
").	c #447945",
"!.	c #30784C",
"~.	c #497550",
"{.	c #F6F8FC",
"].	c #6AC946",
"^.	c #3D9D2F",
"/.	c #579068",
"(.	c #2B8A14",
"_.	c #258513",
":.	c #2B8B1F",
"<.	c #36951D",
"[.	c #48A836",
"}.	c #5E667A",
"|.	c #4363AB",
"1.	c #97AED8",
"2.	c #ECF1F8",
"3.	c #2D8D17",
"4.	c #FCFDFE",
"5.	c #B5D6AC",
"6.	c #D6E8D1",
"7.	c #3A7765",
"8.	c #EFF6ED",
"9.	c #44A328",
"0.	c #22831D",
"a.	c #4AAB35",
"b.	c #6285C4",
"c.	c #58B73D",
"d.	c #2F8E17",
"e.	c #FAFBFD",
"f.	c #51B032",
"g.	c #E2E9F5",
"h.	c #2A8915",
"i.	c #739EA0",
"j.	c #34941B",
"k.	c #1C7D14",
"l.	c #59A445",
"m.	c #5C6778",
"n.	c #167814",
"o.	c #42A22F",
"p.	c #62975D",
"q.	c #747B8E",
"r.	c #F4F9F3",
"s.	c #FFFFFF",
"  + . . . . . . . . . ).u K ].f.",
"  . . : 4.} D r ^ U Q | a ( ( ..",
"  . 3 e.{.4 2.! g.+.-.0 ' ' I l.",
"  + t ` i ^ T ,.] W Y , , , 9.h ",
"  _ + H ! [ z 9 J O ;.{ { y > o ",
"_ j.@ *.q.] =.V > c.- - - v @   ",
"6.<.s S >.F e /.G ; ; ; q ) r.  ",
"  ~ / a.< p.B R 8 = = = / ~     ",
"  8.> o.w 5 d.P * * * [.) @     ",
"    5.c ^.$ k $ $ $ $ j 7       ",
"      E 2 # # # # # # 3.M       ",
"    + &.@ :.% % % % N n m.+     ",
"  + C 1 i.(.0.& & & h.@ b.. +   ",
"  . 1. .#.7.A d m p L Z %.'..   ",
"  . @.6 |.g !.k.n._.@ $.l x .   ",
"  + . . . . b f X ~.}.. . . +   "};
