/* XPM */
static const char * xpm_aaa_function_new[] = {
"32 32 257 2",
"  	c None",
". 	c #828B99",
"+ 	c #AF3333",
"@ 	c #924643",
"# 	c #9BA9B8",
"$ 	c #949699",
"% 	c #C77671",
"& 	c #676A4E",
"* 	c #978496",
"= 	c #866979",
"- 	c #646A6F",
"; 	c #CBDEFF",
"> 	c #EAEEF3",
", 	c #238017",
"' 	c #B7B7B7",
") 	c #E75858",
"! 	c #6F1D1D",
"~ 	c #CFD9E9",
"{ 	c #51E650",
"] 	c #7D8999",
"^ 	c #764C56",
"/ 	c #E4EAF4",
"( 	c #A796A6",
"_ 	c #D4DDEA",
": 	c #D1E2FF",
"< 	c #B71717",
"[ 	c #36E230",
"} 	c #3D7836",
"| 	c #F3F7FF",
"1 	c #A94D4D",
"2 	c #C5D9F4",
"3 	c #989899",
"4 	c #ACB7D1",
"5 	c #C8E4FF",
"6 	c #DDEAFF",
"7 	c #8A7387",
"8 	c #E87878",
"9 	c #F9FAFF",
"0 	c #E1ECFF",
"a 	c #BFC2C6",
"b 	c #EFF5FF",
"c 	c #C53939",
"d 	c #5C8558",
"e 	c #C4CDDB",
"f 	c #BBBBBD",
"g 	c #1BD813",
"h 	c #D4E1F4",
"i 	c #C9DCF4",
"j 	c #D6E5FF",
"k 	c #A9AAAD",
"l 	c #C1D9FF",
"m 	c #B6D1FF",
"n 	c #8D9FB7",
"o 	c #BBD3FF",
"p 	c #6CC76D",
"q 	c #ADBCE3",
"r 	c #346528",
"s 	c #FAFEFF",
"t 	c #CEE0FF",
"u 	c #B4C6B3",
"v 	c #C5DBFF",
"w 	c #9795B6",
"x 	c #941B1B",
"y 	c #3C9935",
"z 	c #D9E7FF",
"A 	c #499643",
"B 	c #296A1D",
"C 	c #B3CFFF",
"D 	c #D9E2ED",
"E 	c #7E6378",
"F 	c #F6FAFF",
"G 	c #C1D7F4",
"H 	c #A9C9FF",
"I 	c #ABC2B6",
"J 	c #D1DFF6",
"K 	c #1CAB12",
"L 	c #9B2424",
"M 	c #D9E4F4",
"N 	c #CB1919",
"O 	c #C6DDFF",
"P 	c #993333",
"Q 	c #BED6FF",
"R 	c #D2E5FF",
"S 	c #9D9EA1",
"T 	c #1CBC13",
"U 	c #772A2A",
"V 	c #769B85",
"W 	c #E4EFFF",
"X 	c #2F7525",
"Y 	c #7D9E77",
"Z 	c #BD6565",
"` 	c #C8E0FF",
" .	c #F2F2F4",
"..	c #E4E7EB",
"+.	c #EAF2FF",
"@.	c #838589",
"#.	c #8E9299",
"$.	c #9EADC7",
"%.	c #CDDDF5",
"&.	c #F4FAFF",
"*.	c #798799",
"=.	c #C5CFE1",
"-.	c #7F838C",
";.	c #8B7D98",
">.	c #727375",
",.	c #AECCFF",
"'.	c #B1B1B2",
").	c #698C6D",
"!.	c #EEF0F4",
"~.	c #8A9099",
"{.	c #672121",
"].	c #ECF3FF",
"^.	c #E7F0FF",
"/.	c #DAE8FF",
"(.	c #DEDEDF",
"_.	c #517F59",
":.	c #6F9786",
"<.	c #998EA4",
"[.	c #878E99",
"}.	c #2F6824",
"|.	c #5E1C1C",
"1.	c #FFFFFF",
"2.	c #DE0B0B",
"3.	c #DE1111",
"4.	c #285E1C",
"5.	c #FEFEFF",
"6.	c #FCFCFF",
"7.	c #7E1B1B",
"8.	c #EE9292",
"9.	c #F7F8FF",
"0.	c #999EC2",
"a.	c #71EA75",
"b.	c #92EE9A",
"c.	c #CCE6FF",
"d.	c #F8F8F8",
"e.	c #DDEFFE",
"f.	c #C7E3FF",
"g.	c #DEF4FF",
"h.	c #90A0B9",
"i.	c #9AA6AF",
"j.	c #DDE6F4",
"k.	c #FDFEFF",
"l.	c #778599",
"m.	c #2C9222",
"n.	c #EA6F6F",
"o.	c #89959F",
"p.	c #CED8F3",
"q.	c #E96565",
"r.	c #B0CDFF",
"s.	c #B0CFFF",
"t.	c #ACCBFF",
"u.	c #D7E0ED",
"v.	c #987C88",
"w.	c #888E97",
"x.	c #699177",
"y.	c #8C8D8E",
"z.	c #21D619",
"A.	c #3E431C",
"B.	c #9BB498",
"C.	c #734249",
"D.	c #3EAF38",
"E.	c #65B465",
"F.	c #C55F5F",
"G.	c #5B201C",
"H.	c #A08895",
"I.	c #CCD7F3",
"J.	c #84DB89",
"K.	c #41DB3E",
"L.	c #6B3F47",
"M.	c #8A9BB9",
"N.	c #6F7071",
"O.	c #4B8E46",
"P.	c #AFAABE",
"Q.	c #7F7F81",
"R.	c #8CABA4",
"S.	c #ACC7E3",
"T.	c #7D5968",
"U.	c #34712A",
"V.	c #BBD0E1",
"W.	c #5EC55D",
"X.	c #5FD660",
"Y.	c #219F17",
"Z.	c #838790",
"`.	c #868B94",
" +	c #C5C9CC",
".+	c #5FE760",
"++	c #8D8294",
"@+	c #EC8080",
"#+	c #856F86",
"$+	c #D4E2FB",
"%+	c #52984E",
"&+	c #C3DCFF",
"*+	c #7AEB7E",
"=+	c #628C77",
"-+	c #D7E8FF",
";+	c #B6C9F3",
">+	c #A6A7C5",
",+	c #A1AED4",
"'+	c #855D65",
")+	c #68E96B",
"!+	c #D0D1D5",
"~+	c #D1D4D9",
"{+	c #D72020",
"]+	c #EEF3F9",
"^+	c #CACCD1",
"/+	c #DFEAFB",
"(+	c #F1F8FF",
"_+	c #A0B79F",
":+	c #B7CEDA",
"<+	c #B1A5B6",
"[+	c #8798B7",
"}+	c #BDD8FF",
"|+	c #D03030",
"1+	c #9CA9D4",
"2+	c #D4E1E1",
"3+	c #BDC9E3",
"4+	c #CFD6DE",
"5+	c #A5C6FF",
"6+	c #4CA048",
"7+	c #E12929",
"8+	c #59A157",
"9+	c #43843C",
"0+	c #3FD23B",
"a+	c #4D5428",
"b+	c #456435",
"c+	c #4DB949",
"d+	c #6D5B3C",
"e+	c #7B5059",
"f+	c #28AC20",
"g+	c #34B62D",
"h+	c #8CA989",
"i+	c #94AD90",
"j+	c #E1EBFF",
"k+	c #ACBDBE",
"l+	c #28D722",
"m+	c #AFB0B1",
"n+	c #ABBEB5",
"o+	c #CAD8CF",
"p+	c #E6E6E6",
"q+	c #E9EEEC",
"r+	c #CC4E4E",
"s+	c #D65B5B",
"t+	c #FEFEFE",
"u+	c #D9E3F6",
"v+	c #DAE4F1",
"w+	c #ADB3C8",
"x+	c #808284",
"y+	c #94B4C2",
"z+	c #B9D2F3",
"A+	c #DFE8F4",
"B+	c #A5A7AB",
"C+	c #A7A8A9",
"D+	c #87E38D",
"E+	c #81EC87",
"F+	c #88ED8E",
"G+	c #749381",
"H+	c #FFFFFF",
"        N.m+' ' ' ' ' ' ' ' ' ' ' '.'.Q.f                       ",
"        S t+1.1.1.1.1.1.1.1.1.1.1.k.9 f a (.p+                  ",
"        3  .1.5.5.5.5.5.5.5.5.q+_+i+u (.k >.y.                  ",
"        3  .1.6.6.6.6.6.6.6.B.}.%+8+O.Y p+m+C+d.d.              ",
"        $  .k.9 9 9 9 9 9 h+} J.b.b.b.4.> !+S N.>.              ",
"        $ !.s 9.9.9.9.9.u } D+E.4.9+} Y F > ~+B+@.              ",
"        $ !.9 | | | | | d p F+}.k+n+o+F F ]+..^+$ x+N.          ",
"        $ !.F b b b b 2+U.E+p _.=.u.F s s &.F >  +S >.          ",
"        $ > &.].].I d 4.A *+6+4.).e u._ ~ ~ D D 4+a -.          ",
"        #.> (++.+.d W.a.a.a.a.a.6+G+$.h.[+M.$.4 e e -.          ",
"        #./ b ^.W I b+4.X.)+4.4.A.G.|.|.|.|.L.++=.~ -.          ",
"        #./ ].W 0 ( @ X .+c+& 8.8.8.8.8.8.8.% ^ ~ _ Z.          ",
"        ~./ +.j+j+6 & y { y d+|.|.|.|.|.U Z % ^ u+u.`.          ",
"        ~.A+^.6 z /.).D.{ X % @ v.$+J %.P.{.Z '+/+v+w.          ",
"        ~.j.W z j $+} 0+K.r @+8 {.<+z -+j H.1 H.W j.~.          ",
"        [.M 0 j : V.B [ g+a+8 8 F.e+p.: : I.* p.0 M [.          ",
"        [.M 6 : t R.m.[ m.& 1 n.n.@ = t t t t t 6 M [.          ",
"        . h /.t ; x.f+l+B w+{.s+q.q.U ( ; ; ; ; /.h [.          ",
"        . V r 4._.B z.Y.V v * U ) ) r+C.v v v O -+h .           ",
"        . r g g T g Y.:.z+l l = P ) P <.l l l v R J .           ",
"        . V Y.T K , :.S.Q Q >+{.c + = Q Q Q Q l R %..           ",
"        ] :+V _.=+y+o o o ;+T.+ c ^ q o o o o Q : i .           ",
"        ] i ` o m m m m m = L |+{.w m m m m q 7 3+i ]           ",
"        ] 2 ` m C C C C 7 x 7+7.;.C C C C C #+L v.2 ]           ",
"        ] 2 O C ,.r.r.;.7.{+x E 0.0.0.0.0.;.! < e+2 ]           ",
"        *.2 &+,.t.,.w |.N N 7.7.7.7.7.7.7.x N x * 2 *.          ",
"        *.G l t.H 1+^ < 3.3.3.3.3.3.3.3.3.3.3.x <.G *.          ",
"        l.G }+H 5+E < 2.2.2.2.2.2.2.2.2.2.2.2.7.,+G l.          ",
"        ] i ` m s.,+E |.|.|.|.|.|.|.|.|.|.|.|.= ` i ]           ",
"        o.e.g.c.f.5 5 5 5 5 5 5 5 5 5 5 5 5 f.c.g.e.o.          ",
"        - i.# h.n n n n n n n n n n n n n n n h.# i.-           ",
"                                                                "};
