/* XPM */
static const char * xpm_checkpoint1[] = {
"11 11 4 1",
" 	c #000000",
".	c #808000",
"+	c #C0C0C0",
"@	c #ECE9D8",
"           ",
" . +++++ + ",
" . +++++   ",
" . +++++ . ",
" . +++++ . ",
" ..     .. ",
" ......... ",
" ..      . ",
" ..    + . ",
" ..    + . ",
"@          "};
