/* XPM */
static const char * xpm_checkpoint3[] = {
"11 11 4 1",
" 	c #000000",
".	c #ECE9D8",
"+	c #808000",
"@	c #C0C0C0",
"         ..",
" + @@@ @ ..",
" +         ",
" + + @@@ @ ",
" + + @@@   ",
" + + @@@ + ",
" + ++   ++ ",
" + +++++++ ",
".  +     + ",
".. +   @ + ",
"...        "};
