/* XPM */
static const char * xpm_checkpoint2[] = {
"11 11 5 1",
" 	c None",
".	c #000000",
"+	c #808000",
"@	c #C0C0C0",
"#	c #ECE9D8",
"           ",
" ......... ",
" .+.@@@.@. ",
" .+.@@@... ",
" .+.@@@.+. ",
" .++...++. ",
" .+++++++. ",
" .+.....+. ",
" .+...@.+. ",
" #........ ",
"           "};
