/* XPM */
static const char * xpm_dotations[] = {
"32 32 371 2",
"  	c None",
". 	c #000000",
"+ 	c #333333",
"@ 	c #535353",
"# 	c #545454",
"$ 	c #121212",
"% 	c #505050",
"& 	c #585858",
"* 	c #252525",
"= 	c #232323",
"- 	c #4C4C4C",
"; 	c #5A5A5A",
"> 	c #2A2A2A",
", 	c #202020",
"' 	c #313131",
") 	c #020202",
"! 	c #363636",
"~ 	c #282828",
"{ 	c #050505",
"] 	c #111111",
"^ 	c #424242",
"/ 	c #6E6E6E",
"( 	c #3B3B3B",
"_ 	c #1C1C1C",
": 	c #3D3D3D",
"< 	c #070707",
"[ 	c #1A1A1A",
"} 	c #3E3E3E",
"| 	c #0F0F0F",
"1 	c #101010",
"2 	c #272727",
"3 	c #6C6C6C",
"4 	c #434343",
"5 	c #565656",
"6 	c #525252",
"7 	c #393939",
"8 	c #5E5E5E",
"9 	c #404040",
"0 	c #353535",
"a 	c #5D5D5D",
"b 	c #444444",
"c 	c #1E1E1E",
"d 	c #262626",
"e 	c #5B5B5B",
"f 	c #494949",
"g 	c #676767",
"h 	c #4D4D4D",
"i 	c #737373",
"j 	c #131313",
"k 	c #484848",
"l 	c #303030",
"m 	c #2B2B2B",
"n 	c #717171",
"o 	c #666666",
"p 	c #474747",
"q 	c #7E7E7E",
"r 	c #5C5C5C",
"s 	c #787878",
"t 	c #656565",
"u 	c #575757",
"v 	c #6A6A6A",
"w 	c #464646",
"x 	c #7A7A7A",
"y 	c #686868",
"z 	c #959595",
"A 	c #808080",
"B 	c #777777",
"C 	c #616161",
"D 	c #3A3A3A",
"E 	c #8D8D8D",
"F 	c #7C7C7C",
"G 	c #858585",
"H 	c #160F03",
"I 	c #241905",
"J 	c #747474",
"K 	c #8C8C8C",
"L 	c #888888",
"M 	c #0E0E0E",
"N 	c #6F6F6F",
"O 	c #8B8B8B",
"P 	c #242424",
"Q 	c #8E8E8E",
"R 	c #9F9F9F",
"S 	c #1B1B1C",
"T 	c #69480D",
"U 	c #A57115",
"V 	c #878787",
"W 	c #999999",
"X 	c #9B9B9B",
"Y 	c #0A0A0A",
"Z 	c #818181",
"` 	c #9D9D9D",
" .	c #848484",
"..	c #2F2F2F",
"+.	c #A8A8A8",
"@.	c #606060",
"#.	c #1D180F",
"$.	c #6A4911",
"%.	c #AE7817",
"&.	c #BF8417",
"*.	c #010100",
"=.	c #ABABAB",
"-.	c #090909",
";.	c #8F8F8F",
">.	c #AEAEAE",
",.	c #929292",
"'.	c #AFAFAF",
").	c #2C2C2C",
"!.	c #383023",
"~.	c #6C4B13",
"{.	c #B57D1C",
"].	c #845B12",
"^.	c #573C0A",
"/.	c #855C1C",
"(.	c #060401",
"_.	c #A0A0A0",
":.	c #B7B7B7",
"<.	c #B5B5B5",
"[.	c #0D0D0D",
"}.	c #9A9A9A",
"|.	c #B8B8B8",
"1.	c #949494",
"2.	c #BBBBBB",
"3.	c #212120",
"4.	c #30291E",
"5.	c #6E4B15",
"6.	c #AE781E",
"7.	c #895F14",
"8.	c #332206",
"9.	c #0B0701",
"0.	c #4D2903",
"a.	c #191105",
"b.	c #79541C",
"c.	c #AB7620",
"d.	c #6C4A12",
"e.	c #0E0A02",
"f.	c #65450A",
"g.	c #AC7511",
"h.	c #875D1C",
"i.	c #885E1B",
"j.	c #8A601B",
"k.	c #8D611A",
"l.	c #8F631A",
"m.	c #926419",
"n.	c #956619",
"o.	c #986818",
"p.	c #9B6A17",
"q.	c #9E6C17",
"r.	c #A26F16",
"s.	c #A87315",
"t.	c #402D0E",
"u.	c #845B1A",
"v.	c #714E16",
"w.	c #1C1405",
"x.	c #2F2005",
"y.	c #9A680F",
"z.	c #CF8D14",
"A.	c #8B601B",
"B.	c #926519",
"C.	c #9B6B17",
"D.	c #9E6D17",
"E.	c #A97315",
"F.	c #AC7614",
"G.	c #49320F",
"H.	c #442F0D",
"I.	c #2B1E09",
"J.	c #231908",
"K.	c #5D3F0C",
"L.	c #8F610E",
"M.	c #9C6A0E",
"N.	c #885D1A",
"O.	c #8A5F1A",
"P.	c #8B6019",
"Q.	c #8E6219",
"R.	c #906418",
"S.	c #936618",
"T.	c #966718",
"U.	c #996917",
"V.	c #9D6B17",
"W.	c #A06D16",
"X.	c #A36F15",
"Y.	c #A77115",
"Z.	c #AA7414",
"`.	c #AE7613",
" +	c #231807",
".+	c #090602",
"++	c #37260B",
"@+	c #775317",
"#+	c #3E2A08",
"$+	c #563A07",
"%+	c #714D09",
"&+	c #593408",
"*+	c #5A3408",
"=+	c #522E05",
"-+	c #542F05",
";+	c #5E3707",
">+	c #5F3807",
",+	c #603806",
"'+	c #613906",
")+	c #100A02",
"!+	c #2F210A",
"~+	c #614212",
"{+	c #795413",
"]+	c #6A480A",
"^+	c #6D4908",
"/+	c #724D08",
"(+	c #805715",
"_+	c #835815",
":+	c #895F1B",
"<+	c #8C6119",
"[+	c #5B3507",
"}+	c #87580E",
"|+	c #976511",
"1+	c #9A6711",
"2+	c #9D6910",
"3+	c #A06B0F",
"4+	c #A26D0F",
"5+	c #261A06",
"6+	c #3B280C",
"7+	c #593D0F",
"8+	c #76510C",
"9+	c #9D6A0C",
"0+	c #553906",
"a+	c #241803",
"b+	c #90631A",
"c+	c #936519",
"d+	c #563106",
"e+	c #7F5619",
"f+	c #8A5F1B",
"g+	c #966719",
"h+	c #6D440B",
"i+	c #563005",
"j+	c #A46E12",
"k+	c #B17913",
"l+	c #B47B12",
"m+	c #B77D12",
"n+	c #BB7F11",
"o+	c #49310B",
"p+	c #4D350D",
"q+	c #543A0B",
"r+	c #5F4107",
"s+	c #744E07",
"t+	c #4B3205",
"u+	c #2F2004",
"v+	c #764B0E",
"w+	c #4E2A04",
"x+	c #754C11",
"y+	c #976818",
"z+	c #9F6D17",
"A+	c #A47115",
"B+	c #7B4E0B",
"C+	c #7A4D0A",
"D+	c #A67010",
"E+	c #B87D12",
"F+	c #BE8110",
"G+	c #4D340C",
"H+	c #7D5613",
"I+	c #7A5410",
"J+	c #372504",
"K+	c #040300",
"L+	c #835909",
"M+	c #D4900F",
"N+	c #996918",
"O+	c #916213",
"P+	c #573106",
"Q+	c #774C0D",
"R+	c #B07813",
"S+	c #AD7410",
"T+	c #8C5A0A",
"U+	c #794C09",
"V+	c #AE760F",
"W+	c #BF8210",
"X+	c #C28410",
"Y+	c #5C3F0E",
"Z+	c #7D5712",
"`+	c #52390B",
" @	c #1F1502",
".@	c #8D600B",
"+@	c #D6920F",
"@@	c #E49B0F",
"#@	c #9A6A18",
"$@	c #9D6C17",
"%@	c #A06E16",
"&@	c #A47016",
"*@	c #9B6913",
"=@	c #88570C",
"-@	c #B77C11",
";@	c #C18310",
">@	c #C7870E",
",@	c #905C08",
"'@	c #7C4E08",
")@	c #C5860F",
"!@	c #46310B",
"~@	c #3A2808",
"{@	c #483108",
"]@	c #855B0C",
"^@	c #E49B11",
"/@	c #A4700B",
"(@	c #6B4807",
"_@	c #A16E16",
":@	c #A77215",
"<@	c #AB7514",
"[@	c #9E6A11",
"}@	c #502B03",
"|@	c #AB720D",
"1@	c #C9880E",
"2@	c #CE8C0D",
"3@	c #D28F0C",
"4@	c #C8880E",
"5@	c #221605",
"6@	c #261A05",
"7@	c #855A0D",
"8@	c #E29914",
"9@	c #A46F0C",
"0@	c #261A02",
"a@	c #683F09",
"b@	c #694009",
"c@	c #6B4109",
"d@	c #6C4209",
"e@	c #6D4208",
"f@	c #6E4308",
"g@	c #623906",
"h@	c #542E04",
"i@	c #5D3505",
"j@	c #754807",
"k@	c #764807",
"l@	c #1A1204",
"m@	c #9A6912",
"n@	c #DC9717",
"o@	c #895D0C",
"p@	c #201603",
"q@	c #885A10",
"r@	c #8A5B0F",
"s@	c #8C5C0E",
"t@	c #8F5E0E",
"u@	c #91600E",
"v@	c #94610D",
"w@	c #96620C",
"x@	c #98640C",
"y@	c #9A650C",
"z@	c #9D660B",
"A@	c #9E680B",
"B@	c #A0690A",
"C@	c #A26A0A",
"D@	c #A36B0A",
"E@	c #51360B",
"F@	c #A57012",
"G@	c #92630F",
"H@	c #211703",
"I@	c #AC7514",
"J@	c #AF7813",
"K@	c #B37A13",
"L@	c #B67C12",
"M@	c #B97E11",
"N@	c #BD8011",
"O@	c #C08210",
"P@	c #C3840F",
"Q@	c #C6860F",
"R@	c #CB8A0E",
"S@	c #CD8B0D",
"T@	c #CF8D0D",
"U@	c #5B3E0C",
"V@	c #553A09",
"W@	c #261903",
"X@	c #BA7E11",
"Y@	c #C08310",
"Z@	c #C3850F",
"`@	c #D08D0D",
" #	c #D18E0C",
".#	c #2A1C05",
"+#	c #211202",
"                                                                ",
"                                                                ",
"                            . .     . .     . .                 ",
"                          + @ # $ + % & * = - ; >               ",
"                    . . . , ' = ) , ! ~ { ] ^ / (               ",
"                  . _ : ( < [ ( } | 1 2 3 4 2 5 6 .             ",
"                7 8 9 ] 0 a b c d e f c & @ 7 % g .             ",
"              . h i @ j k i & l m n a l - o % p q .             ",
"              . r s t j u s v w > s / w ^ x y } z .             ",
"              . o A B ] C A x e d A q e D E F 0 G H I           ",
"              . J K L M N K O N P K Q N 0 R E * S T U           ",
"              . V W X Y Z W `  .= W R  ...+.@.#.$.%.&.          ",
"              *.z +.=.-.;.+.>.,.P +.'.,.).3 !.~.{.].^.          ",
"            /.(._.:.<.[.}.:.|.1.m :.2.1.3.4.5.6.7.8.9.          ",
"          0.0.0.0.0.0.0.0.0.0.0.0.0.0.0.a.b.c.d.e.f.g.          ",
"          0./.h.i.j.k.l.m.n.o.p.q.r.U s.t.u.v.w.x.y.z.          ",
"          0.h.i.A.k.l.B.n.o.C.D.r.U E.F.G.H.I.J.K.L.M.          ",
"          0.N.O.P.Q.R.S.T.U.V.W.X.Y.Z.`. +.+++@+#+$+%+          ",
"          0.&+*+=+0.0.0.0.-+;+;+>+,+,+'+)+!+~+{+]+^+/+          ",
"          0.(+_+0././.:+<+[+}+|+1+2+3+4+5+6+7+8+9+0+a+          ",
"          0.b+c+d+e+f+l.g+h+i+j+k+l+m+n+o+p+q+r+s+t+u+          ",
"          0.c+T.v+w+x+y+z+A+B+C+D+E+n+F+G+H+I+J+K+L+M+          ",
"          0.T.N+V.O+P+Q+s.R+S+T+U+V+W+X+Y+Z+`+ @.@+@@@          ",
"          0.#@$@%@&@*@i+=@-@;@>@,@'@X+)@!@~@{@]@^@/@(@          ",
"          0.$@_@&@:@<@[@}@|@1@2@3@0.)@4@5@6@7@8@9@0@.           ",
"          0.a@b@c@d@e@f@g@h@0.0.0.i@j@k@l@m@n@o@p@              ",
"          0.q@r@s@t@u@v@w@x@y@z@A@B@C@D@E@F@G@H@                ",
"          0.s.I@J@K@L@M@N@O@P@Q@4@R@S@T@U@V@W@                  ",
"          0.I@J@K@L@X@N@Y@Z@Q@1@R@S@`@ #.#(.                    ",
"          0.0.0.0.0.0.0.0.0.0.0.0.0.0.0.+#                      ",
"                                                                ",
"                                                                "};
