/* XPM */
static const char * xpm_experience_rookie[] = {
"32 32 484 2",
"  	c None",
". 	c #154B8F",
"+ 	c #1E569A",
"@ 	c #215BA2",
"# 	c #255FA7",
"$ 	c #2560AA",
"% 	c #2560A9",
"& 	c #255EA6",
"* 	c #215AA1",
"= 	c #245DA1",
"- 	c #3C71B4",
"; 	c #4B7EBE",
"> 	c #5084C4",
", 	c #5186C7",
"' 	c #5186C8",
") 	c #245CA0",
"! 	c #164C8F",
"~ 	c #1D559B",
"{ 	c #3C72B4",
"] 	c #709BCF",
"^ 	c #91B3DE",
"/ 	c #9BBBE3",
"( 	c #9BBDE5",
"_ 	c #9CBDE5",
": 	c #91B3DD",
"< 	c #709ACE",
"[ 	c #205BA2",
"} 	c #4A7FBF",
"| 	c #8BB0DC",
"1 	c #B6CEEC",
"2 	c #C2D7F1",
"3 	c #C5D9F2",
"4 	c #C4D9F2",
"5 	c #B5CEEC",
"6 	c #4A7EBE",
"7 	c #225DA6",
"8 	c #4B80C3",
"9 	c #8FB3E0",
"0 	c #B9D1EF",
"a 	c #C5DAF3",
"b 	c #C8DCF5",
"c 	c #C6DBF4",
"d 	c #BAD2EF",
"e 	c #8FB4E0",
"f 	c #4B80C2",
"g 	c #235DA5",
"h 	c #215EA8",
"i 	c #4980C5",
"j 	c #89B0E0",
"k 	c #B1CDEE",
"l 	c #BCD5F3",
"m 	c #BED7F4",
"n 	c #BFD7F4",
"o 	c #BED6F4",
"p 	c #4980C4",
"q 	c #225DA7",
"r 	c #205DA9",
"s 	c #457EC4",
"t 	c #80AADE",
"u 	c #A6C6EC",
"v 	c #B1CDF1",
"w 	c #B2CFF2",
"x 	c #B3CFF2",
"y 	c #B0CDF0",
"z 	c #80AADD",
"A 	c #457EC3",
"B 	c #215EA7",
"C 	c #407BC2",
"D 	c #77A4DC",
"E 	c #9ABDE9",
"F 	c #A4C5EF",
"G 	c #A4C6F0",
"H 	c #A5C7F0",
"I 	c #A3C4EE",
"J 	c #99BDE9",
"K 	c #77A4DB",
"L 	c #1D5BA8",
"M 	c #3C77C1",
"N 	c #6E9ED9",
"O 	c #8CB4E6",
"P 	c #95BCEC",
"Q 	c #96BEED",
"R 	c #96BEEE",
"S 	c #95BDEE",
"T 	c #95BCEB",
"U 	c #6D9ED9",
"V 	c #3C77C0",
"W 	c #1E5BA6",
"X 	c #1C5AA7",
"Y 	c #3774BF",
"Z 	c #6497D7",
"` 	c #7DABE3",
" .	c #87B3E9",
"..	c #88B5EB",
"+.	c #87B4EB",
"@.	c #86B2E9",
"#.	c #6397D6",
"$.	c #1D5BA6",
"%.	c #1A59A7",
"&.	c #3271BE",
"*.	c #5990D4",
"=.	c #70A2E0",
"-.	c #77A9E6",
";.	c #78ABE8",
">.	c #78ABE9",
",.	c #78A9E6",
"'.	c #578FD3",
").	c #3271BD",
"!.	c #1A59A5",
"~.	c #1857A6",
"{.	c #2E6EBD",
"].	c #4E88D1",
"^.	c #6299DD",
"/.	c #69A0E4",
"(.	c #6AA2E6",
"_.	c #6AA2E7",
":.	c #69A1E6",
"<.	c #689FE3",
"[.	c #4D88D0",
"}.	c #2E6EBC",
"|.	c #1958A4",
"1.	c #286ABB",
"2.	c #4381CE",
"3.	c #5490DA",
"4.	c #5996E1",
"5.	c #5A98E3",
"6.	c #5A98E4",
"7.	c #5B99E4",
"8.	c #5995E0",
"9.	c #4281CD",
"0.	c #286ABA",
"a.	c #1857A4",
"b.	c #1655A5",
"c.	c #2467B9",
"d.	c #397ACB",
"e.	c #4788D8",
"f.	c #4B8DDE",
"g.	c #4D90E1",
"h.	c #4C8FE2",
"i.	c #4D90E2",
"j.	c #6BA2D8",
"k.	c #4C8FE1",
"l.	c #4889D7",
"m.	c #387ACA",
"n.	c #2467B8",
"o.	c #1655A3",
"p.	c #1555A4",
"q.	c #1F63B8",
"r.	c #3174C9",
"s.	c #3B80D5",
"t.	c #3F85DC",
"u.	c #3F87DF",
"v.	c #3F87E0",
"w.	c #3E86DF",
"x.	c #8BB5DB",
"y.	c #B2CAC4",
"z.	c #3E85DB",
"A.	c #3B80D4",
"B.	c #3074C8",
"C.	c #1F63B7",
"D.	c #1555A2",
"E.	c #1B61B7",
"F.	c #286FC7",
"G.	c #3079D2",
"H.	c #317DDA",
"I.	c #327FDD",
"J.	c #317EDD",
"K.	c #83AFD9",
"L.	c #FFFBD0",
"M.	c #F2EEAB",
"N.	c #A9C1A5",
"O.	c #4D8ECF",
"P.	c #317EDC",
"Q.	c #317CD9",
"R.	c #266EC6",
"S.	c #1B61B6",
"T.	c #1353A4",
"U.	c #195FB6",
"V.	c #216AC5",
"W.	c #2571D0",
"X.	c #2776D8",
"Y.	c #2778DB",
"Z.	c #2778DC",
"`.	c #7DABD6",
" +	c #FFF9C9",
".+	c #FFF8B5",
"++	c #FFF38C",
"@+	c #FFF06E",
"#+	c #B6C68A",
"$+	c #3B82D1",
"%+	c #2675D7",
"&+	c #2672CF",
"*+	c #206AC4",
"=+	c #195FB5",
"-+	c #1454A2",
";+	c #1253A3",
">+	c #165DB5",
",+	c #1A65C3",
"'+	c #1D6DCF",
")+	c #1E71D6",
"!+	c #1E73D9",
"~+	c #1E73DA",
"{+	c #77A8D3",
"]+	c #FFF9C5",
"^+	c #FFF6AB",
"/+	c #FFF17A",
"(+	c #FFEF62",
"_+	c #FFEF60",
":+	c #F2E760",
"<+	c #95B395",
"[+	c #2878D4",
"}+	c #1D70D5",
"|+	c #1D6DCE",
"1+	c #1965C2",
"2+	c #165DB4",
"3+	c #1253A1",
"4+	c #1152A3",
"5+	c #135BB4",
"6+	c #1562C2",
"7+	c #1668CD",
"8+	c #176CD5",
"9+	c #176ED8",
"0+	c #176ED9",
"a+	c #73A5D1",
"b+	c #FFF8C1",
"c+	c #FFF6A5",
"d+	c #FFF070",
"e+	c #FFED51",
"f+	c #FFEC4C",
"g+	c #FFEE5A",
"h+	c #FFED58",
"i+	c #B4C37B",
"j+	c #3A81C4",
"k+	c #166BD4",
"l+	c #1668CC",
"m+	c #1462C1",
"n+	c #135BB3",
"o+	c #1152A1",
"p+	c #FFF8BF",
"q+	c #FFF6A3",
"r+	c #FFF06C",
"s+	c #FFED4B",
"t+	c #FFEC45",
"u+	c #FFEC46",
"v+	c #FFEC47",
"w+	c #FFED4F",
"x+	c #FFED54",
"y+	c #FFEC49",
"z+	c #9AB584",
"A+	c #1763C2",
"B+	c #1869CD",
"C+	c #1B6ED6",
"D+	c #1B70D9",
"E+	c #1B70DA",
"F+	c #75A6D1",
"G+	c #FFF8BE",
"H+	c #FFF5A1",
"I+	c #FFEF6A",
"J+	c #FFEC48",
"K+	c #FFEA3E",
"L+	c #FFEA35",
"M+	c #FFEA36",
"N+	c #FFEB43",
"O+	c #FFEC4D",
"P+	c #F2E552",
"Q+	c #A7BD81",
"R+	c #4185C1",
"S+	c #1A6DD5",
"T+	c #196ACD",
"U+	c #1663C1",
"V+	c #155CB5",
"W+	c #1B66C3",
"X+	c #2370D0",
"Y+	c #2877D8",
"Z+	c #2A7ADB",
"`+	c #2A7ADC",
" @	c #2979DC",
".@	c #7EACD3",
"+@	c #FFF9C1",
"@@	c #FFEF70",
"#@	c #FFEB40",
"$@	c #FFE515",
"%@	c #FFDF15",
"&@	c #FAE019",
"*@	c #FFE82C",
"=@	c #FFEB44",
"-@	c #FFEC4A",
";@	c #FFED52",
">@	c #B2C27D",
",@	c #3680D4",
"'@	c #2776D7",
")@	c #2370CF",
"!@	c #1A66C2",
"~@	c #155CB4",
"{@	c #175EB5",
"]@	c #236BC6",
"^@	c #337BD3",
"/@	c #3E85DC",
"(@	c #4088DF",
"_@	c #4188E0",
":@	c #8CB5D8",
"<@	c #FFF9C6",
"[@	c #FFF7AD",
"}@	c #FFF17C",
"|@	c #FFEF5E",
"1@	c #FFED50",
"2@	c #FFE72F",
"3@	c #FFBF2F",
"4@	c #F5B937",
"5@	c #BAAB6F",
"6@	c #FFE22F",
"7@	c #FFEB38",
"8@	c #FFEE59",
"9@	c #FFEF5F",
"0@	c #F3E867",
"a@	c #ABC296",
"b@	c #5191D5",
"c@	c #4188DF",
"d@	c #3C83DB",
"e@	c #337BD2",
"f@	c #226BC5",
"g@	c #175EB4",
"h@	c #2A70C8",
"i@	c #4586D7",
"j@	c #5593E0",
"k@	c #5997E3",
"l@	c #9BBFDC",
"m@	c #FFF9CC",
"n@	c #FFF7B5",
"o@	c #FFF389",
"p@	c #FFEF61",
"q@	c #FFE849",
"r@	c #FFC249",
"s@	c #F6BF51",
"t@	c #7FA1C1",
"u@	c #79A0C5",
"v@	c #D8C96D",
"w@	c #FFE549",
"x@	c #FFEF63",
"y@	c #FFF06F",
"z@	c #FFF177",
"A@	c #FFF073",
"B@	c #C9D392",
"C@	c #6EA2D3",
"D@	c #5492DF",
"E@	c #4586D6",
"F@	c #2970C7",
"G@	c #1A60B6",
"H@	c #3175C9",
"I@	c #5390DA",
"J@	c #6AA0E4",
"K@	c #A8C7DF",
"L@	c #FFFAD1",
"M@	c #FFF8BD",
"N@	c #FFF496",
"O@	c #FFF17E",
"P@	c #FFF072",
"Q@	c #FFEB62",
"R@	c #FFC862",
"S@	c #F8C669",
"T@	c #91AEC9",
"U@	c #70A6E8",
"V@	c #7EABDB",
"W@	c #C6CB97",
"X@	c #F9E768",
"Y@	c #FFEE62",
"Z@	c #FFF074",
"`@	c #FFF180",
" #	c #FFF284",
".#	c #FCF07E",
"+#	c #BECFAB",
"@#	c #1A60B5",
"##	c #3879CB",
"$#	c #639ADD",
"%#	c #B1CCE1",
"&#	c #FFFBD7",
"*#	c #FFF48E",
"=#	c #FFEE7A",
"-#	c #FFD07A",
";#	c #F9CF81",
">#	c #A2BAD2",
",#	c #86B3EB",
"'#	c #96BBDD",
")#	c #E0DB97",
"!#	c #FFEC7A",
"~#	c #FFF07A",
"{#	c #FFF285",
"]#	c #FFF38B",
"^#	c #FFF493",
"/#	c #FDF293",
"(#	c #D2DBA8",
"_#	c #7CA8CB",
":#	c #387AC9",
"<#	c #1C61B6",
"[#	c #1253A2",
"}#	c #1E63B8",
"|#	c #3E7ECD",
"1#	c #A9C5DB",
"2#	c #FFFBD9",
"3#	c #FFFACD",
"4#	c #FFF7B1",
"5#	c #FFF59F",
"6#	c #FFF497",
"7#	c #FFF091",
"8#	c #FFD691",
"9#	c #FAD596",
"0#	c #B2C6D9",
"a#	c #9BC0EE",
"b#	c #ADC8DD",
"c#	c #D9DAB4",
"d#	c #FBED94",
"e#	c #FFF391",
"f#	c #FFF49A",
"g#	c #FFF59D",
"h#	c #FFF5A2",
"i#	c #FFF495",
"j#	c #C6D19D",
"k#	c #3D7ECC",
"l#	c #1E63B7",
"m#	c #1252A0",
"n#	c #1352A0",
"o#	c #1E61B4",
"p#	c #8CAFC7",
"q#	c #FFFACF",
"r#	c #FFFACB",
"s#	c #FFF7B4",
"t#	c #FFF5A4",
"u#	c #FFF59C",
"v#	c #FFF199",
"w#	c #FFD89A",
"x#	c #FAD79D",
"y#	c #B8C9DB",
"z#	c #A2C4EE",
"A#	c #A3C5EE",
"B#	c #A5C5EB",
"C#	c #E1E0B5",
"D#	c #FFF09A",
"E#	c #FFF39A",
"F#	c #FFF49B",
"G#	c #F5EB81",
"H#	c #ACBC81",
"I#	c #1E61B3",
"J#	c #14529F",
"K#	c #11509B",
"L#	c #1B5EAE",
"M#	c #FFF7BA",
"N#	c #FFF7B0",
"O#	c #FFF499",
"P#	c #FFF27E",
"Q#	c #FFED7D",
"R#	c #FFCD7E",
"S#	c #F9CC83",
"T#	c #A4B9CE",
"U#	c #89B3E6",
"V#	c #88B2E6",
"W#	c #A3BECE",
"X#	c #E1D997",
"Y#	c #FFEA7E",
"Z#	c #FFF07D",
"`#	c #FFF282",
" $	c #FFF286",
".$	c #FFF283",
"+$	c #FFEC44",
"@$	c #1B5DAD",
"#$	c #114F9A",
"$$	c #114C95",
"%$	c #1656A5",
"&$	c #2565B5",
"*$	c #3A78C4",
"=$	c #4883CC",
"-$	c #4C88D0",
";$	c #4D88D1",
">$	c #3A78C3",
",$	c #2464B4",
"'$	c #114C94",
")$	c #0F478C",
"!$	c #124F9A",
"~$	c #1C5DAE",
"{$	c #2062B4",
"]$	c #2165B7",
"^$	c #2165B8",
"/$	c #124E99",
"($	c #1453A0",
"_$	c #1454A3",
"  . + @ # $ $ $ $ $ $ $ $ $ $ $ $ $ $ $ $ $ $ $ $ $ % & * + .   ",
". = - ; > , ' ' ' ' ' ' ' ' ' ' ' ' ' ' ' ' ' ' ' ' , > ; - ) ! ",
"~ { ] ^ / ( _ _ _ _ _ _ _ _ _ _ _ _ _ _ _ _ _ _ _ _ ( / : < - + ",
"[ } | 1 2 3 3 3 3 3 4 4 3 4 4 3 3 3 3 3 4 3 3 3 4 4 4 2 5 | 6 * ",
"7 8 9 0 a b b b b b b b b b b b b b b b b b b b b b b c d e f g ",
"h i j k l m m m n n m m n n m m n n m m m m m m m m o l k j p q ",
"r s t u v w w w w w w w w w w w w x x w w x w w w w w y u z A B ",
"r C D E F G H H H G G G H H H H H G G H H H H H G G H I J K C B ",
"L M N O P Q R R R R R R R R R S R R R R S R R S R R Q T O U V W ",
"X Y Z `  ...+.+.+...+.+...+...+.+.+.+.+.+.+.+.+.+.+...@.` #.Y $.",
"%.&.*.=.-.;.>.>.>.>.>.>.>.>.>.>.>.>.>.>.>.>.>.>.>.>.;.,.=.'.).!.",
"~.{.].^./.(._._.:.:.:.:.:.:.:.:._._.:._.:._.:._._.:.:.<.^.[.}.|.",
"~.1.2.3.4.5.6.6.7.7.6.6.6.6.6.7.6.6.6.6.6.6.6.6.6.6.5.8.3.9.0.a.",
"b.c.d.e.f.g.h.h.h.i.i.h.i.i.h.i.j.h.i.h.i.h.h.h.h.i.k.f.l.m.n.o.",
"p.q.r.s.t.u.v.v.v.v.v.w.v.w.v.x.y.v.v.v.v.v.v.v.w.v.u.z.A.B.C.D.",
"p.E.F.G.H.I.I.J.J.I.I.I.I.I.K.L.M.N.O.J.I.J.I.J.I.I.P.Q.G.R.S.D.",
"T.U.V.W.X.Y.Z.Z.Z.Z.Z.Z.Z.`. +.+++@+#+$+Z.Z.Z.Z.Z.Z.Y.%+&+*+=+-+",
";+>+,+'+)+!+~+~+~+~+~+~+{+]+^+/+(+_+:+<+[+~+~+~+~+~+!+}+|+1+2+3+",
"4+5+6+7+8+9+0+0+0+0+0+a+b+c+d+e+f+e+g+h+i+j+0+0+0+0+9+k+l+m+n+o+",
"4+5+6+7+8+9+0+0+0+0+a+p+q+r+s+t+u+v+w+x+y+z+0+0+0+0+9+k+l+m+n+o+",
"4+5+A+B+C+D+E+E+E+F+G+H+I+J+K+L+M+K+N+J+O+P+Q+R+E+E+D+S+T+U+n+o+",
"4+V+W+X+Y+Z+`+ @.@+@c+@@w+#@$@%@&@*@=@-@;@g+;@>@,@`+Z+'@)@!@~@o+",
";+{@]@^@/@(@_@:@<@[@}@|@1@2@3@4@5@6@7@1@8@9@(+0@a@b@c@d@e@f@g@3+",
";+U.h@i@j@k@l@m@n@o@@+p@q@r@s@t@u@v@w@y+x@I+y@z@A@B@C@D@E@F@=+3+",
";+G@H@I@J@K@L@M@N@O@P@Q@R@S@T@U@U@V@W@X@Y@Z@/+`@ #.#+#<.3.H@@#3+",
";+E.##$#%#&#]+q+*# #=#-#;#>#,#,#,#+.'#)#!#~#{#]#*#^#/#(#_#:#<#3+",
"[#}#|#1#2#3#4#5#6#7#8#9#0#a#a#a#a#a#a#b#c#d#e#f#g#H+h#i#j#k#l#m#",
"n#o#p#q#r#s#t#u#v#w#x#y#z#z#z#z#z#z#z#A#B#C#D#E#g#H+h#F#G#H#I#J#",
"K#L#M#N#O#o@P#Q#R#S#T#U#U#U#U#U#U#V#V#U#U#W#X#Y#Z#`# $.$y@+$@$#$",
"$$%$&$*$=$-$;$;$;$;$;$;$;$;$;$;$;$;$;$;$;$;$;$;$;$;$-$=$>$,$b.'$",
")$!$b.~${$]$^$^$^$^$^$^$^$^$^$^$^$^$^$^$^$^$^$^$^$^$]${$~$b./$)$",
"  )$'$K#($_$_$_$_$_$_$_$_$_$_$_$_$_$_$_$_$_$_$_$_$_$-+J##$'$)$  "};
