/* XPM */
static const char * xpm_experience_veteran[] = {
"32 32 666 2",
"  	c None",
". 	c #154B8F",
"+ 	c #1E569A",
"@ 	c #215BA2",
"# 	c #255FA7",
"$ 	c #2560AA",
"% 	c #2560A9",
"& 	c #255EA6",
"* 	c #215AA1",
"= 	c #245DA1",
"- 	c #3C71B4",
"; 	c #4B7EBE",
"> 	c #5084C4",
", 	c #5186C7",
"' 	c #5186C8",
") 	c #245CA0",
"! 	c #164C8F",
"~ 	c #1D559B",
"{ 	c #3C72B4",
"] 	c #709BCF",
"^ 	c #91B3DE",
"/ 	c #9BBBE3",
"( 	c #9BBDE5",
"_ 	c #9CBDE5",
": 	c #CDDDE7",
"< 	c #FFFCE6",
"[ 	c #FFFBDB",
"} 	c #FFF9C9",
"| 	c #FFF8BD",
"1 	c #E4E7C3",
"2 	c #A7C3E0",
"3 	c #91B3DD",
"4 	c #709ACE",
"5 	c #205BA2",
"6 	c #4A7FBF",
"7 	c #8BB0DC",
"8 	c #B6CEEC",
"9 	c #C2D7F1",
"0 	c #C5D9F2",
"a 	c #C4D9F2",
"b 	c #E2EBF2",
"c 	c #FFFDEF",
"d 	c #FFFDE8",
"e 	c #FFFBDC",
"f 	c #FFFBD6",
"g 	c #FCF9D7",
"h 	c #E8EDE1",
"i 	c #CADDEF",
"j 	c #B5CEEC",
"k 	c #4A7EBE",
"l 	c #225DA6",
"m 	c #4B80C3",
"n 	c #8FB3E0",
"o 	c #B9D1EF",
"p 	c #C5DAF3",
"q 	c #C8DCF5",
"r 	c #E4EDF3",
"s 	c #FFFEF0",
"t 	c #FFFDE9",
"u 	c #FFFBDD",
"v 	c #FFFBD9",
"w 	c #F2F4DE",
"x 	c #D2E2EF",
"y 	c #C6DBF4",
"z 	c #BAD2EF",
"A 	c #8FB4E0",
"B 	c #4B80C2",
"C 	c #235DA5",
"D 	c #215EA8",
"E 	c #4980C5",
"F 	c #89B0E0",
"G 	c #B1CDEE",
"H 	c #BCD5F3",
"I 	c #BED7F4",
"J 	c #BFD7F4",
"K 	c #DFEAF2",
"L 	c #FFFDED",
"M 	c #FFFCE5",
"N 	c #FFFBD7",
"O 	c #FFFACE",
"P 	c #FFFACD",
"Q 	c #FFFACF",
"R 	c #FFFAD1",
"S 	c #E7EDDB",
"T 	c #BED6F4",
"U 	c #4980C4",
"V 	c #225DA7",
"W 	c #205DA9",
"X 	c #457EC4",
"Y 	c #80AADE",
"Z 	c #A6C6EC",
"` 	c #B1CDF1",
" .	c #B2CFF2",
"..	c #D8E6EF",
"+.	c #FFFDEA",
"@.	c #FFFCDF",
"#.	c #FFF9C3",
"$.	c #FFF8BF",
"%.	c #FFF8BB",
"&.	c #FFF8C1",
"*.	c #FFF9C4",
"=.	c #FFF9C6",
"-.	c #FEF9C7",
";.	c #E9EDD2",
">.	c #C2D7E9",
",.	c #B3CFF2",
"'.	c #B0CDF0",
").	c #80AADD",
"!.	c #457EC3",
"~.	c #215EA7",
"{.	c #407BC2",
"].	c #77A4DC",
"^.	c #9ABDE9",
"/.	c #A4C5EF",
"(.	c #A4C6F0",
"_.	c #A5C7F0",
":.	c #D2E2EC",
"<.	c #FFF8B8",
"[.	c #FFF7AF",
"}.	c #FFF49C",
"|.	c #FFF19C",
"1.	c #FDF3A1",
"2.	c #FFF6A7",
"3.	c #FFF7B3",
"4.	c #FFF8B6",
"5.	c #FFF8B9",
"6.	c #FFF8BC",
"7.	c #FFF8BA",
"8.	c #E4E9C7",
"9.	c #ACCAEB",
"0.	c #A3C4EE",
"a.	c #99BDE9",
"b.	c #77A4DB",
"c.	c #1D5BA8",
"d.	c #3C77C1",
"e.	c #6E9ED9",
"f.	c #8CB4E6",
"g.	c #95BCEC",
"h.	c #96BEED",
"i.	c #96BEEE",
"j.	c #CBDDE8",
"k.	c #FFFCE1",
"l.	c #FFFAD2",
"m.	c #FFF6AA",
"n.	c #FFF5A1",
"o.	c #FFF18C",
"p.	c #FFDC8C",
"q.	c #FFE097",
"r.	c #FCE7AB",
"s.	c #FFEF8C",
"t.	c #FFF495",
"u.	c #FFF6A3",
"v.	c #FFF6A8",
"w.	c #FFF6AB",
"x.	c #FFF6AD",
"y.	c #FAF4AE",
"z.	c #D7E1C5",
"A.	c #A6C6E4",
"B.	c #95BCEB",
"C.	c #6D9ED9",
"D.	c #3C77C0",
"E.	c #1E5BA6",
"F.	c #1C5AA7",
"G.	c #3774BF",
"H.	c #6497D7",
"I.	c #7DABE3",
"J.	c #87B3E9",
"K.	c #88B5EB",
"L.	c #C3D8E5",
"M.	c #FFF9CA",
"N.	c #FFF7AD",
"O.	c #FFF59C",
"P.	c #FFF491",
"Q.	c #FFEF7C",
"R.	c #FFD77B",
"S.	c #FFDC89",
"T.	c #FFF6CA",
"U.	c #FFF3B4",
"V.	c #FFEB8C",
"W.	c #FFED7B",
"X.	c #FFF280",
"Y.	c #FFF59A",
"Z.	c #FFF59D",
"`.	c #FFF5A2",
" +	c #E2E5AE",
".+	c #9BBFDE",
"++	c #86B2E9",
"@+	c #6397D6",
"#+	c #1D5BA6",
"$+	c #1A59A7",
"%+	c #3271BE",
"&+	c #5990D4",
"*+	c #70A2E0",
"=+	c #77A9E6",
"-+	c #BCD3E1",
";+	c #FFF9C2",
">+	c #FFF5A0",
",+	c #FFF38D",
"'+	c #FFEB6B",
")+	c #FFCF6B",
"!+	c #FFD57A",
"~+	c #FFF4C0",
"{+	c #FFF7B1",
"]+	c #FFF5A3",
"^+	c #FCEB85",
"/+	c #FCEB6E",
"(+	c #FFF071",
"_+	c #FFF285",
":+	c #FFF38B",
"<+	c #FFF390",
"[+	c #FFF393",
"}+	c #FCF290",
"|+	c #CAD6AF",
"1+	c #7BABE4",
"2+	c #578FD3",
"3+	c #3271BD",
"4+	c #1A59A5",
"5+	c #1857A6",
"6+	c #2E6EBD",
"7+	c #4E88D1",
"8+	c #6299DD",
"9+	c #B4CDDC",
"0+	c #FFF493",
"a+	c #FFF17C",
"b+	c #FFF06E",
"c+	c #FFE95A",
"d+	c #FFCA5A",
"e+	c #FFD06B",
"f+	c #FFF3B8",
"g+	c #FFF6A5",
"h+	c #FFF38F",
"i+	c #FFF492",
"j+	c #FFEA6E",
"k+	c #FFE85A",
"l+	c #FFEE5B",
"m+	c #FFF173",
"n+	c #FFF17B",
"o+	c #FFF27F",
"p+	c #FFF283",
"q+	c #D9DD97",
"r+	c #82ABC7",
"s+	c #4D88D0",
"t+	c #2E6EBC",
"u+	c #1958A4",
"v+	c #286ABB",
"w+	c #4381CE",
"x+	c #AAC5D4",
"y+	c #FFF6B1",
"z+	c #FFF286",
"A+	c #FFEF6D",
"B+	c #FFEE5D",
"C+	c #FFE64B",
"D+	c #FFC24A",
"E+	c #FFCA5C",
"F+	c #FFF2B0",
"G+	c #FFF49A",
"H+	c #FFF281",
"I+	c #FFF082",
"J+	c #FFE762",
"K+	c #FAE350",
"L+	c #FFED4D",
"M+	c #FFEF64",
"N+	c #FFEF6B",
"O+	c #FFF070",
"P+	c #FFF176",
"Q+	c #FFF06D",
"R+	c #C1CC8D",
"S+	c #4884CA",
"T+	c #286ABA",
"U+	c #1857A4",
"V+	c #1655A5",
"W+	c #2467B9",
"X+	c #9CBAC8",
"Y+	c #FFF078",
"Z+	c #FFED5C",
"`+	c #FFEC4A",
" @	c #FFE23A",
".@	c #FFBA3B",
"+@	c #FFC24F",
"@@	c #FFF0A8",
"#@	c #FFF177",
"$@	c #FFF06F",
"%@	c #FFF069",
"&@	c #FFF073",
"*@	c #FFF17A",
"=@	c #FBE454",
"-@	c #FFE33A",
";@	c #FFE93A",
">@	c #FFEC50",
",@	c #FFED5A",
"'@	c #FFEE5E",
")@	c #FFEE61",
"!@	c #F7E963",
"~@	c #BAC57B",
"{@	c #2467B8",
"]@	c #1655A3",
"^@	c #1555A4",
"/@	c #1F63B8",
"(@	c #FFF59E",
"_@	c #FFEC4C",
":@	c #FFEA38",
"<@	c #FFE02C",
"[@	c #FFB52C",
"}@	c #FFBE41",
"|@	c #FFEEA0",
"1@	c #FFF384",
"2@	c #FFF068",
"3@	c #FFEE5A",
"4@	c #FFEA33",
"5@	c #FFE52C",
"6@	c #FDE72F",
"7@	c #FFED4A",
"8@	c #FFEE5F",
"9@	c #FFEF65",
"0@	c #FFF06A",
"a@	c #FFEE65",
"b@	c #FFE142",
"c@	c #FEDF2E",
"d@	c #FFE82B",
"e@	c #FFEB42",
"f@	c #FFED51",
"g@	c #FFED56",
"h@	c #FFEC4B",
"i@	c #1F63B7",
"j@	c #1555A2",
"k@	c #1B61B7",
"l@	c #FFED5B",
"m@	c #FFEA3C",
"n@	c #FFE827",
"o@	c #FFDD1E",
"p@	c #FFAC1D",
"q@	c #FFB633",
"r@	c #FFEC99",
"s@	c #FFEC4D",
"t@	c #FFE51E",
"u@	c #FFBD1D",
"v@	c #FFBD26",
"w@	c #FBCE51",
"x@	c #FFE11E",
"y@	c #FFEA34",
"z@	c #FFEE5C",
"A@	c #F9DE3D",
"B@	c #FFDE1F",
"C@	c #FFE82C",
"D@	c #FFEB3E",
"E@	c #FFEB3D",
"F@	c #1B61B6",
"G@	c #1353A4",
"H@	c #195FB6",
"I@	c #FFEC4E",
"J@	c #FFE92D",
"K@	c #FFE717",
"L@	c #FFDB12",
"M@	c #FFA812",
"N@	c #FFB329",
"O@	c #FFEB91",
"P@	c #FFED4E",
"Q@	c #FFEB40",
"R@	c #FFE412",
"S@	c #FFB712",
"T@	c #FFBA1B",
"U@	c #FFE98F",
"V@	c #FFE774",
"W@	c #FFD927",
"X@	c #FFE012",
"Y@	c #FFE821",
"Z@	c #FFEB50",
"`@	c #FFDB26",
" #	c #FFD812",
".#	c #FFE212",
"+#	c #FFE81F",
"@#	c #FFE92A",
"##	c #FFE92C",
"$#	c #195FB5",
"%#	c #1454A2",
"&#	c #1253A3",
"*#	c #165DB5",
"=#	c #FFE61F",
"-#	c #FFE509",
";#	c #FFD708",
">#	c #FFA008",
",#	c #FFAC20",
"'#	c #FFEA8A",
")#	c #FFEF66",
"!#	c #FFEC42",
"~#	c #FFEA32",
"{#	c #FFE208",
"]#	c #FFB008",
"^#	c #FFB312",
"/#	c #FFE686",
"(#	c #FFEF62",
"_#	c #FFEC57",
":#	c #FADD2B",
"<#	c #FBDE0E",
"[#	c #FFE719",
"}#	c #FFEA35",
"|#	c #FFEC46",
"1#	c #FFEA46",
"2#	c #FDDA24",
"3#	c #F8D610",
"4#	c #FFE614",
"5#	c #FFE61C",
"6#	c #165DB4",
"7#	c #1253A1",
"8#	c #1152A3",
"9#	c #135BB4",
"0#	c #FFE400",
"a#	c #FFD600",
"b#	c #FF9D00",
"c#	c #FFA919",
"d#	c #FFE985",
"e#	c #FFEB38",
"f#	c #FFE926",
"g#	c #FFE100",
"h#	c #FFAD00",
"i#	c #FFB10A",
"j#	c #FFE57F",
"k#	c #FFDD17",
"l#	c #FFDD00",
"m#	c #FFE501",
"n#	c #FFE928",
"o#	c #FFEA3B",
"p#	c #FEDA16",
"q#	c #FFD700",
"r#	c #FFE000",
"s#	c #FFE504",
"t#	c #135BB3",
"u#	c #1152A1",
"v#	c #FFA918",
"w#	c #FFE883",
"x#	c #FFEE59",
"y#	c #FFE822",
"z#	c #FFDF00",
"A#	c #FFA900",
"B#	c #FFAD0A",
"C#	c #FFE47E",
"D#	c #FFF06C",
"E#	c #FFED4B",
"F#	c #FFEC45",
"G#	c #FFEC47",
"H#	c #FFED4F",
"I#	c #FFE945",
"J#	c #FFDC1B",
"K#	c #FBDB05",
"L#	c #FFE50B",
"M#	c #FFE828",
"N#	c #FFE92F",
"O#	c #FFEA37",
"P#	c #FFE735",
"Q#	c #FFD813",
"R#	c #FAD405",
"S#	c #FF9A02",
"T#	c #FFA71A",
"U#	c #FFE882",
"V#	c #FFED58",
"W#	c #FFE932",
"X#	c #FFE721",
"Y#	c #FFDF04",
"Z#	c #FFA604",
"`#	c #FFAA0E",
" $	c #FFE37E",
".$	c #FFEF6A",
"+$	c #FFEC48",
"@$	c #FFEA3E",
"#$	c #FFEA36",
"$$	c #FFEB43",
"%$	c #FFEB4B",
"&$	c #FBDD1E",
"*$	c #FFDD04",
"=$	c #FFE304",
"-$	c #FFE722",
";$	c #FFE935",
">$	c #F8D61B",
",$	c #FFD702",
"'$	c #155CB5",
")$	c #FFA81D",
"!$	c #FFE986",
"~$	c #FFEB3C",
"{$	c #FFE114",
"]$	c #FFAC14",
"^$	c #FFB01E",
"/$	c #FFE584",
"($	c #FFEF70",
"_$	c #FFE515",
":$	c #FFDF15",
"<$	c #FAE019",
"[$	c #FFEB44",
"}$	c #FFED52",
"|$	c #FFE94A",
"1$	c #FFDA25",
"2$	c #FFDC14",
"3$	c #FFE514",
"4$	c #FFE73A",
"5$	c #FFD516",
"6$	c #155CB4",
"7$	c #175EB5",
"8$	c #FFE884",
"9$	c #FFEE64",
"0$	c #FFE22E",
"a$	c #FFB22E",
"b$	c #FFB636",
"c$	c #FFE790",
"d$	c #FFEF5E",
"e$	c #FFED50",
"f$	c #FFE72F",
"g$	c #FFBF2F",
"h$	c #F5B937",
"i$	c #BAAB6F",
"j$	c #FFE22F",
"k$	c #FFEF5F",
"l$	c #FFEE62",
"m$	c #FAE044",
"n$	c #FFE12E",
"o$	c #FFE938",
"p$	c #175EB4",
"q$	c #FFE648",
"r$	c #FFBC49",
"s$	c #FFBF4F",
"t$	c #FFEA9D",
"u$	c #FFF389",
"v$	c #FFEF61",
"w$	c #FFE849",
"x$	c #FFC249",
"y$	c #F6BF51",
"z$	c #7FA1C1",
"A$	c #79A0C5",
"B$	c #D8C96D",
"C$	c #FFE549",
"D$	c #FFEC49",
"E$	c #FFEF63",
"F$	c #FFE252",
"G$	c #FFE349",
"H$	c #FFE948",
"I$	c #1A60B6",
"J$	c #FFE85B",
"K$	c #FFC261",
"L$	c #FFC668",
"M$	c #FFECA8",
"N$	c #FFF496",
"O$	c #FFF17E",
"P$	c #FFF072",
"Q$	c #FFEB62",
"R$	c #FFC862",
"S$	c #F8C669",
"T$	c #91AEC9",
"U$	c #70A6E8",
"V$	c #7EABDB",
"W$	c #C6CB97",
"X$	c #F9E768",
"Y$	c #FFF074",
"Z$	c #FFF180",
"`$	c #FFF07E",
" %	c #FEE66D",
".%	c #FCE666",
"+%	c #FFEC5A",
"@%	c #FFEC4F",
"#%	c #FFE934",
"$%	c #1A60B5",
"%%	c #FFE929",
"&%	c #FFE754",
"*%	c #FFC871",
"=%	c #FFCE7E",
"-%	c #FFEFB4",
";%	c #FFF48E",
">%	c #FFF284",
",%	c #FFEE7A",
"'%	c #FFD07A",
")%	c #F9CF81",
"!%	c #A2BAD2",
"~%	c #86B3EB",
"{%	c #87B4EB",
"]%	c #96BBDD",
"^%	c #E0DB97",
"/%	c #FFEC7A",
"(%	c #FFF07A",
"_%	c #FFF290",
":%	c #FEEB81",
"<%	c #FFE971",
"[%	c #FFEB54",
"}%	c #FFE92B",
"|%	c #1C61B6",
"1%	c #1253A2",
"2%	c #1E63B8",
"3%	c #FFE12D",
"4%	c #FFC363",
"5%	c #FFD389",
"6%	c #FFF1BF",
"7%	c #FFF59F",
"8%	c #FFF497",
"9%	c #FFF091",
"0%	c #FFD691",
"a%	c #FAD596",
"b%	c #B2C6D9",
"c%	c #9BC0EE",
"d%	c #ADC8DD",
"e%	c #D9DAB4",
"f%	c #FBED94",
"g%	c #FFF391",
"h%	c #FFF39E",
"i%	c #FFEB8A",
"j%	c #FEE765",
"k%	c #FFE62D",
"l%	c #1E63B7",
"m%	c #1252A0",
"n%	c #1352A0",
"o%	c #1E61B4",
"p%	c #FFAC30",
"q%	c #FFC66E",
"r%	c #FFF1BD",
"s%	c #FFF7B4",
"t%	c #FFF5A4",
"u%	c #FFF199",
"v%	c #FFD89A",
"w%	c #FAD79D",
"x%	c #B8C9DB",
"y%	c #A2C4EE",
"z%	c #A3C5EE",
"A%	c #A5C5EB",
"B%	c #E1E0B5",
"C%	c #FFF09A",
"D%	c #FFF39A",
"E%	c #FFF49B",
"F%	c #FBE672",
"G%	c #FFDF30",
"H%	c #1E61B3",
"I%	c #14529F",
"J%	c #11509B",
"K%	c #1B5EAE",
"L%	c #FFAD30",
"M%	c #FFEA9C",
"N%	c #FFF499",
"O%	c #FFF27E",
"P%	c #FFED7D",
"Q%	c #FFCD7E",
"R%	c #F9CC83",
"S%	c #A4B9CE",
"T%	c #89B3E6",
"U%	c #88B2E6",
"V%	c #A3BECE",
"W%	c #E1D997",
"X%	c #FFEA7E",
"Y%	c #FFF07D",
"Z%	c #FFF282",
"`%	c #FFED6A",
" &	c #FFDA2F",
".&	c #1B5DAD",
"+&	c #114F9A",
"@&	c #114C95",
"#&	c #1656A5",
"$&	c #2565B5",
"%&	c #3A78C4",
"&&	c #4883CC",
"*&	c #4C88D0",
"=&	c #4D88D1",
"-&	c #3A78C3",
";&	c #2464B4",
">&	c #114C94",
",&	c #0F478C",
"'&	c #124F9A",
")&	c #1C5DAE",
"!&	c #2062B4",
"~&	c #2165B7",
"{&	c #2165B8",
"]&	c #124E99",
"^&	c #1453A0",
"/&	c #1454A3",
"  . + @ # $ $ $ $ $ $ $ $ $ $ $ $ $ $ $ $ $ $ $ $ $ % & * + .   ",
". = - ; > , ' ' ' ' ' ' ' ' ' ' ' ' ' ' ' ' ' ' ' ' , > ; - ) ! ",
"~ { ] ^ / ( _ _ _ _ _ _ _ : < [ } | 1 2 _ _ _ _ _ _ ( / 3 4 - + ",
"5 6 7 8 9 0 0 0 0 0 a a b c d e f f g h i 0 0 0 a a a 9 j 7 k * ",
"l m n o p q q q q q q r s t u f f f v v w x q q q q q y z A B C ",
"D E F G H I I I J J K L M N O P O O Q R O S I I I I T H G F U V ",
"W X Y Z `  . . . ...+.@.P #.$.%.| &.#.*.=.-.;.>.,. . .'.Z ).!.~.",
"W {.].^./.(._._.:.M v #.<.[.}.|.1.2.3.4.5.6.7.8.9.(._.0.a.b.{.~.",
"c.d.e.f.g.h.i.j.k.l.<.m.n.o.p.q.r.s.t.u.v.w.x.y.z.A.h.B.f.C.D.E.",
"F.G.H.I.J.K.L.[ M.N.O.P.Q.R.S.T.U.V.W.X.t.Y.Z.u.`. +.+++I.@+G.#+",
"$+%+&+*+=+-+f ;+>+,+X.'+)+!+~+{+]+>+^+/+(+_+:+<+[+}+|+1+*+2+3+4+",
"5+6+7+8+9+R 7.0+a+b+c+d+e+f+g+P.h+i+<+j+k+l+m+n+o+p+p+q+r+s+t+u+",
"5+v+w+x+M.y+z+A+B+C+D+E+F+G+p+X.X.H+z+I+J+K+L+M+N+O+P+Q+R+S+T+U+",
"V+W+X+#.v.Y+Z+`+ @.@+@@@<+#@$@%@%@$@&@P+*@=@-@;@>@,@'@)@!@~@{@]@",
"^@/@%.(@N+_@:@<@[@}@|@1@2@3@4@5@6@7@8@9@0@a@b@c@d@e@`+f@g@h@i@j@",
"^@k@[+l@m@n@o@p@q@r@*@l+s@t@u@v@w@x@y@s@g@z@8@A@B@t@C@:@D@E@F@j@",
"G@H@I@J@K@L@M@N@O@O+P@Q@R@S@T@U@V@W@X@Y@e@`+f@Z@`@ #.#+#@###$#%#",
"&#*#=#-#;#>#,#'#)#!#~#{#]#^#/#*@(#_#:#<#[#}#E@|#1#2#3#{#4#5#6#7#",
"8#9#0#a#b#c#d#B+e#f#g#h#i#j#O+f@_@f@I@k#l#m#n#~#e#o#p#q#r#s#t#u#",
"8#9#a#b#v#w#x#y@y#z#A#B#C#D#E#F#|#G#H#I#J#K#L#M#N#O#P#Q#R#g#t#u#",
"8#9#S#T#U#V#W#X#Y#Z#`# $.$+$@$}##$@$$$+$%$&$*$=$-$C@W#;$>$,$t#u#",
"8#'$)$!$8@~$@#{$]$^$/$($H#Q@_$:$<$C@[$`+}$|$1$2$3$N#O#E@4$5$6$u#",
"&#7$8$9$`+m@0$a$b$c$a+d$e$f$g$h$i$j$e#e$x#k$l$m$n$f$D@[$[$o$p$7#",
"&#H@3@L+P@q$r$s$t$u$b+v$w$x$y$z$A$B$C$D$E$.$$@($F$G$H$e$D$O#$#7#",
"&#I$:@`+J$K$L$M$N$O$P$Q$R$S$T$U$U$V$W$X$l$Y$*@Z$`$ %.%+%@%#%$%7#",
"&#k@%%&%*%=%-%u.;%>%,%'%)%!%~%~%~%{%]%^%/%(%_+:+;%_%:%<%[%}%|%7#",
"1%2%3%4%5%6%{+7%8%9%0%a%b%c%c%c%c%c%c%d%e%f%g%G+Z.n.h%i%j%k%l%m%",
"n%o%p%q%r%s%t%O.u%v%w%x%y%y%y%y%y%y%y%z%A%B%C%D%Z.n.`.E%F%G%H%I%",
"J%K%L%M%N%u$O%P%Q%R%S%T%T%T%T%T%T%U%U%T%T%V%W%X%Y%Z%z+p+`% &.&+&",
"@&#&$&%&&&*&=&=&=&=&=&=&=&=&=&=&=&=&=&=&=&=&=&=&=&=&*&&&-&;&V+>&",
",&'&V+)&!&~&{&{&{&{&{&{&{&{&{&{&{&{&{&{&{&{&{&{&{&{&~&!&)&V+]&,&",
"  ,&>&J%^&/&/&/&/&/&/&/&/&/&/&/&/&/&/&/&/&/&/&/&/&/&%#I%+&>&,&  "};
