/* XPM */
static const char * xpm_experience_experienced[] = {
"32 32 587 2",
"  	c None",
". 	c #154B8F",
"+ 	c #1E569A",
"@ 	c #215BA2",
"# 	c #255FA7",
"$ 	c #2560AA",
"% 	c #2560A9",
"& 	c #255EA6",
"* 	c #215AA1",
"= 	c #245DA1",
"- 	c #3C71B4",
"; 	c #4B7EBE",
"> 	c #5084C4",
", 	c #5186C7",
"' 	c #5186C8",
") 	c #245CA0",
"! 	c #164C8F",
"~ 	c #1D559B",
"{ 	c #3C72B4",
"] 	c #709BCF",
"^ 	c #91B3DE",
"/ 	c #9BBBE3",
"( 	c #9BBDE5",
"_ 	c #9CBDE5",
": 	c #91B3DD",
"< 	c #709ACE",
"[ 	c #205BA2",
"} 	c #4A7FBF",
"| 	c #8BB0DC",
"1 	c #B6CEEC",
"2 	c #C2D7F1",
"3 	c #C5D9F2",
"4 	c #C4D9F2",
"5 	c #B5CEEC",
"6 	c #4A7EBE",
"7 	c #225DA6",
"8 	c #4B80C3",
"9 	c #8FB3E0",
"0 	c #B9D1EF",
"a 	c #C5DAF3",
"b 	c #C8DCF5",
"c 	c #C6DBF4",
"d 	c #BAD2EF",
"e 	c #8FB4E0",
"f 	c #4B80C2",
"g 	c #235DA5",
"h 	c #215EA8",
"i 	c #4980C5",
"j 	c #89B0E0",
"k 	c #B1CDEE",
"l 	c #BCD5F3",
"m 	c #BED7F4",
"n 	c #BFD7F4",
"o 	c #BED6F4",
"p 	c #4980C4",
"q 	c #225DA7",
"r 	c #205DA9",
"s 	c #457EC4",
"t 	c #80AADE",
"u 	c #A6C6EC",
"v 	c #B1CDF1",
"w 	c #B2CFF2",
"x 	c #BFD7EE",
"y 	c #B3CFF2",
"z 	c #B0CDF0",
"A 	c #80AADD",
"B 	c #457EC3",
"C 	c #215EA7",
"D 	c #407BC2",
"E 	c #77A4DC",
"F 	c #9ABDE9",
"G 	c #A4C5EF",
"H 	c #A4C6F0",
"I 	c #A5C7F0",
"J 	c #C9DCEE",
"K 	c #DBE6E3",
"L 	c #A3C4EE",
"M 	c #99BDE9",
"N 	c #77A4DB",
"O 	c #1D5BA8",
"P 	c #3C77C1",
"Q 	c #6E9ED9",
"R 	c #8CB4E6",
"S 	c #95BCEC",
"T 	c #96BEED",
"U 	c #96BEEE",
"V 	c #C0D6EC",
"W 	c #FFFDE7",
"X 	c #F8F6D5",
"Y 	c #D3DFD1",
"Z 	c #A4C5E7",
"` 	c #95BDEE",
" .	c #95BCEB",
"..	c #6D9ED9",
"+.	c #3C77C0",
"@.	c #1E5BA6",
"#.	c #1C5AA7",
"$.	c #3774BF",
"%.	c #6497D7",
"&.	c #7DABE3",
"*.	c #87B3E9",
"=.	c #88B5EB",
"-.	c #87B4EB",
";.	c #B7D0E8",
">.	c #FFFCE2",
",.	c #FFFBD6",
"'.	c #FFF8BF",
").	c #FFF7AF",
"!.	c #D6DFBF",
"~.	c #92BAE5",
"{.	c #86B2E9",
"].	c #6397D6",
"^.	c #1D5BA6",
"/.	c #1A59A7",
"(.	c #3271BE",
"_.	c #5990D4",
":.	c #70A2E0",
"<.	c #77A9E6",
"[.	c #78ABE8",
"}.	c #78ABE9",
"|.	c #AECBE5",
"1.	c #FFFCDD",
"2.	c #FFFACD",
"3.	c #FFF7B1",
"4.	c #FFF5A3",
"5.	c #FFF5A2",
"6.	c #F7F0A2",
"7.	c #C0D2C0",
"8.	c #7EAEE6",
"9.	c #78A9E6",
"0.	c #578FD3",
"a.	c #3271BD",
"b.	c #1A59A5",
"c.	c #1857A6",
"d.	c #2E6EBD",
"e.	c #4E88D1",
"f.	c #6299DD",
"g.	c #69A0E4",
"h.	c #6AA2E6",
"i.	c #6AA2E7",
"j.	c #69A1E6",
"k.	c #A4C5E2",
"l.	c #FFFBD8",
"m.	c #FFF9C7",
"n.	c #FFF6A5",
"o.	c #FFF491",
"p.	c #FFF38F",
"q.	c #FFF492",
"r.	c #FFF497",
"s.	c #FFF496",
"t.	c #CED9AC",
"u.	c #80AEDA",
"v.	c #689FE3",
"w.	c #4D88D0",
"x.	c #2E6EBC",
"y.	c #1958A4",
"z.	c #286ABB",
"A.	c #4381CE",
"B.	c #5490DA",
"C.	c #5996E1",
"D.	c #5A98E3",
"E.	c #5A98E4",
"F.	c #5B99E4",
"G.	c #9CBFDE",
"H.	c #FFFAD3",
"I.	c #FFF9C0",
"J.	c #FFF49A",
"K.	c #FFF283",
"L.	c #FFF280",
"M.	c #FFF281",
"N.	c #FFF286",
"O.	c #FFF289",
"P.	c #FFF282",
"Q.	c #B7CAAA",
"R.	c #5995E0",
"S.	c #4281CD",
"T.	c #286ABA",
"U.	c #1857A4",
"V.	c #1655A5",
"W.	c #2467B9",
"X.	c #397ACB",
"Y.	c #4788D8",
"Z.	c #4B8DDE",
"`.	c #4D90E1",
" +	c #4C8FE2",
".+	c #93BADC",
"++	c #FFFACF",
"@+	c #FFF8B9",
"#+	c #FFF390",
"$+	c #FFF177",
"%+	c #FFF06F",
"&+	c #FFF069",
"*+	c #FFF073",
"=+	c #FFF176",
"-+	c #FFF17A",
";+	c #F5EC7E",
">+	c #BACBA1",
",+	c #6A9FD0",
"'+	c #4D90E2",
")+	c #4C8FE1",
"!+	c #4889D7",
"~+	c #387ACA",
"{+	c #2467B8",
"]+	c #1655A3",
"^+	c #1555A4",
"/+	c #1F63B8",
"(+	c #3174C9",
"_+	c #3B80D5",
":+	c #3F85DC",
"<+	c #3F87DF",
"[+	c #3F87E0",
"}+	c #8BB5D9",
"|+	c #FFF9C9",
"1+	c #FFF8B2",
"2+	c #FFF384",
"3+	c #FFF068",
"4+	c #FFEE5A",
"5+	c #FFEA33",
"6+	c #FFE52C",
"7+	c #FDE72F",
"8+	c #FFED4A",
"9+	c #FFEE5F",
"0+	c #FFEF65",
"a+	c #FFF06A",
"b+	c #FFF172",
"c+	c #FFF06C",
"d+	c #B9CA8F",
"e+	c #4A8CD8",
"f+	c #3E85DB",
"g+	c #3B80D4",
"h+	c #3074C8",
"i+	c #1F63B7",
"j+	c #1555A2",
"k+	c #1B61B7",
"l+	c #286FC7",
"m+	c #3079D2",
"n+	c #317DDA",
"o+	c #327FDD",
"p+	c #83AFD5",
"q+	c #FFF9C5",
"r+	c #FFF6AB",
"s+	c #FFEE5B",
"t+	c #FFEC4D",
"u+	c #FFE51E",
"v+	c #FFBD1D",
"w+	c #FFBD26",
"x+	c #FBCE51",
"y+	c #FFE11E",
"z+	c #FFEA34",
"A+	c #FFED56",
"B+	c #FFEE5C",
"C+	c #F2E763",
"D+	c #A5BD93",
"E+	c #4388D3",
"F+	c #317EDC",
"G+	c #317CD9",
"H+	c #266EC6",
"I+	c #1B61B6",
"J+	c #1353A4",
"K+	c #195FB6",
"L+	c #216AC5",
"M+	c #2571D0",
"N+	c #2776D8",
"O+	c #2778DB",
"P+	c #7DABD2",
"Q+	c #FFF8C1",
"R+	c #FFF070",
"S+	c #FFED4E",
"T+	c #FFEB40",
"U+	c #FFE412",
"V+	c #FFB712",
"W+	c #FFBA1B",
"X+	c #FFE98F",
"Y+	c #FFE774",
"Z+	c #FFD927",
"`+	c #FFE012",
" @	c #FFE821",
".@	c #FFEB42",
"+@	c #FFEC4A",
"@@	c #FFED51",
"#@	c #B9C779",
"$@	c #4387C8",
"%@	c #2675D7",
"&@	c #2672CF",
"*@	c #206AC4",
"=@	c #195FB5",
"-@	c #1454A2",
";@	c #1253A3",
">@	c #165DB5",
",@	c #1A65C3",
"'@	c #1D6DCF",
")@	c #1E71D6",
"!@	c #77A8D0",
"~@	c #FFF8BC",
"{@	c #FFF59E",
"]@	c #FFEF66",
"^@	c #FFEC42",
"/@	c #FFEA32",
"(@	c #FFE208",
"_@	c #FFB008",
":@	c #FFB312",
"<@	c #FFE686",
"[@	c #FFEF62",
"}@	c #FFEC57",
"|@	c #FADD2B",
"1@	c #FBDE0E",
"2@	c #FFE719",
"3@	c #FFEA35",
"4@	c #FFEB3D",
"5@	c #FFEC46",
"6@	c #FFED4C",
"7@	c #FAE944",
"8@	c #98B483",
"9@	c #1D70D5",
"0@	c #1D6DCE",
"a@	c #1965C2",
"b@	c #165DB4",
"c@	c #1253A1",
"d@	c #1152A3",
"e@	c #135BB4",
"f@	c #1562C2",
"g@	c #1668CD",
"h@	c #73A3CC",
"i@	c #FFF8B8",
"j@	c #FFF599",
"k@	c #FFEE5D",
"l@	c #FFEB38",
"m@	c #FFE926",
"n@	c #FFE100",
"o@	c #FFAD00",
"p@	c #FFB10A",
"q@	c #FFE57F",
"r@	c #FFEC4C",
"s@	c #FFEC4E",
"t@	c #FFDD17",
"u@	c #FFDD00",
"v@	c #FFE501",
"w@	c #FFE928",
"x@	c #FFEB3F",
"y@	c #FBE93E",
"z@	c #AFBE6D",
"A@	c #3B7DB4",
"B@	c #1563C0",
"C@	c #135BB3",
"D@	c #1152A1",
"E@	c #72A1C7",
"F@	c #FFF7B7",
"G@	c #FFEE59",
"H@	c #FFE822",
"I@	c #FFDF00",
"J@	c #FFA900",
"K@	c #FFAD0A",
"L@	c #FFE47E",
"M@	c #FFED4B",
"N@	c #FFEC45",
"O@	c #FFEC47",
"P@	c #FFED4F",
"Q@	c #FFE945",
"R@	c #FFDC1B",
"S@	c #FBDB05",
"T@	c #FFE50B",
"U@	c #FFE828",
"V@	c #FFE92F",
"W@	c #FFEA37",
"X@	c #FFEB3E",
"Y@	c #FFE932",
"Z@	c #A2B56A",
"`@	c #1462C1",
" #	c #739EC0",
".#	c #FFF7B6",
"+#	c #FFED58",
"@#	c #FFE721",
"##	c #FFDF04",
"$#	c #FFA604",
"%#	c #FFAA0E",
"&#	c #FFE37E",
"*#	c #FFEF6A",
"=#	c #FFEC48",
"-#	c #FFEA3E",
";#	c #FFEA36",
">#	c #FFEB43",
",#	c #FFEB4B",
"'#	c #FBDD1E",
")#	c #FFDD04",
"!#	c #FFE304",
"~#	c #FFE722",
"{#	c #FFE82C",
"]#	c #FFE935",
"^#	c #EEDF3D",
"/#	c #9AAF71",
"(#	c #155CB5",
"_#	c #FFF7B5",
":#	c #FFF598",
"<#	c #FFEB3C",
"[#	c #FFE92A",
"}#	c #FFE114",
"|#	c #FFAC14",
"1#	c #FFB01E",
"2#	c #FFE584",
"3#	c #FFEF70",
"4#	c #FFE515",
"5#	c #FFDF15",
"6#	c #FAE019",
"7#	c #FFEB44",
"8#	c #FFED52",
"9#	c #FFE94A",
"0#	c #FFDA25",
"a#	c #FFDC14",
"b#	c #FFE514",
"c#	c #FFEA38",
"d#	c #155CB4",
"e#	c #175EB5",
"f#	c #FFEE64",
"g#	c #FFEA3C",
"h#	c #FFE22E",
"i#	c #FFB22E",
"j#	c #FFB636",
"k#	c #FFE790",
"l#	c #FFF17C",
"m#	c #FFEF5E",
"n#	c #FFED50",
"o#	c #FFE72F",
"p#	c #FFBF2F",
"q#	c #F5B937",
"r#	c #BAAB6F",
"s#	c #FFE22F",
"t#	c #FFEF5F",
"u#	c #FFEE62",
"v#	c #FAE044",
"w#	c #FFE12E",
"x#	c #FFEA3A",
"y#	c #175EB4",
"z#	c #FFED4D",
"A#	c #FFE648",
"B#	c #FFBC49",
"C#	c #FFBF4F",
"D#	c #FFEA9D",
"E#	c #FFF389",
"F#	c #FFF06E",
"G#	c #FFEF61",
"H#	c #FFE849",
"I#	c #FFC249",
"J#	c #F6BF51",
"K#	c #7FA1C1",
"L#	c #79A0C5",
"M#	c #D8C96D",
"N#	c #FFE549",
"O#	c #FFEC49",
"P#	c #FFEF63",
"Q#	c #FFE252",
"R#	c #FFE349",
"S#	c #FFE948",
"T#	c #1A60B6",
"U#	c #FFE85B",
"V#	c #FFC261",
"W#	c #FFC668",
"X#	c #FFECA8",
"Y#	c #FFF17E",
"Z#	c #FFF072",
"`#	c #FFEB62",
" $	c #FFC862",
".$	c #F8C669",
"+$	c #91AEC9",
"@$	c #70A6E8",
"#$	c #7EABDB",
"$$	c #C6CB97",
"%$	c #F9E768",
"&$	c #FFF074",
"*$	c #FFF180",
"=$	c #FFF07E",
"-$	c #FEE66D",
";$	c #FCE666",
">$	c #FFEC5A",
",$	c #FFEC4F",
"'$	c #FFE934",
")$	c #1A60B5",
"!$	c #FFE929",
"~$	c #FFE754",
"{$	c #FFC871",
"]$	c #FFCE7E",
"^$	c #FFEFB4",
"/$	c #FFF6A3",
"($	c #FFF48E",
"_$	c #FFF284",
":$	c #FFEE7A",
"<$	c #FFD07A",
"[$	c #F9CF81",
"}$	c #A2BAD2",
"|$	c #86B3EB",
"1$	c #96BBDD",
"2$	c #E0DB97",
"3$	c #FFEC7A",
"4$	c #FFF07A",
"5$	c #FFF285",
"6$	c #FFF38B",
"7$	c #FFF290",
"8$	c #FEEB81",
"9$	c #FFE971",
"0$	c #FFEB54",
"a$	c #FFE92B",
"b$	c #1C61B6",
"c$	c #1253A2",
"d$	c #1E63B8",
"e$	c #FFE12D",
"f$	c #FFC363",
"g$	c #FFD389",
"h$	c #FFF1BF",
"i$	c #FFF59F",
"j$	c #FFF091",
"k$	c #FFD691",
"l$	c #FAD596",
"m$	c #B2C6D9",
"n$	c #9BC0EE",
"o$	c #ADC8DD",
"p$	c #D9DAB4",
"q$	c #FBED94",
"r$	c #FFF391",
"s$	c #FFF59D",
"t$	c #FFF5A1",
"u$	c #FFF39E",
"v$	c #FFEB8A",
"w$	c #FEE765",
"x$	c #FFE62D",
"y$	c #1E63B7",
"z$	c #1252A0",
"A$	c #1352A0",
"B$	c #1E61B4",
"C$	c #FFAC30",
"D$	c #FFC66E",
"E$	c #FFF1BD",
"F$	c #FFF7B4",
"G$	c #FFF5A4",
"H$	c #FFF59C",
"I$	c #FFF199",
"J$	c #FFD89A",
"K$	c #FAD79D",
"L$	c #B8C9DB",
"M$	c #A2C4EE",
"N$	c #A3C5EE",
"O$	c #A5C5EB",
"P$	c #E1E0B5",
"Q$	c #FFF09A",
"R$	c #FFF39A",
"S$	c #FFF49B",
"T$	c #FBE672",
"U$	c #FFDF30",
"V$	c #1E61B3",
"W$	c #14529F",
"X$	c #11509B",
"Y$	c #1B5EAE",
"Z$	c #FFAD30",
"`$	c #FFEA9C",
" %	c #FFF499",
".%	c #FFF27E",
"+%	c #FFED7D",
"@%	c #FFCD7E",
"#%	c #F9CC83",
"$%	c #A4B9CE",
"%%	c #89B3E6",
"&%	c #88B2E6",
"*%	c #A3BECE",
"=%	c #E1D997",
"-%	c #FFEA7E",
";%	c #FFF07D",
">%	c #FFED6A",
",%	c #FFDA2F",
"'%	c #1B5DAD",
")%	c #114F9A",
"!%	c #114C95",
"~%	c #1656A5",
"{%	c #2565B5",
"]%	c #3A78C4",
"^%	c #4883CC",
"/%	c #4C88D0",
"(%	c #4D88D1",
"_%	c #3A78C3",
":%	c #2464B4",
"<%	c #114C94",
"[%	c #0F478C",
"}%	c #124F9A",
"|%	c #1C5DAE",
"1%	c #2062B4",
"2%	c #2165B7",
"3%	c #2165B8",
"4%	c #124E99",
"5%	c #1453A0",
"6%	c #1454A3",
"  . + @ # $ $ $ $ $ $ $ $ $ $ $ $ $ $ $ $ $ $ $ $ $ % & * + .   ",
". = - ; > , ' ' ' ' ' ' ' ' ' ' ' ' ' ' ' ' ' ' ' ' , > ; - ) ! ",
"~ { ] ^ / ( _ _ _ _ _ _ _ _ _ _ _ _ _ _ _ _ _ _ _ _ ( / : < - + ",
"[ } | 1 2 3 3 3 3 3 4 4 3 4 4 3 3 3 3 3 4 3 3 3 4 4 4 2 5 | 6 * ",
"7 8 9 0 a b b b b b b b b b b b b b b b b b b b b b b c d e f g ",
"h i j k l m m m n n m m n n m m n n m m m m m m m m o l k j p q ",
"r s t u v w w w w w w w w w w w x y y w w y w w w w w z u A B C ",
"r D E F G H I I I H H H I I I J K H H I I I I I H H I L M N D C ",
"O P Q R S T U U U U U U U U V W X Y Z U ` U U ` U U T  .R ..+.@.",
"#.$.%.&.*.=.-.-.-.=.-.-.=.;.>.,.'.).!.~.-.-.-.-.-.-.=.{.&.].$.^.",
"/.(._.:.<.[.}.}.}.}.}.}.|.1.2.3.4.5.6.7.8.}.}.}.}.}.[.9.:.0.a.b.",
"c.d.e.f.g.h.i.i.j.j.j.k.l.m.n.o.p.q.r.s.t.u.j.i.i.j.j.v.f.w.x.y.",
"c.z.A.B.C.D.E.E.F.F.G.H.I.J.K.L.L.M.N.O.P.Q.E.E.E.E.D.R.B.S.T.U.",
"V.W.X.Y.Z.`. + + +.+++@+#+$+%+&+&+%+*+=+-+;+>+,+ +'+)+Z.!+~+{+]+",
"^+/+(+_+:+<+[+[+}+|+1+2+3+4+5+6+7+8+9+0+a+b+c+d+e+[+<+f+g+h+i+j+",
"^+k+l+m+n+o+o+p+q+r+-+s+t+u+v+w+x+y+z+t+A+B+9+C+D+E+F+G+m+H+I+j+",
"J+K+L+M+N+O+P+Q+n.R+S+T+U+V+W+X+Y+Z+`+ @.@+@@@4+A+#@$@%@&@*@=@-@",
";@>@,@'@)@!@~@{@]@^@/@(@_@:@<@-+[@}@|@1@2@3@4@5@6@7@8@9@0@a@b@c@",
"d@e@f@g@h@i@j@k@l@m@n@o@p@q@R+@@r@@@s@t@u@v@w@/@l@x@y@z@A@B@C@D@",
"d@e@f@E@F@r.G@z+H@I@J@K@L@c+M@N@5@O@P@Q@R@S@T@U@V@W@X@Y@Z@`@C@D@",
"d@e@ #.#s.+#Y@@###$#%#&#*#=#-#3@;#-#>#=#,#'#)#!#~#{#Y@]#^#/#C@D@",
"d@(#_#:#9+<#[#}#|#1#2#3#P@T+4#5#6#{#7#+@8#9#0#a#b#V@W@4@>#c#d#D@",
";@e#s.f#+@g#h#i#j#k#l#m#n#o#p#q#r#s#l@n#G@t#u#v#w#o#X@7#7#x#y#c@",
";@K+4+z#S+A#B#C#D#E#F#G#H#I#J#K#L#M#N#O#P#*#%+3#Q#R#S#n#O#W@=@c@",
";@T#c#+@U#V#W#X#s.Y#Z#`# $.$+$@$@$#$$$%$u#&$-+*$=$-$;$>$,$'$)$c@",
";@k+!$~${$]$^$/$($_$:$<$[$}$|$|$|$-.1$2$3$4$5$6$($7$8$9$0$a$b$c@",
"c$d$e$f$g$h$3.i$r.j$k$l$m$n$n$n$n$n$n$o$p$q$r$J.s$t$u$v$w$x$y$z$",
"A$B$C$D$E$F$G$H$I$J$K$L$M$M$M$M$M$M$M$N$O$P$Q$R$s$t$5.S$T$U$V$W$",
"X$Y$Z$`$ %E#.%+%@%#%$%%%%%%%%%%%%%&%&%%%%%*%=%-%;%P.N.K.>%,%'%)%",
"!%~%{%]%^%/%(%(%(%(%(%(%(%(%(%(%(%(%(%(%(%(%(%(%(%(%/%^%_%:%V.<%",
"[%}%V.|%1%2%3%3%3%3%3%3%3%3%3%3%3%3%3%3%3%3%3%3%3%3%2%1%|%V.4%[%",
"  [%<%X$5%6%6%6%6%6%6%6%6%6%6%6%6%6%6%6%6%6%6%6%6%6%-@W$)%<%[%  "};
