/* XPM */
static const char * xpm_gas[] = {
"64 64 449 2",
"  	c None",
". 	c #45734A",
"+ 	c #878083",
"@ 	c #406443",
"# 	c #456B49",
"$ 	c #655D60",
"% 	c #635D5E",
"& 	c #514F4D",
"* 	c #546D55",
"= 	c #475C47",
"- 	c #435944",
"; 	c #405540",
"> 	c #465C47",
", 	c #415641",
"' 	c #455A46",
") 	c #3D533E",
"! 	c #445A45",
"~ 	c #445944",
"{ 	c #495F4A",
"] 	c #485D48",
"^ 	c #535B51",
"/ 	c #6E6568",
"( 	c #506651",
"_ 	c #45744A",
": 	c #456848",
"< 	c #665E62",
"[ 	c #5C615A",
"} 	c #3F6843",
"| 	c #45764A",
"1 	c #447349",
"2 	c #437749",
"3 	c #746E71",
"4 	c #979596",
"5 	c #485C48",
"6 	c #476C4A",
"7 	c #686063",
"8 	c #918B8D",
"9 	c #417547",
"0 	c #44754A",
"a 	c #406543",
"b 	c #7C7676",
"c 	c #435241",
"d 	c #45784B",
"e 	c #456447",
"f 	c #686263",
"g 	c #486D4B",
"h 	c #45754A",
"i 	c #405941",
"j 	c #7E7576",
"k 	c #4A6F4D",
"l 	c #696164",
"m 	c #515750",
"n 	c #437549",
"o 	c #447649",
"p 	c #437548",
"q 	c #45774B",
"r 	c #456E49",
"s 	c #65595E",
"t 	c #696265",
"u 	c #686665",
"v 	c #447749",
"w 	c #425843",
"x 	c #565653",
"y 	c #6C6769",
"z 	c #5C5657",
"A 	c #6F696A",
"B 	c #615A5C",
"C 	c #666062",
"D 	c #635E5F",
"E 	c #625D5E",
"F 	c #5C5658",
"G 	c #5F5A5C",
"H 	c #5D5859",
"I 	c #5B5557",
"J 	c #5D5758",
"K 	c #4D4548",
"L 	c #4E7251",
"M 	c #416845",
"N 	c #44764A",
"O 	c #457349",
"P 	c #425442",
"Q 	c #6B6867",
"R 	c #427648",
"S 	c #766F72",
"T 	c #45774A",
"U 	c #414B3F",
"V 	c #696364",
"W 	c #437649",
"X 	c #455946",
"Y 	c #48654A",
"Z 	c #406A44",
"` 	c #46784B",
" .	c #475947",
"..	c #676063",
"+.	c #455244",
"@.	c #447549",
"#.	c #786E75",
"$.	c #80797C",
"%.	c #3B483A",
"&.	c #4D564A",
"*.	c #564F51",
"=.	c #44774A",
"-.	c #556455",
";.	c #4E564B",
">.	c #436A47",
",.	c #465546",
"'.	c #446747",
").	c #9B9696",
"!.	c #475B47",
"~.	c #4A6E4D",
"{.	c #4C4747",
"].	c #4D544A",
"^.	c #605A5C",
"/.	c #4C3F45",
"(.	c #45794B",
"_.	c #45764B",
":.	c #585754",
"<.	c #475446",
"[.	c #44784A",
"}.	c #3E583F",
"|.	c #455944",
"1.	c #4B604C",
"2.	c #495E49",
"3.	c #4A5F4A",
"4.	c #4E634F",
"5.	c #4E644F",
"6.	c #556A56",
"7.	c #506652",
"8.	c #556B57",
"9.	c #536854",
"0.	c #596F5A",
"a.	c #546955",
"b.	c #436F47",
"c.	c #5C635A",
"d.	c #4E594D",
"e.	c #6B7168",
"f.	c #4B5649",
"g.	c #516D53",
"h.	c #4C564A",
"i.	c #3D573E",
"j.	c #878585",
"k.	c #4D584B",
"l.	c #427447",
"m.	c #51584F",
"n.	c #4D654E",
"o.	c #566D57",
"p.	c #B0ADAD",
"q.	c #888284",
"r.	c #466C4A",
"s.	c #3F6E44",
"t.	c #999395",
"u.	c #4F574C",
"v.	c #817A7D",
"w.	c #FFFFFF",
"x.	c #B3B0B0",
"y.	c #3C6740",
"z.	c #757E75",
"A.	c #857E80",
"B.	c #4B704E",
"C.	c #6B6365",
"D.	c #4E694F",
"E.	c #4C634D",
"F.	c #E5E6E4",
"G.	c #FFFFFD",
"H.	c #FEFEFE",
"I.	c #ADABAC",
"J.	c #456B48",
"K.	c #ADA8A9",
"L.	c #FDFDFC",
"M.	c #697968",
"N.	c #443E3F",
"O.	c #536853",
"P.	c #696767",
"Q.	c #F0F0EE",
"R.	c #FEFEFD",
"S.	c #A9A7A7",
"T.	c #456A48",
"U.	c #436845",
"V.	c #B5B0B0",
"W.	c #FEFFFD",
"X.	c #E3E4E2",
"Y.	c #4F6450",
"Z.	c #3E3638",
"`.	c #4D684F",
" +	c #406743",
".+	c #6A6868",
"++	c #F1F2F0",
"@+	c #FFFFFE",
"#+	c #FEFFFE",
"$+	c #A7A5A5",
"%+	c #446A46",
"&+	c #B8B4B3",
"*+	c #EDEDEB",
"=+	c #60675D",
"-+	c #43423F",
";+	c #546A54",
">+	c #3F6642",
",+	c #6E6C6C",
"'+	c #F0F1EF",
")+	c #FDFEFD",
"!+	c #A6A3A4",
"~+	c #446A47",
"{+	c #466C49",
"]+	c #BAB6B6",
"^+	c #E8E9E6",
"/+	c #5E655C",
"(+	c #676064",
"_+	c #4E684F",
":+	c #6F6A6D",
"<+	c #F3F4F2",
"[+	c #A29F9F",
"}+	c #436947",
"|+	c #426343",
"1+	c #BDB9BA",
"2+	c #E7E7E6",
"3+	c #5F655C",
"4+	c #4F6E52",
"5+	c #556D56",
"6+	c #716C6F",
"7+	c #F4F5F3",
"8+	c #FDFDFD",
"9+	c #A09D9E",
"0+	c #456847",
"a+	c #C2BEBD",
"b+	c #E6E7E4",
"c+	c #5A6058",
"d+	c #70696C",
"e+	c #4F6850",
"f+	c #3F6543",
"g+	c #757072",
"h+	c #FBFCFB",
"i+	c #9E9B9C",
"j+	c #426946",
"k+	c #476A49",
"l+	c #C3BFBE",
"m+	c #E2E3E1",
"n+	c #595F57",
"o+	c #596458",
"p+	c #546C55",
"q+	c #3F6542",
"r+	c #777274",
"s+	c #F6F7F5",
"t+	c #FCFCFC",
"u+	c #979394",
"v+	c #426845",
"w+	c #3D4D3C",
"x+	c #C7C4C3",
"y+	c #E2E2E0",
"z+	c #585F56",
"A+	c #6C6468",
"B+	c #406644",
"C+	c #797477",
"D+	c #F6F7F6",
"E+	c #999596",
"F+	c #436946",
"G+	c #4A5348",
"H+	c #CACAC7",
"I+	c #E0E1DE",
"J+	c #545B51",
"K+	c #566556",
"L+	c #7D787A",
"M+	c #F7F8F7",
"N+	c #FAFBFA",
"O+	c #959293",
"P+	c #4B5449",
"Q+	c #D5D5D3",
"R+	c #DDDDDA",
"S+	c #545A52",
"T+	c #406643",
"U+	c #7F7B7C",
"V+	c #F9FAF7",
"W+	c #FAFAF9",
"X+	c #E6E6E4",
"Y+	c #DCDCDA",
"Z+	c #535950",
"`+	c #5D5B5A",
" @	c #556C56",
".@	c #416744",
"+@	c #7F7A7C",
"@@	c #FEFFFC",
"#@	c #FEFEFB",
"$@	c #D6D6D4",
"%@	c #4E544B",
"&@	c #626C61",
"*@	c #4E674F",
"=@	c #525C51",
"-@	c #E8E8E6",
";@	c #FDFFFB",
">@	c #A4A2A1",
",@	c #3D6541",
"'@	c #615C5D",
")@	c #576D57",
"!@	c #484D45",
"~@	c #E1E2E0",
"{@	c #FFFFFC",
"]@	c #F8F8F7",
"^@	c #888485",
"/@	c #416644",
"(@	c #6C6669",
"_@	c #484D43",
":@	c #DADAD8",
"<@	c #D2D2D0",
"[@	c #9D9A9B",
"}@	c #F9FAF8",
"|@	c #FEFEFC",
"1@	c #F9F9F9",
"2@	c #898686",
"3@	c #635D60",
"4@	c #576E58",
"5@	c #DBDAD8",
"6@	c #CFD0CE",
"7@	c #4A5047",
"8@	c #8C888B",
"9@	c #FCFCFB",
"0@	c #F7F7F6",
"a@	c #858283",
"b@	c #655F62",
"c@	c #4C644D",
"d@	c #494E43",
"e@	c #E0E0DE",
"f@	c #CECECC",
"g@	c #494F46",
"h@	c #8F8B8D",
"i@	c #FDFDFB",
"j@	c #F9F9F8",
"k@	c #817E7E",
"l@	c #696365",
"m@	c #4D5349",
"n@	c #CBCCCA",
"o@	c #464C43",
"p@	c #928E90",
"q@	c #FCFDFB",
"r@	c #817D7E",
"s@	c #6B6668",
"t@	c #4D644E",
"u@	c #4D5249",
"v@	c #E1E2DF",
"w@	c #C8C8C6",
"x@	c #474D43",
"y@	c #426846",
"z@	c #959193",
"A@	c #FDFEFC",
"B@	c #F5F6F4",
"C@	c #7D7979",
"D@	c #3F6541",
"E@	c #60595B",
"F@	c #4E544A",
"G@	c #E7E7E4",
"H@	c #C7C7C5",
"I@	c #444A41",
"J@	c #989496",
"K@	c #FDFFFC",
"L@	c #FFFEFD",
"M@	c #7A7677",
"N@	c #655E61",
"O@	c #54594F",
"P@	c #C4C4C1",
"Q@	c #42483E",
"R@	c #9B9799",
"S@	c #F3F5F2",
"T@	c #797475",
"U@	c #3F6442",
"V@	c #4D4549",
"W@	c #546A55",
"X@	c #53574E",
"Y@	c #C1C1BF",
"Z@	c #42483F",
"`@	c #9D9A9C",
" #	c #747172",
".#	c #3F6742",
"+#	c #756E72",
"@#	c #506751",
"##	c #437047",
"$#	c #4F604D",
"%#	c #EEEEEC",
"&#	c #BFBEBC",
"*#	c #414D3F",
"=#	c #A09C9E",
"-#	c #727170",
";#	c #645D60",
">#	c #3F6342",
",#	c #CCC9C9",
"'#	c #BCBAB9",
")#	c #425441",
"!#	c #A39FA1",
"~#	c #E6E8E5",
"{#	c #516952",
"]#	c #756F71",
"^#	c #435F45",
"/#	c #405441",
"(#	c #CDCDCB",
"_#	c #B6B4B4",
":#	c #415241",
"<#	c #446A48",
"[#	c #A5A2A3",
"}#	c #756F72",
"|#	c #6F696C",
"1#	c #6F686B",
"2#	c #4D604C",
"3#	c #5C725D",
"4#	c #436646",
"5#	c #3F6341",
"6#	c #757E74",
"7#	c #989293",
"8#	c #4B624C",
"9#	c #706A6C",
"0#	c #3C5E3F",
"a#	c #5C5458",
"b#	c #485947",
"c#	c #406943",
"d#	c #6C696A",
"e#	c #405440",
"f#	c #496F4D",
"g#	c #5B5F58",
"h#	c #437648",
"i#	c #64595F",
"j#	c #6C7369",
"k#	c #595255",
"l#	c #465544",
"m#	c #45784A",
"n#	c #4D634E",
"o#	c #696064",
"p#	c #416443",
"q#	c #4B604B",
"r#	c #3C593E",
"s#	c #456C49",
"t#	c #564E52",
"u#	c #6E736C",
"v#	c #5C5857",
"w#	c #4D694E",
"x#	c #516552",
"y#	c #4E6950",
"z#	c #516951",
"A#	c #4D674F",
"B#	c #526952",
"C#	c #4F6650",
"D#	c #4E664F",
"E#	c #4E654F",
"F#	c #4B624B",
"G#	c #4C624D",
"H#	c #4A614B",
"I#	c #4D634D",
"J#	c #485E48",
"K#	c #4C624C",
"L#	c #475D47",
"M#	c #5F715F",
"N#	c #6A7369",
"O#	c #4E4549",
"P#	c #828080",
"                                                                                                                                ",
"                                                                                                                                ",
"                                                                                                                                ",
"                                                                                                                                ",
"                                                                                                                                ",
"                                                                                                                                ",
"                                                                                            . +                                 ",
"                                                                                            @ # $                               ",
"                                    % & * = - ; > , ' ) ' ; ! , ~ { ] ^ /                   ( _ : <                             ",
"                                  [ } | 1 _ _ _ _ _ _ _ _ _ _ _ _ _ _ | 2 { 3             4 5 _ . 6 7                           ",
"                              8 9 0 1 _ _ _ _ _ _ _ _ _ _ _ _ _ _ _ _ _ _ . a 1         b c d _ _ . e f                         ",
"                              g . _ _ _ _ _ _ _ _ _ _ _ _ _ _ _ _ _ _ _ _ _ _ h i     j k _ _ _ _ _ | , l                       ",
"                            m 0 _ _ _ 1 | n o p o n o o o o o o o o q 1 _ _ _ _ h r s k . _ _ _ _ _ _ _ g t                     ",
"                          u v _ _ _ h w x y z A B C % D E F G H I J K L M 1 _ _ _ _ N O _ _ _ _ _ _ _ _ _ P Q                   ",
"                          , 1 _ _ _ R S                                 J T _ _ _ _ _ _ _ _ _ _ _ _ _ _ _ d U V                 ",
"                          W _ _ _ _ X                                     Y _ _ _ _ _ _ _ _ _ _ _ _ _ O Z W `  .                ",
"                        ..n _ _ _ 1 L                                     +.h _ _ _ _ _ _ _ _ _ _ _ _ @.#.$.%.&.                ",
"                        *.=._ _ _ _ -.                                    ;.0 _ _ _ _ _ _ _ _ _ _ . >.                          ",
"                        ,.h _ _ _ _ '.).                                  !._ _ _ _ _ _ _ _ _ _ 1 ~.                            ",
"                        {.q _ _ _ _ 0 ].^.                              /.(._ _ _ _ _ _ _ _ _ _ _.:.                            ",
"                        <.h _ _ _ _ _ h [.}.|.! 1.2.3.4.5.6.7.8.9.0.a.b.=.1 _ _ _ _ _ _ _ _ _ _ 0 c.                            ",
"                        d.h _ _ _ _ _ _ _ _ _ _ _ _ _ _ _ _ _ _ _ _ _ _ _ _ _ _ _ _ _ _ _ _ _ _ _ p e.                          ",
"                        f.h _ _ _ _ _ _ _ _ _ _ _ _ _ _ _ _ _ _ _ _ _ _ _ _ _ _ _ _ _ _ _ _ _ _ _ _ p g.                        ",
"                        h.h _ _ _ _ _ _ _ _ _ _ _ _ _ _ _ _ _ _ _ _ _ _ _ _ _ _ _ _ _ _ _ _ _ _ _ _ _ i.j.                      ",
"                        k.h _ _ _ _ _ 0 l.n O _ _ _ _ _ _ _ _ _ _ _ _ _ _ _ _ _ _ _ _ _ _ _ _ _ _ _ _ q m.                      ",
"                        n._ _ _ _ _ 1 o.p.q.r.. _ _ _ _ _ _ _ _ _ _ _ _ _ _ _ _ _ _ _ _ @.=.1 _ _ _ _ _ s.t.                    ",
"                        u.| _ _ _ _ =.v.w.w.x.# . _ _ _ _ _ _ _ _ _ _ _ _ _ _ _ _ _ . y.z.A.B.1 _ _ _ _ n C.                    ",
"                        D.1 _ _ _ _ . E.F.G.H.I.# . _ _ _ _ _ _ _ _ _ _ _ _ _ _ _ . J.K.w.L.M._ _ _ _ _ T N.                    ",
"                        O._ _ _ _ _ _ =.P.Q.G.R.S.T.. _ _ _ _ _ _ _ _ _ _ _ _ _ . U.V.w.W.X.Y._ _ _ _ _ q Z.                    ",
"                        `.1 _ _ _ _ _ 1  +.+++@+#+$+J.. _ _ _ _ _ _ _ _ _ _ _ . %+&+w.@+*+=+o _ _ _ _ _ T -+                    ",
"                        ;+_ _ _ _ _ _ _ 1 >+,+'+G.)+!+~+. _ _ _ _ _ _ _ _ _ . {+]+w.@+^+/+W _ _ _ _ _ _ q (+                    ",
"                        _+_ _ _ _ _ _ _ _ 1 } :+<+G.)+[+}+. _ _ _ _ _ _ _ _ |+1+w.G.2+3+W _ _ _ _ _ _ _ _ 4+                    ",
"                        5+_ _ _ _ _ _ _ _ _ 1 a 6+7+G.8+9+~+. _ _ _ _ _ . 0+a+w.@+b+c+o _ _ _ _ _ _ _ _ q d+                    ",
"                        e+_ _ _ _ _ _ _ _ _ _ 1 f+g+7+G.h+i+j+. _ _ _ h k+l+w.w.m+n+o _ _ _ _ _ _ _ _ _ | o+                    ",
"                        p+_ _ _ _ _ _ _ _ _ _ _ 1 q+r+s+G.t+u+v+. _ q w+x+w.#+y+z+N _ _ _ _ _ _ _ _ _ _ q A+                    ",
"                        e+_ _ _ _ _ _ _ _ _ _ _ _ 1 B+C+D+R.L.E+F+q G+H+w.w.I+J+N _ _ _ _ _ _ _ _ _ _ _ h K+                    ",
"                        p+_ _ _ _ _ _ _ _ _ _ _ _ _ 1 a L+M+G.N+O+P+Q+w.w.R+S+N _ _ _ _ _ _ _ _ _ _ _ _ T d+                    ",
"                        e+_ _ _ _ _ _ _ _ _ _ _ _ _ _ 1 T+U+V+G.W+X+@+G.Y+Z+=._ _ _ _ _ _ _ _ _ _ _ _ _ q `+                    ",
"                         @_ _ _ _ _ _ _ _ _ _ _ _ _ _ _ 1 .@+@7+@@#@G.$@%@=._ _ _ _ _ _ _ _ _ _ _ _ _ _ 0 &@                    ",
"                        *@_ _ _ _ _ _ _ _ _ _ _ _ _ _ _ _ =.=@-@@@;@R.>@,@O _ _ _ _ _ _ _ _ _ _ _ _ _ _ q '@                    ",
"                        )@_ _ _ _ _ _ _ _ _ _ _ _ _ _ _ d !@~@w.@+{@G.]@^@/@O _ _ _ _ _ _ _ _ _ _ _ _ _ T (@                    ",
"                        n._ _ _ _ _ _ _ _ _ _ _ _ _ _ d _@:@@+w.<@[@}@|@1@2@.@1 _ _ _ _ _ _ _ _ _ _ _ _ T 3@                    ",
"                        4@_ _ _ _ _ _ _ _ _ _ _ _ _ q _@5@w.w.6@7@ +8@9@G.0@a@f+1 _ _ _ _ _ _ _ _ _ _ _ T b@                    ",
"                        c@_ _ _ _ _ _ _ _ _ _ _ _ q d@e@w.w.f@g@q O M h@i@#+j@k@T+1 _ _ _ _ _ _ _ _ _ _ =.l@                    ",
"                        4@_ _ _ _ _ _ _ _ _ _ _ q m@I+G.w.n@o@q _ _ O v+p@q@R.D+r@T+1 _ _ _ _ _ _ _ _ _ N s@                    ",
"                        t@_ _ _ _ _ _ _ _ _ _ T u@v@w.w.w@x@d _ _ _ _ . y@z@A@G.B@C@D@1 _ _ _ _ _ _ _ _ T E@                    ",
"                        )@_ _ _ _ _ _ _ _ _ T F@G@@+w.H@I@d _ _ _ _ _ _ . y@J@K@L@s+M@q+1 _ _ _ _ _ _ _ N N@                    ",
"                        t@_ _ _ _ _ _ _ _ =.O@X+G.w.P@Q@d _ _ _ _ _ _ _ _ . j+R@8+L@S@T@U@1 _ _ _ _ _ _ | V@                    ",
"                        W@_ _ _ _ _ _ _ =.X@-@@+w.Y@Z@d _ _ _ _ _ _ _ _ _ _ . }+`@K@@+'+ #.#1 _ _ _ _ _ W +#                    ",
"                        @#_ _ _ _ _ _ ##$#%#R.w.&#*#` _ _ _ _ _ _ _ _ _ _ _ _ . }+=#W.@@S@-#U@_ _ _ _ _ N ;#                    ",
"                        5+_ _ _ _ _ _ >#,#@+w.'#)#q _ _ _ _ _ _ _ _ _ _ _ _ _ _ . }+!#R.@+~#{#1 _ _ _ _ n ]#                    ",
"                        ^#h _ _ _ _ _ /#(#A@_#:#_._ _ _ _ _ _ _ _ _ _ _ _ _ _ _ _ . <#[#A@w.}#T _ _ _ _ o |#                    ",
"                        1#W _ _ _ _ _ q 2#3#4#h _ _ _ _ _ _ _ _ _ _ _ _ _ _ _ _ _ _ . 5#6#7#8#h _ _ _ _ W 9#                    ",
"                          0#_ _ _ _ _ _ _ _ _ _ _ _ _ _ _ _ _ _ _ _ _ _ _ _ _ _ _ _ _ _ @.o 1 _ _ _ _ _ o a#                    ",
"                          b#_._ _ _ _ _ _ _ _ _ _ _ _ _ _ _ _ _ _ _ _ _ _ _ _ _ _ _ _ _ _ _ _ _ _ _ _ _ c#                      ",
"                          d#e#_ _ _ _ _ _ _ _ _ _ _ _ _ _ _ _ _ _ _ _ _ _ _ _ _ _ _ _ _ _ _ _ _ _ _ _ O f#                      ",
"                            g#h#_ _ _ _ _ _ _ _ _ _ _ _ _ _ _ _ _ _ _ _ _ _ _ _ _ _ _ _ _ _ _ _ _ _ _ N i#                      ",
"                              j#@ _ _ _ _ _ _ _ _ _ _ _ _ _ _ _ _ _ _ _ _ _ _ _ _ _ _ _ _ _ _ _ _ . o _                         ",
"                                k#l#h _ _ _ _ _ _ _ _ _ _ _ _ _ _ _ _ _ _ _ _ _ _ _ _ _ _ _ _ O m#n#o#                          ",
"                                    p#q#>#0 q 1 _ 1 _ _ _ _ _ _ _ _ _ _ _ _ _ _ _ _ _ _ h d r#s#t#                              ",
"                                          u#v#w#x#y#z#A#B#n.C#D#C#E.t@E#F#G#H#I#J#K#L#M#N#O#P#                                  ",
"                                                                                                                                ",
"                                                                                                                                ",
"                                                                                                                                "};
