/* XPM */
static const char * xpm_lend[] = {
"32 32 85 1",
" 	c None",
".	c #484C54",
"+	c #E0EDFF",
"@	c #CFDDF9",
"#	c #C5D6F6",
"$	c #BBCDF0",
"%	c #B0C5EB",
"&	c #A3BDE6",
"*	c #96B2E1",
"=	c #8AA9DA",
"-	c #7D9FD4",
";	c #6E94CD",
">	c #618AC6",
",	c #6F97D0",
"'	c #D1DFFD",
")	c #BECEEE",
"!	c #B4C7EA",
"~	c #A8BEE5",
"{	c #9DB6DF",
"]	c #90ADDA",
"^	c #83A3D4",
"/	c #7799CD",
"(	c #6A8FC7",
"_	c #5A83BF",
":	c #6188C0",
"<	c #6E95CA",
"[	c #C4D6F7",
"}	c #B0C5E8",
"|	c #A6BCE4",
"1	c #99B3DE",
"2	c #8CAAD8",
"3	c #80A0D2",
"4	c #7396CB",
"5	c #658BC4",
"6	c #5781BD",
"7	c #5A83BC",
"8	c #6A8EC1",
"9	c #628AC1",
"0	c #B6CBF1",
"a	c #A2BAE2",
"b	c #95B0DC",
"c	c #88A6D6",
"d	c #7C9DD0",
"e	c #7094CA",
"f	c #5D85BF",
"g	c #6088BE",
"h	c #678DC0",
"i	c #6186BB",
"j	c #5781BA",
"k	c #A5BFE9",
"l	c #93AEDB",
"m	c #8CAAD7",
"n	c #89A7D4",
"o	c #84A3D1",
"p	c #7C9DCD",
"q	c #7597C8",
"r	c #6E91C4",
"s	c #688CBF",
"t	c #5F84B9",
"u	c #577EB3",
"v	c #4F79B3",
"w	c #9BB8E5",
"x	c #97B2DB",
"y	c #93AED8",
"z	c #8AA8D3",
"A	c #81A0CE",
"B	c #7798C8",
"C	c #6D91C3",
"D	c #6589BD",
"E	c #5C83B8",
"F	c #557CB2",
"G	c #5077AC",
"H	c #4D76B0",
"I	c #A4C1EE",
"J	c #96B3DF",
"K	c #8AAAD9",
"L	c #7FA1D3",
"M	c #759ACE",
"N	c #6C92C8",
"O	c #638AC2",
"P	c #5B84BC",
"Q	c #547DB6",
"R	c #4F79B1",
"S	c #4E78B1",
"T	c #4D7AB6",
"                                ",
"                                ",
"                                ",
"                                ",
"                                ",
"..............                  ",
".+@#$%&*=-;>,.                  ",
".')!~{]^/(_:<......             ",
".[}|123456789.........          ",
".0abcde5fghij..........         ",
".klmnopqrstuv.      ....        ",
".wxyzABCDEFGH.       ....       ",
".IJKLMNOPQRST.        ...       ",
"..............         ..       ",
"       ...             ...      ",
"      .....         .........   ",
"     .......         .......    ",
"    .........         .....     ",
"       ...             ...      ",
"        ..        ..............",
"        ...       .+@#$%&*=-;>,.",
"        ....      .')!~{]^/(_:<.",
"         ....     .[}|123456789.",
"          .........0abcde5fghij.",
"           ........klmnopqrstuv.",
"              .....wxyzABCDEFGH.",
"                  .IJKLMNOPQRST.",
"                  ..............",
"                                ",
"                                ",
"                                ",
"                                "};
