/* XPM */
static const char * xpm_lendborrow[] = {
"32 32 291 2",
"  	c None",
". 	c #040404",
"+ 	c #6D0A0A",
"@ 	c #6E0B0B",
"# 	c #E31616",
"$ 	c #700C0C",
"% 	c #E31818",
"& 	c #D31919",
"* 	c #690D0D",
"= 	c #E31A1A",
"- 	c #E31E1E",
"; 	c #D92020",
"> 	c #6C0E0E",
", 	c #E31C1C",
"' 	c #E42020",
") 	c #E42424",
"! 	c #E02727",
"~ 	c #6D0F0F",
"{ 	c #E42222",
"] 	c #E42727",
"^ 	c #E52B2B",
"/ 	c #E53030",
"( 	c #E53434",
"_ 	c #E63939",
": 	c #E63E3E",
"< 	c #E74444",
"[ 	c #E74949",
"} 	c #E84E4E",
"| 	c #E85353",
"1 	c #E95959",
"2 	c #E95E5E",
"3 	c #EA6464",
"4 	c #EA6969",
"5 	c #6E1010",
"6 	c #E42121",
"7 	c #E42525",
"8 	c #E42929",
"9 	c #E52E2E",
"0 	c #E53232",
"a 	c #E63737",
"b 	c #E63C3C",
"c 	c #E74141",
"d 	c #E74747",
"e 	c #E84C4C",
"f 	c #E85151",
"g 	c #E95757",
"h 	c #E95C5C",
"i 	c #EA6161",
"j 	c #EA6767",
"k 	c #EB6C6C",
"l 	c #EB7171",
"m 	c #6D1111",
"n 	c #E42323",
"o 	c #E52C2C",
"p 	c #E53131",
"q 	c #E63535",
"r 	c #E63A3A",
"s 	c #E63F3F",
"t 	c #E74545",
"u 	c #E74A4A",
"v 	c #E84F4F",
"w 	c #E85555",
"x 	c #E95A5A",
"y 	c #E95F5F",
"z 	c #EA6565",
"A 	c #EA6A6A",
"B 	c #EB6F6F",
"C 	c #EB7575",
"D 	c #EC7A7A",
"E 	c #030303",
"F 	c #661111",
"G 	c #E42626",
"H 	c #E52A2A",
"I 	c #E52F2F",
"J 	c #E53333",
"K 	c #E63838",
"L 	c #E63D3D",
"M 	c #E74242",
"N 	c #E74848",
"O 	c #E84D4D",
"P 	c #E85252",
"Q 	c #E95858",
"R 	c #E95D5D",
"S 	c #EA6363",
"T 	c #EA6868",
"U 	c #EB6D6D",
"V 	c #EB7272",
"W 	c #EC7878",
"X 	c #EC7D7D",
"Y 	c #C46C6C",
"Z 	c #09210F",
"` 	c #10381A",
" .	c #0D0505",
"..	c #A22121",
"+.	c #E63636",
"@.	c #E63B3B",
"#.	c #E74040",
"$.	c #E74646",
"%.	c #E84B4B",
"&.	c #E85050",
"*.	c #E95656",
"=.	c #E95B5B",
"-.	c #E96060",
";.	c #EA6666",
">.	c #EA6B6B",
",.	c #EB7070",
"'.	c #EB7676",
").	c #EC7B7B",
"!.	c #EC8080",
"~.	c #ED8484",
"{.	c #945555",
"].	c #144721",
"^.	c #2FA54C",
"/.	c #0C2A13",
"(.	c #0B0606",
"_.	c #A42A2A",
":.	c #EB6E6E",
"<.	c #EB7474",
"[.	c #EC7979",
"}.	c #EC7E7E",
"|.	c #ED8383",
"1.	c #ED8787",
"2.	c #ED8C8C",
"3.	c #935959",
"4.	c #34B954",
"5.	c #26843C",
"6.	c #07180A",
"7.	c #A43333",
"8.	c #EC7777",
"9.	c #EC7C7C",
"0.	c #EC8181",
"a.	c #ED8585",
"b.	c #ED8A8A",
"c.	c #EE8F8F",
"d.	c #EE9393",
"e.	c #935E5E",
"f.	c #144620",
"g.	c #33B752",
"h.	c #32B14F",
"i.	c #25853B",
"j.	c #0A2410",
"k.	c #A93F3F",
"l.	c #E36767",
"m.	c #010101",
"n.	c #0F3719",
"o.	c #33B450",
"p.	c #32B34E",
"q.	c #31AD4B",
"r.	c #227A34",
"s.	c #061509",
"t.	c #0C0707",
"u.	c #AD4A4A",
"v.	c #DA6A6A",
"w.	c #237E3C",
"x.	c #268941",
"y.	c #25833E",
"z.	c #24823D",
"A.	c #24813C",
"B.	c #24803B",
"C.	c #237F3B",
"D.	c #237E39",
"E.	c #237D39",
"F.	c #237B37",
"G.	c #29903F",
"H.	c #32B24E",
"I.	c #32B04C",
"J.	c #31AE4A",
"K.	c #30AA48",
"L.	c #258537",
"M.	c #0B2810",
"N.	c #0C0808",
"O.	c #AC5353",
"P.	c #D97171",
"Q.	c #000000",
"R.	c #36C05B",
"S.	c #36BF5A",
"T.	c #35BE59",
"U.	c #35BC58",
"V.	c #35BB56",
"W.	c #34B955",
"X.	c #34B854",
"Y.	c #33B652",
"Z.	c #33B550",
"`.	c #32B34F",
" +	c #32B14D",
".+	c #31AF4B",
"++	c #31AC48",
"@+	c #30AA46",
"#+	c #2FA644",
"$+	c #227831",
"%+	c #071809",
"&+	c #AE5D5D",
"*+	c #33B656",
"=+	c #35BD59",
"-+	c #35BC57",
";+	c #34BA56",
">+	c #34B753",
",+	c #33B651",
"'+	c #32B04D",
")+	c #31AD49",
"!+	c #30AB47",
"~+	c #30A946",
"{+	c #2FA744",
"]+	c #2FA642",
"^+	c #2EA340",
"/+	c #247F31",
"(+	c #0B280F",
"_+	c #010402",
":+	c #0D0909",
"<+	c #9E5C5C",
"[+	c #33B454",
"}+	c #35BB57",
"|+	c #34BA55",
"1+	c #33B551",
"2+	c #33B34F",
"3+	c #30AA47",
"4+	c #30A845",
"5+	c #2FA743",
"6+	c #2FA541",
"7+	c #2EA13E",
"8+	c #2D9F3C",
"9+	c #22772C",
"0+	c #103814",
"a+	c #0A0707",
"b+	c #33B252",
"c+	c #34B853",
"d+	c #31AD4A",
"e+	c #30AB48",
"f+	c #2FA844",
"g+	c #2FA643",
"h+	c #2EA441",
"i+	c #2EA23F",
"j+	c #2DA03D",
"k+	c #2D9D3A",
"l+	c #2C9B38",
"m+	c #2A9535",
"n+	c #32B050",
"o+	c #31AE4B",
"p+	c #30A945",
"q+	c #2FA542",
"r+	c #2EA23E",
"s+	c #2D9E3B",
"t+	c #2C9C39",
"u+	c #299234",
"v+	c #217429",
"w+	c #31AD4E",
"x+	c #2EA33F",
"y+	c #2C9A37",
"z+	c #288E33",
"A+	c #154A19",
"B+	c #040F05",
"C+	c #2C9D3A",
"D+	c #2C9937",
"E+	c #288E31",
"F+	c #154919",
"G+	c #278C3D",
"H+	c #288C3D",
"I+	c #278A3B",
"J+	c #27883A",
"K+	c #268738",
"L+	c #268637",
"M+	c #258435",
"N+	c #258334",
"O+	c #248133",
"P+	c #278B34",
"Q+	c #2C9A38",
"R+	c #2B9936",
"S+	c #288C31",
"T+	c #144618",
"U+	c #020603",
"V+	c #010502",
"W+	c #010301",
"X+	c #113C16",
"Y+	c #2C9B39",
"Z+	c #2B9835",
"`+	c #288C30",
" @	c #0F3513",
".@	c #2B9735",
"+@	c #288D30",
"@@	c #113A15",
"#@	c #2B9734",
"$@	c #298D30",
"%@	c #154918",
"&@	c #113B15",
"*@	c #299131",
"=@	c #144617",
"-@	c #0C2A0E",
";@	c #164D19",
">@	c #000100",
",@	c #061607",
"'@	c #081B09",
"                                                                ",
"                                                                ",
"                                                                ",
"                                                                ",
"                . + .                                           ",
"              . @ # .                                           ",
"            . $ % & .                                           ",
"          . * = - ; .                                           ",
"        . > , ' ) ! . . . . . . . . . . . .                     ",
"      . ~ - { ] ^ / ( _ : < [ } | 1 2 3 4 .                     ",
"    . 5 6 7 8 9 0 a b c d e f g h i j k l .                     ",
"  . m n ] o p q r s t u v w x y z A B C D E                     ",
"  F G H I J K L M N O P Q R S T U V W X Y Z `                   ",
"   ...0 +.@.#.$.%.&.*.=.-.;.>.,.'.).!.~.{.].^./.                ",
"    (._.: < [ } | 1 2 3 4 :.<.[.}.|.1.2.3.].4.5.6.              ",
"      (.7.e f g h i j k l 8.9.0.a.b.c.d.e.f.g.h.i.j.            ",
"        (.k.x y z l.E m.m.m.m.m.m.m.m.m.m.n.o.p.q.r.s.          ",
"          t.u.T U v.m.w.x.y.z.A.B.C.D.E.F.G.H.I.J.K.L.M.        ",
"            N.O.'.P.Q.R.S.T.U.V.W.X.Y.Z.`. +.+J.++@+#+$+%+      ",
"              N.&+|.Q.*+=+-+;+4.>+,+o.H.'+.+)+!+~+{+]+^+/+(+_+  ",
"                :+<+Q.[+}+|+X.g.1+2+H.I.J.++3+4+5+6+^+7+8+9+0+Q.",
"                  a+Q.b+W.c+Y.o.`. +.+d+e+@+f+g+h+i+j+8+k+l+m+Q.",
"                    Q.n+>+1+o.H.I.o+)+!+p+{+q+^+r+j+s+t+l+u+v+Q.",
"                    Q.w+1+`. +I.J.++@+4+g+6+x+7+8+k+t+y+z+A+B+  ",
"                    Q.h.H. +.+)+e+~+f+]+h+i+j+s+C+l+D+E+F+Q.    ",
"                    Q.G+H+I+J+K+L+M+N+O+/+P+s+t+Q+R+S+T+Q.      ",
"                      _+U+V+V+V+V+V+_+_+W+X+Y+y+Z+`+T+Q.        ",
"                                           @R+.@+@T+Q.          ",
"                                          @@#@$@%@Q.            ",
"                                          &@*@=@Q.              ",
"                                          -@;@>@                ",
"                                          ,@'@                  "};
