/* XPM */
static const char * xpm_maintenance[] = {
"32 32 151 2",
"  	c None",
". 	c #000000",
"+ 	c #ADADAD",
"@ 	c #B1B1B1",
"# 	c #B5B5B5",
"$ 	c #0A0A0A",
"% 	c #0E0E0E",
"& 	c #535353",
"* 	c #7D7D7D",
"= 	c #BABABA",
"- 	c #111111",
"; 	c #5D5D5D",
"> 	c #A1A1A1",
", 	c #747474",
"' 	c #A8A8A8",
") 	c #ACACAC",
"! 	c #828282",
"~ 	c #B9B9B9",
"{ 	c #BEBEBE",
"] 	c #646464",
"^ 	c #C8C8C8",
"/ 	c #CDCDCD",
"( 	c #BBBBBB",
"_ 	c #4A4A4A",
": 	c #979797",
"< 	c #4C4C4C",
"[ 	c #454545",
"} 	c #B0B0B0",
"| 	c #B4B4B4",
"1 	c #C3C3C3",
"2 	c #C6C6C6",
"3 	c #999999",
"4 	c #202020",
"5 	c #A4A4A4",
"6 	c #AEAEAE",
"7 	c #A5A5A5",
"8 	c #525252",
"9 	c #B8B8B8",
"0 	c #BDBDBD",
"a 	c #C2C2C2",
"b 	c #C7C7C7",
"c 	c #CCCCCC",
"d 	c #D1D1D1",
"e 	c #8C8C8C",
"f 	c #070707",
"g 	c #151515",
"h 	c #727272",
"i 	c #ABABAB",
"j 	c #AFAFAF",
"k 	c #6D6D6D",
"l 	c #181818",
"m 	c #D6D6D6",
"n 	c #DBDBDB",
"o 	c #E0E0E0",
"p 	c #E5E5E5",
"q 	c #040404",
"r 	c #777777",
"s 	c #5F5F5F",
"t 	c #B3B3B3",
"u 	c #C1C1C1",
"v 	c #191919",
"w 	c #DFDFDF",
"x 	c #E4E4E4",
"y 	c #E9E9E9",
"z 	c #2A2A2A",
"A 	c #505050",
"B 	c #161616",
"C 	c #575757",
"D 	c #B2B2B2",
"E 	c #5E5E5E",
"F 	c #B7B7B7",
"G 	c #BCBCBC",
"H 	c #DADADA",
"I 	c #E8E8E8",
"J 	c #EDEDED",
"K 	c #030303",
"L 	c #939393",
"M 	c #020202",
"N 	c #252525",
"O 	c #CECECE",
"P 	c #0C0C0C",
"Q 	c #555555",
"R 	c #CBCBCB",
"S 	c #D0D0D0",
"T 	c #D5D5D5",
"U 	c #636363",
"V 	c #9B9B9B",
"W 	c #262626",
"X 	c #0B0B0B",
"Y 	c #818181",
"Z 	c #C5C5C5",
"` 	c #CACACA",
" .	c #CFCFCF",
"..	c #D4D4D4",
"+.	c #D9D9D9",
"@.	c #DEDEDE",
"#.	c #E3E3E3",
"$.	c #ECECEC",
"%.	c #5C5C5C",
"&.	c #8F8F8F",
"*.	c #2B2B2B",
"=.	c #2D2D2D",
"-.	c #878787",
";.	c #8D8D8D",
">.	c #6C6C6C",
",.	c #E7E7E7",
"'.	c #2C2C2C",
").	c #C4C4C4",
"!.	c #959595",
"~.	c #BFBFBF",
"{.	c #686868",
"].	c #838383",
"^.	c #E2E2E2",
"/.	c #707070",
"(.	c #0F0F0F",
"_.	c #090909",
":.	c #D8D8D8",
"<.	c #6A6A6A",
"[.	c #010101",
"}.	c #282828",
"|.	c #EBEBEB",
"1.	c #383838",
"2.	c #404040",
"3.	c #797979",
"4.	c #868686",
"5.	c #515151",
"6.	c #1A1A1A",
"7.	c #141414",
"8.	c #060606",
"9.	c #171717",
"0.	c #787878",
"a.	c #7B7B7B",
"b.	c #080808",
"c.	c #757575",
"d.	c #3B3B3B",
"e.	c #242424",
"f.	c #343434",
"g.	c #0D0D0D",
"h.	c #606060",
"i.	c #969696",
"j.	c #131313",
"k.	c #050505",
"l.	c #212121",
"m.	c #8A8A8A",
"n.	c #989898",
"o.	c #595959",
"p.	c #8B8B8B",
"q.	c #393939",
"r.	c #DCDCDC",
"s.	c #7F7F7F",
"t.	c #3C3C3C",
"                                                                ",
"                                                                ",
"          . . . . .                                             ",
"      . . . + @ # .   $                                         ",
"    % & * . @ # = - ; > $                   .                   ",
"  . , ' ) ! # ~ { ] ^ / ( .             . _ : < .               ",
"    [ ) } | ~ { 1 @ / 2 3 .             4 5 6 7 .               ",
". . . 8 | 9 0 a b c d e f . .         g h + @ ' .               ",
". i j | 9 0 k l h d m n o p .       q r 6 @ ) s .       .       ",
". j t 9 0 u l   v m n w x y .       z 6 @ ' A B     . C D E .   ",
". t F G u 2 h v r H w x I J .     K & } | L B     M N u O 2 .   ",
". . P Q 6 R S T H w x ) . . .     f U | F V W     X ] c d c K   ",
"  . Y Z `  ...+.@.#.I $.^ .       . %.t = 0 &.g *.=.D d T -.M   ",
"    C ` b ;.+.@.#.>.$.,.# .         '.6 0 u ).{ !.+ d T ~.-     ",
"    . {.].. @.^.,.. /.7 (.          _.7 u ).b R O S T :.<.[.    ",
"      . }.. ^.,.|..   1.[.          2.~ ).b R O  .T = 3..       ",
"          . . . . .               P 5 ).b R O 0 j 4.5.6.        ",
"                                . %.a b R O d 8 g 7.8.          ",
"                                9.~ b R O d : .                 ",
"                              K 0.b R O d / W                   ",
"                              =.a R O d T a..                   ",
"                            b.: R O d T ~.P                     ",
"                            < ^ O d T :.C                       ",
"                          (.| O d T :.j .                       ",
"                        . c./ e T :.n d.                        ",
"                        e.O f.g.h.n i..                         ",
"                      M 0. .j.k.2.m l.                          ",
"                      % m...n.o.t p..                           ",
"                      [.q.R n r.1 f                             ",
"                        . 4 s.Y t.                              ",
"                            . l                                 ",
"                                                                "};
