/* XPM */
static const char * xpm_mission[] = {
"16 16 98 2",
"  	c None",
". 	c #A79E76",
"+ 	c #FFFFFF",
"@ 	c #FDFDFC",
"# 	c #FBFAF7",
"$ 	c #F8F7F2",
"% 	c #F5F3EB",
"& 	c #F1EFE5",
"* 	c #EEEBDE",
"= 	c #EAE6D6",
"- 	c #E6E1CE",
"; 	c #FDFDFB",
"> 	c #FBFAF6",
", 	c #F8F7F1",
"' 	c #F1EFE4",
") 	c #EDEADD",
"! 	c #E9E6D5",
"~ 	c #E5E1CD",
"{ 	c #E1DCC5",
"] 	c #FDFCFB",
"^ 	c #2F291F",
"/ 	c #DCD6BC",
"( 	c #FAF9F5",
"_ 	c #F7F6F0",
": 	c #F4F2EA",
"< 	c #F0EEE3",
"[ 	c #EDEADB",
"} 	c #E9E5D4",
"| 	c #E4E0CC",
"1 	c #E0DBC3",
"2 	c #DCD6BB",
"3 	c #D7D1B2",
"4 	c #F7F5EF",
"5 	c #D2CBA9",
"6 	c #F3F1E8",
"7 	c #F0EDE1",
"8 	c #ECE9DA",
"9 	c #E8E4D2",
"0 	c #E4DFCA",
"a 	c #DFDAC2",
"b 	c #DBD5B9",
"c 	c #D6D0B1",
"d 	c #D2CBA8",
"e 	c #CEC6A0",
"f 	c #EFEDE1",
"g 	c #C9C097",
"h 	c #EBE8D8",
"i 	c #E7E3D0",
"j 	c #E3DEC8",
"k 	c #DED9C0",
"l 	c #DAD4B7",
"m 	c #D6CFAF",
"n 	c #D1CAA6",
"o 	c #CDC59E",
"p 	c #C9C096",
"q 	c #C5BB8E",
"r 	c #E7E2D0",
"s 	c #C0B686",
"t 	c #E2DDC7",
"u 	c #DED8BE",
"v 	c #D9D3B6",
"w 	c #D5CEAD",
"x 	c #D0C9A5",
"y 	c #CCC49C",
"z 	c #C8BF94",
"A 	c #C4BA8C",
"B 	c #C0B685",
"C 	c #BCB17E",
"D 	c #DDD7BD",
"E 	c #B9AD77",
"F 	c #D8D2B4",
"G 	c #D4CDAB",
"H 	c #CFC8A3",
"I 	c #CBC39B",
"J 	c #C7BE93",
"K 	c #C3B98B",
"L 	c #BFB584",
"M 	c #BCB17D",
"N 	c #B6A971",
"O 	c #D3CCAB",
"P 	c #CFC7A2",
"Q 	c #CBC29A",
"R 	c #C7BD92",
"S 	c #C3B98A",
"T 	c #BFB483",
"U 	c #BBB07C",
"V 	c #B8AC76",
"W 	c #B5A971",
"X 	c #B3A66C",
"Y 	c #CFC7A1",
"Z 	c #CAC299",
"` 	c #C6BD91",
" .	c #C2B889",
"..	c #BFB482",
"+.	c #B8AC75",
"@.	c #B5A970",
"#.	c #B3A66B",
"$.	c #B1A468",
"    . . . . . . . . . . . .     ",
"    . + + @ # $ % & * = - .     ",
"    . + ; > , % ' ) ! ~ { .     ",
"    . ] ^ ^ ^ ^ ^ ^ ^ ^ / .     ",
"    . ( _ : < [ } | 1 2 3 .     ",
"    . 4 ^ ^ ^ ^ ^ ^ ^ ^ 5 .     ",
"    . 6 7 8 9 0 a b c d e .     ",
"    . f ^ ^ ^ ^ ^ ^ ^ ^ g .     ",
"    . h i j k l m n o p q .     ",
"    . r ^ ^ ^ ^ ^ ^ ^ ^ s .     ",
"    . t u v w x y z A B C .     ",
"    . D ^ ^ ^ ^ ^ ^ ^ ^ E .     ",
"    . F G H I J K L M E N .     ",
"    . O P Q R S T U V W X .     ",
"    . Y Z `  ...U +.@.#.$..     ",
"    . . . . . . . . . . . .     "};
