/* XPM */
static const char * xpm_morale_bad[] = {
"32 32 368 2",
"  	c None",
". 	c #997233",
"+ 	c #A67D3C",
"@ 	c #AD8341",
"# 	c #B38845",
"$ 	c #B58A46",
"% 	c #B48A46",
"& 	c #B28845",
"* 	c #AC8240",
"= 	c #AC8443",
"- 	c #BD9759",
"; 	c #C9A368",
"> 	c #CFA96D",
", 	c #D1AB6E",
"' 	c #D2AB6E",
") 	c #AB8343",
"! 	c #997234",
"~ 	c #BE9859",
"{ 	c #D7B887",
"] 	c #E4CCA4",
"^ 	c #EAD2AD",
"/ 	c #EBD3AE",
"( 	c #ECD4AE",
"_ 	c #E4CBA4",
": 	c #C9A367",
"< 	c #E3C99F",
"[ 	c #F1DFC3",
"} 	c #F5E6CE",
"| 	c #F6E7D0",
"1 	c #F6E8D0",
"2 	c #F6E7CF",
"3 	c #F5E6CD",
"4 	c #F0DFC3",
"5 	c #C9A267",
"6 	c #B28642",
"7 	c #CDA668",
"8 	c #E7CDA3",
"9 	c #F4E2C7",
"0 	c #F7E9D1",
"a 	c #F9EAD3",
"b 	c #F9EBD3",
"c 	c #F7E9D2",
"d 	c #B18743",
"e 	c #B38842",
"f 	c #D0A768",
"g 	c #E8CB9E",
"h 	c #F3E0C0",
"i 	c #F7E6CA",
"j 	c #F9E7CC",
"k 	c #F9E8CC",
"l 	c #F9E7CB",
"m 	c #E7CB9F",
"n 	c #CFA767",
"o 	c #B38742",
"p 	c #B48842",
"q 	c #CFA565",
"r 	c #E6C897",
"s 	c #F2DCB7",
"t 	c #F6E2C1",
"u 	c #F8E3C2",
"v 	c #F6E1C0",
"w 	c #F2DBB7",
"x 	c #E6C797",
"y 	c #CEA564",
"z 	c #B28842",
"A 	c #CEA361",
"B 	c #E4C490",
"C 	c #F0D7AD",
"D 	c #F5DDB6",
"E 	c #F6DEB7",
"F 	c #F7DEB8",
"G 	c #F7DEB7",
"H 	c #F6DEB8",
"I 	c #F4DCB5",
"J 	c #F0D6AC",
"K 	c #E4C390",
"L 	c #CDA360",
"M 	c #B3863F",
"N 	c #CDA15D",
"O 	c #E2C088",
"P 	c #EED1A2",
"Q 	c #F3D7AB",
"R 	c #F5D9AC",
"S 	c #EDD3AA",
"T 	c #CEBCA0",
"U 	c #B4A998",
"V 	c #F6D9AC",
"W 	c #F5D9AB",
"X 	c #EDD3A9",
"Y 	c #B3A897",
"Z 	c #F3D7AA",
"` 	c #E2BF88",
" .	c #CCA15C",
"..	c #B28640",
"+.	c #CB9E59",
"@.	c #E1BB80",
"#.	c #ECCB96",
"$.	c #F2D29F",
"%.	c #F4D3A0",
"&.	c #C7B292",
"*.	c #9A9184",
"=.	c #9A9285",
"-.	c #F4D4A0",
";.	c #F1D19F",
">.	c #E0BB80",
",.	c #CA9E58",
"'.	c #B1863F",
").	c #B2853D",
"!.	c #CA9C55",
"~.	c #DEB777",
"{.	c #EAC68B",
"].	c #F0CC93",
"^.	c #F2CE94",
"/.	c #9E907B",
"(.	c #8D8475",
"_.	c #F3CE94",
":.	c #EFCC93",
"<.	c #E9C58B",
"[.	c #DDB576",
"}.	c #C99C54",
"|.	c #B0843D",
"1.	c #B2843B",
"2.	c #C99A51",
"3.	c #DCB26E",
"4.	c #E8C080",
"5.	c #EEC787",
"6.	c #F1C889",
"7.	c #94846C",
"8.	c #817767",
"9.	c #807666",
"0.	c #93836B",
"a.	c #F1C988",
"b.	c #F1C989",
"c.	c #F1C888",
"d.	c #EEC687",
"e.	c #E7C080",
"f.	c #DBB16E",
"g.	c #C89A50",
"h.	c #B0843C",
"i.	c #B1833B",
"j.	c #C8974D",
"k.	c #DAAD65",
"l.	c #E6BB75",
"m.	c #ECC17B",
"n.	c #EFC37C",
"o.	c #B29669",
"p.	c #746957",
"q.	c #756958",
"r.	c #F0C37C",
"s.	c #F0C47D",
"t.	c #ECC07A",
"u.	c #E5BA75",
"v.	c #D9AC65",
"w.	c #C7974C",
"x.	c #B0833B",
"y.	c #B18239",
"z.	c #C69549",
"A.	c #D8A95C",
"B.	c #E4B66B",
"C.	c #EBBB6F",
"D.	c #EEBE72",
"E.	c #E1B46D",
"F.	c #AB8D5C",
"G.	c #7E6B4F",
"H.	c #7F6C50",
"I.	c #AB8D5D",
"J.	c #EFBE72",
"K.	c #EFBE71",
"L.	c #E1B46E",
"M.	c #EEBD71",
"N.	c #EABB6F",
"O.	c #E4B56C",
"P.	c #D7A85C",
"Q.	c #C59548",
"R.	c #AF8239",
"S.	c #B08238",
"T.	c #C59345",
"U.	c #D6A556",
"V.	c #E2B160",
"W.	c #E9B766",
"X.	c #EDB967",
"Y.	c #EEB967",
"Z.	c #EEB966",
"`.	c #E9B665",
" +	c #E1B060",
".+	c #D6A456",
"++	c #C49344",
"@+	c #AE8138",
"#+	c #C49142",
"$+	c #D5A14F",
"%+	c #E1AC58",
"&+	c #E8B25B",
"*+	c #ECB45D",
"=+	c #ECB55D",
"-+	c #ECB55C",
";+	c #ECB45C",
">+	c #E7B15B",
",+	c #E0AB58",
"'+	c #D4A04E",
")+	c #C39141",
"!+	c #B08137",
"~+	c #C39040",
"{+	c #D39E49",
"]+	c #DFA84F",
"^+	c #E7AE53",
"/+	c #EBB054",
"(+	c #EBB154",
"_+	c #E6AD52",
":+	c #DEA750",
"<+	c #D29D49",
"[+	c #C2903F",
"}+	c #AE8137",
"|+	c #AF8036",
"1+	c #C38E3D",
"2+	c #D29B43",
"3+	c #DEA549",
"4+	c #E6AB4C",
"5+	c #EAAD4D",
"6+	c #EBAE4D",
"7+	c #E5AA4B",
"8+	c #DDA449",
"9+	c #D19A43",
"0+	c #C28E3C",
"a+	c #AD8036",
"b+	c #AF8035",
"c+	c #C28D3B",
"d+	c #D1993F",
"e+	c #DDA243",
"f+	c #E5A846",
"g+	c #E9AA47",
"h+	c #EAAB47",
"i+	c #E4A745",
"j+	c #DCA143",
"k+	c #D0983F",
"l+	c #C18D3A",
"m+	c #AD7F35",
"n+	c #D19A41",
"o+	c #DDA344",
"p+	c #E5A949",
"q+	c #E9AB4A",
"r+	c #EAAC4A",
"s+	c #E4A848",
"t+	c #DCA245",
"u+	c #D09941",
"v+	c #C28E3D",
"w+	c #D29B44",
"x+	c #DFA74D",
"y+	c #E7AE54",
"z+	c #EBB156",
"A+	c #ECB256",
"B+	c #ECB255",
"C+	c #E6AE53",
"D+	c #DEA64D",
"E+	c #D19A44",
"F+	c #C18E3C",
"G+	c #C38F3E",
"H+	c #D49F4A",
"I+	c #E1AE5B",
"J+	c #E9B765",
"K+	c #EEBA68",
"L+	c #EEBA69",
"M+	c #CCA15E",
"N+	c #A68653",
"O+	c #866F49",
"P+	c #6F5D43",
"Q+	c #5E513D",
"R+	c #5F523E",
"S+	c #EDB968",
"T+	c #E8B564",
"U+	c #E0AD5B",
"V+	c #D39E4A",
"W+	c #C28F3D",
"X+	c #D5A250",
"Y+	c #E4B569",
"Z+	c #ECBF77",
"`+	c #EFC27B",
" @	c #E9BE7A",
".@	c #7D6F59",
"+@	c #736856",
"@@	c #726755",
"#@	c #E9BE79",
"$@	c #F0C37B",
"%@	c #EBBE77",
"&@	c #E3B469",
"*@	c #D4A150",
"=@	c #C49141",
"-@	c #D7A556",
";@	c #E6BA74",
">@	c #EEC788",
",@	c #F1CA8D",
"'@	c #F2CB8E",
")@	c #C0A67E",
"!@	c #867C6D",
"~@	c #F1CB8E",
"{@	c #C39140",
"]@	c #D8A85C",
"^@	c #E8C181",
"/@	c #F1CF98",
"(@	c #F3D29E",
"_@	c #F4D39F",
":@	c #A19685",
"<@	c #999083",
"[@	c #A99C89",
"}@	c #C3B091",
"|@	c #D8BF97",
"1@	c #E9CB9C",
"2@	c #E9CB9B",
"3@	c #E9CC9D",
"4@	c #C3AF90",
"5@	c #F0CE97",
"6@	c #E8C081",
"7@	c #D7A75C",
"8@	c #C39142",
"9@	c #AE8036",
"0@	c #C59244",
"a@	c #D9AB61",
"b@	c #EAC58C",
"c@	c #F2D5A6",
"d@	c #F5DAAE",
"e@	c #F6DAB0",
"f@	c #AAA499",
"g@	c #BAAE9D",
"h@	c #E9D1AC",
"i@	c #F2D5A7",
"j@	c #EAC68D",
"k@	c #D8AA61",
"l@	c #C49243",
"m@	c #AD7E36",
"n@	c #C19043",
"o@	c #D6AA62",
"p@	c #E9C690",
"q@	c #F1D6AB",
"r@	c #F4DBB3",
"s@	c #F5DCB5",
"t@	c #E8C68F",
"u@	c #C09042",
"v@	c #AC7F36",
"w@	c #A77B34",
"x@	c #BB8C40",
"y@	c #CFA25B",
"z@	c #EACB99",
"A@	c #EDCF9F",
"B@	c #EED09F",
"C@	c #EED0A0",
"D@	c #EACB98",
"E@	c #CEA15B",
"F@	c #BB8B40",
"G@	c #A67A33",
"H@	c #A17632",
"I@	c #B28339",
"J@	c #C29348",
"K@	c #CFA35C",
"L@	c #D8AD68",
"M@	c #DBB16D",
"N@	c #DCB16D",
"O@	c #CFA25C",
"P@	c #C19248",
"Q@	c #A07631",
"R@	c #976F2E",
"S@	c #A67A34",
"T@	c #BB8B41",
"U@	c #C29145",
"V@	c #C59446",
"W@	c #C69447",
"X@	c #A57934",
"Y@	c #966E2E",
"Z@	c #AD7F36",
"`@	c #AF8137",
"  . + @ # $ $ $ $ $ $ $ $ $ $ $ $ $ $ $ $ $ $ $ $ $ % & * + .   ",
". = - ; > , ' ' ' ' ' ' ' ' ' ' ' ' ' ' ' ' ' ' ' ' , > ; - ) ! ",
"+ ~ { ] ^ / ( ( ( ( ( ( ( ( ( ( ( ( ( ( ( ( ( ( ( ( / ^ _ { - + ",
"@ : < [ } | 1 1 1 1 2 2 1 2 2 1 1 1 1 1 2 1 1 1 2 2 2 3 4 < 5 * ",
"6 7 8 9 0 a b a b b b b a b b a b a b b b a a a a b a c 9 8 7 d ",
"e f g h i j j j k k j j k k j j k k j j j j j j j j l i h m n o ",
"p q r s t u u u u u u u u u u u u u u u u u u u u u u v w x y z ",
"p A B C D E F F F G G G F F F F F G G F F F F F G G H I J K L z ",
"M N O P Q R S T U U T S V V V W V V V V X T U Y T S R Z P `  ...",
"M +.@.#.$.%.&.*.*.=.*.&.-.-.-.-.-.-.-.-.&.*.*.*.*.&.%.;.#.>.,.'.",
").!.~.{.].^./.(.(.(.(./._._._._._._._._./.(.(.(.(./.^.:.<.[.}.|.",
"1.2.3.4.5.6.7.8.9.9.9.0.a.a.a.a.b.b.a.b.0.8.9.8.8.0.c.d.e.f.g.h.",
"i.j.k.l.m.n.o.p.q.q.p.o.r.r.r.s.r.r.r.r.o.p.p.p.p.o.n.t.u.v.w.x.",
"y.z.A.B.C.D.E.F.G.H.I.E.J.J.K.J.K.K.J.K.L.F.G.G.F.L.M.N.O.P.Q.R.",
"S.T.U.V.W.X.Y.Y.Y.Y.Y.Z.Y.Z.Y.Y.Y.Y.Y.Y.Y.Y.Y.Y.Z.Y.X.`. +.+++@+",
"S.#+$+%+&+*+=+-+-+=+=+=+=+=+-+-+=+=+=+-+=+-+=+-+=+=+;+>+,+'+)+@+",
"!+~+{+]+^+/+(+(+(+(+(+(+(+(+(+(+(+(+(+(+(+(+(+(+(+(+/+_+:+<+[+}+",
"|+1+2+3+4+5+6+6+6+6+6+6+6+6+6+6+6+6+6+6+6+6+6+6+6+6+5+7+8+9+0+a+",
"b+c+d+e+f+g+h+h+h+h+h+h+h+h+h+h+h+h+h+h+h+h+h+h+h+h+g+i+j+k+l+m+",
"b+c+d+e+f+g+h+h+h+h+h+h+h+h+h+h+h+h+h+h+h+h+h+h+h+h+g+i+j+k+l+m+",
"b+c+n+o+p+q+r+r+r+r+r+r+r+r+r+r+r+r+r+r+r+r+r+r+r+r+q+s+t+u+l+m+",
"b+v+w+x+y+z+A+B+B+A+A+A+A+A+A+A+B+A+B+B+A+A+A+B+B+A+z+C+D+E+F+m+",
"|+G+H+I+J+X.K+K+L+L+L+M+N+O+P+Q+R+P+O+N+M+L+L+K+K+L+S+T+U+V+W+a+",
"|+~+X+Y+Z+`+r.r.r. @o..@+@+@+@+@@@+@+@+@.@o.#@r.$@r.`+%@&@*@[+a+",
"|+=@-@;@>@,@'@'@'@)@!@!@!@!@!@!@!@!@!@!@!@!@)@'@'@'@~@d.u.U.{@a+",
"|+#+]@^@/@(@_@_@_@:@<@[@}@|@1@2@2@3@|@4@[@<@:@_@_@_@_@5@6@7@8@a+",
"9@0@a@b@c@d@e@e@e@f@g@h@e@e@e@e@e@e@e@e@h@g@f@e@e@e@d@i@j@k@l@m+",
"m@n@o@p@q@r@s@s@s@D s@D s@s@s@s@s@s@s@D s@s@D D s@s@r@q@t@o@u@v@",
"w@x@y@@.z@A@B@B@C@C@C@C@C@C@C@C@C@B@B@C@C@B@B@C@B@C@A@D@>.E@F@G@",
"H@I@J@K@L@M@N@N@N@N@N@N@N@N@N@N@N@N@N@N@N@N@N@N@N@N@M@L@O@P@y.Q@",
"R@S@y.T@U@V@W@W@W@W@W@W@W@W@W@W@W@W@W@W@W@W@W@W@W@W@V@U@T@y.X@Y@",
"  R@Q@w@Z@`@`@`@`@`@`@`@`@`@`@`@`@`@`@`@`@`@`@`@`@`@}+v@G@Q@R@  "};
