/* XPM */
static const char * xpm_morale_medium[] = {
"32 32 360 2",
"  	c None",
". 	c #999233",
"+ 	c #A69D3C",
"@ 	c #ADA541",
"# 	c #B3AA45",
"$ 	c #B5AC46",
"% 	c #B4AB46",
"& 	c #B2A945",
"* 	c #ACA440",
"= 	c #ACA443",
"- 	c #BDB659",
"; 	c #C9C168",
"> 	c #CFC76D",
", 	c #D1C96E",
"' 	c #D2CA6E",
") 	c #ABA343",
"! 	c #999134",
"~ 	c #A69E3C",
"{ 	c #BEB659",
"] 	c #D7D187",
"^ 	c #E4DFA4",
"/ 	c #EAE4AD",
"( 	c #EBE6AE",
"_ 	c #ECE7AE",
": 	c #D7D087",
"< 	c #ADA441",
"[ 	c #C9C167",
"} 	c #E3DE9F",
"| 	c #F1EDC3",
"1 	c #F5F2CE",
"2 	c #F6F3D0",
"3 	c #F6F3CF",
"4 	c #F5F2CD",
"5 	c #F0EDC3",
"6 	c #E3DD9F",
"7 	c #C9C067",
"8 	c #B2A942",
"9 	c #CDC568",
"0 	c #E7E1A3",
"a 	c #F4F0C7",
"b 	c #F7F4D1",
"c 	c #F9F6D3",
"d 	c #F7F4D2",
"e 	c #E7E2A3",
"f 	c #B1A843",
"g 	c #B3AB42",
"h 	c #D0C768",
"i 	c #E8E29E",
"j 	c #F3EFC0",
"k 	c #F7F4CA",
"l 	c #F9F5CC",
"m 	c #F9F5CB",
"n 	c #E7E29F",
"o 	c #CFC767",
"p 	c #B3A942",
"q 	c #B4AC42",
"r 	c #CFC665",
"s 	c #E6E097",
"t 	c #F2EEB7",
"u 	c #F6F2C1",
"v 	c #F8F3C2",
"w 	c #F8F4C2",
"x 	c #F6F2C0",
"y 	c #F2EDB7",
"z 	c #CEC564",
"A 	c #B2AA42",
"B 	c #CEC561",
"C 	c #E4DE90",
"D 	c #F0EBAD",
"E 	c #F5F0B6",
"F 	c #F6F1B7",
"G 	c #F7F2B8",
"H 	c #F7F2B7",
"I 	c #F6F1B8",
"J 	c #F4F0B5",
"K 	c #F0EAAC",
"L 	c #E4DD90",
"M 	c #CDC460",
"N 	c #B3AB3F",
"O 	c #CDC35D",
"P 	c #E2DC88",
"Q 	c #EEE8A2",
"R 	c #F3EEAB",
"S 	c #F5EFAC",
"T 	c #EDE8AA",
"U 	c #CECAA0",
"V 	c #B4B198",
"W 	c #F6F0AC",
"X 	c #F5F0AB",
"Y 	c #EDE8A9",
"Z 	c #B3B097",
"` 	c #F3EDAA",
" .	c #E2DB88",
"..	c #CCC35C",
"+.	c #B2A940",
"@.	c #B3AA3F",
"#.	c #CBC259",
"$.	c #E1D980",
"%.	c #ECE596",
"&.	c #F2EB9F",
"*.	c #F4EDA0",
"=.	c #C7C292",
"-.	c #9A9784",
";.	c #9A9885",
">.	c #F4EEA0",
",.	c #F1EB9F",
"'.	c #E0D980",
").	c #CAC158",
"!.	c #B1A93F",
"~.	c #B2A93D",
"{.	c #CAC155",
"].	c #DED777",
"^.	c #EAE38B",
"/.	c #F0E993",
"(.	c #F2EB94",
"_.	c #9E9B7B",
":.	c #8D8B75",
"<.	c #F3EB94",
"[.	c #EFE893",
"}.	c #E9E28B",
"|.	c #DDD676",
"1.	c #C9C054",
"2.	c #B0A83D",
"3.	c #B2A93B",
"4.	c #C9BF51",
"5.	c #DCD46E",
"6.	c #E8E080",
"7.	c #EEE687",
"8.	c #F1E889",
"9.	c #94906C",
"0.	c #817E67",
"a.	c #807E66",
"b.	c #938F6B",
"c.	c #F1E988",
"d.	c #F1E989",
"e.	c #F1E888",
"f.	c #E7DF80",
"g.	c #DBD36E",
"h.	c #C8BE50",
"i.	c #B0A73C",
"j.	c #B1A83B",
"k.	c #C8BD4D",
"l.	c #DAD165",
"m.	c #E6DD75",
"n.	c #ECE47B",
"o.	c #EFE67C",
"p.	c #B2AC69",
"q.	c #747157",
"r.	c #757258",
"s.	c #F0E77C",
"t.	c #F0E77D",
"u.	c #ECE37A",
"v.	c #E5DD75",
"w.	c #D9D065",
"x.	c #C7BD4C",
"y.	c #B0A73B",
"z.	c #B1A839",
"A.	c #C6BC49",
"B.	c #D8CF5C",
"C.	c #E4DB6B",
"D.	c #EBE16F",
"E.	c #EEE472",
"F.	c #E1D86D",
"G.	c #ABA55C",
"H.	c #7E794F",
"I.	c #7F7A50",
"J.	c #ABA55D",
"K.	c #EFE572",
"L.	c #EFE571",
"M.	c #E1D86E",
"N.	c #EEE471",
"O.	c #EAE16F",
"P.	c #E4DA6C",
"Q.	c #D7CE5C",
"R.	c #C5BB48",
"S.	c #AFA639",
"T.	c #B0A738",
"U.	c #C5BB45",
"V.	c #D6CD56",
"W.	c #E2D860",
"X.	c #E9E066",
"Y.	c #EDE267",
"Z.	c #EEE367",
"`.	c #EEE366",
" +	c #E9DF65",
".+	c #E1D760",
"++	c #D6CC56",
"@+	c #C4BA44",
"#+	c #AEA538",
"$+	c #C4BA42",
"%+	c #D5CB4F",
"&+	c #E1D658",
"*+	c #E8DD5B",
"=+	c #ECE05D",
"-+	c #ECE15D",
";+	c #ECE15C",
">+	c #ECE05C",
",+	c #E7DD5B",
"'+	c #E0D558",
")+	c #D4CA4E",
"!+	c #C3B941",
"~+	c #B0A737",
"{+	c #C3B940",
"]+	c #D3C949",
"^+	c #DFD44F",
"/+	c #E7DC53",
"(+	c #EBDE54",
"_+	c #EBDF54",
":+	c #E6DB52",
"<+	c #DED350",
"[+	c #D2C849",
"}+	c #C2B83F",
"|+	c #AEA537",
"1+	c #AFA636",
"2+	c #C3B83D",
"3+	c #D2C743",
"4+	c #DED249",
"5+	c #E6DA4C",
"6+	c #EADD4D",
"7+	c #EBDE4D",
"8+	c #E5D94B",
"9+	c #DDD149",
"0+	c #D1C643",
"a+	c #C2B73C",
"b+	c #ADA436",
"c+	c #AFA635",
"d+	c #C2B73B",
"e+	c #D1C63F",
"f+	c #DDD143",
"g+	c #E5D946",
"h+	c #E9DC47",
"i+	c #EADD47",
"j+	c #E4D845",
"k+	c #DCD043",
"l+	c #D0C53F",
"m+	c #C1B63A",
"n+	c #ADA435",
"o+	c #D1C641",
"p+	c #DDD144",
"q+	c #E5DA49",
"r+	c #E9DD4A",
"s+	c #EADE4A",
"t+	c #E4D948",
"u+	c #DCD145",
"v+	c #D0C541",
"w+	c #C2B83D",
"x+	c #D2C744",
"y+	c #DFD44D",
"z+	c #E7DC54",
"A+	c #EADE55",
"B+	c #ECE056",
"C+	c #ECE055",
"D+	c #E6DB53",
"E+	c #DED34D",
"F+	c #D1C644",
"G+	c #C1B73C",
"H+	c #C3B83E",
"I+	c #D4C94A",
"J+	c #E1D75B",
"K+	c #EBE167",
"L+	c #EEE368",
"M+	c #EEE369",
"N+	c #E4DA66",
"O+	c #C3BA5C",
"P+	c #DDD464",
"Q+	c #DCD162",
"R+	c #DCD163",
"S+	c #E8DE64",
"T+	c #E0D65B",
"U+	c #D3C84A",
"V+	c #C2B73D",
"W+	c #D5CB50",
"X+	c #E4DA69",
"Y+	c #ECE377",
"Z+	c #EFE67B",
"`+	c #BEB86D",
" @	c #737056",
".@	c #726F55",
"+@	c #F0E77B",
"@@	c #EBE277",
"#@	c #E3D969",
"$@	c #D4CA50",
"%@	c #C4B941",
"&@	c #D7CD56",
"*@	c #E6DD74",
"=@	c #EEE788",
"-@	c #F1E98D",
";@	c #F2EA8E",
">@	c #DED788",
",@	c #A19E75",
"'@	c #86846D",
")@	c #F1E98E",
"!@	c #C3B840",
"~@	c #D8CE5C",
"{@	c #E8E081",
"]@	c #F1EA98",
"^@	c #F3ED9E",
"/@	c #F4ED9F",
"(@	c #E4DE9A",
"_@	c #B2AF8B",
":@	c #A3A087",
"<@	c #999783",
"[@	c #A3A187",
"}@	c #C6C291",
"|@	c #F0E997",
"1@	c #E8DF81",
"2@	c #C3B942",
"3@	c #AEA536",
"4@	c #C5BA44",
"5@	c #D9D061",
"6@	c #EAE28C",
"7@	c #F2ECA6",
"8@	c #F5F0AE",
"9@	c #F6F0B0",
"0@	c #F5EFAE",
"a@	c #F2ECA7",
"b@	c #EAE28D",
"c@	c #D8CF61",
"d@	c #C4B943",
"e@	c #ADA335",
"f@	c #ADA336",
"g@	c #C1B743",
"h@	c #D6CD62",
"i@	c #E9E290",
"j@	c #F1EBAB",
"k@	c #F4EFB3",
"l@	c #F5F0B5",
"m@	c #E8E18F",
"n@	c #C0B742",
"o@	c #ACA236",
"p@	c #A79E34",
"q@	c #BBB140",
"r@	c #CFC65B",
"s@	c #EAE499",
"t@	c #EDE79F",
"u@	c #EEE89F",
"v@	c #EEE8A0",
"w@	c #EAE398",
"x@	c #CEC55B",
"y@	c #BBB040",
"z@	c #A69D33",
"A@	c #A19832",
"B@	c #B2A839",
"C@	c #C2B948",
"D@	c #CFC65C",
"E@	c #D8CF68",
"F@	c #DBD36D",
"G@	c #DCD46D",
"H@	c #CFC55C",
"I@	c #C1B848",
"J@	c #A09731",
"K@	c #978F2E",
"L@	c #A69D34",
"M@	c #BBB141",
"N@	c #C2B745",
"O@	c #C5BA46",
"P@	c #C6BB47",
"Q@	c #A59C34",
"R@	c #968E2E",
"S@	c #AFA637",
"  . + @ # $ $ $ $ $ $ $ $ $ $ $ $ $ $ $ $ $ $ $ $ $ % & * + .   ",
". = - ; > , ' ' ' ' ' ' ' ' ' ' ' ' ' ' ' ' ' ' ' ' , > ; - ) ! ",
"~ { ] ^ / ( _ _ _ _ _ _ _ _ _ _ _ _ _ _ _ _ _ _ _ _ ( / ^ : - + ",
"< [ } | 1 2 2 2 2 2 3 3 2 3 3 2 2 2 2 2 3 2 2 2 3 3 3 4 5 6 7 * ",
"8 9 0 a b c c c c c c c c c c c c c c c c c c c c c c d a e 9 f ",
"g h i j k l l l l l l l l l l l l l l l l l l l l l m k j n o p ",
"q r s t u v w w w w w w w w w w w w w w w w w w w w v x y s z A ",
"q B C D E F G G G H H H G G G G G H H G G G G G H H I J K L M A ",
"N O P Q R S T U V V U T W W W X W W W W Y U V Z U T S ` Q  ...+.",
"@.#.$.%.&.*.=.-.-.;.-.=.>.*.>.*.*.*.*.*.=.-.-.-.-.=.*.,.%.'.).!.",
"~.{.].^./.(._.:.:.:.:._.<.<.<.<.<.<.<.<._.:.:.:.:._.(.[.}.|.1.2.",
"3.4.5.6.7.8.9.0.a.a.a.b.c.c.c.c.d.d.c.d.b.0.a.0.0.b.e.7.f.g.h.i.",
"j.k.l.m.n.o.p.q.r.r.q.p.s.s.s.t.s.s.s.s.p.q.q.q.q.p.o.u.v.w.x.y.",
"z.A.B.C.D.E.F.G.H.I.J.F.K.K.L.K.L.L.K.L.M.G.H.H.G.M.N.O.P.Q.R.S.",
"T.U.V.W.X.Y.Z.Z.Z.Z.Z.`.Z.`.Z.Z.Z.Z.Z.Z.Z.Z.Z.Z.`.Z.Y. +.+++@+#+",
"T.$+%+&+*+=+-+;+;+-+-+-+-+-+;+;+-+-+-+;+-+;+-+;+-+-+>+,+'+)+!+#+",
"~+{+]+^+/+(+_+_+_+_+_+_+_+_+_+_+_+_+_+_+_+_+_+_+_+_+(+:+<+[+}+|+",
"1+2+3+4+5+6+7+7+7+7+7+7+7+7+7+7+7+7+7+7+7+7+7+7+7+7+6+8+9+0+a+b+",
"c+d+e+f+g+h+i+i+i+i+i+i+i+i+i+i+i+i+i+i+i+i+i+i+i+i+h+j+k+l+m+n+",
"c+d+e+f+g+h+i+i+i+i+i+i+i+i+i+i+i+i+i+i+i+i+i+i+i+i+h+j+k+l+m+n+",
"c+d+o+p+q+r+s+s+s+s+s+s+s+s+s+s+s+s+s+s+s+s+s+s+s+s+r+t+u+v+m+n+",
"c+w+x+y+z+A+B+C+C+B+B+B+B+B+B+B+C+B+C+C+B+B+B+C+C+B+A+D+E+F+G+n+",
"1+H+I+J+ +K+L+L+M+M+M+M+N+O+P+Q+R+P+O+N+M+M+M+L+L+M+K+S+T+U+V+b+",
"1+{+W+X+Y+Z+s.s.s.s.s.s.`+ @ @ @.@ @ @`+s.s.+@s.+@s.Z+@@#@$@}+b+",
"1+%@&@*@=@-@;@;@;@;@;@>@,@'@'@'@'@'@'@,@>@;@;@;@;@;@)@7.v.++!@b+",
"1+$+~@{@]@^@/@/@/@/@/@(@=._@:@<@<@[@_@}@(@/@/@/@/@/@/@|@1@Q.2@b+",
"3@4@5@6@7@8@9@9@9@9@9@9@9@9@9@9@9@9@9@9@9@9@9@9@9@9@0@a@b@c@d@e@",
"f@g@h@i@j@k@l@l@l@E l@E l@l@l@l@l@l@l@E l@l@E E l@l@k@j@m@h@n@o@",
"p@q@r@$.s@t@u@u@v@v@v@v@v@v@v@v@v@u@u@v@v@u@u@v@u@v@t@w@'.x@y@z@",
"A@B@C@D@E@F@G@G@G@G@G@G@G@G@G@G@G@G@G@G@G@G@G@G@G@G@F@E@H@I@z.J@",
"K@L@z.M@N@O@P@P@P@P@P@P@P@P@P@P@P@P@P@P@P@P@P@P@P@P@O@N@M@z.Q@R@",
"  K@J@p@f@S@S@S@S@S@S@S@S@S@S@S@S@S@S@S@S@S@S@S@S@S@|+o@z@J@K@  "};
