/* XPM */
static const char * xpm_morale_good[] = {
"32 32 365 2",
"  	c None",
". 	c #3A9933",
"+ 	c #44A63C",
"@ 	c #49AD41",
"# 	c #4CB345",
"$ 	c #4DB546",
"% 	c #4DB446",
"& 	c #4CB245",
"* 	c #48AC40",
"= 	c #4AAC43",
"- 	c #60BD59",
"; 	c #6EC968",
"> 	c #74CF6D",
", 	c #75D16E",
"' 	c #75D26E",
") 	c #4AAB43",
"! 	c #3B9934",
"~ 	c #43A63C",
"{ 	c #61BE59",
"] 	c #8DD787",
"^ 	c #A8E4A4",
"/ 	c #B1EAAD",
"( 	c #B2EBAE",
"_ 	c #B2ECAE",
": 	c #48AD41",
"< 	c #6EC967",
"[ 	c #A4E39F",
"} 	c #C6F1C3",
"| 	c #D1F5CE",
"1 	c #D2F6D0",
"2 	c #D2F6CF",
"3 	c #D0F5CD",
"4 	c #C6F0C3",
"5 	c #6DC967",
"6 	c #4AB242",
"7 	c #6FCD68",
"8 	c #A7E7A3",
"9 	c #CAF4C7",
"0 	c #D3F7D1",
"a 	c #D6F9D3",
"b 	c #D5F9D3",
"c 	c #D4F7D2",
"d 	c #A8E7A3",
"e 	c #6ECD68",
"f 	c #4BB143",
"g 	c #4AB342",
"h 	c #6FD068",
"i 	c #A3E89E",
"j 	c #C4F3C0",
"k 	c #CDF7CA",
"l 	c #CFF9CC",
"m 	c #D0F9CC",
"n 	c #CFF9CB",
"o 	c #A4E79F",
"p 	c #6FCF67",
"q 	c #49B442",
"r 	c #6CCF65",
"s 	c #9DE697",
"t 	c #BBF2B7",
"u 	c #C4F6C1",
"v 	c #C5F8C2",
"w 	c #C6F8C2",
"x 	c #C4F6C0",
"y 	c #6CCE64",
"z 	c #68CE61",
"A 	c #95E490",
"B 	c #B2F0AD",
"C 	c #BAF5B6",
"D 	c #BBF6B7",
"E 	c #BCF7B8",
"F 	c #BBF7B7",
"G 	c #BCF6B8",
"H 	c #BAF4B5",
"I 	c #B1F0AC",
"J 	c #68CD60",
"K 	c #47B33F",
"L 	c #64CD5D",
"M 	c #8EE288",
"N 	c #A7EEA2",
"O 	c #AFF3AB",
"P 	c #B1F5AC",
"Q 	c #AEEDAA",
"R 	c #A3CEA0",
"S 	c #9AB498",
"T 	c #B1F6AC",
"U 	c #B0F5AB",
"V 	c #AEEDA9",
"W 	c #99B397",
"X 	c #AFF3AA",
"Y 	c #64CC5C",
"Z 	c #48B240",
"` 	c #46B33F",
" .	c #61CB59",
"..	c #86E180",
"+.	c #9CEC96",
"@.	c #A4F29F",
"#.	c #A6F4A0",
"$.	c #95C792",
"%.	c #869A84",
"&.	c #879A85",
"*.	c #A5F4A0",
"=.	c #A4F19F",
"-.	c #86E080",
";.	c #61CA58",
">.	c #47B13F",
",.	c #45B23D",
"'.	c #5DCA55",
").	c #7EDE77",
"!.	c #91EA8B",
"~.	c #99F093",
"{.	c #9BF294",
"].	c #7D9E7B",
"^.	c #778D75",
"/.	c #9BF394",
"(.	c #99EF93",
"_.	c #91E98B",
":.	c #7DDD76",
"<.	c #5DC954",
"[.	c #45B03D",
"}.	c #43B23B",
"|.	c #59C951",
"1.	c #75DC6E",
"2.	c #87E880",
"3.	c #8EEE87",
"4.	c #90F189",
"5.	c #6F946C",
"6.	c #698167",
"7.	c #688066",
"8.	c #6E936B",
"9.	c #8FF188",
"0.	c #87E780",
"a.	c #75DB6E",
"b.	c #59C850",
"c.	c #44B03C",
"d.	c #42B13B",
"e.	c #55C84D",
"f.	c #6DDA65",
"g.	c #7CE675",
"h.	c #82EC7B",
"i.	c #84EF7C",
"j.	c #6EB269",
"k.	c #597457",
"l.	c #5A7558",
"m.	c #84F07C",
"n.	c #85F07D",
"o.	c #82EC7A",
"p.	c #7CE575",
"q.	c #6DD965",
"r.	c #55C74C",
"s.	c #43B03B",
"t.	c #41B139",
"u.	c #51C649",
"v.	c #65D85C",
"w.	c #73E46B",
"x.	c #77EB6F",
"y.	c #7AEE72",
"z.	c #75E16D",
"A.	c #61AB5C",
"B.	c #527E4F",
"C.	c #537F50",
"D.	c #62AB5D",
"E.	c #7AEF72",
"F.	c #79EF71",
"G.	c #75E16E",
"H.	c #79EE71",
"I.	c #78EA6F",
"J.	c #73E46C",
"K.	c #65D75C",
"L.	c #51C548",
"M.	c #41AF39",
"N.	c #40B038",
"O.	c #4EC545",
"P.	c #5ED656",
"Q.	c #69E260",
"R.	c #6EE966",
"S.	c #70ED67",
"T.	c #70EE67",
"U.	c #6FEE66",
"V.	c #6EE965",
"W.	c #69E160",
"X.	c #4EC444",
"Y.	c #40AE38",
"Z.	c #4BC442",
"`.	c #58D54F",
" +	c #61E158",
".+	c #64E85B",
"++	c #66EC5D",
"@+	c #66EC5C",
"#+	c #65E75B",
"$+	c #61E058",
"%+	c #57D44E",
"&+	c #4BC341",
"*+	c #3FB037",
"=+	c #48C340",
"-+	c #52D349",
";+	c #58DF4F",
">+	c #5CE753",
",+	c #5EEB54",
"'+	c #5CE652",
")+	c #59DE50",
"!+	c #52D249",
"~+	c #48C23F",
"{+	c #3FAE37",
"]+	c #3EAF36",
"^+	c #46C33D",
"/+	c #4DD243",
"(+	c #53DE49",
"_+	c #55E64C",
":+	c #57EA4D",
"<+	c #57EB4D",
"[+	c #55E54B",
"}+	c #53DD49",
"|+	c #4DD143",
"1+	c #46C23C",
"2+	c #3EAD36",
"3+	c #3DAF35",
"4+	c #44C23B",
"5+	c #49D13F",
"6+	c #4DDD43",
"7+	c #50E546",
"8+	c #52E947",
"9+	c #52EA47",
"0+	c #50E445",
"a+	c #4DDC43",
"b+	c #49D03F",
"c+	c #44C13A",
"d+	c #3DAD35",
"e+	c #51E846",
"f+	c #4AD141",
"g+	c #4EDD44",
"h+	c #53E549",
"i+	c #55E94A",
"j+	c #55EA4A",
"k+	c #49C840",
"l+	c #2D7927",
"m+	c #36922F",
"n+	c #53E448",
"o+	c #4FDC45",
"p+	c #4AD041",
"q+	c #45C23D",
"r+	c #4DD244",
"s+	c #57DF4D",
"t+	c #5DE754",
"u+	c #5DE153",
"v+	c #5AD850",
"w+	c #49AB42",
"x+	c #357331",
"y+	c #284B26",
"z+	c #336B2F",
"A+	c #57D04E",
"B+	c #60EC56",
"C+	c #60EC55",
"D+	c #5DE653",
"E+	c #57DE4D",
"F+	c #4DD144",
"G+	c #45C13C",
"H+	c #47C33E",
"I+	c #54D44A",
"J+	c #63E15B",
"K+	c #6CDE63",
"L+	c #58A652",
"M+	c #477644",
"N+	c #487745",
"O+	c #446B41",
"P+	c #405F3E",
"Q+	c #497846",
"R+	c #57A152",
"S+	c #62C35C",
"T+	c #6CDD64",
"U+	c #6BDC62",
"V+	c #6BDC63",
"W+	c #59A653",
"X+	c #6CDE64",
"Y+	c #6DE864",
"Z+	c #63E05B",
"`+	c #54D34A",
" @	c #47C23D",
".@	c #59D550",
"+@	c #71E469",
"@@	c #7FEC77",
"#@	c #83EF7B",
"$@	c #6FB56A",
"%@	c #587356",
"&@	c #577255",
"*@	c #6EB569",
"=@	c #83F07B",
"-@	c #7FEB77",
";@	c #71E369",
">@	c #59D450",
",@	c #4AC441",
"'@	c #5FD756",
")@	c #7CE674",
"!@	c #8EEE88",
"~@	c #94F18D",
"{@	c #94F28E",
"]@	c #92EC8C",
"^@	c #81BD7E",
"/@	c #728F70",
"(@	c #6F866D",
"_@	c #94F18E",
":@	c #5FD656",
"<@	c #4AC340",
"[@	c #64D85C",
"}@	c #88E881",
"|@	c #9EF198",
"1@	c #A4F39E",
"2@	c #A5F49F",
"3@	c #9DDE98",
"4@	c #8EB28B",
"5@	c #88A387",
"6@	c #859983",
"7@	c #89A387",
"8@	c #95C691",
"9@	c #9EF097",
"0@	c #64D75C",
"a@	c #4BC342",
"b@	c #3EAE36",
"c@	c #4DC544",
"d@	c #69D961",
"e@	c #92EA8C",
"f@	c #ABF2A6",
"g@	c #B3F5AE",
"h@	c #B4F6B0",
"i@	c #ACF2A7",
"j@	c #93EA8D",
"k@	c #69D861",
"l@	c #4DC443",
"m@	c #4CC143",
"n@	c #6AD662",
"o@	c #96E990",
"p@	c #B0F1AB",
"q@	c #B8F4B3",
"r@	c #B9F5B5",
"s@	c #96E88F",
"t@	c #4BC042",
"u@	c #3EAC36",
"v@	c #3CA734",
"w@	c #48BB40",
"x@	c #62CF5B",
"y@	c #9EEA99",
"z@	c #A4ED9F",
"A@	c #A4EE9F",
"B@	c #A5EEA0",
"C@	c #9EEA98",
"D@	c #62CE5B",
"E@	c #47BB40",
"F@	c #3BA633",
"G@	c #39A132",
"H@	c #42B239",
"I@	c #50C248",
"J@	c #64CF5C",
"K@	c #70D868",
"L@	c #75DB6D",
"M@	c #75DC6D",
"N@	c #50C148",
"O@	c #39A031",
"P@	c #35972E",
"Q@	c #3CA634",
"R@	c #48BB41",
"S@	c #4DC245",
"T@	c #4FC546",
"U@	c #4FC647",
"V@	c #3CA534",
"W@	c #35962E",
"X@	c #3FAF37",
"  . + @ # $ $ $ $ $ $ $ $ $ $ $ $ $ $ $ $ $ $ $ $ $ % & * + .   ",
". = - ; > , ' ' ' ' ' ' ' ' ' ' ' ' ' ' ' ' ' ' ' ' , > ; - ) ! ",
"~ { ] ^ / ( _ _ _ _ _ _ _ _ _ _ _ _ _ _ _ _ _ _ _ _ ( / ^ ] - + ",
": < [ } | 1 1 1 1 1 2 2 1 2 2 1 1 1 1 1 2 1 1 1 2 2 2 3 4 [ 5 * ",
"6 7 8 9 0 a a b a a a a b a a b a b a a a b b b b a a c 9 d e f ",
"g h i j k l l l m m l l m m l l m m l l l l l l l l n k j o p g ",
"q r s t u v v v v v v v v v v v v w w v v w v v v v v x t s y 6 ",
"q z A B C D E E E F F F E E E E E F F E E E E E F F G H I A J 6 ",
"K L M N O P Q R S S R Q T T T U T T T T V R S W R Q P X N M Y Z ",
"`  ...+.@.#.$.%.%.&.%.$.#.*.#.*.*.*.*.*.$.%.%.%.%.$.#.=.+.-.;.>.",
",.'.).!.~.{.].^.^.^.^.]././././././././.].^.^.^.^.].{.(._.:.<.[.",
"}.|.1.2.3.4.5.6.7.7.7.8.9.9.9.9.4.4.9.4.8.6.7.6.6.8.9.3.0.a.b.c.",
"d.e.f.g.h.i.j.k.l.l.k.j.m.m.m.n.m.m.m.m.j.k.k.k.k.j.i.o.p.q.r.s.",
"t.u.v.w.x.y.z.A.B.C.D.z.E.E.F.E.F.F.E.F.G.A.B.B.A.G.H.I.J.K.L.M.",
"N.O.P.Q.R.S.T.T.T.T.T.U.T.U.T.T.T.T.T.T.T.T.T.T.U.T.S.V.W.P.X.Y.",
"N.Z.`. +.+++++@+@+++++++++++@+@+++++++@+++@+++@+++++@+#+$+%+&+Y.",
"*+=+-+;+>+,+,+,+,+,+,+,+,+,+,+,+,+,+,+,+,+,+,+,+,+,+,+'+)+!+~+{+",
"]+^+/+(+_+:+<+<+<+<+<+<+<+<+<+<+<+<+<+<+<+<+<+<+<+<+:+[+}+|+1+2+",
"3+4+5+6+7+8+9+9+9+9+9+9+9+9+9+9+9+9+9+9+9+9+9+9+9+9+8+0+a+b+c+d+",
"3+4+5+6+7+8+9+9+9+e+9+9+9+9+9+9+9+9+9+9+9+9+e+9+9+9+8+0+a+b+c+d+",
"3+4+f+g+h+i+j+j+k+l+m+j+j+j+j+j+j+j+j+j+j+m+l+k+j+j+i+n+o+p+c+d+",
"3+q+r+s+t+u+v+w+x+y+z+A+B+B+B+B+C+B+C+C+A+z+y+x+w+v+u+D+E+F+G+d+",
"]+H+I+J+V.K+L+M+N+O+P+Q+R+S+T+U+V+T+S+R+Q+P+O+M+M+W+X+Y+Z+`+ @2+",
"]+=+.@+@@@#@m.m.m.$@%@%@%@%@%@%@&@%@%@%@%@%@*@m.=@m.#@-@;@>@~+2+",
"]+,@'@)@!@~@{@{@{@]@^@/@(@(@(@(@(@(@(@(@/@^@]@{@{@{@_@3.p.:@<@2+",
"]+Z.[@}@|@1@2@2@2@2@2@3@$.4@5@6@6@7@4@8@3@2@2@2@2@2@2@9@}@0@a@2+",
"b@c@d@e@f@g@h@h@h@h@h@h@h@h@h@h@h@h@h@h@h@h@h@h@h@h@g@i@j@k@l@d+",
"2+m@n@o@p@q@r@r@r@C r@C r@r@r@r@r@r@r@C r@r@C C r@r@q@p@s@n@t@u@",
"v@w@x@..y@z@A@A@B@B@B@B@B@B@B@B@B@A@A@B@B@A@A@B@A@B@z@C@-.D@E@F@",
"G@H@I@J@K@L@M@M@M@M@M@M@M@M@M@M@M@M@M@M@M@M@M@M@M@M@L@K@J@N@t.O@",
"P@Q@t.R@S@T@U@U@U@U@U@U@U@U@U@U@U@U@U@U@U@U@U@U@U@U@T@S@R@t.V@W@",
"  P@O@v@2+X@X@X@X@X@X@X@X@X@X@X@X@X@X@X@X@X@X@X@X@X@{+u@F@O@P@  "};
