/* XPM */
static const char * xpm_not_activated[] = {
"8 8 4 1",
" 	c None",
".	c #000000",
"+	c #A2A2A2",
"@	c #FFFFFF",
"        ",
"   ..   ",
"  .++.  ",
" .+@++. ",
" .++++. ",
"  .++.  ",
"   ..   ",
"        "};
