/* XPM */
static const char * xpm_parameter[] = {
"16 16 136 2",
"  	c None",
". 	c #A79E76",
"+ 	c #FFFFFF",
"@ 	c #FDFDFC",
"# 	c #FBFAF7",
"$ 	c #F8F7F2",
"% 	c #F5F3EB",
"& 	c #F1EFE5",
"* 	c #EEEBDE",
"= 	c #EAE6D6",
"- 	c #E6E1CE",
"; 	c #FDFDFB",
"> 	c #FBFAF6",
", 	c #F8F7F1",
"' 	c #F1EFE4",
") 	c #EDEADD",
"! 	c #E9E6D5",
"~ 	c #E5E1CD",
"{ 	c #E1DCC5",
"] 	c #FDFCFB",
"^ 	c #FAFAF6",
"/ 	c #C9EBCA",
"( 	c #848A94",
"_ 	c #96BD9D",
": 	c #C2EAC4",
"< 	c #E9E5D4",
"[ 	c #E5E0CC",
"} 	c #E1DBC4",
"| 	c #DCD6BC",
"1 	c #FAF9F5",
"2 	c #ADF294",
"3 	c #8BE470",
"4 	c #AB9FAD",
"5 	c #2D9A20",
"6 	c #1EAD28",
"7 	c #E4E0CC",
"8 	c #E0DBC3",
"9 	c #DCD6BB",
"0 	c #D7D1B2",
"a 	c #BCE9B0",
"b 	c #64DD3D",
"c 	c #8DEA6D",
"d 	c #96AC90",
"e 	c #268F1F",
"f 	c #009B00",
"g 	c #35AB48",
"h 	c #DBD5BA",
"i 	c #D7D0B1",
"j 	c #D2CBA9",
"k 	c #BCDAC2",
"l 	c #59C24A",
"m 	c #5CD934",
"n 	c #52CD35",
"o 	c #2CB71D",
"p 	c #1C9F1D",
"q 	c #387D5E",
"r 	c #D6D0B1",
"s 	c #D2CBA8",
"t 	c #CEC6A0",
"u 	c #EFEDE1",
"v 	c #90CE94",
"w 	c #279345",
"x 	c #39B636",
"y 	c #88AD25",
"z 	c #B8BC6C",
"A 	c #817F86",
"B 	c #B9A052",
"C 	c #CCC9A3",
"D 	c #C9C097",
"E 	c #EBE8D8",
"F 	c #E7E3D0",
"G 	c #E3DEC8",
"H 	c #409746",
"I 	c #BEA129",
"J 	c #FDCD84",
"K 	c #918E89",
"L 	c #BC8905",
"M 	c #BBA145",
"N 	c #C5BB8E",
"O 	c #E7E2D0",
"P 	c #E2DDC7",
"Q 	c #DED8BF",
"R 	c #D7BE75",
"S 	c #EFB93F",
"T 	c #EDC873",
"U 	c #8F897E",
"V 	c #A5740F",
"W 	c #CE9103",
"X 	c #B8AE7A",
"Y 	c #DED8BE",
"Z 	c #D9D3B6",
"` 	c #B1967B",
" .	c #E3AD44",
"..	c #F1BB42",
"+.	c #DAAC3B",
"@.	c #D69C13",
"#.	c #BD860F",
"$.	c #848D94",
"%.	c #DDD7BD",
"&.	c #D9D2B5",
"*.	c #D4CDAC",
"=.	c #D0C8A4",
"-.	c #B07F41",
";.	c #A5762F",
">.	c #D39E2B",
",.	c #946828",
"'.	c #99793E",
").	c #B9AD77",
"!.	c #D8D2B4",
"~.	c #D4CDAB",
"{.	c #CFC8A3",
"].	c #CBC39B",
"^.	c #C7BE93",
"/.	c #C3B98B",
"(.	c #86766B",
"_.	c #BCB17D",
":.	c #B6A971",
"<.	c #D3CCAB",
"[.	c #CFC7A2",
"}.	c #CBC29A",
"|.	c #C7BD92",
"1.	c #C3B98A",
"2.	c #BFB483",
"3.	c #BBB07C",
"4.	c #B8AC76",
"5.	c #B5A971",
"6.	c #B3A66C",
"7.	c #CFC7A1",
"8.	c #CAC299",
"9.	c #C6BD91",
"0.	c #C2B889",
"a.	c #BFB482",
"b.	c #B8AC75",
"c.	c #B5A970",
"d.	c #B3A66B",
"e.	c #B1A468",
"    . . . . . . . . . . . .     ",
"    . + + @ # $ % & * = - .     ",
"    . + ; > , % ' ) ! ~ { .     ",
"    . ] ^ / ( _ : < [ } | .     ",
"    . 1 2 3 4 5 6 7 8 9 0 .     ",
"    . a b c d e f g h i j .     ",
"    . k l m n o p q r s t .     ",
"    . u v w x y z A B C D .     ",
"    . E F G H I J K L M N .     ",
"    . O P Q R S T U V W X .     ",
"    . P Y Z `  ...+.@.#.$..     ",
"    . %.&.*.=.-.;.>.,.'.)..     ",
"    . !.~.{.].^./.(._.).:..     ",
"    . <.[.}.|.1.2.3.4.5.6..     ",
"    . 7.8.9.0.a.3.b.c.d.e..     ",
"    . . . . . . . . . . . .     "};
