/* XPM */
static const char * xpm_parameter2[] = {
"16 16 73 1",
" 	c None",
".	c #2C681E",
"+	c #22490C",
"@	c #399839",
"#	c #2B681E",
"$	c #379236",
"%	c #40B248",
"&	c #369537",
"*	c #2A691F",
"=	c #3B9D3D",
"-	c #3FB148",
";	c #3CAA43",
">	c #38A33F",
",	c #318B32",
"'	c #28671D",
")	c #3FB047",
"!	c #3BA943",
"~	c #38A23F",
"{	c #349B3B",
"]	c #319336",
"^	c #2C862F",
"/	c #379135",
"(	c #3FAF47",
"_	c #38A13F",
":	c #349A3A",
"<	c #309336",
"[	c #2D8A32",
"}	c #266A1F",
"|	c #1B3909",
"1	c #3DAD46",
"2	c #3BA842",
"3	c #37A13E",
"4	c #34993A",
"5	c #309236",
"6	c #2D8A31",
"7	c #22480C",
"8	c #193509",
"9	c #060D02",
"0	c #33842E",
"a	c #3DAD45",
"b	c #3BA742",
"c	c #37A03E",
"d	c #339939",
"e	c #309135",
"f	c #2C8A31",
"g	c #266C20",
"h	c #183308",
"i	c #000000",
"j	c #2A671D",
"k	c #338B32",
"l	c #379F3D",
"m	c #339839",
"n	c #2C8831",
"o	c #25641C",
"p	c #1C3B0A",
"q	c #081203",
"r	c #0C1A04",
"s	c #275F19",
"t	c #2D7D2A",
"u	c #2F9035",
"v	c #2C8830",
"w	c #193609",
"x	c #030601",
"y	c #0B1704",
"z	c #21480C",
"A	c #276F22",
"B	c #1E400A",
"C	c #081103",
"D	c #20450B",
"E	c #1B3A0A",
"F	c #091303",
"G	c #070F02",
"H	c #010301",
"                ",
"         .      ",
"        +@#     ",
"       +$%&*    ",
"      +=-;>,'+  ",
"     ++)!~{]^+  ",
"    +/(!_:<[}|  ",
"   ++123456789  ",
"  +0abcdefghi   ",
"   jklmenopqi   ",
"  irstuv+wx     ",
"   iyzAgBCi     ",
"    iqDEFi      ",
"     iGFi       ",
"      iH        ",
"                "};
