/* XPM */
static const char * xpm_parent[] = {
"20 20 3 1",
" 	c None",
".	c #4D4D4D",
"+	c #FDF16B",
"                    ",
"                    ",
"                    ",
"                    ",
"     .....          ",
"    .+++++.         ",
"   ..............   ",
"   .+++++++++++++.  ",
"   .++++.++++++++.  ",
"   .+++...+++++++.  ",
"   .++.....++++++.  ",
"   .++++.++++++++.  ",
"   .++++.++++++++.  ",
"   .++++......+++.  ",
"   .+++++++++++++.  ",
"   .+++++++++++++.  ",
"   ...............  ",
"                    ",
"                    ",
"                    "};
