/* XPM */ 
static const char * xpm_radars_on[] = {
"32 32 6 1",
" 	c None",
"!	c black",
"#	c #6C6C6C",
"$	c #B8B8B8",
"%	c #7EBA00",
"&	c #55F000",
"                                ",
"                                ",
"                                ",
"                                ",
"                                ",
"                                ",
"               #####            ",
"            ###!!$!!###         ",
"           #%%%$$$$$!!!#        ",
"         ##%%$%!!$!!$$!!##      ",
"         #%%$%%%!$!!!!$!!#      ",
"        #%%$%%%%!$!!!!&&!!#     ",
"       #!!%%%%%$%$$$!!&&$!!#    ",
"       #!!&&%%$%%$!!$!!!$!!#    ",
"       #!$!!!%%%%$!!!$!!!$!#    ",
"      #!!$!!!$!%%%!!!$!!!$!!#   ",
"      #$$$$$$$$$$%$$$$$$$$$$$   ",
"      #!!$!!!$!!!$!!!$!!!$!!#   ",
"      #!!$!!!$&&!$!!!$!!!$!!#   ",
"       #!!$!!!&&!$!!$!!!$!!#    ",
"       #!!$!!!!$$$$$!!!!$!!#    ",
"       #!!!$!!!!!$!!&&!$!!!#    ",
"        #!!!$!!!!$!!&&$!!!#     ",
"         #!!!$$!!$!!$$!!!#      ",
"         ##!!!!$$$$$!!!!##      ",
"           #!!!!!$!!!!!#        ",
"            ###!!$!!###         ",
"               #####            ",
"                                ",
"                                ",
"                                ",
"                                "};
