/* XPM */
static const char * xpm_reinforced[] = {
"20 20 254 2",
"  	c #000000",
". 	c #040404",
"+ 	c #080808",
"@ 	c #0C0C0C",
"# 	c #111111",
"$ 	c #171717",
"% 	c #1D1D1D",
"& 	c #232323",
"* 	c #292929",
"= 	c #303030",
"- 	c #373737",
"; 	c #3F3F3F",
"> 	c #464646",
", 	c #4E4E4E",
"' 	c #565656",
") 	c #5E5E5E",
"! 	c #666666",
"~ 	c #6F6F6F",
"{ 	c #777777",
"] 	c #7F7F7F",
"^ 	c #030303",
"/ 	c #F4F4F4",
"( 	c #F0F0F0",
"_ 	c #EBEBEB",
": 	c #E6E6E6",
"< 	c #E1E1E1",
"[ 	c #DCDCDC",
"} 	c #D6D6D6",
"| 	c #D0D0D0",
"1 	c #CACACA",
"2 	c #C4C4C4",
"3 	c #BEBEBE",
"4 	c #B7B7B7",
"5 	c #B0B0B0",
"6 	c #A9A9A9",
"7 	c #A2A2A2",
"8 	c #9B9B9B",
"9 	c #949494",
"0 	c #8D8D8D",
"a 	c #878787",
"b 	c #070707",
"c 	c #EFEFEF",
"d 	c #A2DB8B",
"e 	c #A4DB8E",
"f 	c #A6DC91",
"g 	c #A8DD94",
"h 	c #ABDE97",
"i 	c #0B4108",
"j 	c #C0E6B0",
"k 	c #C3E8B4",
"l 	c #C6E9B8",
"m 	c #C9EABC",
"n 	c #CDEBC1",
"o 	c #858585",
"p 	c #8F8F8F",
"q 	c #EAEAEA",
"r 	c #A6DC90",
"s 	c #A8DD93",
"t 	c #ADDF9A",
"u 	c #6ED845",
"v 	c #74D94C",
"w 	c #7ADB54",
"x 	c #80DC5B",
"y 	c #C3E7B4",
"z 	c #CCEBC0",
"A 	c #D0EDC4",
"B 	c #7D7D7D",
"C 	c #979797",
"D 	c #101010",
"E 	c #E5E5E5",
"F 	c #ABDE96",
"G 	c #B0E09D",
"H 	c #73D94C",
"I 	c #79DB53",
"J 	c #7FDC5B",
"K 	c #85DE63",
"L 	c #D0ECC4",
"M 	c #D3EEC8",
"N 	c #757575",
"O 	c #9F9F9F",
"P 	c #151515",
"Q 	c #DFDFDF",
"R 	c #B3E1A1",
"S 	c #85DE62",
"T 	c #8BDF6A",
"U 	c #CFECC4",
"V 	c #D6EFCC",
"W 	c #6D6D6D",
"X 	c #A7A7A7",
"Y 	c #1B1B1B",
"Z 	c #D9D9D9",
"` 	c #AADE96",
" .	c #ADDF99",
"..	c #B3E1A0",
"+.	c #B6E2A4",
"@.	c #7FDC5A",
"#.	c #91E172",
"$.	c #D2EEC8",
"%.	c #D9F0D0",
"&.	c #AEAEAE",
"*.	c #212121",
"=.	c #D3D3D3",
"-.	c #B5E2A4",
";.	c #B9E4A8",
">.	c #84DE62",
",.	c #8ADF6A",
"'.	c #91E171",
").	c #97E379",
"!.	c #DCF1D4",
"~.	c #B6B6B6",
"{.	c #272727",
"].	c #CCCCCC",
"^.	c #3D822D",
"/.	c #8ADF69",
"(.	c #90E171",
"_.	c #9DE481",
":.	c #4A853D",
"<.	c #BDBDBD",
"[.	c #2D2D2D",
"}.	c #C5C5C5",
"|.	c #72D94A",
"1.	c #78DA52",
"2.	c #7EDC59",
"3.	c #84DD61",
"4.	c #96E279",
"5.	c #A3E689",
"6.	c #A9E891",
"7.	c #AFE999",
"8.	c #B5EBA1",
"9.	c #BCEDA9",
"0.	c #C2EEB0",
"a.	c #4F4F4F",
"b.	c #343434",
"c.	c #78DA51",
"d.	c #7DDC59",
"e.	c #83DD60",
"f.	c #8ADF68",
"g.	c #90E170",
"h.	c #96E278",
"i.	c #9CE480",
"j.	c #A2E688",
"k.	c #A9E890",
"l.	c #AFE998",
"m.	c #B5EBA0",
"n.	c #BBEDA8",
"o.	c #C1EEB0",
"p.	c #C7F0B7",
"q.	c #474747",
"r.	c #CBCBCB",
"s.	c #3B3B3B",
"t.	c #7DDC58",
"u.	c #89DF68",
"v.	c #8FE170",
"w.	c #A8E790",
"x.	c #BBECA8",
"y.	c #C1EEAF",
"z.	c #CDF1BE",
"A.	c #404040",
"B.	c #D2D2D2",
"C.	c #424242",
"D.	c #478439",
"E.	c #A2E687",
"F.	c #AEE998",
"G.	c #B5EB9F",
"H.	c #538749",
"I.	c #393939",
"J.	c #D8D8D8",
"K.	c #494949",
"L.	c #A8A8A8",
"M.	c #BEE6AE",
"N.	c #C1E7B2",
"O.	c #C4E8B6",
"P.	c #C8E9BA",
"Q.	c #CBEBBE",
"R.	c #A8E78F",
"S.	c #AEE997",
"T.	c #B4EB9F",
"U.	c #BAECA7",
"V.	c #E1F3DA",
"W.	c #E4F5DE",
"X.	c #E7F6E2",
"Y.	c #EAF7E5",
"Z.	c #EDF8E9",
"`.	c #323232",
" +	c #DEDEDE",
".+	c #505050",
"++	c #A0A0A0",
"@+	c #C7E9BA",
"#+	c #CEECC2",
"$+	c #C0EEAE",
"%+	c #E7F6E1",
"&+	c #EDF8E8",
"*+	c #EFF9EC",
"=+	c #2C2C2C",
"-+	c #E4E4E4",
";+	c #585858",
">+	c #999999",
",+	c #CAEBBE",
"'+	c #D1EDC6",
")+	c #B4EA9E",
"!+	c #BAECA6",
"~+	c #C6EFB6",
"{+	c #F2FAEF",
"]+	c #252525",
"^+	c #E9E9E9",
"/+	c #606060",
"(+	c #919191",
"_+	c #CAEABE",
":+	c #D4EECA",
"<+	c #B9ECA6",
"[+	c #BFEEAE",
"}+	c #C5EFB5",
"|+	c #CBF1BD",
"1+	c #EFF9EB",
"2+	c #F4FBF2",
"3+	c #1F1F1F",
"4+	c #EEEEEE",
"5+	c #686868",
"6+	c #898989",
"7+	c #CAEABD",
"8+	c #CDECC1",
"9+	c #D7EFCE",
"0+	c #ECF8E8",
"a+	c #F2FAEE",
"b+	c #F4FBF1",
"c+	c #F6FCF4",
"d+	c #1A1A1A",
"e+	c #F3F3F3",
"f+	c #818181",
"g+	c #7A7A7A",
"h+	c #737373",
"i+	c #6B6B6B",
"j+	c #646464",
"k+	c #5D5D5D",
"l+	c #3C3C3C",
"m+	c #353535",
"n+	c #2F2F2F",
"o+	c #242424",
"p+	c #1E1E1E",
"q+	c #191919",
"r+	c #141414",
"s+	c #F7F7F7",
"t+	c #808080",
"u+	c #888888",
"v+	c #909090",
"w+	c #A1A1A1",
"x+	c #B1B1B1",
"y+	c #B9B9B9",
"z+	c #C0C0C0",
"A+	c #C8C8C8",
"B+	c #CFCFCF",
"C+	c #E2E2E2",
"D+	c #E8E8E8",
"E+	c #FBFBFB",
"  . + @ # $ % & * = - ; > , ' ) ! ~ { ] ",
"^ / ( _ : < [ } | 1 2 3 4 5 6 7 8 9 0 a ",
"b c d e f g h i i i i i i j k l m n o p ",
"@ q e r s h t i u v w x i y l m z A B C ",
"D E r s F t G i H I J K i l m z L M N O ",
"P Q s F t G R i I J S T i m z U M V W X ",
"Y Z `  .G ..+.i @.S T #.i z U $.V %.! &.",
"*.=. .G ..-.;.i >.,.'.).i U $.V %.!.) ~.",
"{.].i i i i i ^./.(.)._.:.i i i i i ' <.",
"[.}.i |.1.2.3./.(.4._.5.6.7.8.9.0.i a.2 ",
"b.3 i c.d.e.f.g.h.i.j.k.l.m.n.o.p.i q.r.",
"s.4 i t.e.u.v.h.i.j.w.l.m.x.y.p.z.i A.B.",
"C.5 i i i i i D.E.w.F.G.H.i i i i i I.J.",
"K.L.M.N.O.P.Q.i R.S.T.U.i V.W.X.Y.Z.`. +",
".+++N.O.@+Q.#+i S.T.U.$+i W.%+Y.&+*+=+-+",
";+>+O.@+,+#+'+i )+!+$+~+i %+Y.&+*+{+]+^+",
"/+(+@+_+#+'+:+i <+[+}+|+i Y.&+1+{+2+3+4+",
"5+6+7+8+'+:+9+i i i i i i 0+1+a+b+c+d+e+",
"~ f+g+h+i+j+k+' a.K.C.l+m+n+* o+p+q+r+s+",
"{ t+u+v+>+w+6 x+y+z+A+B+} [ C+D+4+e+s+E+"};
