/* XPM */
static const char * xpm_reinforcing[] = {
"20 20 191 2",
"  	c #000000",
". 	c #040404",
"+ 	c #080808",
"@ 	c #0C0C0C",
"# 	c #111111",
"$ 	c #171717",
"% 	c #1D1D1D",
"& 	c #232323",
"* 	c #292929",
"= 	c #303030",
"- 	c #373737",
"; 	c #3F3F3F",
"> 	c #464646",
", 	c #4E4E4E",
"' 	c #565656",
") 	c #5E5E5E",
"! 	c #666666",
"~ 	c #6F6F6F",
"{ 	c #777777",
"] 	c #7F7F7F",
"^ 	c #030303",
"/ 	c #F4F4F4",
"( 	c #F0F0F0",
"_ 	c #EBEBEB",
": 	c #E6E6E6",
"< 	c #E1E1E1",
"[ 	c #DCDCDC",
"} 	c #D6D6D6",
"| 	c #D0D0D0",
"1 	c #CACACA",
"2 	c #C4C4C4",
"3 	c #BEBEBE",
"4 	c #B7B7B7",
"5 	c #B0B0B0",
"6 	c #A9A9A9",
"7 	c #A2A2A2",
"8 	c #9B9B9B",
"9 	c #949494",
"0 	c #8D8D8D",
"a 	c #878787",
"b 	c #070707",
"c 	c #EFEFEF",
"d 	c #EFACAC",
"e 	c #EFAEAE",
"f 	c #F0B0B0",
"g 	c #F0B2B2",
"h 	c #F1B4B4",
"i 	c #F1B7B7",
"j 	c #F2B9B9",
"k 	c #F2BCBC",
"l 	c #F3BEBE",
"m 	c #F3C1C1",
"n 	c #F4C4C4",
"o 	c #F4C7C7",
"p 	c #F5C9C9",
"q 	c #F5CCCC",
"r 	c #F6CFCF",
"s 	c #F6D2D2",
"t 	c #858585",
"u 	c #8F8F8F",
"v 	c #EAEAEA",
"w 	c #F1B6B6",
"x 	c #F2BBBB",
"y 	c #F4C6C6",
"z 	c #F7D5D5",
"A 	c #7D7D7D",
"B 	c #979797",
"C 	c #101010",
"D 	c #E5E5E5",
"E 	c #F4C3C3",
"F 	c #F7D8D8",
"G 	c #757575",
"H 	c #9F9F9F",
"I 	c #151515",
"J 	c #DFDFDF",
"K 	c #F8DADA",
"L 	c #6D6D6D",
"M 	c #A7A7A7",
"N 	c #1B1B1B",
"O 	c #D9D9D9",
"P 	c #F3C0C0",
"Q 	c #F7D4D4",
"R 	c #F7D7D7",
"S 	c #F9DDDD",
"T 	c #AEAEAE",
"U 	c #212121",
"V 	c #D3D3D3",
"W 	c #F2B8B8",
"X 	c #F6CECE",
"Y 	c #F6D1D1",
"Z 	c #F9E0E0",
"` 	c #B6B6B6",
" .	c #272727",
"..	c #CCCCCC",
"+.	c #410808",
"@.	c #BDBDBD",
"#.	c #2D2D2D",
"$.	c #C5C5C5",
"%.	c #CB0A0A",
"&.	c #CE1A1A",
"*.	c #D32F2F",
"=.	c #D84949",
"-.	c #DF6666",
";.	c #E58585",
">.	c #EBA3A3",
",.	c #F2C0C0",
"'.	c #F7DADA",
").	c #FCEFEF",
"!.	c #FFFFFF",
"~.	c #4F4F4F",
"{.	c #343434",
"].	c #474747",
"^.	c #CBCBCB",
"/.	c #3B3B3B",
"(.	c #404040",
"_.	c #D2D2D2",
":.	c #424242",
"<.	c #393939",
"[.	c #D8D8D8",
"}.	c #494949",
"|.	c #A8A8A8",
"1.	c #F4C5C5",
"2.	c #F4C8C8",
"3.	c #F5CBCB",
"4.	c #F7D3D3",
"5.	c #F7D6D6",
"6.	c #F8D9D9",
"7.	c #F8DCDC",
"8.	c #F9DFDF",
"9.	c #F9E2E2",
"0.	c #FAE5E5",
"a.	c #FAE7E7",
"b.	c #FBEAEA",
"c.	c #FBECEC",
"d.	c #323232",
"e.	c #DEDEDE",
"f.	c #505050",
"g.	c #A0A0A0",
"h.	c #F6CDCD",
"i.	c #F6D0D0",
"j.	c #FAE4E4",
"k.	c #FCF1F1",
"l.	c #2C2C2C",
"m.	c #E4E4E4",
"n.	c #585858",
"o.	c #999999",
"p.	c #F5CACA",
"q.	c #FDF3F3",
"r.	c #252525",
"s.	c #E9E9E9",
"t.	c #606060",
"u.	c #919191",
"v.	c #F5CDCD",
"w.	c #F9E1E1",
"x.	c #FDF5F5",
"y.	c #1F1F1F",
"z.	c #EEEEEE",
"A.	c #686868",
"B.	c #898989",
"C.	c #F9DEDE",
"D.	c #FBE9E9",
"E.	c #FCEEEE",
"F.	c #FEF7F7",
"G.	c #1A1A1A",
"H.	c #F3F3F3",
"I.	c #818181",
"J.	c #7A7A7A",
"K.	c #737373",
"L.	c #6B6B6B",
"M.	c #646464",
"N.	c #5D5D5D",
"O.	c #3C3C3C",
"P.	c #353535",
"Q.	c #2F2F2F",
"R.	c #242424",
"S.	c #1E1E1E",
"T.	c #191919",
"U.	c #141414",
"V.	c #F7F7F7",
"W.	c #808080",
"X.	c #888888",
"Y.	c #909090",
"Z.	c #A1A1A1",
"`.	c #B1B1B1",
" +	c #B9B9B9",
".+	c #C0C0C0",
"++	c #C8C8C8",
"@+	c #CFCFCF",
"#+	c #E2E2E2",
"$+	c #E8E8E8",
"%+	c #FBFBFB",
"  . + @ # $ % & * = - ; > , ' ) ! ~ { ] ",
"^ / ( _ : < [ } | 1 2 3 4 5 6 7 8 9 0 a ",
"b c d e f g h i j k l m n o p q r s t u ",
"@ v e f g h w j x l m n y p q r s z A B ",
"C D f g h w j x l m E y p q r s z F G H ",
"I J g h w j x l m E y p q r s z F K L M ",
"N O h w j x l P E y p q r s Q R K S ! T ",
"U V w W x l P E y p q X Y Q R K S Z ) ` ",
" ...+.+.+.+.+.+.+.+.+.+.+.+.+.+.+.+.' @.",
"#.$.+.%.%.%.%.&.*.=.-.;.>.,.'.).!.+.~.2 ",
"{.3 +.%.%.%.&.*.=.-.;.>.,.'.).!.!.+.].^.",
"/.4 +.%.%.&.*.=.-.;.>.,.'.).!.!.!.+.(._.",
":.5 +.+.+.+.+.+.+.+.+.+.+.+.+.+.+.+.<.[.",
"}.|.1.2.3.X Y 4.5.6.7.8.9.0.a.b.c.).d.e.",
"f.g.2.3.h.i.4.5.6.7.8.9.j.a.b.c.).k.l.m.",
"n.o.p.h.i.4.5.6.7.8.9.j.a.b.c.).k.q.r.s.",
"t.u.v.i.4.5.6.7.8.w.j.a.b.c.).k.q.x.y.z.",
"A.B.i.4.5.6.7.C.w.j.a.D.c.E.k.q.x.F.G.H.",
"~ I.J.K.L.M.N.' ~.}.:.O.P.Q.* R.S.T.U.V.",
"{ W.X.Y.o.Z.6 `. +.+++@+} [ #+$+z.H.V.%+"};
