/* XPM */
static const char * xpm_replayer[] = {
"32 32 424 2",
"  	c None",
". 	c #767778",
"+ 	c #989899",
"@ 	c #AFAFB0",
"# 	c #B5B5B6",
"$ 	c #A8A8A9",
"% 	c #8B8C8C",
"& 	c #676A6C",
"* 	c #6B6E70",
"= 	c #82898D",
"- 	c #F0EFF0",
"; 	c #FFFFFF",
"> 	c #FEFEFE",
", 	c #D1D1D1",
"' 	c #989898",
") 	c #858687",
"! 	c #606366",
"~ 	c #989A9C",
"{ 	c #C2C4C5",
"] 	c #A9ABAB",
"^ 	c #929293",
"/ 	c #6F7375",
"( 	c #A1A4A6",
"_ 	c #E8E7E6",
": 	c #B9B8B5",
"< 	c #A1A09E",
"[ 	c #A8A6A3",
"} 	c #E3E0DE",
"| 	c #9A9A9A",
"1 	c #878788",
"2 	c #959697",
"3 	c #CDCECF",
"4 	c #EFF0F0",
"5 	c #E5E5E4",
"6 	c #C3C3C2",
"7 	c #A2A3A4",
"8 	c #9A9997",
"9 	c #67686A",
"0 	c #435160",
"a 	c #607B93",
"b 	c #607789",
"c 	c #72787C",
"d 	c #C4C2C1",
"e 	c #8C8C8D",
"f 	c #878889",
"g 	c #808285",
"h 	c #DADADA",
"i 	c #BFBFBF",
"j 	c #6A6A6A",
"k 	c #939393",
"l 	c #A8A8A8",
"m 	c #AAAAA8",
"n 	c #707377",
"o 	c #3D5268",
"p 	c #5C7FA1",
"q 	c #80ABCE",
"r 	c #779FBD",
"s 	c #717F89",
"t 	c #C9C6C4",
"u 	c #C9C9C8",
"v 	c #88898A",
"w 	c #9A9D9E",
"x 	c #FBFAFA",
"y 	c #F3F2F2",
"z 	c #636363",
"A 	c #171717",
"B 	c #424242",
"C 	c #8E8E8E",
"D 	c #A4A4A3",
"E 	c #ACACAB",
"F 	c #70757B",
"G 	c #41566D",
"H 	c #688BAB",
"I 	c #8FBEE2",
"J 	c #7CA5C6",
"K 	c #858E95",
"L 	c #E6E6E5",
"M 	c #F8F8F8",
"N 	c #999A9B",
"O 	c #898B8D",
"P 	c #CCCBCA",
"Q 	c #F1F2F2",
"R 	c #E9E8E9",
"S 	c #505051",
"T 	c #212121",
"U 	c #2D2D2D",
"V 	c #737474",
"W 	c #ADACAC",
"X 	c #BFBDBA",
"Y 	c #58616C",
"Z 	c #415D79",
"` 	c #769FC4",
" .	c #8CB5D8",
"..	c #848F98",
"+.	c #B7B6B5",
"@.	c #FEFDFD",
"#.	c #CECECE",
"$.	c #858788",
"%.	c #989C9D",
"&.	c #C5C5C5",
"*.	c #696968",
"=.	c #8C8C8C",
"-.	c #F2F2F3",
";.	c #7C7C7D",
">.	c #1F1F1F",
",.	c #272727",
"'.	c #6B6C6C",
").	c #9D9D9D",
"!.	c #D6D6D6",
"~.	c #FEFDFC",
"{.	c #A0A2A4",
"].	c #44515F",
"^.	c #667079",
"/.	c #A79687",
"(.	c #C4A88A",
"_.	c #A6A19C",
":.	c #E0E1E3",
"<.	c #E9E9E9",
"[.	c #8A8C8D",
"}.	c #989B9C",
"|.	c #9E9E9E",
"1.	c #1E1E1E",
"2.	c #2C2C2C",
"3.	c #C0C0C0",
"4.	c #D7D7D6",
"5.	c #4E4E4E",
"6.	c #3B3B3B",
"7.	c #828282",
"8.	c #CDCDCD",
"9.	c #E2E3E5",
"0.	c #776F69",
"a.	c #6A4829",
"b.	c #B47D49",
"c.	c #DAAA76",
"d.	c #AF9B87",
"e.	c #B2B5B7",
"f.	c #F4F4F4",
"g.	c #B2B2B1",
"h.	c #868788",
"i.	c #959798",
"j.	c #A7A6A7",
"k.	c #313131",
"l.	c #1B1B1B",
"m.	c #898989",
"n.	c #FCFCFC",
"o.	c #C6C6C6",
"p.	c #8A8A8A",
"q.	c #B2B2B2",
"r.	c #D7D7D7",
"s.	c #F1F1F1",
"t.	c #A09994",
"u.	c #634024",
"v.	c #946032",
"w.	c #CB945F",
"x.	c #C29D79",
"y.	c #9D9C99",
"z.	c #E7E7EA",
"A.	c #C7C7C8",
"B.	c #848586",
"C.	c #929596",
"D.	c #CAC9C9",
"E.	c #5B5A5B",
"F.	c #131313",
"G.	c #949494",
"H.	c #A0A0A0",
"I.	c #A9A9A8",
"J.	c #E3E3E3",
"K.	c #929292",
"L.	c #353535",
"M.	c #737475",
"N.	c #ECECEC",
"O.	c #CCCDCD",
"P.	c #655141",
"Q.	c #794C23",
"R.	c #BF8047",
"S.	c #D09B64",
"T.	c #9D8F82",
"U.	c #D1D3D7",
"V.	c #D0D1D2",
"W.	c #838485",
"X.	c #8C8F90",
"Y.	c #CDCCCB",
"Z.	c #AEADAD",
"`.	c #7D7D7E",
" +	c #C9C9C9",
".+	c #202020",
"++	c #969696",
"@+	c #535353",
"#+	c #151515",
"$+	c #1A1A1B",
"%+	c #ECEEF1",
"&+	c #7A736B",
"*+	c #653F1D",
"=+	c #B17035",
"-+	c #B98556",
";+	c #7F7572",
">+	c #B8BBBE",
",+	c #898C8D",
"'+	c #B7B7B6",
")+	c #D0D0CF",
"!+	c #DBDBDB",
"~+	c #E0E0DF",
"{+	c #919191",
"]+	c #3C3C3C",
"^+	c #8D8E8F",
"/+	c #DEDEDE",
"(+	c #5E5E5E",
"_+	c #2B2B2B",
":+	c #242424",
"<+	c #515151",
"[+	c #AAA5A2",
"}+	c #5D412C",
"|+	c #795842",
"1+	c #8B7D60",
"2+	c #868756",
"3+	c #969690",
"4+	c #C9C9CD",
"5+	c #9F9F9F",
"6+	c #ADADAE",
"7+	c #B6B6B6",
"8+	c #A9A9A9",
"9+	c #B0AFB0",
"0+	c #DBDBDA",
"a+	c #838483",
"b+	c #222222",
"c+	c #1D1D1D",
"d+	c #3D3D3D",
"e+	c #D5D6D6",
"f+	c #C2C2C3",
"g+	c #4F4B45",
"h+	c #5C5E3C",
"i+	c #A8B049",
"j+	c #B7B53B",
"k+	c #828362",
"l+	c #A0A1AC",
"m+	c #888989",
"n+	c #98999A",
"o+	c #49494A",
"p+	c #F9F9F9",
"q+	c #CBCBCB",
"r+	c #D5D4D3",
"s+	c #666666",
"t+	c #6F6F6E",
"u+	c #EBEBEB",
"v+	c #BFC0C3",
"w+	c #5A5C43",
"x+	c #6D7021",
"y+	c #B6BA38",
"z+	c #C4C63D",
"A+	c #9E9E47",
"B+	c #707071",
"C+	c #797A7B",
"D+	c #979898",
"E+	c #8F9091",
"F+	c #3D3D3C",
"G+	c #121212",
"H+	c #838383",
"I+	c #D8D8D8",
"J+	c #C1C1C1",
"K+	c #CECDCD",
"L+	c #EAEAEB",
"M+	c #BBBBBE",
"N+	c #626241",
"O+	c #696B1E",
"P+	c #A4A736",
"Q+	c #B8BD3D",
"R+	c #C0BD3E",
"S+	c #7C7C45",
"T+	c #60626A",
"U+	c #888888",
"V+	c #575757",
"W+	c #111111",
"X+	c #535253",
"Y+	c #484848",
"Z+	c #757575",
"`+	c #CCCCCC",
" @	c #DFDFDF",
".@	c #BBBABD",
"+@	c #5D5D42",
"@@	c #5E601B",
"#@	c #969931",
"$@	c #ABAF39",
"%@	c #C5C73D",
"&@	c #AEAC3B",
"*@	c #686E5C",
"=@	c #626069",
"-@	c #949595",
";@	c #2B292A",
">@	c #585758",
",@	c #A6A6A5",
"'@	c #252525",
")@	c #7F7F7F",
"!@	c #CBCBCA",
"~@	c #D9D9D9",
"{@	c #B4B4B6",
"]@	c #58583E",
"^@	c #5C5E1A",
"/@	c #90942D",
"(@	c #A8AB34",
"_@	c #AEB63C",
":@	c #828A3E",
"<@	c #5A5048",
"[@	c #5A484C",
"}@	c #484145",
"|@	c #AAABAC",
"1@	c #B7B7B7",
"2@	c #282828",
"3@	c #262626",
"4@	c #474747",
"5@	c #B8B8B8",
"6@	c #D5D5D6",
"7@	c #A6A5A6",
"8@	c #48492A",
"9@	c #5F6119",
"0@	c #868E2D",
"a@	c #7B8732",
"b@	c #5A633B",
"c@	c #5A4045",
"d@	c #B66566",
"e@	c #BC716A",
"f@	c #6C5250",
"g@	c #463F43",
"h@	c #969695",
"i@	c #D2D2D2",
"j@	c #3E3E3E",
"k@	c #373737",
"l@	c #A3A3A3",
"m@	c #878883",
"n@	c #394120",
"o@	c #4A5724",
"p@	c #515735",
"q@	c #563F3E",
"r@	c #813D4C",
"s@	c #BF535A",
"t@	c #D36365",
"u@	c #DA7672",
"v@	c #C87A72",
"w@	c #88625E",
"x@	c #5E4B4B",
"y@	c #9C9C9C",
"z@	c #DEDEDF",
"A@	c #999998",
"B@	c #434343",
"C@	c #A6A6A6",
"D@	c #B7B8B8",
"E@	c #555351",
"F@	c #3B302C",
"G@	c #51363C",
"H@	c #793246",
"I@	c #B0394E",
"J@	c #CE4452",
"K@	c #CC5059",
"L@	c #CC5A5F",
"M@	c #D06566",
"N@	c #D87874",
"O@	c #DD8A80",
"P@	c #C18879",
"Q@	c #8F6B65",
"R@	c #3A3134",
"S@	c #D3D3D3",
"T@	c #E7E7E7",
"U@	c #818180",
"V@	c #8C8B8A",
"W@	c #BBBBBA",
"X@	c #C3C3C3",
"Y@	c #8C8E8E",
"Z@	c #3B3639",
"`@	c #652339",
" #	c #9B314E",
".#	c #B1344B",
"+#	c #BF394E",
"@#	c #C33D4F",
"##	c #C64654",
"$#	c #CA525A",
"%#	c #CD5D61",
"&#	c #D06868",
"*#	c #DB807A",
"=#	c #DF998A",
"-#	c #805A51",
";#	c #100C0C",
">#	c #ADADAD",
",#	c #CFCFCF",
"'#	c #BABABA",
")#	c #BCBCBC",
"!#	c #B0B0B0",
"~#	c #999999",
"{#	c #7B7D7D",
"]#	c #393D3C",
"^#	c #4B1D2A",
"/#	c #952C48",
"(#	c #9D2F46",
"_#	c #AA344A",
":#	c #BC394D",
"<#	c #C43F4F",
"[#	c #C74955",
"}#	c #CC575D",
"|#	c #D86769",
"1#	c #C86C68",
"2#	c #66403C",
"3#	c #9B9B9B",
"4#	c #909091",
"5#	c #202322",
"6#	c #5B2333",
"7#	c #942C47",
"8#	c #A13148",
"9#	c #B4374C",
"0#	c #C63D50",
"a#	c #CB4554",
"b#	c #CA5059",
"c#	c #984244",
"d#	c #543535",
"e#	c #1C1819",
"f#	c #682135",
"g#	c #9E304A",
"h#	c #A53349",
"i#	c #9B2F43",
"j#	c #762430",
"k#	c #472025",
"l#	c #442122",
"m#	c #1B0D11",
"n#	c #39141E",
"o#	c #2B1219",
"p#	c #221B1D",
"q#	c #342225",
"                                                                ",
"                                                                ",
"                                                                ",
"                        . + @ # $ %                             ",
"              & *     = # - ; ; > , ' )                         ",
"          ! ~ { ] ^ / ( _ : < [ } ; _ | 1                       ",
"        2 3 4 ; 5 6 7 8 9 0 a b c d ; 5 e f                     ",
"      g h ; ; i j k l m n o p q r s t ; u v                     ",
"      w > x y z A B C D E F G H I J K L M N v                   ",
"    O P Q M R S T U V + W X Y Z `  ...+.@.#.$.                  ",
"    %.&.*.=.-.;.>.,.'.).!.~.{.].^./.(._.:.<.[.                  ",
"    }.|.1.2.3.4.5.6.7.8.; ; 9.0.a.b.c.d.e.f.g.h.                ",
"    i.j.k.l.m.n.o.p.q.<.r.s.; t.u.v.w.x.y.z.A.B.                ",
"    C.D.E.F.G.!.H.I.J.K.L.M.N.O.P.Q.R.S.T.U.V.W.                ",
"    X.Y.Z.`. +K..+++<.@+#+$+k %+&+*+=+-+;+>+!.W.                ",
"    ,+'+)+!+~+{+]+^+/+(+_+:+<+9.[+}+|+1+2+3+4+B.                ",
"      5+ +6+7+ +8+9+0+a+b+c+d+e+f+g+h+i+j+k+l+m+                ",
"      n+q.o+]+#.p+q+r+q+s+,.t+u+v+w+x+y+z+A+B+C+                ",
"      D+E+F+G+H+n.I+J+!.#.7+K+L+M+N+O+P+Q+R+S+T+                ",
"        U+V+W+X+N.J+Y+Z+`+!+!. @.@+@@@#@$@%@&@*@=@              ",
"        -@h.;@>@s.,@T '@)@, !@~@{@]@^@/@(@_@:@<@[@}@            ",
"          |@1@&.; I.2@3@4@5@ +6@7@8@9@0@a@b@c@d@e@f@g@          ",
"          h@!+; ; i@j@>.k@l@ +8.m@n@o@p@q@r@s@t@u@v@w@x@        ",
"            y@z@; > A@2@B@C@q+D@E@F@G@H@I@J@K@L@M@N@O@P@Q@R@    ",
"              |.S@; T@U@V@W@X@Y@Z@`@ #.#+#@###$#%#&#*#=#-#;#    ",
"                k >#,#'#)#!#~#{#]#^#/#(#_#:#<#[#}#|#1#2#        ",
"                    ++3#).4#      5#6#7#8#9#0#a#b#c#d#          ",
"                                    e#f#g#h#i#j#k#l#            ",
"                                      m#n#o#p#q#                ",
"                                                                ",
"                                                                ",
"                                                                "};
