/* XPM */
static const char * xpm_stance_stop[] = {
"32 32 383 2",
"  	c None",
". 	c #70798F",
"+ 	c #7B849A",
"@ 	c #828BA2",
"# 	c #868FA7",
"$ 	c #8892AA",
"% 	c #8891A9",
"& 	c #868FA6",
"* 	c #818AA1",
"= 	c #828AA1",
"- 	c #959DB4",
"; 	c #A1AABE",
"> 	c #A7B0C4",
", 	c #A9B2C7",
"' 	c #A9B2C8",
") 	c #818AA0",
"! 	c #7B849B",
"~ 	c #959EB4",
"{ 	c #B7BECF",
"] 	c #CAD0DE",
"^ 	c #D1D6E3",
"/ 	c #D3D8E5",
"( 	c #D3BDC5",
"_ 	c #D3A7AB",
": 	c #D39798",
"< 	c #CACFDD",
"[ 	c #B7BDCE",
"} 	c #818AA2",
"| 	c #A1A9BF",
"1 	c #C8CDDC",
"2 	c #DEE2EC",
"3 	c #E5E8F1",
"4 	c #E7EAF2",
"5 	c #E5C7C9",
"6 	c #E4BEBE",
"7 	c #E5BFBF",
"8 	c #E6EAF2",
"9 	c #A1A9BE",
"0 	c #848EA6",
"a 	c #A4ADC3",
"b 	c #CBD1E0",
"c 	c #E1E5EF",
"d 	c #E8EBF3",
"e 	c #EAEDF5",
"f 	c #E9EDF5",
"g 	c #E8DCE1",
"h 	c #E6C2C2",
"i 	c #ECD0D0",
"j 	c #F6E9E9",
"k 	c #FEFBFB",
"l 	c #EBCFCF",
"m 	c #E6C3C3",
"n 	c #E8EBF4",
"o 	c #E2E5EF",
"p 	c #CCD1E0",
"q 	c #A4ACC2",
"r 	c #858EA5",
"s 	c #8690A8",
"t 	c #A5AFC5",
"u 	c #CAD0E0",
"v 	c #DFE3EE",
"w 	c #E5E9F3",
"x 	c #E6EAF4",
"y 	c #E7EBF4",
"z 	c #E3C7CA",
"A 	c #E2B9B9",
"B 	c #F4E5E5",
"C 	c #FFFFFF",
"D 	c #E2B8B8",
"E 	c #A5AEC4",
"F 	c #858FA7",
"G 	c #868FA9",
"H 	c #A4ADC4",
"I 	c #C6CDDE",
"J 	c #DADFEC",
"K 	c #E1E5F1",
"L 	c #E2E6F2",
"M 	c #E2E7F2",
"N 	c #DCADAE",
"O 	c #DCAAAA",
"P 	c #FDFAFA",
"Q 	c #DCABAB",
"R 	c #E0E5F0",
"S 	c #C6CDDD",
"T 	c #A3ACC3",
"U 	c #A1ABC2",
"V 	c #C2CADC",
"W 	c #D5DBE9",
"X 	c #DCE1EF",
"Y 	c #DCE2F0",
"Z 	c #DDE3F0",
"` 	c #DDE2F0",
" .	c #D8B0B4",
"..	c #D69C9C",
"+.	c #F0DADA",
"@.	c #D69B9B",
"#.	c #D8B1B5",
"$.	c #DBE1EE",
"%.	c #D4DAE9",
"&.	c #C2C9DB",
"*.	c #A0AAC2",
"=.	c #858EA8",
"-.	c #9FA9C1",
";.	c #BEC6D9",
">.	c #D0D6E6",
",.	c #D6DCEC",
"'.	c #D7DEED",
").	c #D8DEEE",
"!.	c #D5BEC8",
"~.	c #D08C8C",
"{.	c #DAA5A5",
"].	c #EDD4D4",
"^.	c #D7DEEE",
"/.	c #D6DCEB",
"(.	c #CFD5E6",
"_.	c #BEC5D9",
":.	c #9EA8C0",
"<.	c #848EA7",
"[.	c #9DA7BF",
"}.	c #B9C2D7",
"|.	c #CAD1E3",
"1.	c #D0D7E9",
"2.	c #D2D9EB",
"3.	c #CB8E92",
"4.	c #C97B7B",
"5.	c #C97C7C",
"6.	c #CA8D91",
"7.	c #C9D0E3",
"8.	c #B9C1D6",
"9.	c #9CA6BF",
"0.	c #848DA6",
"a.	c #838DA7",
"b.	c #9AA5BE",
"c.	c #B4BED4",
"d.	c #C4CCE0",
"e.	c #CAD2E6",
"f.	c #CCD4E8",
"g.	c #CDD5E9",
"h.	c #CBC3D3",
"i.	c #C48489",
"j.	c #C26B6B",
"k.	c #C3CBE0",
"l.	c #B4BDD3",
"m.	c #9AA4BD",
"n.	c #828CA5",
"o.	c #828CA6",
"p.	c #98A3BD",
"q.	c #B0B9D1",
"r.	c #BEC7DD",
"s.	c #C5CDE4",
"t.	c #C6CFE6",
"u.	c #C7D0E7",
"v.	c #C7D0E6",
"w.	c #BE767B",
"x.	c #BB5A5A",
"y.	c #BB5B5B",
"z.	c #C5BCCE",
"A.	c #C4CDE3",
"B.	c #BEC6DD",
"C.	c #B0B9D0",
"D.	c #97A2BC",
"E.	c #828BA4",
"F.	c #828BA6",
"G.	c #95A0BB",
"H.	c #ABB5CE",
"I.	c #B9C2DA",
"J.	c #BFC8E1",
"K.	c #C1CAE3",
"L.	c #C1CBE4",
"M.	c #C2CBE4",
"N.	c #BFB5CA",
"O.	c #B44A4A",
"P.	c #B7696E",
"Q.	c #BEC8E0",
"R.	c #B8C1DA",
"S.	c #ABB4CD",
"T.	c #959FBA",
"U.	c #818BA4",
"V.	c #818AA5",
"W.	c #939EB9",
"X.	c #A6B1CB",
"Y.	c #B3BED8",
"Z.	c #B9C3DE",
"`.	c #BBC6E1",
" +	c #BCC7E2",
".+	c #BAAFC5",
"++	c #B15C62",
"@+	c #AE3A3A",
"#+	c #AE3B3B",
"$+	c #B9AFC5",
"%+	c #B9C4DE",
"&+	c #B3BDD7",
"*+	c #A6B0CA",
"=+	c #929DB8",
"-+	c #8089A3",
";+	c #808AA4",
">+	c #919CB8",
",+	c #A2AEC9",
"'+	c #AEB9D5",
")+	c #B5BFDC",
"!+	c #B6C2DF",
"~+	c #B7C3E0",
"{+	c #AB5056",
"]+	c #A82C2C",
"^+	c #A82B2B",
"/+	c #B7C2DF",
"(+	c #B4BFDB",
"_+	c #ADB8D4",
":+	c #A2ADC8",
"<+	c #909BB7",
"[+	c #7F89A2",
"}+	c #8F9BB7",
"|+	c #9FABC7",
"1+	c #AAB5D2",
"2+	c #AFBBDA",
"3+	c #B1BEDD",
"4+	c #B2BFDD",
"5+	c #B2BEDD",
"6+	c #A21E1E",
"7+	c #A21D1D",
"8+	c #B0A3BD",
"9+	c #B1BDDC",
"0+	c #AFBBD9",
"a+	c #A9B4D2",
"b+	c #9EA9C6",
"c+	c #8E9AB6",
"d+	c #7F89A4",
"e+	c #8E99B6",
"f+	c #9BA8C5",
"g+	c #A5B1D0",
"h+	c #ABB7D8",
"i+	c #ADBADB",
"j+	c #AEBBDC",
"k+	c #9D1212",
"l+	c #A13A41",
"m+	c #AB9EB9",
"n+	c #AAB7D7",
"o+	c #A4B1CF",
"p+	c #9BA7C4",
"q+	c #8D98B5",
"r+	c #7F88A2",
"s+	c #7F88A3",
"t+	c #8C98B5",
"u+	c #98A5C3",
"v+	c #A2AFCF",
"w+	c #A8B4D6",
"x+	c #AAB7D9",
"y+	c #ABB8DA",
"z+	c #990808",
"A+	c #9D3239",
"B+	c #A7B4D5",
"C+	c #A1AECE",
"D+	c #98A4C2",
"E+	c #8B97B4",
"F+	c #7E87A1",
"G+	c #7E88A3",
"H+	c #96A3C2",
"I+	c #9FACCD",
"J+	c #A5B2D5",
"K+	c #A7B5D8",
"L+	c #A8B6D9",
"M+	c #960000",
"N+	c #A4B2D4",
"O+	c #9EABCC",
"P+	c #96A2C1",
"Q+	c #8A96B3",
"R+	c #7D87A1",
"S+	c #9A2B33",
"T+	c #97A4C2",
"U+	c #A0ADCD",
"V+	c #A6B3D6",
"W+	c #A9B7DA",
"X+	c #9C2E36",
"Y+	c #980404",
"Z+	c #A699B5",
"`+	c #A5B3D5",
" @	c #97A3C1",
".@	c #A4B1D0",
"+@	c #ACB8D8",
"@@	c #AEBBDB",
"#@	c #AFBCDC",
"$@	c #ACA0BA",
"%@	c #A23C44",
"&@	c #9F1515",
"*@	c #9E1414",
"=@	c #A23C43",
"-@	c #ABB8D7",
";@	c #A3B0CF",
">@	c #8D99B5",
",@	c #9CA8C6",
"'@	c #ABB6D3",
")@	c #B4BFDC",
"!@	c #B8C3E0",
"~@	c #B6AAC2",
"{@	c #A92F2F",
"]@	c #A92E2E",
"^@	c #AD5259",
"/@	c #B3BFDB",
"(@	c #AAB6D2",
"_@	c #9CA7C5",
":@	c #8C98B4",
"<@	c #9FABC8",
"[@	c #B2BDD7",
"}@	c #BDC7E0",
"|@	c #C0CAE3",
"1@	c #B7686D",
"2@	c #B44949",
"3@	c #B44848",
"4@	c #BCC7DF",
"5@	c #B1BCD6",
"6@	c #9FAAC7",
"7@	c #8F9AB6",
"8@	c #A3AEC9",
"9@	c #B8C2DA",
"0@	c #C8D1E7",
"a@	c #C9D2E8",
"b@	c #BE6262",
"c@	c #C17C81",
"d@	c #C9D1E7",
"e@	c #A3ADC9",
"f@	c #8E99B5",
"g@	c #BFC7DD",
"h@	c #CDD4E8",
"i@	c #D1D8EB",
"j@	c #C87A7A",
"k@	c #CA9095",
"l@	c #CCD4E7",
"m@	c #7E88A2",
"n@	c #909CB8",
"o@	c #A9B3CD",
"p@	c #D3DAEA",
"q@	c #D9DFEE",
"r@	c #D29191",
"s@	c #D3A4A7",
"t@	c #D8DEED",
"u@	c #D4DAEB",
"v@	c #A9B2CC",
"w@	c #7D86A0",
"x@	c #7C86A0",
"y@	c #8E99B4",
"z@	c #A7B1CA",
"A@	c #C4CCDF",
"B@	c #D5DBEA",
"C@	c #DAE0ED",
"D@	c #DBE0EE",
"E@	c #D59999",
"F@	c #D59A9A",
"G@	c #DAD4DF",
"H@	c #8E98B3",
"I@	c #7D869F",
"J@	c #79829B",
"K@	c #8993AE",
"L@	c #A0AAC3",
"M@	c #C9D0E2",
"N@	c #CED4E5",
"O@	c #CED5E6",
"P@	c #CB9296",
"Q@	c #CA7E7E",
"R@	c #C97D7D",
"S@	c #C9D0E1",
"T@	c #A0A9C2",
"U@	c #8993AD",
"V@	c #78819A",
"W@	c #747E95",
"X@	c #818BA5",
"Y@	c #919BB5",
"Z@	c #A1ABC4",
"`@	c #ABB4CC",
" #	c #AFB8D0",
".#	c #AFB9D1",
"+#	c #AFA4B7",
"@#	c #AF5A60",
"##	c #AF3D3D",
"$#	c #A1AAC3",
"%#	c #909AB4",
"&#	c #747D94",
"*#	c #6D768C",
"=#	c #8994AE",
"-#	c #8F9AB4",
";#	c #919CB7",
">#	c #778199",
",#	c #6C758C",
"'#	c #7F89A3",
"  . + @ # $ $ $ $ $ $ $ $ $ $ $ $ $ $ $ $ $ $ $ $ $ % & * + .   ",
". = - ; > , ' ' ' ' ' ' ' ' ' ' ' ' ' ' ' ' ' ' ' ' , > ; - ) . ",
"! ~ { ] ^ / / / / / / / / ( _ : _ ( / / / / / / / / / ^ < [ - + ",
"} | 1 2 3 4 4 4 4 4 4 4 5 6 6 7 7 7 5 4 4 4 4 4 4 4 8 3 2 1 9 * ",
"0 a b c d e e f e e e g h i j k j l m g e f f f f e e n o p q r ",
"s t u v w x x x y y x z A B C C C B D z x x x x x x x w v u E F ",
"G H I J K L M M M M M N O P C C C P Q N M M M M M M L R J S T # ",
"G U V W X Y Z Z Z ` `  ...+.C C C +.@.#.Z Z Z Z ` ` ` $.%.&.*.# ",
"=.-.;.>.,.'.).).).).).!.~.{.].C ].{.~.!.^.).).^.).).'./.(._.:.0 ",
"<.[.}.|.1.2.2.2.2.2.2.2.3.4.5.C 4.4.6.2.2.2.2.2.2.2.2.1.7.8.9.0.",
"a.b.c.d.e.f.g.g.g.g.g.h.i.j.j.C j.j.g.g.g.g.g.g.g.g.f.e.k.l.m.n.",
"o.p.q.r.s.t.u.u.v.v.v.w.x.x.C C y.y.z.u.v.u.v.u.u.v.t.A.B.C.D.E.",
"F.G.H.I.J.K.L.L.M.M.N.O.O.C C C O.O.P.L.L.L.L.L.L.L.K.Q.R.S.T.U.",
"V.W.X.Y.Z.`. + + +.+++@+#+C C #+C @+#+$+ + + + + + +`.%+&+*+=+-+",
";+>+,+'+)+!+~+~+~+{+]+^+C ^+C ]+C ]+]+{+~+~+~+~+/+~+!+(+_+:+<+[+",
";+}+|+1+2+3+4+5+5+6+6+C 6+6+C 7+6+C 6+7+8+5+4+5+4+4+9+0+a+b+c+[+",
"d+e+f+g+h+i+j+j+j+k+k+C k+k+C k+k+C k+k+l+m+j+j+j+j+i+n+o+p+q+r+",
"s+t+u+v+w+x+y+y+y+z+z+C z+z+C z+z+z+C z+z+A+y+y+y+y+x+B+C+D+E+F+",
"G+E+H+I+J+K+L+L+L+M+M+C M+C C M+M+M+M+C M+M+L+L+L+L+K+N+O+P+Q+R+",
"G+E+H+I+J+K+L+L+L+M+M+C M+C M+C M+M+M+M+M+S+L+L+L+L+K+N+O+P+Q+R+",
"G+E+T+U+V+L+W+W+W+X+Y+Y+Y+C Y+Y+C Y+Y+Y+X+Z+W+W+W+W+L+`+I+ @Q+R+",
"G+t+u+.@+@@@#@#@#@$@%@&@&@C &@&@C &@*@=@$@#@#@#@#@#@@@-@;@D+E+R+",
"s+>@,@'@)@/+!@!@!@!@~@{@{@C {@]@{@C {@{@^@!@!@!@!@!@/+/@(@_@:@F+",
"s+e+<@[@}@|@L.L.L.L.1@2@2@C 2@2@3@2@C 2@2@L.L.L.L.L.|@4@5@6@q+F+",
"s+7@8@9@s.0@a@a@a@a@b@b@C b@b@c@b@b@C b@b@a@a@a@a@a@d@A.R.e@f@F+",
"s+}+X.g@h@i@2.2.2.2.j@j@C j@j@k@j@4.C j@j@2.2.2.2.2.i@l@r.*+7@F+",
"m@n@o@d.p@).q@q@q@q@r@r@C r@r@r@r@C r@r@s@q@q@q@q@q@t@u@d.v@<+w@",
"x@y@z@A@B@C@D@D@D@$.E@F@C E@E@E@E@C E@F@G@D@$.$.D@D@C@B@A@z@H@I@",
"J@K@L@}.M@N@O@O@O@O@P@Q@Q@Q@P@P@Q@R@R@P@O@O@O@O@O@O@N@S@8.T@U@V@",
"W@X@Y@Z@`@ #.#.#.#.#+#@###@#+#+#@###@#+#.#.#.#.#.#.# #`@$#%#V.&#",
"*#V@V.=#-#;#=+=+=+=+=+=+=+=+=+=+=+=+=+=+=+=+=+=+=+=+;#-#=#V.>#,#",
"  *#&#J@w@'#'#'#'#'#'#'#'#'#'#'#'#'#'#'#'#'#'#'#'#'#r+I@V@&#*#  "};
