/* XPM */
static const char * xpm_stance_engineered[] = {
"32 32 285 2",
"  	c None",
". 	c #70798F",
"+ 	c #7B849A",
"@ 	c #828BA2",
"# 	c #868FA7",
"$ 	c #8892AA",
"% 	c #8891A9",
"& 	c #868FA6",
"* 	c #818AA1",
"= 	c #828AA1",
"- 	c #959DB4",
"; 	c #A1AABE",
"> 	c #A7B0C4",
", 	c #A9B2C7",
"' 	c #A9B2C8",
") 	c #818AA0",
"! 	c #7B849B",
"~ 	c #959EB4",
"{ 	c #B7BECF",
"] 	c #CAD0DE",
"^ 	c #D1D6E3",
"/ 	c #D3D8E5",
"( 	c #CACFDD",
"_ 	c #B7BDCE",
": 	c #818AA2",
"< 	c #A1A9BF",
"[ 	c #C8CDDC",
"} 	c #DEE2EC",
"| 	c #E5E8F1",
"1 	c #E7EAF2",
"2 	c #E6EAF2",
"3 	c #A1A9BE",
"4 	c #848EA6",
"5 	c #A4ADC3",
"6 	c #CBD1E0",
"7 	c #E1E5EF",
"8 	c #E8EBF3",
"9 	c #EAEDF5",
"0 	c #E9EDF5",
"a 	c #E8EBF4",
"b 	c #E2E5EF",
"c 	c #CCD1E0",
"d 	c #A4ACC2",
"e 	c #858EA5",
"f 	c #8690A8",
"g 	c #A5AFC5",
"h 	c #CAD0E0",
"i 	c #DFE3EE",
"j 	c #E5E9F3",
"k 	c #E6EAF4",
"l 	c #E7EBF4",
"m 	c #A5AEC4",
"n 	c #858FA7",
"o 	c #868FA9",
"p 	c #A4ADC4",
"q 	c #C6CDDE",
"r 	c #DADFEC",
"s 	c #E1E5F1",
"t 	c #E2E6F2",
"u 	c #E2E7F2",
"v 	c #E0E5F0",
"w 	c #C6CDDD",
"x 	c #A3ACC3",
"y 	c #A1ABC2",
"z 	c #C2CADC",
"A 	c #D5DBE9",
"B 	c #DCE1EF",
"C 	c #DCE2F0",
"D 	c #DDE3F0",
"E 	c #DDE2F0",
"F 	c #DBE1EE",
"G 	c #D4DAE9",
"H 	c #C2C9DB",
"I 	c #A0AAC2",
"J 	c #858EA8",
"K 	c #9FA9C1",
"L 	c #BEC6D9",
"M 	c #D0D6E6",
"N 	c #D2CFEA",
"O 	c #C2A4E2",
"P 	c #BB92DF",
"Q 	c #BB91DE",
"R 	c #D1CFE9",
"S 	c #CFD5E6",
"T 	c #BEC5D9",
"U 	c #9EA8C0",
"V 	c #848EA7",
"W 	c #9DA7BF",
"X 	c #B9C2D7",
"Y 	c #CAD1E3",
"Z 	c #B996DD",
"` 	c #B283DA",
" .	c #B182DA",
"..	c #C9D0E3",
"+.	c #B9C1D6",
"@.	c #9CA6BF",
"#.	c #848DA6",
"$.	c #838DA7",
"%.	c #9AA5BE",
"&.	c #B4BED4",
"*.	c #C4CCE0",
"=.	c #A772D5",
"-.	c #A873D5",
";.	c #FFFFFF",
">.	c #C3CBE0",
",.	c #B4BDD3",
"'.	c #9AA4BD",
").	c #828CA5",
"!.	c #828CA6",
"~.	c #98A3BD",
"{.	c #B0B9D1",
"].	c #BEC7DD",
"^.	c #9E63D0",
"/.	c #9F64D1",
"(.	c #BEC6DD",
"_.	c #B0B9D0",
":.	c #97A2BC",
"<.	c #828BA4",
"[.	c #828BA6",
"}.	c #95A0BB",
"|.	c #ABB5CE",
"1.	c #B9C2DA",
"2.	c #9453CC",
"3.	c #9554CC",
"4.	c #9555CC",
"5.	c #B8C1DA",
"6.	c #ABB4CD",
"7.	c #959FBA",
"8.	c #818BA4",
"9.	c #818AA5",
"0.	c #939EB9",
"a.	c #A6B1CB",
"b.	c #B3BED8",
"c.	c #8B44C7",
"d.	c #8C46C8",
"e.	c #8B45C7",
"f.	c #B3BDD7",
"g.	c #A6B0CA",
"h.	c #929DB8",
"i.	c #8089A3",
"j.	c #808AA4",
"k.	c #919CB8",
"l.	c #A2AEC9",
"m.	c #AEB9D5",
"n.	c #8338C3",
"o.	c #B7C3E0",
"p.	c #B7C2DF",
"q.	c #8237C3",
"r.	c #ADB8D4",
"s.	c #A2ADC8",
"t.	c #909BB7",
"u.	c #7F89A2",
"v.	c #8F9BB7",
"w.	c #9FABC7",
"x.	c #AAB5D2",
"y.	c #7A29BF",
"z.	c #7B2ABF",
"A.	c #B2BFDD",
"B.	c #B2BEDD",
"C.	c #A9B4D2",
"D.	c #9EA9C6",
"E.	c #8E9AB6",
"F.	c #7F89A4",
"G.	c #8E99B6",
"H.	c #9BA8C5",
"I.	c #A5B1D0",
"J.	c #741FBC",
"K.	c #AEBBDC",
"L.	c #A4B1CF",
"M.	c #9BA7C4",
"N.	c #8D98B5",
"O.	c #7F88A2",
"P.	c #7F88A3",
"Q.	c #8C98B5",
"R.	c #98A5C3",
"S.	c #A2AFCF",
"T.	c #6E16B9",
"U.	c #ABB8DA",
"V.	c #A1AECE",
"W.	c #98A4C2",
"X.	c #8B97B4",
"Y.	c #7E87A1",
"Z.	c #7E88A3",
"`.	c #96A3C2",
" +	c #9FACCD",
".+	c #690EB7",
"++	c #A8B6D9",
"@+	c #9EABCC",
"#+	c #96A2C1",
"$+	c #8A96B3",
"%+	c #7D87A1",
"&+	c #97A4C2",
"*+	c #A0ADCD",
"=+	c #6B12B8",
"-+	c #A9B7DA",
";+	c #97A3C1",
">+	c #A4B1D0",
",+	c #7420BC",
"'+	c #7522BD",
")+	c #7521BD",
"!+	c #AFBCDC",
"~+	c #A3B0CF",
"{+	c #8D99B5",
"]+	c #9CA8C6",
"^+	c #ABB6D3",
"/+	c #8339C4",
"(+	c #853AC4",
"_+	c #B8C3E0",
":+	c #8439C4",
"<+	c #8236C3",
"[+	c #AAB6D2",
"}+	c #9CA7C5",
"|+	c #8C98B4",
"1+	c #9FABC8",
"2+	c #B2BDD7",
"3+	c #9B6BCF",
"4+	c #9352CB",
"5+	c #9F70D1",
"6+	c #C1CBE4",
"7+	c #9E6FD1",
"8+	c #B1BCD6",
"9+	c #9FAAC7",
"0+	c #8F9AB6",
"a+	c #A3AEC9",
"b+	c #B8C2DA",
"c+	c #BFBBE1",
"d+	c #AB82D7",
"e+	c #A36BD3",
"f+	c #AC83D8",
"g+	c #C3C0E4",
"h+	c #C9D2E8",
"i+	c #BEBBE0",
"j+	c #A3ADC9",
"k+	c #8E99B5",
"l+	c #BFC7DD",
"m+	c #CDD4E8",
"n+	c #D1D8EB",
"o+	c #D2D9EB",
"p+	c #CCD4E7",
"q+	c #7E88A2",
"r+	c #909CB8",
"s+	c #A9B3CD",
"t+	c #D3DAEA",
"u+	c #D8DEEE",
"v+	c #D9DFEE",
"w+	c #D8DEED",
"x+	c #D4DAEB",
"y+	c #A9B2CC",
"z+	c #7D86A0",
"A+	c #7C86A0",
"B+	c #8E99B4",
"C+	c #A7B1CA",
"D+	c #C4CCDF",
"E+	c #D5DBEA",
"F+	c #DAE0ED",
"G+	c #DBE0EE",
"H+	c #8E98B3",
"I+	c #7D869F",
"J+	c #79829B",
"K+	c #8993AE",
"L+	c #A0AAC3",
"M+	c #C9D0E2",
"N+	c #CED4E5",
"O+	c #CED5E6",
"P+	c #C9D0E1",
"Q+	c #A0A9C2",
"R+	c #8993AD",
"S+	c #78819A",
"T+	c #747E95",
"U+	c #818BA5",
"V+	c #919BB5",
"W+	c #A1ABC4",
"X+	c #ABB4CC",
"Y+	c #AFB8D0",
"Z+	c #AFB9D1",
"`+	c #A1AAC3",
" @	c #909AB4",
".@	c #747D94",
"+@	c #6D768C",
"@@	c #8994AE",
"#@	c #8F9AB4",
"$@	c #919CB7",
"%@	c #778199",
"&@	c #6C758C",
"*@	c #7F89A3",
"  . + @ # $ $ $ $ $ $ $ $ $ $ $ $ $ $ $ $ $ $ $ $ $ % & * + .   ",
". = - ; > , ' ' ' ' ' ' ' ' ' ' ' ' ' ' ' ' ' ' ' ' , > ; - ) . ",
"! ~ { ] ^ / / / / / / / / / / / / / / / / / / / / / / ^ ( _ - + ",
": < [ } | 1 1 1 1 1 1 1 1 1 1 1 1 1 1 1 1 1 1 1 1 1 2 | } [ 3 * ",
"4 5 6 7 8 9 9 0 9 9 9 9 0 9 9 0 9 0 9 9 9 0 0 0 0 9 9 a b c d e ",
"f g h i j k k k l l k k l l k k l l k k k k k k k k k j i h m n ",
"o p q r s t u u u u u u u u u u u u u u u u u u u u t v r w x # ",
"o y z A B C D D D E E E D D D D D E E D D D D D E E E F G H I # ",
"J K L M N O P P P P P P P P P Q P P P P Q P P Q P P O R S T U 4 ",
"V W X Y Z `  . . .`  . .`  .`  . . . . . . . . . . .` Z ..+.@.#.",
"$.%.&.*.=.-.;.;.;.;.;.;.;.;.;.;.;.;.;.;.;.;.;.;.;.;.-.-.>.,.'.).",
"!.~.{.].^./.;.;.;.;.;.;.;.;.;.;.;.;.;.;.;.;.;.;.;.;.^.^.(._.:.<.",
"[.}.|.1.2.3.;.;.4.4.3.3.3.3.3.;.;.3.3.3.3.3.3.3.;.;.3.2.5.6.7.8.",
"9.0.a.b.c.d.;.;.e.d.d.e.d.d.e.;.;.e.d.e.d.e.e.e.;.;.e.e.f.g.h.i.",
"j.k.l.m.n.n.;.;.n.n.o.p.o.q.n.;.;.n.n.o.o.o.n.n.;.;.n.n.r.s.t.u.",
"j.v.w.x.y.z.;.;.y.z.A.A.A.z.y.;.;.z.z.B.A.B.z.y.;.;.y.z.C.D.E.u.",
"F.G.H.I.J.J.;.;.J.J.K.K.K.J.J.;.;.J.J.K.K.K.J.J.;.;.J.J.L.M.N.O.",
"P.Q.R.S.T.T.;.;.T.T.U.U.U.T.T.;.;.T.T.U.U.U.T.T.;.;.T.T.V.W.X.Y.",
"Z.X.`. +.+.+;.;..+.+++++++.+.+;.;..+.+++++++.+.+;.;..+.+@+#+$+%+",
"Z.X.`. +.+.+;.;..+.+++++++.+.+;.;..+.+++++++.+.+;.;..+.+@+#+$+%+",
"Z.X.&+*+=+=+;.;.=+=+-+-+-+=+=+;.;.=+=+-+-+-+=+=+;.;.=+=+ +;+$+%+",
"Z.Q.R.>+,+'+;.;.)+'+!+!+!+'+'+;.;.'+)+!+!+!+'+)+;.;.'+,+~+W.X.%+",
"P.{+]+^+q./+;.;.(+(+_+_+_+(+(+;.;.(+(+_+_+_+(+:+;.;.:+<+[+}+|+Y.",
"P.G.1+2+3+4+2.2.2.5+6+6+6+5+2.2.4+2.5+6+6+6+7+2.4+2.4+3+8+9+N.Y.",
"P.0+a+b+c+d+e+e+f+g+h+h+h+g+f+e+e+f+g+h+h+h+g+f+e+e+f+i+5.j+k+Y.",
"P.v.a.l+m+n+o+o+o+o+o+o+o+o+o+o+o+o+o+o+o+o+o+o+o+o+n+p+].g.0+Y.",
"q+r+s+*.t+u+v+v+v+v+v+v+v+v+v+v+v+v+v+v+v+v+v+v+v+v+w+x+*.y+t.z+",
"A+B+C+D+E+F+G+G+G+F G+F G+G+G+G+G+G+G+F G+G+F F G+G+F+E+D+C+H+I+",
"J+K+L+X M+N+O+O+O+O+O+O+O+O+O+O+O+O+O+O+O+O+O+O+O+O+N+P++.Q+R+S+",
"T+U+V+W+X+Y+Z+Z+Z+Z+Z+Z+Z+Z+Z+Z+Z+Z+Z+Z+Z+Z+Z+Z+Z+Z+Y+X+`+ @9..@",
"+@S+9.@@#@$@h.h.h.h.h.h.h.h.h.h.h.h.h.h.h.h.h.h.h.h.$@#@@@9.%@&@",
"  +@.@J+z+*@*@*@*@*@*@*@*@*@*@*@*@*@*@*@*@*@*@*@*@*@O.I+S+.@+@  "};
