/* XPM */
static const char * xpm_stance_arrow[] = {
"10 20 11 1",
" 	c None",
".	c #575757",
"+	c #000000",
"@	c #101010",
"#	c #252525",
"$	c #3F3F3F",
"%	c #5C5C5C",
"&	c #7B7B7B",
"*	c #939393",
"=	c #AAAAAA",
"-	c #BFBFBF",
"          ",
"          ",
"          ",
"          ",
" ...      ",
" .+..     ",
" .++..    ",
" .+@#..   ",
" .@#$%..  ",
" .#$%&*.. ",
" .$%&*=-. ",
" .%&*=-.. ",
" .&*=-..  ",
" .*=-..   ",
" .=-..    ",
" .-..     ",
" ...      ",
"          ",
"          ",
"          "};
