/* XPM */
static const char * xpm_stance_equipped[] = {
"32 32 340 2",
"  	c None",
". 	c #70798F",
"+ 	c #7B849A",
"@ 	c #828BA2",
"# 	c #868FA7",
"$ 	c #8892AA",
"% 	c #8891A9",
"& 	c #868FA6",
"* 	c #818AA1",
"= 	c #828AA1",
"- 	c #959DB4",
"; 	c #A1AABE",
"> 	c #A7B0C4",
", 	c #A9B2C7",
"' 	c #A9B2C8",
") 	c #818AA0",
"! 	c #7B849B",
"~ 	c #959EB4",
"{ 	c #B7BECF",
"] 	c #CAD0DE",
"^ 	c #D1D6E3",
"/ 	c #D3D8E5",
"( 	c #CACFDD",
"_ 	c #B7BDCE",
": 	c #818AA2",
"< 	c #A1A9BF",
"[ 	c #C8CDDC",
"} 	c #DEE2EC",
"| 	c #E5E8F1",
"1 	c #E7EAF2",
"2 	c #E6EAF2",
"3 	c #A1A9BE",
"4 	c #848EA6",
"5 	c #A4ADC3",
"6 	c #CBD1E0",
"7 	c #E1E5EF",
"8 	c #E8EBF3",
"9 	c #EAEDF5",
"0 	c #E9EDF5",
"a 	c #E8EBF4",
"b 	c #E2E5EF",
"c 	c #CCD1E0",
"d 	c #A4ACC2",
"e 	c #858EA5",
"f 	c #8690A8",
"g 	c #A5AFC5",
"h 	c #CAD0E0",
"i 	c #DFE3EE",
"j 	c #E5E9F3",
"k 	c #E6EAF4",
"l 	c #E7EBF4",
"m 	c #A5AEC4",
"n 	c #858FA7",
"o 	c #868FA9",
"p 	c #A4ADC4",
"q 	c #C6CDDE",
"r 	c #DADFEC",
"s 	c #E1E5F1",
"t 	c #E2E6F2",
"u 	c #E2E7F2",
"v 	c #D9DFED",
"w 	c #B9C3DA",
"x 	c #ACB9D2",
"y 	c #BAC4DA",
"z 	c #ADB9D3",
"A 	c #E0E5F0",
"B 	c #C6CDDD",
"C 	c #A3ACC3",
"D 	c #A1ABC2",
"E 	c #C2CADC",
"F 	c #D5DBE9",
"G 	c #DCE1EF",
"H 	c #DCE2F0",
"I 	c #DDE3F0",
"J 	c #DDE2F0",
"K 	c #ADBAD4",
"L 	c #9FADCB",
"M 	c #9EACCA",
"N 	c #DBE1EE",
"O 	c #D4DAE9",
"P 	c #C2C9DB",
"Q 	c #A0AAC2",
"R 	c #858EA8",
"S 	c #9FA9C1",
"T 	c #BEC6D9",
"U 	c #D0D6E6",
"V 	c #D6DCEC",
"W 	c #D7DEED",
"X 	c #D8DEEE",
"Y 	c #8FA0C2",
"Z 	c #FFFFFF",
"` 	c #8E9FC2",
" .	c #D7DEEE",
"..	c #D6DCEB",
"+.	c #CFD5E6",
"@.	c #BEC5D9",
"#.	c #9EA8C0",
"$.	c #848EA7",
"%.	c #9DA7BF",
"&.	c #B9C2D7",
"*.	c #CAD1E3",
"=.	c #D0D7E9",
"-.	c #D2D9EB",
";.	c #93A3C5",
">.	c #7F92B9",
",.	c #8093BA",
"'.	c #92A2C5",
").	c #C9D0E3",
"!.	c #B9C1D6",
"~.	c #9CA6BF",
"{.	c #848DA6",
"].	c #838DA7",
"^.	c #9AA5BE",
"/.	c #B4BED4",
"(.	c #C4CCE0",
"_.	c #CAD2E6",
":.	c #CCD4E8",
"<.	c #CDD5E9",
"[.	c #BCC7DF",
"}.	c #8597BE",
"|.	c #6F85B1",
"1.	c #C3CBE0",
"2.	c #B4BDD3",
"3.	c #9AA4BD",
"4.	c #828CA5",
"5.	c #828CA6",
"6.	c #98A3BD",
"7.	c #B0B9D1",
"8.	c #BEC7DD",
"9.	c #C5CDE4",
"0.	c #C6CFE6",
"a.	c #C7D0E7",
"b.	c #C7D0E6",
"c.	c #B5C0DB",
"d.	c #5F76A8",
"e.	c #6077A8",
"f.	c #C4CDE3",
"g.	c #BEC6DD",
"h.	c #B0B9D0",
"i.	c #97A2BC",
"j.	c #828BA4",
"k.	c #828BA6",
"l.	c #95A0BB",
"m.	c #ABB5CE",
"n.	c #B9C2DA",
"o.	c #BFC8E1",
"p.	c #C1CAE3",
"q.	c #C1CBE4",
"r.	c #C2CBE4",
"s.	c #ADBAD8",
"t.	c #6A80B0",
"u.	c #4F699F",
"v.	c #BEC8E0",
"w.	c #B8C1DA",
"x.	c #ABB4CD",
"y.	c #959FBA",
"z.	c #818BA4",
"A.	c #818AA5",
"B.	c #939EB9",
"C.	c #A6B1CB",
"D.	c #B3BED8",
"E.	c #B9C3DE",
"F.	c #BBC6E1",
"G.	c #BCC7E2",
"H.	c #A7B4D5",
"I.	c #5D75A8",
"J.	c #405D97",
"K.	c #3F5C97",
"L.	c #A6B4D5",
"M.	c #B9C4DE",
"N.	c #B3BDD7",
"O.	c #A6B0CA",
"P.	c #929DB8",
"Q.	c #8089A3",
"R.	c #808AA4",
"S.	c #919CB8",
"T.	c #A2AEC9",
"U.	c #AEB9D5",
"V.	c #B5BFDC",
"W.	c #B6C2DF",
"X.	c #B7C3E0",
"Y.	c #A0AFD1",
"Z.	c #516BA2",
"`.	c #31508F",
" +	c #32508F",
".+	c #B7C2DF",
"++	c #B4BFDB",
"@+	c #ADB8D4",
"#+	c #A2ADC8",
"$+	c #909BB7",
"%+	c #7F89A2",
"&+	c #8F9BB7",
"*+	c #9FABC7",
"=+	c #AAB5D2",
"-+	c #AFBBDA",
";+	c #B1BEDD",
">+	c #B2BFDD",
",+	c #B2BEDD",
"'+	c #46619C",
")+	c #244588",
"!+	c #234487",
"~+	c #45609C",
"{+	c #B1BDDC",
"]+	c #AFBBD9",
"^+	c #A9B4D2",
"/+	c #9EA9C6",
"(+	c #8E9AB6",
"_+	c #7F89A4",
":+	c #8E99B6",
"<+	c #9BA8C5",
"[+	c #A5B1D0",
"}+	c #ABB7D8",
"|+	c #ADBADB",
"1+	c #AEBBDC",
"2+	c #94A5CC",
"3+	c #193B82",
"4+	c #AAB7D7",
"5+	c #A4B1CF",
"6+	c #9BA7C4",
"7+	c #8D98B5",
"8+	c #7F88A2",
"9+	c #7F88A3",
"0+	c #8C98B5",
"a+	c #98A5C3",
"b+	c #A2AFCF",
"c+	c #A8B4D6",
"d+	c #AAB7D9",
"e+	c #ABB8DA",
"f+	c #90A1CA",
"g+	c #345293",
"h+	c #0F337C",
"i+	c #A1AECE",
"j+	c #98A4C2",
"k+	c #8B97B4",
"l+	c #7E87A1",
"m+	c #7E88A3",
"n+	c #96A3C2",
"o+	c #9FACCD",
"p+	c #A5B2D5",
"q+	c #A7B5D8",
"r+	c #8C9EC8",
"s+	c #2D4C8F",
"t+	c #072C78",
"u+	c #8B9DC7",
"v+	c #A4B2D4",
"w+	c #9EABCC",
"x+	c #96A2C1",
"y+	c #8A96B3",
"z+	c #7D87A1",
"A+	c #899BC4",
"B+	c #97A4C2",
"C+	c #A0ADCD",
"D+	c #A6B3D6",
"E+	c #304F91",
"F+	c #0B2F7A",
"G+	c #8EA0C9",
"H+	c #A9B7DA",
"I+	c #2F4F90",
"J+	c #97A3C1",
"K+	c #8091B7",
"L+	c #375492",
"M+	c #193C82",
"N+	c #1B3D83",
"O+	c #1A3D83",
"P+	c #15387F",
"Q+	c #2E4C8C",
"R+	c #7485AA",
"S+	c #8D99B5",
"T+	c #365390",
"U+	c #264689",
"V+	c #335190",
"W+	c #345290",
"X+	c #355391",
"Y+	c #304F8E",
"Z+	c #163880",
"`+	c #294888",
" @	c #1D3F84",
".@	c #395693",
"+@	c #0D317B",
"@@	c #8F9AB6",
"#@	c #435E97",
"$@	c #48639B",
"%@	c #657CAB",
"&@	c #667DAC",
"*@	c #49649C",
"=@	c #254688",
"-@	c #2D4B8A",
";@	c #909FC0",
">@	c #7186B2",
",@	c #758AB4",
"'@	c #7D90B8",
")@	c #7E91B9",
"!@	c #5972A4",
"~@	c #49639B",
"{@	c #7889AC",
"]@	c #7E88A2",
"^@	c #909CB8",
"/@	c #A9B3CD",
"(@	c #D3DAEA",
"_@	c #D9DFEE",
":@	c #D8DEED",
"<@	c #D4DAEB",
"[@	c #A9B2CC",
"}@	c #7D86A0",
"|@	c #7C86A0",
"1@	c #8E99B4",
"2@	c #A7B1CA",
"3@	c #C4CCDF",
"4@	c #D5DBEA",
"5@	c #DAE0ED",
"6@	c #DBE0EE",
"7@	c #8E98B3",
"8@	c #7D869F",
"9@	c #79829B",
"0@	c #8993AE",
"a@	c #A0AAC3",
"b@	c #C9D0E2",
"c@	c #CED4E5",
"d@	c #CED5E6",
"e@	c #C9D0E1",
"f@	c #A0A9C2",
"g@	c #8993AD",
"h@	c #78819A",
"i@	c #747E95",
"j@	c #818BA5",
"k@	c #919BB5",
"l@	c #A1ABC4",
"m@	c #ABB4CC",
"n@	c #AFB8D0",
"o@	c #AFB9D1",
"p@	c #A1AAC3",
"q@	c #909AB4",
"r@	c #747D94",
"s@	c #6D768C",
"t@	c #8994AE",
"u@	c #8F9AB4",
"v@	c #919CB7",
"w@	c #778199",
"x@	c #6C758C",
"y@	c #7F89A3",
"  . + @ # $ $ $ $ $ $ $ $ $ $ $ $ $ $ $ $ $ $ $ $ $ % & * + .   ",
". = - ; > , ' ' ' ' ' ' ' ' ' ' ' ' ' ' ' ' ' ' ' ' , > ; - ) . ",
"! ~ { ] ^ / / / / / / / / / / / / / / / / / / / / / / ^ ( _ - + ",
": < [ } | 1 1 1 1 1 1 1 1 1 1 1 1 1 1 1 1 1 1 1 1 1 2 | } [ 3 * ",
"4 5 6 7 8 9 9 0 9 9 9 9 0 9 9 0 9 0 9 9 9 0 0 0 0 9 9 a b c d e ",
"f g h i j k k k l l k k l l k k l l k k k k k k k k k j i h m n ",
"o p q r s t u u u u u u v w x w v y z w v u u u u u t A r B C # ",
"o D E F G H I I I J J J K L L L K M M L K I I I J J J N O P Q # ",
"R S T U V W X X X X X X Y Y Z ` Y Y Z Y ` X X  .X X W ..+.@.#.4 ",
"$.%.&.*.=.-.-.-.-.-.-.-.;.>.,.Z >.Z >.>.'.-.-.-.-.-.-.=.).!.~.{.",
"].^./.(._.:.<.<.<.<.<.<.[.}.|.|.Z |.|.}.[.<.<.<.<.<.:._.1.2.3.4.",
"5.6.7.8.9.0.a.a.b.b.b.b.c.d.d.Z Z Z d.e.c.a.b.a.a.b.0.f.g.h.i.j.",
"k.l.m.n.o.p.q.q.r.r.q.s.t.u.u.Z Z Z u.u.t.s.q.q.q.q.p.v.w.x.y.z.",
"A.B.C.D.E.F.G.G.G.G.H.I.J.J.Z Z Z Z Z K.J.I.L.G.G.G.F.M.N.O.P.Q.",
"R.S.T.U.V.W.X.X.X.Y.Z.`. +Z Z Z Z Z Z Z  + +Z.Y..+X.W.++@+#+$+%+",
"R.&+*+=+-+;+>+,+,+'+)+)+Z Z Z Z )+Z Z Z Z !+)+~+>+>+{+]+^+/+(+%+",
"_+:+<+[+}+|+1+1+2+3+3+Z Z Z Z 3+3+3+Z Z Z Z 3+3+2+1+|+4+5+6+7+8+",
"9+0+a+b+c+d+e+f+g+h+h+Z Z Z Z h+h+h+Z Z Z Z h+h+g+f+d+H.i+j+k+l+",
"m+k+n+o+p+q+r+s+t+t+Z Z Z Z t+t+s+t+t+Z Z Z Z t+t+s+u+v+w+x+y+z+",
"m+k+n+o+p+u+s+t+t+Z Z Z Z t+t+s+r+s+t+t+Z Z Z Z t+t+s+A+w+x+y+z+",
"m+k+B+C+D+E+F+F+Z Z Z Z F+F+E+G+H+G+E+F+F+Z Z Z Z F+F+I+o+J+y+z+",
"m+0+K+L+M+N+N+Z Z Z Z Z N+N+N+N+O+N+O+O+N+Z Z Z Z Z N+M+P+Q+R+z+",
"9+S+T+U+`.V+W+Z Z Z Z X+X+X+X+W+X+X+X+X+X+X+Z Z Z Z W+Y+U+Z+`+l+",
"9+:+ @.@Z Z Z Z Z Z Z Z Z Z Z Z Z Z Z Z Z Z Z Z Z Z Z Z Z  @+@l+",
"9+@@#@$@e.%@&@&@&@&@&@&@&@&@&@&@&@&@&@&@&@&@&@&@&@&@&@d.*@=@-@l+",
"9+&+;@>@,@'@)@)@)@)@)@)@>.)@)@)@)@>.)@)@)@)@)@)@)@)@)@,@!@~@{@l+",
"]@^@/@(.(@X _@_@_@_@_@_@_@_@_@_@_@_@_@_@_@_@_@_@_@_@:@<@(.[@$+}@",
"|@1@2@3@4@5@6@6@6@N 6@N 6@6@6@6@6@6@6@N 6@6@N N 6@6@5@4@3@2@7@8@",
"9@0@a@&.b@c@d@d@d@d@d@d@d@d@d@d@d@d@d@d@d@d@d@d@d@d@c@e@!.f@g@h@",
"i@j@k@l@m@n@o@o@o@o@o@o@o@o@o@o@o@o@o@o@o@o@o@o@o@o@n@m@p@q@A.r@",
"s@h@A.t@u@v@P.P.P.P.P.P.P.P.P.P.P.P.P.P.P.P.P.P.P.P.v@u@t@A.w@x@",
"  s@r@9@}@y@y@y@y@y@y@y@y@y@y@y@y@y@y@y@y@y@y@y@y@y@8+8@h@r@s@  "};
