/* XPM */
static const char * xpm_supply[] = {
"32 32 278 2",
"  	c None",
". 	c #31315B",
"+ 	c #C8D5E6",
"@ 	c #C5D2E5",
"# 	c #C2D0E3",
"$ 	c #BFCDE2",
"% 	c #C6D3E5",
"& 	c #C3D0E4",
"* 	c #BCCAE1",
"= 	c #C4D1E4",
"- 	c #C1CFE3",
"; 	c #BDCBE1",
"> 	c #4B4D73",
", 	c #797F9D",
"' 	c #C5D2E4",
") 	c #C2CFE3",
"! 	c #BECCE1",
"~ 	c #BAC8DF",
"{ 	c #71789A",
"] 	c #474A71",
"^ 	c #585B7F",
"/ 	c #A2ABC3",
"( 	c #C2D0E4",
"_ 	c #BFCCE2",
": 	c #BAC8E0",
"< 	c #B7C5DE",
"[ 	c #B3C1DC",
"} 	c #909ABB",
"| 	c #51547C",
"1 	c #919AB5",
"2 	c #BBC9E0",
"3 	c #B6C5DE",
"4 	c #B2C1DC",
"5 	c #AEBDDA",
"6 	c #A9B9D7",
"7 	c #7D88AB",
"8 	c #C1CEE3",
"9 	c #BBC9E1",
"0 	c #B7C5DF",
"a 	c #B3C1DD",
"b 	c #ADBCDA",
"c 	c #A9B8D8",
"d 	c #A5B4D5",
"e 	c #A0B0D3",
"f 	c #C0CEE3",
"g 	c #BFCBE2",
"h 	c #BCCAE0",
"i 	c #B9C7DF",
"j 	c #B5C3DE",
"k 	c #B0BFDB",
"l 	c #ABB9D9",
"m 	c #A6B4D6",
"n 	c #A2B0D4",
"o 	c #9CACD1",
"p 	c #BECBE2",
"q 	c #B8C6DF",
"r 	c #B5C3DD",
"s 	c #B1BFDB",
"t 	c #ACBBD9",
"u 	c #A6B5D6",
"v 	c #A2B0D3",
"w 	c #9DACD1",
"x 	c #98A7CF",
"y 	c #BBC8E0",
"z 	c #B9C5DF",
"A 	c #B5C2DD",
"B 	c #B2BFDC",
"C 	c #AEBCDA",
"D 	c #A8B7D7",
"E 	c #A2B1D4",
"F 	c #9DADD1",
"G 	c #94A3CC",
"H 	c #B2C0DC",
"I 	c #AFBCDB",
"J 	c #AAB8D9",
"K 	c #A5B3D6",
"L 	c #9EAED3",
"M 	c #99A9D0",
"N 	c #95A4CD",
"O 	c #91A1CB",
"P 	c #000000",
"Q 	c #020100",
"R 	c #AFBDDB",
"S 	c #ABBADA",
"T 	c #A7B5D8",
"U 	c #A2B0D5",
"V 	c #9CAAD1",
"W 	c #97A6CF",
"X 	c #93A2CC",
"Y 	c #8E9DC9",
"Z 	c #180E04",
"` 	c #140C03",
" .	c #0B0602",
"..	c #512F0C",
"+.	c #5F370E",
"@.	c #392108",
"#.	c #160D03",
"$.	c #B3C0DC",
"%.	c #B0BDDB",
"&.	c #ACBAD9",
"*.	c #A9B7D8",
"=.	c #A4B3D6",
"-.	c #9FADD3",
";.	c #99A8CF",
">.	c #95A3CE",
",.	c #8C9AC6",
"'.	c #41485E",
").	c #07070D",
"!.	c #180E03",
"~.	c #3B2208",
"{.	c #5B360D",
"].	c #362008",
"^.	c #CA771D",
"/.	c #D07A1E",
"(.	c #C1711C",
"_.	c #754511",
":.	c #1B1004",
"<.	c #AEBBDA",
"[.	c #AAB7D8",
"}.	c #A7B4D7",
"|.	c #9CABD2",
"1.	c #747F9E",
"2.	c #3B4052",
"3.	c #040201",
"4.	c #412709",
"5.	c #824E13",
"6.	c #A96518",
"7.	c #B16A19",
"8.	c #2B1906",
"9.	c #B0801A",
"0.	c #4C380B",
"a.	c #8E5514",
"b.	c #D17D1E",
"c.	c #C9781D",
"d.	c #754611",
"e.	c #010000",
"f.	c #ADBBDA",
"g.	c #AAB7D9",
"h.	c #A6B3D7",
"i.	c #96A2C4",
"j.	c #3D4352",
"k.	c #07080A",
"l.	c #0B0702",
"m.	c #886314",
"n.	c #271C06",
"o.	c #AF6B19",
"p.	c #D1801E",
"q.	c #D3811E",
"r.	c #653E0E",
"s.	c #6A4E10",
"t.	c #372208",
"u.	c #CF7E1D",
"v.	c #C5781C",
"w.	c #100A02",
"x.	c #929EBD",
"y.	c #383D4A",
"z.	c #090601",
"A.	c #4D300A",
"B.	c #AB6B17",
"C.	c #54340B",
"D.	c #7F5D13",
"E.	c #8B6614",
"F.	c #51330B",
"G.	c #D5851D",
"H.	c #C1781A",
"I.	c #CD801C",
"J.	c #5C390D",
"K.	c #130E03",
"L.	c #C47B1B",
"M.	c #C87D1B",
"N.	c #2E2E57",
"O.	c #757F99",
"P.	c #171103",
"Q.	c #2A1B06",
"R.	c #B57418",
"S.	c #D88A1D",
"T.	c #A96C17",
"U.	c #65400E",
"V.	c #362808",
"W.	c #0D0802",
"X.	c #BA7719",
"Y.	c #A26716",
"Z.	c #BD7919",
"`.	c #030200",
" +	c #3D2D09",
".+	c #8E6816",
"++	c #1C1304",
"@+	c #DA8F1D",
"#+	c #A86E16",
"$+	c #342207",
"%+	c #BB7B19",
"&+	c #BA7A19",
"*+	c #1F1404",
"=+	c #120C02",
"-+	c #734E0F",
";+	c #040301",
">+	c #0A0601",
",+	c #3E2E09",
"'+	c #A46E15",
")+	c #DD951C",
"!+	c #D48F1B",
"~+	c #5E3F0C",
"{+	c #060401",
"]+	c #0A0701",
"^+	c #61430C",
"/+	c #CC8D19",
"(+	c #E09B1C",
"_+	c #AF7916",
":+	c #714E0E",
"<+	c #775812",
"[+	c #4C350A",
"}+	c #C88B19",
"|+	c #8B6011",
"1+	c #2A1D05",
"2+	c #5A400B",
"3+	c #D5971A",
"4+	c #E3A11C",
"5+	c #CB9019",
"6+	c #523A0A",
"7+	c #D4961A",
"8+	c #E09F1C",
"9+	c #D1941A",
"0+	c #9E7014",
"a+	c #4B3509",
"b+	c #140E02",
"c+	c #1D1504",
"d+	c #CF9619",
"e+	c #E6A71C",
"f+	c #E5A61C",
"g+	c #2E2106",
"h+	c #71520E",
"i+	c #AF7F15",
"j+	c #5D430B",
"k+	c #1B1403",
"l+	c #443208",
"m+	c #D9A119",
"n+	c #E9AD1B",
"o+	c #B98A15",
"p+	c #E6AB1B",
"q+	c #AB7F14",
"r+	c #4D3909",
"s+	c #090701",
"t+	c #473608",
"u+	c #E9B11B",
"v+	c #EBB21B",
"w+	c #DEA81A",
"x+	c #86650F",
"y+	c #2C2205",
"z+	c #171203",
"A+	c #D4A318",
"B+	c #EDB61B",
"C+	c #EEB71B",
"D+	c #E6B11A",
"E+	c #E5B01A",
"F+	c #DAA819",
"G+	c #A17B12",
"H+	c #523F09",
"I+	c #574309",
"J+	c #B68E14",
"K+	c #E5B219",
"L+	c #F0BB1A",
"M+	c #ECB81A",
"N+	c #C89B16",
"O+	c #AF8813",
"P+	c #8E6F0F",
"Q+	c #5F4A0A",
"R+	c #1B1503",
"S+	c #0B0901",
"T+	c #261E04",
"U+	c #5F4B0A",
"V+	c #AC8812",
"W+	c #B89114",
"X+	c #7B610D",
"Y+	c #524009",
"Z+	c #3E3107",
"`+	c #231C04",
" @	c #171202",
".@	c #070501",
"                                                                ",
"                                                                ",
"              . . . . . . . .                                   ",
"              . + + + @ # $ .                                   ",
"              . + + % & $ * .                                   ",
"              . . % = - ; . .                                   ",
"              > , ' ) ! ~ { ]                                   ",
"            ^ / = ( _ : < [ } |                                 ",
"          . 1 = ) _ 2 3 4 5 6 7 .                               ",
"          . ( 8 ! 9 0 a b c d e .                               ",
"          . f g h i j k l m n o .                               ",
"          . p 2 q r s t u v w x .                               ",
"          . y z A B C D E F x G .                               ",
"          . q j H I J K L M N O .             P P Q             ",
"          . r H R S T U V W X Y .     P Z `  ...+.@.#.          ",
"          . $.%.&.*.=.-.;.>.,.'.).!.~.{.]. .^./.(./._.:.        ",
"          . %.<.[.}.U |.1.2.3.4.5.6.7.8.9.0.a.b.b.b.c.d.e.      ",
"          . f.g.h.i.j.k.l.m.n.o.p.q.q.r.` s.t.u.q.q.q.v.w.      ",
"          . D x.y.z.A.B.C.D.E.F.G.G.G.H.I.J.K.L.G.G.G.M.t.      ",
"          N.O.P.Q.R.S.S.T.U.V.W.X.S.S.S.S.S.Y.S.S.S.S.Z.Q.      ",
"          `. +.+++@+@+@+@+@+#+$+%+@+@+@+@+@+@+@+@+@+@+&+*+      ",
"      P =+-+;+>+,+'+)+)+)+)+)+)+)+)+)+)+)+)+)+)+)+)+!+~+{+      ",
"    ]+^+/+(+_+:+<+[+(+(+(+(+(+(+(+(+(+(+(+(+(+(+}+|+1+P         ",
"  P 2+3+4+4+4+5+6+;+7+4+4+4+4+4+4+4+4+4+4+8+9+0+a+b+Q           ",
"  c+d+e+e+e+e+f+e+g+h+e+e+e+e+e+e+e+e+e+e+i+j+k+P               ",
"P l+m+n+n+n+n+n+n+o+p+n+n+n+n+n+n+n+n+q+r+s+P                   ",
"P t+u+v+v+v+v+v+v+v+v+v+v+v+v+v+w+x+y+P P                       ",
"  z+A+B+C+C+C+C+C+C+C+D+E+F+G+H+P P                             ",
"  P I+J+K+L+L+L+M+N+O+P+Q+R+P P                                 ",
"    S+T+U+V+W+X+Y+Z+`+P P                                       ",
"        P  @P P .@                                              ",
"                                                                "};
