/* XPM */ 
static const char * xpm_talkie_interdit[] = {
"32 32 6 1",
" 	c None",
"!	c black",
"#	c #FF2424",
"$	c #C5C5C5",
"%	c #787878",
"&	c #090909",
"                                ",
"                                ",
"                       !        ",
"                       !        ",
"                      !         ",
"                      !         ",
"                      !         ",
"                      !         ",
"                     !          ",
"                     !          ",
"                     !          ",
"                     !          ",
"        #    !!!    !  #        ",
"        ##   !$%!!!!! ##        ",
"        ###  !%$%$%$!###        ",
"         ####%$%$%$%###         ",
"          ####%$%$%###          ",
"            ###%$%###           ",
"            !###%###!           ",
"           !$$#####%!           ",
"           !$$####$!            ",
"           !$######!            ",
"          !$###$$###            ",
"          !###&$$$###           ",
"          ###&$$$$!####         ",
"         ###$$$$$$!  ###        ",
"        ###$$$$$$$!   ##        ",
"        ##!!$$$$$!     #        ",
"        #   !!!!$!              ",
"                !!              ",
"                                ",
"                                "};
