/* XPM */
static const char* xpm_tic_temps[] = {
/* columns rows colors chars-per-pixel */
"32 32 45 1",
"1 c #CBE3E9",
"i c #97B5BC",
"6 c #C4DFE6",
"  c None",
"@ c #DDEDF1",
"y c #C7E0E7",
"= c #D1E2E6",
"o c #E0EEF2",
"- c #D9EAEF",
"7 c #C8E1E8",
"% c #AFC1C6",
"2 c #D2E6EC",
"4 c #9EB2B8",
"O c #FCFDFE",
"< c #DAEBEF",
"5 c #C9DFE4",
"r c #77939B",
"h c #D3E7EC",
"s c #7C979F",
"0 c #C2DEE5",
"f c #8BA3AA",
"$ c #DDECF0",
"j c #FDFEFE",
"q c #A2BDC3",
"; c #DBECF0",
"8 c #D4E8ED",
"+ c #DEEDF1",
"u c #CDE4EA",
". c #E8F2F5",
"t c #B7D4DB",
"9 c #D7E9EE",
"w c #8DA5AC",
"X c #DFEEF1",
"e c #97ADB3",
"> c #C9DBDF",
"* c #778C92",
"p c #66868F",
": c #9FB2B7",
"3 c #BDD0D4",
"d c #849EA5",
"# c #F4F9FA",
"& c #7D9197",
"a c #718F97",
", c #D2E7EC",
"g c #8FA7AD",
/* pixels */
"                                ",
"                                ",
"  .XXXXXXXXXXXXXXXXXXXXXXXXXXoOO",
"  +++++++++++++++++++++++++++@##",
"  +++++++++++++++++++++++++++@##",
"  $%%&&&&&&&&&&*&&&&&&&&&&&==-##",
"  ;::**********************>>,##",
"  ;::**********************>>,##",
"  <<<<<<<<<<<<<*<<<<<<<<<<<<<1##",
"  <<<<<<<<<<<<<*<<<<<<<<<<<<<1##",
"  2334444444444*44444444444556##",
"  7889999999999*99999999998770##",
"  7889999999999*99999999998770##",
"  0qqweeeeeeeee*eeeeeeeewwrtt0##",
"  000yuu8888888*888888uuyy0000##",
"  000yuu8888888*888888uuyy0000##",
"  0iipppaasddfg*ffdssappppptt0##",
"  0iipppaasddfg*ffdssappppptt0##",
"  0000000000000*00000000000000##",
"  0iipppppppppp*ppppppppppptt0##",
"  0iipppppppppp*ppppppppppptt0##",
"  0000000000000*00000000000000##",
"  0iipppppppppp*ppppppppppptt0##",
"  0iipppppppppp*ppppppppppptt0##",
"  0000000000000*00000000000000##",
"  0000000000000*00000000000000##",
"  0iipppppppppppppppppppppptt0##",
"  0000000000000000000000000000##",
"  0000000000000000000000000000##",
"  h000000000000000000000000001jj",
"                                ",
"                                "
};
