/* XPM */
static const char * xpm_timer[] = {
"22 22 28 1",
" 	c #000000",
".	c #4CD835",
"+	c #1A4912",
"@	c #2D801F",
"#	c #3DAE2B",
"$	c #48CC32",
"%	c #3DAC2A",
"&	c #266C1A",
"*	c #13350D",
"=	c #050F04",
"-	c #4BD635",
";	c #153A0E",
">	c #3FB42C",
",	c #2D8120",
"'	c #0D2409",
")	c #071305",
"!	c #1C5014",
"~	c #030802",
"{	c #339124",
"]	c #040C03",
"^	c #2A771D",
"/	c #2B7B1E",
"(	c #194812",
"_	c #164010",
":	c #28711C",
"<	c #328D23",
"[	c #010401",
"}	c #1B4B12",
"        ......        ",
"         ....         ",
"          ..          ",
"    ..    ..    ..    ",
"   ....+@#$$#@+....   ",
"   ................   ",
"    ...%&*==*&%-..    ",
"   ;>.,'      )!..;   ",
"  ~{.,]      ^..,.{~  ",
"  +.%'      /.. '%.+  ",
"  @.&      /..(  &.@  ",
"  #.*     /.._   *.#  ",
"  $.=    :..     =.$  ",
"  $.=    <...... =.$  ",
"  #.*    [_      *.#  ",
"  @.&            &.@  ",
"  +.%'          '%.+  ",
"  ~{.,]        ],.{~  ",
"   ;>.,'      ',.>;   ",
"    }>.%&*==*&%.>}    ",
"     ;{........{;     ",
"      ~+@#$$#@+~      "};
