/* XPM */
static const char * xpm_tiredness_tired[] = {
"32 32 427 2",
"  	c None",
". 	c #154B8F",
"+ 	c #1E569A",
"@ 	c #215BA2",
"# 	c #255FA7",
"$ 	c #2560AA",
"% 	c #2560A9",
"& 	c #255EA6",
"* 	c #215AA1",
"= 	c #245DA1",
"- 	c #3C71B4",
"; 	c #4B7EBE",
"> 	c #5084C4",
", 	c #5186C7",
"' 	c #5186C8",
") 	c #245CA0",
"! 	c #164C8F",
"~ 	c #1D559B",
"{ 	c #3C72B4",
"] 	c #709BCF",
"^ 	c #91B3DE",
"/ 	c #9BBBE3",
"( 	c #9BBDE5",
"_ 	c #9CBDE5",
": 	c #91B3DD",
"< 	c #709ACE",
"[ 	c #205BA2",
"} 	c #4A7FBF",
"| 	c #8BB0DC",
"1 	c #B6CEEC",
"2 	c #C2D7F1",
"3 	c #C5D9F2",
"4 	c #C4D9F2",
"5 	c #B5CEEC",
"6 	c #4A7EBE",
"7 	c #225DA6",
"8 	c #4B80C3",
"9 	c #8FB3E0",
"0 	c #B9D1EF",
"a 	c #C5DAF3",
"b 	c #C8DCF5",
"c 	c #CADDF3",
"d 	c #C6DBF4",
"e 	c #BAD2EF",
"f 	c #8FB4E0",
"g 	c #4B80C2",
"h 	c #235DA5",
"i 	c #215EA8",
"j 	c #4980C5",
"k 	c #89B0E0",
"l 	c #B1CDEE",
"m 	c #BCD5F3",
"n 	c #BED7F4",
"o 	c #BFD7F4",
"p 	c #C7DCEC",
"q 	c #D3E3E1",
"r 	c #BED6F4",
"s 	c #4980C4",
"t 	c #225DA7",
"u 	c #205DA9",
"v 	c #457EC4",
"w 	c #80AADE",
"x 	c #A6C6EC",
"y 	c #B1CDF1",
"z 	c #B2CFF2",
"A 	c #B8D2EC",
"B 	c #B3CFF2",
"C 	c #DFE9C9",
"D 	c #DDE8CA",
"E 	c #BAD4EA",
"F 	c #B0CDF0",
"G 	c #80AADD",
"H 	c #457EC3",
"I 	c #215EA7",
"J 	c #407BC2",
"K 	c #77A4DC",
"L 	c #9ABDE9",
"M 	c #A4C5EF",
"N 	c #A4C6F0",
"O 	c #A5C7F0",
"P 	c #B9D2DE",
"Q 	c #EDF1AD",
"R 	c #A7C8ED",
"S 	c #C5DAD2",
"T 	c #FFFC9C",
"U 	c #DDE7BC",
"V 	c #AECCE6",
"W 	c #A3C4EE",
"X 	c #99BDE9",
"Y 	c #77A4DB",
"Z 	c #1D5BA8",
"` 	c #3C77C1",
" .	c #6E9ED9",
"..	c #8CB4E6",
"+.	c #95BCEC",
"@.	c #96BEED",
"#.	c #96BEEE",
"$.	c #A5C6E0",
"%.	c #E4EBA6",
"&.	c #FFFB8D",
"*.	c #F1F39A",
"=.	c #E9EEA2",
"-.	c #A2C4E3",
";.	c #95BDEE",
">.	c #A8C8DD",
",.	c #FFFB8C",
"'.	c #FFFB8B",
").	c #D1E0B7",
"!.	c #95BCEB",
"~.	c #6D9ED9",
"{.	c #3C77C0",
"].	c #1E5BA6",
"^.	c #1C5AA7",
"/.	c #3774BF",
"(.	c #6497D7",
"_.	c #7DABE3",
":.	c #87B3E9",
"<.	c #88B5EB",
"[.	c #98BEDC",
"}.	c #F7F584",
"|.	c #FFFA7C",
"1.	c #FFFA7D",
"2.	c #DCE69D",
"3.	c #87B4EB",
"4.	c #8DB7E6",
"5.	c #FFFA7B",
"6.	c #FEFA7C",
"7.	c #B3CEC2",
"8.	c #86B2E9",
"9.	c #6397D6",
"0.	c #1D5BA6",
"a.	c #1A59A7",
"b.	c #3271BE",
"c.	c #5990D4",
"d.	c #70A2E0",
"e.	c #77A9E6",
"f.	c #78ABE8",
"g.	c #78ABE9",
"h.	c #90B9D3",
"i.	c #FCF86F",
"j.	c #FFFA6C",
"k.	c #B9D1AD",
"l.	c #7FAEE3",
"m.	c #FFFA6B",
"n.	c #DAE48E",
"o.	c #80AFE1",
"p.	c #78A9E6",
"q.	c #578FD3",
"r.	c #3271BD",
"s.	c #1A59A5",
"t.	c #1857A6",
"u.	c #2E6EBD",
"v.	c #4E88D1",
"w.	c #6299DD",
"x.	c #69A0E4",
"y.	c #6AA2E6",
"z.	c #6AA2E7",
"A.	c #EFF06A",
"B.	c #DAE37E",
"C.	c #CCDB8B",
"D.	c #C3D693",
"E.	c #69A1E6",
"F.	c #84B1CF",
"G.	c #FFF95A",
"H.	c #FFF95B",
"I.	c #9ABEB8",
"J.	c #689FE3",
"K.	c #4D88D0",
"L.	c #2E6EBC",
"M.	c #1958A4",
"N.	c #286ABB",
"O.	c #4381CE",
"P.	c #5490DA",
"Q.	c #5996E1",
"R.	c #5A98E3",
"S.	c #5A98E4",
"T.	c #82AFC0",
"U.	c #5B99E4",
"V.	c #95BBAD",
"W.	c #FFF94A",
"X.	c #B7CF8D",
"Y.	c #5995E0",
"Z.	c #4281CD",
"`.	c #286ABA",
" +	c #1857A4",
".+	c #1655A5",
"++	c #2467B9",
"@+	c #397ACB",
"#+	c #4788D8",
"$+	c #4B8DDE",
"%+	c #4D90E1",
"&+	c #4C8FE2",
"*+	c #4D90E2",
"=+	c #B5CD7F",
"-+	c #FFF83A",
";+	c #FFF83B",
">+	c #D5DF62",
",+	c #4889D7",
"'+	c #387ACA",
")+	c #2467B8",
"!+	c #1655A3",
"~+	c #1555A4",
"{+	c #1F63B8",
"]+	c #3174C9",
"^+	c #3B80D5",
"/+	c #3F85DC",
"(+	c #3F87DF",
"_+	c #3F87E0",
":+	c #3E86DF",
"<+	c #619BC0",
"[+	c #E3E746",
"}+	c #FFF82C",
"|+	c #FFF82B",
"1+	c #EEEE3C",
"2+	c #3E85DB",
"3+	c #3B80D4",
"4+	c #3074C8",
"5+	c #1F63B7",
"6+	c #1555A2",
"7+	c #1B61B7",
"8+	c #286FC7",
"9+	c #3079D2",
"0+	c #317DDA",
"a+	c #327FDD",
"b+	c #317EDD",
"c+	c #A1C076",
"d+	c #FFF71D",
"e+	c #FFF71E",
"f+	c #FDF61F",
"g+	c #317CD9",
"h+	c #266EC6",
"i+	c #1B61B6",
"j+	c #1353A4",
"k+	c #195FB6",
"l+	c #216AC5",
"m+	c #2571D0",
"n+	c #2776D8",
"o+	c #2778DB",
"p+	c #2778DC",
"q+	c #75A694",
"r+	c #EEEC22",
"s+	c #FFF712",
"t+	c #EBEB24",
"u+	c #2675D7",
"v+	c #2672CF",
"w+	c #206AC4",
"x+	c #195FB5",
"y+	c #1454A2",
"z+	c #1253A3",
"A+	c #165DB5",
"B+	c #1A65C3",
"C+	c #1D6DCF",
"D+	c #1E71D6",
"E+	c #1E73D9",
"F+	c #1E73DA",
"G+	c #639B9A",
"H+	c #D4DD30",
"I+	c #FFF608",
"J+	c #CAD63A",
"K+	c #1D70D5",
"L+	c #1D6DCE",
"M+	c #1965C2",
"N+	c #165DB4",
"O+	c #1253A1",
"P+	c #1152A3",
"Q+	c #135BB4",
"R+	c #1562C2",
"S+	c #1668CD",
"T+	c #176CD5",
"U+	c #176ED8",
"V+	c #176ED9",
"W+	c #70A286",
"X+	c #D6DE26",
"Y+	c #FFF600",
"Z+	c #9ABB5E",
"`+	c #166BD4",
" @	c #1668CC",
".@	c #1462C1",
"+@	c #135BB3",
"@@	c #1152A1",
"#@	c #4487AC",
"$@	c #4E8EA5",
"%@	c #4E8EA6",
"&@	c #9FBE59",
"*@	c #F5F009",
"=@	c #639A92",
"-@	c #1763C2",
";@	c #1869CD",
">@	c #2776CA",
",@	c #B3CA4B",
"'@	c #AFC84F",
")@	c #7AA880",
"!@	c #508FA8",
"~@	c #2E7CC7",
"{@	c #1D71D8",
"]@	c #ECEB16",
"^@	c #FFF604",
"/@	c #C0D23F",
"(@	c #2777CD",
"_@	c #1A6DD5",
":@	c #196ACD",
"<@	c #1663C1",
"[@	c #155CB5",
"}@	c #1B66C3",
"|@	c #2370D0",
"1@	c #2877D8",
"2@	c #79A892",
"3@	c #FDF617",
"4@	c #FFF714",
"5@	c #FFF715",
"6@	c #FDF616",
"7@	c #79A893",
"8@	c #2A7ADB",
"9@	c #2776D7",
"0@	c #2370CF",
"a@	c #1A66C2",
"b@	c #155CB4",
"c@	c #175EB5",
"d@	c #236BC6",
"e@	c #337BD3",
"f@	c #3E85DC",
"g@	c #4088DF",
"h@	c #ABC67D",
"i@	c #FFF82E",
"j@	c #FFF82F",
"k@	c #4289E0",
"l@	c #4188DF",
"m@	c #3C83DB",
"n@	c #337BD2",
"o@	c #226BC5",
"p@	c #175EB4",
"q@	c #2A70C8",
"r@	c #4586D7",
"s@	c #5593E0",
"t@	c #5997E3",
"u@	c #6CA2D2",
"v@	c #C0D384",
"w@	c #FFF949",
"x@	c #FFF948",
"y@	c #6BA2D2",
"z@	c #5998E4",
"A@	c #5492DF",
"B@	c #4586D6",
"C@	c #2970C7",
"D@	c #1A60B6",
"E@	c #3175C9",
"F@	c #5390DA",
"G@	c #6AA0E4",
"H@	c #6FA5E7",
"I@	c #70A6E8",
"J@	c #80AFD8",
"K@	c #C0D59D",
"L@	c #FEF963",
"M@	c #FFF962",
"N@	c #70A6E7",
"O@	c #1A60B5",
"P@	c #3879CB",
"Q@	c #639ADD",
"R@	c #7EADE8",
"S@	c #85B3EB",
"T@	c #86B3EB",
"U@	c #B3CDC1",
"V@	c #DEE799",
"W@	c #FFFA7A",
"X@	c #7DADE7",
"Y@	c #3779CA",
"Z@	c #1C61B6",
"`@	c #1253A2",
" #	c #1E63B8",
".#	c #3E7ECD",
"+#	c #70A3E0",
"@#	c #90B8EA",
"##	c #99BFEE",
"$#	c #9BC0EE",
"%#	c #A1C3E9",
"&#	c #BCD3D0",
"*#	c #D3E2BA",
"=#	c #E7EDA7",
"-#	c #F6F699",
";#	c #FEFB92",
">#	c #99BFED",
",#	c #90B9EB",
"'#	c #71A3E0",
")#	c #3D7ECC",
"!#	c #1E63B7",
"~#	c #1252A0",
"{#	c #1352A0",
"]#	c #1E61B4",
"^#	c #407ECA",
"/#	c #75A5DF",
"(#	c #97BCEA",
"_#	c #A0C3ED",
":#	c #A2C4EE",
"<#	c #A3C5EE",
"[#	c #75A4DF",
"}#	c #1E61B3",
"|#	c #14529F",
"1#	c #11509B",
"2#	c #1B5EAE",
"3#	c #3876C3",
"4#	c #80ACE2",
"5#	c #88B2E5",
"6#	c #88B2E6",
"7#	c #89B3E6",
"8#	c #80ACE1",
"9#	c #3876C2",
"0#	c #1B5DAD",
"a#	c #114F9A",
"b#	c #114C95",
"c#	c #1656A5",
"d#	c #2565B5",
"e#	c #3A78C4",
"f#	c #4883CC",
"g#	c #4C88D0",
"h#	c #4D88D1",
"i#	c #3A78C3",
"j#	c #2464B4",
"k#	c #114C94",
"l#	c #0F478C",
"m#	c #124F9A",
"n#	c #1C5DAE",
"o#	c #2062B4",
"p#	c #2165B7",
"q#	c #2165B8",
"r#	c #124E99",
"s#	c #1453A0",
"t#	c #1454A3",
"  . + @ # $ $ $ $ $ $ $ $ $ $ $ $ $ $ $ $ $ $ $ $ $ % & * + .   ",
". = - ; > , ' ' ' ' ' ' ' ' ' ' ' ' ' ' ' ' ' ' ' ' , > ; - ) ! ",
"~ { ] ^ / ( _ _ _ _ _ _ _ _ _ _ _ _ _ _ _ _ _ _ _ _ ( / : < - + ",
"[ } | 1 2 3 3 3 3 3 4 4 3 4 4 3 3 3 3 3 4 3 3 3 4 4 4 2 5 | 6 * ",
"7 8 9 0 a b b b b b b b b b b b b b b b c b b b b b b d e f g h ",
"i j k l m n n n o o n n o o n n o o n n p q n n n n r m l k s t ",
"u v w x y z z z z A z z z z z z z B B z z C D E z z z F x G H I ",
"u J K L M N O O P Q R N O O O O O N N O O S T U V N O W X Y J I ",
"Z `  ...+.@.#.$.%.&.*.=.-.#.#.;.#.#.#.#.;.>.,.'.).#.@.!...~.{.].",
"^./.(._.:.<.[.}.|.1.|.2.<.3.<.3.3.3.3.3.3.4.5.5.6.7.<.8._.9./.0.",
"a.b.c.d.e.f.g.h.i.j.j.k.g.g.g.g.g.g.g.g.g.l.m.m.m.n.o.p.d.q.r.s.",
"t.u.v.w.x.y.z.z.A.B.C.D.E.E.E.E.z.z.E.z.E.F.G.H.H.G.I.J.w.K.L.M.",
"t.N.O.P.Q.R.S.S.T.U.S.S.S.S.S.U.S.S.S.S.S.V.W.W.W.W.X.Y.P.Z.`. +",
".+++@+#+$+%+&+&+&+*+*+&+*+*+&+*+&+&+*+&+*+=+-+-+-+;+>+$+,+'+)+!+",
"~+{+]+^+/+(+_+_+_+_+_+:+_+:+_+_+_+_+_+_+<+[+}+}+|+}+1+2+3+4+5+6+",
"~+7+8+9+0+a+a+b+b+a+a+a+a+a+b+b+a+a+a+b+c+d+e+d+e+e+f+g+9+h+i+6+",
"j+k+l+m+n+o+p+p+p+p+p+p+p+p+p+p+p+p+p+q+r+s+s+s+s+s+t+u+v+w+x+y+",
"z+A+B+C+D+E+F+F+F+F+F+F+F+F+F+F+F+F+G+H+I+I+I+I+I+I+J+K+L+M+N+O+",
"P+Q+R+S+T+U+V+V+V+V+V+V+V+V+V+V+V+W+X+Y+Y+Y+Y+Y+Y+Y+Z+`+ @.@+@@@",
"P+Q+R+S+#@$@V+V+V+V+V+V+V+V+V+%@&@*@Y+Y+Y+Y+Y+Y+Y+Y+=@`+ @.@+@@@",
"P+Q+-@;@>@,@'@)@!@~@{@~@!@)@'@]@^@^@^@^@^@^@^@^@^@/@(@_@:@<@+@@@",
"P+[@}@|@1@2@3@4@4@5@5@5@5@5@5@5@4@5@4@4@5@5@5@4@6@7@8@9@0@a@b@@@",
"z+c@d@e@f@g@h@i@j@j@j@j@j@j@j@i@j@j@j@j@j@j@j@i@h@k@l@m@n@o@p@O+",
"z+k+q@r@s@t@u@v@w@w@w@w@w@w@w@w@x@w@w@w@w@w@x@v@y@z@t@A@B@C@x+O+",
"z+D@E@F@G@H@I@J@K@L@M@M@M@M@M@M@M@M@M@M@M@L@K@J@I@I@N@J.P.E@O@O+",
"z+7+P@Q@R@S@T@T@T@U@V@W@5.W@W@W@W@5.W@W@V@U@T@T@T@T@T@X@Q@Y@Z@O+",
"`@ #.#+#@###$#$#$#$#%#&#*#=#-#;#-#=#*#&#%#$#$#$#$#$#>#,#'#)#!#~#",
"{#]#^#/#(#_#:#:#:#<#:#<#:#:#:#:#:#:#:#<#:#:#<#<#:#:#_#(#[#^#}#|#",
"1#2#3#(.4#5#6#6#7#7#7#7#7#7#7#7#7#6#6#7#7#6#6#7#6#7#5#8#9.9#0#a#",
"b#c#d#e#f#g#h#h#h#h#h#h#h#h#h#h#h#h#h#h#h#h#h#h#h#h#g#f#i#j#.+k#",
"l#m#.+n#o#p#q#q#q#q#q#q#q#q#q#q#q#q#q#q#q#q#q#q#q#q#p#o#n#.+r#l#",
"  l#k#1#s#t#t#t#t#t#t#t#t#t#t#t#t#t#t#t#t#t#t#t#t#t#y+|#a#k#l#  "};
