/* XPM */
static const char * xpm_tiredness_exhausted[] = {
"32 32 179 2",
"  	c None",
". 	c #060606",
"+ 	c #0F0F0F",
"@ 	c #121212",
"# 	c #151515",
"$ 	c #2E2E2E",
"% 	c #3D3D3D",
"& 	c #424242",
"* 	c #434343",
"= 	c #070707",
"- 	c #0E0E0E",
"; 	c #656565",
"> 	c #888888",
", 	c #929292",
"' 	c #939393",
") 	c #111111",
"! 	c #3C3C3C",
"~ 	c #828282",
"{ 	c #AFAFAF",
"] 	c #BDBDBD",
"^ 	c #BFBFBF",
"/ 	c #BEBEBE",
"( 	c #BCBCBC",
"_ 	c #858585",
": 	c #B3B3B3",
"< 	c #C0C0C0",
"[ 	c #C3C3C3",
"} 	c #C2C2C2",
"| 	c #C1C1C1",
"1 	c #B4B4B4",
"2 	c #868686",
"3 	c #131313",
"4 	c #3A3A3A",
"5 	c #7E7E7E",
"6 	c #AAAAAA",
"7 	c #B6B6B6",
"8 	c #B8B8B8",
"9 	c #B9B9B9",
"0 	c #7F7F7F",
"a 	c #101010",
"b 	c #363636",
"c 	c #757575",
"d 	c #9E9E9E",
"e 	c #A9A9A9",
"f 	c #ABABAB",
"g 	c #313131",
"h 	c #6B6B6B",
"i 	c #909090",
"j 	c #9B9B9B",
"k 	c #9C9C9C",
"l 	c #C4C4C4",
"m 	c #A8A8A8",
"n 	c #9A9A9A",
"o 	c #8F8F8F",
"p 	c #0D0D0D",
"q 	c #2C2C2C",
"r 	c #616161",
"s 	c #818181",
"t 	c #8B8B8B",
"u 	c #8C8C8C",
"v 	c #ECECEC",
"w 	c #FFFFFF",
"x 	c #D6D6D6",
"y 	c #0C0C0C",
"z 	c #272727",
"A 	c #565656",
"B 	c #717171",
"C 	c #7B7B7B",
"D 	c #7C7C7C",
"E 	c #F1F1F1",
"F 	c #0A0A0A",
"G 	c #222222",
"H 	c #4A4A4A",
"I 	c #626262",
"J 	c #6A6A6A",
"K 	c #F3F3F3",
"L 	c #494949",
"M 	c #080808",
"N 	c #1D1D1D",
"O 	c #3E3E3E",
"P 	c #535353",
"Q 	c #5C5C5C",
"R 	c #E8E8E8",
"S 	c #5B5B5B",
"T 	c #5A5A5A",
"U 	c #5E5E5E",
"V 	c #EFEFEF",
"W 	c #B5B5B5",
"X 	c #ADADAD",
"Y 	c #090909",
"Z 	c #171717",
"` 	c #323232",
" .	c #444444",
"..	c #747474",
"+.	c #4B4B4B",
"@.	c #4E4E4E",
"#.	c #E9E9E9",
"$.	c #C8C8C8",
"%.	c #777777",
"&.	c #A0A0A0",
"*.	c #A4A4A4",
"=.	c #F9F9F9",
"-.	c #505050",
";.	c #050505",
">.	c #969696",
",.	c #3B3B3B",
"'.	c #545454",
").	c #DDDDDD",
"!.	c #646464",
"~.	c #797979",
"{.	c #CCCCCC",
"].	c #686868",
"^.	c #373737",
"/.	c #040404",
"(.	c #1E1E1E",
"_.	c #282828",
":.	c #FBFBFB",
"<.	c #EEEEEE",
"[.	c #D5D5D5",
"}.	c #BABABA",
"|.	c #1C1C1C",
"1.	c #727272",
"2.	c #E1E1E1",
"3.	c #4F4F4F",
"4.	c #9F9F9F",
"5.	c #2F2F2F",
"6.	c #F6F6F6",
"7.	c #4D4D4D",
"8.	c #141414",
"9.	c #020202",
"0.	c #767676",
"a.	c #D1D1D1",
"b.	c #B0B0B0",
"c.	c #878787",
"d.	c #A2A2A2",
"e.	c #C6C6C6",
"f.	c #B2B2B2",
"g.	c #D4D4D4",
"h.	c #F4F4F4",
"i.	c #1A1A1A",
"j.	c #030303",
"k.	c #010101",
"l.	c #0B0B0B",
"m.	c #D9D9D9",
"n.	c #919191",
"o.	c #838383",
"p.	c #000000",
"q.	c #FCFCFC",
"r.	c #E7E7E7",
"s.	c #181818",
"t.	c #636363",
"u.	c #333333",
"v.	c #393939",
"w.	c #CACACA",
"x.	c #1F1F1F",
"y.	c #707070",
"z.	c #737373",
"A.	c #EBEBEB",
"B.	c #C5C5C5",
"C.	c #202020",
"D.	c #2B2B2B",
"E.	c #2D2D2D",
"F.	c #4C4C4C",
"G.	c #F8F8F8",
"H.	c #353535",
"I.	c #2A2A2A",
"J.	c #484848",
"K.	c #787878",
"L.	c #999999",
"M.	c #262626",
"N.	c #7A7A7A",
"O.	c #D2D2D2",
"P.	c #949494",
"Q.	c #303030",
"R.	c #696969",
"S.	c #8D8D8D",
"T.	c #979797",
"U.	c #7D7D7D",
"V.	c #383838",
"  . + @ # # # # # # # # # # # # # # # # # # # # # # # # @ + .   ",
". # $ % & * * * * * * * * * * * * * * * * * * * * * * & % $ # = ",
"- $ ; > , ' ' ' ' ' ' ' ' ' ' ' ' ' ' ' ' ' ' ' ' ' ' , > ; $ + ",
") ! ~ { ] ^ ^ ^ ^ ^ / / ^ / / ^ ^ ^ ^ ^ / ^ ^ ^ / / / ( { ~ ! @ ",
"@ ! _ : < [ [ } [ [ [ [ } [ [ } [ } [ [ [ } } } } [ [ | 1 2 ! 3 ",
") 4 5 6 7 8 8 8 9 9 8 8 9 9 8 8 9 9 8 8 8 8 8 8 8 8 8 7 6 0 4 @ ",
"a b c d e 6 6 6 6 6 6 6 6 6 6 6 6 f f 6 6 f 6 6 6 6 6 e d c b ) ",
"a g h i j j k k k { [ [ l l l l l [ [ l } m k k j j k n o h g ) ",
"p q r s t u u f v w w w w w w w w w w w w w x , u u u t s r q - ",
"y z A B C D 1 w w w w w w w w w w w w w w w w E n C D C B A z p ",
"F G H I J ' w w w w w w w w w w w w w w w w w w K C h h I L G F ",
"M N O P Q R S S T T U V W T T T S 2 w 2 T S T S X | T T P O N Y ",
"= Z `  ...w D t J +.@.#.$.c t S H %.w &.0 5 H H *.=.-.L  .` Z M ",
";.@ z b >.w w w i ,.'.).w w =.!.4 ~.w w w {.4 4 e w ].4 ^.z @ ;.",
"/.p (._.d w :.h q T <.w w [. .q 2 w w w *.q q }.w w J q _.(.p /.",
"/.Y # |.~ w 1.N ; 2.w w ^ 3.N i <.w w 4.5.b ^ 6.w w 7.(.|.8.Y /.",
"9.. p a H w @ @ 0.a.b.w c.@ @ d.l e.w +.@ ! $.f.g.h.i.@ ) p . j.",
"k.j.;.M l.m.M M M M - R n.M M M M L w L M M M M o.k M M M ;.j.k.",
"p.p.p.p.p.& q.w w w w w w w w w w w w w w w w w r.s.p.p.p.p.p.p.",
"p.p.p.p.p.p.t.=.w w w w w w w w w w w w w w w r.u.p.p.p.p.p.p.p.",
"p.p.9.9./././.v.w.w w w w w w w w w w w w w g.x././././.j.9.p.p.",
"p.9.. - 3 # # 8.8.u.y.z.z.z.z.z.1.z.5 A.w w B.8.8.# # 3 - . 9.p.",
"k./.+ C.D.E.$ $ 5.5.5.5.5.5.5.$ 5.5.5.F.<.w G.H.$ 5.$ I.C.+ /.k.",
"k.. Z u. .J.L L L L L L L L L L J.L L L K.:.w ..J.L J. .u.Z . k.",
"k.M x.* S r I I I I I I I I I I I I I I I L.w b.I I I T  .x.M k.",
"k.Y M.'.B ~.N.N.N.N.N.N.C N.N.N.N.C N.N.N.N.9 ).N.N.N.B '.M.F k.",
"k.y E.t._ o n.n.n.n.n.n.n.n.n.n.n.n.n.n.n.n.n.O.P.n.o 2 !.E.y k.",
"9.y Q.R.S.T.L.L.L.n L.n L.L.L.L.L.L.L.n L.L.n k d L.T.S.R.Q.y j.",
"k.F _.A c U.U.U.5 5 5 5 5 5 5 5 5 U.U.5 5 U.U.5 U.5 U.c A _.F k.",
"k.;.3 I.V.% % % % % % % % % % % % % % % % % % % % % % V.I.3 ;.k.",
"p.9.;.l.- + + + + + + + + + + + + + + + + + + + + + + - l.;.9.p.",
"  p.k.k.j.j.j.j.j.j.j.j.j.j.j.j.j.j.j.j.j.j.j.j.j.j.j.j.k.k.p.  "};
