/* XPM */
static const char * xpm_tiredness_normal[] = {
"32 32 414 2",
"  	c None",
". 	c #3A9933",
"+ 	c #44A63C",
"@ 	c #49AD41",
"# 	c #4CB345",
"$ 	c #4DB546",
"% 	c #4DB446",
"& 	c #4CB245",
"* 	c #48AC40",
"= 	c #4AAC43",
"- 	c #60BD59",
"; 	c #6EC968",
"> 	c #74CF6D",
", 	c #75D16E",
"' 	c #75D26E",
") 	c #4AAB43",
"! 	c #3B9934",
"~ 	c #43A63C",
"{ 	c #61BE59",
"] 	c #8DD787",
"^ 	c #A8E4A4",
"/ 	c #B1EAAD",
"( 	c #B2EBAE",
"_ 	c #B2ECAE",
": 	c #48AD41",
"< 	c #6EC967",
"[ 	c #A4E39F",
"} 	c #C6F1C3",
"| 	c #D1F5CE",
"1 	c #D2F6D0",
"2 	c #D2F6CF",
"3 	c #D0F5CD",
"4 	c #C6F0C3",
"5 	c #6DC967",
"6 	c #4AB242",
"7 	c #6FCD68",
"8 	c #A7E7A3",
"9 	c #CAF4C7",
"0 	c #D3F7D1",
"a 	c #D6F9D3",
"b 	c #D5F9D3",
"c 	c #D9F9D2",
"d 	c #EEFBC9",
"e 	c #D7F9D3",
"f 	c #D4F7D2",
"g 	c #A8E7A3",
"h 	c #6ECD68",
"i 	c #4BB143",
"j 	c #4AB342",
"k 	c #6FD068",
"l 	c #A3E89E",
"m 	c #C4F3C0",
"n 	c #CDF7CA",
"o 	c #CFF9CC",
"p 	c #D0F9CC",
"q 	c #D1F9CC",
"r 	c #F2FCBD",
"s 	c #FFFCB8",
"t 	c #EDFBC0",
"u 	c #CFF9CB",
"v 	c #A4E79F",
"w 	c #6FCF67",
"x 	c #49B442",
"y 	c #6CCF65",
"z 	c #9DE697",
"A 	c #BBF2B7",
"B 	c #C4F6C1",
"C 	c #C5F8C2",
"D 	c #D3F9BC",
"E 	c #DEFAB8",
"F 	c #CFF9BE",
"G 	c #E7FAB4",
"H 	c #FFFCAA",
"I 	c #E1FAB8",
"J 	c #C6F8C2",
"K 	c #C9F8C0",
"L 	c #D7F9BA",
"M 	c #E6FAB6",
"N 	c #D0F9BD",
"O 	c #C4F6C0",
"P 	c #6CCE64",
"Q 	c #68CE61",
"R 	c #95E490",
"S 	c #B2F0AD",
"T 	c #BAF5B6",
"U 	c #BBF6B7",
"V 	c #BCF7B8",
"W 	c #DAF9AB",
"X 	c #FFFB9B",
"Y 	c #FBFB9D",
"Z 	c #EFFAA3",
"` 	c #FFFC9C",
" .	c #F3FBA0",
"..	c #D2F8AF",
"+.	c #BBF7B7",
"@.	c #BCF6B8",
"#.	c #BAF4B5",
"$.	c #B1F0AC",
"%.	c #68CD60",
"&.	c #47B33F",
"*.	c #64CD5D",
"=.	c #8EE288",
"-.	c #A7EEA2",
";.	c #AFF3AB",
">.	c #B1F5AC",
",.	c #B1F6AC",
"'.	c #DAF89B",
").	c #FFFB8C",
"!.	c #FFFB8B",
"~.	c #D2F89E",
"{.	c #B0F5AB",
"].	c #AFF3AA",
"^.	c #64CC5C",
"/.	c #48B240",
"(.	c #46B33F",
"_.	c #61CB59",
":.	c #86E180",
"<.	c #9CEC96",
"[.	c #A4F29F",
"}.	c #A6F4A0",
"|.	c #A5F4A0",
"1.	c #D9F88B",
"2.	c #FFFA7C",
"3.	c #FFFA7B",
"4.	c #D3F78D",
"5.	c #A4F19F",
"6.	c #86E080",
"7.	c #61CA58",
"8.	c #47B13F",
"9.	c #45B23D",
"0.	c #5DCA55",
"a.	c #7EDE77",
"b.	c #91EA8B",
"c.	c #99F093",
"d.	c #9BF294",
"e.	c #9BF394",
"f.	c #A4F390",
"g.	c #E8F874",
"h.	c #FFFA6B",
"i.	c #AEF48D",
"j.	c #99EF93",
"k.	c #91E98B",
"l.	c #7DDD76",
"m.	c #5DC954",
"n.	c #45B03D",
"o.	c #43B23B",
"p.	c #59C951",
"q.	c #75DC6E",
"r.	c #87E880",
"s.	c #8EEE87",
"t.	c #AAF37E",
"u.	c #D9F76A",
"v.	c #FEF95C",
"w.	c #FFF95A",
"x.	c #FFF95B",
"y.	c #E6F765",
"z.	c #B8F477",
"A.	c #93F186",
"B.	c #87E780",
"C.	c #75DB6E",
"D.	c #59C850",
"E.	c #44B03C",
"F.	c #42B13B",
"G.	c #55C84D",
"H.	c #6DDA65",
"I.	c #7CE675",
"J.	c #A6F06C",
"K.	c #FFF94A",
"L.	c #FFF94B",
"M.	c #FEF94B",
"N.	c #9CF173",
"O.	c #82EC7A",
"P.	c #7CE575",
"Q.	c #6DD965",
"R.	c #55C74C",
"S.	c #43B03B",
"T.	c #41B139",
"U.	c #51C649",
"V.	c #65D85C",
"W.	c #73E46B",
"X.	c #77EB6F",
"Y.	c #D8F54B",
"Z.	c #FFF83A",
"`.	c #FFF83B",
" +	c #C8F451",
".+	c #79EE71",
"++	c #78EA6F",
"@+	c #73E46C",
"#+	c #65D75C",
"$+	c #51C548",
"%+	c #41AF39",
"&+	c #40B038",
"*+	c #4EC545",
"=+	c #5ED656",
"-+	c #69E260",
";+	c #6EE966",
">+	c #84EE5E",
",+	c #F8F72E",
"'+	c #FFF82C",
")+	c #FFF82B",
"!+	c #F5F72F",
"~+	c #7AEE63",
"{+	c #70ED67",
"]+	c #6EE965",
"^+	c #69E160",
"/+	c #4EC444",
"(+	c #40AE38",
"_+	c #4BC442",
":+	c #58D54F",
"<+	c #61E158",
"[+	c #64E85B",
"}+	c #66EC5D",
"|+	c #B4F23D",
"1+	c #FFF71D",
"2+	c #FFF71E",
"3+	c #B0F23F",
"4+	c #66EC5C",
"5+	c #65E75B",
"6+	c #61E058",
"7+	c #57D44E",
"8+	c #4BC341",
"9+	c #3FB037",
"0+	c #48C340",
"a+	c #52D349",
"b+	c #58DF4F",
"c+	c #5CE753",
"d+	c #5EEB54",
"e+	c #D9F422",
"f+	c #FFF712",
"g+	c #E5F51D",
"h+	c #62EB52",
"i+	c #5CE652",
"j+	c #59DE50",
"k+	c #52D249",
"l+	c #48C23F",
"m+	c #3FAE37",
"n+	c #3EAF36",
"o+	c #46C33D",
"p+	c #4DD243",
"q+	c #53DE49",
"r+	c #55E64C",
"s+	c #93EF35",
"t+	c #FFF608",
"u+	c #A6F02D",
"v+	c #57EA4D",
"w+	c #55E54B",
"x+	c #53DD49",
"y+	c #4DD143",
"z+	c #46C23C",
"A+	c #3EAD36",
"B+	c #3DAF35",
"C+	c #44C23B",
"D+	c #49D13F",
"E+	c #4DDD43",
"F+	c #58E643",
"G+	c #EDF508",
"H+	c #FFF600",
"I+	c #F9F603",
"J+	c #6AEB3D",
"K+	c #50E445",
"L+	c #4DDC43",
"M+	c #49D03F",
"N+	c #44C13A",
"O+	c #3DAD35",
"P+	c #71E839",
"Q+	c #D2F312",
"R+	c #BEF11B",
"S+	c #6CEB3C",
"T+	c #4AD141",
"U+	c #4EDD44",
"V+	c #53E549",
"W+	c #55E94A",
"X+	c #70EC3E",
"Y+	c #B5F123",
"Z+	c #F5F508",
"`+	c #FFF604",
" @	c #F1F50A",
".@	c #A2F029",
"+@	c #61EB45",
"@@	c #55EA4A",
"#@	c #53E448",
"$@	c #4FDC45",
"%@	c #4AD041",
"&@	c #45C23D",
"*@	c #4DD244",
"=@	c #57DF4D",
"-@	c #5DE754",
";@	c #60EB56",
">@	c #60EC56",
",@	c #60EC55",
"'@	c #B8F231",
")@	c #FFF715",
"!@	c #FFF714",
"~@	c #C2F22F",
"{@	c #5DE653",
"]@	c #57DE4D",
"^@	c #4DD144",
"/@	c #45C13C",
"(@	c #47C33E",
"_@	c #54D44A",
":@	c #63E15B",
"<@	c #71ED67",
"[@	c #71EE68",
"}@	c #B1F24F",
"|@	c #FFF82F",
"1@	c #FFF82E",
"2@	c #BFF34A",
"3@	c #72EE69",
"4@	c #71ED68",
"5@	c #6DE864",
"6@	c #63E05B",
"7@	c #54D34A",
"8@	c #47C23D",
"9@	c #59D550",
"0@	c #71E469",
"a@	c #7FEC77",
"b@	c #83EF7B",
"c@	c #84F07C",
"d@	c #B2F468",
"e@	c #FFF949",
"f@	c #FFF948",
"g@	c #BEF463",
"h@	c #83F07B",
"i@	c #7FEB77",
"j@	c #71E369",
"k@	c #59D450",
"l@	c #4AC441",
"m@	c #5FD756",
"n@	c #7CE674",
"o@	c #8EEE88",
"p@	c #94F18D",
"q@	c #94F28E",
"r@	c #B1F482",
"s@	c #F9F964",
"t@	c #DEF770",
"u@	c #C4F57A",
"v@	c #ABF484",
"w@	c #E8F86B",
"x@	c #FFF962",
"y@	c #EEF869",
"z@	c #A3F388",
"A@	c #B6F580",
"B@	c #D0F676",
"C@	c #BFF57C",
"D@	c #94F18E",
"E@	c #5FD656",
"F@	c #4AC340",
"G@	c #64D85C",
"H@	c #88E881",
"I@	c #9EF198",
"J@	c #A4F39E",
"K@	c #A5F49F",
"L@	c #A7F49E",
"M@	c #ACF59C",
"N@	c #F2F97F",
"O@	c #FFFA7A",
"P@	c #F8FA7D",
"Q@	c #B2F59B",
"R@	c #9EF097",
"S@	c #64D75C",
"T@	c #4BC342",
"U@	c #3EAE36",
"V@	c #4DC544",
"W@	c #69D961",
"X@	c #92EA8C",
"Y@	c #ABF2A6",
"Z@	c #B3F5AE",
"`@	c #B4F6B0",
" #	c #BFF6AB",
".#	c #F8FB94",
"+#	c #C8F7A8",
"@#	c #ACF2A7",
"##	c #93EA8D",
"$#	c #69D861",
"%#	c #4DC443",
"&#	c #4CC143",
"*#	c #6AD662",
"=#	c #96E990",
"-#	c #B0F1AB",
";#	c #B8F4B3",
">#	c #B9F5B5",
",#	c #BEF5B3",
"'#	c #96E88F",
")#	c #4BC042",
"!#	c #3EAC36",
"~#	c #3CA734",
"{#	c #48BB40",
"]#	c #62CF5B",
"^#	c #9EEA99",
"/#	c #A4ED9F",
"(#	c #A4EE9F",
"_#	c #A5EEA0",
":#	c #9EEA98",
"<#	c #62CE5B",
"[#	c #47BB40",
"}#	c #3BA633",
"|#	c #39A132",
"1#	c #42B239",
"2#	c #50C248",
"3#	c #64CF5C",
"4#	c #70D868",
"5#	c #75DB6D",
"6#	c #75DC6D",
"7#	c #50C148",
"8#	c #39A031",
"9#	c #35972E",
"0#	c #3CA634",
"a#	c #48BB41",
"b#	c #4DC245",
"c#	c #4FC546",
"d#	c #4FC647",
"e#	c #3CA534",
"f#	c #35962E",
"g#	c #3FAF37",
"  . + @ # $ $ $ $ $ $ $ $ $ $ $ $ $ $ $ $ $ $ $ $ $ % & * + .   ",
". = - ; > , ' ' ' ' ' ' ' ' ' ' ' ' ' ' ' ' ' ' ' ' , > ; - ) ! ",
"~ { ] ^ / ( _ _ _ _ _ _ _ _ _ _ _ _ _ _ _ _ _ _ _ _ ( / ^ ] - + ",
": < [ } | 1 1 1 1 1 2 2 1 2 2 1 1 1 1 1 2 1 1 1 2 2 2 3 4 [ 5 * ",
"6 7 8 9 0 a a b a a a a b a c d e b a a a b b b b a a f 9 g h i ",
"j k l m n o o o p p o o p q r s t p o o o o o o o o u n m v w j ",
"x y z A B C C C D E F C C G H H H I J K L M N C C C C O A z P 6 ",
"x Q R S T U V V W X X Y Z ` ` ` ` X  .` ` ` ..V +.+.@.#.$.R %.6 ",
"&.*.=.-.;.>.,.,.'.).).).).).).!.).).).).!.).~.{.,.,.>.].-.=.^./.",
"(._.:.<.[.}.|.|.1.2.3.3.2.3.2.3.3.3.3.3.3.3.4.|.|.|.}.5.<.6.7.8.",
"9.0.a.b.c.d.e.f.g.h.h.h.h.h.h.h.h.h.h.h.h.h.g.i.e.e.d.j.k.l.m.n.",
"o.p.q.r.s.t.u.v.w.w.w.w.w.w.w.w.x.x.w.x.w.x.w.x.y.z.A.s.B.C.D.E.",
"F.G.H.I.J.K.K.K.L.L.K.K.K.K.K.L.K.K.K.K.K.K.K.K.K.M.N.O.P.Q.R.S.",
"T.U.V.W.X.Y.Z.Z.Z.`.`.Z.`.`.Z.`.Z.Z.`.Z.`.Z.Z.Z.Z. +.+++@+#+$+%+",
"&+*+=+-+;+>+,+'+'+'+'+)+'+)+'+'+'+'+'+'+'+'+'+'+!+~+{+]+^+=+/+(+",
"&+_+:+<+[+}+|+1+1+2+2+2+2+2+1+1+2+2+2+1+2+1+2+1+3+}+4+5+6+7+8+(+",
"9+0+a+b+c+d+e+f+f+f+f+f+f+f+f+f+f+f+f+f+f+f+f+f+g+h+d+i+j+k+l+m+",
"n+o+p+q+r+s+t+t+t+t+t+t+t+t+t+t+t+t+t+t+t+t+t+t+t+u+v+w+x+y+z+A+",
"B+C+D+E+F+G+H+H+H+H+H+H+H+H+H+H+H+H+H+H+H+H+H+H+H+I+J+K+L+M+N+O+",
"B+C+D+E+P+Q+H+H+H+H+H+H+H+H+H+H+H+H+H+H+H+H+H+H+I+R+S+K+L+M+N+O+",
"B+C+T+U+V+W+X+Y+Z+`+`+`+`+`+`+`+`+`+`+`+`+`+ @.@+@@@W+#@$@%@N+O+",
"B+&@*@=@-@;@>@,@'@)@)@)@)@)@)@)@!@)@!@!@)@)@~@,@,@>@;@{@]@^@/@O+",
"n+(@_@:@]+<@[@[@}@|@|@|@|@|@|@1@|@|@|@|@|@|@2@[@[@3@4@5@6@7@8@A+",
"n+0+9@0@a@b@c@c@d@e@e@e@e@e@e@e@f@e@e@e@e@e@g@c@h@c@b@i@j@k@l+A+",
"n+l@m@n@o@p@q@q@r@s@t@u@v@w@x@x@x@y@z@A@B@w@C@q@q@q@D@s.P.E@F@A+",
"n+_+G@H@I@J@K@K@L@K@K@K@|.M@N@O@P@Q@K@K@K@K@K@K@K@K@K@R@H@S@T@A+",
"U@V@W@X@Y@Z@`@`@`@`@`@`@`@`@ #.#+#`@`@`@`@`@`@`@`@`@Z@@###$#%#O+",
"A+&#*#=#-#;#>#>#>#T >#T >#>#>#,#>#>#>#T >#>#T T >#>#;#-#'#*#)#!#",
"~#{#]#:.^#/#(#(#_#_#_#_#_#_#_#_#_#(#(#_#_#(#(#_#(#_#/#:#6.<#[#}#",
"|#1#2#3#4#5#6#6#6#6#6#6#6#6#6#6#6#6#6#6#6#6#6#6#6#6#5#4#3#7#T.8#",
"9#0#T.a#b#c#d#d#d#d#d#d#d#d#d#d#d#d#d#d#d#d#d#d#d#d#c#b#a#T.e#f#",
"  9#8#~#A+g#g#g#g#g#g#g#g#g#g#g#g#g#g#g#g#g#g#g#g#g#m+!#}#8#9#  "};
