/* XPM */
static const char * xpm_trash2[] = {
"32 32 246 2",
"  	c None",
". 	c #444342",
"+ 	c #403F3F",
"@ 	c #424141",
"# 	c #4F4E4D",
"$ 	c #FBFBFB",
"% 	c #F5F5F5",
"& 	c #EFEFEF",
"* 	c #E8E8E8",
"= 	c #474646",
"- 	c #4E4D4D",
"; 	c #F6F6F6",
"> 	c #F0F0F0",
", 	c #E9E9E9",
"' 	c #E2E2E2",
") 	c #DADADA",
"! 	c #D1D1D1",
"~ 	c #4D4D4D",
"{ 	c #414040",
"] 	c #EBEBEB",
"^ 	c #E3E3E3",
"/ 	c #DBDBDB",
"( 	c #D3D3D3",
"_ 	c #CACACA",
": 	c #C1C0C0",
"< 	c #484747",
"[ 	c #F3F3F3",
"} 	c #ECECEC",
"| 	c #E5E5E5",
"1 	c #DDDDDD",
"2 	c #D5D4D4",
"3 	c #CCCBCB",
"4 	c #C2C2C2",
"5 	c #B9B9B9",
"6 	c #AFAFAF",
"7 	c #A6A5A5",
"8 	c #9C9C9C",
"9 	c #939292",
"0 	c #4C4B49",
"a 	c #454444",
"b 	c #FEFEFE",
"c 	c #FAFAFA",
"d 	c #F4F4F4",
"e 	c #737272",
"f 	c #6C6B6B",
"g 	c #666565",
"h 	c #504F4D",
"i 	c #FFFFFF",
"j 	c #E0E0E0",
"k 	c #D8D8D8",
"l 	c #CFCFCF",
"m 	c #C6C6C6",
"n 	c #BDBDBD",
"o 	c #B3B3B3",
"p 	c #AAA9A9",
"q 	c #A0A0A0",
"r 	c #979696",
"s 	c #8D8D8D",
"t 	c #858484",
"u 	c #7C7C7C",
"v 	c #747474",
"w 	c #6D6D6D",
"x 	c #676666",
"y 	c #616161",
"z 	c #5D5C5C",
"A 	c #5C5B5B",
"B 	c #C8C8C8",
"C 	c #BFBEBE",
"D 	c #B5B5B5",
"E 	c #ACABAB",
"F 	c #A2A2A2",
"G 	c #999898",
"H 	c #8F8F8F",
"I 	c #868686",
"J 	c #7E7D7D",
"K 	c #767575",
"L 	c #6F6E6E",
"M 	c #686767",
"N 	c #626262",
"O 	c #5E5D5D",
"P 	c #454544",
"Q 	c #B7B7B7",
"R 	c #AEADAD",
"S 	c #A4A4A4",
"T 	c #9A9A9A",
"U 	c #919191",
"V 	c #888888",
"W 	c #807F7F",
"X 	c #787777",
"Y 	c #706F6F",
"Z 	c #696969",
"` 	c #636363",
" .	c #5F5E5E",
"..	c #3C3B3B",
"+.	c #8A8989",
"@.	c #818181",
"#.	c #797878",
"$.	c #727171",
"%.	c #6B6A6A",
"&.	c #656464",
"*.	c #5F5F5F",
"=.	c #504E4C",
"-.	c #464442",
";.	c #4A4948",
">.	c #DFDFDF",
",.	c #DCDCDC",
"'.	c #7F7E7E",
").	c #6E6D6D",
"!.	c #A8A8A8",
"~.	c #4E4D4B",
"{.	c #66645E",
"].	c #69665F",
"^.	c #D7D7D7",
"/.	c #D4D4D4",
"(.	c #CBCACA",
"_.	c #C7C7C7",
":.	c #C4C4C4",
"<.	c #BABABA",
"[.	c #B7B6B6",
"}.	c #ADACAC",
"|.	c #A9A9A9",
"1.	c #64635D",
"2.	c #7E7C73",
"3.	c #D5D5D5",
"4.	c #D2D2D2",
"5.	c #CFCECE",
"6.	c #CBCBCB",
"7.	c #C5C5C5",
"8.	c #C2C1C1",
"9.	c #BEBEBE",
"0.	c #BBBBBB",
"a.	c #B8B7B7",
"b.	c #B4B4B4",
"c.	c #B1B0B0",
"d.	c #ADADAD",
"e.	c #A7A6A6",
"f.	c #A3A3A3",
"g.	c #A09F9F",
"h.	c #9D9C9C",
"i.	c #676760",
"j.	c #CCCCCC",
"k.	c #C9C9C9",
"l.	c #C6C5C5",
"m.	c #BFBFBF",
"n.	c #BCBCBC",
"o.	c #B8B8B8",
"p.	c #B2B1B1",
"q.	c #AEAEAE",
"r.	c #ABABAB",
"s.	c #A8A7A7",
"t.	c #A1A0A0",
"u.	c #9D9D9D",
"v.	c #65655F",
"w.	c #C7C6C6",
"x.	c #C3C3C3",
"y.	c #C0C0C0",
"z.	c #B6B6B6",
"A.	c #B3B2B2",
"B.	c #A5A5A5",
"C.	c #A2A1A1",
"D.	c #9B9B9B",
"E.	c #989797",
"F.	c #949494",
"G.	c #62605A",
"H.	c #C1C1C1",
"I.	c #BEBDBD",
"J.	c #B0B0B0",
"K.	c #A6A6A6",
"L.	c #A3A2A2",
"M.	c #9F9F9F",
"N.	c #9C9B9B",
"O.	c #959595",
"P.	c #929292",
"Q.	c #8F8E8E",
"R.	c #8C8B8B",
"S.	c #AAAAAA",
"T.	c #999999",
"U.	c #969696",
"V.	c #908F8F",
"W.	c #8C8C8C",
"X.	c #898989",
"Y.	c #B9B8B8",
"Z.	c #B2B2B2",
"`.	c #A1A1A1",
" +	c #9E9D9D",
".+	c #979797",
"++	c #949393",
"@+	c #909090",
"#+	c #8A8A8A",
"$+	c #878686",
"%+	c #848383",
"&+	c #818080",
"*+	c #ACACAC",
"=+	c #A9A8A8",
"-+	c #9F9E9E",
";+	c #959494",
">+	c #8E8E8E",
",+	c #8B8A8A",
"'+	c #828181",
")+	c #7C7B7B",
"!+	c #898888",
"~+	c #868585",
"{+	c #7D7C7C",
"]+	c #7A7979",
"^+	c #777676",
"/+	c #A7A7A7",
"(+	c #A4A3A3",
"_+	c #939393",
":+	c #8D8C8C",
"<+	c #838383",
"[+	c #808080",
"}+	c #7B7A7A",
"|+	c #757474",
"1+	c #727272",
"2+	c #9B9A9A",
"3+	c #919090",
"4+	c #878787",
"5+	c #848484",
"6+	c #7E7E7E",
"7+	c #7B7B7B",
"8+	c #737373",
"9+	c #717070",
"0+	c #989898",
"a+	c #929191",
"b+	c #8B8B8B",
"c+	c #797979",
"d+	c #717171",
"e+	c #6C6C6C",
"f+	c #6A6969",
"g+	c #969595",
"h+	c #838282",
"i+	c #777777",
"j+	c #6D6C6C",
"k+	c #686868",
"l+	c #666666",
"m+	c #757575",
"n+	c #696868",
"o+	c #636262",
"p+	c #464544",
"q+	c #6E6E6E",
"r+	c #656565",
"s+	c #4D4B4A",
"t+	c #747373",
"u+	c #6A6A6A",
"v+	c #4B4A48",
"w+	c #51504F",
"                                                                ",
"                                                                ",
"                                                                ",
"                          . + + + + @                           ",
"                      # + + $ % & * + + =                       ",
"                    - + + ; > , ' ) ! + + ~                     ",
"                  { + + + ] ^ / ( _ : + + + <                   ",
"          { + + + + [ } | 1 2 3 4 5 6 7 8 9 + + + + 0           ",
"      a + + b c d + + + + + + + + + + + + + + e f g + + h       ",
"      + i $ % & * j k l m n o p q r s t u v w x y z A A +       ",
"      + ; > , ' ) ! B C D E F G H I J K L M N O A A A A +       ",
"      P + + / ( _ : Q R S T U V W X Y Z `  .A A A A + + ..      ",
"          + + + + + 7 8 9 +.@.#.$.%.&.*.A A + + + + + =.-.      ",
"          ;.+ >.,.'.+ + + + + + + + + + + + ).E !.+ ~.{.].      ",
"            + ) ^./.! + (._.:.: n <.[.o + }.|.7 F + 1.2.        ",
"            + 3.4.5.6.+ 7.8.9.0.a.b.c.d.+ e.f.g.h.+ i.          ",
"            + l j.k.l.+ m.n.o.D p.q.r.s.+ t.u.T r + v.          ",
"            + _ w.x.y.+ 5 z.A.6 E !.B.C.+ D.E.F.U + G.          ",
"            + :.H.I.<.+ o J.}.|.K.L.M.N.+ O.P.Q.R.+             ",
"            + 9.0.a.b.+ R S.e.f.q h.T.U.+ V.W.X.I +             ",
"            + Y.D Z.q.+ s.S `. +T .+++@++ #+$+%+&++             ",
"            + A.6 *+=++ C.-+D.E.;+U >+,++ t '+'.)++             ",
"            + d.p K.L.+ 8 G O.P.Q.R.!+~++ W {+]+^++             ",
"            + /+(+q u.+ U._+V.:++.I <+[++ }+X |+1++             ",
"            + `. +2+.++ 3+s #+4+5+@.6+7++ K 8+9+).+             ",
"            + D.0+;+a++ b+V t '+'.u c+^++ d+L e+f++             ",
"            + g+P.H R.+ ~+h+W {+]+i+|+$.+ j+%.k+l++             ",
"            + @+:++.$++ &+J }+X m+e Y ).+ n+x &.o++             ",
"            p++ 4+5+@.+ )+#.K 8+9+q+f f++ r+` y + s+            ",
"              . + + + + ^+t+d+L j+u+M g + + + + v+              ",
"                      w++ + + + + + + + h                       ",
"                                                                "};
