/* XPM */
static const char * xpm_mission_title[] = {
"32 32 522 2",
"  	c #FFFFFF",
". 	c #FEFEFE",
"+ 	c #FCFCFC",
"@ 	c #FBFBFB",
"# 	c #F9F9F9",
"$ 	c #F8F8F8",
"% 	c #FAFAFA",
"& 	c #FDFDFD",
"* 	c #F5F5F5",
"= 	c #F0F0F0",
"- 	c #EDEDED",
"; 	c #EBEBEB",
"> 	c #E9E9E9",
", 	c #EAEAEA",
"' 	c #ECECEC",
") 	c #EFEFEF",
"! 	c #F3F3F3",
"~ 	c #F2F2F2",
"{ 	c #C9C5B5",
"] 	c #ACA481",
"^ 	c #A79E76",
"/ 	c #A79E77",
"( 	c #A89F77",
"_ 	c #A89F78",
": 	c #A9A078",
"< 	c #A9A079",
"[ 	c #A9A17A",
"} 	c #A9A179",
"| 	c #AAA17A",
"1 	c #B0A886",
"2 	c #B8B192",
"3 	c #F6F6F6",
"4 	c #DBDBDB",
"5 	c #BBB7A5",
"6 	c #ADA47F",
"7 	c #B2AB88",
"8 	c #B3AC89",
"9 	c #B4AC8A",
"0 	c #B3AC8A",
"a 	c #B4AC89",
"b 	c #B3AB88",
"c 	c #B3AB89",
"d 	c #B3AA88",
"e 	c #B2AA87",
"f 	c #B2AA88",
"g 	c #B2AB87",
"h 	c #B3AA87",
"i 	c #B3AA86",
"j 	c #B3AB87",
"k 	c #B2AA86",
"l 	c #ACA47E",
"m 	c #AAA17B",
"n 	c #B5AE8F",
"o 	c #F7F7F7",
"p 	c #DDDDDD",
"q 	c #C8C8C8",
"r 	c #AFAB9A",
"s 	c #BCB596",
"t 	c #D3CFBB",
"u 	c #D4D0BC",
"v 	c #D2CDB9",
"w 	c #D1CCB7",
"x 	c #D1CCB6",
"y 	c #D1CBB4",
"z 	c #CFC9B2",
"A 	c #CDC8B1",
"B 	c #CDC7AF",
"C 	c #CDC7AE",
"D 	c #CCC6AC",
"E 	c #CCC5AA",
"F 	c #CEC8AD",
"G 	c #C7BFA3",
"H 	c #B4AC8B",
"I 	c #BAB49B",
"J 	c #E7E7E7",
"K 	c #D4D4D4",
"L 	c #BABABA",
"M 	c #A5A192",
"N 	c #CAC4AC",
"O 	c #F7F7F4",
"P 	c #F7F7F2",
"Q 	c #F7F6F1",
"R 	c #F6F5F0",
"S 	c #F5F4EF",
"T 	c #F5F4EE",
"U 	c #F4F2E8",
"V 	c #F2F0E5",
"W 	c #F1EEE2",
"X 	c #EFECDD",
"Y 	c #EDE9D9",
"Z 	c #EBE8D6",
"` 	c #ECE9D8",
" .	c #DAD3BD",
"..	c #B8B08E",
"+.	c #BAB6A1",
"@.	c #E4E4E4",
"#.	c #F4F4F4",
"$.	c #CECECE",
"%.	c #B0B0B0",
"&.	c #9A978C",
"*.	c #CBC5AD",
"=.	c #FFFFFC",
"-.	c #FFFFF7",
";.	c #FFFFF3",
">.	c #FFFFEE",
",.	c #F8F4E5",
"'.	c #D9D3BB",
").	c #B5AC8A",
"!.	c #C0BDB1",
"~.	c #E1E1E1",
"{.	c #E3E3E3",
"].	c #CACACA",
"^.	c #AAAAAA",
"/.	c #908E87",
"(.	c #C5BFA3",
"_.	c #FAF9F9",
":.	c #DDDCDD",
"<.	c #CFCECC",
"[.	c #D6D5D1",
"}.	c #D7D6D2",
"|.	c #D9D7D4",
"1.	c #DBD9D5",
"2.	c #DBDAD5",
"3.	c #DDDBD4",
"4.	c #DEDDD4",
"5.	c #E1E0D1",
"6.	c #E2E0CF",
"7.	c #E2DECC",
"8.	c #E8E4D1",
"9.	c #E8E4D0",
"0.	c #D0C9AD",
"a.	c #B0A884",
"b.	c #C5C5C2",
"c.	c #E0E0E0",
"d.	c #E2E2E2",
"e.	c #C9C9C9",
"f.	c #A8A8A8",
"g.	c #8A8984",
"h.	c #C8C1A4",
"i.	c #F3F2F1",
"j.	c #787572",
"k.	c #464037",
"l.	c #5D5950",
"m.	c #605C53",
"n.	c #67635A",
"o.	c #6C675E",
"p.	c #726D64",
"q.	c #757066",
"r.	c #787469",
"s.	c #7D796C",
"t.	c #7C776A",
"u.	c #7C7869",
"v.	c #AAA594",
"w.	c #DAD6BF",
"x.	c #D0C9A9",
"y.	c #AFA67F",
"z.	c #CBCBCB",
"A.	c #ABABAB",
"B.	c #888886",
"C.	c #BDB696",
"D.	c #F7F5F4",
"E.	c #908D8A",
"F.	c #524D42",
"G.	c #585449",
"H.	c #504C41",
"I.	c #4B443A",
"J.	c #443D32",
"K.	c #3E392E",
"L.	c #3A342A",
"M.	c #393429",
"N.	c #383126",
"O.	c #272018",
"P.	c #282218",
"Q.	c #7F796A",
"R.	c #D9D5BB",
"S.	c #D2CBA7",
"T.	c #ABA179",
"U.	c #A8A182",
"V.	c #E6E6E6",
"W.	c #E5E5E5",
"X.	c #CDCDCD",
"Y.	c #ADADAD",
"Z.	c #888888",
"`.	c #B5AE8C",
" +	c #F8F6F2",
".+	c #E1DFDE",
"++	c #C5C3BB",
"@+	c #C4C2B9",
"#+	c #BFBCB1",
"$+	c #B8B3A8",
"%+	c #B0AC9D",
"&+	c #A6A292",
"*+	c #9E998A",
"=+	c #979281",
"-+	c #8F8977",
";+	c #7C7766",
">+	c #7B7461",
",+	c #AEA993",
"'+	c #DBD6B9",
")+	c #C5BD98",
"!+	c #AEA893",
"~+	c #D3D3D3",
"{+	c #CFCFCF",
"]+	c #8A8A8A",
"^+	c #B4AC87",
"/+	c #F5F4ED",
"(+	c #C5C3C1",
"_+	c #A8A49C",
":+	c #B7B4AC",
"<+	c #BEBCB1",
"[+	c #C3BFB4",
"}+	c #C9C6B7",
"|+	c #CDC9B9",
"1+	c #CFCBBA",
"2+	c #CFCBB8",
"3+	c #CFCAB5",
"4+	c #CEC8B1",
"5+	c #CEC7AE",
"6+	c #D9D2B7",
"7+	c #D2CBAB",
"8+	c #B6AE88",
"9+	c #A79E75",
"0+	c #B5B2A7",
"a+	c #D7D7D7",
"b+	c #E8E8E8",
"c+	c #D1D1D1",
"d+	c #B2B2B2",
"e+	c #8C8C8C",
"f+	c #ADA581",
"g+	c #F7F5EC",
"h+	c #7E7A74",
"i+	c #2B2419",
"j+	c #403930",
"k+	c #413C32",
"l+	c #474036",
"m+	c #4D473D",
"n+	c #565145",
"o+	c #605A4F",
"p+	c #696457",
"q+	c #736D60",
"r+	c #757060",
"s+	c #8F8976",
"t+	c #C7C1A5",
"u+	c #D1CAA6",
"v+	c #B3AA83",
"w+	c #C0BFBD",
"x+	c #DCDCDC",
"y+	c #D2D2D2",
"z+	c #B3B3B3",
"A+	c #8E8E8E",
"B+	c #A29B7B",
"C+	c #EAE8DC",
"D+	c #E3E2DA",
"E+	c #B7B3A6",
"F+	c #ACA798",
"G+	c #959081",
"H+	c #837D6E",
"I+	c #6E6859",
"J+	c #5F594A",
"K+	c #504A3C",
"L+	c #484234",
"M+	c #3E382B",
"N+	c #272217",
"O+	c #4E473A",
"P+	c #B6AF92",
"Q+	c #D6D0A9",
"R+	c #B1A982",
"S+	c #C7C7C7",
"T+	c #B6B6B6",
"U+	c #909090",
"V+	c #A0997A",
"W+	c #EEEBDB",
"X+	c #C3C1BA",
"Y+	c #AAA59A",
"Z+	c #C6C2B4",
"`+	c #D1CDBC",
" @	c #DAD5C3",
".@	c #DDD8C2",
"+@	c #D9D4BD",
"@@	c #D5CFB5",
"#@	c #CCC6AA",
"$@	c #C0BA9D",
"%@	c #AEA78A",
"&@	c #AFA88A",
"*@	c #CBC4A1",
"=@	c #C8C099",
"-@	c #AAA279",
";@	c #A8A081",
">@	c #D5D5D5",
",@	c #B8B8B8",
"'@	c #929292",
")@	c #9A9377",
"!@	c #F0EDD9",
"~@	c #8D8A82",
"{@	c #221A10",
"]@	c #352E25",
"^@	c #39332A",
"/@	c #443F34",
"(@	c #534D42",
"_@	c #666053",
":@	c #777261",
"<@	c #8A8472",
"[@	c #9C967E",
"}@	c #A7A186",
"|@	c #C1BA99",
"1@	c #CFC5A1",
"2@	c #BBB18B",
"3@	c #ADA893",
"4@	c #959595",
"5@	c #959077",
"6@	c #D9D7C0",
"7@	c #EBE8DA",
"8@	c #CDC9B5",
"9@	c #BBB4A0",
"0@	c #A29D88",
"a@	c #827B68",
"b@	c #67604F",
"c@	c #514B3B",
"d@	c #433D30",
"e@	c #393328",
"f@	c #2F291E",
"g@	c #28221A",
"h@	c #756D57",
"i@	c #CAC199",
"j@	c #C0B78D",
"k@	c #D9D9D9",
"l@	c #BCBCBC",
"m@	c #989898",
"n@	c #918D7A",
"o@	c #E6DEC5",
"p@	c #A6A196",
"q@	c #706B5E",
"r@	c #9D9887",
"s@	c #B6B19B",
"t@	c #C9C3AA",
"u@	c #CFC9AC",
"v@	c #CEC8A7",
"w@	c #C5BF9C",
"x@	c #B6AF8D",
"y@	c #A09879",
"z@	c #898164",
"A@	c #A29876",
"B@	c #CBC196",
"C@	c #B8AF85",
"D@	c #C0C0BF",
"E@	c #BFBFBF",
"F@	c #9C9C9C",
"G@	c #8D897A",
"H@	c #D8D2B6",
"I@	c #B5B1A1",
"J@	c #413A2D",
"K@	c #3D372B",
"L@	c #352F24",
"M@	c #393329",
"N@	c #464034",
"O@	c #5B5547",
"P@	c #76705E",
"Q@	c #8F886F",
"R@	c #A49D7D",
"S@	c #B4AB87",
"T@	c #C6BD90",
"U@	c #C0B689",
"V@	c #ADA37A",
"W@	c #C2C2C2",
"X@	c #A0A0A0",
"Y@	c #8B887D",
"Z@	c #CAC2A3",
"`@	c #DDD7C2",
" #	c #D5CFB4",
".#	c #D2CCAE",
"+#	c #C2BB9D",
"@#	c #A0997D",
"##	c #7D765D",
"$#	c #5E5742",
"%#	c #453E2F",
"&#	c #373124",
"*#	c #262017",
"=#	c #3B3327",
"-#	c #A09770",
";#	c #C7BD8D",
">#	c #ACA37B",
",#	c #A8A07F",
"'#	c #C5C5C5",
")#	c #A4A4A4",
"!#	c #888680",
"~#	c #D2CBA8",
"{#	c #A19C89",
"]#	c #282217",
"^#	c #555043",
"/#	c #7D7663",
"(#	c #9D977C",
"_#	c #B6AE8D",
":#	c #C1B992",
"<#	c #C0B78F",
"[#	c #B4AB82",
"}#	c #9B926C",
"|#	c #8A805C",
"1#	c #AFA476",
"2#	c #C2B785",
"3#	c #A99F77",
"4#	c #ADA791",
"5#	c #A7A7A7",
"6#	c #868682",
"7#	c #BCB490",
"8#	c #D6D1B3",
"9#	c #948D72",
"0#	c #716B53",
"a#	c #534D3A",
"b#	c #3C3528",
"c#	c #342F23",
"d#	c #403A2D",
"e#	c #56503E",
"f#	c #706950",
"g#	c #847D5F",
"h#	c #A59D72",
"i#	c #BCB17D",
"j#	c #B1A67A",
"k#	c #A79F76",
"l#	c #B6B3A9",
"m#	c #868686",
"n#	c #B5AD88",
"o#	c #DCD5B5",
"p#	c #E9E0B8",
"q#	c #DFD7AE",
"r#	c #D7CEA3",
"s#	c #C2BA90",
"t#	c #A59B75",
"u#	c #877E5E",
"v#	c #686146",
"w#	c #4F4734",
"x#	c #2C271D",
"y#	c #584F39",
"z#	c #B3A874",
"A#	c #B8AE7D",
"B#	c #D5CDA8",
"C#	c #D1C99F",
"D#	c #CEC399",
"E#	c #CDC295",
"F#	c #CEC596",
"G#	c #CDC290",
"H#	c #CAC08D",
"I#	c #CAC08A",
"J#	c #C1B581",
"K#	c #A99F6E",
"L#	c #A39666",
"M#	c #B8AC74",
"N#	c #B1A879",
"O#	c #A69E77",
"P#	c #B1A980",
"Q#	c #B9B187",
"R#	c #BEB589",
"S#	c #C3B988",
"T#	c #C2B786",
"U#	c #BFB481",
"V#	c #BCB07B",
"W#	c #BAAF79",
"X#	c #BBAF79",
"Y#	c #BCAF77",
"Z#	c #BDB073",
"`#	c #B0A56F",
" $	c #A89F74",
".$	c #A8A07C",
"+$	c #DADADA",
"@$	c #A2A2A2",
"#$	c #878787",
"$$	c #7E7B72",
"%$	c #948D6F",
"&$	c #948D6E",
"*$	c #A49B76",
"=$	c #AEA578",
"-$	c #B2A879",
";$	c #B4AA76",
">$	c #B7AB73",
",$	c #B5AA6F",
"'$	c #B5A76B",
")$	c #B4A669",
"!$	c #B0A46D",
"~$	c #A89F75",
"{$	c #F1F1F1",
"]$	c #898989",
"^$	c #797979",
"/$	c #6E6E6E",
"($	c #73726B",
"_$	c #787569",
":$	c #837E69",
"<$	c #A19973",
"[$	c #AAA175",
"}$	c #ABA173",
"|$	c #AFA270",
"1$	c #AFA36A",
"2$	c #ACA16E",
"3$	c #B7B4AA",
"4$	c #D8D8D8",
"5$	c #A5A5A5",
"6$	c #979797",
"7$	c #838383",
"8$	c #7B7B7B",
"9$	c #747474",
"0$	c #6D6D6D",
"a$	c #666666",
"b$	c #7D796A",
"c$	c #A09875",
"d$	c #A49C75",
"e$	c #A69D76",
"f$	c #A79F7A",
"g$	c #DFDFDF",
"h$	c #D0D0D0",
"i$	c #C4C4C4",
"j$	c #B9B9B9",
"k$	c #AFAFAF",
"l$	c #A6A6A6",
"m$	c #9D9D9D",
"n$	c #939393",
"o$	c #828282",
"p$	c #7E7E7E",
"q$	c #8D8D8D",
"r$	c #9F9F9F",
"s$	c #A1A1A1",
"t$	c #A9A9A9",
"u$	c #DEDEDE",
"v$	c #C6C6C6",
"w$	c #EEEEEE",
"        . . + @ # $ $ $ $ $ $ $ $ $ $ $ $ $ $ $ # % @ & .       ",
"      . @ $ * = - ; > > > > > > > > > > > > > , ' ) ! $ @ .     ",
"    . + $ ~ > { ] ^ / ( _ : : < < < < [ } | | | | < 1 2 3 @ .   ",
"    . % ~ > 4 5 6 7 8 9 0 a b c b d e f g h i j k l m n = $ .   ",
"    . o ' p q r s t u u t v w x y z A B C D E F G H < I > * +   ",
"    & * J K L M N O P P Q R S S T U V W X Y Z `  ...^ +.@.! +   ",
"    & #.@.$.%.&.*.                    =.-.;.>.,.'.)./ !.~.~ +   ",
"    & ! {.].^./.(._.:.<.[.}.|.1.2.3.4.5.6.7.8.9.0.a.^ b.c.~ +   ",
"    . #.d.e.f.g.h.i.j.k.l.m.n.o.p.q.r.s.t.u.v.w.x.y./ e.d.! &   ",
"    . * {.z.A.B.C.D.E.F.G.H.I.J.K.L.M.N.O.P.Q.R.S.T.U.$.V.* .   ",
"    . * W.X.Y.Z.`. +.+++@+#+$+%+&+*+=+-+;+>+,+'+)+^ !+~+> $ .   ",
"      3 V.{+%.]+^+/+(+_+:+<+[+}+|+1+2+3+4+5+6+7+8+9+0+a+' %     ",
"      o b+c+d+e+f+g+h+i+j+k+l+m+n+o+p+q+r+s+t+u+v+^ w+x+) @     ",
"      $ > y+z+A+B+C+D+E+F+G+H+I+J+K+L+M+N+O+P+Q+R+^ S+c.~ &     ",
"      $ , K T+U+V+W+X+Y+Z+`+ @.@+@@@#@$@%@&@*@=@-@;@X.W.* .     ",
"      # ; >@,@'@)@!@~@{@]@^@/@(@_@:@<@[@}@|@1@2@( 3@y+> $ .     ",
"      % ' a+L 4@5@6@7@8@9@0@a@b@c@d@e@f@g@h@i@j@^ 0+a+' #       ",
"      % - k@l@m@n@o@p@q@r@s@t@u@v@w@x@y@z@A@B@C@^ D@x+) @       ",
"      @ ) 4 E@F@G@H@I@J@K@L@M@N@O@P@Q@R@S@T@U@V@^ S+c.~ &       ",
"      @ = p W@X@Y@Z@`@ #.#+#@###$#%#&#*#=#-#;#>#,#X.W.* .       ",
"      + ~ c.'#)#!#~#{#]#^#/#(#_#:#<#[#}#|#1#2#3#4#y+> $ .       ",
"      & ! d.q 5#6#7#8#9#0#a#b#c#d#e#f#g#h#i#j#k#l#a+' #         ",
"      . * @.z.A.m#n#o#p#q#r#s#t#u#v#w#x#y#z#A#^ D@x+) @         ",
"      . 3 V.{+%.e+v+B#C#D#E#F#G#H#I#J#K#L#M#N#^ S+c.~ &         ",
"        $ > K ,@4@O#P#Q#R#S#T#U#V#W#X#Y#Z#`# $.$X.W.* .         ",
"        # - +$W@@$#$$$%$&$*$=$-$;$>$,$'$)$!$~$4#y+> $ .         ",
"        @ {$d.$.z+F@]$^$/$($_$:$<$[$}$|$1$2$/ 3$4$' #           ",
"        + 3 ' p e.T+5$6$e+7$8$9$0$a$b$c$d$e$f$S+g$= @           ",
"        . % ! > p h$i$j$k$l$m$n$]+o$p$o$q$r$,@y+V.#.&           ",
"        . & # #.' W.p >@$.S+E@T+Y.)#r$s$t$T+z.u$- $ .           ",
"          . & @ $ ! ) , V.c.+$K X.v$W@W@S+c+p , #.@ .           ",
"              . . + @ $ * ~ w$> W.c.p x+g$@.' #.# &             "};
