/* XPM */
static const char * xpm_a_right[] = {
"20 20 16 1",
"a c #000000000000",
"b c #3232cdcd3232",
"c c #0000ffff0000",
"d c #dcdcdcdcdcdc",
"e c #bebebebebebe",
"f c #2f2f4f4f4f4f",
"g c #2e2e8b8b5757",
"h c #707080809090",
"i c #bfbfbfbfbfbf",
"j c #000000002020",
"k c #00000000d8d8",
"l c #00000000d8d8",
"m c #000000000606",
"n c #000000000404",
"o c #000000000404",
"p c #00000000f4f4",
"iiiiiiiiiiiiiiiiiiii",
"iiiiiiihhhhhhiiiiiii",
"iiiiiehhhhhhahfiiiii",
"iiiihhehhhhhhhfhiiii",
"iiiehfheefhhhfffaiii",
"iihhgggddehhfhhfhaii",
"iihfgbbgggehhfffafii",
"iffhgbbbbbggghfhffai",
"ihfhgbbbbbbbbggafaai",
"iffhgbbbbbbbbbbccfai",
"ihahgbbbbbbbbccfaaai",
"iahagbbbbbcccahfafai",
"ihahgbbccchahahahaai",
"iiafgcchfffffffaaaii",
"iiafahafahaafahaaaii",
"iiifaafahaafahaaaiii",
"iiiiafaaaafafafaiiii",
"iiiiiaaaaaafafaiiiii",
"iiiiiiiafaaaaiiiiiii",
"iiiiiiiiiiiiiiiiiiii"
};
