/* XPM */
static const char * xpm_a_up[] = {
"20 20 16 1",
"a c #000000000000",
"b c #3232cdcd3232",
"c c #dcdcdcdcdcdc",
"d c #bebebebebebe",
"e c #2f2f4f4f4f4f",
"f c #2e2e8b8b5757",
"g c #707080809090",
"h c #bfbfbfbfbfbf",
"i c #9898fbfb9898",
"j c #000000002020",
"k c #00000000d8d8",
"l c #00000000d8d8",
"m c #000000000606",
"n c #000000000404",
"o c #000000000404",
"p c #00000000f4f4",
"hhhhhhhhhhhhhhhhhhhh",
"hhhhhhhgggggghhhhhhh",
"hhhhhdggggggagehhhhh",
"hhhhggdggfigggeghhhh",
"hhhdgegddfiggeeeahhh",
"hhgggddcfbigeggegahh",
"hhgeggdcfbbigeeeaehh",
"heeggdgcfbbiggegeeah",
"hgegeggfbbbiegeaeaah",
"heegggefbbbbieegaeah",
"hgagegfbbbbbigaeaaah",
"hagagafbbbbbiageaeah",
"hgageefbbbbbbigagaah",
"hhaeafbbbbbbbieaaahh",
"hhaeafiiiiiiiigaaahh",
"hhheaaeagaaeagaaahhh",
"hhhhaeaaaaeaeaeahhhh",
"hhhhhaaaaaaeaeahhhhh",
"hhhhhhhaeaaaahhhhhhh",
"hhhhhhhhhhhhhhhhhhhh"
};
