/* XPM */
static const char * xpm_l_france[] = {
"40 40 8 1",
"a c #e6e6e6e6fafa",
"b c #bebebebebebe",
"c c #2f2f4f4f4f4f",
"d c #ffff00000000",
"e c #ffffffffffff",
"f c #00000000ffff",
"g c #000000000202",
"h c #000000002020",
"aaaaaaaaaaaaaaaaaaaaaaaaaaaaaaaaaaaaaaac",
"aaaaaaaaaaaaaaaaaaaaaaaaaaaaaaaaaaaaaacc",
"aabbbbbbbbbbbbbbbbbbbbbbbbbbbbbbbbbbbbcc",
"aabcccccccccccccccccccccccccccccccccabcc",
"aabcbbbbbbbbbbbbbbbbcccbbbbbbbbbbbbbabcc",
"aabcbbbbbbbbbbbbbbbbeeecbbbbbbbbbbbbabcc",
"aabcbbbbbbbbbbbbbbbbeeeeccbbbbbbbbbbabcc",
"aabcbbbbbbbbbbbbbbbbeeeeeecbbbbbbbbbabcc",
"aabcbbbbbbbbbbbbbeeeeeeeeeccbbbbbbbbabcc",
"aabcbbbbbbbbffbbbeeeeeeeeeddcccbbbbbabcc",
"aabcbbbbbbbbffbbbeeeeeeeeedddddccccbabcc",
"aabcbbbbbbbbbffffeeeeeeeeedddddddddcabcc",
"aabcbbfbffbbbffffeeeeeeeeedddddddddcabcc",
"aabcbffffffffffffeeeeeeeeedddddddddcabcc",
"aabcbbfffffffffffeeeeeeeeeddddddddcbabcc",
"aabcbbfffffffffffeeeeeeeeeddddddddcbabcc",
"aabcbbbbbffffffffeeeeeeeeeddddddddcbabcc",
"aabcbbbbbffffffffeeeeeeeeedddddddcbbabcc",
"aabcbbbbbbbffffffeeeeeeeeedddddddcbbabcc",
"aabcbbbbbbbffffffeeeeeeeeeddddddcbbbabcc",
"aabcbbbbbbbbfffffeeeeeeeeeddddddcbbbabcc",
"aabcbbbbbbbbfffffeeeeeeeeedddddddcbbabcc",
"aabcbbbbbbbbbffffeeeeeeeeedddddddcbbabcc",
"aabcbbbbbbbbbffffeeeeeeeeedddddddcbbabcc",
"aabcbbbbbbbbbffffeeeeeeeeeddddddddcbabcc",
"aabcbbbbbbbbbffffeeeeeeeeedddddddccbabcc",
"aabcbbbbbbbbbffffeeeeeeeeedddddddcbbabcc",
"aabcbbbbbbbbbffffeeeeeeeeedddddddcbbabcc",
"aabcbbbbbbbbbffffeeeeeeeeeddddddddcbabcc",
"aabcbbbbbbbbfffffeeeeeeeeedddddddddcabcc",
"aabcbbbbbbbbfffffeeeeeeeeeddddddddccabcc",
"aabcbbbbbbbffffffeeeeeeeeecddddddccbabcc",
"aabcbbbbbbbcfffffeeeeeeecccccccdcbbbabcc",
"aabcbbbbbbbbccfffeeeeeeecbbbbbbccbbbabcc",
"aabcbbbbbbbbbbcccccceeeecbbbbbbbbbbbabcc",
"aabcbbbbbbbbbbbbbbbbccccbbbbbbbbbbbbabcc",
"aabaaaaaaaaaaaaaaaaaaaaaaaaaaaaaaaaaabcc",
"aabbbbbbbbbbbbbbbbbbbbbbbbbbbbbbbbbbbbcc",
"accccccccccccccccccccccccccccccccccccccc",
"cccccccccccccccccccccccccccccccccccccccc"
};
