/* XPM */
static const char * xpm_l_play[] = {
"20 16 4 1",
"a c #1e1e9090ffff",
"b c #000000008080",
"c c #bfbfbfbfbfbf",
"d c #00000000ffff",
"cccccccccccccccccccc",
"cccccccccccccccccccc",
"cccccccccccccccccccc",
"cccccccccccccccccccc",
"cccccbcccccccccccccc",
"cccccbbbcccccccccccc",
"cccccbddbbcccccccccc",
"cccccbddddbbcccccccc",
"cccccbddddddbbcccccc",
"cccccbddddddaaaccccc",
"cccccbddddaaaccccccc",
"cccccbddaaaccccccccc",
"cccccbaaaccccccccccc",
"cccccbaccccccccccccc",
"cccccccccccccccccccc",
"cccccccccccccccccccc"
};
