/* XPM */
static const char * xpm_l_stop[] = {
"20 16 4 1",
"a c #000000008080",
"b c #bfbfbfbfbfbf",
"c c #00000000ffff",
"d c #000000006060",
"bbbbbbbbbbbbbbbbbbbb",
"bbbbbbbbbbbbbbbbbbbb",
"bbbbbbbbbbbbbbbbbbbb",
"bbbbbbbbbbbbbbbbbbbb",
"bbbbbcccccccccbbbbbb",
"bbbbbccccccccabbbbbb",
"bbbbbccccccccabbbbbb",
"bbbbbccccccccabbbbbb",
"bbbbbccccccccabbbbbb",
"bbbbbccccccccabbbbbb",
"bbbbbccccccccabbbbbb",
"bbbbbccccccccabbbbbb",
"bbbbbcaaaaaaaabbbbbb",
"bbbbbbbbbbbbbbbbbbbb",
"bbbbbbbbbbbbbbbbbbbb",
"bbbbbbbbbbbbbbbbbbbb"
};
