/* XPM */
static const char * xpm_l_white[] = {
"20 20 8 1",
"a c #dcdcdcdcdcdc",
"b c #bebebebebebe",
"c c #2f2f4f4f4f4f",
"d c #ffffffffffff",
"e c #707080809090",
"f c #bfbfbfbfbfbf",
"g c #000000000202",
"h c #000000002020",
"ffffffffffffffffffff",
"fffffffaaaaaafffffff",
"fffffdaaaaaaeabfffff",
"ffffaadaaaaaaabaffff",
"fffdabaddbaaabbbefff",
"ffaaadddddaabaabaeff",
"ffabaadddddaabbbebff",
"fbbaadaddaaaaababbef",
"fababaadbdaababebeef",
"fbbaaaaaaaaaabbaebef",
"faeabaaaaaeaeaebeeef",
"fcaeaebaeaabaeabebef",
"faeababbaeaeacacacef",
"ffebebeabbbbbbbeeeff",
"ffebeaebeaeebcaceeff",
"fffbeebeaeebeaceefff",
"ffffebeeeebcbcbcffff",
"fffffeeeeeebcbcfffff",
"fffffffcbceecfffffff",
"ffffffffffffffffffff"
};
