/* XPM */
static const char * xpm_rectangle_cursor[] = {
"16 16 3 1",
" 	c None",
".	c #FFFFFF",
"+	c #000000",
"                ",
"                ",
"                ",
"   ............ ",
"   .++++++++++. ",
"   .+........+. ",
"   .+.      .+. ",
"   .+.      .+. ",
"   .+.      .+. ",
"   .+.      .+. ",
"   .+.      .+. ",
".. .+........+. ",
".+. ++++++++++. ",
".++. .......... ",
".+++.           ",
"......          "};
