/* XPM */ 
static const char * xpm_objectTypeSiteFranchissement[] = {
"32 32 3 1",
" 	c None",
"!	c black",
"#	c #2424FF",
"                                ",
"                                ",
"                                ",
"                                ",
"                                ",
"                                ",
"                                ",
"                                ",
"                                ",
"                                ",
"                                ",
"                                ",
"########                     ###",
"############               #####",
"##############         #########",
"################################",
"################################",
"################################",
"################################",
"##############       ###########",
"#############         ##########",
"########               #########",
"                                ",
"                                ",
"                                ",
"                                ",
"                                ",
"                                ",
"                                ",
"                                ",
"                                ",
"                                "};
