/* XPM */ 
static const char * xpm_objectTypeZoneBrouillardBrod[] = {
"32 32 3 1",
" 	c None",
"!	c black",
"#	c #9F9F9F",
"                                ",
"           #  #                 ",
"        # #  ##    #  ## #      ",
"      # ## ######## ## ### ## # ",
"   ######### ### ############## ",
"   ######## ####################",
"  ######### ######### #### #####",
"  ######## #####################",
"   ######## ####################",
"  ##############################",
"############# ################# ",
"############################# # ",
"##########################  # # ",
"################## #########  # ",
" #### ############ ########## ##",
"########################### ##  ",
"#### ######################  #  ",
"   ################## ###       ",
"   ########################     ",
"   ########## ##############    ",
"  ##################### ## #    ",
" ###########################    ",
" ################### ########   ",
" ############################   ",
" ## # #### ## ##############    ",
"  #!!!!   !!!!    !!!!  !!!!    ",
"  #!   !  !   !  !    ! !   !   ",
"   !   !  !   !  !    ! !    !  ",
"   !!!!   !!!!   !    ! !    !  ",
"   !   !  !   !  !    ! !    !  ",
"   !   !  !   !  !    ! !   !   ",
"   !!!!   !   !   !!!!  !!!!    "};
