<?xml version="1.0" standalone="no"?> <!DOCTYPE svg PUBLIC "-//W3C//DTD SVG 1.0//EN" "http://www.w3.org/TR/2001/REC-SVG-20010904/DTD/svg10.dtd" > <svg width="100%" height="100%">
<g>
<path d="M422 326Q422 314 423 309Q425 294 432 282Q451 246 502 246Q552 246 572 282Q578 294 580 309Q582 320 582 326Q582 337 580 348Q578 365 572 378Q553 416 502 416Q456 416 435 378Q428 365 424 348Q422
338 422 326ZM0 40V0H1000V660H0V0H40V620H960V40H0ZM270 344Q270 394 289 434Q303 464 308 464H700Q718 464 718 344Q718 310 711 283Q706 261 698 246Q685 223 678 224H310L314 194H708Q714 194 728 224Q736 243 741 269Q748 304 748 344Q748 384 743 419Q739
447 733 469Q722 504 718 504H288Q281 504 263 465Q252 442 245 415Q238 383 238 344Q238 305 247 274Q254 248 268 227Q289 194 298 194H328V224Q317 224 299 246Q286 261 279 283Q270 308 270 344ZM0 40V0H1000V660H0V0H40V620H960V40H0Z" />
<path transform="translate(1000)" d="M138 248L178 252L258 338L335 224L373 227L256 374L138 248ZM210 296L186 276L318 278L302 296H210ZM414 404L416 248L494 242L555 325L447 392L448 368L515 326L490 266L446 276V383L414 404ZM586
242L582 382L642 388L685 322L728 397L778 402L785 215L742 235L748 367L692 271L616 356L613 242H586ZM0 40V0H1000V660H0V0H40V620H960V40H0Z" />
<path transform="translate(2000)" d="M0 660V618L534 192L510 347L962 0H1000V38L435 468L468 310L39 659L0 660ZM0 40V0H1000V660H0V0H40V620H960V40H0Z" />
<path transform="translate(3000)" d="M318 408L306 210H368V408H318ZM394 396L456 218L514 224L543 338L599 210L643 215L710 404L653 402L620 273L566 410L521 406L478 272L438 398L394 396ZM0 40V0H1000V660H0V0H40V620H960V40H0Z" />
<path transform="translate(4000)" d="M236 444L202 242L372 200L376 242L256 285V324L374 292L377 330L266 367L309 397L402 384L408 428L236 444ZM470 402L532 210L574 206L620 328L671 199L720 186L763 396L716 397L691 245L624 395L593
394L555 252L538 402H470ZM0 40V0H1000V660H0V0H40V620H960V40H0Z" />
<path transform="translate(5000)" d="M416 618L450 186L354 178L476 95L580 176L492 185L438 616L416 618ZM236 444L202 242L372 200L376 242L256 285V324L374 292L377 330L266 367L309 397L402 384L408 428L236 444ZM470 402L532 210L574
206L620 328L671 199L720 186L763 396L716 397L691 245L624 395L593 394L555 252L538 402H470ZM0 40V0H1000V660H0V0H40V620H960V40H0Z" />
<path transform="translate(6000)" d="M12 496L10 460Q3 460 42 480Q80 501 112 500Q130 499 146 490Q157 483 170 470Q199 442 212 444Q235 446 253 456Q264 462 279 477Q295 491 304 496Q319 505 339 506Q355 506 370 498Q377 494 395
480Q412 468 424 462Q443 453 466 453Q494 451 514 458Q529 463 544 474Q547 476 555 483Q561 488 565 491Q577 499 590 500Q608 501 639 480Q655 470 666 465Q683 457 702 456Q720 454 758 472Q778 481 788 484Q805 490 821 491Q842 491 864 473Q888 455 904 454Q939
453 966 475Q993 498 986 498L981 536Q985 536 957 517Q929 498 909 497Q879 494 865 509Q855 518 851 521Q841 528 825 530Q809 532 794 525Q786 521 768 509Q750 497 739 492Q721 485 702 486Q691 486 679 495Q681 493 659 513Q646 524 633 530Q615 537 592 536Q570
534 551 527Q538 523 521 513Q503 502 496 499Q482 493 468 493Q455 492 442 498Q442 498 419 512Q403 521 389 525Q368 530 343 529Q317 528 296 519Q281 513 265 501Q239 481 240 482Q226 473 213 471Q199 469 178 500Q168 515 156 522Q138 532 111 532Q61 532
31 514Q2 496 12 496ZM10 572L8 536Q1 536 40 556Q78 577 110 576Q128 575 144 566Q155 559 168 546Q197 518 210 520Q233 522 251 532Q262 538 277 553Q293 567 302 572Q317 581 337 582Q353 582 368 574Q375 570 393 556Q410 544 422 538Q441 529 464 529Q492
527 512 534Q527 539 542 550Q545 552 553 559Q559 564 563 567Q575 575 588 576Q606 577 637 556Q653 546 664 541Q681 533 700 532Q718 530 756 548Q776 557 786 560Q803 566 819 567Q840 567 862 549Q886 531 902 530Q937 529 964 551Q991 574 984 574L979 612Q983
612 955 593Q927 574 907 573Q877 570 863 585Q853 594 849 597Q839 604 823 606Q807 608 792 601Q784 597 766 585Q748 573 737 568Q719 561 700 562Q689 562 677 571Q679 569 657 589Q644 600 631 606Q613 613 590 612Q568 610 549 603Q536 599 519 589Q501 578
494 575Q480 569 466 569Q453 568 440 574Q440 574 417 588Q401 597 387 601Q366 606 341 605Q315 604 294 595Q279 589 263 577Q237 557 238 558Q224 549 211 547Q197 545 176 576Q166 591 154 598Q136 608 109 608Q59 608 29 590Q0 572 10 572ZM236 444L202 242L372
200L376 242L256 285V324L374 292L377 330L266 367L309 397L402 384L408 428L236 444ZM470 402L532 210L574 206L620 328L671 199L720 186L763 396L716 397L691 245L624 395L593 394L555 252L538 402H470ZM0 40V0H1000V660H0V0H40V620H960V40H0Z" />
<path transform="translate(7000)" d="M405 77L454 78L470 500L636 480L476 598L326 501L440 492L405 77ZM236 444L202 242L372 200L376 242L256 285V324L374 292L377 330L266 367L309 397L402 384L408 428L236 444ZM470 402L532 210L574
206L620 328L671 199L720 186L763 396L716 397L691 245L624 395L593 394L555 252L538 402H470ZM0 40V0H1000V660H0V0H40V620H960V40H0Z" />
<path transform="translate(8000)" d="M442 154V84H512V154H442ZM444 254V184H514Q514 184 514 207Q514 237 514 254Q514 294 534 334Q536 339 550 358Q574 390 577 395Q614 446 614 464Q614 519 580 539Q554 554 494 554Q445 554 417 524Q394
498 394 464Q394 413 394 414H444Q444 414 444 411Q444 411 444 424Q444 459 450 470Q459 487 494 494Q523 494 535 490Q554 483 554 464Q554 454 541 433Q532 419 512 394Q485 359 482 354Q467 333 464 324Q457 311 450 281Q443 254 444 254ZM0 40V0H1000V660H0V0H40V620H960V40H0Z"
/>
<path transform="translate(9000)" d="M550 260V80H590V260H550ZM550 260V220H618Q622 220 629 217Q640 213 640 205Q639 193 628 190Q625 190 618 190H550V150H618Q626 150 646 161Q674 178 675 203Q675 227 646 246Q625 260 618 260H550ZM480
630V10H520V630H480ZM4 330V290H992L990 330H4ZM0 40V0H1000V660H0V0H40V620H960V40H0Z" />
<path transform="translate(10000)" d="M0 170V130H1000V170H0ZM0 40V0H1000V660H0V0H40V620H960V40H0Z" />
<path transform="translate(11000)" d="M489 315Q484 320 477 326Q468 335 467 337Q456 348 450 356Q435 377 436 408Q437 464 495 502Q562 546 576 546Q577 546 566 548Q553 550 541 551Q502 553 480 537Q459 522 449 513Q433 500 422 487Q398
455 398 410Q398 366 419 336Q428 323 444 308Q453 299 478 278Q495 263 532 261Q544 260 556 261Q570 262 566 262Q563 262 538 276Q507 295 489 315ZM0 170V130H1000V170H0ZM0 40V0H1000V660H0V0H40V620H960V40H0Z" />
<path transform="translate(12000)" d="M480 270V130H520V270H480ZM370 450L480 270H520L410 450H370ZM590 450L480 270H520L630 450H590ZM372 450L400 410H604L630 450H372ZM0 170V130H1000V170H0ZM0 40V0H1000V660H0V0H40V620H960V40H0Z" />
<path transform="translate(13000)" d="M0 170V130H1000V170H0ZM0 40V0H1000V660H0V0H40V620H960V40H0ZM322 454V252H372V422H472V252H522V422H622V252H670V454H322Z" />
<path transform="translate(14000)" d="M488 538Q453 538 427 516Q405 499 390 470Q379 448 372 423Q366 401 368 402V130H408V420Q402 420 430 464Q458 508 488 508Q514 508 538 464Q563 420 558 420V130H598V402Q599 402 594 423Q589 448
580 470Q567 499 547 516Q522 538 488 538ZM0 170V130H1000V170H0ZM0 40V0H1000V660H0V0H40V620H960V40H0Z" />
<path transform="translate(15000)" d="M342 346Q343 275 393 235Q437 200 500 202Q542 202 577 220Q607 236 629 262Q665 307 668 352Q668 369 633 371Q597 373 599 351Q601 311 578 285Q552 253 501 253Q450 253 422 282Q398 307 397 348Q396
392 420 419Q446 448 497 448Q555 447 580 413Q598 390 600 348Q602 316 634 316Q666 316 668 347Q669 360 663 381Q655 411 639 435Q619 466 588 483Q550 504 498 504Q338 502 342 346ZM484 476V224H524V474L484 476ZM604 446L390 282L416 256L626 418L604 446ZM410
448L390 412L596 246L622 276L410 448ZM0 40V0H1000V660H0V0H40V620H960V40H0Z" />
<path transform="translate(16000)" d="M318 322V282H676V322H318ZM250 404Q252 404 275 366Q300 324 302 302Q303 278 274 237Q249 201 246 202Q256 202 290 228Q309 242 320 259Q335 280 336 302Q337 342 293 377Q260 404 250 404ZM754
408Q750 408 722 368Q691 324 692 302Q692 282 719 241Q743 203 746 204Q740 204 701 237Q656 275 656 302Q655 321 670 342Q682 358 704 376Q744 408 754 408ZM0 40V0H1000V660H0V0H40V620H960V40H0Z" />
<path transform="translate(17000)" d="M618 478Q613 478 570 453Q546 439 524 423Q496 403 474 382Q448 358 424 315Q405 281 387 237Q374 205 364 171Q355 144 356 144Q355 144 375 174Q398 210 418 242Q447 285 466 313Q490 347 498 354Q508
363 529 384Q546 401 569 426Q618 477 618 478ZM500 382Q475 405 444 425Q420 441 393 454Q350 476 342 476Q341 476 394 423Q419 398 437 381Q460 360 472 352Q481 344 502 309Q519 282 543 238Q560 206 578 170Q594 140 594 140Q594 140 585 171Q574 210 563
245Q547 293 533 326Q515 367 500 382ZM298 422Q300 376 352 380Q370 381 387 406Q403 432 400 432L344 476Q339 476 320 460Q296 440 298 422ZM568 436Q564 436 580 408Q596 380 616 380Q670 380 670 430Q669 458 643 471Q629 478 618 478L568 436ZM0 40V0H1000V660H0V0H40V620H960V40H0Z"
/>
<path transform="translate(18000)" d="M484 560Q444 560 444 514Q443 476 486 474Q508 472 517 487Q527 502 523 503Q524 503 514 500Q505 497 496 497Q470 495 470 515Q470 535 497 534Q505 534 515 532Q525 530 524 530Q527 530 515 545Q502
559 484 560ZM618 478Q613 478 570 453Q546 439 524 423Q496 403 474 382Q448 358 424 315Q405 281 387 237Q374 205 364 171Q355 144 356 144Q355 144 375 174Q398 210 418 242Q447 285 466 313Q490 347 498 354Q508 363 529 384Q546 401 569 426Q618 477 618
478ZM500 382Q475 405 444 425Q420 441 393 454Q350 476 342 476Q341 476 394 423Q419 398 437 381Q460 360 472 352Q481 344 502 309Q519 282 543 238Q560 206 578 170Q594 140 594 140Q594 140 585 171Q574 210 563 245Q547 293 533 326Q515 367 500 382ZM298
422Q300 376 352 380Q370 381 387 406Q403 432 400 432L344 476Q339 476 320 460Q296 440 298 422ZM568 436Q564 436 580 408Q596 380 616 380Q670 380 670 430Q669 458 643 471Q629 478 618 478L568 436ZM0 40V0H1000V660H0V0H40V620H960V40H0Z" />
<path transform="translate(19000)" d="M456 580V478H484V580H456ZM457 502L456 478L507 477Q514 477 527 486Q547 501 548 530Q548 554 528 569Q514 580 508 580H456V553L508 552Q521 552 521 526Q521 503 505 503L457 502ZM618 478Q613
478 570 453Q546 439 524 423Q496 403 474 382Q448 358 424 315Q405 281 387 237Q374 205 364 171Q355 144 356 144Q355 144 375 174Q398 210 418 242Q447 285 466 313Q490 347 498 354Q508 363 529 384Q546 401 569 426Q618 477 618 478ZM500 382Q475 405 444
425Q420 441 393 454Q350 476 342 476Q341 476 394 423Q419 398 437 381Q460 360 472 352Q481 344 502 309Q519 282 543 238Q560 206 578 170Q594 140 594 140Q594 140 585 171Q574 210 563 245Q547 293 533 326Q515 367 500 382ZM298 422Q300 376 352 380Q370
381 387 406Q403 432 400 432L344 476Q339 476 320 460Q296 440 298 422ZM568 436Q564 436 580 408Q596 380 616 380Q670 380 670 430Q669 458 643 471Q629 478 618 478L568 436ZM0 40V0H1000V660H0V0H40V620H960V40H0Z" />
<path transform="translate(20000)" d="M436 576V476H458V546L503 477H525V573H503V507L460 574L436 576ZM618 478Q613 478 570 453Q546 439 524 423Q496 403 474 382Q448 358 424 315Q405 281 387 237Q374 205 364 171Q355 144 356 144Q355
144 375 174Q398 210 418 242Q447 285 466 313Q490 347 498 354Q508 363 529 384Q546 401 569 426Q618 477 618 478ZM500 382Q475 405 444 425Q420 441 393 454Q350 476 342 476Q341 476 394 423Q419 398 437 381Q460 360 472 352Q481 344 502 309Q519 282 543
238Q560 206 578 170Q594 140 594 140Q594 140 585 171Q574 210 563 245Q547 293 533 326Q515 367 500 382ZM298 422Q300 376 352 380Q370 381 387 406Q403 432 400 432L344 476Q339 476 320 460Q296 440 298 422ZM568 436Q564 436 580 408Q596 380 616 380Q670
380 670 430Q669 458 643 471Q629 478 618 478L568 436ZM0 40V0H1000V660H0V0H40V620H960V40H0Z" />
<path transform="translate(21000)" d="M450 572V458H470V572H450ZM450 572V554L489 553Q488 553 491 554Q493 555 496 555Q503 554 503 543Q503 529 488 529H451L450 511H490Q494 511 504 519Q519 529 520 544Q521 564 504 570Q499 572
488 572H450ZM451 474L452 458H494Q501 458 513 463Q532 471 532 488Q532 504 512 514Q498 522 492 522L477 512Q480 512 492 506Q507 499 508 491Q509 482 500 478Q494 475 490 475L451 474ZM618 478Q613 478 570 453Q546 439 524 423Q496 403 474 382Q448 358
424 315Q405 281 387 237Q374 205 364 171Q355 144 356 144Q355 144 375 174Q398 210 418 242Q447 285 466 313Q490 347 498 354Q508 363 529 384Q546 401 569 426Q618 477 618 478ZM500 382Q475 405 444 425Q420 441 393 454Q350 476 342 476Q341 476 394 423Q419
398 437 381Q460 360 472 352Q481 344 502 309Q519 282 543 238Q560 206 578 170Q594 140 594 140Q594 140 585 171Q574 210 563 245Q547 293 533 326Q515 367 500 382ZM298 422Q300 376 352 380Q370 381 387 406Q403 432 400 432L344 476Q339 476 320 460Q296
440 298 422ZM568 436Q564 436 580 408Q596 380 616 380Q670 380 670 430Q669 458 643 471Q629 478 618 478L568 436ZM0 40V0H1000V660H0V0H40V620H960V40H0Z" />
<path transform="translate(22000)" d="M484 278V84H522V278H484ZM594 358Q592 385 573 386Q553 386 552 362Q548 308 502 306Q441 302 440 362Q438 421 500 424Q551 425 554 361Q554 342 572 341Q590 341 592 358Q594 392 575 422Q550 460
502 460Q450 460 419 427Q394 401 394 368Q394 324 419 299Q448 269 506 270Q555 270 578 306Q595 331 594 358ZM0 40V0H1000V660H0V0H40V620H960V40H0Z" />
<path transform="translate(23000)" d="M0 0V-422H40V0H0Z" />
<path transform="translate(24000)" d="M0 40V0H40L504 618L470 658L0 40ZM500 616L962 0H1000L998 38L534 656L500 616ZM0 40V0H1000V660H0V0H40V620H960V40H0ZM270 344Q270 394 289 434Q303 464 308 464H700Q718 464 718 344Q718 310 711
283Q706 261 698 246Q685 223 678 224H310L314 194H708Q714 194 728 224Q736 243 741 269Q748 304 748 344Q748 384 743 419Q739 447 733 469Q722 504 718 504H288Q281 504 263 465Q252 442 245 415Q238 383 238 344Q238 305 247 274Q254 248 268 227Q289 194 298
194H328V224Q317 224 299 246Q286 261 279 283Q270 308 270 344ZM0 40V0H1000V660H0V0H40V620H960V40H0ZM340 183Q298 183 298 142Q297 100 348 102Q385 102 388 142Q388 155 378 155Q368 156 368 142Q367 122 338 122Q319 122 318 142Q316 160 338 162Q369 163
369 141Q368 127 378 126Q387 125 388 141Q388 157 379 168Q366 183 340 183ZM490 183Q448 183 448 142Q447 100 498 102Q535 102 538 142Q538 155 528 155Q518 156 518 142Q517 122 488 122Q469 122 468 142Q466 160 488 162Q519 163 519 141Q518 127 528 126Q537
125 538 141Q538 157 529 168Q516 183 490 183ZM640 183Q598 183 598 142Q597 100 648 102Q685 102 688 142Q688 155 678 155Q668 156 668 142Q667 122 638 122Q619 122 618 142Q616 160 638 162Q669 163 669 141Q668 127 678 126Q687 125 688 141Q688 157 679
168Q666 183 640 183Z" />
<path transform="translate(25000)" d="M322 454V252H372V422H472V252H522V422H622V252H670V454H322ZM0 40V0H1000V660H0V0H40V620H960V40H0Z" />
<path transform="translate(26000)" d="M356 565Q333 564 317 551Q297 534 298 506Q298 447 356 446Q376 445 389 450Q403 455 399 456V480Q399 480 356 473Q324 473 324 507Q323 521 340 531Q351 537 357 537L397 532V559Q400 559 386 562Q372
565 356 565ZM462 560V450H483V560H462ZM483 560V540H511Q519 540 519 528Q519 516 515 515Q513 515 512 515Q510 517 511 517H483V497L511 496Q515 496 526 503Q541 514 542 528Q542 543 526 553Q516 560 511 560H483ZM483 466V450H512Q519 450 528 454Q545 462
545 479Q545 507 529 507L512 497Q523 497 524 479Q524 466 512 466H483ZM592 561V535H697V561H592ZM632 535V453H654V535H632ZM0 40V0H1000V660H0V0H40V620H960V40H0ZM324 340V138H374V308H474V138H524V308H624V138H672V340H324Z" />
<path transform="translate(27000)" d="M367 207V179H406V76H433V178L470 179V207H367ZM571 208L515 80H538L583 185L624 79L648 80L596 208H571ZM563 139L554 119H609L602 139H563ZM422 326Q422 314 423 309Q425 294 432 282Q451 246 502
246Q552 246 572 282Q578 294 580 309Q582 320 582 326Q582 337 580 348Q578 365 572 378Q553 416 502 416Q456 416 435 378Q428 365 424 348Q422 338 422 326ZM0 40V0H1000V660H0V0H40V620H960V40H0Z" />
<path transform="translate(28000)" d="M370 264Q334 264 334 232Q334 194 368 198Q397 200 400 230Q403 263 370 264ZM408 472Q392 472 368 400Q356 364 360 330Q365 287 396 252Q421 221 458 207Q488 196 524 196Q549 195 575 200Q601
206 596 206Q608 206 581 203Q562 202 542 205Q514 210 488 224Q455 242 426 274Q400 301 392 338Q385 368 389 402Q397 471 408 472ZM562 432L572 384L722 478L550 338L544 376L426 274L562 432ZM0 40V0H1000V660H0V0H40V620H960V40H0Z" />
<path transform="translate(29000)" d="M662 788V645H700V788H662ZM492 792V644H532V792H492ZM320 788V642H360V788H320Z" />
<path transform="translate(30000)" d="M578 790V642H618V790H578ZM406 786V640H446V786H406Z" />
<path transform="translate(31000)" d="M490 780V634H530V780H490Z" />
<path transform="translate(32000)" d="M646 752Q646 701 692 702Q741 702 740 750Q738 800 694 800Q646 799 646 752ZM332 798Q284 798 284 748Q284 701 332 698Q376 694 380 746Q383 798 332 798ZM462 750Q462 699 508 700Q557 700 556
748Q554 798 510 798Q462 797 462 750Z" />
<path transform="translate(33000)" d="M440 784Q392 784 392 734Q392 687 440 684Q484 680 488 732Q491 784 440 784ZM570 736Q570 685 616 686Q665 686 664 734Q662 784 618 784Q570 783 570 736Z" />
<path transform="translate(34000)" d="M464 736Q464 685 510 686Q559 686 558 734Q556 784 512 784Q464 783 464 736Z" />
<path transform="translate(35000)" d="M0 40V0H1000V660H0V0H40V620H960V40H0Z" />
<path transform="translate(36000)" d="M442 154V84H512V154H442ZM444 254V184H514Q514 184 514 207Q514 237 514 254Q514 294 534 334Q536 339 550 358Q574 390 577 395Q614 446 614 464Q614 519 580 539Q554 554 494 554Q445 554 417 524Q394
498 394 464Q394 413 394 414H444Q444 414 444 411Q444 411 444 424Q444 459 450 470Q459 487 494 494Q523 494 535 490Q554 483 554 464Q554 454 541 433Q532 419 512 394Q485 359 482 354Q467 333 464 324Q457 311 450 281Q443 254 444 254ZM0 40V0H1000V660H0V0H40V620H960V40H0Z"
/>
<path transform="translate(37000)" d="M438 348Q445 348 425 378Q405 408 368 408Q288 408 288 318Q288 277 316 255Q339 238 368 238Q393 238 418 268Q442 297 438 298H408Q411 298 399 288Q386 278 368 278Q352 278 335 290Q318 303 318
318Q318 344 335 358Q348 368 368 368Q380 368 395 358Q410 348 408 348H438ZM468 408V248H498V408H468ZM498 388V408H528Q538 408 548 401Q568 389 568 358Q568 339 548 326Q534 318 528 318H498V338H528Q538 338 538 358Q538 387 530 388H498ZM498 268V248H528Q540
248 553 253Q578 263 578 288Q578 312 564 326Q555 334 550 335L530 323Q533 323 539 316Q548 306 548 288Q548 275 538 270Q533 268 528 268H498ZM598 408V379L708 378V408H598ZM638 408V248H668V408H638ZM0 40V0H1000V660H0V0H40V620H960V40H0Z" />
<path transform="translate(38000)" d="M502 220Q426 220 331 192Q254 169 169 131Q108 103 49 69Q0 42 2 42H42Q40 42 89 65Q149 92 208 116Q290 148 358 166Q443 190 502 190Q560 190 645 166Q713 148 795 116Q854 92 914 65Q963 42 962
42H1000Q1002 42 951 69Q891 103 829 131Q743 169 668 192Q574 220 502 220ZM0 40V0H1000V660H0V0H40V620H960V40H0Z" />
<path transform="translate(39000)" d="M270 344Q270 394 289 434Q303 464 308 464H700Q718 464 718 344Q718 310 711 283Q706 261 698 246Q685 223 678 224H310L314 194H708Q714 194 728 224Q736 243 741 269Q748 304 748 344Q748 384 743
419Q739 447 733 469Q722 504 718 504H288Q281 504 263 465Q252 442 245 415Q238 383 238 344Q238 305 247 274Q254 248 268 227Q289 194 298 194H328V224Q317 224 299 246Q286 261 279 283Q270 308 270 344ZM0 40V0H1000V660H0V0H40V620H960V40H0Z" />
<path transform="translate(40000)" d="M340 183Q298 183 298 142Q297 100 348 102Q385 102 388 142Q388 155 378 155Q368 156 368 142Q367 122 338 122Q319 122 318 142Q316 160 338 162Q369 163 369 141Q368 127 378 126Q387 125 388 141Q388
157 379 168Q366 183 340 183Z" />
<path transform="translate(41000)" d="M490 183Q448 183 448 142Q447 100 498 102Q535 102 538 142Q538 155 528 155Q518 156 518 142Q517 122 488 122Q469 122 468 142Q466 160 488 162Q519 163 519 141Q518 127 528 126Q537 125 538 141Q538
157 529 168Q516 183 490 183Z" />
<path transform="translate(42000)" d="M640 183Q598 183 598 142Q597 100 648 102Q685 102 688 142Q688 155 678 155Q668 156 668 142Q667 122 638 122Q619 122 618 142Q616 160 638 162Q669 163 669 141Q668 127 678 126Q687 125 688 141Q688
157 679 168Q666 183 640 183Z" />
<path transform="translate(43000)" d="M340 183Q298 183 298 142Q297 100 348 102Q385 102 388 142Q388 155 378 155Q368 156 368 142Q367 122 338 122Q319 122 318 142Q316 160 338 162Q369 163 369 141Q368 127 378 126Q387 125 388 141Q388
157 379 168Q366 183 340 183ZM490 183Q448 183 448 142Q447 100 498 102Q535 102 538 142Q538 155 528 155Q518 156 518 142Q517 122 488 122Q469 122 468 142Q466 160 488 162Q519 163 519 141Q518 127 528 126Q537 125 538 141Q538 157 529 168Q516 183 490
183ZM640 183Q598 183 598 142Q597 100 648 102Q685 102 688 142Q688 155 678 155Q668 156 668 142Q667 122 638 122Q619 122 618 142Q616 160 638 162Q669 163 669 141Q668 127 678 126Q687 125 688 141Q688 157 679 168Q666 183 640 183Z" />
<path transform="translate(44000)" d="M270 344Q270 394 289 434Q303 464 308 464H700Q718 464 718 344Q718 310 711 283Q706 261 698 246Q685 223 678 224H310L314 194H708Q714 194 728 224Q736 243 741 269Q748 304 748 344Q748 384 743
419Q739 447 733 469Q722 504 718 504H288Q281 504 263 465Q252 442 245 415Q238 383 238 344Q238 305 247 274Q254 248 268 227Q289 194 298 194H328V224Q317 224 299 246Q286 261 279 283Q270 308 270 344ZM0 40V0H1000V660H0V0H40V620H960V40H0ZM340 183Q298
183 298 142Q297 100 348 102Q385 102 388 142Q388 155 378 155Q368 156 368 142Q367 122 338 122Q319 122 318 142Q316 160 338 162Q369 163 369 141Q368 127 378 126Q387 125 388 141Q388 157 379 168Q366 183 340 183ZM490 183Q448 183 448 142Q447 100 498
102Q535 102 538 142Q538 155 528 155Q518 156 518 142Q517 122 488 122Q469 122 468 142Q466 160 488 162Q519 163 519 141Q518 127 528 126Q537 125 538 141Q538 157 529 168Q516 183 490 183ZM640 183Q598 183 598 142Q597 100 648 102Q685 102 688 142Q688
155 678 155Q668 156 668 142Q667 122 638 122Q619 122 618 142Q616 160 638 162Q669 163 669 141Q668 127 678 126Q687 125 688 141Q688 157 679 168Q666 183 640 183Z" />
<path transform="translate(45000)" d="M0 40V0H40L1000 620L998 656L960 658L0 40ZM458 308L958 0H998V40L506 342L458 308ZM0 40V0H1000V660H0V0H40V620H960V40H0Z" />
<path transform="translate(46000)" d="M0 40V0H40L504 618L470 658L0 40ZM500 616L962 0H1000L998 38L534 656L500 616ZM0 40V0H1000V660H0V0H40V620H960V40H0Z" />
<path transform="translate(47000)" d="M0 40V0H40L504 618L470 658L0 40ZM500 616L962 0H1000L998 38L534 656L500 616ZM0 40V0H1000V660H0V0H40V620H960V40H0ZM270 344Q270 394 289 434Q303 464 308 464H700Q718 464 718 344Q718 310 711
283Q706 261 698 246Q685 223 678 224H310L314 194H708Q714 194 728 224Q736 243 741 269Q748 304 748 344Q748 384 743 419Q739 447 733 469Q722 504 718 504H288Q281 504 263 465Q252 442 245 415Q238 383 238 344Q238 305 247 274Q254 248 268 227Q289 194 298
194H328V224Q317 224 299 246Q286 261 279 283Q270 308 270 344ZM0 40V0H1000V660H0V0H40V620H960V40H0Z" />
<path transform="translate(48000)" d="M240 434V184L480 284V334L240 434ZM730 444V184L480 284V334L730 444ZM0 40V0H1000V660H0V0H40V620H960V40H0Z" />
<path transform="translate(49000)" d="M242 434Q236 434 222 402Q213 384 208 362Q202 336 202 304Q202 269 208 242Q213 220 223 204Q236 180 244 180L290 304L242 434ZM728 444Q734 444 748 416Q756 399 761 376Q768 347 768 314Q768
280 761 251Q756 229 748 211Q734 184 728 184L698 314L728 444ZM240 434V184L480 284V334L240 434ZM730 444V184L480 284V334L730 444ZM0 40V0H1000V660H0V0H40V620H960V40H0Z" />
<path transform="translate(50000)" d="M458 300V0H498V300H458ZM240 434V184L480 284V334L240 434ZM730 444V184L480 284V334L730 444ZM0 40V0H1000V660H0V0H40V620H960V40H0Z" />
<path transform="translate(51000)" d="M0 620L466 304L506 342L40 660H0V620ZM0 40V0H40L1000 620L998 656L960 658L0 40ZM458 308L958 0H998V40L506 342L458 308ZM0 40V0H1000V660H0V0H40V620H960V40H0Z" />
<path transform="translate(52000)" d="M0 620L466 304L506 342L40 660H0V620ZM0 40V0H40L1000 620L998 656L960 658L0 40ZM458 308L958 0H998V40L506 342L458 308ZM0 40V0H1000V660H0V0H40V620H960V40H0ZM270 344Q270 394 289 434Q303 464
308 464H700Q718 464 718 344Q718 310 711 283Q706 261 698 246Q685 223 678 224H310L314 194H708Q714 194 728 224Q736 243 741 269Q748 304 748 344Q748 384 743 419Q739 447 733 469Q722 504 718 504H288Q281 504 263 465Q252 442 245 415Q238 383 238 344Q238
305 247 274Q254 248 268 227Q289 194 298 194H328V224Q317 224 299 246Q286 261 279 283Q270 308 270 344ZM0 40V0H1000V660H0V0H40V620H960V40H0Z" />
<path transform="translate(53000)" d="M322 454V252H372V422H472V252H522V422H622V252H670V454H322Z" />
<path transform="translate(54000)" d="M322 454V252H372V422H472V252H522V422H622V252H670V454H322ZM270 344Q270 394 289 434Q303 464 308 464H700Q718 464 718 344Q718 310 711 283Q706 261 698 246Q685 223 678 224H310L314 194H708Q714
194 728 224Q736 243 741 269Q748 304 748 344Q748 384 743 419Q739 447 733 469Q722 504 718 504H288Q281 504 263 465Q252 442 245 415Q238 383 238 344Q238 305 247 274Q254 248 268 227Q289 194 298 194H328V224Q317 224 299 246Q286 261 279 283Q270 308 270
344ZM0 40V0H1000V660H0V0H40V620H960V40H0Z" />
<path transform="translate(55000)" d="M472 632V18H522V632H472ZM322 454V252H372V422H472V252H522V422H622V252H670V454H322ZM0 40V0H1000V660H0V0H40V620H960V40H0Z" />
<path transform="translate(56000)" d="M422 326Q422 314 423 309Q425 294 432 282Q451 246 502 246Q552 246 572 282Q578 294 580 309Q582 320 582 326Q582 337 580 348Q578 365 572 378Q553 416 502 416Q456 416 435 378Q428 365 424 348Q422
338 422 326ZM0 40V0H1000V660H0V0H40V620H960V40H0Z" />
<path transform="translate(57000)" d="M0 50V0H40L1000 616V658H960L0 50ZM0 40V0H1000V660H0V0H40V620H960V40H0Z" />
<path transform="translate(58000)" d="M422 326Q422 314 423 309Q425 294 432 282Q451 246 502 246Q552 246 572 282Q578 294 580 309Q582 320 582 326Q582 337 580 348Q578 365 572 378Q553 416 502 416Q456 416 435 378Q428 365 424 348Q422
338 422 326ZM0 40V0H1000V660H0V0H40V620H960V40H0ZM0 50V0H40L1000 616V658H960L0 50ZM0 40V0H1000V660H0V0H40V620H960V40H0Z" />
<path transform="translate(59000)" d="M458 410V40H508V410H458ZM488 490Q457 490 431 465Q410 444 394 410Q382 385 374 355Q367 330 368 330V40H408V350Q401 350 429 405Q456 460 488 460Q513 460 538 405Q563 350 558 350V40H598V330Q599
330 596 355Q592 385 584 410Q572 444 551 465Q525 490 488 490ZM0 40V0H1000V660H0V0H40V620H960V40H0Z" />
<path transform="translate(60000)" d="M480 630V10H520V630H480ZM4 330V290H992L990 330H4ZM0 40V0H1000V660H0V0H40V620H960V40H0Z" />
</g>
</svg>
