/* XPM */
static const char * xpm_commandpost[] = {
"10 10 27 1",
" 	c None",
".	c #1C1900",
"+	c #444400",
"@	c #FFFFE8",
"#	c #ABA52F",
"$	c #FFFFD5",
"%	c #FFFFD0",
"&	c #FFFFB6",
"*	c #A09A1F",
"=	c #F1EB87",
"-	c #FFFFAE",
";	c #FFFFCC",
">	c #FFFFAB",
",	c #F6EE8D",
"'	c #E0DB70",
")	c #C1BB46",
"!	c #F9F697",
"~	c #FFFFBB",
"{	c #F7F194",
"]	c #D5CF62",
"^	c #847E02",
"/	c #E3DD73",
"(	c #F9F397",
"_	c #FFFFA5",
":	c #E6E078",
"<	c #D5CC60",
"[	c #464400",
"          ",
"          ",
"          ",
" .   .   +",
" .. .@. ..",
" .#.$%&.*.",
" .=-;%>,'.",
" .)!~%{]^.",
" ./(-_{:<.",
" [........"};
