<?xml version="1.0" encoding="utf-8"?>
<svg width="119" height="41" viewBox="-0.632 -0.5 119 41" xml:space="preserve">
	<g transform="translate(143,30)">
		<path d="M80.503,40l14.613-20.652L81.636,0h8.232l6.304,9.485c1.21,1.741,2.138,3.219,2.782,4.436
			c1.164-1.645,2.201-3.111,3.113-4.4L108.806,0h8.288l-13.717,19.389L117.736,40h-8.231l-8.253-12.284l-1.79-3.011L88.794,40
			H80.503z"/>
		<path d="M0,40l14.613-20.652L1.132,0h8.233l6.303,9.485c1.21,1.741,2.138,3.219,2.783,4.436c1.164-1.645,2.201-3.111,3.113-4.4
			L28.302,0h8.288L22.874,19.389L37.233,40h-8.231l-8.253-12.284l-1.791-3.011L8.291,40H0z"/>
		<path d="M40.252,40l14.613-20.652L41.384,0h8.233l6.303,9.485c1.21,1.741,2.138,3.219,2.783,4.436
			c1.164-1.645,2.202-3.111,3.114-4.4L68.554,0h8.288L63.125,19.389L77.484,40h-8.231l-8.252-12.284l-1.791-3.011L48.542,40H40.252z
			"/>
	</g>
</svg>
