/* XPM */
static const char* xpm_connexionred[]={
"16 16 141 2",
"ag c #3d2525",
"ai c #401e1e",
"a. c #402a2a",
"ak c #422626",
"#9 c #431e1e",
"ah c #451a1a",
".4 c #481d1d",
"aj c #482b2b",
"#1 c #4a2323",
"ad c #4b1f1f",
"#f c #4c2626",
"a# c #4d2727",
"ac c #4e1f1f",
"aa c #4e2424",
"#r c #4e2929",
"#E c #4f2727",
"#2 c #4f3333",
"#Q c #502424",
"ae c #512121",
"af c #512222",
"ab c #512424",
"#8 c #571f1f",
"#0 c #5a2323",
"#D c #5b2424",
"#P c #5c2424",
"#R c #5e2424",
"#7 c #612424",
"#q c #612727",
"#e c #642929",
"#5 c #662c2c",
"#4 c #662e2e",
"#6 c #682b2b",
"#3 c #6b2e2e",
"#Z c #6e2626",
"#C c #702828",
"#O c #722828",
"#Y c #762929",
".G c #772828",
".3 c #773232",
"#F c #792a2a",
"#X c #792d2d",
"#T c #7b3131",
"#S c #7b3333",
"#p c #7f2e2e",
"#W c #803131",
"#U c #833232",
"#N c #852c2c",
"#d c #853131",
"#V c #873333",
"#B c #882e2e",
".S c #883030",
"#G c #883333",
"#H c #8c3333",
".2 c #8f3434",
"#M c #903131",
"#o c #943333",
".R c #943636",
"#L c #953434",
"#I c #953535",
"#A c #973131",
".F c #9a3939",
"#K c #9b3636",
"#J c #9d3737",
"#c c #9e3636",
"#t c #9e3838",
"#u c #9f3737",
".u c #a33535",
"#v c #a33838",
"#z c #a43636",
"#n c #a53737",
"Qt c None",
".1 c #a83939",
"#y c #ad3939",
".Q c #ad3b3b",
"#s c #ae2e2e",
"#h c #ae3737",
".E c #ae3c3c",
"#g c #af2e2e",
"#x c #b13a3a",
"#w c #b23b3b",
"#m c #b53b3b",
"#b c #b63b3b",
".t c #b64040",
".6 c #bc3d3d",
".5 c #bd3737",
"#l c #c23d3d",
".D c #c23f3f",
".0 c #c33e3e",
".s c #c44040",
".T c #c53434",
".k c #c53838",
".P c #c53f3f",
".U c #c74242",
"#k c #c83d3d",
"#i c #c93f3f",
".j c #ca3d3d",
"#a c #ca4040",
".7 c #cb3f3f",
"#j c #cc3e3e",
".i c #d14545",
".H c #d23d3d",
".c c #d43838",
".r c #d44141",
"## c #d53f3f",
".Z c #d74040",
".C c #d83f3f",
".v c #d93a3a",
".h c #d94141",
".V c #da4040",
".O c #db4040",
".b c #dc3d3d",
".8 c #dc4040",
".# c #dd3b3b",
".q c #dd3e3e",
".l c #de3b3b",
".d c #df3b3b",
"#. c #df3e3e",
".a c #e03d3d",
".g c #e23f3f",
".z c #e3abab",
".p c #e53d3d",
".I c #e54040",
".9 c #e63e3e",
".B c #e73d3d",
".w c #e73f3f",
".Y c #e84040",
".e c #ea3e3e",
".W c #eb4040",
".J c #ec3f3f",
".f c #ec4343",
".N c #ed3f3f",
".X c #ef4040",
".m c #ef4343",
".x c #f04040",
".n c #f14040",
".o c #f84242",
".L c #f87676",
".M c #fd4343",
".A c #ff4545",
".K c #ff4d4d",
".y c #ff5656",
"QtQtQtQtQtQtQtQtQtQtQtQtQtQtQtQt",
"QtQtQtQtQtQt.#.a.b.cQtQtQtQtQtQt",
"QtQtQtQt.d.e.f.g.h.i.j.kQtQtQtQt",
"QtQtQt.l.m.n.o.p.q.r.s.t.uQtQtQt",
"QtQt.v.w.x.y.z.A.B.C.D.E.F.GQtQt",
"QtQt.H.I.J.K.L.M.N.O.P.Q.R.SQtQt",
"Qt.T.U.V.W.J.x.X.Y.Z.0.1.2.3.4Qt",
"Qt.5.6.7.8.Y.9#.###a#b#c#d#e#fQt",
"Qt#g#h#b#i#j#j#k#l#m#n#o#p#q#rQt",
"Qt#s#t#u#v.1#w#x#y#z#A#B#C#D#EQt",
"QtQt#F#G#H#I#J#K#L#M#N#O#P#QQtQt",
"QtQt#R#S#T#U#V#W#X#Y#Z#0#1#2QtQt",
"QtQtQt#3#4#5#6#e#q#7#8#9a.QtQtQt",
"QtQtQtQta#aaabacadaeafagQtQtQtQt",
"QtQtQtQtQtQtahaiajakQtQtQtQtQtQt",
"QtQtQtQtQtQtQtQtQtQtQtQtQtQtQtQt"};
