/* XPM */
static const char* xpm_image[]={
"16 16 109 2",
".# c #000000",
".V c #154625",
".s c #164525",
".K c #1a4829",
".B c #1c4b2b",
".t c #1d4c2c",
".C c #1e4d2d",
".W c #1e4f2e",
".L c #1f4f2e",
".7 c #203c29",
".8 c #2a5136",
".3 c #313131",
".U c #323d36",
".6 c #3b3d3c",
"#g c #3e3e3e",
"#a c #444444",
".l c #447150",
"#u c #464646",
"#e c #474747",
"#n c #484848",
"#d c #494949",
"#b c #505050",
".T c #514f51",
"#o c #525252",
"#E c #535353",
".2 c #545454",
".4 c #565656",
".m c #588562",
"#f c #595959",
".5 c #5b5b5b",
"#M c #5d5d5d",
".1 c #606060",
"#h c #656364",
"#C c #656565",
".h c #699871",
".9 c #6a816f",
"#c c #6b6b6b",
".F c #6c6c6c",
"#z c #6e6e6e",
"#m c #727272",
".R c #757575",
".u c #75977b",
".M c #75977c",
".X c #75997c",
".g c #78a380",
".Q c #7b7b7b",
".n c #80a486",
".i c #82a988",
"#A c #838383",
".J c #838d86",
".0 c #848484",
"#r c #858585",
"#F c #868686",
".I c #878687",
".S c #898989",
"#N c #8c8c8c",
".z c #8d8b8d",
"#v c #8d8d8d",
"#t c #8f8f8f",
"#x c #919191",
".G c #949494",
"#l c #959595",
".y c #979797",
"#j c #a2a1a2",
"#p c #a3a3a3",
"#y c #a4a4a4",
".A c #a5aea8",
"#q c #a7a7a7",
"#. c #a9aaa9",
"#s c #aaa9aa",
".H c #aaaaaa",
"#L c #ababab",
"#D c #aeaeae",
"#w c #afafaf",
".P c #b1b1b1",
"#i c #b1b2b1",
"#O c #b4b4b4",
"## c #b7b7b7",
"#H c #bebebe",
".x c #bfbfbf",
".Y c #bfc6bf",
"#k c #c6c5c6",
"#G c #c9c9c9",
".k c #ced8d2",
"Qt c None",
".w c #d4d4d4",
"#B c #d5d5d5",
"#P c #d6d6d6",
".E c #d7d7d7",
".N c #dae1da",
"#K c #e3e3e3",
".f c #e7eee8",
".j c #e8efe9",
".o c #e9f0e9",
".a c #eaeaea",
".b c #ebebeb",
".c c #ececec",
".v c #ecf3ec",
".p c #ededed",
"#J c #eeeeee",
".D c #eff6ef",
".q c #f5f5f5",
".O c #f7f7f7",
".Z c #f8f8f8",
".d c #fbfbfb",
".r c #fcfcfc",
"#Q c #fdfdfd",
"#I c #fefefe",
".e c #ffffff",
"QtQtQtQtQtQtQtQtQtQtQtQtQtQtQtQt",
"Qt.#.#.#.#.#.#.#.#.#.#.#.#.#.#Qt",
"Qt.#.a.b.c.d.e.e.e.f.g.h.i.j.#Qt",
"Qt.#.e.e.e.e.e.e.e.k.l.m.n.o.#Qt",
"Qt.#.e.e.e.e.p.q.r.k.s.t.u.v.#Qt",
"Qt.#.e.e.e.w.x.y.z.A.B.C.u.D.#Qt",
"Qt.#.e.e.E.F.G.H.I.J.K.L.M.N.#Qt",
"Qt.#.e.O.P.Q.R.S.T.U.V.W.X.Y.#Qt",
"Qt.#.Z.0.1.2.3.4.5.6.7.8.9#..#Qt",
"Qt.####a#b#c#d#e#f#g#h#i#j#k.#Qt",
"Qt.##l#m#n#f#o.2#p#q#r#s.E.d.#Qt",
"Qt.##t.2#u#v#w.0#x#y#z#A.q.e.#Qt",
"Qt.##B#r#C#D#v#E#F#G#H#G.e.e.#Qt",
"Qt.#.e#I#J#K#L#M#N#O#P#Q.e.e.#Qt",
"Qt.#.#.#.#.#.#.#.#.#.#.#.#.#.#Qt",
"QtQtQtQtQtQtQtQtQtQtQtQtQtQtQtQt"};
