/* XPM */
static const char* xpm_messageoptions[]={
"16 16 48 1",
"a c #000000",
"z c #313131",
"F c #363636",
"D c #393939",
"N c #535353",
"g c #585858",
"p c #595959",
"h c #6b6b58",
"I c #6c6c6c",
"j c #6d6d6d",
"r c #737373",
"i c #747474",
"u c #757562",
"l c #7a7a5b",
"E c #7b7b7b",
"f c #7e7e7e",
"d c #808000",
"# c #808080",
"K c #818181",
"y c #848484",
"s c #898989",
"w c #a7a7a7",
"L c #aeaeae",
"G c #b0b0b0",
"v c #b2b2b2",
"C c #b4b4b4",
"A c #b7b7b7",
"k c #bab9b8",
"R c #bbbab9",
"P c #bebebe",
"e c #c0c0c0",
". c None",
"T c #d5d5d4",
"n c #d8d8d8",
"H c #dddcdc",
"M c #dedddd",
"Q c #dfdede",
"S c #dfdfdf",
"o c #e5e5e5",
"B c #e7e7e6",
"t c #ededec",
"J c #f4f4f4",
"x c #f9f9f9",
"q c #fafafa",
"m c #fcfcfc",
"O c #fdfdfd",
"c c #ffff00",
"b c #ffffff",
"................",
"................",
"................",
".#############a.",
".#bbcbbbcbbbcaa.",
".#abbbcbbbcbada.",
".#eacbbbcbbad#a.",
".#ceabcb#fghijgk",
".#bbdabblbbbbmno",
".#cdedaapqbbbrst",
".#deeedduvwxyzAB",
".#eeeeee#CDEFGbH",
".#######IJKzLbbM",
".aaaaaaaNbOPbbbQ",
"........RMSBMMMT",
"................"};
