/* XPM */
static const char* xpm_mosicon[]={
"16 16 225 2",
".x c #1f441e",
".m c #1f4f1c",
".H c #214b20",
".G c #228a1b",
".g c #236c55",
".l c #253924",
".k c #253e22",
".f c #25563f",
".R c #263f25",
".j c #264020",
".n c #285825",
".I c #294321",
".o c #2a4220",
".Q c #2a4621",
".2 c #2b4226",
".y c #2c4620",
".i c #2d461d",
".p c #2d5425",
".w c #2e5325",
".c c #31471d",
".v c #316639",
".F c #325628",
".b c #33552b",
".h c #344e20",
".a c #34592e",
".d c #354d1e",
"## c #364b24",
".u c #365920",
".e c #374b1c",
".S c #385d25",
"ap c #394c26",
"#V c #3a4d22",
".# c #3b4d1d",
".z c #3b5f22",
".1 c #3b601a",
".q c #3b6122",
"bz c #3d7a17",
".3 c #3e5f24",
"aF c #3f4a23",
"Qt c #3f5328",
"#p c #415123",
"bA c #417a15",
".D c #43641f",
".A c #436425",
".r c #436621",
"ao c #445524",
".T c #446426",
".J c #446525",
"#a c #456229",
".s c #456620",
".M c #456720",
".C c #466720",
"a. c #475420",
".P c #476626",
".E c #476b25",
"#F c #48561e",
".V c #486820",
"aV c #4a4e23",
"a# c #4a5621",
"bu c #4c683b",
".B c #4c6a20",
"#Y c #4d9153",
"#9 c #4e7833",
".O c #4f6b25",
"bk c #4fac13",
".4 c #506c22",
".W c #51641f",
"aY c #51b60f",
"aX c #51c20e",
"bv c #525224",
".U c #526d21",
".N c #54883f",
"bl c #54a715",
"a5 c #569d19",
"bj c #579e17",
"bB c #585d1f",
"bt c #58612e",
"#b c #597127",
"a3 c #59a31a",
"#W c #5a6f23",
".K c #5a7322",
".L c #5b7221",
"#Z c #5b7c32",
"aE c #5d5423",
"by c #5d5a1e",
"aq c #5d6a29",
"bb c #5da813",
"#U c #5e521d",
"aL c #5e8a22",
"#8 c #5f7431",
"b# c #61581d",
"#. c #615c2e",
".5 c #62751f",
".X c #627a1c",
"aK c #628b21",
"aI c #62a126",
"#X c #637629",
"a4 c #639b19",
"bw c #655121",
"#q c #657823",
"aJ c #66961a",
"aa c #677720",
".6 c #687a21",
"a2 c #688023",
".7 c #6a761c",
"bs c #6b511e",
"#r c #6b7927",
"aH c #6b9429",
"an c #6c7a20",
"bo c #6d4241",
"aZ c #6d911a",
"br c #6e541e",
"ab c #6e7620",
"#o c #6f4646",
"aG c #6f741e",
"bD c #704622",
"am c #707923",
".Z c #707b1d",
"#M c #707b25",
"bE c #715029",
"bq c #71551d",
"ar c #717d3b",
"a8 c #718023",
"aU c #734322",
"bC c #734424",
"bx c #734721",
"al c #737d25",
"#G c #737f1c",
"aW c #738a1c",
"#E c #753c26",
"bp c #755a27",
"#c c #767c23",
"a6 c #767f26",
"a7 c #77742c",
".0 c #787b1b",
"b. c #79383a",
"aM c #797d38",
"#T c #798639",
"#0 c #7b7724",
"#L c #7f7123",
"ba c #7f891d",
"#4 c #817d42",
"ac c #817e1b",
"#7 c #827622",
"ad c #82791c",
"#e c #827c3f",
".Y c #837c1f",
"a1 c #846226",
"bh c #857222",
"#N c #857722",
"#3 c #857727",
"bc c #857f1a",
"#H c #86811e",
"bi c #876b25",
"#s c #897721",
"#S c #89772c",
"aA c #8a753e",
"as c #8a7b35",
"#I c #8b832f",
"aS c #8c5c35",
"bg c #8d6124",
"bd c #8d6c23",
"aD c #8d751f",
"aP c #8e5a30",
"#d c #8e781d",
"aQ c #8f5d45",
"ak c #8f701f",
"bm c #905f23",
"#w c #906b26",
"#2 c #91741f",
"#K c #925827",
"#1 c #926a25",
".8 c #946834",
"#R c #946c1b",
"a0 c #954f2b",
"aB c #95622a",
"#x c #956420",
"av c #964b30",
"aT c #965829",
"#z c #965c59",
"#J c #965f2e",
"#6 c #966420",
"au c #974a2e",
"be c #986921",
"bf c #995e24",
"ai c #995f27",
"ae c #9a6523",
"ah c #9a6820",
"bn c #9b524a",
"aO c #9b543e",
"aC c #9b6226",
"#O c #9c5f28",
"#n c #9d4f5e",
"aj c #9d5729",
"#5 c #9e5427",
".9 c #9e5d5c",
"#u c #a04546",
"#y c #a04931",
"#t c #a04b27",
"#Q c #a05921",
"#f c #a0604c",
"#B c #a1553c",
"at c #a15c25",
"#P c #a24727",
"aN c #a2614c",
"#h c #a34a47",
"aw c #a5433d",
"#C c #a54935",
"#A c #a64f35",
"#v c #a65343",
"#i c #a74a56",
"a9 c #a83c39",
"af c #a8412b",
"ay c #a93f45",
"az c #a94738",
"#D c #a94829",
"aR c #aa3d3a",
"#j c #ab6089",
"ag c #ac4a27",
"ax c #ad473f",
"#m c #b0406c",
"#g c #b25552",
"#k c #b4538f",
"#l c #b54f8a",
".t c #ffffff",
"Qt.#.a.b.c.d.e.f.g.h.i.j.k.l.m.n",
".o.p.q.r.s.t.u.t.v.t.t.t.w.t.t.x",
".y.z.A.B.C.t.t.t.D.t.E.t.F.t.G.H",
".I.J.K.L.s.t.t.t.M.t.N.t.O.P.t.Q",
".R.S.T.U.V.t.W.t.X.t.Y.t.Z.0.t.1",
".2.3.4.5.6.t.7.t.8.t.t.t.9.t.t#.",
"###a#b#c#d#e#f#g#h#i#j#k#l#m#n#o",
"#p#q#r#s#t#u#v#w#x#y#z#A#B#C#D#E",
"#F#G#H#I#J#K#L#M#N#O#P#Q#R#S#T#U",
"#V#W#X#Y#Z#0#1#2#3#4#5#6#7#8#9a.",
"a#aaabacadaeafagahaiajakalamanao",
"apaqarasatauavawaxayazaAaBaCaDaE",
"aFaGaHaIaJaKaLaMaNaOaPaQaRaSaTaU",
"aVaWaXaYaZa0a1a2a3a4a5a6a7a8a9b.",
"b#babbbcbdbebfbgbhbibjbkblbmbnbo",
"bpbqbrbsbtbubvbwbxbybzbAbBbCbDbE"};
