/* XPM */ 
static const char * xpm_objectTypeCampPrisonniers[] = {
"32 32 3 1",
" 	c None",
"!	c black",
"#	c #9F9F9F",
"                                ",
"                                ",
"                                ",
"                                ",
" !!!!!!!!!!!!                   ",
"    !     !                     ",
"    !     !                     ",
"    !     !                     ",
"   !!!!!!!!!                    ",
"   ! ! ! ! !                    ",
"   ! ! ! ! !                    ",
"   !!!!!!!!!                    ",
"  !########!                    ",
"  !########!                    ",
"  !########!                    ",
"  !########!                    ",
"  !########!                    ",
"  !#########!                   ",
"  !#########!                   ",
"!!!#########!!!!!!!!!!!!!!!!!!!!",
" !!!!!!!!!!!!                   ",
"!!!#########!!!!!!!!!!!!!!!!!!!!",
" !##########!                   ",
"!!###########!!!!!!!!!!!!!!!!!!!",
" !###########!                  ",
"!!###########!!!!!!!!!!!!!!!!!!!",
" !###########!                  ",
"!!###########!!!!!!!!!!!!!!!!!!!",
"!!!!!!!!!!!!!!!                 ",
"!#############!!!!!!!!!!!!!!!!!!",
"!#############!                 ",
"!#############!!!!!!!!!!!!!!!!!!"};
