/* XPM */
static const char* xpm_skull[]={
"15 15 135 2",
".3 c #000000",
"#s c #1d1d1d",
".2 c #212121",
"#q c #262524",
"#I c #2e2e2e",
"#A c #323232",
".N c #3d3d3d",
"#z c #3e3522",
".b c #43361d",
"#B c #434343",
".a c #482f0f",
".1 c #4a4a4a",
"#0 c #4d4127",
"#x c #4e4738",
"#n c #4e4d4b",
"#E c #514427",
"#d c #515151",
"#H c #52493a",
"#X c #524a35",
".U c #524f47",
"#M c #525252",
"ad c #534527",
"#W c #544727",
".e c #554321",
"#y c #55492e",
".w c #554c36",
"#o c #56401b",
"## c #575142",
".# c #59320c",
".D c #594c32",
"#i c #595959",
".L c #5a503a",
".P c #5a5a5a",
"#R c #5b4620",
"ac c #5b4c2f",
"#Z c #5b513c",
".C c #5b533f",
".Y c #5b574e",
"#9 c #5c451f",
".O c #5c5c5c",
".W c #5d4621",
"ae c #5e4620",
".r c #5e4e33",
".c c #5f4c27",
".v c #5f5031",
".k c #5f5339",
"#f c #5f5f5f",
"#8 c #605439",
"#l c #605b4e",
".J c #615947",
".7 c #636363",
"#m c #64512c",
"a. c #645433",
"#Q c #654d25",
"#p c #65512b",
".M c #66542d",
"#Y c #665d4a",
"#D c #666666",
"#O c #675d4a",
"#C c #676767",
"#V c #68655e",
"#4 c #695024",
".5 c #696969",
".d c #6a4718",
"ab c #6a5125",
"#. c #6a5836",
".0 c #6a6866",
".4 c #6b6b6b",
"#P c #6d5225",
"#5 c #6e5529",
"#1 c #6e6960",
".S c #717171",
".V c #726957",
".E c #777777",
"#G c #796439",
".m c #797979",
".q c #7b5e2a",
"#w c #7c6533",
".f c #7c7b7a",
".6 c #7c7c7c",
"#c c #7d7d7d",
".l c #7e5a22",
"#j c #7f7c75",
"#F c #816735",
"#v c #828281",
".T c #949494",
".X c #967c41",
".s c #969696",
".R c #979797",
".x c #9a9a9a",
"#k c #9f9f9f",
"#a c #a0a0a0",
".K c #a38340",
"#J c #a3a3a3",
"#7 c #a4a4a4",
".8 c #a7a7a7",
"#g c #aaaaaa",
"aa c #ababaa",
"#b c #acacac",
"a# c #adadad",
"#3 c #aeaba8",
".j c #aeaeae",
".9 c #b5b5b5",
"#U c #b6b6b6",
".I c #b8b8b8",
"#6 c #bcbcbc",
"#S c #bdbdbd",
".g c #bfbfbf",
"Qt c None",
".B c #c2c2c2",
"#T c #c6c6c6",
"#e c #c7c7c7",
"#h c #c9c9c9",
"#2 c #cacaca",
".u c #cbcbcb",
"#r c #cccccc",
".n c #cecece",
".i c #d0d0d0",
".Z c #d1d1d1",
"#L c #d3d3d3",
"#t c #d4d4d4",
"#N c #d5d5d5",
".Q c #d7d7d7",
".h c #d8d8d8",
"#K c #dedede",
".F c #e4e4e4",
".t c #ebebeb",
".H c #ececec",
".y c #ededed",
".A c #f5f5f5",
"#u c #f7f7f7",
".G c #f9f9f9",
".o c #fdfdfd",
".z c #fefefe",
".p c #ffffff",
"QtQtQtQtQt.#.a.b.c.dQtQtQtQtQt",
"QtQtQtQt.e.f.g.h.i.j.kQtQtQtQt",
"QtQtQt.l.m.n.o.p.p.p.g.qQtQtQt",
"QtQtQt.r.s.t.p.p.p.p.u.vQtQtQt",
"QtQtQt.w.x.y.z.z.p.A.B.CQtQtQt",
"QtQtQt.D.E.F.p.G.p.H.I.JQtQtQt",
"Qt.K.L.M.N.O.P.Q.R.S.T.U.V.WQt",
".X.Y.Z.0.1.2.3.4.5.3.6.7.8.9#.",
"###a#b#c#d#e.n#f.u#g#h#i#j#k#l",
"#m#n#o#p#q#e#r#s#t#u#v#wQt#x#y",
"QtQtQtQt#z#A#B#C.h#D#EQtQtQtQt",
"Qt#F#G#H.9#I#J#K#L#M#N#O#P#QQt",
"#R#S#T#U#V#W#X#Y#Z#0#1#L#2#3#4",
"#5#6#7#8QtQtQtQtQtQt#9a.a#aaab",
"QtacadQtQtQtQtQtQtQtQtQt#QaeQt"};
