/* XPM */
static const char* xpm_arrow1s[]={
"80 16 3 1",
"a c #000000",
"# c #808080",
". c None",
"................................................................................",
"..............................................#aa...............................",
"............................................#aaa................................",
".........................................#aaaaa.................................",
"......................................#aaaaaaa..................................",
"...................................#aaaaaaaaa...................................",
"................................#aaaaaaaaaaa#...................................",
".............................#aaaaaaaaaaaaaaaaaaaaaa............................",
"............................aaaaaaaaaaaaaaaaaaaaaaaa............................",
".............................#aaaaaaaaaaaaaaaaaaaaaa............................",
"................................#aaaaaaaaaaa#...................................",
"...................................#aaaaaaaaa...................................",
"......................................#aaaaaaa..................................",
".........................................#aaaaa.................................",
"............................................#aaa................................",
"..............................................#aa..............................."};
