/* XPM */
static const char* xpm_arrow3e[]={
"80 16 3 1",
"a c #000000",
"# c #808080",
". c None",
"................................................................................",
"................................................................................",
"......................................#.........................................",
".....................................aaaa#......................................",
"....................................aaaaaaaa#...................................",
"...................................#aaaaaaaaaaa#................................",
"............................aaaaaaaaaaaaaaaaaaaaaa#.............................",
"............................aaaaaaaaaaaaaaaaaaaaaaaa............................",
"............................aaaaaaaaaaaaaaaaaaaaaa#.............................",
"...................................#aaaaaaaaaaa#................................",
"....................................aaaaaaaa#...................................",
".....................................aaaa#......................................",
"......................................#.........................................",
"................................................................................",
"................................................................................",
"................................................................................"};
