/* XPM */
static const char* xpm_arrow2e[]={
"80 16 2 1",
"# c #000000",
". c None",
"................................................................................",
".......................................##.......................................",
".......................................####.....................................",
".......................................######...................................",
".......................................########.................................",
".......................................##########...............................",
"............................#######################.............................",
"............................########################............................",
"............................#######################.............................",
".......................................##########...............................",
".......................................########.................................",
".......................................######...................................",
".......................................####.....................................",
".......................................##.......................................",
"................................................................................",
"................................................................................"};
