/* XPM */
static const char* xpm_connexionorange[]={
"16 16 143 2",
"ak c #4d3f2b",
"ai c #4e4436",
"aj c #4f3e24",
"a# c #4f402a",
"am c #514635",
".6 c #524127",
"aa c #52493c",
"af c #544228",
"ae c #564327",
"#3 c #56462f",
"#h c #574831",
"al c #574b3a",
"ag c #584528",
"ab c #584932",
"ah c #59462a",
"#S c #59472d",
"ac c #59482f",
"ad c #5a482d",
"#G c #5a4a32",
"#t c #5a4b35",
"a. c #5c4624",
"#4 c #5e5342",
"#2 c #5f4928",
"#F c #604a29",
"#R c #614b29",
"#T c #624b28",
"#9 c #644c27",
"#s c #654e2b",
"#g c #68512d",
"#7 c #6a5330",
"#8 c #6b532e",
"#6 c #6b5533",
"#1 c #6d5125",
"#5 c #6e5631",
"#E c #6f5327",
"#Q c #705326",
"#0 c #735526",
".G c #745525",
"#H c #765727",
"#Z c #77592b",
".5 c #785d33",
"#V c #795c2f",
"#U c #7a5e32",
"#r c #7b5b2a",
"#Y c #7d5e2e",
"#P c #7e5b25",
"#W c #7f5f2e",
"#f c #805f2c",
"#D c #815e27",
".S c #815e29",
"#I c #82612d",
"#X c #82612e",
"#J c #85622c",
"#O c #866127",
".4 c #87632c",
"#q c #8a6429",
"#N c #8b652a",
".R c #8b662d",
"#C c #8c6426",
"#K c #8c662c",
"#M c #90682b",
".F c #906a2f",
"#e c #92692a",
"#L c #926a2c",
"#w c #936a2b",
"#v c #936b2d",
".u c #946926",
"#B c #956a27",
"#p c #966b28",
"#x c #966c2b",
".3 c #996d2a",
"#u c #9a5f00",
"#i c #9d6714",
"#j c #9d6e26",
"#A c #9d6f29",
".Q c #9d702b",
".E c #9e712c",
"#z c #a07129",
"#y c #a1722a",
"#d c #a37328",
"#o c #a37329",
".t c #a4762e",
".7 c #a67120",
"Qt c None",
".8 c #a77528",
".T c #aa7119",
".k c #ab741e",
"#n c #ab7726",
".D c #ab7828",
".2 c #ac7827",
".P c #ae7928",
".s c #ae7a2a",
"#m c #af7924",
".j c #b07923",
"#k c #b07a26",
".U c #b07c2b",
"#c c #b17b27",
".9 c #b27b26",
"#l c #b37b25",
".H c #b67c21",
".c c #b77816",
"#b c #b87d22",
".r c #b87e25",
".i c #b8812c",
".1 c #b97e22",
".v c #ba7a17",
".C c #ba7e21",
".V c #bb7f21",
".b c #bc7e1d",
".O c #bc7f21",
".h c #bc8024",
".q c #bd7f1e",
"#. c #bd8021",
"#a c #be7f1d",
".# c #bf7c13",
".a c #bf7f1c",
".l c #c17c10",
".g c #c1811e",
".d c #c27600",
"## c #c2801a",
".I c #c2811d",
".w c #c3811b",
".p c #c47f14",
".0 c #c4821c",
".W c #c6831b",
".Y c #c77a00",
".e c #c78216",
".B c #c88010",
".f c #c98720",
".m c #ca871e",
".x c #cc7d00",
".N c #cc8311",
".Z c #cc8413",
".J c #ce8108",
".X c #cf820b",
".o c #d08000",
".n c #d28308",
".M c #d88a11",
".A c #da8b11",
".K c #db921f",
".y c #dc982e",
".L c #e2af60",
".z c #e8d2b0",
"QtQtQtQtQtQtQtQtQtQtQtQtQtQtQtQt",
"QtQtQtQtQtQt.#.a.b.cQtQtQtQtQtQt",
"QtQtQtQt.d.e.f.g.h.i.j.kQtQtQtQt",
"QtQtQt.l.m.n.o.p.q.r.s.t.uQtQtQt",
"QtQt.v.w.x.y.z.A.B.C.D.E.F.GQtQt",
"QtQt.H.I.J.K.L.M.N.O.P.Q.R.SQtQt",
"Qt.T.U.V.W.X.Y.Z.0.1.2.3.4.5.6Qt",
"Qt.7.8.9#..0###a#b#c#d#e#f#g#hQt",
"Qt#i#j#d#k#l#l#m#n#o#p#q#r#s#tQt",
"Qt#u#v#w#x.3#y#z#A#B#C#D#E#F#GQt",
"QtQt#H#I#J#K#L#M#N#O#P#Q#R#SQtQt",
"QtQt#T#U#V#W#X#Y#Z#0#1#2#3#4QtQt",
"QtQtQt#5#6#7#8#g#s#9a.a#aaQtQtQt",
"QtQtQtQtabacadaeafagahaiQtQtQtQt",
"QtQtQtQtQtQtajakalamQtQtQtQtQtQt",
"QtQtQtQtQtQtQtQtQtQtQtQtQtQtQtQt"};
