/* XPM */ 
static const char * xpm_desaggregate[] = {
"32 32 5 1",
" 	c None",
"!	c black",
"#	c #0000FF",
"$	c white",
"%	c #FFFF48",
"                                ",
"                                ",
"                                ",
"                                ",
"                                ",
"                                ",
"     #########                  ",
"     #$$$$$$$#                  ",
"     #$$$$$$$#                  ",
"     #$$$$$$$#                  ",
"     #$$$$$$$#                  ",
"     #########                  ",
"                      ########  ",
"          #########   #$$$$$$#  ",
"          #%%%%%%%#   #$$$$$$#  ",
"          #%%%%%%%#   #$$$$$$#  ",
"          #%%%%%%%#   #$$$$$$#  ",
"          #%%%%%%%#   ########  ",
"          #########             ",
"          #                     ",
"          #                     ",
"          #                     ",
"                                ",
"                                ",
"     ########                   ",
"     #$$$$$$#                   ",
"     #$$$$$$#                   ",
"     #$$$$$$#                   ",
"     #$$$$$$#                   ",
"     ########                   ",
"                                ",
"                                "};
