/* XPM */
static const char* xpm_flare[]={
"20 20 4 1",
"# c #000000",
". c None",
"a c #d0d0d0",
"b c #fcff00",
"....................",
".......#####........",
"......##aaa##.......",
".....##a###a##......",
"....##a#####a##.###.",
"...##a###b###a###b#.",
"..##aa#.##b##a##b##.",
"..#aa##..##b###b##..",
"..#aa#..###########.",
"..#aa#..#bbb#b#bbb#.",
"..#aa#..###########.",
".##aa#...##b#b#b##..",
".#aa##..##b##b##b##.",
".#aa#...#b###b###b#.",
".#aa#...###.###.###.",
".#aa#...............",
".#aa#...............",
".#aa#...............",
".####...............",
"...................."};
