/* XPM */
static const char* xpm_msg[]={
"16 16 7 1",
"a c #000000",
"d c #808000",
"# c #808080",
"e c #c0c0c0",
". c None",
"c c #ffff00",
"b c #ffffff",
"................",
"................",
"................",
".#############a.",
".#bbcbbbcbbbcaa.",
".#abbbcbbbcbada.",
".#eacbbbcbbad#a.",
".#ceabcbbbade#a.",
".#bbdabbcadee#a.",
".#cdedaaadede#a.",
".#deeedddeeed#a.",
".#eeeeeeeeeee#a.",
".#############a.",
".aaaaaaaaaaaaaa.",
"................",
"................"};
