/* XPM */
static const char * xpm_objectTypePontFlottant[] = {
"32 32 4 1",
" 	c None",
".	c #334BFF",
"+	c #000000",
"@	c #616161",
"                                ",
"                                ",
"                                ",
"                                ",
"                                ",
"                                ",
"                                ",
"                                ",
"                                ",
"                                ",
"                                ",
"                                ",
"             ...............    ",
"            ...............     ",
"        ++++++.++++++.++++++    ",
"       +@@@@+.+@@@@+.+@@@@+     ",
"      +@@@@+.+@@@@+.+@@@@+      ",
"     ++++++.++++++.++++++       ",
"        ..............          ",
"       ..............           ",
"                                ",
"                                ",
"                                ",
"                                ",
"                                ",
"                                ",
"                                ",
"                                ",
"                                ",
"                                ",
"                                ",
"                                "};
