/* XPM */ 
static const char * xpm_objectTypeSiteDecontamination[] = {
"32 32 116 2",
"  	c None",
"! 	c black",
"# 	c #BCB8B9",
"$ 	c #1F1E23",
"% 	c #000004",
"& 	c #000104",
"' 	c #000002",
"( 	c #110B0D",
") 	c #544B4C",
"* 	c #0B0F10",
"+ 	c #080C0D",
", 	c #000200",
"- 	c #000400",
". 	c #000100",
"0 	c #000300",
"1 	c #030C0B",
"2 	c #000509",
"3 	c #000009",
"4 	c #636466",
"5 	c #9D9D9D",
"6 	c #020202",
"7 	c #070707",
"8 	c #050505",
"9 	c #030303",
": 	c #0A0A0A",
"; 	c #E6E6E6",
"< 	c #080808",
"= 	c #040404",
"> 	c #434343",
"? 	c #535353",
"@ 	c #010101",
"A 	c #131313",
"B 	c #CFCFCF",
"C 	c #505050",
"D 	c #151515",
"E 	c #DBDBDB",
"F 	c #DEDEDE",
"G 	c #6C6C6C",
"H 	c #2B2B2B",
"I 	c #191919",
"J 	c #B5B5B5",
"K 	c #474747",
"L 	c #666666",
"M 	c #CACACA",
"N 	c #4B4C4E",
"O 	c #060606",
"P 	c #0C0C0C",
"Q 	c #0E0E0E",
"R 	c #939393",
"S 	c #090909",
"T 	c #68696B",
"U 	c #1D1D1D",
"V 	c #FF0000",
"W 	c #C7C7C7",
"X 	c #181818",
"Y 	c #383838",
"Z 	c #454545",
"[ 	c #2A2A2A",
"] 	c #9E9E9E",
"^ 	c #0B0B0B",
"_ 	c #D7D7D7",
"` 	c #2E2E2E",
"a 	c #D8D8D8",
"b 	c #161616",
"c 	c #101010",
"d 	c #D3D3D3",
"e 	c #898989",
"f 	c #111111",
"g 	c #B1B1B1",
"h 	c #7A7A7A",
"i 	c #3D3D3D",
"j 	c #D6D6D6",
"k 	c #0F0F0F",
"l 	c #303030",
"m 	c #0D0D0D",
"n 	c #797979",
"o 	c #B7B7B7",
"p 	c #2D2D2D",
"q 	c #404040",
"r 	c #BFBFBF",
"s 	c #494949",
"t 	c #A0A0A0",
"u 	c #F8F8F8",
"v 	c #262626",
"w 	c #E9E9E9",
"x 	c #3C3C3C",
"y 	c #DCDCDC",
"z 	c white",
"{ 	c #ACACAC",
"| 	c #202020",
"} 	c #F2F2F2",
"~ 	c #1F1F1F",
" !	c #F9F9F9",
"!!	c #D1D1D1",
"#!	c #5E5E5E",
"$!	c #727272",
"%!	c #E7E7E7",
"&!	c #2C2C2C",
"'!	c #EAEAEA",
"(!	c #757575",
")!	c #817D7E",
"*!	c #D2CECF",
"+!	c #393536",
",!	c #EEEAEB",
"-!	c #F6F2F3",
".!	c #332F30",
"0!	c #FDF9FA",
"1!	c #030000",
"2!	c #D4D0D1",
"3!	c #8A9090",
"4!	c #AAB0B0",
"5!	c #1A2020",
"6!	c #040A0A",
"7!	c #EEF4F4",
"8!	c #17170F",
"9!	c #707068",
"                                                                ",
"                                # $ % & ' ( )                   ",
"                            * + , - . , , 0 1 2 3 4             ",
"                        5 ! 6 ! ! ! ! ! ! ! ! ! ! ! !           ",
"                      ! 7 8 9 ! ! ! ! ! ! ! ! ! ! ! : !         ",
"                  ; 7 ! < ! ! = ! ! ! ! = 6 ! ! ! 8 ! 9 < >     ",
"                  ? ! ! 9 ! ! ! ! < ! ! ! 8 @ = @ 7 ! ! ! =     ",
"                  ! ! A B B B B B C ! 6 7 D E B B B F G 8 < H   ",
"                I ! ! J B B B B B B 7 9 ! K B B B B B B ! ! !   ",
"                @ 9 8 = B B B B B B ! ! ! L B B B B B M < 8 ! N ",
"                7 = O 8 B B B B B B P ! Q R B B B B B < ! 9 S T ",
"                U 8 ! ! O B B B B B 6 ! ! R B B B B B 9 @ ! ! B ",
"        V V V V V ! 9 @ ! B B B B W 9 6 ! X B B B B Y ! ! ! Z   ",
"        V V V V V [ ! 8 ! 8 B ] ^ 9 ! ! 9 ! 8 : B _ ! ! 6 ! B   ",
"        V V V V V   ! O ! ! = @ ! 7 ! 6 ! @ ! 8 ! 7 ! 9 ! `     ",
"        V V V V V   a ! ! ! ! ! ! ! ! = ! ! ! ! ! 6 ! ! !       ",
"        V V V V V     ! = ! ! ! 7 ! ! ! ! 9 ! ! ! ! 6 ! b       ",
"        V V V V V     c 7 ! ! ! ! ! ! S 6 ! ! ! ! ! @ 8 d       ",
"        V V V V V     e ! 8 f ! g h S = ! i j 7 6 ! ! k         ",
"V V V V V V V V V V V V V ! = l ! ! m 8 ! ! : n ! ! !           ",
"V V V V V V V V V V V V V V V V ! ! ! ! ! 9 6 8 j B             ",
"V V V V V V V V V V V V V V V V ! ! ! ! ! ! ! S B               ",
"V V V V V V V V V V V V V V V 6 9 ! ! ! ! ! ! ! o               ",
"V V V V V V V V V V V V V V V = ! ! 5 p q r ! ! X               ",
"        V V V V V           s ! ! t u F v w O x !               ",
"        V V V V V           y ! z ! ! { 7 ! | } ! B             ",
"        V V V V V           ! z S O z ! ~  !! 8 !!!             ",
"        V V V V V           ! ! #!$!! %!&!^ '!Q ! (!            ",
"        V V V V V           )!! *!+!,!-!.!0!1!2!!               ",
"        V V V V V             3!! ! 4!5!6!7!! !                 ",
"        V V V V V                 8!! ! ! ! 9!                  ",
"                                                                "};
