/* XPM */ 
static const char * xpm_objectTypeDestructionPont[] = {
"32 32 4 1",
" 	c None",
"!	c black",
"#	c #ABABAB",
"$	c #0000FF",
"                                ",
"                                ",
"                                ",
"                                ",
"                                ",
"                                ",
"                                ",
"                                ",
"                                ",
"                                ",
"                                ",
"                                ",
"                                ",
"                                ",
"!!!!!!!!!!!!!!!!!!!!!!!         ",
"######################!         ",
"#######!!!!!########!!!         ",
"######!     !#######!           ",
"#####!       !#####!            ",
"#####!       !#####!            ",
"!###!         !###!             ",
"!###!         !###!             ",
"!###!         !###!             ",
"!###!         !###!             ",
" !#!           !#!              ",
" !#!           !#!              ",
" !#!           !#!              ",
" !#!           !#!              ",
" !#!           !#!              ",
"$$$$$$$$$$$$$$$$$$$$$$$$$$$$$$$$",
"$$$$$$$$$$$$$$$$$$$$$$$$$$$$$$$$",
"$$$$$$$$$$$$$$$$$$$$$$$$$$$$$$$$"};
