/* XPM */ 
static const char * xpm_realtimelog[] = {
"32 32 6 1",
" 	c None",
"!	c black",
"#	c #929292",
"$	c #C0C0C0",
"%	c #B8B8B8",
"&	c #FF0000",
"                                ",
"                        ####    ",
"                        #  #    ",
"             ##$$$$$$$$$$$ #    ",
"              #$$$#######$ #    ",
"               ##$#%###%#$ #    ",
"                #$##%#%##$##    ",
"                 $##%#%##$      ",
"                 $###%###$      ",
"                 $###%###$      ",
"      &&&&&      $##%#%##$      ",
"      &&&&&      $##%#%##$      ",
"      &&&&&      $#%###%#$      ",
"      &&&&&      $#######$      ",
"      &&&&&      $$$$$$$$$      ",
" &&&&&&&&&&&&&&&            !!  ",
" &&&&&&&&&&&&&&&           !!!  ",
" &&&&&&&&&&&&&&&          !!   !",
" &&&&&&&&&&&&&&&          !!   !",
" &&&&&&&&&&&&&&&          !!!!!!",
"      &&&&&              !!!!!! ",
"      &&&&&             !!!     ",
"      &&&&&            !!!      ",
"      &&&&&           !!!       ",
"      &&&&&          !!!        ",
"                    !!!         ",
"                   !!!          ",
"                 !!!!!          ",
"                !!!!!!          ",
"                !!  !!          ",
"                !   !!          ",
"                   !!           "};
