/* XPM */
static const char* xpm_rectangle[]={
"16 16 3 1",
"# c #000000",
"a c #838079",
". c None",
"................",
"................",
"................",
"................",
"..############..",
"..#aaaaaaaaaa#a.",
"..#a.........#a.",
"..#a.........#a.",
"..#a.........#a.",
"..#a.........#a.",
"..#a.........#a.",
"..############a.",
"...aaaaaaaaaaaa.",
"................",
"................",
"................"};
