/* XPM */
static const char *xpm_tacticallines[]={
"16 16 3 1",
"a c #bdbdbd",
". c None",
"# c #ffffff",
"................",
".........##.....",
"........##a.....",
".......##a......",
"......##a.......",
".....##a........",
"....##a......##.",
"...##a......##a.",
"..##a......##a..",
".##a......##a...",
"..a......##a....",
"........##a.....",
".......##a......",
"......##a.......",
".....##a........",
"......a........."};
