/* XPM */
static const char* xpm_textbig[]={
"16 16 40 1",
"u c #000000",
"D c #001010",
"q c #002020",
"K c #003030",
"f c #004444",
"E c #006565",
"h c #007575",
"m c #008888",
"k c #009898",
"H c #00a9a9",
"r c #00b9b9",
"c c #00fefe",
"C c #02efef",
"p c #04f1f1",
"l c #0a4e4d",
"B c #0efbfa",
"s c #1b1b1a",
"o c #1bf8f7",
"z c #2ec6c4",
"d c #354443",
"G c #393836",
"b c #39f2ef",
"n c #474543",
"y c #549793",
"F c #555350",
"i c #73716c",
"x c #73e5e1",
"t c #80e2dd",
"J c #88c9c4",
"g c #8d8b85",
"j c #8ddfda",
"w c #9b9993",
"a c #9bdcd6",
"I c #a2cec8",
"L c #aca9a2",
"e c #b9b6af",
"# c #b9d6cf",
"v c #c7c3bb",
"A c #c7d3cb",
". c None",
"................",
"................",
".......#aa......",
".......bccde....",
"......acccfg....",
"......bchchi....",
".....jcklcmn....",
".....opqicrs....",
"....tchs.ocuv...",
"....occccccqw...",
"...xcmfyyzcfi...",
"..ABCDuuuEchF...",
"..xchG...acHG...",
"..IlDw....JKu...",
"..iuG......uuL..",
"..Lwe......Lwv.."};
