/* XPM */
static const char* xpm_textsmall[]={
"16 16 68 2",
".r c #000000",
"#b c #000019",
".R c #000025",
"## c #000035",
".Z c #00005b",
".5 c #0000ba",
".Q c #0000c7",
".N c #06067d",
".9 c #0b0b82",
".Y c #0b0bab",
"#. c #0c0c24",
".8 c #0c0cc5",
".1 c #0d0d19",
".F c #0f0fa0",
".6 c #1010b0",
".3 c #1b1aaa",
".L c #1b1b1a",
".7 c #1b1bc7",
".t c #1d0d0c",
".G c #1f1e79",
".K c #200000",
".X c #2120c0",
".W c #2a29b9",
".H c #2c0c0b",
".E c #2e2da3",
".j c #300000",
"#a c #323148",
".O c #343366",
".P c #3e3d96",
".I c #440000",
".V c #4745c7",
".2 c #4a49bd",
".J c #52312f",
".c c #73716c",
".U c #7371c8",
".q c #750000",
".g c #783331",
".u c #807e79",
".4 c #918f96",
".b c #931e1d",
".x c #9b9993",
".0 c #9b99c8",
".f c #9e0605",
".y c #a18f8a",
".D c #a30b0a",
".S c #aca9a2",
".M c #aca9c8",
".h c #b33d3a",
".# c #c62d2b",
".d c #c7c3bb",
".T c #c7c3c8",
".a c #c90f0f",
".w c #d41a19",
"Qt c None",
".k c #d7c3bb",
".p c #d80b0a",
".e c #dca9a2",
".A c #de100f",
".s c #df9993",
".v c #e24946",
".n c #e32928",
".l c #e7716c",
".z c #ed0000",
".o c #ee201f",
".m c #f04543",
".C c #f90c0c",
".B c #f91b1a",
".i c #fe0000",
"QtQtQtQtQtQtQtQtQtQtQtQtQtQtQtQt",
"QtQtQtQtQtQtQtQtQtQtQtQtQtQtQtQt",
"QtQtQt.#.a.a.b.c.dQtQtQtQtQtQtQt",
"QtQt.e.f.g.h.i.j.cQtQtQtQtQtQtQt",
"QtQt.k.l.m.n.i.j.cQtQtQtQtQtQtQt",
"QtQt.o.p.q.q.i.r.cQtQtQtQtQtQtQt",
"Qt.s.i.t.u.v.w.r.xQtQtQtQtQtQtQt",
"Qt.y.z.A.B.C.D.rQt.E.F.F.G.c.dQt",
"Qt.d.H.I.J.j.K.L.M.N.O.P.Q.R.cQt",
"QtQt.S.c.c.S.x.S.T.U.V.W.Q.R.cQt",
"QtQtQtQtQtQtQtQt.X.Y.Z.Z.Q.r.cQt",
"QtQtQtQtQtQtQt.0.Q.1.u.2.3.r.xQt",
"QtQtQtQtQtQtQt.4.5.6.7.8.9.rQtQt",
"QtQtQtQtQtQtQt.d#.###a.R#b.LQtQt",
"QtQtQtQtQtQtQtQt.S.c.c.S.x.SQtQt",
"QtQtQtQtQtQtQtQtQtQtQtQtQtQtQtQt"};
