/* XPM */
static const char * xpm_threed[] = {
"16 16 3 1",
" 	c None",
".	c #FF0000",
"+	c #573C3C",
"                ",
"                ",
"                ",
"                ",
"  .....  ....   ",
"  ++++. +.+++.  ",
"     .+ +.   +. ",
"   ..+  +.   +. ",
"   ++.  +.   +. ",
"     +. +.   +. ",
"  .   . +.   .+ ",
"  +...+ +....+  ",
"   +++  +++++   ",
"                ",
"                ",
"                "};
